<svg width="22" height="23" fill="none" xmlns="http://www.w3.org/2000/svg"><path d="M14.297.012s-.668.034-1.524.401c-.858.368-2.02 1.056-3.37 2.406-2.702 2.702-3.61 5.482-3.61 5.482a.856.856 0 101.604.536s.804-2.354 3.236-4.787c1.216-1.217 2.194-1.812 2.835-2.086.414-.178.424-.146.534-.16l.99.989a52.431 52.431 0 00-4.947 4.332c-3.631 3.63-7.006 8.21-7.006 8.21l3.637 3.636s4.579-3.376 8.21-7.006c3.63-3.63 5.962-7.166 5.962-7.166l-3.637-3.637s-.321.245-.801.588L14.912.252a.856.856 0 00-.615-.24zm5.695 0c-.545.06-1.187.33-2.005.722l3.289 3.29c.783-1.639 1.065-2.547.16-3.451-.452-.452-.898-.621-1.444-.561zM2.45 15.923C1.316 17.814.982 19.383.9 20.281l-.723.696a.605.605 0 00.856.856l.722-.723c.902-.086 2.457-.426 4.332-1.55L2.45 15.923z" fill="#FCFCFC"/></svg>