<svg width="51" height="50" fill="none" xmlns="http://www.w3.org/2000/svg"><path fill-rule="evenodd" clip-rule="evenodd" d="M10.05 48.386c.12 0 .236.046.32.13.09.082.137.2.132.32v.295a.445.445 0 01-.452.424H3.095a.425.425 0 01-.32-.133.454.454 0 01-.127-.32c.002-.248.032-.495.089-.736.054-.225.135-.443.24-.649a4.851 4.851 0 01.827-1.069c.178-.174.359-.336.545-.486.19-.154.38-.3.57-.44l.586-.416c.194-.138.388-.267.582-.391.401-.262.773-.528 1.119-.803.346-.274.675-.557.987-.831.25-.239.453-.52.6-.832.134-.296.209-.615.219-.94a2.24 2.24 0 00-.169-.852 1.632 1.632 0 00-.46-.62 2.906 2.906 0 00-1.785-.519 3.424 3.424 0 00-1.169.196 1.837 1.837 0 00-.79.536 3.188 3.188 0 00-.611 2.041.413.413 0 01-.127.316.451.451 0 01-.32.125h-.313a.451.451 0 01-.32-.125.413.413 0 01-.127-.316c.017-2.602 1.276-3.92 3.777-3.954.468-.006.933.06 1.38.196.412.126.8.319 1.148.57a2.916 2.916 0 011.093 2.423 3.441 3.441 0 01-.304 1.327 4.105 4.105 0 01-.78 1.151c-.33.335-.676.653-1.039.952-.372.31-.766.595-1.177.853a25.639 25.639 0 00-2.11 1.559 2.91 2.91 0 00-.823 1.018h6.064zm9.31.012c.122 0 .239.046.325.13a.414.414 0 01.144.286v.295a.413.413 0 01-.131.316.424.424 0 01-.325.13h-6.952a.424.424 0 01-.316-.134.46.46 0 01-.13-.32c.006-.248.037-.494.092-.736.054-.225.135-.443.24-.649a4.841 4.841 0 01.826-1.069 5.96 5.96 0 01.544-.486c.185-.154.375-.3.569-.441l.581-.416c.194-.137.388-.266.582-.391a11 11 0 001.116-.803c.341-.274.674-.557.99-.832a2.87 2.87 0 00.599-.831 2.47 2.47 0 00.215-.94 2.168 2.168 0 00-.169-.853 1.582 1.582 0 00-.438-.616 2.897 2.897 0 00-1.782-.52c-.4-.003-.796.063-1.172.196a1.834 1.834 0 00-.788.537 3.218 3.218 0 00-.61 2.042.413.413 0 01-.127.316.424.424 0 01-.316.124h-.316a.424.424 0 01-.316-.124.413.413 0 01-.127-.316c0-2.604 1.258-3.922 3.772-3.956.466-.006.931.06 1.377.196.412.126.799.319 1.146.57a2.895 2.895 0 011.087 2.424 3.37 3.37 0 01-.299 1.327 4.198 4.198 0 01-.78 1.152c-.32.325-.665.64-1.036.953-.372.31-.764.594-1.175.852a24.94 24.94 0 00-2.107 1.56 2.86 2.86 0 00-.838 1.027h6.046zm9.576-2.474a8.11 8.11 0 00.218-1.974 8.237 8.237 0 00-.206-1.999 6.783 6.783 0 00-.68-1.754 3.511 3.511 0 00-1.393-1.358 4.614 4.614 0 00-2.142-.502 4.558 4.558 0 00-2.107.502 3.454 3.454 0 00-1.384 1.387 6.848 6.848 0 00-.694 1.75 7.611 7.611 0 00-.227 1.978 7.55 7.55 0 00.227 1.97 6.76 6.76 0 00.694 1.738c.317.573.796 1.05 1.384 1.375a4.51 4.51 0 002.099.518 4.592 4.592 0 002.141-.518 3.507 3.507 0 001.389-1.387 6.538 6.538 0 00.68-1.726zm-1.046-2.79c.047.294.047.563.047.816a6.99 6.99 0 01-.025.791c-.03.286-.069.551-.112.816-.055.256-.126.51-.21.759a3.501 3.501 0 01-.33.697 2.744 2.744 0 01-.428.563 2.768 2.768 0 01-.56.408c-.204.14-.432.242-.673.302-.28.067-.569.099-.857.094a3.354 3.354 0 01-.857-.094 2.357 2.357 0 01-.69-.302 2.568 2.568 0 01-.955-.99 4.307 4.307 0 01-.518-1.457 7.086 7.086 0 010-3.21c.04-.26.104-.515.192-.763a3.39 3.39 0 01.317-.67c.119-.204.263-.394.429-.566.163-.165.346-.312.544-.437.46-.257.987-.387 1.52-.375 1.212.025 2.05.481 2.515 1.37.131.217.24.445.326.682.088.245.16.496.214.75.022.129.038.261.055.4.016.133.033.272.056.416zm10.59.816a7.708 7.708 0 01-.218 1.974 6.68 6.68 0 01-.677 1.726 3.536 3.536 0 01-1.388 1.387 4.598 4.598 0 01-2.142.518 4.506 4.506 0 01-2.099-.518 3.532 3.532 0 01-1.384-1.375 6.926 6.926 0 01-.698-1.738 7.935 7.935 0 01-.227-1.97 8 8 0 01.227-1.978c.152-.61.387-1.198.698-1.75a3.454 3.454 0 011.384-1.387 4.553 4.553 0 012.103-.502 4.618 4.618 0 012.142.502c.588.32 1.07.79 1.392 1.358a6.91 6.91 0 01.677 1.754c.156.656.226 1.327.21 2zm-1.216 0c0-.253 0-.522-.043-.816-.016-.11-.03-.216-.043-.319a8.453 8.453 0 00-.073-.497 5.282 5.282 0 00-.214-.75 3.86 3.86 0 00-.321-.681c-.472-.89-1.311-1.346-2.52-1.371a2.973 2.973 0 00-1.516.375 2.988 2.988 0 00-.544.437c-.167.17-.311.361-.428.567-.13.212-.238.436-.321.669a4.79 4.79 0 00-.193.763 7.086 7.086 0 000 3.21c.043.258.11.511.197.759.087.24.196.474.325.697.218.407.549.75.956.991.21.137.443.24.69.302.272.067.553.098.835.094.288.005.576-.027.856-.094a2.1 2.1 0 00.677-.302c.203-.112.39-.25.557-.408.166-.17.31-.36.429-.563.134-.22.243-.454.325-.697.086-.249.156-.502.21-.759.047-.265.086-.53.116-.816.029-.262.043-.527.043-.79zm10.325 1.974c.154-.647.227-1.31.219-1.974a8.232 8.232 0 00-.206-1.999 6.778 6.778 0 00-.682-1.754 3.513 3.513 0 00-1.394-1.358 4.621 4.621 0 00-2.144-.502 4.567 4.567 0 00-2.11.502 3.48 3.48 0 00-1.376 1.383 6.842 6.842 0 00-.694 1.75 7.607 7.607 0 00-.227 1.978 7.545 7.545 0 00.227 1.97c.149.606.382 1.19.694 1.738.316.572.792 1.05 1.377 1.379a4.52 4.52 0 002.1.518 4.587 4.587 0 002.145-.518 3.508 3.508 0 001.39-1.387 6.53 6.53 0 00.681-1.726zm-1.046-2.79c.047.294.047.563.047.816 0 .259-.014.518-.043.775-.03.286-.069.55-.111.816-.056.256-.127.51-.21.759a3.728 3.728 0 01-.326.697 2.918 2.918 0 01-.412.571 2.774 2.774 0 01-.562.408 2.08 2.08 0 01-.673.302c-.28.067-.569.098-.858.094a3.365 3.365 0 01-.857-.094 2.358 2.358 0 01-.69-.302 2.57 2.57 0 01-.957-.991 4.313 4.313 0 01-.519-1.456 7.077 7.077 0 010-3.21c.04-.26.105-.515.193-.763.08-.234.187-.458.318-.67.118-.204.262-.394.428-.566.164-.165.346-.312.545-.437.46-.257.988-.387 1.522-.375 1.21.024 2.05.481 2.522 1.37.126.22.233.452.317.69.088.245.16.496.214.75.022.129.038.261.055.4.017.133.034.272.057.416z" fill="#808285"/><path fill-rule="evenodd" clip-rule="evenodd" d="M47.648 35.642v-2.79c-.888.458-1.811.844-2.762 1.153a7.076 7.076 0 01-1.919.26 4.892 4.892 0 01-3.3-1.102 3.528 3.528 0 01-1.286-2.79 3.446 3.446 0 011.306-2.79 5.07 5.07 0 013.375-1.088 9.179 9.179 0 014.44 1.302v-2.8a9.086 9.086 0 00-4.672-1.12c-2.312 0-4.182.637-5.608 1.911a6.011 6.011 0 00-2.15 4.65 6.009 6.009 0 002.036 4.613c1.358 1.24 3.182 1.86 5.473 1.86a10.768 10.768 0 005.067-1.269zM11.558 26.7v-2.283H2.81v12.496h3.176v-5.139h5.573V29.49H5.985V26.7h5.573zm21.853-1.846v2.485c-1.706-.757-3.066-1.137-4.08-1.14a2.815 2.815 0 00-1.378.288.856.856 0 00-.512.763.928.928 0 00.367.694 6.816 6.816 0 001.778.847c.783.27 1.547.592 2.286.963a4.45 4.45 0 011.478 1.256c.432.597.652 1.319.625 2.053a3.38 3.38 0 01-1.36 2.792 5.722 5.722 0 01-3.58 1.052 9.556 9.556 0 01-4.624-1.21v-2.741c.715.491 1.48.91 2.282 1.247.672.262 1.39.395 2.112.39 1.26 0 1.882-.39 1.882-1.172a1.029 1.029 0 00-.377-.759 6.007 6.007 0 00-1.82-.865c-.78-.26-1.543-.572-2.282-.93a4.273 4.273 0 01-1.458-1.253 3.342 3.342 0 01-.612-2.075 3.162 3.162 0 011.336-2.648 5.776 5.776 0 013.576-1.01c1.505.024 2.99.356 4.36.973zM22.46 27.34v-2.478a11.074 11.074 0 00-4.375-.984 5.785 5.785 0 00-3.553 1.026 3.148 3.148 0 00-1.33 2.64 3.33 3.33 0 00.587 2.066c.383.519.88.945 1.453 1.248a19.1 19.1 0 002.283.928 6.064 6.064 0 011.819.864c.227.189.364.463.376.756 0 .78-.627 1.17-1.88 1.17a5.703 5.703 0 01-2.105-.39 12.837 12.837 0 01-2.289-1.244v2.734a9.583 9.583 0 004.639 1.23 5.689 5.689 0 003.595-1.072 3.359 3.359 0 001.358-2.785 3.28 3.28 0 00-.62-2.047 4.443 4.443 0 00-1.476-1.253 19.636 19.636 0 00-2.284-.96 6.66 6.66 0 01-1.795-.846.925.925 0 01-.367-.691.858.858 0 01.508-.761c.427-.21.9-.309 1.377-.288 1.015.003 2.374.382 4.079 1.137z" fill="#2A8961"/><path d="M33.295 3.37c-3.62-3.682-9.326-4.403-13.764-1.74-5.236 3.069-6.537 9.983-3.416 14.968.073.117.456 0 .42-.145a10.762 10.762 0 011.51-9.49 10.54 10.54 0 016.703-4.855 10.63 10.63 0 018.172 1.456c.1.086.502-.067.375-.194z" fill="#2A8961"/><path d="M33.66 1.724c-1.616-.978-3.757-.63-5.445-.115h-.059c-4.056 1.465-8.652 5.387-8.302 10.159 0 .128.404 0 .43-.092.953-3.11 3.403-5.511 6.193-6.98 2.79-1.47 7.681-1.957 8.375 2.126 0 .133.409 0 .431-.092.45-1.961.2-3.885-1.624-5.006z" fill="#AAD0C0"/><path d="M33.975 7.306c-.312-.36-.405-.45-.736-.798-.107-.112-.513 0-.401.167 2.076 3.275 1.86 7.446-.541 10.506-1.494 1.84-3.666 3.052-6.062 3.381-2.48.388-4.905-.527-7.106-1.537-.136-.063-.495.045-.331.22 3.315 3.608 9.176 4.478 13.252 1.484 2.115-1.52 3.51-3.797 3.873-6.32a9.27 9.27 0 00-1.948-7.103z" fill="#808285"/><path d="M31.604 10.832c-.023-.137-.42-.086-.461.037-.462 2.435-1.984 4.464-3.848 6.077-2.408 2.079-7.843 4.08-9.103-.147-.041-.15-.429-.082-.461.064-.55 4.318 3.23 5.364 6.713 4.113 3.69-1.316 7.197-5.204 7.257-9.189a4.281 4.281 0 00-.097-.955z" fill="#BCBEC0"/></svg>