<svg width="8" height="15" fill="none" xmlns="http://www.w3.org/2000/svg"><path fill-rule="evenodd" clip-rule="evenodd" d="M6.946 2.559a1.77 1.77 0 11-3.54 0 1.77 1.77 0 013.54 0zm-.122 8.882a.443.443 0 01.161.067.442.442 0 01.124.571c-.606.925-1.756 2.101-2.858 2.544a3.774 3.774 0 01-1.367.274c-.482.03-.96-.1-1.362-.367A1.23 1.23 0 011 13.203c.03-.155.537-1.617 1.033-3.046.456-1.316.903-2.604.958-2.816.1-.24.11-.509.03-.756a.39.39 0 00-.375-.195c-.146.013-1.474.186-1.474.186a.443.443 0 11-.057-.885c.024-.002.58-.073 1.264-.16a346.6 346.6 0 012.594-.327c1.251-.199 1.37.629 1.097 1.47-.186.574-1.88 5.6-1.978 5.883l-.234.694a3.99 3.99 0 01-.01.038c-.035.147-.1.413.045.458.224.086.745-.31.908-.433a7.346 7.346 0 001.565-1.677.443.443 0 01.458-.196z" fill="#fff"/></svg>