<svg width="200" height="157" fill="none" xmlns="http://www.w3.org/2000/svg"><path d="M0 92.31V157l200-81.096v-64.69L0 92.311z" fill="#0B0D0E"/><path d="M0 81.096v5.777L200 5.777V0L0 81.096z" fill="#AF272F"/><path d="M86.876 103.619c.55-3.944 1.355-9.277 1.465-11.248h.11c.256 2.555.842 6.61 1.5 11.248h-3.075zm3.88-14.317h-4.648L82.117 113.7h3.331l.989-7.049h3.917l1.099 7.049h3.441l-4.137-24.398zm-37.75-2.416l1.917-10.187h-3.02a50.52 50.52 0 00-1.13 7.12h-.11a58.558 58.558 0 00-1.166-7.12h-3.12l1.979 10.187h4.65zm29.961 2.416H71.8v3.032h3.954V113.7h3.259V92.334h3.954v-3.032zm-15.75 7.305c0 3.981 0 7.414.184 10.555h-.074a41.073 41.073 0 00-.952-4.346l-3.587-13.514h-3.844V113.7h3.075v-7.524c0-4.419-.036-7.962-.183-10.92h.036c.147.73.33 1.753.66 3.03l4.026 15.414h3.698V89.302h-3.038v7.305zm-18.196 7.012c.55-3.944 1.355-9.277 1.465-11.248h.11c.255 2.555.842 6.61 1.5 11.248h-3.075zm-.768-14.317L44.262 113.7h3.331l.989-7.049h3.917l1.099 7.049h3.441l-4.137-24.398h-4.65zm-9.3 10.075h-4.467V89.302H31.19V113.7h3.295v-11.292h4.466V113.7h3.296V89.302h-3.296v10.075zm-13.688 8.369c0 2.009-.366 3.324-1.94 3.324-1.611 0-2.014-1.388-2.014-3.324v-12.82c0-1.862.44-2.994 1.94-2.994 1.575 0 1.941 1.206 1.941 2.959v4.242h3.295v-3.877c0-3.324-.842-6.282-5.199-6.282-3.625 0-5.345 2.337-5.345 6.172v12.344c0 3.653.879 6.538 5.271 6.538 4.87 0 5.383-3.688 5.383-6.61v-5.478l-3.332 1.374v4.432z" fill="#FCFCFC"/></svg>