<svg width="75" height="76" fill="none" xmlns="http://www.w3.org/2000/svg"><path fill-rule="evenodd" clip-rule="evenodd" d="M74.597 51.88c3.403-8.38-16.93-6.65-21.558-6.145-8.885-5.133-14.298-12.741-17.58-22.515C36.137 19.391 41.433 0 34.05 0c-9.432 0-3.894 18.89-2.417 23.674-1.562 5.44-3.98 12.038-7.858 19.795C14.708 61.702 7.757 71.424 3.123 72.43c.504-2.569 4.835-8.764 11.434-13.65L17 55C11.5 57-6.15 70.359 2.518 74.597 10.5 78.5 19.565 59.7 21.91 55.658c8.21-2.921 19.443-5.289 29.668-6.296 3.148 1.684 19.994 9.966 23.019 2.518zm-15.413-3.072c2.936-.155 14.629-.738 14.053 2.72-4.166 1.851-10.287-1.077-14.053-2.72zm-36.065 4.634c7.908-3.274 16.32-5.49 23.926-6.8-6.03-4.194-10.223-10.146-13.197-16.823-2.473 8.336-6.537 16.045-10.729 23.623zM33.697 1.864c-2.506 3.758-.982 10.243-.151 14.254.76-3.523 3.733-11.499.15-14.254z" fill="#FCFCFC"/></svg>