<svg width="150" height="150" fill="none" xmlns="http://www.w3.org/2000/svg"><g clip-path="url(#clip0)" fill="#fff"><path d="M76.297 120.981c.063-.414.122-.827.19-1.24.187-1.145.34-2.298.596-3.427.305-1.35.699-2.679 1.065-4.015a37.04 37.04 0 011.92-5.087.46.46 0 01.356-.222 1.835 1.835 0 001.772-1.341c.101-.395.255-.774.458-1.127a3.438 3.438 0 011.88-1.723c1.3-.72 2.604-1.432 3.9-2.158.382-.215.744-.464 1.106-.713.062-.043.07-.164.104-.249a1.579 1.579 0 00-.263-.044c-.046 0-.094.042-.14.067-.766.425-1.526.862-2.3 1.273-.686.364-1.384.703-2.08 1.048-.258.127-.523.237-.786.355.218-.521.49-.968.711-1.439a3.004 3.004 0 011.695-1.512c.91-.376 1.768-.866 2.555-1.457.605-.458 1.183-.95 1.732-1.474.45-.438.878-.901 1.279-1.386.184-.216.293-.497.465-.726.347-.461.726-.898 1.069-1.362.391-.53.755-1.08 1.136-1.616.515-.55 1.09-1.043 1.712-1.469.73-.666 1.467-1.325 2.193-1.997.064-.059.064-.184.095-.28l-.1-.067c-.388.316-.768.64-1.164.945-1.063.816-2.101 1.671-3.21 2.42-.976.66-2.03 1.208-3.06 1.783a.855.855 0 01-1.093-.03.985.985 0 00-.343-.145c-.23-.079-.255-.184-.07-.35.185-.168.36-.349.534-.527.34-.347.653-.724 1.021-1.039a5.146 5.146 0 012.038-.837 22.429 22.429 0 002.305-.558 10.334 10.334 0 002.886-1.86c.593-.516 1.123-1.104 1.711-1.626a9.23 9.23 0 011.348-1.026 5.692 5.692 0 011.586-.954c.059-.013.089-.151.131-.231a.806.806 0 00-.267-.003c-.113.037-.209.129-.321.17a3.784 3.784 0 00-.534.163 13.554 13.554 0 00-2.546 1.831c-.499.46-.99.928-1.502 1.37-.797.68-1.69 1.239-2.65 1.659-.852.379-1.486-.117-2.202-.322.59-.544 1.134-1.058 1.69-1.56a4.61 4.61 0 011.655-.923c.715-.23 1.406-.53 2.061-.898 1.01-.587 1.977-1.25 2.941-1.912a16.24 16.24 0 012.878-1.567c.198-.084.358-.158.025-.413.699-.273 1.321-.536 1.957-.756.451-.157.923-.252 1.383-.383.068-.02.122-.09.182-.136-.076-.04-.15-.11-.228-.114-.269-.015-.539-.006-.809-.006.168-.18.366-.33.586-.444a18.239 18.239 0 013.332-1.355c.368-.117.722-.277 1.083-.417a5.091 5.091 0 01-.028-.108 1.808 1.808 0 00-.528-.034c-1.203.26-2.371.66-3.48 1.195a38.67 38.67 0 00-2.302 1.28 1.613 1.613 0 01-1.848-.046 1.612 1.612 0 01-.434-.486c.021-.023.038-.062.063-.068a6.203 6.203 0 002.128-1.04 3.052 3.052 0 012.134-.596c.285.044.576.04.86-.012.74-.176 1.468-.395 2.198-.609a9.341 9.341 0 013.525-.597c.161-.008.321-.04.474-.092l.017-.134a2.46 2.46 0 00-.614-.206 7.258 7.258 0 00-2.352.22c-.955.257-1.907.53-2.869.756a1.381 1.381 0 01-1.591-.481c.445-.233.884-.47 1.33-.694.377-.24.785-.428 1.213-.558a11.633 11.633 0 012.023-.142 7.194 7.194 0 002.388-.609c.724-.262 1.44-.545 2.16-.821.319-.123.636-.248.954-.372l-.028-.118a.958.958 0 00-.353-.064c-.511.097-1.016.226-1.51.388a12.99 12.99 0 01-3.532 1.034 1.507 1.507 0 01-1.385-.641 5.835 5.835 0 001.948-1.427c.246-.248.501-.49.768-.713a5.11 5.11 0 012.053-.968 11.842 11.842 0 013.125-.504c.328-.003.654-.025.979-.066.075-.008.142-.086.214-.131l-.021-.097a2.65 2.65 0 00-.77-.201c-.851.042-1.701.123-2.547.221-.79.092-1.571.255-2.362.333-.653.065-1.314.044-1.972.075a8.165 8.165 0 00-3.386 1.046c-.16.093-.315.193-.464.302-.123-.449-.225-.863-.349-1.27a.448.448 0 01.103-.516c.47-.404.994-.738 1.558-.993a33.481 33.481 0 014.936-2.23c.098-.035.165-.157.247-.238l-.076-.1c-2.127.382-3.977 1.496-5.945 2.31.859-.733 1.941-1.087 2.861-1.733a.324.324 0 00-.257-.069c-.482.189-.965.377-1.436.591a14.749 14.749 0 00-3.47 2.307 8.662 8.662 0 00-2.109 2.645 5.827 5.827 0 01-2.293 2.497 2.49 2.49 0 01.05-.51 1.62 1.62 0 01.232-.37 21.217 21.217 0 012.644-3.214c.668-.663 1.373-1.292 2.057-1.94a.683.683 0 00.106-.199l-.089-.093a3.188 3.188 0 01-.396.279 9.455 9.455 0 00-2.041 1.684c-.485.459-.936.951-1.351 1.474-.694.854-1.347 1.742-2.029 2.606-.319.424-.667.826-1.039 1.204-.371.325-.759.63-1.16.915-.218.17-.43.35-.686.558.007-.13-.01-.204.016-.254.323-.713.697-1.403 1.118-2.063.605-.833 1.335-1.575 2.005-2.36a1.51 1.51 0 00.156-.297l-.075-.069a.863.863 0 00-.265.113c-.448.414-.904.821-1.324 1.262a13.333 13.333 0 00-2.095 3.01 6.9 6.9 0 01-1.07 1.467 10.62 10.62 0 01-1.277 1.02c-.075.058-.153.113-.229.169a8.029 8.029 0 011.6-3.152c.886-1.005 1.884-1.912 2.828-2.867.072-.096.13-.2.172-.312l-.07-.09a1.814 1.814 0 00-.382.189c-.358.295-.715.595-1.049.916a84.73 84.73 0 00-1.686 1.685c-.226.23-.39.561-.657.702a4.577 4.577 0 00-1.394 1.216c-.879 1.062-1.783 2.104-2.65 3.175a5.182 5.182 0 00-1.057 2.142 3.371 3.371 0 01-.965 1.868c-.361.343-.705.705-1.028 1.085-.158.174-.29.37-.434.556l-.078-.032c.027-.233.079-.462.155-.684.374-.803.744-1.61 1.176-2.381a16.447 16.447 0 012.127-2.842 1.359 1.359 0 00.366-1.429 14.316 14.316 0 002.337-2.966.423.423 0 00-.28.117c-.297.31-.58.633-.882.939-.632.642-1.244 1.308-1.918 1.903-.659.582-1.378 1.098-2.084 1.623-.249.16-.508.301-.776.424.01-.092.004-.123.016-.131a4.451 4.451 0 001.225-1.686 1.99 1.99 0 011.078-1.078 9.39 9.39 0 003.138-2.111c.367-.35.754-.678 1.137-1.011.437-.38.885-.748 1.317-1.134a1.23 1.23 0 00.19-.315l-.064-.075a.854.854 0 00-.313.082c-.669.525-1.327 1.064-1.991 1.596-.745.598-1.477 1.213-2.245 1.78-.356.215-.73.397-1.12.544.016-.08.042-.16.076-.235.35-.399.671-.82.965-1.26.28-.496.718-.882 1.245-1.097a9.589 9.589 0 001.098-.444 9.858 9.858 0 001.3-.93c.923-.77 1.833-1.554 2.73-2.352.294-.26.496-.643.764-.893.77-.72 1.658-1.312 2.479-1.978.348-.282.644-.628.965-.944l-.097-.146c-.138.052-.27.117-.395.196-.654.509-1.268 1.078-1.959 1.531-.768.484-1.563.924-2.38 1.318-.365.156-.74.285-1.123.386.114-.236.254-.459.416-.665a4.081 4.081 0 012.044-1.56 16.157 16.157 0 003.716-2.003c.137-.094.189-.314.28-.476a1.69 1.69 0 00-.496.143 14.965 14.965 0 01-3.382 1.696c-.25.074-.505.134-.763.179.147-.246.325-.473.527-.675.358-.42.759-.8 1.196-1.136a12.04 12.04 0 011.83-.88 40.039 40.039 0 004.749-2.412c.228-.162.441-.345.637-.545l-.068-.098c-.238.062-.471.14-.698.235-.439.218-.85.49-1.292.698-1.22.574-2.446 1.134-3.679 1.681-.247.11-.532.25-.828-.008.21-.182.419-.343.604-.529.394-.38.895-.63 1.436-.714a9.392 9.392 0 002.82-.9 23.683 23.683 0 002.445-1.521 21.054 21.054 0 001.857-1.654c.09-.083.106-.246.155-.373l-.115-.074a16.01 16.01 0 01-2.516 1.927.288.288 0 01.082-.157c.726-.665 1.456-1.325 2.179-1.993.422-.389.845-.777 1.244-1.188.177-.208.338-.428.482-.66l-.088-.101a2.206 2.206 0 00-.432.241c-1.067.948-2.117 1.916-3.193 2.854-.417.349-.856.671-1.314.965a.467.467 0 01-.402.01c-.375-.207-.722-.46-1.091-.678-.153-.09-.137-.162-.029-.262.298-.245.579-.51.839-.795.427-.502.811-1.04 1.148-1.605.312-.615.59-1.246.831-1.891.428-1.02 1.245-1.78 1.803-2.713.32-.535.603-1.092.882-1.649.04-.08-.034-.216-.054-.327-.084.063-.195.108-.246.19-.215.347-.381.726-.621 1.053-.466.633-.983 1.229-1.457 1.857a5.373 5.373 0 01-2.579 1.838 3.982 3.982 0 00-1.91 1.17.702.702 0 01-.201.12c-.373-.744-.427-1.067-.042-1.742a10.08 10.08 0 011.147-1.569c.453-.522.978-.982 1.46-1.482a6.89 6.89 0 00.598-.732c.052-.072.027-.2.038-.302a.874.874 0 00-.268.104c-.169.145-.321.312-.479.47-.758.758-1.543 1.491-2.265 2.282a4.416 4.416 0 00-1.16 2.186 2.44 2.44 0 01-.482 1.078c-.574.685-1.219 1.309-1.85 1.973a1.257 1.257 0 01-.325-1.01c.084-.344.216-.675.391-.984.377-.639.799-1.25 1.205-1.871a9.01 9.01 0 001.286-2.565c.036-.13.049-.267.04-.403-.005-.066-.086-.127-.133-.19a1.108 1.108 0 00-.177.146.714.714 0 00-.064.173 9.428 9.428 0 01-.57 1.35c-.561.917-1.184 1.797-1.774 2.697a5.374 5.374 0 00-.915 2.044 3.4 3.4 0 01-1.024 1.962 4.904 4.904 0 00-1.285 1.842.994.994 0 01-.133.19c-.082-.11-.149-.188-.205-.273-.588-.885-.607-1.35-.022-2.111.321-.418.704-.788 1.045-1.191.36-.425.721-.85 1.049-1.299a55.5 55.5 0 001.484-2.138c.198-.334.377-.677.538-1.03l-.101-.09c-.087.05-.203.077-.257.15-.272.372-.517.761-.79 1.13-.656.883-1.31 1.768-1.993 2.63a2.94 2.94 0 01-.62.476c-.078-.29.496-.652.058-1.137a11.98 11.98 0 01-1.447 2.676c.16-.622.551-1.176.557-1.95-.155.125-.257.172-.303.251a5.953 5.953 0 00-.332.677 11.978 11.978 0 01-2.466 4.02c-.234.235-.501.438-.83.723.151-.591.266-1.09.407-1.583a4.9 4.9 0 011.283-1.845c.8-.889 1.481-1.878 2.025-2.944.084-.207.148-.421.193-.64l-.105-.076c-.087.06-.212.102-.256.185a12.721 12.721 0 01-1.627 2.453c-.364.418-.776.794-1.173 1.181-.05.049-.141.054-.213.08a.901.901 0 01.007-.22c.079-.268.184-.53.251-.802a4.59 4.59 0 011.2-2.233c.399-.42.768-.865 1.107-1.333.44-.574.88-1.148 1.277-1.751.441-.671.838-1.373 1.242-2.068.054-.13.091-.265.11-.404a19.617 19.617 0 00-.156-.101c-.065.1-.127.201-.196.3-.737 1.052-1.455 2.12-2.223 3.15-.44.591-.957 1.125-1.452 1.674a.372.372 0 01-.508.109c.066-.158.13-.29.177-.428.2-.61.578-1.146 1.084-1.54.62-.476 1.185-1.02 1.684-1.622a12.097 12.097 0 002.057-3.957c.207-.441.264-.938.16-1.415-.585.843-.613 1.945-1.26 2.759.161-.614.346-1.22.514-1.83.279-1.014.552-2.03.81-3.049a1.248 1.248 0 00-.055-.439l-.098-.022c-.085.11-.157.23-.212.357-.115.379-.186.77-.306 1.145-.353 1.111-.71 2.221-1.088 3.324a6.75 6.75 0 01-.479 1.016.396.396 0 01-.295.186c-.491-.038-.98-.11-1.481-.171a.377.377 0 01.014-.124 6.143 6.143 0 00.338-3.86 14.103 14.103 0 01-.17-3.396c.006-.622.014-1.244-.01-1.864a1.624 1.624 0 00-.187-.557.232.232 0 00-.184-.12c-.053.011-.115.113-.125.182-.005.105.004.21.025.312.054.257.084.518.089.78-.066.87-.123 1.745-.265 2.604a4.058 4.058 0 01-.782 1.89A6.274 6.274 0 0091.58 50.2c-.003.011-.034.016-.028.013a1.394 1.394 0 01-.915-1.285 7.932 7.932 0 01.283-2.405 6.01 6.01 0 00.354-2.197c-.01-.084-.092-.16-.14-.24-.058.074-.147.142-.169.226-.21.84-.409 1.681-.614 2.522a5.602 5.602 0 00-.047 3.215c.132.359.178.744.132 1.123-.136.797-.37 1.577-.569 2.385-.324-.194-.725-.334-.812-.8a3.508 3.508 0 01-.076-.687c.006-.53.048-1.06.056-1.589.01-.672.04-1.348-.01-2.016a7.658 7.658 0 00-.304-1.337c-.018-.065-.128-.107-.195-.16a.946.946 0 00-.124.226.771.771 0 00.012.252c.085.475.14.955.165 1.437-.01 1.146-.104 2.291-.103 3.437.04.456.127.906.258 1.345.197.46.242.971.129 1.459a7.244 7.244 0 00-.337 1.461c-.063.39-.066.79-.099 1.228-.246-.14-.47-.269-.696-.394a1.097 1.097 0 01-.61-1.167c.055-.371.156-.735.226-1.104.182-.965.405-1.925.523-2.897.065-.783.09-1.57.076-2.355a1.018 1.018 0 00-.066-.335c-.02-.06-.084-.104-.13-.154-.04.054-.109.105-.115.163-.072.594-.176 1.189-.189 1.785a13.697 13.697 0 01-.448 3.01c-.03.12-.07.236-.111.37l-.412-1.063-.142.018a2.6 2.6 0 00-.027.422c.021.229.095.454.1.682.016.565.026 1.132-.003 1.696-.013.253.102.627-.36.657-.028.002-.07.052-.074.083a5.226 5.226 0 00-.068.53c-.026.475-.01.955-.071 1.426a83.223 83.223 0 01-.518 3.576 7.468 7.468 0 00.12 3.064 4.7 4.7 0 01.096 2.043c-.115.596-.14 1.209-.206 1.814-.013.07-.03.14-.053.208a5.098 5.098 0 01-.487-.246c-.457-.295-.94-.574-1.04-1.182-.038-.239-.05-.48-.088-.718a7.112 7.112 0 01.13-2.637c.131-.6.316-1.189.448-1.789.165-.743.322-1.49.44-2.242.058-.43.08-.864.067-1.298a2.6 2.6 0 00-.14-.578l-.135.003a2.465 2.465 0 00-.099.386c-.018.57-.067 1.137-.146 1.701-.196.968-.468 1.921-.709 2.881-.153.476-.27.963-.35 1.456a17.42 17.42 0 00-.063 2.362c.035.425.139.841.308 1.233.296.758.653 1.492.967 2.243a1.177 1.177 0 01-.193 1.515 12.28 12.28 0 00-1.038 1.205 2.985 2.985 0 01-.173-.427 21.91 21.91 0 01-.457-3.812 7.95 7.95 0 01.061-1.172c.096-.897.208-1.792.315-2.688.053-.43.11-.86.164-1.29a4.56 4.56 0 00-.091-.03c-.043.038-.11.067-.127.113-.136.401-.26.807-.394 1.21-.045.134-.07.343-.163.382a1.115 1.115 0 00-.58.725 10.45 10.45 0 01-2.207 3.372c-.096.08-.2.15-.31.212a2.175 2.175 0 01.015-.287c.078-.356.152-.713.245-1.065a4.08 4.08 0 01.347-1.119c.663-1.063 1.423-2.067 2.073-3.137.596-.98 1.103-2.016 1.635-3.034.081-.2.144-.407.186-.618-.387-.063-.423.233-.524.41-.484.856-.916 1.742-1.43 2.579-.496.81-1.067 1.573-1.613 2.352a.45.45 0 01-.575.171c.237-.589.3-1.236.77-1.706.313-.312.642-.61.937-.937a10.09 10.09 0 001.53-2.218 13.55 13.55 0 001.197-3.579 1.098 1.098 0 00-.076-.963 1.252 1.252 0 00-.218.319c-.126.473-.217.955-.344 1.428-.104.385-.242.76-.365 1.139l-.087-.026c.038-.203.074-.407.115-.61.155-.755.323-1.509.465-2.266.103-.545.193-1.093.247-1.643a.946.946 0 00-.13-.805c-.096.123-.175.26-.233.405-.246 1.184-.458 2.377-.721 3.558-.152.637-.34 1.265-.565 1.88a.542.542 0 01-.389.288c-.458.037-.921.014-1.398.014a.461.461 0 01-.008-.09.672.672 0 01.023-.154 5.598 5.598 0 00-.006-3.513c-.484-1.395-.448-2.834-.587-4.26a4.44 4.44 0 00-.335-1.553c-.038-.076-.166-.108-.253-.16-.035.096-.11.197-.101.289.067.624.191 1.245.221 1.87.012.605-.006 1.21-.055 1.812a3.535 3.535 0 01-.526 1.718 34.283 34.283 0 00-1.094 1.923 2.679 2.679 0 00-.159.627 1.494 1.494 0 01-1.046-1.085 6.854 6.854 0 01.059-2.629 6.334 6.334 0 00.075-2.195.743.743 0 00-.135-.213.806.806 0 00-.114.232c-.073.572-.091 1.155-.208 1.718a9.938 9.938 0 00-.24 2.866c.025.248.076.493.15.73a4.59 4.59 0 01.418 1.692c-.019.217-.09.428-.123.644-.083.544-.158 1.09-.236 1.628a1.164 1.164 0 01-.984-1.162c-.06-.777-.114-1.555-.194-2.33-.068-.667-.136-1.337-.268-1.993a1.69 1.69 0 00-.685-1.08c.085.553.263 1.081.353 1.625.085.584.136 1.173.15 1.764.024.58.005 1.162.005 1.744a2.816 2.816 0 01-.502-.861 3.417 3.417 0 01-.075-.717.948.948 0 00-.333-.767l-.108.636a.997.997 0 01-.119-.198A14.698 14.698 0 0172.7 56.3a2.96 2.96 0 00-.104-.573l-.153.003a2.297 2.297 0 00-.115.517 9.92 9.92 0 00.067 1.491c.146.937.354 1.865.53 2.797.145.77.332 1.536.403 2.312a9.102 9.102 0 01-.116 1.638c-.006.057-.07.109-.124.192-.117-.29-.207-.543-.322-.785-.03-.065-.137-.095-.208-.14-.028.078-.092.163-.079.235.084.312.151.627.2.946.053.293.012.595-.116.864-.27.254-.58.464-.917.62-.015-.177-.018-.267-.03-.356-.055-.415-.115-.83-.17-1.245a6.02 6.02 0 01-.133-1.217c.065-.602.17-1.2.312-1.788.186-1.17.17-2.362-.05-3.526-.062-.488-.146-.973-.214-1.46-.067-.488-.149-.976-.18-1.467a7.264 7.264 0 01.022-1.275c.038-.351-.047-.478-.401-.423a7.539 7.539 0 01-.074-1.009c.035-.64.13-1.276.173-1.915.013-.187.115-.423-.182-.614l-.4 1.156-.094-.002c-.112-.655-.263-1.307-.328-1.968-.082-.83-.093-1.668-.14-2.503a2.476 2.476 0 00-.07-.497c-.02-.077-.107-.136-.164-.203l-.097.031c-.038.363-.102.724-.109 1.087a10.9 10.9 0 00.061 1.236c.072.763.144 1.527.255 2.284.098.671.281 1.33.366 2.002a1.06 1.06 0 01-.279.994 8.075 8.075 0 01-1.087.625.617.617 0 01-.025-.155 4.165 4.165 0 00-.21-2.199 2.706 2.706 0 01.079-1.826c.212-.469.324-.978.327-1.493-.025-.46-.005-.922-.006-1.383.01-.181.01-.363-.004-.544a7.44 7.44 0 01.19-2.881 4.5 4.5 0 00.074-.553l-.124-.046a2.46 2.46 0 00-.378.624 7.975 7.975 0 00-.259 1.54c-.04.896.001 1.794-.017 2.69a7.285 7.285 0 01-.127 1.124.917.917 0 01-.856.757 14.663 14.663 0 00-.376-1.774 2.605 2.605 0 01.112-1.813c.261-.772.306-1.6.13-2.395-.157-.934-.403-1.853-.612-2.779-.054-.239-.116-.476-.175-.713l-.173.008c-.059.222-.087.45-.083.68.173 1.125.39 2.244.566 3.369a1.853 1.853 0 01-.943 2.175 1.298 1.298 0 01-.084-.191 4.32 4.32 0 00-.857-1.62 7.602 7.602 0 01-.925-1.444c-.43-.903-.359-1.909-.443-2.875a12.72 12.72 0 01.104-1.67 1.334 1.334 0 00-.105-.397c-.11.108-.288.2-.32.327-.085.335-.13.68-.136 1.026-.002.785.065 1.572.047 2.356a8.394 8.394 0 01-.196 1.654 7.172 7.172 0 00-.24 2.675c.064.434.137.866.218 1.296.034.177.098.35.152.54a.919.919 0 01-.177.045c-.246.003-.494-.011-.74.005-.688.043-.907-.058-1.1-.536a5.544 5.544 0 01-.198-.526c-.442-1.542-.878-3.086-1.322-4.627a1.77 1.77 0 00-.174-.328l-.127.043c.016 1.818.79 3.483 1.103 5.25-.217-.426-.41-.865-.576-1.314a4.465 4.465 0 00-.545-1.361.471.471 0 00-.098.288c.033.29.085.579.156.862.304 1.152.77 2.256 1.381 3.278a9.139 9.139 0 002.357 2.65 3.087 3.087 0 011.063 1.961.746.746 0 01-.4-.161 15.52 15.52 0 01-1.032-1.16 41.023 41.023 0 01-1.388-1.901c-.336-.49-.63-1.01-.956-1.508-.045-.07-.17-.089-.258-.131a1.086 1.086 0 00-.04.27.62.62 0 00.09.264c.595.946 1.171 1.905 1.802 2.827.43.631.945 1.204 1.41 1.813.306.344.568.725.78 1.134.28.668.45 1.381.663 2.077.01.032-.014.074-.033.156a2.772 2.772 0 01-.344-.26c-.304-.313-.588-.642-.895-.95a1.104 1.104 0 01-.403-.823.603.603 0 00-.206-.352c-.303.107-.359-.135-.465-.298-.12-.183-.224-.377-.343-.56-.16-.245-.329-.483-.493-.725l-.105.054c.081.34.19.672.323.994.242.485.544.94.821 1.406.296.498.11 1.069.267 1.596a1.029 1.029 0 01-.292-.368c-.292-.636-.57-1.279-.869-1.91-.04-.087-.175-.13-.266-.192a.904.904 0 00-.06.346c.06.2.136.394.23.58.403.882.81 1.763 1.214 2.645.087.142.15.298.185.46a3.41 3.41 0 01-.248 1.7 1.559 1.559 0 01-.856.623c-.172-.464-.3-.914-.502-1.328-.23-.446-.486-.878-.767-1.294a4.909 4.909 0 01-.616-2.44 11.598 11.598 0 01.215-3.314c.02-.087-.055-.196-.086-.295-.089.06-.227.103-.259.185a9.029 9.029 0 00-.386 2.505c-.056.665-.017 1.343-.131 1.997-.17.973-.474 1.923-.645 2.896a7.044 7.044 0 00-.008 1.543c.018.362.092.72.137 1.052-.494 0-.956-.012-1.417.005a.363.363 0 01-.412-.266c-.125-.407-.256-.815-.346-1.23-.12-.55-.208-1.109-.302-1.665-.119-.7-.22-1.404-.348-2.104-.064-.347-.17-.685-.256-1.028l-.136.003c-.06.168-.097.344-.108.523.04.501.108 1.001.186 1.498.117.743.258 1.482.375 2.225.06.378.086.761.128 1.143l-.118.021c-.172-.79-.36-1.577-.505-2.372-.04-.217-.08-.376-.295-.474-.166.41-.17.869-.012 1.282.206.954.519 1.885.777 2.828.047.216.08.435.101.655l-.086.031a3.74 3.74 0 01-.236-.45c-.068-.185-.109-.373-.453-.247.152.498.334.985.547 1.46a2.96 2.96 0 01.138 2.479.21.21 0 01-.096-.126c-.2-.47-.422-.934-.594-1.414a4.718 4.718 0 01-.362-1.317 36.475 36.475 0 00-.324-3.618 20.745 20.745 0 00-.848-3.62 3.713 3.713 0 00-.274-.527l-.11.03a.804.804 0 00-.05.28c.211.988.453 1.97.642 2.962.119.627.167 1.268.243 1.902.045.376.07.754.127 1.128a.849.849 0 01-.318.915c-.131-.356-.285-.698-.383-1.055a3.201 3.201 0 01-.124-.902c.013-.547.103-1.093.117-1.64a8.458 8.458 0 00-.409-2.728 17.935 17.935 0 00-.928-2.354 16.696 16.696 0 00-1.046-1.743c-.059-.092-.202-.13-.306-.193l-.104.088a15.83 15.83 0 011.366 2.904c-.282-.404-.525-.83-.787-1.242-.612-.96-1.225-1.92-1.855-2.867a3.987 3.987 0 00-.539-.55c-.225.232-.082.38.023.537.432.641.886 1.27 1.284 1.931.478.798.927 1.616 1.347 2.445.17.31.26.659.263 1.013-.01.194-.322.374-.498.56a5.631 5.631 0 01-.159.158c-.156.152-.313.303-.487.47-.054-.092-.088-.144-.114-.2a6.765 6.765 0 00-2.368-2.76 12.683 12.683 0 01-2.526-1.868 8.288 8.288 0 00-1.205-1.074 15.05 15.05 0 00-1.438-.874c-.066-.039-.18.006-.27.013l-.013.1c.12.098.24.197.363.293.526.418 1.078.808 1.573 1.26.39.38.755.784 1.095 1.21.398.433.681.959.823 1.53.084.388.101.791.206 1.172.09.59.3 1.156.62 1.66.04.072.067.15.08.23-.139.036-.257.075-.378.098a1.223 1.223 0 01-.928-.12 5.928 5.928 0 01-1.526-1.5c-.515-.675-1.03-1.351-1.563-2.012a1.417 1.417 0 00-.424-.248l-.06.082c.05.123.11.24.179.355.494.711.996 1.42 1.496 2.129a5.522 5.522 0 002.133 1.958c.488.196.9.542 1.18.988.344.607.713 1.199 1.092 1.832a1.475 1.475 0 01-1.037.056 5.866 5.866 0 01-1.679-1.49 8.301 8.301 0 00-2.46-2.045 2.678 2.678 0 00-.614-.135l-.05.112c.11.101.228.193.354.274a7.84 7.84 0 011.887 1.52c.446.462.842.972 1.27 1.452a7.29 7.29 0 001.816 1.289c.286.148.533.362.72.625a8.62 8.62 0 001.689 2.43c-.268.072-.483.139-.702.188a1.206 1.206 0 01-1.5-.594 9.66 9.66 0 01-.523-.892 14.508 14.508 0 00-2.914-3.748 4.171 4.171 0 00-.541-.364l-.09.104c1.036 1.356 2.31 2.546 3.057 4.195l-1.115-.594c-.035.049-.07.097-.103.146.432.397.88.78 1.294 1.194.427.411.79.884 1.076 1.402l-.245.07a.646.646 0 00.067.184c.286.374.614.722.862 1.12.51.815.955 1.67 1.467 2.483.705 1.123 1.454 2.219 2.17 3.335a10.92 10.92 0 011.289 3.175c.054.21-.088.342-.269.244a2.358 2.358 0 01-.85-.61 6.782 6.782 0 01-.663-1.409c-.365-.952-.664-1.93-1.06-2.87a10.578 10.578 0 00-1.63-2.595.37.37 0 00-.344-.046c-.15.074-.214.065-.307-.074a1.699 1.699 0 00-.31-.283l-.092.074c.027.115.067.227.117.334.288.422.554.859.798 1.308.416.887.779 1.8 1.158 2.704.08.188.14.383.209.575a4.533 4.533 0 01-.086.037c-.1-.115-.198-.233-.302-.345a6.105 6.105 0 01-1.168-1.887 27.238 27.238 0 00-2.447-4.793c-.488-.742-1.035-1.446-1.576-2.152a4.244 4.244 0 00-.582-.53l-.077.074c.071.189.158.372.259.547.365.536.77 1.044 1.122 1.588a24.056 24.056 0 012.235 4.164c.13.33.432.667.193 1.098-.062-.025-.135-.033-.17-.073a6.749 6.749 0 01-1.465-2.492 11.998 11.998 0 00-.793-2.103 12.394 12.394 0 00-2.414-3.245 34.07 34.07 0 00-2.687-2.243.706.706 0 00-.748-.206 24.56 24.56 0 013.024 2.778.2.2 0 01-.114-.048c-.877-.684-1.737-1.39-2.634-2.045-.646-.473-1.335-.889-2.015-1.313a3.857 3.857 0 00-.603-.251l-.047.077a.999.999 0 00.175.25c1.015.757 2.056 1.48 3.047 2.266.81.644 1.586 1.33 2.324 2.056.32.314.372.461.086.874a2.748 2.748 0 00-.239.509c-.08.196-.15.396-.224.596-.394-.33-.745-.65-1.122-.936a8.772 8.772 0 00-3.513-1.58 17.508 17.508 0 01-2.014-.562c-1.054-.363-2.085-.79-3.139-1.155a4.881 4.881 0 00-1.108-.186c-.086-.008-.185.115-.278.177.075.066.14.167.227.192.28.079.57.122.851.194a14.59 14.59 0 013.183 1.303 5.447 5.447 0 012.094 1.862c.404.622.865 1.21 1.33 1.79.2.201.421.381.658.536-.389.208-.736.498-1.178.394a5.232 5.232 0 01-1.355-.459c-.846-.472-1.641-1.04-2.478-1.533-.473-.26-.96-.493-1.459-.7-.066-.029-.176.04-.266.063.047.07.079.164.144.206 1.132.73 2.268 1.456 3.406 2.178a6.4 6.4 0 002.314.914 3.963 3.963 0 011.451.526 24.78 24.78 0 012.02 1.606.3.3 0 01.028.204c-.307.09-.535.431-.921.279-.328-.13-.684-.197-.997-.353-.955-.478-1.881-1.016-2.847-1.47a4.34 4.34 0 00-2.2-.548.905.905 0 00-.287.139c.085.058.163.153.256.17 1.33.288 2.594.823 3.725 1.579a9.163 9.163 0 002.948 1.27 3 3 0 011.317.603c.825.702 1.482 1.603 2.585 2.087-.382.187-.69.334-.995.487a.962.962 0 01-1.04-.15c-.467-.341-.891-.74-1.328-1.122-.43-.375-.831-.785-1.28-1.135a18.022 18.022 0 00-3.446-2.04c-.101-.047-.25.009-.378.016l-.022.12c1.668 1.006 3.412 1.91 4.723 3.414-.209-.038-.395-.136-.593-.179a4.072 4.072 0 00-.617-.044l-.034.121c.209.105.414.22.627.313.868.418 1.685.936 2.434 1.541.193.145.215.272-.103.36.182.154.325.275.468.394.504.415 1.029.807 1.505 1.25.493.46.937.97 1.405 1.456.668.692 1.312 1.412 2.017 2.064.533.474 1.1.907 1.697 1.297a5.79 5.79 0 011.466 1.266c.367.493.687 1.023 1.033 1.531.127.188.272.363.434.578-.11.038-.224.069-.339.091-.282.038-.566.06-.85.064-.24.02-.483-.018-.707-.107a8.69 8.69 0 01-2.55-2.434c-.704-.908-1.316-1.887-2.002-2.81a9.57 9.57 0 00-2.096-2 1.67 1.67 0 00-.434-.158c0 .121.044.239.125.33.467.455.96.886 1.408 1.36.402.416.775.86 1.117 1.328.683.95 1.287 1.96 2.009 2.878a13.91 13.91 0 001.699 1.692c.72.647 1.708.821 2.502 1.338a6.57 6.57 0 011.448 1.116 12.79 12.79 0 011.106 1.78c.1.165.2.331.312.52-.207.04-.41.098-.608.175a.778.778 0 01-.967-.172 723.357 723.357 0 01-2.911-2.786 7.328 7.328 0 01-.684-.751c-.703-.9-1.388-1.814-2.088-2.716a6.951 6.951 0 00-.512-.535l-.087.064c.004.08.02.16.05.236.192.32.382.642.6.945.458.636.92 1.272 1.405 1.887a6.5 6.5 0 011.11 1.835c.35 1.118.835 2.188 1.445 3.188.151.249.282.51.39.78.055.187.123.37.204.547a11.397 11.397 0 002.114 2.456 15.601 15.601 0 003.097 2.136c.65.305 1.203.786 1.594 1.388.29.477.588.949.883 1.423a18.147 18.147 0 01-1.868-.969c-1.104-.638-2.202-1.285-3.306-1.922a6.867 6.867 0 00-.627-.286l-.082.115c.1.125.21.24.328.346.232.176.477.337.727.489 1.302.794 2.616 1.568 3.907 2.379.72.453 1.55.766 2.073 1.489.357.423.662.888.906 1.385a2.47 2.47 0 001.422 1.535.45.45 0 01.22.294c.161.797.309 1.598.45 2.4.115.659.227 1.32.318 1.983.084.614.13 1.233.205 1.849.098.823.22 1.643.307 2.466.065.608.091 1.22.133 1.83l.016.238a46.05 46.05 0 118.954.616zm-7.267-.367c-.01-.152-.022-.304-.035-.457-.065-.754-.12-1.511-.199-2.263-.068-.635-.163-1.266-.25-1.898-.084-.612-.17-1.223-.261-1.834-.037-.254-.089-.505-.134-.757l.132-.029c.129.42.283.835.384 1.262.27 1.145.553 2.289.762 3.447a18 18 0 01.258 2.473c.002.047 0 .093.002.14a47.42 47.42 0 01-.659-.084zm-3.697-13.525a.723.723 0 01.587.311c.229.262.435.544.677.791.145.149.25.436.564.265.227.573.441 1.148.69 1.708.051.115.23.173.35.257.05-.111.165-.244.137-.331-.105-.332.09-.549.258-.868.125.446.458.78.153 1.222a.265.265 0 00.045.257.206.206 0 01.082.31.46.46 0 00.03.274c.232.855.483 1.704.698 2.563.18.728.336 1.463.474 2.201.11.597.195 1.2.258 1.803.101.981.212 1.963.268 2.947-.133-.013-.266-.021-.397-.035-.002-.134-.002-.268-.006-.402a13.637 13.637 0 00-.194-2.041 54.852 54.852 0 00-.734-3.393 13.303 13.303 0 00-.604-1.741c-.326-.811-.682-1.61-1.037-2.41-.173-.389-.418-.752-.55-1.153-.153-.464-.166-.512-.634-.599a1.645 1.645 0 01-1.272-.974c-.17-.383-.293-.788-.458-1.24.231.111.423.278.615.278zm-1.936-3.435c.035.02.072.053.11.054.887.033 1.217.756 1.591 1.364a3 3 0 01.189 1.048c-1.82-.696-2.896-1.754-3.146-3.135.446.238.85.454 1.256.669zm-3.224-4.03c.365.145.645.274.936.367.176.055.384.018.553.086.224.1.436.224.634.37a1.937 1.937 0 01.806 1.622c.023.153.06.304.114.45-.016.011-.04.036-.05.032-.653-.335-1.417-.458-1.951-1.016a1.838 1.838 0 01-.283-.411c-.245-.467-.477-.94-.759-1.5zm-1.508-.077a2.71 2.71 0 011.297 1.235c.114.185.214.379.323.573-.661.147-3.473-1.718-4.172-2.781.886.337 1.72.65 2.552.973zm-.84-2.472c.332.43.635.882.948 1.325.014.03.024.063.028.097a4.128 4.128 0 01-2.092-.305 4.6 4.6 0 01-2.3-2.265c-.448-.788-.822-1.618-1.221-2.433a1.675 1.675 0 01-.087-.371l.06-.033c.38.384.75.783 1.146 1.15.417.402.86.776 1.325 1.122a5.3 5.3 0 001.015.474c.571.245.83.787 1.178 1.239zM55.27 90.59c.303.114.616.208.907.347.316.15.547.5.98.366.06-.018.173.105.247.177.426.37.823.771 1.186 1.203.18.324.294.68.338 1.05.088.385.137.78.197 1.172a.838.838 0 01-.015.207 8.67 8.67 0 01-.924-.331 2.032 2.032 0 01-.847-1.097 7.02 7.02 0 00-1.43-2.38c-.222-.202-.465-.382-.699-.571l.06-.143zm-1.765-3.83c.341.065.672.105.987.197.206.082.426.126.648.128.149-.009.327.219.465.365.562.601.654 1.404.898 2.14.063.193.132.383.198.574l-.075.057a13.007 13.007 0 01-1.504-.87 3.642 3.642 0 01-.75-.944c-.309-.47-.581-.966-.865-1.453-.018-.031-.002-.082-.002-.195zm1.598-7.747l-.096.068c-.074-.087-.195-.164-.214-.262a8.828 8.828 0 00-.779-2.236.682.682 0 01-.03-.206 6.4 6.4 0 011.119 2.636zm-1.362-6.332a3.197 3.197 0 01-.083-.336c.267.12.444.208.626.283.095.038.22.105.295.074.303-.123.469.067.648.24.153.148.31.293.45.453a1.288 1.288 0 01.386.931c-.01.38.012.76.067 1.136.028.214-.04.193-.199.17a1.885 1.885 0 01-1.54-1.263c-.23-.557-.437-1.124-.65-1.689zm-1.254-.268c.25.235.45.517.592.829.32.609.601 1.238.896 1.856-.23.06-.477-.062-.85-.414a8.949 8.949 0 01-1.555-2.05c-.271-.464-.53-.935-.833-1.47.639.448 1.223.815 1.75 1.249zm.055-1.154a.742.742 0 01-.831-.107c-.52-.515-1.049-1.024-1.54-1.567-.331-.368-.603-.79-.955-1.26 1.645.455 2.431 1.735 3.326 2.934zm1.838-1.624a2.101 2.101 0 01.529 1.692c-.006.22.01.442.046.66a14.994 14.994 0 01-1.412-.64 2.145 2.145 0 01-.667-.652 11.678 11.678 0 00-1.777-2.388c.51-.1 1.04-.024 1.501.218.279.175.585.303.905.378.35.165.65.417.875.732zm1.008-.87c-.09.313-.21.616-.358.907a7.119 7.119 0 01-1-1.166 6.137 6.137 0 01-.405-1.421c-.011-.043.022-.099.041-.146.091-.227.184-.454.279-.68.074-.178.153-.354.266-.614.429.804.835 1.489 1.157 2.211.095.295.102.61.02.909zm1.417 3.096c-.3-.593-.26-1.281-.713-1.756l-.104.02c.073.452.136.907.224 1.357.086.244.152.495.198.75a6.98 6.98 0 01-.139 1.06 2 2 0 01-.791-1.33 1.67 1.67 0 01-.06-.37c.007-.215-.075-.434.188-.617.138-.096.13-.4.19-.608l.292-.998c.76.618 1.138 1.899.715 2.492zm.188-7.162c-.175-.338-.35-.676-.527-1.013l.147-.078.527 1.013-.147.078zm.72 3.011c-.392-.733-1.03-1.359-.989-2.277.539.667 1.174 1.29.99 2.277zm-.04 2.81a4.856 4.856 0 01-.884-3.327c.195.326.392.652.584.981.11.177.21.36.3.55.093.17.15.357.164.55-.018.391-.098.78-.164 1.246zm.562 4.442l-.07.052c-.148-.235-.307-.465-.443-.707-.148-.265-.268-.546-.41-.814a.559.559 0 01.115-.741c.274.75.54 1.48.808 2.21zm4.727-8.254c.117.645.209 1.242.334 1.831a2.36 2.36 0 01-.753 2.28 4.91 4.91 0 00-.534.807 1.629 1.629 0 01-.148.163 3.24 3.24 0 00-1.045-1.647 1.916 1.916 0 00-.457-.327.969.969 0 01-.702-.9 9.648 9.648 0 00-.135-.965c.186.136.33.256.488.355.193.088.377.195.55.318.137.143.236.317.289.507.034.157.033.32-.003.476a.316.316 0 00.275.408c.237.05.319-.144.365-.313.03-.147.034-.298.01-.445a3.636 3.636 0 01.265-1.477c.02-.066.06-.167.109-.179.431-.102.616-.472.87-.768a.982.982 0 01.222-.124zm.393-5.612c.192.44.352.806.51 1.173.107.249.21.5.316.749a.884.884 0 01-.036.81l-.408-.345-.097.043c.087.265.155.537.265.791a.574.574 0 01-.331.855c-.188.08-.37.176-.566.27-.036-.523-.063-.997-.102-1.469-.035-.418-.12-.836-.117-1.253a3.886 3.886 0 01.566-1.623zm1.142-.759a5.664 5.664 0 00-.097.04c-.301-.362-.622-.712-.894-1.095a1.34 1.34 0 01-.121-.541 9.626 9.626 0 01-.15-1.428c.249.252.515.49.741.762.193.23.324.513.513.749.412.516.115 1.01.008 1.513zm5.164.717c.111.488.214.979.288 1.474a1.747 1.747 0 01-.623 1.414.223.223 0 01-.207-.037 10.267 10.267 0 01-.773-1.25 1.576 1.576 0 01-.049-.78 6.2 6.2 0 01.188-.822c.004-.02.013-.051.026-.056.41-.133.486-.548.71-.84a.844.844 0 01.15-.105c.105.356.215.675.29 1.002zm.675-4.745c-.006.39-.034.78-.064 1.168a1.05 1.05 0 01-.688 1.007c-.137-2.053.157-3.809.754-4.335 0 .742.008 1.451-.002 2.16zm.536 5.91c-.052.083-.114.16-.22.306l-.12-.788c-.065-.434-.117-.87-.201-1.3a2.684 2.684 0 01.122-1.545c.18-.459.296-.943.44-1.417l.068-.004c.049.278.12.554.14.834.056.8.135 1.604.117 2.404a2.925 2.925 0 01-.346 1.51zm1.901 16.26c-.037.396-.064.793-.099 1.226-.255-.129-.511-.24-.748-.384-.345-.209-.119-.52-.079-.769a.874.874 0 01.476-.713c.21-.106.334-.383.497-.583l.083.024c-.044.4-.092.799-.13 1.199zm.534 3.004c.204.322.298.708.66.934.108.067.128.294.163.454.12.472.213.95.283 1.433.017.155-.146.333-.23.499-.207.407-.416.812-.625 1.217-.678-.554-.888-.86-.742-1.758.112-.716.178-1.438.197-2.162a3.84 3.84 0 00-.21-.938c-.017-.07-.025-.14-.036-.21a5.35 5.35 0 01.073-.051c.167.184.323.379.467.582zm.264-10.632a11.818 11.818 0 01-.274-3.391c.855 1.086.983 2.505.274 3.391zm1.033 2.35c.187.256.324.446.463.633.056.074.113.196.18.203.285.033.342.253.397.458.089.31.153.627.19.947.005.176-.034.35-.115.506-.185.395-.395.778-.598 1.165-.032.052-.07.102-.11.149a2.06 2.06 0 01-.77-2.236c.134-.572.23-1.153.363-1.825zm.287-7.373l-.306-2.857a2.813 2.813 0 01.306 2.857zm.826 3.382c.132.224.213.476.334.706a2.2 2.2 0 00.243.327c.094.12.241.222.28.356a2.75 2.75 0 01.09 1.733 8.818 8.818 0 01-.726 1.265c-.003.005-.02.002-.02.002a12.659 12.659 0 01-.766-1.139 3.256 3.256 0 01-.249-1.783c.03-.461.007-.926-.004-1.389-.005-.217-.04-.432-.066-.7.355.105.665.323.884.622zm3.267 4.647a4.949 4.949 0 011.094-3.132c.5-.617.945-1.276 1.33-1.972.288-.475.508-.991.784-1.539.078 1.114-1.365 5.288-3.208 6.643zm2.14-1.576c-.068-.469.262-.816.488-1.196l-.365 1.234-.122-.038zm1.313 2.91c-.374.553-.784 1.082-1.182 1.619-.016.021-.053.027-.151.073.005-1.82.289-3.628.843-5.362l.122-.001c.039.299.065.6.12.895.135.726.302 1.448.413 2.178a.934.934 0 01-.165.599zm.677 1.56c-.171.697-.337 1.395-.512 2.122a.854.854 0 01-.191-.082 4.029 4.029 0 01-.607-.493.562.562 0 01-.146-.46c.365-.807.766-1.597 1.16-2.39.025-.05.09-.08.14-.122a1.562 1.562 0 01.156 1.426zm.135 4.33c.335-.552.616-1.137.924-1.706.058-.108.128-.21.193-.314l.094-.003c.075.302.146.605.226.906.044.167.101.331.157.495.05.15.175.312.15.447a2.112 2.112 0 01-.813 1.586 4.59 4.59 0 00-.72.753c-.056.059-.118.112-.207.195-.28-.812-.483-1.571-.004-2.359zm.252-3.105l.105.038a1.13 1.13 0 01-.385 1.166l.28-1.204zm.52-3.484a.268.268 0 01-.367.196c-.139-.04-.209-.147-.11-.28.212-.279.436-.547.655-.82l.078.053-.257.851zm.988 2.713c.07.117.107.252.107.389 0 .093-.086.186-.134.28a1.177 1.177 0 01-.714-1.686c.148.242.271.467.418.674.09.126.241.212.323.343zm1.27-4.506c.144.101.185.416.19.636a12.85 12.85 0 01-.068 1.519c-.047.181-.131.35-.248.496-.209.337-.429.665-.638.988-.85-.751-.57-1.634-.366-2.52.11-.476.153-.967.244-1.448.055-.22.122-.438.2-.651.077.055.132.075.155.113.172.288.209.64.531.867zm.464-9.686c.04.15.05.308.027.462-.11.657-.235 1.311-.357 1.966-.029.15-.068.298-.103.447l-.094.034a2.65 2.65 0 01-.288-.603 7.14 7.14 0 01-.098-2.482c.081-.528.132-1.06.202-1.59.016-.128.057-.254.101-.448.22.796.423 1.503.61 2.214zm.694-1.056a.873.873 0 01-.628-.844 32.69 32.69 0 01-.131-2.404c.013-.35.05-.699.11-1.044l.141-.023c.219.494.382 1.01.486 1.54.08.91.022 1.83.022 2.775zm.716 2.393c.538.155.402.64.493 1.003.035.21.037.425.005.637a.75.75 0 01-.104.32c-.217.357-.45.703-.67 1.057-.11.178-.157.2-.327.016a1.664 1.664 0 01-.55-1.444c.096-.564.26-1.116.403-1.67.06-.239.144-.47.246-.797l.363.642c.046.081.077.217.141.236zm1.175-4.138c.1.16.211.312.335.454.042.055.121.105.126.163.068.472.095.948.08 1.424-.052.6-.469.962-.733 1.424-.056.1-.126.19-.227.34-.08-.17-.147-.32-.222-.463a3.976 3.976 0 01-.521-1.022 6.91 6.91 0 01-.017-1.566c.038-.682.117-1.364.18-2.07a1.113 1.113 0 01.708.628c.11.223.176.469.291.688zm1.913 1.606c-.266.14-.53.286-.837.452a.87.87 0 01-.07-.221 5.738 5.738 0 010-.931 7.71 7.71 0 01.261-1.116c.06-.145.14-.282.236-.406.04-.06.087-.165.132-.166.427-.01.701-.35 1.07-.478a.824.824 0 01.221-.003c-.16.747-.313 1.447-.458 2.149a1.01 1.01 0 01-.555.72zm-.457 6.657c.038-.718 1.682-3.245 2.145-3.673-.128 1.07-1.576 3.572-2.145 3.674zm2.447 1.16c-.085.32-.188.636-.31.945a1.03 1.03 0 01-.483.578c-.42.25-.826.52-1.218.81a1.995 1.995 0 01.261-2.156c.441-.561.91-1.1 1.37-1.647.031-.038.074-.07.179-.165.018.277.015.49.05.696.029.172.119.334.151.506.031.142.031.29 0 .432zm-5.01 8.288c-.094.035-.185.083-.294.132a3.681 3.681 0 011.546-2.795c.026-.018.057-.049.08-.044.525.09.92-.32 1.41-.361.294-.024.587-.04.9-.06-.352.62-.633 1.182-.976 1.702a1.79 1.79 0 01-1.408.983 4.842 4.842 0 00-1.258.443zm-1.03-3.02a.999.999 0 01.213-.455c.069.2.12.404.156.612.027.296-.005.597.012.895.03.126.069.25.115.372a.747.747 0 01.004.315c-.135.555-.265 1.112-.437 1.657-.079.166-.199.31-.349.417-.368.32-.749.628-1.126.938-.067.047-.136.09-.208.13a5.518 5.518 0 00-.175-.76.837.837 0 01.077-.78 74.28 74.28 0 011.002-1.588c.373-.52.618-1.12.715-1.752zm1.241-4.557c.296-.282.67-.467 1.073-.532-.167.676-.137 1.33-.608 1.882a14.175 14.175 0 00-1.05 1.637 10.89 10.89 0 01-.705-1.275c-.068-.168.074-.436.156-.646a.666.666 0 01.431-.473c.27-.093.463-.398.703-.593zm1.886 3.277a8.154 8.154 0 01-.853.991c-.292.294-.624.55-.956.839-.561-.739.315-2.977 1.596-3.986.083.256.153.515.21.778.043.262-.026.523.165.783.078.105-.044.431-.162.595zm-.14-8.483c-.333.138-.642.332-.96.501-.288-.717.08-1.29.415-1.87.03-.054.09-.133.132-.13.582.028.817-.552 1.283-.724.153-.07.3-.151.442-.242-.13.58.012 1.153-.43 1.584a.722.722 0 00-.14.207 1.313 1.313 0 01-.742.674zm-1.791 2.444a.781.781 0 01.391-.646l.1.08-.491.566zm.077.77c.563-.703 1.128-1.405 1.694-2.106a.528.528 0 01.283-.176c-.082.267-.178.53-.245.802-.117.473-.218.95-.324 1.426a.646.646 0 01-.437.51c-.45.175-.88.409-1.34.63a1.325 1.325 0 01.369-1.087zm-2.304 1.395c-.045.068-.096.131-.144.197a15.667 15.667 0 01-.108-.038c.113-.787.29-1.563.528-2.322a.705.705 0 01.426 1.127c-.249.335-.468.69-.702 1.036zm.272.41c.258-.404.495-.823.755-1.226.081-.098.175-.184.278-.257l.061.058-1.046 2.51c-.395-.505-.393-.542-.048-1.085zm1.057 10.912a2.63 2.63 0 01-.698.227c-.39.112-.78.217-1.172.324-.085.024-.172.044-.258.065l-.082-.081a7.8 7.8 0 01.569-1.298c.258-.33.561-.621.902-.865.088-.074.263-.036.39-.076.217-.066.429-.146.635-.24.417-.193.824-.404 1.24-.6a1.11 1.11 0 01.284-.038c-.447 1.028-.882 1.984-1.81 2.582zm.8 2.26a11.87 11.87 0 01-1.376 1.039.885.885 0 01-.374.157c.064-.115.132-.229.193-.345.195-.37.402-.735.579-1.115.252-.545.68-.99 1.216-1.262a14.923 14.923 0 002.944-2.139c.08-.064.166-.122.254-.174l.062.05c-.105.137-.213.271-.314.411a11.675 11.675 0 01-1.788 2.2.883.883 0 01-.225.168c-.458.25-.857.594-1.172 1.01zm-.956 2.064a3.57 3.57 0 011.514-1.746c-.46.605-.509 1.553-1.514 1.745zm1.62 10.746a11.263 11.263 0 01-1.503-.068l-.008-.115c.396-.45.791-.901 1.19-1.35.163-.232.36-.439.586-.612a2.589 2.589 0 011.068-.384 4.33 4.33 0 001.782-.72c.591-.318 1.158-.68 1.735-1.024l.056.058c-.25.34-.481.694-.75 1.017-.54.646-1.096 1.28-1.652 1.912a3.647 3.647 0 01-2.504 1.286zm-2.405 1.58a2.25 2.25 0 011.639-.804c.542-.093 1.077-.227 1.615-.342l.175-.034.044.107c-1.259.922-2.477 1.919-4.067 2.235l-.104-.112c.232-.35.456-.706.698-1.05zm-3.42 1.879l.18-.882a.463.463 0 00.029-.122c-.07-.782.496-1.12 1.03-1.48.058-.038.158-.083.203-.059.398.217.736-.056 1.1-.114.154-.016.308-.023.463-.023-.2.319-.377.584-.534.862-.134.237-.237.49-.365.731a1.29 1.29 0 01-.806.687c-.42.118-.833.255-1.3.4zm-1.932 3.701c.007.006-.022-.01-.02-.019.15-.657.042-1.388.56-1.942a1.353 1.353 0 011.009-.594 2.7 2.7 0 00.81-.304c.208-.079.423-.146.635-.218l.088.088c-.374.691-.725 1.395-1.132 2.065a1.31 1.31 0 01-.603.428c-.434.189-.887.33-1.347.496zm-1.93.327a3.682 3.682 0 011.043-3.53c.075.648.135 1.238.217 1.825.025.178.125.344.164.522.036.142.042.29.017.435a3.743 3.743 0 01-.275.92c-.125.239-.532.435-.514.621.034.353-.196.525-.3.778-.026.061-.094.103-.203.218.035-.246.06-.406.082-.565a2.62 2.62 0 00-.23-1.224zm-4.63 15.697c.03-.376.076-.752.122-1.127.077-.634.159-1.268.24-1.902.069-.541.135-1.082.208-1.623.106-.789.205-1.579.326-2.365.087-.567.198-1.13.312-1.692a143.756 143.756 0 011.424-6.346c.227-.897.492-1.786.754-2.675.29-.988.591-1.973.903-2.956.06-.132.15-.25.26-.345a4.587 4.587 0 001.283-2.124 9.67 9.67 0 00.172-1.368c.007-.078-.093-.165-.143-.247-.106.05-.204.115-.292.194-.202.24-.384.498-.574.749l-.106-.068c.025-.113.062-.222.11-.328a9.27 9.27 0 01.731-1.165 1.62 1.62 0 01.654-.326.414.414 0 01.135.225c.01.866.013 1.731 0 2.597a.888.888 0 01-.137.403c-.352.45-.636.95-.843 1.483-.18.852-.83 1.384-1.158 2.118-.533 1.2-.738 2.408-.082 3.624.106.284.118.593.037.885-.05.422-.122.84-.217 1.254a1.121 1.121 0 01-.157-1.026 1.027 1.027 0 00-.081-.353c-.098.043-.224.061-.288.133a3.793 3.793 0 00-1.097 2.659c.01.407.087.813.113 1.22.004.158-.018.314-.064.465-.273 1.004-.572 2.002-.825 3.012-.278 1.11-.52 2.229-.767 3.347-.175.794-.355 1.587-.498 2.386-.154.855-.267 1.717-.398 2.575l-.06.385-.108-.002c.036-.559.069-1.118.112-1.676zm-1.047-1.468c.222.218.217 1.839.106 3.123l-.263-.007.157-3.116zm-6.492-14.448c.99.348 1.263 1.235 1.655 2.094-.528-.158-.49-.737-.874-1.006a4.03 4.03 0 01-.78-1.088zm-2.515-7.33a2.234 2.234 0 01-.214-.95c.408.398.823.788 1.222 1.195.24.319.518.608.829.859.263.241.44.561.509.912.12.484.212.975.278 1.47l-.157.072a9.11 9.11 0 01-.916-1.021 42.668 42.668 0 01-1.55-2.536zm-.861 6.086c.213-.258.12-.563.15-.85.052-.468.122-.933.191-1.398a.747.747 0 01.095-.19c.441.535.72 1.186.803 1.875.078.399.185.791.321 1.174.166.486-.12.9-.122 1.382-.27-.254-.485-.483-.729-.679a2.106 2.106 0 01-.703-1.148c-.014-.053-.033-.134-.006-.166zm-.404-6.656a1.754 1.754 0 01.621 1.742c-.348-.57-.764-1.031-.621-1.742zm-1.825 2.283c.043-.179.099-.355.133-.536.09-.48.168-.963.262-1.442.04-.098.093-.19.159-.273.39.579.765 1.118 1.121 1.667.168.252.314.52.434.797a.73.73 0 01.017.474c-.212.625-.452 1.24-.678 1.849-.373-.258-.728-.54-1.063-.843a2.305 2.305 0 01-.374-.744 1.212 1.212 0 01-.113-.45c.015-.17.05-.337.102-.499zm-1.178-8.338c.575.105 1.305 1.225 1.071 1.676l-1.07-1.676zm.738 9.588c-.35-.08-.69-.203-1.009-.367a4.193 4.193 0 01-1.018-.963c-.41-.574-.731-1.213-1.087-1.825a.96.96 0 01-.035-.235c.414.143.78.268 1.147.396.078.028.182.116.222.09.353-.214.517.065.706.26.194.194.376.398.547.613.182.244.28.54.283.845.043.34.117.675.219 1.002.01.047.014.097.025.184zm-.324-2.647a2.898 2.898 0 01-1.224-2.027 1.17 1.17 0 01.135-.951c.093-.132.05-.364.056-.551.015-.566.023-1.132.037-1.697.002-.036.038-.071.08-.145.14.2.286.376.397.571.215.378.385.783.616 1.15a3.7 3.7 0 01.474 1.667 1.37 1.37 0 01-.09.52c-.15.486-.316.965-.48 1.463zm-1.937-9.171a3.346 3.346 0 01-.826-2.23c.432.083.876.188 1.018.552.25.722.462 1.456.637 2.2.002.008-.029.028-.086.082l-.829-1.982c-.034.009-.068.018-.1.028-.032.458.032.917.186 1.35zm-1.898 1.773c.322-.51.005-1.09.182-1.618.077-.275.14-.554.189-.835l.101-.018c.111.18.214.366.335.54.302.44.642.856.911 1.313a2.157 2.157 0 01.356 2.002 6.886 6.886 0 00-.217 1.6.316.316 0 01-.14-.037 4.945 4.945 0 01-1.718-2.79.228.228 0 01.001-.157zm-.268-12.178c.214.063.376.387.507.625.163.353.236.74.214 1.128.025.377.073.752.144 1.123-1.654-.473-1.955-1.906-2.406-3.326.295.045.586.116.869.21.219.094.444.174.672.24zm.961.209l-.09.005c-.356-.53-.838-.992-.888-1.682a20.746 20.746 0 01-.037-.726.173.173 0 01.041-.107c.125-.155.253-.306.384-.46.137.112.12.273.113.494.015.394.08.784.194 1.162.075.323.196.635.279.956.016.119.017.239.004.358zm.841 7.091c-.473-.063-.59-.417-.701-.746a11.647 11.647 0 00-1.13-2.66 4.65 4.65 0 01-.233-.475 1.233 1.233 0 011.04.835c.122.47.267.935.43 1.393.17.47.374.925.557 1.39.022.086.034.174.037.263zm-.68-3.398a4.872 4.872 0 011.276 3.132l-.113.039c-.12-.39-.242-.779-.356-1.17-.073-.248-.12-.505-.209-.748-.052-.144-.097-.322-.33-.317-.057 0-.125-.126-.176-.203-.103-.156-.197-.319-.322-.523.05-.044.116-.105.23-.21zm.16-4.535c-.093-.3-.18-.577-.265-.855.544.538.554.574.265.855zm.906 3.891c.081.17.185.327.309.469.265.312.284.622-.02 1.079a6.917 6.917 0 01-.45-.72 24.54 24.54 0 01-.598-1.44 1.802 1.802 0 01-.131-.572c-.005-.118.096-.24.15-.359.028.01.058.02.088.032.216.504.424 1.012.652 1.511zm-.439-6.804c.513.366.856 1.39.536 1.733l-.536-1.733zm1.515 6.24c-.05.224-.124.442-.22.65l-.177.005c-.206-.416-.427-.826-.612-1.251a11.025 11.025 0 01-.467-1.257c-.112-.374.173-.624.4-1.007.324.602.61 1.132.891 1.663.184.37.249.788.185 1.197zm1.456-5.905a3.806 3.806 0 00-.084.68 9.759 9.759 0 01-1.066-.758 1.098 1.098 0 01-.286-.64c-.058-.503-.051-1.013-.076-1.52-.013-.25-.037-.499-.062-.826.2.102.339.167.472.242.265.152.423.454.782.49.104.01.212.248.27.399a2.86 2.86 0 01.05 1.933zm.465 2.302a1.988 1.988 0 01.205 1.946 5.052 5.052 0 00-.433-.333c-.337-.21-.69-.392-1.023-.606a1.82 1.82 0 01-.589-1.729c.04-.194.055-.394.097-.704.4.364.743.685 1.098.993.11.068.224.13.343.184a.822.822 0 01.302.25zm2.207-4.893c-.063.248-.11.5-.144.754-.036.56-.041 1.121-.071 1.68-.01.285-.04.567-.089.847a1.879 1.879 0 01-.485.963c-.246.3-.468.62-.666.953a5.971 5.971 0 01-.702-1.29 4.597 4.597 0 01.007-1.394c.016-.166.064-.328.144-.474a2.88 2.88 0 01.298-.404 4.07 4.07 0 00.405-.538c.188-.425.517-.774.93-.988a3.01 3.01 0 01.373-.11zm1.286-4.856a5.044 5.044 0 01-.31-.561 11.941 11.941 0 01-.349-1.026c-.02-.074.05-.174.087-.286a1.93 1.93 0 01.572 1.873zm-.437-4.437c.35.312.66.562.493 1.084a3.107 3.107 0 00-.019.856c0 .1-.013.199-.023.334-.484-.476-.607-1.115-.451-2.274zm1.787-3.296c.007.095.009.19.013.284l-.076.036c-.426-.394-1.146-.428-1.321-1.126a26.137 26.137 0 01-.436-2.109c0-.07.01-.141.027-.21.219.12.404.23.598.324.193.068.38.152.558.25.158.114.286.264.373.438.291.518.377 1.127.241 1.706a1.36 1.36 0 00.023.407zm1.165 3.54c-.014.043-.182.088-.243.059a12.083 12.083 0 01-1.243-.657 1.219 1.219 0 01-.52-.565c-.135-.52-.24-1.05-.315-1.582l.113-.081c.333.238.662.484 1.003.712.135.075.277.139.422.19.091.042.228.064.263.135.217.423.411.858.583 1.301a.838.838 0 01-.063.488zm.938 3.919c-.2-.106-.388-.211-.58-.305a5.313 5.313 0 00-.715-.32c-.334-.105-.385-.376-.452-.65l-.472-1.938a.358.358 0 01.013-.238c.3.189.606.37.898.57.22.15.385.361.7.378.118.006.247.232.331.38a2.57 2.57 0 01.277 2.123zm.553-.25a.682.682 0 01.25-.533 5.45 5.45 0 00.594-.8c.1-.11.21-.213.329-.305.137.596.28 1.11.37 1.631a2.075 2.075 0 01-.282 1.832c-.133.2-.247.413-.34.635-.301-.871-.976-1.52-.92-2.46zm.477 2.84a2.794 2.794 0 01-.066 1.915c-.483-.353-.98-.69-1.443-1.07a2.395 2.395 0 01-.497-.648 1.447 1.447 0 01-.181-.558c-.068-.612-.11-1.227-.165-1.873a3.063 3.063 0 011.497 1.033c.018.025.033.07.054.073.66.097.608.701.801 1.127zm.814 5.448a4.598 4.598 0 00-.11.478 8.348 8.348 0 01-1.415-.938 2.735 2.735 0 01-.717-1.601c-.059-.448-.067-.903-.103-1.424.131.05.218.058.262.105.355.377.702.76 1.052 1.141.056.061.108.17.169.175.612.052.705.588.908.995a1.347 1.347 0 01-.046 1.069zm-.648 3.508c.065-.653.122-1.307.183-1.962l.143-.008c.02.158.05.315.056.474.026.647.043 1.296.063 1.944a.317.317 0 01-.024.078c-.261-.083-.453-.205-.42-.526zm1.102 6.889a3.615 3.615 0 01-.468-1.022c.042-.023.084-.048.125-.072l1.304 1.517c-.372-.153-.76-.203-.961-.423zM73.3 89.17a3.325 3.325 0 00-.327.865 2.06 2.06 0 01-.988-2.124c.088-.634.113-1.276.167-1.914l.106-.094c.145.193.299.377.462.554.18.177.442.29.572.492.16.254.262.54.299.837a1.83 1.83 0 01-.29 1.384zm.88-.04c.265-.256.495-.549.76-.806a4.43 4.43 0 01.57-.44 1.03 1.03 0 01.27-.083c0 .786.024 1.51-.011 2.23a.805.805 0 01-.445.76 3.44 3.44 0 00-1.32 1.147 1.303 1.303 0 01-.18.16c-.124-.338-.224-.647-.349-.945a2.03 2.03 0 01.279-1.75c.062-.128.305-.156.426-.272zm.605-4.008c.234-.247.45-.51.678-.762.26-.29.525-.577.789-.864a4.102 4.102 0 01-.378 2.85 2.052 2.052 0 01-.489.55c-.397.318-.82.604-1.222.895a2.284 2.284 0 01.18-2.26c.1-.165.304-.263.442-.409zm.724-4.743c.271-.243.525-.507.81-.734.205-.134.42-.252.644-.352-.041.264-.081.426-.09.589-.03.475-.035.952-.07 1.426a1.54 1.54 0 01-.644 1.217c-.404.332-.786.689-1.146 1.067-.034.031-.073.055-.12.091a3.147 3.147 0 01.126-2.884c.101-.175.329-.276.49-.42zm1.811-4.75c.078-.038.16-.067.244-.086-.106.711-.212 1.4-.309 2.09a.824.824 0 01-.456.727c-.383.186-.731.445-1.095.668a.513.513 0 01-.141.03 2.74 2.74 0 01.28-2.363c.028-.044.054-.11.093-.12.57-.161.899-.668 1.384-.947zm-.16-2.606c.358-.255.704-.525 1.056-.787a.976.976 0 01.187-.06 13.063 13.063 0 01-.162 1.537 1.186 1.186 0 01-.453.65c-.468.327-.983.584-1.479.868a2.02 2.02 0 01.436-1.984c.087-.114.287-.133.415-.224zm1.38-2.451a1.003 1.003 0 01-.552.787c-.243.139-.48.287-.738.443a1.018 1.018 0 01-.058-.181 5.847 5.847 0 01-.11-1.249c.012-.448.153-.883.404-1.253.381-.39.86-.67 1.388-.81-.123.819-.242 1.539-.334 2.263zm1.205 4.547a33.778 33.778 0 01-1.096 2.385c-.156.22-.367.393-.612.504-.123.072-.27.05-.227-.21a7.43 7.43 0 012.05-4.013c.094-.098.172-.212.257-.318l.253-.31.081.038c-.233.642-.442 1.294-.706 1.924zm.79-.35a3.36 3.36 0 00-.21.975 5.965 5.965 0 01-.569 1.676c-.464 1.048-.9 2.108-1.35 3.162-.026.063-.064.12-.11.201l-.226-.456-.097-.01a3.24 3.24 0 00-.138.466c-.013.17-.014.34-.005.51a.672.672 0 01-.433.664c.078-.66.137-1.355.251-2.04.097-.489.359-.93.742-1.249a5.467 5.467 0 001.427-2.403c.361-1.02.726-2.036 1.096-3.052.012-.037.049-.064.088-.112a4.22 4.22 0 01-.465 1.669zm-.075 3.627l.088-1.038c.306.442.29.61-.088 1.038zm.463 3.827c-.625-1.023-.436-2.01-.046-3.007.07.343.14.685.208 1.028.068.347.162.691.196 1.042a1.427 1.427 0 01-.358.937zm1.29 14.003l.148.002c.061.288.108.578.139.87.023.404 0 .81.008 1.214.005.234-.079.493.16.679.027.02.008.114-.005.172a2.35 2.35 0 01-.711 1.299 7.003 7.003 0 00-.542.614 4.73 4.73 0 01-.105-.079c-.383-1.73.21-3.262.907-4.771zm.095-3.445l-.506 2.583-.193-.02v-1.713a.902.902 0 01.699-.85zm-2.45.46c.037-.082.094-.192.068-.26a1.313 1.313 0 01.251-1.186 1.235 1.235 0 01.776-.662c.28-.074.496-.372.755-.549.281-.191.58-.358.953-.586a3.853 3.853 0 01-.973 2.237l-.03-.646c-.32.083-.347.355-.358.562a1.112 1.112 0 01-.79 1.143c-.268.095-.468.396-.691.61-.093.098-.18.201-.262.308l-.132-.053c.145-.306.292-.61.432-.917zm-.163-13.935c-.159.337-.27.694-.33 1.061-.268.874-.54 1.746-.818 2.616a.327.327 0 01-.156.164c.03-.549-.238-1.058.11-1.648.448-.857.843-1.74 1.183-2.645.068-.157.126-.318.188-.477a1.059 1.059 0 01-.177.93zm.54 7.496l.137.014c.07.322.16.64.206.965.041.288.023.584.31.775a.234.234 0 01.075.193c-.106.76-.097 1.558-.758 2.13a2.355 2.355 0 00-.356.541l-.094.002a3.114 3.114 0 00-.08-.415c-.116-.345-.265-.68-.365-1.03a1.989 1.989 0 01.112-1.349c.263-.612.541-1.217.813-1.826zm-.416-5.312c-.03.807-.086 1.615-.054 2.42a2.658 2.658 0 01-.557 1.5c.067-.668.386-1.301.249-1.997-.463.54-.46 1.258-.792 1.9a2.085 2.085 0 01.093-1.606c.329-.864.58-1.758.868-2.639.05-.152.114-.3.17-.45l.102.02c-.028.285-.069.568-.08.852zm-5.437 31.41c.195-1.121.407-2.239.637-3.354.237-1.143.5-2.28.76-3.418.243-1.067.491-2.132.746-3.196.367-1.53.738-3.06 1.113-4.587.237-.972.475-1.943.715-2.914a.357.357 0 01.085-.167c.194-.19.12-.35-.01-.546a1.938 1.938 0 01-.468-1.298c.009-.135.039-.268.09-.393.242-.509.499-1.01.778-1.568.051.127.09.26.113.395.015.33.373.53.305.9-.076.412-.07.84-.16 1.247-.061.278-.049.472.233.605-.125.265-.258.512-.36.771a7.95 7.95 0 00-.321.978c-.026.102.07.236.111.355.109-.056.267-.084.316-.172.186-.27.45-.478.756-.596l.062.066a1.81 1.81 0 01-.08.297c-.091.2-.198.391-.316.62-.19-.207-.324-.16-.42.071-.085.2-.203.39-.273.594-.542 1.621-1.109 3.235-1.605 4.87a122.225 122.225 0 00-1.401 5.057 88.199 88.199 0 00-.892 3.932c-.144.685-.223 1.383-.335 2.075a1.08 1.08 0 01-.074.202l-.087-.004a4.152 4.152 0 01-.018-.822zm3.175-16.441l-3.211 13.359c-.418-4.776 1.211-9.107 3.211-13.36zm-5.895-2.373c.2.314.387.638.608.936.11.147.316.223.42.372.147.204.259.434.327.677.18.55.14 1.15-.114 1.67a3.284 3.284 0 00-.176.616c-.484-.833-1.35-1.332-1.359-2.343.007-.21.026-.42.057-.627l.138-1.27.1-.031zm1.619-1.21c-.16.406-.338.803-.523 1.237-.057-.067-.122-.138-.183-.214-.244-.315-.505-.619-.724-.95a1.136 1.136 0 01-.222-.598c.02-.692.09-1.382.15-2.185.209.224.37.384.517.556.176.208.272.499.619.517.058.003.136.131.16.215.1.339.195.68.263 1.026a.75.75 0 01-.057.397zm1.748.558c-.263.536-.361 1.152-.605 1.7-.203.374-.44.729-.71 1.059-.017.024-.078.019-.128.029a5.753 5.753 0 01-.344-1.16 1.93 1.93 0 01.186-1.059c.284-.439.608-.851.966-1.232.181-.22.375-.43.572-.635a1.54 1.54 0 01.239-.169l.071.043c-.15.462-.013.948-.247 1.424zm-1.635 6.156c-.371-.362-.192-.79-.14-1.185.04-.293.085-.621.46-.752.11-.04.161-.235.247-.353.295-.405.594-.807.892-1.21l.1.031c.136.55.158 1.12.063 1.678a3.002 3.002 0 01-.781 1.708c-.32.268-.547.63-.65 1.035a.378.378 0 01-.14.187c-.065-.274-.246-.529-.05-.834a.322.322 0 000-.305zm2.585-2.636c.392-1.02.82-2.027 1.257-3.095.21.332.402.62.572.919.026.045-.041.151-.076.224-.502 1.012-1.03 2.013-1.502 3.038-.437.947-.814 1.92-1.219 2.881-.05.121-.108.24-.173.382a.892.892 0 01-.106-.994c.243-.597.524-1.18.75-1.782.193-.515.3-1.06.497-1.573zm2.187-6.694a4.673 4.673 0 01-.56 1.871l-.178-.035a2.456 2.456 0 01-.022-.821c.149-.405.413-.758.76-1.015zm-.416-1.36c-.428.985-.91 1.947-1.441 2.881a11.115 11.115 0 01-.145-.079c.314-1.052 1.053-1.87 1.586-2.802zm-.934-2.815c.098-.544.197-1.027.268-1.514.039-.26.025-.528.042-.791a1.46 1.46 0 01.7-1.235 13.73 13.73 0 01-.025 1.945c-.12.367-.309.708-.556 1.004-.122.197-.272.376-.43.591zm.897-.31l.117.002c.042.25.083.5.129.748a2.703 2.703 0 01-.527 1.776c-.228.433-.498.845-.76 1.26a2.411 2.411 0 01-.28.309c.043-.64.102-1.209.115-1.778.023-.983.797-1.549 1.206-2.317zm-1.749 7.703a1.542 1.542 0 01.719-1.438c.164.184.336.353.477.544a.333.333 0 01.009.274c-.421.988-.851 1.972-1.282 2.956-.01.026-.046.04-.076.067a.73.73 0 01-.054-.728 3.055 3.055 0 00.207-1.675zM69.11 97.26a3.212 3.212 0 01.328-2.242c.389.605.747 1.229 1.074 1.87.07.3.05.615-.058.904-.15.628-.344 1.245-.523 1.866-.008.025-.047.041-.106.092-.036-.145-.06-.27-.097-.392-.207-.699-.451-1.39-.618-2.098zm-.411 4.672a7.864 7.864 0 01-.78-1.246 8.653 8.653 0 01-.332-1.516.205.205 0 01.055-.172c.4-.288.385-.778.579-1.165.034-.071.074-.14.147-.275l.44 1.124a3.85 3.85 0 01.434 1.938 2.163 2.163 0 01-.175.552c-.109.253-.24.497-.368.76zm-1.252-.706c.45.092.54.488.707.814.124.241.222.494.334.742.013.028.05.061.043.08-.173.528.224.953.273 1.44l-.078.057a1.927 1.927 0 01-.167-.229 3.857 3.857 0 00-.912-1.046 5.361 5.361 0 01-1.6-2.478c-.11-.351-.199-.71-.298-1.065l.108-.06 1.404 1.538c.064.07.113.192.186.207zm-1.19-6.6c.236-.402.516-.775.835-1.113.072.25.137.493.21.733.15.476.31.95.456 1.428a1.21 1.21 0 01-.141 1.137 3.67 3.67 0 00-.314.718c-.347-.517-.689-.958-.953-1.44a1.648 1.648 0 01-.093-1.464zm-1.246-3.162a3.675 3.675 0 01-.047-1.267c-.001-.035.038-.073.066-.103.279-.303.558-.606.842-.905a1.4 1.4 0 01.228-.147c.07.398.13.767.202 1.134.073.378.139.76.24 1.131a1.801 1.801 0 01-.52 1.937 14.072 14.072 0 01-1.011-1.78zm-1.512-.378c.326.318.627.661.939.994.044.047.084.116.138.131.69.192.746.86 1.015 1.36.267.497.08 1.023.051 1.561-.536-.442-1.017-.887-1.548-1.263-.34-.24-.688-.446-.803-.87-.12-.441-.225-.886-.316-1.335a4.179 4.179 0 01-.08-1.041c.211.141.412.296.603.463zm-1.593-4.834c.126.099.243.207.351.324.267.335.506.694.782 1.022.142.166.351.273.508.428.147.146.277.308.389.483a3.29 3.29 0 01.502 2.134c-.004.037-.04.07-.048.084a12.514 12.514 0 01-1.62-1.245 3.161 3.161 0 01-.887-1.93c-.033-.41-.055-.82-.082-1.231l.105-.069zm-.71-4.334a3.79 3.79 0 011.4 1.123c.114.145.309.226.429.368.137.154.246.332.322.525.307.728.323 1.547.045 2.288a2.733 2.733 0 00-.077.309c-.188-.21-.328-.39-.493-.545a22.789 22.789 0 00-.913-.798 1.617 1.617 0 01-.603-1.164c-.047-.63-.086-1.26-.127-1.89.002-.073.007-.145.017-.216zm2.14-1.991c-.29-.451-.547-.922-.77-1.41a1.83 1.83 0 01.04-.898c.06-.253.141-.5.241-.74.017-.047.051-.114.09-.124.445-.11.586-.542.875-.817.03-.03.063-.056.172-.15.054.336.1.606.138.879.067.477.115.957.192 1.432a1.985 1.985 0 01-.978 1.828zm1.262.105l.098.054c.044.347.096.693.13 1.041.034.358.016.723.082 1.074.04.435-.082.87-.345 1.219a9.985 9.985 0 01-.579.829 4.48 4.48 0 00-.151-.52c-.13-.305-.295-.597-.411-.906a2.231 2.231 0 01-.112-1.53c.05-.15.258-.245.389-.372.301-.294.6-.592.899-.889zm.361-6.078a2.08 2.08 0 01-.51.399l-.087-.068c.197-1.122.103-2.3.67-3.39a2.908 2.908 0 01-.073 3.06zm.615-2.865c-.372-.427-.387-.623-.069-.922a.665.665 0 01.069.922zm.162-6.514a2.268 2.268 0 01-.004-.574c.007-.124.045-.245.055-.369.01-.124.002-.25.002-.376l.132-.038.595 1.69a.533.533 0 01-.78-.333zm.913 2.113l.491 2.21c-.767-.32-1.02-1.28-.491-2.21zm.91 5.674a.194.194 0 01-.19-.035 6.926 6.926 0 01-.787-1.339 3.538 3.538 0 01.012-1.167c.003-.102-.011-.204-.023-.384l-.321.296v-.677c.075.02.15.017.186.054.274.256.527.533.757.83.16.24.267.512.314.796.08.475.1.96.134 1.441a.233.233 0 01-.083.185zm.164 5.134c-.416-.418-.81-.81-1.197-1.207a.236.236 0 01-.031-.149c-.002-.35-.006-.7.002-1.05a.988.988 0 01.085-.259c.923 1.241 1.266 2.021 1.141 2.665zm-.183-2.376l-.12.028a4.145 4.145 0 01-.943-3.198c.376.452.694.95.946 1.48a6.7 6.7 0 01.117 1.69zm-1.714-9.39c.568.249.607.599.12 1.281l-.12-1.28zm.087 7.692a.772.772 0 01.065.2c.005.768.036 1.538-.007 2.303a4.991 4.991 0 01-.509 2.109 4.04 4.04 0 01-.394.518c-.062-.834-.102-1.608-.181-2.377-.012-.483.107-.96.344-1.38.201-.455.44-.892.682-1.374zm-.654 12.946c.075.616.114 1.235.115 1.855-.022.294-.356.566-.582.896a6.616 6.616 0 00-.624-1.182 1.855 1.855 0 01-.188-1.997c.038-.108.047-.225.084-.333.033-.1.063-.253.131-.277.516-.182.522-.75.842-1.075l.42-.43.08.053a5.738 5.738 0 00-.26.977c-.041.504-.047 1.01-.019 1.513zm2.642-7.577a9.62 9.62 0 01-.506 2.605c-.12.347-.373.633-.703.796-.348.153-.69.324-1.106.521.039-.21.062-.422.07-.635-.028-.526-.083-1.05-.12-1.575a3.495 3.495 0 01.24-1.51c.27-.708.48-1.438.732-2.21.181.21.367.42.547.633.185.242.382.474.59.696a.74.74 0 01.256.679zm.167-2.862c-.058-.615-.133-1.228-.202-1.842l.153-.03c.478.787.349 1.713.565 2.628a.906.906 0 01-.516-.756zm.274 1.704l.116-.026.204.707c-.453-.163-.252-.466-.32-.68zm.137 5.025a58.164 58.164 0 01-.585 2.91c-.135.574-.36 1.127-.542 1.692a.616.616 0 01-.577.445c-.23.04-.459.096-.682.166-.06-.619-.132-1.216-.173-1.814a3.77 3.77 0 01.641-2.164c.385-.656.838-1.273 1.216-1.933a4.385 4.385 0 00.514-1.887c.027-.368.097-.732.208-1.085.057.118.16.233.165.351a15.475 15.475 0 01-.185 3.319zm.13 8.2a4.99 4.99 0 01-.443.617l-.652-1.176-.123.043c.035.212.06.426.108.635.038.172.106.337.15.508.091.346-.05.501-.436.478-.069-.87-.135-1.742-.209-2.613a1.283 1.283 0 01.348-1.01c.423-.556.72-1.197.87-1.88.014-.038.03-.076.047-.113.004-.008.017-.012.095-.064.062.448.108.871.181 1.29.067.57.183 1.133.346 1.683a1.897 1.897 0 01-.282 1.602zm-.175 4.567c-.333-.66-.722-2.16-.284-2.656.813.59.972 2.08.284 2.656zm.851-4.514c.11.801.038 1.617-.21 2.386-.186-.344-.364-.657-.521-.982a.339.339 0 01.005-.279c.23-.379.479-.745.726-1.125zm.476-15.317c-.087.492-.13.992-.194 1.488-.014.103-.042.204-.063.306l-.156.009a5.059 5.059 0 01-.159-.704 51.619 51.619 0 01-.113-1.887c-.008-.15.05-.197.213-.118.533.256.571.345.472.906zm.667 15.805a8.583 8.583 0 01-.586-1.197 2.502 2.502 0 01-.004-.672c-.018-.346-.058-.69-.095-1.1a3.075 3.075 0 011.1 3.464 3.376 3.376 0 01-.415-.495zm.231 4.477c-.017-.01-.087-.025-.111-.067-.29-.49-.591-.978-.851-1.484a1.075 1.075 0 01-.06-.554c.058-.675.137-1.347.218-2.114a3.985 3.985 0 01.814 3.115 6.481 6.481 0 00-.01 1.104zm-.228-11.224c.463.396.76.952.83 1.556a2.31 2.31 0 01-.83-1.556zm.581 2.021a.686.686 0 01.291.576c-.022.461-.006.924-.006 1.394a3.896 3.896 0 01-1.357-.99 2.203 2.203 0 01-.491-1.504 12.402 12.402 0 01-.261-2.597c.053-.472.153-.939.233-1.408l.126.02c.02.14.025.282.016.424a4.477 4.477 0 00.533 3.064 4.9 4.9 0 00.916 1.021zm-10.684-.91l-.864-1.456.107-.084c.082.068.159.14.232.218.19.224.36.466.563.678.2.21.184.392-.038.644zm-.626-2.485l.387-1.476a1.097 1.097 0 01.366.993 5.83 5.83 0 00.262 1.544c.011.095.012.191.002.287a4.278 4.278 0 01-1.017-1.348zm1.346 3.697c-.328-.375-.332-.503-.083-.782l.083.782zm-.111-6.59a8.851 8.851 0 00-.333-2.202.439.439 0 01.006-.124l.085-.086c.377.31.75.624 1.134.925.125.084.257.157.393.22.053.028.129.045.157.09a2.47 2.47 0 01.427 1.847 4.736 4.736 0 00-.03.475 1.784 1.784 0 01-.062.26c-.515-.307-1.01-.575-1.472-.893a.741.741 0 01-.305-.511zM71.11 104.31c-.195-.582-.419-1.154-.604-1.739a4.794 4.794 0 01.066-3.05c.099-.294.142-.607.216-.91a.538.538 0 01.073-.129l.096.006c.035.318.038.638.009.957a2.02 2.02 0 00.599 2.064.728.728 0 01.25.61c.013 2.95.038 5.899.056 8.849-.007.13-.022.259-.045.387l-.074.003c-.151-.637-.299-1.274-.454-1.909a536.177 536.177 0 00-.806-3.242.322.322 0 01.152-.416 1.24 1.24 0 00.466-1.481zm1.389-2.765a1.665 1.665 0 01-.842-1.088.926.926 0 01-.036-.278c.073-.504.157-1.005.232-1.473.254.172.485.378.685.612.143.277.242.575.293.883.057.22.06.457.133.67a2.5 2.5 0 00.318.485c0 .448.004.997-.001 1.545-.002.19.032.341.257.363.233.022.202-.162.267-.301a6.55 6.55 0 01.47-.741.76.76 0 01-.212 1.021.748.748 0 00-.196.502c-.035 1.531-.048 3.064-.073 4.596a365.08 365.08 0 01-.065 3.187c-.013.552-.04 1.103-.062 1.655-.02.467-.038.933-.069 1.399a1.29 1.29 0 01-.099.309 1.487 1.487 0 00-.063-.016c-.03-.635-.067-1.269-.087-1.904-.029-.892-.036-1.785-.07-2.676-.029-.781-.082-1.562-.125-2.343-.043-.802-.067-1.606-.132-2.407-.087-1.077-.206-2.153-.309-3.23a.194.194 0 01.018-.122c.232-.33.019-.481-.232-.648zm11.978-15.488l.127.113a8.67 8.67 0 01-.597 1.132c-.302.421-.71.765-1.02 1.182a5.219 5.219 0 01-1.648 1.314c.031-.243.058-.419.077-.596a2.897 2.897 0 01.504-1.619.753.753 0 01.45-.284c.227-.097.44-.225.632-.38.49-.29.983-.575 1.475-.862zm1.25-1.364a.608.608 0 01-.403.3 4.61 4.61 0 00-2.019.706c-.015.009-.04 0-.09 0l.082-.67a1.32 1.32 0 00.038-.28c-.068-.8.508-1.226.99-1.706a.085.085 0 01.058-.02c.652.04 1.097-.501 1.7-.604.224-.037.442-.105.684-.164.01.067.044.138.023.183-.347.755-.69 1.512-1.063 2.255zm.072 1.447a1.603 1.603 0 01.97-.914 1.13 1.13 0 01-.97.914zm.89 2.162a4.956 4.956 0 00-1.357 1.826 6.324 6.324 0 01.565-2.14c.161-.385.372-.75.513-1.142.241-.662.853-.83 1.422-1.175-.202 1.008-.32 1.957-1.143 2.63zm1.802 4.976c.054.003.106.05.17.084-.545.7-1.042 1.39-1.595 2.03a2.046 2.046 0 01-1.75.678c.027-.113.05-.217.078-.32.104-.38.24-.755.307-1.141.083-.473.812-1.266 1.223-1.232.542.043 1.044-.13 1.567-.099zm-3.425 1.779c-.137.402-.275.807-.45 1.193a1.067 1.067 0 01-.35.34c-.28.214-.571.414-.896.647a2.529 2.529 0 01-.03-.35 4.555 4.555 0 00-.36-1.805.659.659 0 01.031-.617c.221-.377.464-.741.728-1.09.303-.377.656-.715 1.047-1.134.065.298.114.6.147.904.024.416-.002.834.012 1.252.025.128.06.254.107.376a.57.57 0 01.014.284zm-.438-4.637a4.847 4.847 0 01-1.027 2.114c-.207.25-.386.522-.58.782-.065.089-.136.172-.205.258a5.211 5.211 0 00-.078-.034 8.2 8.2 0 01.175-1.067c.303-1.017.58-2.048.982-3.026.354-.779.77-1.527 1.247-2.238.126-.202.408-.306.618-.456l.083.089a13.61 13.61 0 00-.572 1.297c-.254.749-.469 1.51-.643 2.28zm2.844.519c.062.11-.002.305-.037.454a3.112 3.112 0 01-1.448 1.995.109.109 0 01-.078.002c-.11-.631-.222-1.246-.321-1.862 0-.094.019-.186.056-.272a3.837 3.837 0 011.01-1.847c.273-.252.526-.527.793-.787.074-.064.153-.123.235-.177l.133.063c-.118.547-.234 1.094-.354 1.64a1.007 1.007 0 00.01.79zm-4.883-10.512c.18.395-.109.658-.15.975-.227-.176-.19-.427.15-.975zm-.145 3.526c.065.19.157.372.234.558a1.1 1.1 0 01.139.37 4.23 4.23 0 01-.076.686c-.06.365-.248.696-.531.933-.273.246-.51.53-.787.822-.114-.443-.192-.87-.333-1.276a1.686 1.686 0 01.249-1.444c.266-.481.533-.961.849-1.528.1.348.168.617.256.879zm-8.436-12.388a1.18 1.18 0 01.155-.38l.091.017.082.585c-.158-.103-.331-.167-.328-.222zm-.5.926c.36.556.154 1.127.058 1.696a4.69 4.69 0 01-.059-1.696zm-.06 6.415c.096-.415.144-.843.223-1.264.027-.086.065-.168.112-.245a.779.779 0 01.235.128c.174.194.331.404.498.606.054.066.113.171.177.177.248.021.272.217.292.378.075.49-.006.991-.23 1.433-.195.376-.352.772-.534 1.183-.554-.719-.992-1.445-.773-2.396zm-2.654-2.555a.893.893 0 01.12-.3c.098.045.247.064.288.141a1.972 1.972 0 01.29 1.814 5.73 5.73 0 00-.2.65c-.046 0-.091-.002-.136-.004-.102-.505-.215-1.009-.303-1.517a4.567 4.567 0 01-.059-.784zm.487 3.894c.25.303.456.64.614 1 .076.266.09.546.038.818-.052.317-.123.63-.211.938a6.021 6.021 0 01-1.744-4.101c.085.033.165.08.238.136.361.397.734.787 1.065 1.209zm-7.034-18.278l-.772-1.702c.838.565 1.097 1.143.772 1.702zm-.283 5.825a2.905 2.905 0 01.397-2.385c.114.215.228.416.33.623.237.487.496.967.691 1.47.096.324.163.655.2.99a8.47 8.47 0 01-.131.037c-.121-.29-.253-.575-.36-.87-.121-.333-.214-.676-.332-1.01a2.707 2.707 0 00-.195-.368l-.116.057c.017.669.155 1.329.408 1.948.09.288.192.572.294.857a.257.257 0 01-.169.364c-.354.151-.706.307-1.122.489.019-.175.05-.348.092-.518.158-.55.162-1.132.013-1.684zm-5.714-.407l.112-.046c.572.496.537 1.238.755 1.877l-.086.032c-.117-.31-.227-.624-.354-.93-.133-.315-.284-.622-.427-.933zm.073 2.544c.89.887.669 2.07.977 3.09a.448.448 0 01-.07.057c-.5-.386-1.016-.768-.996-1.493.016-.552.058-1.103.09-1.654zm-1.98 13.722a66.762 66.762 0 01-.926-2.218 7.699 7.699 0 01-.216-.772c.404.154.743.442.96.816.405.744.724 1.538 1.093 2.342a2.263 2.263 0 01-.592.077.487.487 0 01-.319-.245zm-1.634-.352c.03-.256.062-.51.093-.765l.082-.014c.155.264.3.535.467.792.334.516.675 1.028 1.023 1.537a1.01 1.01 0 01.117 1.047c-.147.423-.268.854-.362 1.291-.036-.004-.092.005-.116-.018a4.45 4.45 0 01-1.49-2.362c-.016-.082-.036-.198.006-.25.316-.387.128-.839.18-1.258zm12.463 24.716c.007.094.008.188.002.282l-.058.001a2.164 2.164 0 01-.28-.506 2.395 2.395 0 00-.688-1.045 3.15 3.15 0 01-.416-1.029.087.087 0 01-.003-.063c.37-.635.23-1.387.51-2.16.24.354.457.648.646.958.382.585.558 1.28.502 1.976a1.033 1.033 0 01-.099.42 1.723 1.723 0 00-.116 1.166zm4.106 12.836a42.825 42.825 0 00-.242-2.351 49.917 49.917 0 00-.585-3.429c-.14-.691-.378-1.364-.58-2.042-.12-.409-.258-.813-.38-1.221a.501.501 0 01-.007-.233 3.246 3.246 0 00-.482-2.643c-.187-.263-.357-.54-.561-.79-.074-.09-.221-.119-.422-.22l.072 1.21-.134.004c-.202-.812-.8-1.612.024-2.46.187.319.383.661.585 1 .378.507.698 1.054.956 1.632.423 1.316.743 2.667 1.063 4.013.249 1.044.472 2.098.634 3.158.142.934.202 1.883.265 2.827.035.522.064 1.044.086 1.568l-.292-.023zm1.03.079a147.233 147.233 0 00-.306-3.398 25.526 25.526 0 00-.947-4.563c-.36-1.218-.717-2.436-1.092-3.65-.15-.484-.327-.96-.529-1.425a2.742 2.742 0 00-.432-.611 3.024 3.024 0 01-.502-1.085l.12-.071c.211.288.41.586.638.86.11.099.235.182.37.245.04-.138.14-.291.107-.409-.143-.51-.324-1.009-.49-1.513-.023-.068-.074-.173-.047-.203.381-.425-.003-.864.023-1.295.019-.318-.168-.647.195-.905.106-.075.121-.278.187-.446.26.561.521 1.058.723 1.577a1.176 1.176 0 01-.311 1.563c-.193.154-.176.275-.075.501.164.404.293.822.386 1.248.125.495.228.995.335 1.495.278 1.294.555 2.588.83 3.883.17.806.35 1.61.49 2.422.12.692.188 1.392.276 2.089a24.14 24.14 0 01.2 3.386c-.002.106 0 .211 0 .316-.05-.002-.1-.008-.15-.011zm7.309-13.992a.401.401 0 01-.06.237c-.209.468-.456.922-.628 1.402-.55 1.528-1.115 3.054-1.593 4.606a38.1 38.1 0 00-.903 3.639c-.245 1.208-.405 2.433-.59 3.653-.026.173-.046.347-.07.52-.126.003-.252.009-.378.01.082-.622.17-1.243.257-1.865.127-.912.23-1.83.395-2.736.253-1.396.517-2.791.836-4.174.3-1.299.679-2.579 1.018-3.869.084-.318.152-.64.218-.918-.16-.083-.288-.107-.329-.18a1.198 1.198 0 01.341-.933c.07.361.385.662.164 1.063a.128.128 0 00.028.112c.058.065.157.182.188.168.125-.058.288-.134.333-.245.174-.433.305-.884.462-1.323.044-.119.154-.327.184-.319.344.099.41-.19.517-.372a2.357 2.357 0 011.85-1.336 9.168 9.168 0 00-.315 1.073 1.432 1.432 0 01-1.512 1.33c-.22.009-.524.073-.413.457zm9.684-17.19c.2-.114.406-.217.618-.306.183-.039.368-.066.555-.08.336-.067.667-.159 1.004-.218.223-.04.454-.042.68-.061l.034.104c-.081.068-.17.126-.264.174-.856.357-1.58.97-2.074 1.755-.298.39-.633.752-1 1.08a.91.91 0 01-.45.175c-.264.05-.534.068-.837.103.18-.42.332-.854.455-1.295a2.055 2.055 0 011.279-1.43zm2.27-2.58c.256-.523.647-.97 1.132-1.293a.54.54 0 01.518-.069c.272.043.548.056.823.04.203.015.404.058.606.088l.025.104c-.574.563-1.135 1.138-1.723 1.686a3.064 3.064 0 01-1.602.553l-.45.092c.057-.116.086-.186.124-.25.203-.305.386-.622.547-.95zm1.88-6.046c-.444.65-.943 1.26-1.492 1.825-.058.069-.218.146-.254.12-.081-.063-.175-.2-.157-.284a3.17 3.17 0 01.296-.973c.418-.695.877-1.366 1.374-2.008.627-.802 1.314-1.558 2.015-2.382.01.1.025.139.013.162-.59 1.184-1.13 2.4-1.796 3.54zm3.422-.884c-.02.18-.03.361-.028.542a.819.819 0 01-.078.36 2.961 2.961 0 01-1.638 1.368c.02-.165.052-.32.056-.474.008-.34.012-.681 0-1.022a1.502 1.502 0 01.597-1.293c.393-.308.825-.566 1.242-.843.028-.019.08-.002.197-.002-.122.469-.248.914-.348 1.364zm2.19-.589c.213-.084.432-.151.656-.201.068-.019.174-.033.217.004.367.32.752.092 1.135.063a1.62 1.62 0 011.262.434c-.072.062-.099.106-.135.114-.921.331-1.797.777-2.606 1.327a2.075 2.075 0 01-1.477.375 4.662 4.662 0 00-1.227.076c.18-.23.337-.477.468-.739a2.728 2.728 0 011.707-1.453zm1.813-2.743a4.008 4.008 0 01-.079.69 1.466 1.466 0 01-.325.551 2.94 2.94 0 01-1.486 1.002 3.255 3.255 0 00-.668.33c-.085.041-.178.07-.35.137a7.286 7.286 0 01.38-1.498c.21-.314.49-.573.82-.757.561-.392 1.151-.743 1.818-1.168-.044.287-.083.5-.11.713zm-.48 5.436a.87.87 0 01-.895-.217c1.439-.7 2.765-1.64 4.511-1.215-.663.299-1.317.62-1.991.89-.529.213-1.084.362-1.625.542zm-1.986 1.11a3.128 3.128 0 011.118-.356c.525-.118 1.059-.197 1.589-.293l.031.032c-.397.279-.786.571-1.195.832a11.842 11.842 0 01-2.904 1.499c-.25.074-.512.207-.754.002.704-.58 1.379-1.191 2.115-1.716zm-4.144.976c.134-.186.25-.385.343-.594a2.006 2.006 0 011.302-1.125c.154-.061.314-.111.475-.15.1-.026.245-.08.303-.036.374.29.808.127 1.279.202-.25.22-.468.406-.678.6-.403.377-.784.78-1.206 1.132-.457.381-.93.659-2.091.386.106-.161.193-.286.273-.415zm-.195-.969a.462.462 0 01-.054.493c-.207.338-.442.66-.702.96-.2.168-.418.31-.651.426-.19.122-.377.25-.582.386-.034-.4-.035-.78-.104-1.146a1.349 1.349 0 01.609-1.443c.472-.407.917-.843 1.333-1.307.088-.089.18-.174.272-.26l.097.013c.013.168.01.337-.005.505-.052.308-.142.609-.2.916a.82.82 0 00-.013.457zm13.526-9.773c.127-1.182.897-1.763 1.903-2.123.241-.087.48-.22.747-.041.055.038.172-.017.261-.03.567-.084 1.134-.172 1.701-.247.133.015.264.048.388.098-.732.686-1.354 1.348-2.061 1.903a1.704 1.704 0 01-1.421.322 4.28 4.28 0 00-1.161.065c-.123.01-.245.035-.357.053zm-2.692-1.296a9.387 9.387 0 012.34-2.746c.032.03.063.06.094.092l-2.37 2.708a1.968 1.968 0 00-.064-.054zm1.68-.544c.109-.116.209-.24.299-.372.167.32.21.692.121 1.042a3.504 3.504 0 01-.123.45c-.014.057-.04.14-.013.175.354.466-.08.72-.291 1.007a7.158 7.158 0 01-.62.584 1.23 1.23 0 00-.163.355c.134.013.27 0 .4-.04.24-.147.47-.31.69-.486a2.277 2.277 0 011.628-.419c.232.022.445.247.722.413-.44.276-.85.54-1.269.79a9.275 9.275 0 01-.911.494c-.438.19-.931.216-1.387.075a3.546 3.546 0 00-1.521.1c-.078.013-.157.018-.255.028.189-.368.348-.753.473-1.148.306-1.342 1.258-2.194 2.22-3.048zm-4.448 5.244a.453.453 0 00.433.038 6.198 6.198 0 012.093-.693c.039-.006.104-.002.119.02.224.353.623.295.945.414.074.028.149.053.301.108-.701.486-1.318.931-1.952 1.35a2.853 2.853 0 01-2.084.36 9.428 9.428 0 00-1.317-.01 1.98 1.98 0 01.19-.27 3.635 3.635 0 001.116-2.458.466.466 0 01.124-.308c.414-.341.843-.664 1.267-.993l.092.083c-.065.214-.129.429-.196.643-.021.07-.078.141-.069.205.083.577-.352.778-.73 1.022a1.25 1.25 0 01-.169.083c-.191.084-.271.264-.163.406zM88.653 87.933a1.78 1.78 0 01.576-1.536c.35-.35.732-.669 1.111-.988.226-.189.475-.352.713-.526a.358.358 0 01.031.114 4.65 4.65 0 01-.19 1.778c-.017.048-.066.114-.05.142.28.49-.138.778-.341 1.106a4.33 4.33 0 01-1.96 1.604c.042-.474.085-.921.12-1.37a1.559 1.559 0 00-.01-.324zm4.942-16.285c.261-.024.52-.061.781-.094l.015.08c-.315.375-.637.745-.945 1.126a9.441 9.441 0 00-.555.761.598.598 0 01-.637.303c-.499 0-.997.04-1.489.12.016-.09.04-.178.069-.265.082-.144.153-.294.212-.448a2.542 2.542 0 011.239-1.405c.056-.04.156-.087.2-.064.4.205.742-.08 1.11-.114zm.959-6.965c-.3.536-.58 1.082-.872 1.623-.037.07-.088.133-.14.21-.441-.412-.26-.87-.121-1.259a14.48 14.48 0 011.628-3.13.657.657 0 01.108-.095 5.344 5.344 0 01-.603 2.651zm3.586 6.178c-.328.29-.65.588-.985.868-.572.478-1.14.963-1.733 1.412-.44.335-.905.636-1.39.902a1.21 1.21 0 01-.7.005c1.096-1.84 2.88-2.62 4.808-3.187zm-2.855-.253c-.1.03-.201.047-.305.053-.523.005-1.047.002-1.587.002a2.393 2.393 0 011.462-1.574c.36-.082.73-.114 1.098-.093a6.86 6.86 0 01.828-.046c-.399.656-.63 1.442-1.496 1.658zm2.479-4.908c.112-.067.29-.024.436-.032.19-.01.38-.026.571-.031.21-.006.421-.001.7-.001-.296.369-.53.673-.778.966-.32.377-.648.749-.983 1.115a.541.541 0 01-.285.18c-.435.057-.873.086-1.368.13.198-.4.396-.752.551-1.122.244-.517.65-.94 1.156-1.205zm8.614-4.063l.074.133a7.745 7.745 0 01-2.603 1.036l-.049-.12 2.578-1.05zm-3.608-1.542c.09-.216.203-.466.298-.724a3.17 3.17 0 00.197-.653 1.938 1.938 0 011.289-1.498c.574-.26 1.185-.437 1.894-.692-.071.24-.157.475-.257.704-.172.333-.379.648-.561.977a.682.682 0 00-.122.342.749.749 0 01-.265.61 9.78 9.78 0 01-.822.746.995.995 0 01-.518.18c-.375.026-.754.008-1.133.008zm-1.552 1.334c.177-.102.347-.219.533-.303.306-.146.622-.273.944-.38.094-.028.225.085.343.117.175.063.356.104.54.122.395.019.776.157 1.091.397-.314.19-.57.365-.845.505a6.21 6.21 0 01-1.993.806c-.201.026-.415-.033-.614-.002-.44.07-.875.173-1.356.271a1.66 1.66 0 01.063-.219c.259-.54.388-1.134.376-1.733a1.744 1.744 0 01.536-1.264c.328-.346.676-.673 1.041-.98.154-.14.321-.265.518-.425 0 .468.352.856.05 1.347a2.88 2.88 0 01-.874 1.032c-.344.217-.396.307-.353.71zm-4.078 1.926a3.43 3.43 0 01.667-1.152c.379-.458.833-.854 1.258-1.274.089-.073.183-.14.28-.2.028.279.052.481.068.685.017.214-.057.445.16.619.04.032.02.186-.017.26-.28.546-.581 1.08-.85 1.63-.069.14-.12.403-.049.472.173.169.337.004.474-.143.164-.188.344-.362.538-.52a.726.726 0 01.366-.059c.243-.014.486-.015.729-.026.1-.004.199-.02.313-.033-.005.08.009.138-.013.16a9.71 9.71 0 01-.895.857.915.915 0 01-.548.072 3.31 3.31 0 00-2.244.663c-.113.087-.234.165-.372.262.038-.38.085-.719.1-1.06a5.18 5.18 0 01.035-1.213zm-.94 2.91a.446.446 0 01-.03.365c-.248.502-.516.994-.78 1.488a.255.255 0 01-.089.091c-.44.271-.882.54-1.394.852a9.384 9.384 0 01.025-1.742c.139-.458.345-.894.612-1.29.376-.672.776-1.33 1.166-1.994l.118-.187a1.78 1.78 0 01.367 1.416c-.034.33-.239.658.004 1zm-5.39-10.16c.022.543.013 1.086-.025 1.628-.017.23.03.396.242.427.21.03.282-.137.325-.338.067-.25.15-.495.249-.734.01-.029.025-.067.05-.078.373-.167.748-.331 1.176-.52-.112.38-.218.721-.313 1.064-.086.31-.339.372-.6.478a3.097 3.097 0 00-1.604 1.45c-.054.09-.113.177-.176.261-.279-.497-.565-.976-.82-1.47a2.035 2.035 0 01-.137-1.502c.177-.64.4-1.266.638-2.004.164.236.267.405.39.557.11.135.251.245.36.38.099.123.24.264.245.401zm5.633-3.608a5.674 5.674 0 01-1.872 2.193 11.48 11.48 0 011.872-2.193zm-4.276-2.028a2.856 2.856 0 01.853-1.435c.25-.252.488-.516.788-.835.061.379.119.692.16 1.007-.01.438.041.876.153 1.3.119.292-.115.735-.212 1.105-.183.705-.843.861-1.33 1.175-.153-.561-.317-1.077-.43-1.602a1.805 1.805 0 01.018-.715zm-.434 4.178c.083-.068.196-.12.244-.207.126-.225.205-.478.338-.698a2.24 2.24 0 01.37-.394c.036-.035.095-.08.135-.073.66.113 1.225-.416 1.951-.258-.671 1.008-1.182 2.093-2.36 2.616-.356.203-.69.444-.995.718-.129-.43-.247-.877-.4-1.312a7.16 7.16 0 01-.362-.79 2.082 2.082 0 010-.926c.158-.61.39-1.201.59-1.794.2.126.386.275.552.445.111.16.174.35.18.545a1.818 1.818 0 01-.282 1.39.83.83 0 00-.086.486c0 .083.081.168.125.252zm-14.83 10.681c.185.212.303.474.338.753.069.392.042.8.085 1.2.04.132.102.258.183.37.121-.11.226-.238.312-.378.085-.197.076-.436.172-.624.062-.123.236-.19.364-.277.128-.086.262-.163.392-.247.118-.076.233-.157.35-.236l.106.061a7.65 7.65 0 01-.311 1.202c-.076.177-.343.294-.545.394-.61.31-1.097.82-1.378 1.444-.06.122-.125.242-.198.384-.186-.306-.363-.604-.547-.896-.106-.167-.227-.325-.338-.489a2.632 2.632 0 01-.21-2.046c.076-.44.197-.872.301-1.307.009-.036.044-.066.088-.13.146.13.279.272.398.425.128.15.275.284.438.397zm5.52-3.834l.09.07a7.25 7.25 0 01-1.667 2.382c-.033-.022-.064-.045-.095-.067l1.673-2.385zm-4.067-2.506c.275-.419.608-.8.916-1.196a.957.957 0 01.153-.11c.094.325.196.613.255.91.05.256.045.523.074.784.01.088.027.21.086.253a.468.468 0 01.162.515 4.633 4.633 0 01-.29 1.145 2.58 2.58 0 01-.657.68c-.136.106-.28.201-.432.284a13.087 13.087 0 01-.64-1.713 2.033 2.033 0 01.373-1.552zm-.365 3.027c.099.425.067.87-.09 1.278a1.366 1.366 0 00-.165.531c-.009.095.1.2.154.302.088-.063.227-.11.255-.192a2 2 0 01.63-1.091c.126-.064.262-.106.402-.125.131-.024.261-.058.388-.1a1.797 1.797 0 011.242-.31c-.1.188-.195.362-.286.54a5.883 5.883 0 01-1.24 1.84c-.344.303-.737.55-1.091.843a2.65 2.65 0 00-.346.43l-.094-.055a4.996 4.996 0 00-.207-.675 6.884 6.884 0 00-.549-1.015 1.809 1.809 0 01-.217-1.425c.1-.544.269-1.076.424-1.68.306.343.772.417.79.904zm-4.12.998a3.844 3.844 0 01-.01-.773l.141.001c.313 1.627.423 3.286.33 4.94-.498.01-.73-.401-.792-.813a4.026 4.026 0 01.209-1.388c.173-.641.214-1.31.121-1.968zm-1.462 5.31l.12.007-.088 1.667-.091-.004a2.519 2.519 0 01.059-1.67zm.22 7.511a.386.386 0 01-.066.295c-.144.216-.313.415-.512.672-.113-.236-.21-.435-.302-.635a2.211 2.211 0 00-.24-.507 1.742 1.742 0 01-.21-1.562.564.564 0 01.335-.446c.15-.075.231-.286.342-.437.046-.062.088-.126.132-.19.07.953.246 1.895.521 2.81zm-.776-4.78a1.247 1.247 0 01-.488 1.412c.032-.535.098-1.043.084-1.55-.016-.6.145-1.238-.293-1.836-.049.101-.107.167-.108.233-.008.56.008 1.12-.012 1.68-.017.363-.07.724-.16 1.078-.37-.481-.852-.894-.615-1.602a6 6 0 00.183-.918.63.63 0 01.321-.55c.153-.083.199-.376.277-.58a1.22 1.22 0 01.626-.788c-.06.337-.131.67-.176 1.01a7.157 7.157 0 00.361 2.41zm-3.037-14.211c.123.737.139 1.488.046 2.23a.35.35 0 01-.03.12c-.253.415-.51.829-.76 1.237-.237-.324-.507-.646-.722-1.002a2.56 2.56 0 01-.192-1.56.66.66 0 01.043-.245c.093-.184.209-.355.304-.538a4.91 4.91 0 00.33-.69 1.88 1.88 0 011-1.06c0 .145.002.24 0 .336a9.45 9.45 0 00-.019 1.172zm-4.075-3.721c.18.094.364.176.555.244a.935.935 0 01.428.749c.006.106-.04.25.013.312a.695.695 0 00.363.208c.049.01.19-.152.192-.235 0-.38-.053-.761-.047-1.14.004-.24.047-.478.125-.704.045-.135.189-.234.284-.353.162-.205.319-.413.479-.62.056-.071.114-.14.232-.286.197.653.4 1.21.526 1.785.066.389.089.784.067 1.178-.007.177-.058.35-.148.504-.28.495-.583.978-.88 1.468-.153-.243-.31-.509-.481-.764a2.31 2.31 0 00-1.114-.884 1.11 1.11 0 01-.833-.877c-.037-.253-.118-.499-.198-.821.178.097.305.172.437.236zm-1.392-7.336c.081-.342.113-.695.179-1.133.581.703 1.235 1.228 1.53 2.017.159.354.172.756.036 1.119-.165.48-.304.969-.415 1.465a2.01 2.01 0 01-1.452-1.61c-.025-.205-.084-.406-.121-.61-.01-.05-.016-.136.011-.153.439-.289.147-.733.232-1.095zm-.684 5.28a6.684 6.684 0 01-.08.066 6.4 6.4 0 01-1.803-2.19l.103-.082 1.78 2.206zm-.183-1.644c.432-.056.87.034 1.246.256.095.041.211.121.29.096.53-.174.703.257.937.554.102.18.192.368.267.562.043.075.144.116.219.173.052-.09.155-.183.146-.264a1.344 1.344 0 00-.158-.564 1.556 1.556 0 01-.156-1.268c.055-.234.074-.46.363-.561.113-.04.175-.223.272-.357.038.028.102.05.112.088.205.72.431 1.435.585 2.166a1.47 1.47 0 01-.178.744c-.235.594-.496 1.177-.728 1.72a6.927 6.927 0 01-3.217-3.345zm-3.17 11.901c.145-.497.22-1.015.331-1.522a2.07 2.07 0 01.133-.302c.44.788 1.123 1.325 1.291 2.178.114.388.089.804-.071 1.176-.18.408-.333.827-.459 1.254-.068.2-.143.31-.339.105a1.13 1.13 0 00-.322-.25c-.597-.277-.628-.841-.758-1.38-.054-.43.013-.865.193-1.259zm-.025 3.263c.222.044.439.109.648.194.21.108.391.264.528.456.107.234.2.474.275.72.053.114.179.192.272.286.056-.105.166-.217.157-.316a2.798 2.798 0 00-.164-.662 2.447 2.447 0 01.178-1.585.189.189 0 01.075-.098c.192-.123.387-.24.629-.39.025.082.064.184.087.29a6.37 6.37 0 01.288 2.046c-.02.236-.082.467-.186.68-.336.64-.704 1.263-1.063 1.9a2.765 2.765 0 00-.24-.25c-.376-.32-.77-.62-1.136-.95a5.916 5.916 0 01-1.275-2.04 3.568 3.568 0 01-.168-.37c-.048-.147-.032-.264.175-.2.307.097.613.196.92.29zm-6.747-6.723l.13-.015c.293.907.4 1.865.31 2.814l-.097.013-.343-2.812zm-2.168 6.53c.061.013.127.066.178.052.755-.201 1.043.435 1.46.824.147.162.271.344.366.542.1.175.222.306.416.168.189-.136.127-.32.031-.503a9.9 9.9 0 01-.347-.755c-.021-.053-.019-.159.014-.182.297-.21.243-.561.355-.845.033-.081.059-.165.116-.33.217.467.424.853.572 1.261a.713.713 0 01-.071.513 3.3 3.3 0 00-.227 2.715.959.959 0 01-.236-.071 3.64 3.64 0 00-1.111-.464 2.187 2.187 0 01-1.408-1.22c-.291-.588-.572-1.18-.898-1.858.32.061.555.106.79.154zm-2.484-5.5a18.723 18.723 0 01-.317-2.145c.359.09.687.273.952.53.138.118.267.245.387.38a.641.641 0 00.506.277c.11-.005.253.144.332.257.167.24.295.504.449.752a1.987 1.987 0 01-.017 1.744l-.037.135a12.627 12.627 0 01-1.588-.93 2.002 2.002 0 01-.667-1zm.989 1.96a.547.547 0 01.595.147c.367.251.642.616.78 1.04.103.257.245.497.424.71l.146-.032a3.052 3.052 0 00-.003-.4c-.04-.31-.107-.617-.142-.926a.577.577 0 01.277-.673c.124-.068.146-.309.234-.46.176-.3.366-.594.55-.89l.112.034c.099.41.208.819.293 1.232.096.363.154.736.175 1.11a7.18 7.18 0 01-.165 1.141c-.064.39-.132.778-.199 1.167-.017.101-.037.201-.062.33-.325-.22-.614-.443-.93-.617-.262-.144-.574-.2-.833-.35a2.193 2.193 0 01-.766-.59c-.37-.564-.655-1.183-.969-1.783a.612.612 0 01-.022-.214c.165.037.336.045.505.024zm3.588 18.567a1.53 1.53 0 01.07-.347c.532.656 1.34 1.095 1.506 1.997a2.94 2.94 0 01-.048.877c-.047.382-.118.761-.183 1.14-.013.056-.032.11-.054.163-.82-.44-1.11-1.233-1.41-2.017a.204.204 0 01-.002-.157c.336-.531.023-1.109.121-1.656zm-1.395 3.583c-.037-.056-.06-.123-.133-.27.254.064.429.11.605.15.132.03.284.106.395.068.487-.165.787.17 1.126.39.176.133.345.277.504.43.227.202.367.484.391.787.103.461.24.914.407 1.355a2.25 2.25 0 01-2.15-1.19c-.357-.587-.762-1.146-1.145-1.72zm-1.57-.145c.471.213.879.545 1.182.964.431.606.909 1.178 1.365 1.766a.725.725 0 01.048.145 1.382 1.382 0 01-.468-.093 16.192 16.192 0 01-1.608-1.142c-.564-.486-1.07-1.041-1.59-1.577-.247-.256-.467-.538-.72-.834.63.27 1.22.501 1.791.771zm-1.25-2.13c.444.329.849.71 1.292 1.086a1.016 1.016 0 01-1.273-.14c-.977-.679-1.922-1.403-2.88-2.11a.984.984 0 01-.103-.127c.56.009 1.11.154 1.6.422.475.257.93.548 1.364.87zM49.65 79c.031-.021.115.028.171.052a5.183 5.183 0 011.7 1.34c.08.098.138.211.171.333.15.453.289.91.442 1.395-.43-.114-.834-.248-1.248-.325a2.951 2.951 0 01-1.41-.832c-.615-.548-1.224-1.102-1.843-1.645a5.03 5.03 0 00-.498-.34 1.738 1.738 0 011.635-.072c.283.104.556.317.88.094zm-.447-3.064a2.15 2.15 0 01.057-.375l.102-.046 1.985 2.258a.983.983 0 01.226.733c-.015.363-.004.728-.004 1.092l-.143.025c-.508-.63-1.366-.867-1.772-1.617-.114-.21-.245-.413-.361-.623a.678.678 0 01-.067-.673c.093-.214-.02-.513-.023-.775zm-4.694-.914c.314.028.63-.02.92-.14.116-.068.382.043.538.14.469.291.918.614 1.373.927.06.042.107.135.167.14.15.017.385.056.44-.02.102-.142.037-.322-.118-.471a9.685 9.685 0 01-.676-.77c-.037-.044-.08-.137-.06-.17.212-.337.034-.667-.005-.999-.01-.092-.002-.187-.002-.375.114.145.239.28.374.406a2.066 2.066 0 01.855 2.03 3.13 3.13 0 00.586 1.982c.058.097.102.203.175.352-.174-.044-.301-.08-.431-.106a6.197 6.197 0 00-.952-.166 2.41 2.41 0 01-1.584-.593c-.696-.635-1.324-1.344-2.034-2.078a3.95 3.95 0 01.434-.09zm-.35-7.627c.024-.014.048-.026.07-.04a8.834 8.834 0 011.874 3.343l-.074.041-1.87-3.344zm-2.724 3.529a2.234 2.234 0 01-1.137-.681 7.015 7.015 0 01-1.239-1.804c-.105-.175-.215-.349-.323-.523l.053-.103c.386.116.777.216 1.156.352.294.105.572.255.858.384.057.025.126.074.174.06.496-.15.765.247 1.083.474.293.223.555.484.778.777.111.173.185.368.215.572.077.32.127.647.198 1.024-.341-.128-.631-.257-.934-.346a6.142 6.142 0 00-.882-.186zm.618.697a.296.296 0 01.195-.007c.698.162 1.314.57 1.737 1.147.187.22.404.411.645.569.232-.205.146-.33.013-.469a2.911 2.911 0 01-.801-1.392.886.886 0 01.046-.326c.036-.189.146-.395.1-.56-.12-.44.103-.787.175-1.175l.103-.033c.189.266.398.519.563.799.379.648.753 1.3 1.095 1.967.104.25.17.514.195.783.092.561.166 1.126.25 1.707a2.004 2.004 0 01-.234-.087 6.827 6.827 0 00-1.962-.503 2.39 2.39 0 01-1.058-.487c-.562-.458-1.062-.992-1.584-1.498a.422.422 0 01-.076-.143c.217-.107.405-.207.598-.292zM67.9 120.169c-.014-.252-.041-.504-.067-.756-.082-.794-.166-1.588-.252-2.382-.066-.606-.124-1.212-.208-1.816-.087-.621-.205-1.238-.303-1.858-.15-.95-.299-1.901-.444-2.852-.035-.226-.063-.454-.095-.68.4.393.638.924.665 1.485.113.862.221 1.726.326 2.589.088.74.17 1.481.25 2.221.051.46.096.921.138 1.381.024.262.031.527.06.788.082.741.172 1.482.252 2.223l-.305-.043c-.006-.1-.01-.2-.017-.3zM75 26.814A48.186 48.186 0 10123.185 75 48.242 48.242 0 0075 26.816z"/><path fill-rule="evenodd" clip-rule="evenodd" d="M75 147.828A72.825 72.825 0 017.715 102.87 72.829 72.829 0 11147.83 75 72.916 72.916 0 0175 147.828zM75 0a75 75 0 1075 75A75.081 75.081 0 0075 0zm26.854 126.323l1.968 2.466-2.061 1.052-.841-3.042a48.297 48.297 0 00-.814-2.71l.048-.025.018.024c.536.734 1.133 1.552 1.682 2.235zm1.189 8.219l-.95-3.614 2.415-1.231 2.369 2.892 1.224-.625-7.952-9.621-1.37.698 3.057 12.118 1.207-.617zm-57.47-.594a3.97 3.97 0 001.705.525l.327-1.134a3.26 3.26 0 01-1.238-.362c-1.33-.696-1.978-2.421-.252-5.722 1.726-3.301 3.673-3.71 4.827-3.107.378.181.706.45.956.786l.817-.899a2.943 2.943 0 00-1.187-.968c-1.715-.896-4.541-.64-6.77 3.622-1.918 3.669-1.284 6.162.814 7.259zm10.942-3.112l1.492-5.009-1.335-.399-3.48 11.685 1.336.398 1.625-5.461 3.277.976-1.625 5.461 1.334.398 3.48-11.686-1.335-.397-1.492 5.01-3.277-.976zm14.188 4.981l-.36-3.138a62.837 62.837 0 01-.24-2.818l-.055-.004a48.459 48.459 0 01-.75 2.731l-.902 3.025 2.307.204zm-2.604.895l-1.115 3.57-1.35-.119 3.847-11.899 1.531.135 1.63 12.382-1.369-.12-.472-3.71-2.702-.239zm9.892-8.161l1.345 12.112 1.24-.138-.465-4.187c-.288-2.588-.495-4.129-.784-5.734l.037-.004a38.899 38.899 0 001.912 3.953l2.948 5.566 1.293-.143-1.345-12.112-1.24.138.482 4.331c.233 2.103.46 3.66.78 5.553l-.037.004c-.492-1.115-1.175-2.434-1.775-3.591l-.002-.004-.13-.251-.107-.206-2.859-5.43-1.293.143zm12.715-1.021l-2.125.658-.368-1.191 5.579-1.73.368 1.192-2.125.659 3.242 10.449-1.33.413-3.241-10.45zM70.498 21.2l-.382-12.182 1.302-.04 2.42 5.64.2.475.01.025.002.004c.504 1.195 1.076 2.552 1.475 3.695l.037-.002a92.222 92.222 0 01-.339-5.596l-.136-4.356 1.247-.04.381 12.182-1.301.04-2.496-5.783a38.966 38.966 0 01-1.594-4.092h-.036c.16 1.624.244 3.177.325 5.78l.133 4.21-1.248.04zm-9.28-6.39l1.334 2.86-2.252.538-.103-3.155a48.619 48.619 0 00-.154-2.826l.053-.013.02.045c.346.835.731 1.764 1.102 2.55zm-.777 8.273l-.074-3.738 2.639-.63 1.621 3.369 1.337-.32-5.468-11.225-1.495.357.122 12.502 1.318-.315zm-10.393-9.261l-1.284.539 4.72 11.244 1.284-.54-4.72-11.243zM36.9 20.929l6.54 10.287 1.053-.67-2.26-3.557c-1.397-2.197-2.262-3.49-3.227-4.806l.03-.02a39.01 39.01 0 003.459 2.71l5.098 3.704 1.1-.699-6.541-10.288-1.053.67 2.338 3.679a92.298 92.298 0 003.146 4.644l-.031.019c-.924-.777-2.105-1.651-3.145-2.42l-.003-.003-.445-.33-4.96-3.62-1.099.7zm-5.759 4.637l-1.033.934 8.172 9.046 1.034-.934-8.173-9.046zm-4.22 10.626l2.809 1.442-1.449 1.806-2.018-2.429a48.957 48.957 0 00-1.855-2.138l.034-.042c.796.453 1.688.96 2.479 1.361zm4.463 7.011l-2.353-2.907 1.698-2.117 3.349 1.666.86-1.073-11.21-5.51-.961 1.2 7.769 9.8.848-1.059zm-10.749 5.475l.274-.53c.607-1.173.147-2.41-1.155-3.082-1.253-.65-2.29-.535-2.988.775a2.87 2.87 0 00-.276.692l4.145 2.145zm-5.629-1.365c.152-.653.39-1.284.705-1.875a3.759 3.759 0 012.036-2.044 3.285 3.285 0 012.512.343 3.222 3.222 0 011.897 3.182l.032.017c.658-.679 1.645-.698 3.175-.19a16.55 16.55 0 003.056.786l-.649 1.254a15.807 15.807 0 01-2.966-.802c-1.62-.532-2.407-.35-2.955.711l-.25.483 4.707 2.435-.63 1.222-10.67-5.522zm-4.038 10.555l-.387 1.32 11.7 3.432.387-1.318-4.513-1.325-.935-.99 6.345-.74.423-1.441-7.562.967-4.158-4.332-.434 1.476 3.507 3.404.205.19c.322.299.653.606.987.952l-.01.035-5.555-1.63zm5.894 14.201l-8.142-.71-.121 1.387 8.088.705c3.008.263 4.3-.822 4.459-2.642.158-1.801-.936-3.204-4.089-3.478l-7.926-.691-.121 1.387 8.142.71c2.126.185 2.86.921 2.77 1.947-.078.9-.88 1.575-3.06 1.385zm74.914-54.828c.17.079.345.147.523.204 1.293.41 2.441-.156 2.966-1.812.377-1.19.233-2.411-1.25-2.881a2.858 2.858 0 00-.768-.15l-1.471 4.639zm.461-6.003a7.946 7.946 0 011.986.383 3.8 3.8 0 012.318 1.666 3.502 3.502 0 01.079 2.682 3.874 3.874 0 01-1.462 2.155 3.546 3.546 0 01-3.151.424h-.001c-.224-.072-.396-.126-.58-.203l-1.51 4.759-1.31-.416 3.631-11.45zM102.5 21.312l.524.286c1.16.632 2.406.197 3.107-1.09.674-1.239.58-2.278-.715-3.003a2.836 2.836 0 00-.685-.291l-2.231 4.098zm1.482-5.597c.65.166 1.275.416 1.86.744a3.749 3.749 0 011.999 2.077 3.286 3.286 0 01-.394 2.503 3.217 3.217 0 01-3.221 1.83l-.017.033c.665.671.663 1.657.124 3.177-.379.983-.664 2-.85 3.038l-1.239-.674c.191-1.009.48-1.997.863-2.95.566-1.606.399-2.398-.649-2.968l-.477-.26-2.534 4.655-1.207-.657 5.742-10.548zm6.128 17.018c-1.193-.998.035-3.226 1.649-5.153 1.59-1.9 3.59-3.526 4.769-2.54 1.205 1.01-.205 3.343-1.668 5.09-1.533 1.83-3.558 3.602-4.75 2.603zm-.873.874c1.511 1.264 3.83.918 6.767-2.59 2.497-2.98 2.991-5.515 1.396-6.85-1.622-1.358-4.149-.62-6.738 2.47-2.636 3.148-2.978 5.669-1.425 6.97zm7.787 5.952c.086.153.185.298.297.433.958 1.202 2.76 1.666 6-.913 2.407-1.916 3.139-3.698 1.921-5.228a2.53 2.53 0 00-.461-.463l-7.757 6.17zm7.665-7.855a6.5 6.5 0 011.344 1.311 4.078 4.078 0 011.058 2.81c-.052 1.244-.845 2.776-2.841 4.364-2.179 1.734-3.796 2.141-4.946 2.063a4.324 4.324 0 01-3.114-1.823 7.53 7.53 0 01-.857-1.282l9.356-7.443zm1.268 15.843l7.3-3.684-.627-1.244-7.252 3.66c-2.697 1.362-3.225 2.966-2.402 4.597.816 1.615 2.485 2.232 5.311.805l7.106-3.587-.627-1.244-7.301 3.685c-1.906.962-2.918.723-3.383-.198-.407-.807-.079-1.803 1.875-2.79zm1.996 15.993a3.975 3.975 0 01-.785-1.603c-.638-2.282.748-4.451 4.737-5.565 4.635-1.293 6.756.593 7.276 2.457.17.491.207 1.019.107 1.529l-1.214.02a2.584 2.584 0 00-.082-1.235c-.351-1.254-1.983-2.395-5.571-1.394-3.588 1.001-4.404 2.656-4.001 4.101.116.42.315.811.585 1.152l-1.052.538zm11.374 2.863l.204 2.215-10.894 1.004.128 1.387 10.893-1.005.205 2.215 1.242-.114-.537-5.817-1.241.115zm-10.652 40.141a2.133 2.133 0 01-1.319 1.975 2.14 2.14 0 01-2.915-1.558 2.14 2.14 0 012.915-2.392 2.133 2.133 0 011.319 1.975zm-103.13 0a2.135 2.135 0 01-1.32 1.975 2.134 2.134 0 01-2.914-1.558 2.137 2.137 0 114.234-.417z"/></g><defs><clipPath id="clip0"><path fill="#fff" d="M0 0h150v150H0z"/></clipPath></defs></svg>