<svg width="50" height="50" fill="none" xmlns="http://www.w3.org/2000/svg"><path d="M1 25C1 11.745 11.745 1 25 1s24 10.745 24 24-10.745 24-24 24S1 38.255 1 25z" stroke="#2E3538" stroke-width="2"/><path d="M27.03 14.02c1.319-.02 2.628-.01 3.937-.02.08 1.53.635 3.09 1.763 4.17 1.128 1.11 2.719 1.62 4.27 1.79v4.03c-1.45-.05-2.91-.35-4.23-.97-.574-.26-1.108-.59-1.632-.93-.01 2.92.01 5.84-.02 8.75a7.601 7.601 0 01-1.36 3.94c-1.319 1.92-3.605 3.17-5.952 3.21-1.44.08-2.88-.31-4.109-1.03-2.034-1.19-3.464-3.37-3.676-5.71-.02-.5-.03-1-.01-1.49a7.488 7.488 0 012.598-4.96c1.672-1.44 4.009-2.13 6.194-1.72.02 1.48-.04 2.96-.04 4.44-.997-.32-2.165-.23-3.042.37a3.477 3.477 0 00-1.37 1.75c-.21.51-.15 1.07-.14 1.61.242 1.64 1.833 3.02 3.525 2.87 1.128-.01 2.206-.66 2.79-1.61.191-.33.402-.67.413-1.06.1-1.79.06-3.57.07-5.36.01-4.03-.01-8.05.02-12.07z" fill="#F62B52"/><path d="M25.03 12.02c1.319-.02 2.628-.01 3.937-.02.08 1.53.635 3.09 1.763 4.17 1.128 1.11 2.719 1.62 4.27 1.79v4.03c-1.45-.05-2.91-.35-4.23-.97-.574-.26-1.108-.59-1.632-.93-.01 2.92.01 5.84-.02 8.75a7.601 7.601 0 01-1.36 3.94c-1.319 1.92-3.605 3.17-5.952 3.21-1.44.08-2.88-.31-4.109-1.03-2.034-1.19-3.464-3.37-3.676-5.71-.02-.5-.03-1-.01-1.49a7.488 7.488 0 012.598-4.96c1.672-1.44 4.009-2.13 6.194-1.72.02 1.48-.04 2.96-.04 4.44-.997-.32-2.165-.23-3.042.37a3.477 3.477 0 00-1.37 1.75c-.21.51-.15 1.07-.14 1.61.242 1.64 1.833 3.02 3.525 2.87 1.128-.01 2.206-.66 2.79-1.61.191-.33.402-.67.413-1.06.1-1.79.06-3.57.07-5.36.01-4.03-.01-8.05.02-12.07z" fill="#24ECE7"/><path d="M26.03 13.02c1.319-.02 2.628-.01 3.937-.02.08 1.53.635 3.09 1.763 4.17 1.128 1.11 2.719 1.62 4.27 1.79v4.03c-1.45-.05-2.91-.35-4.23-.97-.574-.26-1.108-.59-1.632-.93-.01 2.92.01 5.84-.02 8.75a7.601 7.601 0 01-1.36 3.94c-1.319 1.92-3.605 3.17-5.952 3.21-1.44.08-2.88-.31-4.109-1.03-2.034-1.19-3.464-3.37-3.676-5.71-.02-.5-.03-1-.01-1.49a7.488 7.488 0 012.598-4.96c1.672-1.44 4.009-2.13 6.194-1.72.02 1.48-.04 2.96-.04 4.44-.997-.32-2.165-.23-3.042.37a3.477 3.477 0 00-1.37 1.75c-.21.51-.15 1.07-.14 1.61.242 1.64 1.833 3.02 3.525 2.87 1.128-.01 2.206-.66 2.79-1.61.191-.33.402-.67.413-1.06.1-1.79.06-3.57.07-5.36.01-4.03-.01-8.05.02-12.07z" fill="#2E3538"/></svg>