<svg width="50" height="50" fill="none" xmlns="http://www.w3.org/2000/svg"><path d="M1 25C1 11.745 11.745 1 25 1s24 10.745 24 24-10.745 24-24 24S1 38.255 1 25z" stroke="#DA2F36" stroke-width="2"/><path d="M37.427 19.202a3.268 3.268 0 00-2.301-2.302c-2.018-.55-10.139-.55-10.139-.55s-8.12.017-10.138.567a3.268 3.268 0 00-2.302 2.301c-.61 3.586-.847 9.049.017 12.49a3.27 3.27 0 002.301 2.301c2.018.55 10.139.55 10.139.55s8.12 0 10.138-.55a3.27 3.27 0 002.302-2.3c.643-3.591.842-9.05-.017-12.507z" fill="#DA2F36"/><path d="M22.403 29.357l6.737-3.902-6.737-3.902v7.804z" fill="#fff"/></svg>