<svg width="192" height="192" fill="none" xmlns="http://www.w3.org/2000/svg"><path d="M97.66 154.855c.08-.529.156-1.058.242-1.586.24-1.465.436-2.942.764-4.387.391-1.728.894-3.43 1.363-5.139a47.447 47.447 0 012.458-6.512.59.59 0 01.456-.284 2.35 2.35 0 002.267-1.716c.13-.505.327-.991.587-1.443a4.396 4.396 0 012.407-2.205c1.664-.921 3.333-1.833 4.991-2.762.489-.275.953-.594 1.415-.912.081-.056.091-.211.134-.319a1.917 1.917 0 00-.336-.056c-.06-.001-.121.052-.18.085-.98.544-1.954 1.103-2.943 1.63-.878.466-1.772.899-2.663 1.34-.33.163-.67.305-1.006.455.278-.666.627-1.239.91-1.842a3.842 3.842 0 012.169-1.935 14.94 14.94 0 003.27-1.866 25.386 25.386 0 002.218-1.886 22.317 22.317 0 001.636-1.774c.237-.277.376-.636.596-.929.445-.591.93-1.15 1.368-1.744.502-.678.967-1.381 1.454-2.068a13.189 13.189 0 012.192-1.88c.935-.853 1.878-1.696 2.807-2.556.081-.076.082-.237.121-.359l-.127-.086c-.497.404-.983.821-1.49 1.21-1.362 1.045-2.69 2.139-4.109 3.097-1.25.845-2.598 1.547-3.918 2.283a1.094 1.094 0 01-1.398-.038 1.255 1.255 0 00-.439-.186c-.294-.101-.327-.235-.091-.449.238-.214.461-.446.685-.674.435-.444.836-.927 1.307-1.329a6.584 6.584 0 012.609-1.073c.995-.186 1.98-.424 2.95-.714a13.235 13.235 0 003.694-2.381c.759-.66 1.438-1.412 2.19-2.081.534-.49 1.111-.929 1.725-1.313a7.279 7.279 0 012.031-1.22c.075-.018.113-.194.167-.297a1.06 1.06 0 00-.342-.004c-.145.048-.267.165-.411.219a4.639 4.639 0 00-.683.208 17.417 17.417 0 00-3.259 2.344c-.638.588-1.266 1.188-1.923 1.753a13.621 13.621 0 01-3.392 2.123c-1.091.486-1.901-.149-2.818-.412.754-.696 1.451-1.354 2.162-1.996a5.888 5.888 0 012.12-1.181c.915-.295 1.799-.68 2.638-1.15 1.292-.751 2.53-1.6 3.765-2.447a20.781 20.781 0 013.683-2.006c.253-.107.458-.202.032-.529.894-.35 1.69-.686 2.505-.968.577-.2 1.181-.322 1.77-.49.087-.025.156-.115.233-.174-.096-.051-.191-.141-.292-.146-.344-.019-.69-.007-1.036-.007.216-.231.47-.424.751-.569a23.395 23.395 0 014.265-1.735c.471-.149.924-.354 1.385-.533l-.035-.138a2.312 2.312 0 00-.676-.044c-1.54.333-3.035.846-4.455 1.529a50.164 50.164 0 00-2.946 1.64 2.053 2.053 0 01-2.365-.059 2.072 2.072 0 01-.556-.623c.027-.029.049-.079.081-.087a7.954 7.954 0 002.724-1.33 3.903 3.903 0 012.731-.764c.366.056.738.05 1.102-.015.946-.226 1.878-.506 2.813-.78a11.95 11.95 0 014.511-.764c.207-.01.412-.05.607-.118l.022-.17a3.144 3.144 0 00-.786-.266 9.29 9.29 0 00-3.01.282c-1.223.33-2.441.678-3.673.968a1.766 1.766 0 01-2.037-.615c.57-.298 1.132-.602 1.703-.889a6.338 6.338 0 011.553-.714 14.878 14.878 0 012.589-.182 9.214 9.214 0 003.057-.778c.926-.337 1.844-.7 2.764-1.053.409-.156.815-.316 1.222-.475-.012-.05-.023-.101-.036-.15a1.221 1.221 0 00-.452-.083c-.654.124-1.3.29-1.933.496a16.633 16.633 0 01-4.52 1.324 1.924 1.924 0 01-1.773-.82 7.478 7.478 0 002.494-1.827c.314-.318.64-.627.982-.913a6.537 6.537 0 012.628-1.238 15.152 15.152 0 014.001-.646c.418-.004.837-.032 1.252-.084.096-.01.182-.11.274-.168l-.027-.124a3.394 3.394 0 00-.985-.258c-1.09.055-2.177.158-3.261.284-1.01.117-2.011.326-3.023.425-.836.084-1.682.057-2.524.096a10.451 10.451 0 00-4.334 1.34 6.506 6.506 0 00-.595.387c-.156-.575-.287-1.105-.446-1.627a.574.574 0 01.132-.661 8.339 8.339 0 011.994-1.27 42.848 42.848 0 016.319-2.854c.125-.045.211-.2.315-.304l-.097-.13c-2.722.49-5.09 1.915-7.609 2.957 1.099-.938 2.484-1.391 3.662-2.218a.427.427 0 00-.329-.087c-.617.24-1.236.481-1.839.756a18.868 18.868 0 00-4.441 2.952 11.096 11.096 0 00-2.7 3.386 7.455 7.455 0 01-2.934 3.197 3.11 3.11 0 01.064-.653c.077-.17.176-.33.296-.474a27.214 27.214 0 013.384-4.113c.856-.85 1.758-1.655 2.634-2.485a.906.906 0 00.136-.254l-.115-.12a4.07 4.07 0 01-.506.358 12.113 12.113 0 00-2.613 2.156 18.037 18.037 0 00-1.729 1.886c-.889 1.093-1.724 2.23-2.598 3.336a15.1 15.1 0 01-1.33 1.541c-.475.416-.97.807-1.485 1.172-.279.218-.549.447-.877.714.009-.167-.013-.26.021-.325.413-.914.892-1.796 1.431-2.64.774-1.067 1.708-2.017 2.566-3.023.081-.119.147-.246.2-.38l-.096-.087a1.107 1.107 0 00-.34.144c-.573.53-1.157 1.051-1.694 1.616a17.06 17.06 0 00-2.682 3.851 8.82 8.82 0 01-1.37 1.879c-.51.476-1.057.912-1.634 1.305-.096.075-.195.145-.293.217a10.281 10.281 0 012.048-4.034c1.134-1.287 2.412-2.447 3.62-3.67a1.68 1.68 0 00.22-.399l-.091-.116a2.345 2.345 0 00-.488.242c-.459.378-.915.761-1.343 1.173-.732.706-1.445 1.43-2.157 2.156-.29.295-.499.719-.842.899a5.844 5.844 0 00-1.784 1.557c-1.125 1.359-2.282 2.692-3.392 4.063a6.645 6.645 0 00-1.353 2.742 4.315 4.315 0 01-1.235 2.391c-.463.439-.902.903-1.316 1.389-.202.222-.371.474-.556.712l-.099-.041c.034-.299.101-.592.199-.876.478-1.027.951-2.06 1.505-3.048a21.034 21.034 0 012.722-3.637 1.737 1.737 0 00.469-1.829 18.337 18.337 0 002.991-3.797.542.542 0 00-.358.15c-.381.397-.743.81-1.129 1.202-.809.822-1.593 1.674-2.455 2.436-.844.745-1.764 1.405-2.668 2.077a8.03 8.03 0 01-.993.543c.013-.117.005-.157.02-.168a5.7 5.7 0 001.569-2.158 2.547 2.547 0 011.379-1.38 12.024 12.024 0 004.017-2.702c.469-.447.964-.868 1.454-1.294.56-.486 1.133-.958 1.687-1.451.1-.122.182-.258.242-.404l-.08-.096c-.14.01-.276.045-.401.105-.857.673-1.7 1.362-2.549 2.043-.954.766-1.89 1.553-2.874 2.278a8.855 8.855 0 01-1.433.698c.021-.104.053-.206.097-.302.447-.51.859-1.049 1.235-1.613a3.237 3.237 0 011.593-1.403c.48-.16.95-.35 1.407-.57a12.54 12.54 0 001.662-1.19 141.433 141.433 0 003.497-3.01c.375-.333.634-.824.976-1.143.985-.922 2.122-1.679 3.173-2.532.445-.362.825-.804 1.235-1.209l-.123-.186a2.76 2.76 0 00-.505.25c-.838.652-1.624 1.38-2.508 1.96a31.251 31.251 0 01-3.048 1.688c-.466.2-.946.364-1.437.494.147-.302.326-.588.533-.852a5.222 5.222 0 012.617-1.998 20.647 20.647 0 004.756-2.562c.176-.12.242-.402.359-.61-.22.029-.434.09-.635.184a19.15 19.15 0 01-4.329 2.17 8.553 8.553 0 01-.976.23c.188-.315.414-.606.674-.864.458-.537.971-1.024 1.53-1.455.748-.44 1.531-.816 2.342-1.125a51.256 51.256 0 006.08-3.088c.292-.208.564-.442.814-.698a20.707 20.707 0 00-.086-.126c-.305.08-.603.18-.894.302-.561.278-1.088.626-1.654.893a236.592 236.592 0 01-4.708 2.152c-.317.141-.681.32-1.061-.01.269-.234.537-.44.774-.678a3.403 3.403 0 011.838-.913 12.02 12.02 0 003.609-1.153 30.361 30.361 0 003.13-1.947 26.685 26.685 0 002.377-2.116c.116-.107.135-.316.199-.478l-.148-.095a20.425 20.425 0 01-3.221 2.466.378.378 0 01.106-.2c.929-.851 1.863-1.697 2.789-2.551.54-.498 1.081-.995 1.592-1.52a7.16 7.16 0 00.617-.845l-.113-.13a2.865 2.865 0 00-.553.309c-1.366 1.213-2.709 2.452-4.086 3.652-.534.447-1.096.86-1.683 1.235a.594.594 0 01-.514.014c-.48-.265-.925-.589-1.396-.868-.196-.116-.175-.207-.038-.336.382-.314.741-.654 1.075-1.017a15.205 15.205 0 001.469-2.055c.399-.786.754-1.594 1.063-2.42.549-1.306 1.594-2.28 2.308-3.473a31.69 31.69 0 001.129-2.11c.051-.103-.043-.278-.069-.42-.107.081-.249.14-.315.245-.274.443-.488.929-.795 1.346-.597.811-1.258 1.574-1.864 2.378a6.89 6.89 0 01-3.301 2.353 5.092 5.092 0 00-2.446 1.496.881.881 0 01-.257.155c-.477-.953-.546-1.366-.053-2.23a12.88 12.88 0 011.467-2.008c.58-.669 1.253-1.257 1.869-1.897a8.59 8.59 0 00.765-.937c.067-.092.035-.256.049-.386a1.09 1.09 0 00-.342.132c-.217.186-.411.4-.613.603-.971.97-1.975 1.908-2.9 2.92a5.641 5.641 0 00-1.484 2.798 3.12 3.12 0 01-.618 1.38c-.734.877-1.56 1.675-2.368 2.525a1.616 1.616 0 01-.416-1.292 4.94 4.94 0 01.501-1.26c.483-.817 1.023-1.6 1.543-2.395.72-1 1.276-2.108 1.645-3.282a1.58 1.58 0 00.052-.516c-.006-.085-.111-.164-.171-.245a1.449 1.449 0 00-.226.188.92.92 0 00-.082.222 12.024 12.024 0 01-.73 1.727c-.718 1.174-1.515 2.3-2.271 3.452a6.872 6.872 0 00-1.17 2.617 4.358 4.358 0 01-1.311 2.51 6.267 6.267 0 00-1.645 2.36 1.265 1.265 0 01-.17.241c-.106-.14-.191-.24-.263-.348-.753-1.133-.777-1.729-.028-2.703.411-.535.901-1.008 1.338-1.524.459-.544.922-1.088 1.342-1.662a71.255 71.255 0 001.9-2.738c.253-.427.483-.867.689-1.318l-.13-.115c-.111.063-.259.099-.329.193-.348.475-.661.973-1.012 1.446-.839 1.13-1.677 2.263-2.55 3.367a3.792 3.792 0 01-.794.608c-.1-.371.635-.835.075-1.456a15.306 15.306 0 01-1.853 3.426c.204-.796.706-1.505.713-2.495-.198.16-.329.219-.387.32-.16.28-.302.57-.425.867a15.33 15.33 0 01-3.157 5.145c-.3.302-.641.561-1.062.926.193-.757.34-1.396.52-2.027a6.27 6.27 0 011.643-2.36 17.586 17.586 0 002.592-3.769 4.69 4.69 0 00.246-.82l-.133-.097c-.112.077-.271.13-.328.237a16.242 16.242 0 01-2.083 3.14c-.465.535-.993 1.016-1.501 1.512-.064.062-.181.069-.273.102a1.193 1.193 0 01.009-.28c.101-.345.236-.68.322-1.028a5.87 5.87 0 011.536-2.859 16.52 16.52 0 001.417-1.706c.563-.734 1.126-1.47 1.634-2.241.565-.86 1.073-1.757 1.59-2.647a2.07 2.07 0 00.141-.518 28.122 28.122 0 00-.2-.129c-.083.128-.163.258-.251.384-.943 1.347-1.862 2.715-2.846 4.034-.563.755-1.225 1.438-1.857 2.14a.478.478 0 01-.651.14c.084-.201.167-.37.227-.548a4.12 4.12 0 011.387-1.97 13.442 13.442 0 002.155-2.076 15.5 15.5 0 002.634-5.065 2.84 2.84 0 00.204-1.811c-.749 1.078-.784 2.49-1.612 3.53.205-.785.443-1.56.657-2.342.357-1.298.706-2.598 1.036-3.902.01-.19-.013-.38-.07-.562l-.124-.028c-.11.14-.202.294-.273.457-.146.484-.238.985-.39 1.465a195.72 195.72 0 01-1.394 4.255 8.71 8.71 0 01-.612 1.3.507.507 0 01-.379.238c-.628-.048-1.253-.14-1.895-.219a.473.473 0 01.019-.158 7.866 7.866 0 00.431-4.94 18.037 18.037 0 01-.217-4.348c.007-.796.018-1.592-.012-2.386a2.073 2.073 0 00-.241-.713.29.29 0 00-.235-.152c-.068.013-.147.144-.159.232a1.58 1.58 0 00.031.4c.069.328.107.662.114.998-.084 1.113-.157 2.233-.34 3.333a5.192 5.192 0 01-1 2.418 8.036 8.036 0 00-1.873 3.052c-.003.015-.043.02-.035.017a1.782 1.782 0 01-1.171-1.644 10.13 10.13 0 01.362-3.08 7.69 7.69 0 00.453-2.81c-.013-.109-.118-.207-.18-.31-.074.097-.188.183-.215.291-.27 1.074-.524 2.152-.786 3.227a7.176 7.176 0 00-.061 4.117c.17.459.228.951.169 1.437-.173 1.02-.473 2.018-.728 3.053-.415-.249-.928-.428-1.04-1.024a4.489 4.489 0 01-.097-.88c.008-.678.061-1.356.072-2.034.013-.86.052-1.725-.014-2.58a9.637 9.637 0 00-.388-1.711c-.023-.084-.163-.137-.25-.205a1.22 1.22 0 00-.158.289.973.973 0 00.015.323c.109.608.179 1.222.211 1.839-.013 1.466-.133 2.932-.132 4.4.052.582.163 1.16.33 1.72a3 3 0 01.165 1.868 9.233 9.233 0 00-.43 1.87c-.082.5-.085 1.011-.127 1.571-.316-.178-.602-.343-.891-.504a1.406 1.406 0 01-.639-.616 1.403 1.403 0 01-.141-.877c.069-.475.199-.94.288-1.413.233-1.235.519-2.464.67-3.708a30.34 30.34 0 00.097-3.015 1.31 1.31 0 00-.084-.429c-.026-.075-.108-.132-.166-.197-.051.07-.14.135-.149.209-.091.76-.225 1.522-.241 2.284a17.542 17.542 0 01-.574 3.853c-.038.153-.09.303-.142.475l-.527-1.361-.182.023a3.37 3.37 0 00-.034.54c.027.293.121.58.129.872.02.724.031 1.45-.005 2.172-.016.324.13.802-.462.841-.035.003-.087.066-.094.106-.04.224-.069.45-.086.677-.034.61-.014 1.224-.092 1.827a106.31 106.31 0 01-.662 4.576 9.55 9.55 0 00.154 3.922c.232.853.273 1.745.122 2.616-.148.763-.179 1.547-.264 2.322a2.21 2.21 0 01-.067.266 6.47 6.47 0 01-.624-.316c-.585-.377-1.204-.733-1.33-1.512-.049-.305-.066-.615-.114-.92a9.111 9.111 0 01.166-3.375c.169-.768.405-1.521.574-2.29.211-.95.413-1.906.564-2.869.074-.55.102-1.106.084-1.661a3.26 3.26 0 00-.178-.741l-.173.004a3.128 3.128 0 00-.126.495 20.346 20.346 0 01-.188 2.177c-.251 1.24-.599 2.459-.907 3.688a12.695 12.695 0 00-.448 1.863 22.269 22.269 0 00-.081 3.023c.045.544.178 1.077.394 1.578.38.97.836 1.91 1.238 2.872a1.51 1.51 0 01-.247 1.939c-.476.485-.92 1-1.329 1.542a3.72 3.72 0 01-.221-.546 28.009 28.009 0 01-.586-4.88c-.01-.5.017-1.002.08-1.5.122-1.148.265-2.294.403-3.44.067-.551.139-1.102.209-1.652a6.561 6.561 0 00-.117-.037c-.055.048-.141.084-.161.143-.175.515-.334 1.034-.505 1.549-.057.173-.09.44-.208.49a1.43 1.43 0 00-.743.928 13.375 13.375 0 01-2.825 4.315 2.638 2.638 0 01-.396.273 2.828 2.828 0 01.018-.368c.1-.456.194-.913.314-1.364.079-.496.228-.978.444-1.432.849-1.36 1.821-2.645 2.653-4.016.764-1.254 1.413-2.58 2.093-3.882a4.37 4.37 0 00.239-.792c-.496-.08-.542.298-.671.526-.62 1.094-1.173 2.23-1.83 3.3-.636 1.036-1.367 2.014-2.066 3.01a.574.574 0 01-.736.22c.305-.754.384-1.582.986-2.184.4-.4.822-.78 1.2-1.2a12.873 12.873 0 001.957-2.838A17.358 17.358 0 00107.485 75a1.411 1.411 0 00-.097-1.233c-.114.12-.208.258-.279.408-.161.606-.278 1.223-.441 1.828-.133.492-.31.972-.467 1.458l-.111-.033c.049-.26.095-.521.148-.78.198-.968.412-1.932.595-2.902.131-.697.247-1.398.316-2.102a1.207 1.207 0 00-.166-1.031 2.08 2.08 0 00-.299.518c-.316 1.516-.586 3.043-.923 4.555a21.437 21.437 0 01-.723 2.405.701.701 0 01-.497.37c-.587.046-1.18.018-1.791.018a.626.626 0 01-.01-.115.833.833 0 01.03-.198 7.166 7.166 0 00-.007-4.497c-.62-1.785-.574-3.627-.753-5.452a5.663 5.663 0 00-.429-1.988c-.047-.098-.212-.138-.323-.206-.045.124-.142.253-.13.37.087.8.246 1.594.284 2.395a23.02 23.02 0 01-.071 2.319 4.522 4.522 0 01-.673 2.199c-.497.802-.956 1.63-1.4 2.462a3.43 3.43 0 00-.204.803 1.912 1.912 0 01-1.338-1.39 8.769 8.769 0 01.074-3.365 8.104 8.104 0 00.097-2.81.951.951 0 00-.173-.272 1.03 1.03 0 00-.146.297c-.093.732-.117 1.478-.266 2.199a12.719 12.719 0 00-.308 3.669c.033.317.097.63.192.935.316.68.498 1.415.536 2.164-.024.278-.114.548-.157.825-.107.697-.203 1.395-.302 2.084a1.49 1.49 0 01-1.26-1.487c-.076-.995-.146-1.991-.248-2.983-.088-.854-.175-1.711-.344-2.55a2.164 2.164 0 00-.876-1.383c.108.708.337 1.384.45 2.08.11.747.175 1.501.194 2.257.03.743.006 1.488.006 2.232a3.602 3.602 0 01-.643-1.102 4.373 4.373 0 01-.096-.918 1.213 1.213 0 00-.427-.98l-.138.813a1.277 1.277 0 01-.152-.253 18.814 18.814 0 01-.682-4.569 3.793 3.793 0 00-.133-.733l-.196.004a2.947 2.947 0 00-.147.662c-.02.637.009 1.275.085 1.909.188 1.199.454 2.386.679 3.58.186.984.425 1.965.516 2.96.013.7-.036 1.402-.149 2.095-.007.073-.089.14-.159.245-.15-.37-.264-.694-.411-1.003-.04-.084-.175-.123-.267-.18-.036.1-.118.21-.1.301.107.399.192.803.255 1.21a1.82 1.82 0 01-.148 1.107 4.458 4.458 0 01-1.175.793c-.018-.226-.022-.341-.038-.456-.07-.531-.147-1.061-.216-1.593a7.713 7.713 0 01-.172-1.558c.084-.77.217-1.535.4-2.288a13.205 13.205 0 00-.064-4.514c-.08-.624-.187-1.245-.274-1.869-.085-.625-.19-1.249-.23-1.877a9.302 9.302 0 01.027-1.632c.05-.45-.059-.612-.513-.541a9.643 9.643 0 01-.094-1.292c.045-.819.165-1.633.221-2.452.017-.239.148-.54-.232-.786l-.512 1.48-.121-.002c-.144-.839-.336-1.674-.42-2.519-.105-1.063-.12-2.136-.18-3.204a3.172 3.172 0 00-.088-.637c-.025-.098-.137-.173-.21-.26-.042.014-.083.028-.124.04-.05.465-.131.928-.14 1.392-.004.528.022 1.057.078 1.582.093.977.184 1.954.326 2.924.126.859.36 1.702.469 2.562a1.358 1.358 0 01-.357 1.272c-.442.303-.908.57-1.392.8a.78.78 0 01-.031-.198 5.332 5.332 0 00-.27-2.815 3.463 3.463 0 01.101-2.337c.273-.6.415-1.252.42-1.911-.033-.589-.007-1.18-.008-1.77a5.187 5.187 0 00-.006-.697 9.52 9.52 0 01.243-3.688 5.76 5.76 0 00.096-.708l-.16-.057c-.2.24-.362.51-.483.798a10.21 10.21 0 00-.331 1.972c-.053 1.145.001 2.295-.022 3.442a9.326 9.326 0 01-.163 1.438 1.173 1.173 0 01-1.096.97 18.768 18.768 0 00-.48-2.27 3.336 3.336 0 01.142-2.322 5.7 5.7 0 00.167-3.065c-.201-1.196-.516-2.373-.784-3.557-.069-.306-.149-.61-.223-.913l-.222.01a3.205 3.205 0 00-.107.87c.222 1.44.5 2.872.725 4.313a2.37 2.37 0 01-1.207 2.784 1.673 1.673 0 01-.108-.245 5.529 5.529 0 00-1.096-2.073 9.734 9.734 0 01-1.184-1.849c-.552-1.155-.46-2.443-.567-3.679a16.43 16.43 0 01.133-2.138 1.708 1.708 0 00-.134-.508c-.142.138-.37.256-.41.418-.11.43-.168.87-.174 1.313-.002 1.006.083 2.012.06 3.017a10.75 10.75 0 01-.251 2.116 9.18 9.18 0 00-.309 3.425c.084.555.177 1.108.281 1.658.043.227.125.448.195.692-.074.026-.15.045-.227.057-.315.004-.632-.014-.947.006-.881.055-1.162-.073-1.409-.685a7.12 7.12 0 01-.253-.674c-.565-1.974-1.123-3.95-1.692-5.923a2.263 2.263 0 00-.223-.419l-.162.055c.02 2.327 1.011 4.459 1.411 6.72a16.281 16.281 0 01-.737-1.682 5.718 5.718 0 00-.698-1.743.602.602 0 00-.125.37c.042.371.109.74.2 1.103a16.28 16.28 0 001.768 4.196 11.697 11.697 0 003.016 3.393 3.951 3.951 0 011.361 2.51.956.956 0 01-.513-.208c-.457-.48-.914-.962-1.32-1.484a52.424 52.424 0 01-1.776-2.434c-.431-.627-.806-1.292-1.224-1.93-.058-.089-.218-.113-.33-.167a1.39 1.39 0 00-.053.346c.013.12.052.235.116.337.762 1.211 1.5 2.438 2.307 3.619.551.808 1.21 1.541 1.804 2.321.392.44.728.927 1 1.45.357.856.575 1.77.848 2.66.013.04-.019.094-.042.2a3.57 3.57 0 01-.441-.334c-.388-.4-.752-.821-1.145-1.215a1.413 1.413 0 01-.516-1.055.772.772 0 00-.264-.45c-.387.138-.46-.173-.595-.38-.154-.235-.287-.484-.44-.719-.204-.313-.42-.618-.63-.927l-.135.07c.104.434.243.86.414 1.272.31.62.696 1.202 1.051 1.8.378.637.14 1.367.341 2.042a1.316 1.316 0 01-.373-.471c-.374-.814-.729-1.637-1.112-2.446-.053-.11-.225-.164-.34-.245-.055.141-.08.292-.077.443.075.256.174.504.294.742.516 1.13 1.037 2.257 1.554 3.387.111.181.191.38.236.589a4.365 4.365 0 01-.317 2.174 1.993 1.993 0 01-1.095.798c-.22-.593-.385-1.17-.644-1.7a15.917 15.917 0 00-.98-1.655 6.283 6.283 0 01-.79-3.124c-.112-1.42-.02-2.848.276-4.241.025-.112-.07-.252-.11-.379-.114.078-.291.132-.332.238a11.562 11.562 0 00-.495 3.206c-.071.851-.021 1.72-.167 2.557-.217 1.245-.606 2.46-.825 3.706a9.013 9.013 0 00-.01 1.976c.023.463.117.922.174 1.345-.631 0-1.223-.015-1.813.006a.464.464 0 01-.527-.34c-.16-.521-.328-1.042-.444-1.575-.153-.704-.265-1.418-.386-2.13-.151-.897-.282-1.798-.446-2.693-.081-.444-.216-.877-.326-1.316l-.175.004c-.077.215-.124.44-.138.669.052.642.138 1.281.238 1.917.15.951.33 1.897.48 2.848.076.485.11.975.163 1.463l-.15.028c-.22-1.011-.461-2.02-.646-3.036-.05-.279-.103-.482-.378-.608a2.242 2.242 0 00-.016 1.642c.264 1.22.665 2.413.995 3.62.06.276.103.556.13.838l-.111.04a4.77 4.77 0 01-.301-.577c-.087-.236-.14-.476-.58-.315.193.637.427 1.26.7 1.868a3.79 3.79 0 01.176 3.173.268.268 0 01-.123-.161c-.256-.603-.54-1.195-.76-1.81a6.036 6.036 0 01-.463-1.686c-.072-1.551-.19-3.092-.415-4.631a26.553 26.553 0 00-1.085-4.634 4.756 4.756 0 00-.352-.674l-.14.037a1.028 1.028 0 00-.064.36c.27 1.265.58 2.522.821 3.792.153.802.214 1.622.311 2.435.058.48.09.965.163 1.442a1.087 1.087 0 01-.406 1.171c-.169-.455-.366-.893-.49-1.35a4.095 4.095 0 01-.16-1.154c.016-.7.132-1.399.15-2.1a10.825 10.825 0 00-.523-3.49 22.928 22.928 0 00-1.189-3.014c-.4-.77-.848-1.516-1.339-2.231-.075-.119-.257-.167-.39-.248l-.134.113a20.3 20.3 0 011.749 3.718c-.361-.517-.672-1.062-1.008-1.59a216.088 216.088 0 00-2.375-3.67 5.098 5.098 0 00-.689-.703c-.289.296-.106.485.03.687.552.82 1.133 1.624 1.642 2.472a50.512 50.512 0 011.725 3.129c.218.397.334.843.337 1.296-.012.248-.412.48-.639.717a6.439 6.439 0 01-.202.203l-.624.602c-.069-.12-.112-.185-.146-.257a8.66 8.66 0 00-3.03-3.533 16.234 16.234 0 01-3.233-2.39 10.618 10.618 0 00-1.544-1.376 19.095 19.095 0 00-1.84-1.119c-.085-.049-.23.009-.346.017l-.017.128c.155.125.309.252.465.376.674.534 1.38 1.033 2.014 1.611.498.487.967 1.005 1.401 1.55a4.5 4.5 0 011.054 1.958c.107.497.13 1.013.264 1.5a5.49 5.49 0 00.794 2.125.93.93 0 01.101.295c-.177.046-.328.096-.484.125-.4.108-.827.053-1.187-.153a7.586 7.586 0 01-1.953-1.92c-.66-.865-1.318-1.73-2-2.576a1.812 1.812 0 00-.544-.318l-.078.106c.066.156.142.308.23.454.633.91 1.275 1.817 1.916 2.725a7.069 7.069 0 002.73 2.507c.624.25 1.153.693 1.51 1.264.44.777.912 1.535 1.397 2.345a1.89 1.89 0 01-1.327.071 7.512 7.512 0 01-2.149-1.905 10.626 10.626 0 00-3.15-2.62 3.432 3.432 0 00-.785-.171l-.064.143c.141.129.293.246.453.35a10.06 10.06 0 012.416 1.946c.57.591 1.078 1.243 1.627 1.858a9.325 9.325 0 002.322 1.65c.367.19.683.464.922.8a11.07 11.07 0 002.162 3.111c-.342.092-.618.177-.898.24a1.544 1.544 0 01-1.921-.76 12.29 12.29 0 01-.668-1.142 18.568 18.568 0 00-3.73-4.797 5.33 5.33 0 00-.693-.466l-.115.132c1.326 1.737 2.957 3.26 3.913 5.37l-1.427-.76-.133.187c.554.508 1.127.997 1.658 1.529a7.613 7.613 0 011.377 1.794l-.313.09a.826.826 0 00.084.235c.367.48.786.924 1.105 1.433.65 1.044 1.222 2.138 1.876 3.18.903 1.437 1.862 2.839 2.778 4.268a13.98 13.98 0 011.65 4.064c.07.269-.112.437-.344.313a3.028 3.028 0 01-1.087-.781 8.673 8.673 0 01-.849-1.803c-.468-1.22-.85-2.473-1.357-3.674a13.537 13.537 0 00-2.086-3.323.473.473 0 00-.441-.058c-.192.095-.274.082-.393-.095a2.18 2.18 0 00-.396-.362l-.119.095c.035.147.086.29.15.426.369.541.71 1.1 1.022 1.676.532 1.135.996 2.304 1.483 3.46.1.24.178.49.266.736a6.852 6.852 0 01-.11.048c-.129-.147-.253-.3-.386-.442A7.818 7.818 0 0163.3 94.65a34.864 34.864 0 00-3.132-6.135c-.625-.95-1.326-1.852-2.018-2.755a5.437 5.437 0 00-.744-.679 5.965 5.965 0 01-.1.095c.092.242.202.477.332.7.467.686.985 1.337 1.436 2.033a30.8 30.8 0 012.861 5.33c.168.423.553.854.247 1.406-.08-.033-.173-.043-.217-.094a8.639 8.639 0 01-1.876-3.19 15.37 15.37 0 00-1.014-2.69 15.863 15.863 0 00-3.09-4.155 43.673 43.673 0 00-3.44-2.872.903.903 0 00-.957-.263 31.43 31.43 0 013.87 3.556.255.255 0 01-.146-.062c-1.121-.875-2.223-1.778-3.371-2.617-.827-.606-1.709-1.137-2.58-1.681a4.933 4.933 0 00-.77-.32l-.062.098c.058.117.134.225.225.32 1.298.969 2.631 1.895 3.9 2.9a37.908 37.908 0 012.974 2.632c.41.402.477.59.111 1.119a3.51 3.51 0 00-.306.65c-.103.252-.191.508-.287.764-.504-.423-.954-.832-1.436-1.198a11.23 11.23 0 00-4.496-2.022 22.407 22.407 0 01-2.58-.72c-1.348-.465-2.667-1.012-4.016-1.479a6.238 6.238 0 00-1.42-.237c-.109-.01-.236.147-.355.226.096.085.18.214.29.245.358.102.73.158 1.09.249 1.42.393 2.787.953 4.075 1.668a6.972 6.972 0 012.68 2.384c.517.796 1.107 1.548 1.702 2.29.257.258.539.488.843.687-.498.266-.942.637-1.508.505a6.699 6.699 0 01-1.734-.588c-1.084-.605-2.102-1.331-3.173-1.962a18.686 18.686 0 00-1.867-.896c-.085-.037-.226.05-.341.08.06.089.1.21.184.264 1.45.935 2.903 1.864 4.36 2.788.901.58 1.907.977 2.962 1.17.657.1 1.288.329 1.858.673.897.64 1.76 1.326 2.585 2.055a.39.39 0 01.036.262c-.393.115-.684.552-1.18.356-.419-.165-.875-.251-1.275-.45-1.223-.612-2.408-1.301-3.645-1.883a5.556 5.556 0 00-2.816-.701 1.157 1.157 0 00-.367.177c.11.075.21.197.328.219a13.853 13.853 0 014.768 2.02c1.152.76 2.43 1.31 3.773 1.626a3.855 3.855 0 011.687.772c1.056.899 1.896 2.051 3.308 2.671-.49.24-.884.428-1.274.624a1.23 1.23 0 01-1.332-.193c-.597-.436-1.14-.947-1.698-1.435-.55-.481-1.065-1.006-1.64-1.454a23.06 23.06 0 00-4.41-2.61c-.13-.06-.321.01-.484.02a3.807 3.807 0 01-.029.154c2.136 1.288 4.368 2.443 6.047 4.37-.268-.05-.506-.175-.759-.23a5.206 5.206 0 00-.79-.056l-.043.155c.267.135.529.28.801.4a16.011 16.011 0 013.117 1.973c.246.186.274.348-.132.461.233.196.415.352.6.504.644.532 1.315 1.033 1.924 1.6.631.588 1.2 1.243 1.8 1.864.855.886 1.679 1.807 2.581 2.642a18.51 18.51 0 002.172 1.66 7.424 7.424 0 011.876 1.62c.47.631.88 1.309 1.323 1.96.162.24.348.464.555.74a3.091 3.091 0 01-.433.116c-.36.049-.724.077-1.088.082a1.999 1.999 0 01-.906-.137 11.112 11.112 0 01-3.264-3.115c-.9-1.162-1.684-2.415-2.562-3.596a12.235 12.235 0 00-2.682-2.561 2.163 2.163 0 00-.557-.203.63.63 0 00.16.422c.599.583 1.228 1.136 1.803 1.741a16.3 16.3 0 011.43 1.701c.874 1.216 1.647 2.508 2.57 3.684a17.82 17.82 0 002.176 2.165c.921.828 2.186 1.051 3.203 1.714a8.372 8.372 0 011.853 1.428c.533.719 1.007 1.48 1.416 2.277l.4.667c-.266.05-.527.125-.779.223a.992.992 0 01-1.238-.219 952.442 952.442 0 01-3.726-3.567 9.445 9.445 0 01-.876-.961c-.9-1.153-1.776-2.322-2.672-3.476a8.958 8.958 0 00-.656-.685l-.111.082a.952.952 0 00.063.301c.247.409.49.823.768 1.21a66.559 66.559 0 001.8 2.415c.6.699 1.08 1.493 1.42 2.349a18.346 18.346 0 001.85 4.081c.193.319.36.653.498.999.071.239.159.473.263.699a14.555 14.555 0 002.705 3.144 19.966 19.966 0 003.964 2.735 4.928 4.928 0 012.041 1.776c.37.611.752 1.215 1.13 1.821-.82-.366-1.619-.78-2.391-1.239-1.413-.817-2.819-1.646-4.233-2.461a8.742 8.742 0 00-.802-.366l-.104.147c.127.16.267.308.42.443.297.225.61.431.93.626 1.666 1.016 3.348 2.007 5 3.046.922.579 1.984.98 2.654 1.905a8.649 8.649 0 011.16 1.773 3.161 3.161 0 001.82 1.965.569.569 0 01.281.375c.207 1.021.396 2.047.576 3.073.148.844.292 1.69.408 2.539.107.785.167 1.578.262 2.366.126 1.053.281 2.102.394 3.156.082.779.116 1.562.17 2.343l.02.304a58.941 58.941 0 01-27.87-103.502 58.943 58.943 0 1139.331 104.29zm-9.301-.469c-.014-.195-.03-.39-.046-.585-.082-.966-.152-1.934-.254-2.897-.087-.812-.21-1.62-.32-2.429-.108-.783-.218-1.566-.335-2.348-.047-.324-.113-.646-.17-.969l.167-.037c.166.538.364 1.069.493 1.616.345 1.465.707 2.93.975 4.411.183 1.047.293 2.105.33 3.167.002.06 0 .119.002.179-.281-.033-.562-.071-.842-.108zm-4.733-17.313a.925.925 0 01.752.4c.292.334.556.695.866 1.012.186.19.321.557.722.339.29.733.565 1.469.883 2.186.065.147.295.222.449.329.063-.142.21-.312.174-.423-.134-.426.115-.704.331-1.112.16.571.586.999.195 1.564a.34.34 0 00.059.33.263.263 0 01.104.396.59.59 0 00.038.351c.297 1.094.619 2.181.893 3.281.232.931.431 1.873.607 2.817.142.764.25 1.535.331 2.307.13 1.256.272 2.514.342 3.773-.17-.017-.339-.027-.508-.045-.002-.172-.002-.343-.007-.514a17.47 17.47 0 00-.249-2.613 70.15 70.15 0 00-.939-4.343 16.936 16.936 0 00-.773-2.228c-.418-1.038-.873-2.062-1.327-3.085-.222-.498-.535-.963-.704-1.477-.196-.593-.213-.654-.812-.766a2.109 2.109 0 01-1.628-1.246c-.218-.491-.375-1.009-.586-1.588.296.142.542.356.787.355zm-2.479-4.395c.046.025.093.067.14.068 1.137.043 1.56.968 2.038 1.746.16.43.242.884.242 1.342-2.33-.891-3.706-2.246-4.026-4.013l1.606.857zm-4.125-5.159c.467.186.825.351 1.197.469.226.071.492.023.708.11.286.129.558.288.811.474a2.47 2.47 0 011.033 2.076c.028.197.077.39.145.576-.02.014-.052.047-.063.041-.836-.428-1.814-.586-2.498-1.301a2.283 2.283 0 01-.363-.526c-.313-.597-.61-1.203-.97-1.919zm-1.931-.098c.716.323 1.302.88 1.66 1.58.145.237.274.485.413.733-.846.188-4.445-2.199-5.34-3.559 1.134.432 2.203.832 3.267 1.246zm-1.075-3.165c.425.55.812 1.129 1.214 1.696.018.04.03.081.036.124a5.274 5.274 0 01-2.679-.39 5.885 5.885 0 01-2.944-2.9c-.573-1.008-1.052-2.071-1.563-3.114a2.134 2.134 0 01-.111-.475l.077-.042c.487.492.959 1.003 1.467 1.473.534.513 1.1.993 1.695 1.435.41.248.847.451 1.3.607.731.314 1.061 1.008 1.508 1.586zm-3.272-8.3c.388.147.788.267 1.16.445.405.192.702.639 1.256.468.075-.023.22.135.316.227.545.473 1.053.987 1.517 1.54.23.415.378.871.433 1.343.114.493.176.999.253 1.501a1.07 1.07 0 01-.02.265 11.257 11.257 0 01-1.183-.424 2.601 2.601 0 01-1.083-1.404 8.981 8.981 0 00-1.83-3.046c-.285-.259-.596-.489-.895-.732l.076-.183zm-2.26-4.903c.437.084.86.135 1.264.253.264.106.546.161.83.164.19-.011.419.281.595.468.719.769.837 1.796 1.149 2.739.082.246.17.49.254.734l-.096.073a16.63 16.63 0 01-1.925-1.113 4.658 4.658 0 01-.961-1.208c-.395-.603-.743-1.237-1.106-1.861-.023-.039-.003-.104-.003-.249zm2.046-9.915l-.123.087c-.094-.111-.25-.21-.274-.336a11.302 11.302 0 00-.996-2.862.869.869 0 01-.04-.263 8.194 8.194 0 011.433 3.374zm-1.743-8.106a4.134 4.134 0 01-.106-.43c.34.156.568.267.802.363.12.05.28.135.377.096.387-.159.6.084.83.306.195.19.397.375.576.58a1.648 1.648 0 01.493 1.192c-.013.486.015.972.086 1.453.036.274-.052.248-.255.22a2.412 2.412 0 01-1.97-1.618c-.295-.713-.56-1.44-.833-2.162zm-1.605-.342c.32.301.576.662.758 1.06.409.78.769 1.586 1.146 2.376-.294.077-.61-.079-1.087-.53a11.455 11.455 0 01-1.99-2.623c-.348-.594-.68-1.197-1.067-1.883.817.575 1.565 1.044 2.24 1.6zm.07-1.477a.95.95 0 01-1.063-.138c-.666-.659-1.343-1.31-1.97-2.005-.425-.471-.773-1.012-1.224-1.613 2.106.582 3.112 2.22 4.257 3.756zm2.353-2.079a2.689 2.689 0 01.677 2.165 4.52 4.52 0 00.059.846 19.224 19.224 0 01-1.808-.82 2.745 2.745 0 01-.853-.834 14.954 14.954 0 00-2.275-3.057 2.928 2.928 0 011.922.28c.357.223.748.387 1.158.483a2.9 2.9 0 011.12.937zm1.29-1.114c-.116.401-.27.79-.459 1.161a9.11 9.11 0 01-1.279-1.491 7.856 7.856 0 01-.519-1.82c-.014-.055.029-.126.053-.186.117-.291.236-.581.356-.87.096-.228.197-.454.342-.787.549 1.03 1.069 1.906 1.48 2.83.122.377.13.781.026 1.163zm1.814 3.964c-.385-.76-.332-1.64-.912-2.248l-.133.024c.093.58.173 1.162.285 1.738.11.313.196.634.255.96a9 9 0 01-.179 1.358 2.558 2.558 0 01-1.013-1.703 2.137 2.137 0 01-.077-.474c.01-.275-.095-.555.242-.79.177-.122.167-.51.244-.777.12-.418.243-.835.373-1.279.972.791 1.456 2.431.915 3.19zm.24-9.168l-.674-1.297.188-.1.675 1.298a8.621 8.621 0 00-.189.1zm.922 3.854c-.502-.938-1.319-1.739-1.266-2.915.69.854 1.504 1.65 1.266 2.915zm-.051 3.597a6.217 6.217 0 01-1.132-4.259c.25.418.502.835.748 1.256.141.227.27.462.383.704.12.216.192.457.21.704-.022.5-.125.997-.21 1.595zm.719 5.686l-.088.067c-.19-.301-.395-.596-.568-.906-.19-.34-.344-.698-.525-1.042a.715.715 0 01.147-.948l1.034 2.829zm6.051-10.565c.149.825.267 1.589.427 2.344a3.02 3.02 0 01-.963 2.918c-.262.32-.49.667-.684 1.033a2.086 2.086 0 01-.19.208 4.145 4.145 0 00-1.337-2.107 2.457 2.457 0 00-.585-.42 1.24 1.24 0 01-.898-1.151 12.374 12.374 0 00-.174-1.235c.238.174.423.327.625.453.247.114.483.25.705.407.174.184.3.407.369.65.044.2.043.409-.003.61a.408.408 0 00.351.522c.304.064.408-.185.467-.401.04-.188.044-.381.014-.57a4.65 4.65 0 01.338-1.89c.026-.085.078-.215.14-.23.552-.13.79-.603 1.114-.983.087-.065.183-.118.284-.158zm.503-7.183c.245.563.45 1.031.652 1.5.137.32.27.64.405.959a1.131 1.131 0 01-.045 1.038l-.523-.443-.125.056c.112.339.199.687.34 1.013a.734.734 0 01-.424 1.094c-.241.102-.474.225-.725.345-.046-.67-.08-1.276-.13-1.88-.044-.535-.153-1.07-.15-1.604a4.973 4.973 0 01.725-2.078zm1.461-.972a9.856 9.856 0 00-.124.05c-.385-.463-.795-.91-1.144-1.4a1.713 1.713 0 01-.155-.693 12.31 12.31 0 01-.191-1.828c.318.323.658.628.948.975.247.296.415.657.656.959.527.66.147 1.294.01 1.937zm6.61.918c.143.624.274 1.252.369 1.886a2.236 2.236 0 01-.798 1.81.285.285 0 01-.264-.047 13.132 13.132 0 01-.99-1.601 2.017 2.017 0 01-.062-.998 7.89 7.89 0 01.24-1.052c.005-.026.016-.065.033-.07.527-.171.622-.703.909-1.075.059-.053.124-.098.192-.136.134.455.276.864.372 1.283zm.864-6.074a24.06 24.06 0 01-.081 1.495 1.343 1.343 0 01-.881 1.289c-.175-2.627.201-4.875.966-5.549 0 .95.009 1.858-.004 2.765zm.687 7.565c-.066.106-.147.203-.282.39l-.152-1.008c-.085-.554-.15-1.113-.259-1.664a3.435 3.435 0 01.156-1.977c.23-.587.379-1.207.562-1.813l.09-.006c.06.356.152.71.178 1.068.07 1.025.173 2.053.15 3.077a3.745 3.745 0 01-.443 1.933zm2.433 20.812c-.047.507-.082 1.016-.127 1.57-.326-.165-.654-.308-.957-.491-.442-.268-.152-.665-.101-.985a1.121 1.121 0 01.61-.912c.268-.136.426-.49.635-.746l.106.03c-.055.511-.117 1.022-.166 1.534zm.683 3.845c.262.413.382.907.846 1.196.138.086.163.377.209.581a18.2 18.2 0 01.36 1.834c.023.2-.185.427-.293.639-.266.521-.533 1.04-.8 1.558-.868-.71-1.137-1.1-.95-2.25.143-.916.228-1.84.252-2.767a4.896 4.896 0 00-.27-1.201c-.02-.089-.03-.18-.045-.27l.094-.065c.214.237.413.486.597.745zm.338-13.608a15.127 15.127 0 01-.35-4.341c1.094 1.39 1.258 3.207.35 4.341zm1.323 3.007c.24.329.414.572.593.81.07.096.144.252.23.261.365.041.437.323.508.586.114.397.195.803.244 1.212.006.225-.045.448-.148.648-.237.506-.505.996-.765 1.49-.042.068-.09.132-.142.192a2.637 2.637 0 01-.986-2.862c.172-.732.296-1.476.466-2.337zm.367-9.437l-.391-3.656a3.601 3.601 0 01.391 3.656zm1.057 4.33c.169.285.273.608.428.903.09.149.195.289.311.418.12.153.309.284.357.456.278.707.319 1.486.115 2.218a11.31 11.31 0 01-.928 1.62c-.004.006-.026.002-.026.002-.353-.468-.68-.954-.98-1.457a4.168 4.168 0 01-.319-2.283c.038-.59.01-1.185-.005-1.778-.006-.277-.05-.553-.084-.896.454.134.851.414 1.13.796zm4.182 5.948a6.334 6.334 0 011.4-4.01 17.186 17.186 0 001.702-2.523c.369-.608.65-1.27 1.004-1.97.1 1.425-1.747 6.768-4.106 8.503zm2.74-2.018c-.087-.6.335-1.045.624-1.53-.156.526-.311 1.053-.468 1.579l-.156-.049zm1.679 3.726c-.478.707-1.003 1.384-1.512 2.07-.021.029-.068.036-.193.095a22.78 22.78 0 011.078-6.864l.156-.001c.05.382.084.767.155 1.145.172.93.386 1.854.529 2.789.018.272-.057.542-.213.766zm.867 1.997c-.219.89-.431 1.784-.655 2.715a1.058 1.058 0 01-.244-.105 5.124 5.124 0 01-.778-.631.732.732 0 01-.186-.589c.467-1.033.981-2.045 1.486-3.06.031-.063.114-.101.178-.155a2.01 2.01 0 01.199 1.825zm.173 5.542c.429-.708.789-1.456 1.183-2.184.074-.138.164-.268.247-.402l.121-.004c.095.387.186.774.288 1.159.057.214.13.424.201.634.065.193.224.399.192.572-.015.394-.116.78-.295 1.131-.18.35-.434.657-.745.9a5.877 5.877 0 00-.922.963c-.072.075-.151.144-.264.25-.359-1.039-.619-2.012-.006-3.019zm.323-3.976l.134.05a1.446 1.446 0 01-.492 1.492l.358-1.542zm.664-4.459a.335.335 0 01-.174.237.345.345 0 01-.294.014c-.178-.05-.268-.189-.14-.358.27-.357.557-.701.837-1.05l.1.068-.329 1.09zm1.266 3.472a.97.97 0 01.136.498c0 .12-.109.24-.17.358a1.505 1.505 0 01-.914-2.157c.189.31.347.597.535.862.115.162.308.272.413.44zm1.626-5.767c.184.13.236.533.242.814.01.649-.018 1.298-.086 1.944-.06.232-.168.449-.318.636-.267.43-.549.85-.816 1.264-1.087-.961-.731-2.092-.469-3.226.141-.609.196-1.238.313-1.853.07-.282.155-.56.256-.834.098.07.168.096.198.145.221.369.267.82.68 1.11zm.593-12.397c.052.192.064.393.035.59-.14.841-.301 1.679-.457 2.517-.037.192-.087.382-.132.572l-.12.043c-.155-.24-.279-.5-.369-.771a9.146 9.146 0 01-.125-3.177c.104-.676.169-1.357.258-2.035.021-.165.073-.326.13-.574.282 1.018.541 1.924.78 2.835zm.889-1.352a1.118 1.118 0 01-.804-1.081 42.127 42.127 0 01-.168-3.078c.017-.447.065-.893.142-1.335l.18-.03c.28.632.489 1.293.622 1.972.103 1.164.028 2.343.028 3.552zm.917 3.062c.688.2.514.82.631 1.284.044.27.046.545.005.815a.95.95 0 01-.132.411c-.278.456-.577.899-.858 1.352-.141.229-.201.255-.419.02a2.135 2.135 0 01-.704-1.848c.123-.721.333-1.428.516-2.138.078-.305.185-.602.316-1.019l.463.82c.06.105.099.279.182.303zm1.504-5.296c.126.205.27.4.429.581.053.07.154.135.161.209.087.603.121 1.213.101 1.823-.065.766-.599 1.23-.937 1.821-.072.128-.162.245-.291.437-.104-.218-.188-.41-.284-.594a5.104 5.104 0 01-.667-1.308 8.892 8.892 0 01-.022-2.004c.048-.873.15-1.746.231-2.649a1.42 1.42 0 01.906.803c.14.286.225.6.373.88zm2.449 2.056c-.342.18-.68.366-1.073.578a1.084 1.084 0 01-.088-.283 7.29 7.29 0 01-.001-1.192c.076-.484.188-.961.334-1.428.077-.186.179-.36.302-.52.05-.077.111-.21.169-.212.547-.014.897-.448 1.37-.612.094-.013.189-.015.283-.003-.205.955-.401 1.85-.587 2.75a1.296 1.296 0 01-.709.922zm-.586 8.521c.049-.919 2.153-4.154 2.746-4.702-.164 1.37-2.017 4.572-2.746 4.702zm3.132 1.483c-.108.41-.241.815-.396 1.21a1.326 1.326 0 01-.619.741 18.51 18.51 0 00-1.559 1.037 2.556 2.556 0 01.334-2.76c.565-.719 1.166-1.407 1.753-2.108.041-.05.096-.09.23-.211.023.354.019.626.064.89.037.22.152.428.193.648a1.26 1.26 0 010 .553zm-6.412 10.61c-.122.045-.237.106-.378.169a4.722 4.722 0 011.98-3.578c.033-.023.072-.062.102-.057.672.116 1.179-.41 1.806-.461.375-.031.751-.05 1.151-.076-.451.793-.81 1.511-1.249 2.178a2.293 2.293 0 01-1.803 1.258 6.157 6.157 0 00-1.609.567zm-1.32-3.865c.04-.214.134-.415.274-.583.088.255.154.517.199.783.034.38-.007.765.016 1.146.038.162.087.32.147.476.03.132.032.27.005.404-.173.71-.34 1.423-.559 2.12a1.386 1.386 0 01-.447.534c-.471.411-.959.804-1.442 1.2a2.363 2.363 0 01-.266.166 7.203 7.203 0 00-.224-.972 1.074 1.074 0 01.099-.997c.417-.685.848-1.36 1.282-2.034a5.19 5.19 0 00.916-2.243zm1.59-5.834a2.6 2.6 0 011.373-.681c-.214.866-.176 1.703-.778 2.41a18.275 18.275 0 00-1.345 2.094 13.904 13.904 0 01-.902-1.631c-.087-.215.096-.56.201-.827a.851.851 0 01.551-.606c.346-.119.592-.51.9-.76zm2.414 4.195c-.33.452-.695.876-1.092 1.269-.374.376-.798.704-1.223 1.073-.719-.946.403-3.81 2.041-5.102.107.327.197.66.269.996.055.335-.033.67.212 1.002.1.135-.056.552-.207.762zm-.18-10.858c-.426.176-.821.425-1.228.641-.369-.918.102-1.652.531-2.394.039-.068.114-.17.168-.167.745.037 1.046-.705 1.643-.926.195-.09.384-.194.565-.31-.166.743.016 1.476-.549 2.028a.922.922 0 00-.179.265 1.682 1.682 0 01-.951.863zm-2.293 3.128a1.004 1.004 0 01.502-.828l.128.104-.63.724zm.099.985c.722-.9 1.444-1.798 2.169-2.695a.673.673 0 01.363-.226c-.106.342-.229.68-.315 1.027-.15.605-.278 1.217-.414 1.826a.82.82 0 01-.56.652c-.577.225-1.125.524-1.714.805a1.697 1.697 0 01.471-1.39zm-2.949 1.786c-.057.087-.123.168-.184.252l-.139-.048c.145-1.007.371-2.001.676-2.972a.899.899 0 01.546 1.442c-.318.428-.599.884-.899 1.326zm.349.525c.33-.518.633-1.053.966-1.57a1.89 1.89 0 01.356-.329l.078.076-1.339 3.21c-.506-.645-.503-.692-.061-1.386zm1.352 13.967a3.342 3.342 0 01-.892.291c-.499.143-1 .278-1.501.415-.109.03-.221.056-.331.083l-.104-.104c.192-.574.436-1.13.728-1.661.33-.423.718-.796 1.154-1.108.114-.094.338-.045.5-.097.277-.084.549-.187.813-.306.533-.248 1.054-.519 1.586-.768.119-.033.241-.049.364-.05-.572 1.316-1.129 2.54-2.317 3.305zm1.023 2.893a14.96 14.96 0 01-1.761 1.329 1.116 1.116 0 01-.478.202c.082-.147.169-.293.247-.442.25-.474.515-.941.741-1.426a3.437 3.437 0 011.557-1.616 19.136 19.136 0 003.769-2.738 2.67 2.67 0 01.325-.223l.079.065c-.134.175-.273.346-.402.525a14.969 14.969 0 01-2.288 2.816 1.145 1.145 0 01-.289.215 4.72 4.72 0 00-1.5 1.293zm-1.222 2.641a4.568 4.568 0 011.937-2.234c-.589.775-.651 1.988-1.937 2.234zm2.074 13.756a14.229 14.229 0 01-1.925-.088 6.697 6.697 0 00-.01-.146c.508-.576 1.013-1.154 1.523-1.727.209-.299.462-.563.751-.785.414-.262.881-.43 1.367-.491a5.519 5.519 0 002.28-.923c.757-.406 1.483-.87 2.222-1.309l.071.074c-.319.435-.616.888-.961 1.302a125.56 125.56 0 01-2.114 2.447 4.67 4.67 0 01-3.204 1.646zm-3.079 2.021a2.872 2.872 0 012.097-1.028c.695-.119 1.38-.29 2.069-.438l.223-.043.057.137c-1.612 1.181-3.171 2.456-5.206 2.861l-.133-.143c.297-.449.584-.905.893-1.346zm-4.377 2.406l.229-1.128a.562.562 0 00.037-.157c-.09-1 .635-1.434 1.319-1.894.074-.049.203-.106.26-.075.509.278.943-.072 1.408-.146.197-.02.394-.03.592-.03-.254.408-.482.748-.683 1.104-.171.302-.304.627-.467.936a1.654 1.654 0 01-1.032.878c-.537.151-1.066.327-1.663.512zm-2.473 4.737c.008.008-.029-.012-.027-.024.193-.841.055-1.776.718-2.485a1.72 1.72 0 011.291-.761 3.462 3.462 0 001.036-.389c.268-.101.542-.187.813-.279l.113.112c-.478.885-.928 1.786-1.449 2.644a1.678 1.678 0 01-.771.548c-.556.241-1.136.422-1.724.634zm-2.471.42a4.711 4.711 0 011.335-4.519c.096.829.173 1.585.278 2.336.032.228.16.441.209.668.046.182.054.371.023.556a4.802 4.802 0 01-.352 1.178c-.16.306-.681.557-.658.795.044.452-.251.673-.385.997-.032.077-.119.131-.259.278.045-.315.076-.519.104-.723a3.323 3.323 0 00-.295-1.566zm-5.925 20.091c.037-.481.096-.962.154-1.442.1-.812.204-1.623.308-2.435.088-.693.173-1.385.266-2.077.135-1.01.262-2.021.418-3.028.111-.725.253-1.446.399-2.165a181.5 181.5 0 011.823-8.122c.29-1.15.629-2.287.964-3.425a192.45 192.45 0 011.156-3.783c.078-.17.191-.321.333-.442a5.869 5.869 0 001.642-2.718 12.45 12.45 0 00.221-1.752c.009-.1-.119-.211-.183-.317a1.594 1.594 0 00-.374.249c-.259.308-.492.637-.735.958l-.136-.086a2.23 2.23 0 01.141-.42c.275-.519.588-1.018.936-1.491.244-.201.53-.344.838-.418a.526.526 0 01.172.289c.013 1.108.016 2.216 0 3.324a1.146 1.146 0 01-.175.516 7.465 7.465 0 00-1.08 1.898c-.229 1.09-1.063 1.771-1.481 2.711-.683 1.536-.945 3.082-.105 4.638.134.363.151.76.046 1.133-.063.54-.155 1.076-.277 1.605a1.43 1.43 0 01-.2-1.312 1.326 1.326 0 00-.105-.452c-.125.055-.286.077-.368.17a4.853 4.853 0 00-1.405 3.403c.014.521.111 1.04.145 1.562a1.9 1.9 0 01-.081.595c-.35 1.285-.733 2.563-1.057 3.855-.355 1.421-.664 2.854-.981 4.284-.225 1.016-.455 2.032-.638 3.055-.197 1.094-.342 2.197-.51 3.295l-.076.494c-.046 0-.092-.003-.139-.003.046-.715.088-1.431.144-2.146zm-1.342-1.878c.284.279.279 2.354.136 3.996-.112-.003-.224-.004-.336-.008l.2-3.988zm-8.309-18.494c1.268.446 1.616 1.581 2.118 2.681-.676-.203-.627-.944-1.118-1.289a5.145 5.145 0 01-1-1.392zm-3.22-9.381a2.86 2.86 0 01-.273-1.217c.522.509 1.053 1.008 1.563 1.529a6.23 6.23 0 001.062 1.099c.336.31.564.719.65 1.167.154.621.273 1.249.357 1.883l-.201.092a11.648 11.648 0 01-1.172-1.308 54.675 54.675 0 01-1.985-3.245zm-1.102 7.788c.273-.33.153-.72.193-1.088.066-.598.156-1.193.245-1.789a.95.95 0 01.12-.244 4.651 4.651 0 011.029 2.401c.099.511.236 1.013.41 1.503.212.622-.153 1.152-.157 1.769-.344-.325-.62-.619-.932-.87a2.696 2.696 0 01-.9-1.469c-.018-.068-.042-.171-.008-.213zm-.517-8.52a2.248 2.248 0 01.796 2.231c-.446-.73-.978-1.32-.796-2.231zm-2.335 2.924c.054-.23.126-.455.17-.687.115-.614.215-1.232.334-1.845.052-.126.12-.244.204-.35.5.741.98 1.431 1.435 2.134.216.323.402.664.556 1.02a.935.935 0 01.02.606c-.27.801-.577 1.588-.867 2.367-.476-.33-.93-.69-1.36-1.079a2.957 2.957 0 01-.478-.952 1.553 1.553 0 01-.145-.577c.02-.217.063-.43.13-.637zM77.2 114.503c.735.134 1.67 1.568 1.37 2.144-.462-.725-.904-1.414-1.37-2.144zm.944 12.273a5.501 5.501 0 01-1.291-.47 5.381 5.381 0 01-1.303-1.234c-.525-.734-.936-1.551-1.391-2.336a1.222 1.222 0 01-.046-.3c.53.183 1 .343 1.468.507.1.035.234.148.285.116.452-.274.661.083.903.332.248.248.482.51.7.784.233.313.36.692.362 1.082.056.435.15.864.28 1.283.014.061.018.124.033.236zm-.414-3.388a3.704 3.704 0 01-1.567-2.595 1.503 1.503 0 01.173-1.218c.119-.168.064-.466.07-.705.02-.724.03-1.448.049-2.172.001-.046.048-.091.103-.185.179.255.365.48.507.73.275.484.493 1.002.789 1.472.368.653.576 1.385.606 2.134.006.228-.033.454-.114.666-.192.621-.406 1.235-.616 1.873zm-2.48-11.74a4.284 4.284 0 01-1.057-2.854c.552.106 1.12.24 1.302.706.32.924.593 1.864.816 2.815.003.012-.037.037-.11.106l-1.061-2.537a2.8 2.8 0 00-.13.036 4.305 4.305 0 00.24 1.728zm-2.429 2.27c.412-.653.006-1.395.232-2.071.1-.352.18-.709.242-1.07l.13-.022c.142.231.274.469.428.692.387.561.822 1.094 1.167 1.679a2.761 2.761 0 01.455 2.563 8.809 8.809 0 00-.278 2.048.4.4 0 01-.178-.048 6.326 6.326 0 01-2.2-3.57.29.29 0 01.002-.201zm-.343-15.589c.274.081.48.496.649.8.208.453.302.949.273 1.445.032.483.094.962.184 1.437-2.117-.606-2.502-2.44-3.079-4.257.378.058.75.148 1.112.27.28.118.568.22.86.305zm1.23.268l-.117.006c-.454-.678-1.072-1.269-1.136-2.152-.022-.31-.036-.62-.047-.93a.217.217 0 01.053-.137c.16-.198.324-.39.49-.59.177.146.154.351.145.634.02.504.104 1.004.249 1.487.096.413.251.813.357 1.224.02.152.023.306.006.458zm1.076 9.077c-.605-.081-.756-.534-.898-.955a14.906 14.906 0 00-1.445-3.405 6.234 6.234 0 01-.3-.608 1.578 1.578 0 011.333 1.069c.156.602.342 1.197.55 1.783.216.601.479 1.184.713 1.779.027.11.043.223.047.337zm-.87-4.349a6.234 6.234 0 011.633 4.009l-.145.049c-.152-.499-.309-.997-.456-1.497-.093-.318-.154-.647-.267-.957-.066-.185-.124-.414-.422-.407-.073.001-.16-.161-.225-.259-.133-.2-.252-.408-.413-.67.063-.056.148-.134.294-.268zm.205-5.806l-.34-1.094c.696.689.71.735.34 1.094zm1.16 4.981c.103.217.236.419.395.6.339.399.363.796-.027 1.381a8.91 8.91 0 01-.575-.92 31.552 31.552 0 01-.765-1.845 2.309 2.309 0 01-.169-.731c-.005-.151.123-.307.192-.46l.113.041c.277.645.544 1.295.835 1.934zm-.563-8.71c.657.469 1.096 1.78.686 2.22l-.686-2.22zm1.939 7.988a4.143 4.143 0 01-.282.832l-.225.007c-.264-.533-.547-1.058-.784-1.602a14.125 14.125 0 01-.598-1.609c-.143-.478.222-.799.513-1.29.413.772.78 1.45 1.14 2.13a2.55 2.55 0 01.236 1.532zm1.863-7.558a4.887 4.887 0 00-.107.87 12.52 12.52 0 01-1.364-.97 1.407 1.407 0 01-.366-.82c-.074-.643-.066-1.296-.098-1.944-.016-.32-.047-.64-.078-1.059.255.131.433.214.603.31.339.195.542.581 1.002.628.133.013.27.317.345.51a3.66 3.66 0 01.063 2.475zm.597 2.947a2.545 2.545 0 01.262 2.49 6.48 6.48 0 00-.555-.427c-.43-.267-.882-.502-1.309-.775a2.329 2.329 0 01-.754-2.213c.052-.248.071-.504.125-.902.512.466.95.878 1.404 1.272.141.088.288.166.44.236.152.073.285.183.387.319zm2.824-6.264a8.33 8.33 0 00-.183.965c-.047.716-.054 1.435-.092 2.152-.013.363-.05.725-.114 1.083a2.405 2.405 0 01-.62 1.233 9.76 9.76 0 00-.853 1.22 7.651 7.651 0 01-.899-1.653 5.886 5.886 0 01.01-1.784c.02-.212.082-.419.183-.606.112-.184.24-.356.382-.517.192-.214.365-.445.518-.689.242-.544.661-.99 1.19-1.264a3.79 3.79 0 01.478-.14zm1.647-6.215a6.45 6.45 0 01-.398-.719c-.169-.43-.317-.869-.446-1.313-.027-.094.064-.223.112-.366a2.469 2.469 0 01.732 2.398zm-.56-5.68c.447.4.844.72.63 1.388a3.94 3.94 0 00-.023 1.095c-.001.128-.017.255-.03.427-.619-.609-.777-1.427-.578-2.91zm2.287-4.218c.009.12.012.242.017.363l-.097.045c-.545-.503-1.467-.547-1.692-1.44a33.56 33.56 0 01-.558-2.7c.001-.09.013-.18.035-.269.28.154.518.294.766.415.247.087.486.194.715.32.201.146.365.338.477.56a3.04 3.04 0 01.308 2.184c-.016.174-.007.35.03.522zm1.492 4.53c-.018.055-.233.114-.312.076a15.49 15.49 0 01-1.59-.84 1.56 1.56 0 01-.667-.724 18.36 18.36 0 01-.402-2.025l.144-.105c.426.306.847.62 1.284.913.173.095.354.177.54.244.117.053.292.08.337.171.277.542.526 1.098.746 1.666.036.211.008.429-.08.624zm1.2 5.017c-.257-.136-.497-.27-.743-.39a6.798 6.798 0 00-.914-.41c-.429-.134-.493-.481-.579-.832l-.604-2.481a.457.457 0 01.016-.305c.384.242.776.474 1.15.73.282.192.493.462.895.483.152.009.317.298.425.487a3.287 3.287 0 01.354 2.718zm.709-.32a.874.874 0 01.319-.682 6.98 6.98 0 00.76-1.024c.13-.142.27-.273.42-.391.177.763.359 1.42.474 2.088a2.655 2.655 0 01-.36 2.345c-.17.257-.317.529-.436.813-.384-1.116-1.248-1.947-1.177-3.148zm.61 3.634c.262.802.232 1.67-.085 2.453-.619-.453-1.255-.883-1.846-1.37a3.068 3.068 0 01-.637-.83 1.85 1.85 0 01-.232-.715c-.087-.782-.142-1.57-.212-2.397a3.922 3.922 0 011.917 1.323c.023.032.042.09.07.093.844.125.777.897 1.025 1.443zm1.042 6.974a5.9 5.9 0 00-.141.612c-.643-.337-1.25-.74-1.81-1.2a3.501 3.501 0 01-.92-2.05c-.075-.573-.085-1.155-.13-1.823.167.065.277.075.335.136.454.481.898.972 1.345 1.46.072.078.139.216.217.224.784.066.902.752 1.163 1.273a1.727 1.727 0 01-.06 1.368zm-.83 4.49c.083-.836.157-1.673.234-2.51l.183-.011c.025.202.065.404.073.607.032.829.054 1.659.08 2.488a.408.408 0 01-.03.1c-.335-.106-.58-.263-.54-.673zm1.41 8.818a4.63 4.63 0 01-.599-1.307l.161-.093 1.668 1.942c-.475-.196-.972-.26-1.23-.542zm2.877 6.206c-.19.347-.331.72-.419 1.107a2.635 2.635 0 01-1.265-2.718c.113-.812.146-1.633.214-2.45.045-.04.09-.081.136-.12a9.3 9.3 0 00.592.709c.23.226.565.37.731.629.205.325.335.691.383 1.072a2.342 2.342 0 01-.372 1.771zm1.126-.05c.34-.329.634-.704.973-1.034.227-.207.47-.395.729-.563.11-.05.227-.086.347-.105 0 1.005.03 1.932-.015 2.855a1.03 1.03 0 01-.57.973c-.68.335-1.261.84-1.689 1.467-.07.075-.147.144-.231.204-.158-.432-.286-.827-.446-1.209a2.599 2.599 0 01.356-2.24c.08-.164.392-.2.546-.348zm.775-5.131c.299-.316.576-.652.867-.976.334-.37.673-.738 1.01-1.106a5.25 5.25 0 01-.483 3.648c-.165.271-.377.51-.626.705-.509.406-1.05.772-1.565 1.145a2.927 2.927 0 01.23-2.893c.128-.211.39-.336.567-.523zm.926-6.072c.348-.31.673-.648 1.037-.938.263-.172.538-.323.825-.451-.054.338-.104.545-.117.753-.036.609-.044 1.219-.09 1.826a1.97 1.97 0 01-.823 1.558c-.516.425-1.006.881-1.467 1.365-.043.04-.093.071-.154.117a4.028 4.028 0 01.163-3.692c.129-.224.42-.354.626-.538zm2.319-6.08a1.5 1.5 0 01.311-.11c-.135.911-.27 1.794-.395 2.677a1.054 1.054 0 01-.584.929c-.49.239-.935.569-1.401.856a.656.656 0 01-.18.038 3.509 3.509 0 01.357-3.025c.037-.056.07-.14.12-.154.728-.206 1.15-.855 1.772-1.211zm-.205-3.335c.458-.327.9-.672 1.351-1.008.077-.033.157-.06.24-.076-.031.66-.1 1.316-.208 1.968-.092.335-.297.63-.58.832-.598.417-1.258.746-1.892 1.11a2.584 2.584 0 01.557-2.54c.112-.145.368-.169.532-.286zm1.767-3.138a1.29 1.29 0 01-.707 1.008c-.311.177-.616.368-.946.567a1.292 1.292 0 01-.073-.232 7.475 7.475 0 01-.142-1.598 3.01 3.01 0 01.518-1.605 3.852 3.852 0 011.776-1.035c-.156 1.047-.309 1.968-.426 2.895zm1.541 5.82a43.544 43.544 0 01-1.402 3.054c-.2.28-.47.503-.784.645-.158.092-.345.065-.29-.268a9.51 9.51 0 012.625-5.138c.119-.125.218-.271.328-.407.107-.133.216-.263.323-.396l.104.048c-.299.822-.566 1.656-.904 2.463zm1.012-.446c-.152.4-.242.82-.268 1.247a7.653 7.653 0 01-.729 2.146c-.595 1.34-1.153 2.697-1.728 4.047-.034.08-.083.154-.141.257l-.29-.583-.124-.014a4.182 4.182 0 00-.176.596 5.116 5.116 0 00-.007.654.863.863 0 01-.554.849c.1-.845.176-1.734.321-2.611.124-.625.46-1.19.949-1.598a7.002 7.002 0 001.828-3.077 489.11 489.11 0 011.402-3.906c.016-.047.063-.082.113-.144a5.413 5.413 0 01-.596 2.137zm-.097 4.641l.113-1.328c.392.565.372.78-.113 1.328zm.594 4.899c-.801-1.309-.559-2.573-.059-3.85.088.439.178.877.265 1.316.088.445.209.886.251 1.335a1.826 1.826 0 01-.457 1.199zm1.649 17.923l.19.004c.079.368.139.74.178 1.114.031.516 0 1.036.011 1.553.007.3-.101.63.206.868.034.027.009.148-.007.221a3.013 3.013 0 01-.911 1.663 9.088 9.088 0 00-.694.786 6.702 6.702 0 01-.134-.101c-.49-2.215.269-4.175 1.161-6.108zm.123-4.409l-.647 3.307-.248-.027v-2.192a1.152 1.152 0 01.895-1.088zm-3.137.59c.048-.106.121-.246.088-.335a1.67 1.67 0 01-.024-.798c.056-.264.174-.511.346-.719a1.586 1.586 0 01.993-.848c.358-.094.634-.476.966-.702.36-.245.742-.458 1.22-.75a4.937 4.937 0 01-1.245 2.864l-.039-.828c-.409.106-.444.455-.459.72a1.42 1.42 0 01-1.01 1.463c-.344.122-.599.506-.885.781-.119.126-.23.257-.336.394l-.168-.068c.186-.392.374-.781.553-1.174zm-.207-17.838a5.063 5.063 0 00-.422 1.358 360.255 360.255 0 01-1.048 3.349.423.423 0 01-.199.21c.038-.703-.305-1.355.141-2.11a30.071 30.071 0 001.513-3.386c.087-.2.161-.407.241-.61a1.358 1.358 0 01-.226 1.189zm.691 9.596l.175.017c.09.412.205.82.264 1.235.053.369.029.748.397.993.033.031.06.069.076.112a.29.29 0 01.02.134c-.137.973-.125 1.994-.971 2.726a3.011 3.011 0 00-.456.693l-.12.003a3.983 3.983 0 00-.103-.531c-.147-.442-.339-.871-.466-1.318a2.548 2.548 0 01.143-1.728c.337-.783.693-1.558 1.041-2.336zm-.533-6.801c-.038 1.033-.11 2.068-.069 3.098a3.416 3.416 0 01-.712 1.921c.085-.856.494-1.666.318-2.557-.592.692-.589 1.61-1.014 2.433a2.666 2.666 0 01.119-2.057c.421-1.106.743-2.25 1.111-3.378.064-.194.146-.383.219-.575l.13.026c-.036.363-.089.726-.102 1.089zm-6.96 40.205c.25-1.435.522-2.866.816-4.293.304-1.463.64-2.918.972-4.374.312-1.366.63-2.73.955-4.092.47-1.958.945-3.915 1.425-5.871.303-1.244.609-2.487.916-3.73a.454.454 0 01.108-.214c.248-.243.153-.449-.012-.699a2.483 2.483 0 01-.599-1.661c.01-.173.05-.343.114-.503.31-.651.639-1.293.996-2.007.067.163.115.332.145.505.02.423.477.679.39 1.152-.096.527-.088 1.076-.204 1.597-.078.355-.063.604.297.774-.159.34-.329.656-.459.987-.164.408-.302.826-.412 1.251-.033.132.091.302.143.456.139-.072.341-.108.404-.221.238-.345.575-.611.967-.763l.08.085a2.507 2.507 0 01-.102.38c-.117.255-.253.501-.404.794-.243-.265-.415-.205-.54.09-.108.257-.259.498-.347.761-.694 2.075-1.42 4.14-2.055 6.233a156.233 156.233 0 00-1.794 6.473c-.429 1.665-.788 3.349-1.14 5.033-.185.877-.286 1.771-.43 2.656a1.386 1.386 0 01-.094.259l-.112-.005a5.316 5.316 0 01-.023-1.053zm4.065-21.044c-1.375 5.718-2.75 11.436-4.11 17.099-.535-6.112 1.55-11.656 4.11-17.099zm-7.545-3.038c.256.402.494.817.778 1.199.14.188.404.285.536.475.19.262.332.556.42.867a2.85 2.85 0 01-.147 2.138 4.24 4.24 0 00-.224.788c-.62-1.065-1.728-1.704-1.74-2.999.009-.269.033-.537.073-.802l.176-1.626.128-.04zm2.071-1.547c-.204.518-.432 1.026-.67 1.582-.072-.085-.156-.177-.233-.274-.313-.403-.646-.792-.926-1.215a1.452 1.452 0 01-.284-.766c.024-.886.115-1.769.191-2.797.267.286.473.492.661.712.226.266.35.638.793.661.074.004.174.169.205.275.128.434.25.871.337 1.314a.965.965 0 01-.074.508zm2.238.713c-.337.687-.462 1.475-.774 2.176-.26.479-.565.933-.91 1.355-.021.032-.099.025-.163.037a7.358 7.358 0 01-.44-1.483 2.467 2.467 0 01.237-1.356c.365-.562.779-1.09 1.238-1.578.231-.281.48-.549.732-.813.094-.082.196-.154.305-.215l.092.054c-.194.591-.017 1.213-.317 1.823zm-2.093 7.88c-.475-.464-.246-1.011-.178-1.517.05-.376.108-.795.589-.963.14-.05.205-.301.315-.452.378-.518.76-1.032 1.141-1.548l.128.04c.175.702.203 1.434.08 2.147a3.843 3.843 0 01-.998 2.187c-.41.343-.7.806-.831 1.324a.488.488 0 01-.18.24c-.084-.351-.315-.677-.065-1.068a.412.412 0 000-.39zm3.31-3.374c.501-1.306 1.05-2.595 1.608-3.963.269.426.515.793.733 1.177.032.058-.053.194-.099.286-.641 1.296-1.317 2.578-1.922 3.89-.559 1.212-1.041 2.458-1.56 3.688-.064.155-.139.306-.222.488a1.137 1.137 0 01-.136-1.273c.312-.764.672-1.508.961-2.28.246-.659.384-1.357.636-2.013zm2.799-8.568a5.986 5.986 0 01-.717 2.395l-.229-.046a3.14 3.14 0 01-.028-1.051c.19-.519.53-.97.974-1.298zm-.533-1.743a38.137 38.137 0 01-1.845 3.688l-.185-.101c.401-1.346 1.348-2.395 2.03-3.587zm-1.196-3.602c.126-.697.253-1.315.344-1.94.049-.333.032-.675.053-1.012a1.866 1.866 0 01.896-1.58 17.54 17.54 0 01-.033 2.49 3.895 3.895 0 01-.71 1.284c-.156.253-.349.482-.55.758zm1.15-.397l.148.002c.054.319.106.639.165.957a3.46 3.46 0 01-.674 2.273c-.293.555-.638 1.082-.972 1.614-.109.141-.23.273-.36.395.055-.819.131-1.547.148-2.277.03-1.257 1.02-1.981 1.544-2.964zm-2.24 9.859a1.978 1.978 0 01.92-1.841c.21.235.43.453.61.697a.428.428 0 01.012.351c-.54 1.264-1.09 2.523-1.64 3.783-.014.033-.06.052-.099.086a.938.938 0 01-.068-.932c.288-.676.38-1.419.265-2.144zm-8.773 4.842a4.112 4.112 0 01.42-2.869c.497.774.956 1.572 1.374 2.392a2 2 0 01-.074 1.158c-.192.804-.44 1.594-.67 2.389-.01.032-.06.053-.136.118-.046-.187-.077-.346-.124-.503-.265-.894-.577-1.778-.79-2.685zm-.527 5.98a9.996 9.996 0 01-.998-1.595c-.2-.633-.342-1.282-.425-1.94a.264.264 0 01.07-.219c.513-.369.493-.997.741-1.493.045-.09.095-.177.189-.352l.563 1.44c.399.764.59 1.619.556 2.48a2.775 2.775 0 01-.224.706c-.14.325-.307.637-.472.973zm-1.602-.903c.576.118.69.625.906 1.042.157.308.284.632.426.949.016.036.065.079.056.103-.222.676.286 1.22.349 1.843l-.1.072a2.393 2.393 0 01-.214-.292 4.934 4.934 0 00-1.167-1.339 6.87 6.87 0 01-2.047-3.171c-.143-.45-.256-.909-.382-1.364l.138-.077 1.797 1.968c.081.09.145.247.238.266zm-1.523-8.449a7.86 7.86 0 011.07-1.424c.091.321.173.632.268.938.191.61.397 1.216.582 1.828a1.549 1.549 0 01-.18 1.455c-.166.291-.3.6-.4.92-.445-.662-.883-1.227-1.222-1.844a2.113 2.113 0 01-.118-1.873zm-1.595-4.047a4.7 4.7 0 01-.06-1.621c-.002-.045.048-.094.084-.133.357-.387.714-.775 1.078-1.157.09-.073.189-.136.292-.189.09.509.167.982.258 1.452.093.484.178.972.307 1.448a2.303 2.303 0 01-.666 2.479 18.018 18.018 0 01-1.293-2.279zm-1.936-.484c.418.407.803.847 1.202 1.273.057.06.107.148.177.168.883.245.955 1.1 1.3 1.74.342.636.101 1.31.065 1.999-.686-.567-1.302-1.136-1.982-1.617-.435-.308-.88-.572-1.028-1.115a26.79 26.79 0 01-.405-1.708 5.346 5.346 0 01-.101-1.333c.27.182.527.38.772.593zm-2.038-6.187c.16.126.31.265.449.414.342.43.647.889 1.001 1.308.18.214.45.35.65.549.188.187.355.395.497.619.52.81.747 1.774.643 2.731-.005.047-.05.089-.061.106a16 16 0 01-2.073-1.592 4.048 4.048 0 01-1.136-2.471c-.042-.524-.07-1.05-.105-1.576a10.3 10.3 0 00.135-.088zm-.91-5.548a4.851 4.851 0 011.792 1.438c.147.185.396.289.55.471.176.198.315.425.411.672.394.932.415 1.981.059 2.928-.04.13-.074.262-.1.396-.24-.268-.418-.5-.63-.697-.38-.352-.771-.69-1.169-1.021a2.072 2.072 0 01-.771-1.491c-.06-.806-.11-1.613-.163-2.42a2.33 2.33 0 01.021-.276zm2.74-2.548c-.371-.578-.7-1.18-.986-1.804a2.344 2.344 0 01.052-1.15c.077-.323.18-.64.309-.947.021-.06.065-.147.114-.16.57-.14.75-.693 1.12-1.045.038-.038.08-.071.22-.192.07.43.129.776.177 1.125.085.61.147 1.225.246 1.834a2.543 2.543 0 01-1.253 2.339zm1.615.134l.126.069c.056.444.123.888.166 1.334.043.457.02.925.105 1.374a2.248 2.248 0 01-.442 1.56c-.228.366-.476.72-.74 1.061a5.988 5.988 0 00-.194-.665c-.166-.391-.377-.764-.526-1.16a2.857 2.857 0 01-.144-1.959c.065-.192.331-.313.498-.475.386-.378.768-.759 1.15-1.139zm.463-7.78c-.19.203-.41.376-.652.511a13.834 13.834 0 01-.113-.086c.252-1.437.131-2.946.859-4.34a3.722 3.722 0 01-.094 3.916zm.787-3.667c-.477-.547-.495-.797-.088-1.18a.85.85 0 01.088 1.18zm.206-8.338a2.9 2.9 0 01-.004-.735c.008-.158.057-.313.07-.471.012-.16.003-.322.003-.482l.169-.049.76 2.164a.681.681 0 01-.998-.427zm1.17 2.705l.628 2.829c-.981-.41-1.306-1.639-.629-2.83zm1.163 7.263a.25.25 0 01-.24-.045 8.858 8.858 0 01-1.01-1.714 4.53 4.53 0 01.016-1.493c.003-.13-.015-.262-.03-.493l-.41.38v-.867c.096.026.193.022.238.069.35.328.675.683.969 1.063.204.307.342.654.402 1.019.103.607.127 1.228.171 1.844a.297.297 0 01-.106.237zm.211 6.572c-.532-.535-1.035-1.037-1.532-1.546a.302.302 0 01-.04-.19c-.003-.45-.007-.897.004-1.346a1.26 1.26 0 01.108-.33c1.182 1.589 1.62 2.587 1.46 3.412zm-.234-3.042c-.051.013-.103.024-.154.036a5.305 5.305 0 01-1.207-4.093 8.994 8.994 0 011.21 1.894 8.51 8.51 0 01.151 2.163zm-2.194-12.019c.727.318.777.767.154 1.64l-.154-1.64zm.11 9.845a.98.98 0 01.085.257c.005.983.046 1.968-.01 2.947a6.389 6.389 0 01-.65 2.7c-.15.234-.32.456-.506.663-.078-1.068-.13-2.058-.23-3.042a3.428 3.428 0 01.44-1.768c.257-.581.563-1.14.872-1.757zm-.836 16.572c.097.787.146 1.58.147 2.373-.028.378-.456.725-.745 1.147a8.483 8.483 0 00-.798-1.512 2.372 2.372 0 01-.24-2.557c.048-.137.06-.288.107-.426.042-.127.08-.324.168-.354.66-.234.668-.96 1.077-1.376l.539-.551.102.069a7.39 7.39 0 00-.335 1.25c-.052.645-.06 1.292-.022 1.937zm3.382-9.699a12.316 12.316 0 01-.648 3.335 1.79 1.79 0 01-.899 1.018c-.446.196-.883.415-1.417.667.05-.268.08-.54.09-.813-.035-.673-.106-1.344-.152-2.016a4.474 4.474 0 01.306-1.933c.346-.906.614-1.84.937-2.827.232.268.47.535.7.808.237.31.49.608.756.892a.949.949 0 01.327.869zm.213-3.664c-.073-.787-.17-1.572-.258-2.357l.196-.04c.613 1.009.447 2.194.723 3.365a1.16 1.16 0 01-.66-.968zm.351 2.182l.149-.034.261.905c-.58-.209-.322-.596-.41-.871zm.175 6.431a74.363 74.363 0 01-.748 3.725c-.173.736-.46 1.444-.694 2.166a.787.787 0 01-.739.57 7.061 7.061 0 00-.872.212c-.076-.792-.169-1.556-.221-2.322a4.817 4.817 0 01.82-2.77c.493-.839 1.072-1.629 1.556-2.473a5.617 5.617 0 00.658-2.416c.035-.472.124-.938.266-1.389.074.151.205.298.212.449a19.794 19.794 0 01-.238 4.248zm.167 10.497a6.323 6.323 0 01-.567.789l-.834-1.505-.158.055c.045.271.078.545.138.813.049.22.136.432.193.651.116.442-.065.641-.559.611-.088-1.113-.172-2.229-.267-3.344a1.641 1.641 0 01.445-1.293 6.181 6.181 0 001.115-2.407 1.36 1.36 0 01.059-.144c.005-.011.022-.016.121-.083.08.574.139 1.116.233 1.652.085.73.233 1.45.442 2.154a2.426 2.426 0 01-.361 2.051zm-.224 5.846c-.426-.846-.924-2.766-.364-3.401 1.04.756 1.245 2.664.364 3.401zm1.09-5.778a6.875 6.875 0 01-.27 3.054c-.237-.44-.465-.842-.666-1.257a.436.436 0 01.007-.357c.294-.485.612-.954.929-1.44zm.608-19.606c-.11.63-.165 1.27-.248 1.904-.018.132-.053.262-.08.392l-.2.011a6.459 6.459 0 01-.203-.9c-.069-.804-.107-1.61-.145-2.416-.01-.192.064-.252.273-.151.682.328.731.442.603 1.16zm.855 20.231c-.29-.491-.54-1.003-.75-1.533a3.211 3.211 0 01-.005-.861c-.024-.442-.075-.881-.122-1.408a3.936 3.936 0 011.408 4.435 4.322 4.322 0 01-.531-.633zm.296 5.729c-.023-.012-.112-.032-.143-.085-.372-.628-.756-1.252-1.09-1.9a1.375 1.375 0 01-.076-.709c.074-.863.176-1.724.28-2.706a5.101 5.101 0 011.041 3.987c-.044.47-.049.943-.013 1.413zm-.292-14.366a3.091 3.091 0 011.062 1.992 2.955 2.955 0 01-1.062-1.992zm.744 2.587a.882.882 0 01.372.738c-.028.589-.008 1.182-.008 1.783a4.982 4.982 0 01-1.737-1.267 2.817 2.817 0 01-.629-1.925 15.877 15.877 0 01-.334-3.323c.069-.605.197-1.203.299-1.803l.16.025c.026.18.033.362.02.543a5.732 5.732 0 00.683 3.922c.328.488.723.928 1.174 1.307zm-13.677-1.164l-1.105-1.865.136-.107c.105.087.204.18.298.279.244.287.461.596.72.868.255.268.236.501-.049.825zm-.8-3.182l.494-1.889a1.403 1.403 0 01.47 1.271 7.45 7.45 0 00.334 1.976c.015.122.016.245.003.368a5.475 5.475 0 01-1.302-1.726zm1.722 4.733c-.42-.481-.425-.645-.106-1.002l.106 1.002zm-.14-8.435a11.325 11.325 0 00-.427-2.819.558.558 0 01.009-.16c.037-.036.073-.072.109-.11.482.397.96.799 1.45 1.185.16.107.33.2.505.28.067.038.164.059.2.116a3.164 3.164 0 01.547 2.365 6.061 6.061 0 00-.038.608 2.312 2.312 0 01-.08.332c-.66-.393-1.294-.735-1.885-1.142a.945.945 0 01-.39-.655zm13.021 30.621c-.249-.745-.535-1.478-.772-2.226a6.135 6.135 0 01.084-3.904c.126-.377.182-.777.277-1.165a.678.678 0 01.093-.165l.123.007c.044.407.048.818.01 1.225a2.589 2.589 0 00.768 2.642.93.93 0 01.32.781c.016 3.776.048 7.551.072 11.327a3.945 3.945 0 01-.058.496c-.032 0-.064.001-.095.003-.193-.815-.382-1.63-.581-2.443-.34-1.384-.683-2.768-1.031-4.15a.413.413 0 01.194-.533 1.58 1.58 0 00.596-1.895zm1.778-3.539a2.152 2.152 0 01-1.078-1.394 1.176 1.176 0 01-.045-.355c.093-.645.2-1.286.296-1.885.326.22.621.484.877.783.183.354.31.736.375 1.13.074.281.076.585.171.858.111.222.248.43.407.621 0 .573.005 1.275-.002 1.977-.002.244.042.437.33.465.298.028.257-.207.341-.386.18-.329.38-.646.601-.948a.972.972 0 01-.27 1.307.957.957 0 00-.251.642c-.045 1.96-.062 3.922-.094 5.883-.021 1.359-.05 2.719-.083 4.08-.017.706-.05 1.412-.08 2.119-.025.596-.048 1.194-.087 1.79a1.66 1.66 0 01-.127.395l-.082-.02c-.038-.813-.085-1.625-.11-2.438-.037-1.141-.047-2.284-.09-3.424-.037-1-.105-1.999-.16-2.999-.055-1.027-.086-2.056-.17-3.081-.11-1.38-.263-2.757-.394-4.135a.249.249 0 01.023-.156c.297-.422.024-.615-.298-.829zm15.333-19.826c.053.049.108.097.162.145-.219.501-.474.985-.764 1.449-.387.539-.909.98-1.305 1.514a6.683 6.683 0 01-2.111 1.682c.041-.311.075-.537.1-.763.003-.74.228-1.462.645-2.073a.964.964 0 01.576-.364 3.49 3.49 0 00.808-.485c.627-.372 1.258-.736 1.889-1.105zm1.599-1.746a.783.783 0 01-.515.386 5.902 5.902 0 00-2.585.902c-.019.012-.051.001-.116.001l.106-.858c.029-.117.045-.237.049-.358-.088-1.025.65-1.569 1.266-2.185a.107.107 0 01.075-.024c.835.052 1.405-.642 2.176-.773.286-.048.566-.135.876-.211.012.086.055.177.029.234-.445.967-.884 1.936-1.361 2.886zm.092 1.853a2.059 2.059 0 011.243-1.17 1.45 1.45 0 01-1.243 1.17zm1.14 2.767a6.335 6.335 0 00-1.737 2.338 8.07 8.07 0 01.723-2.74c.207-.492.476-.96.657-1.462.308-.846 1.091-1.062 1.82-1.503-.259 1.29-.411 2.505-1.463 3.367zm2.306 6.37c.069.004.135.065.219.107-.699.897-1.335 1.778-2.042 2.598a2.628 2.628 0 01-2.241.869c.035-.145.064-.279.1-.411.133-.486.307-.966.393-1.46.106-.605 1.039-1.62 1.566-1.577.693.056 1.336-.165 2.005-.126zm-4.383 2.277a17.1 17.1 0 01-.577 1.527 1.36 1.36 0 01-.447.436c-.36.273-.732.529-1.147.827a3.2 3.2 0 01-.038-.449 5.832 5.832 0 00-.463-2.309.85.85 0 01.041-.79c.283-.483.594-.948.932-1.395.388-.483.839-.915 1.34-1.452.083.382.146.768.188 1.157.031.533-.003 1.068.015 1.603.032.164.078.325.138.481a.725.725 0 01.018.364zm-.561-5.936a6.212 6.212 0 01-1.315 2.707c-.265.319-.494.667-.741 1.001-.084.113-.176.219-.264.329a3.007 3.007 0 00-.1-.043c.045-.46.12-.916.225-1.366.388-1.301.741-2.621 1.256-3.873.453-.997.987-1.955 1.596-2.865.161-.258.522-.391.792-.583l.106.113a17.665 17.665 0 00-.733 1.661 29.267 29.267 0 00-.822 2.919zm3.64.665c.079.141-.003.39-.047.581a3.985 3.985 0 01-1.853 2.553.144.144 0 01-.1.003c-.142-.808-.285-1.594-.412-2.383 0-.12.024-.239.072-.349a4.913 4.913 0 011.292-2.363c.351-.324.674-.676 1.016-1.009.095-.081.196-.157.301-.225l.17.08c-.151.7-.299 1.401-.453 2.1a1.296 1.296 0 00.014 1.012zm-6.25-13.455c.231.506-.139.842-.193 1.248-.29-.226-.242-.547.193-1.248zm-.185 4.512c.082.245.2.477.298.715.088.146.148.306.179.474a5.513 5.513 0 01-.098.878c-.077.467-.318.89-.68 1.195-.349.313-.653.677-1.007 1.052-.145-.568-.246-1.116-.426-1.635a2.163 2.163 0 01.318-1.848c.341-.616.683-1.23 1.087-1.956.129.446.216.79.329 1.125zm-10.8-15.856c.038-.173.106-.337.2-.486l.117.02.104.75c-.203-.131-.424-.214-.42-.284zm-.64 1.185c.462.712.198 1.443.075 2.17a6.005 6.005 0 01-.075-2.17zM94.014 101c.123-.532.183-1.08.285-1.618.034-.11.082-.216.143-.314.11.037.21.092.3.163.224.25.425.519.638.777.07.084.145.219.227.226.318.028.347.277.374.484a3.034 3.034 0 01-.296 1.834c-.249.481-.449.989-.683 1.515-.709-.921-1.268-1.85-.988-3.067zm-3.398-3.271a1.18 1.18 0 01.153-.385c.126.059.317.084.37.182a2.525 2.525 0 01.37 2.322 7.54 7.54 0 00-.256.832l-.174-.006c-.13-.647-.275-1.291-.387-1.942a5.838 5.838 0 01-.076-1.003zm.623 4.984c.32.389.585.82.787 1.281.097.341.114.699.048 1.047a10.7 10.7 0 01-.27 1.2 7.71 7.71 0 01-2.233-5.25c.11.044.212.102.305.175.463.509.94 1.007 1.363 1.547zm-9.003-23.396l-.988-2.178c1.072.723 1.403 1.463.988 2.178zm-.363 7.456a3.718 3.718 0 01.51-3.052c.145.275.291.532.42.797.304.624.637 1.237.886 1.883.123.413.208.837.256 1.266l-.168.047c-.155-.37-.323-.736-.46-1.113-.156-.426-.274-.866-.426-1.293a3.484 3.484 0 00-.25-.472l-.148.075c.022.855.199 1.7.522 2.493.117.368.246.732.376 1.096a.329.329 0 01-.215.467c-.454.193-.904.393-1.437.625a4.78 4.78 0 01.118-.662 4.01 4.01 0 00.016-2.157zm-7.313-.52l.144-.059c.731.635.687 1.584.966 2.402l-.11.042c-.15-.397-.29-.8-.454-1.19-.17-.404-.364-.798-.546-1.195zm.094 3.255c1.137 1.136.855 2.65 1.25 3.955a.567.567 0 01-.09.075c-.64-.494-1.3-.984-1.275-1.911.02-.707.075-1.413.115-2.119zm-2.535 17.565a86.06 86.06 0 01-1.185-2.839 9.804 9.804 0 01-.277-.988c.517.197.95.565 1.228 1.044.52.953.928 1.969 1.4 2.998a2.9 2.9 0 01-.758.099.621.621 0 01-.408-.314zm-2.092-.451l.12-.979.105-.018c.198.339.383.685.597 1.014a89.76 89.76 0 001.31 1.967 1.294 1.294 0 01.15 1.341 14.102 14.102 0 00-.464 1.653c-.046-.006-.118.005-.148-.024a5.702 5.702 0 01-1.909-3.023c-.02-.105-.045-.254.009-.319.404-.497.164-1.075.23-1.612zm15.953 31.637c.009.12.01.241.003.362h-.074a2.769 2.769 0 01-.36-.648 3.07 3.07 0 00-.88-1.337 4.037 4.037 0 01-.533-1.317.11.11 0 01-.003-.08c.475-.813.295-1.777.653-2.765.307.453.584.829.827 1.226.488.749.714 1.638.643 2.529-.004.187-.048.37-.127.538a2.203 2.203 0 00-.149 1.492zm5.255 16.43a54.88 54.88 0 00-.31-3.01 63.846 63.846 0 00-.747-4.388c-.181-.885-.485-1.746-.743-2.614-.155-.523-.33-1.041-.488-1.563a.643.643 0 01-.008-.298 4.157 4.157 0 00-.616-3.383c-.24-.337-.458-.691-.719-1.011-.094-.116-.283-.153-.54-.282l.093 1.548-.173.006c-.257-1.04-1.024-2.064.032-3.149.239.409.49.846.748 1.28.484.649.894 1.35 1.224 2.089.541 1.685.951 3.414 1.36 5.137.319 1.336.605 2.685.812 4.043.182 1.195.259 2.409.34 3.617a84.3 84.3 0 01.11 2.007l-.375-.029zm1.318.101c-.118-1.451-.24-2.902-.391-4.349a32.682 32.682 0 00-1.212-5.841c-.46-1.559-.918-3.118-1.398-4.671a17.652 17.652 0 00-.676-1.824 3.495 3.495 0 00-.553-.783 3.868 3.868 0 01-.643-1.389l.155-.091c.269.369.523.751.815 1.102.142.126.301.232.473.313.05-.176.18-.373.138-.523-.183-.653-.416-1.292-.628-1.937-.029-.087-.094-.221-.06-.26.488-.544-.004-1.107.03-1.657.024-.407-.216-.828.25-1.159.135-.097.154-.356.238-.57.333.717.668 1.353.926 2.018a1.506 1.506 0 01-.398 2c-.248.197-.226.352-.096.641a9.9 9.9 0 01.493 1.598c.162.633.292 1.274.43 1.913.356 1.657.71 3.314 1.063 4.971.218 1.032.448 2.061.627 3.1.153.885.24 1.782.353 2.673.187 1.438.272 2.886.255 4.335-.002.135 0 .27 0 .404-.064-.003-.126-.01-.19-.014zm9.357-17.909a.512.512 0 01-.078.303c-.266.599-.582 1.18-.803 1.795-.704 1.956-1.427 3.909-2.039 5.895-.47 1.527-.837 3.091-1.156 4.658-.314 1.546-.518 3.115-.754 4.676-.034.221-.06.444-.09.666-.162.003-.323.01-.485.012.105-.796.219-1.591.33-2.387.162-1.168.294-2.342.505-3.502.324-1.787.662-3.573 1.07-5.343.384-1.662.869-3.301 1.304-4.952.107-.407.194-.819.277-1.175-.203-.106-.368-.137-.42-.23a1.538 1.538 0 01.437-1.195c.089.463.492.848.21 1.362a.164.164 0 00.036.143c.074.083.2.232.24.214.16-.073.368-.171.426-.314.223-.554.39-1.131.592-1.693.055-.153.197-.419.235-.408.44.127.524-.243.662-.476a3.014 3.014 0 012.367-1.71c-.162.449-.296.908-.402 1.373a1.829 1.829 0 01-1.936 1.703c-.281.011-.67.093-.528.585zm12.395-22.003c.255-.147.519-.278.791-.393.234-.049.472-.083.71-.102.431-.085.854-.203 1.285-.279.286-.051.581-.053.872-.078l.042.133a1.758 1.758 0 01-.337.223 5.749 5.749 0 00-2.655 2.246c-.382.5-.811.963-1.28 1.382a1.169 1.169 0 01-.576.225c-.338.065-.683.087-1.071.132.23-.539.425-1.093.582-1.658a2.63 2.63 0 011.637-1.831zm2.906-3.302a4.204 4.204 0 011.448-1.656.682.682 0 01.664-.088c.348.054.701.071 1.053.051.26.019.518.073.776.112l.031.133c-.734.722-1.453 1.458-2.205 2.158a3.927 3.927 0 01-2.05.709l-.577.117c.073-.148.111-.238.16-.321.259-.389.493-.795.7-1.215zm2.405-7.74a17.454 17.454 0 01-1.909 2.336c-.074.088-.278.187-.324.153-.104-.08-.225-.256-.202-.363a4.09 4.09 0 01.378-1.245 26.965 26.965 0 011.76-2.571c.803-1.026 1.681-1.994 2.579-3.048.012.129.031.177.017.207-.756 1.516-1.447 3.071-2.299 4.531zm4.381-1.131c-.026.23-.038.462-.035.693a1.05 1.05 0 01-.1.461 3.789 3.789 0 01-2.097 1.751c.026-.211.066-.409.071-.606.011-.436.017-.873.001-1.309a1.92 1.92 0 01.764-1.655c.503-.393 1.055-.725 1.589-1.079.037-.024.103-.003.252-.003-.156.601-.317 1.17-.445 1.747zm2.804-.754c.272-.108.552-.194.838-.258.088-.024.224-.042.278.005.47.41.963.118 1.454.081a2.075 2.075 0 011.614.556c-.091.079-.126.135-.172.146a14.887 14.887 0 00-3.335 1.698 2.659 2.659 0 01-1.89.481 5.965 5.965 0 00-1.572.097c.232-.294.432-.611.599-.946a3.498 3.498 0 012.186-1.86zm2.32-3.511a5.15 5.15 0 01-.101.884 1.87 1.87 0 01-.416.704 3.757 3.757 0 01-1.902 1.283c-.3.107-.587.249-.855.421-.109.054-.228.091-.449.176a9.334 9.334 0 01.487-1.917 3.057 3.057 0 011.049-.969c.72-.502 1.474-.952 2.328-1.496-.057.368-.107.64-.141.914zm-.615 6.958a1.11 1.11 0 01-1.145-.278c1.843-.896 3.539-2.1 5.774-1.556-.848.383-1.686.794-2.549 1.14-.677.272-1.386.463-2.08.694zm-2.542 1.421c.444-.241.93-.396 1.432-.456.671-.152 1.355-.253 2.033-.375l.041.041c-.509.356-1.007.731-1.53 1.065a15.199 15.199 0 01-3.717 1.918c-.319.095-.656.266-.966.003.901-.743 1.765-1.525 2.707-2.196zm-5.304 1.248c.172-.238.319-.492.439-.76a2.573 2.573 0 011.666-1.44c.199-.078.402-.142.61-.191.127-.034.312-.104.386-.046.479.37 1.034.162 1.637.257-.319.282-.599.52-.866.77-.517.481-1.004.996-1.545 1.447-.585.489-1.189.844-2.677.495.136-.207.248-.366.35-.532zm-.249-1.24a.592.592 0 01-.07.631 9.254 9.254 0 01-.898 1.229 4.143 4.143 0 01-.834.545c-.243.157-.482.32-.744.494-.044-.51-.045-.997-.134-1.466a1.727 1.727 0 01.78-1.847 18.71 18.71 0 001.706-1.673c.113-.114.232-.223.348-.333l.125.016c.016.216.014.432-.006.647-.067.394-.182.779-.256 1.172a1.05 1.05 0 00-.017.585zm17.313-12.509c.163-1.513 1.148-2.256 2.436-2.717.308-.111.614-.283.956-.053.071.048.22-.022.334-.039.726-.106 1.451-.22 2.178-.315.17.019.337.06.496.124-.937.879-1.733 1.726-2.638 2.437a2.181 2.181 0 01-1.819.412 5.48 5.48 0 00-1.486.083c-.158.012-.314.046-.457.068zm-3.445-1.659a11.992 11.992 0 012.995-3.515c.04.04.081.078.12.118l-3.034 3.466a6.13 6.13 0 00-.081-.069zm2.15-.696c.139-.15.267-.308.382-.477.214.411.269.886.155 1.334a4.42 4.42 0 01-.157.576c-.019.073-.051.179-.017.224.453.596-.103.921-.372 1.289-.25.265-.515.514-.794.748-.094.14-.164.293-.209.455.172.016.346-.002.512-.052.307-.188.602-.396.883-.622a2.917 2.917 0 012.084-.536c.297.028.57.317.925.529-.564.352-1.088.692-1.625 1.011-.377.232-.766.443-1.165.632a2.56 2.56 0 01-1.777.095 4.538 4.538 0 00-1.946.13c-.099.015-.201.022-.327.035.243-.472.446-.964.607-1.47.391-1.718 1.609-2.808 2.841-3.901zm-5.694 6.712a.58.58 0 00.555.049 7.923 7.923 0 012.678-.887c.05-.008.133-.003.153.026.286.45.797.376 1.21.53.095.035.189.067.384.137-.897.623-1.686 1.192-2.498 1.729a3.648 3.648 0 01-2.667.461 12.023 12.023 0 00-1.687-.014c.072-.121.154-.237.244-.345a4.656 4.656 0 001.429-3.146.597.597 0 01.158-.395c.53-.437 1.08-.85 1.622-1.27l.118.105c-.083.275-.165.55-.251.824-.027.089-.1.18-.089.262.107.739-.449.996-.933 1.308a1.69 1.69 0 01-.217.106c-.244.108-.347.339-.209.52zm-17.259 13.88a2.279 2.279 0 01.737-1.966c.449-.447.937-.856 1.422-1.264.289-.242.608-.45.913-.674a.495.495 0 01.04.146 5.944 5.944 0 01-.244 2.276c-.021.062-.085.146-.064.182.357.628-.177.995-.436 1.416a5.544 5.544 0 01-2.509 2.053c.054-.608.108-1.18.153-1.753.01-.139.006-.278-.012-.416zm6.326-20.844c.334-.03.666-.079.999-.12l.02.102c-.404.48-.817.953-1.21 1.44a11.75 11.75 0 00-.71.975.763.763 0 01-.816.388c-.638 0-1.276.051-1.906.154.021-.115.05-.229.088-.34a4.17 4.17 0 00.272-.573c.28-.78.847-1.423 1.585-1.8.073-.05.2-.11.257-.08.511.261.949-.103 1.421-.146zm1.226-8.915c-.384.685-.742 1.385-1.115 2.077-.048.09-.113.17-.179.27-.565-.529-.333-1.114-.155-1.613a18.58 18.58 0 012.084-4.007.83.83 0 01.138-.121 6.842 6.842 0 01-.773 3.394zm4.591 7.907c-.42.371-.831.752-1.261 1.111-.732.612-1.458 1.233-2.218 1.808-.564.429-1.158.814-1.779 1.154a1.55 1.55 0 01-.896.007c1.403-2.356 3.686-3.354 6.154-4.08zm-3.655-.324c-.126.038-.257.06-.389.068-.67.006-1.341.003-2.032.003a3.057 3.057 0 011.871-2.015 5.07 5.07 0 011.406-.119 8.77 8.77 0 011.059-.06c-.51.84-.806 1.847-1.915 2.123zm3.174-6.282c.143-.085.37-.03.558-.04.243-.014.487-.034.731-.04.269-.008.539-.002.897-.002-.38.472-.68.862-.997 1.236-.41.484-.83.96-1.258 1.427a.694.694 0 01-.365.232c-.557.072-1.118.11-1.751.165.253-.512.506-.962.706-1.435a3.342 3.342 0 011.479-1.543zm11.025-5.2l.095.17a9.909 9.909 0 01-3.332 1.326l-.062-.154 3.299-1.343zm-4.617-1.974c.114-.277.26-.597.381-.927.114-.269.198-.549.252-.836a2.476 2.476 0 011.65-1.917c.734-.332 1.517-.56 2.424-.885a7.79 7.79 0 01-.329.9c-.22.426-.484.83-.718 1.25a.886.886 0 00-.156.438.952.952 0 01-.34.782 12.32 12.32 0 01-1.051.954 1.284 1.284 0 01-.663.23c-.481.034-.965.01-1.45.01zm-1.987 1.708c.227-.132.444-.281.682-.39.392-.186.796-.348 1.208-.484.12-.037.289.107.44.15.223.079.455.131.69.155.507.024.994.201 1.398.508-.403.243-.731.467-1.083.646-.783.49-1.647.84-2.55 1.033-.258.033-.531-.043-.786-.003-.564.089-1.121.221-1.736.347a2 2 0 01.08-.28 4.905 4.905 0 00.482-2.219 2.215 2.215 0 01.686-1.618c.42-.443.865-.862 1.332-1.255.198-.179.412-.34.664-.544 0 .6.45 1.097.063 1.724a3.672 3.672 0 01-1.118 1.322c-.441.277-.507.393-.452.908zm-5.22 2.465a4.381 4.381 0 01.853-1.474c.486-.587 1.067-1.095 1.611-1.632.114-.093.234-.178.359-.255.036.356.067.615.087.876.022.274-.073.57.204.792.051.041.027.239-.021.334-.358.698-.744 1.382-1.089 2.087-.088.179-.154.514-.062.603.222.216.431.004.607-.183.21-.241.44-.464.688-.666a.93.93 0 01.469-.075c.31-.018.622-.02.932-.033.128-.006.255-.026.402-.042-.007.1.011.175-.017.203-.358.39-.741.757-1.146 1.098a1.173 1.173 0 01-.702.092 4.235 4.235 0 00-2.872.85c-.145.11-.299.21-.475.334.048-.487.108-.92.127-1.356a6.617 6.617 0 01.045-1.553zm-1.204 3.724a.582.582 0 01-.037.468c-.318.643-.661 1.272-.998 1.905a.33.33 0 01-.114.116c-.564.347-1.13.69-1.785 1.09a12.032 12.032 0 01.032-2.23 6.104 6.104 0 01.784-1.652c.48-.86.993-1.701 1.492-2.551.04-.067.083-.132.15-.24a2.269 2.269 0 01.47 1.813c-.043.421-.305.842.006 1.281zm-6.898-13.004a18.8 18.8 0 01-.032 2.083c-.022.296.037.507.309.546.268.04.362-.175.416-.432a7.59 7.59 0 01.319-.94c.013-.036.033-.085.063-.1.478-.213.959-.423 1.507-.664-.144.487-.279.922-.401 1.361-.111.397-.434.477-.769.612a3.966 3.966 0 00-2.053 1.856 3.748 3.748 0 01-.225.334c-.357-.635-.723-1.249-1.049-1.882a2.601 2.601 0 01-.176-1.922c.227-.819.513-1.62.817-2.566.21.303.342.519.499.713.14.174.322.314.461.487.126.158.307.338.314.514zm7.21-4.62a7.267 7.267 0 01-2.396 2.809 14.662 14.662 0 012.396-2.808zm-5.474-2.594a3.656 3.656 0 011.092-1.837c.32-.323.625-.661 1.009-1.069.078.484.152.886.205 1.289a6.02 6.02 0 00.195 1.663c.153.374-.147.941-.27 1.415-.235.902-1.08 1.103-1.702 1.504-.197-.718-.406-1.378-.552-2.05a2.326 2.326 0 01.023-.915zm-.555 5.347c.106-.087.25-.152.313-.264.16-.289.261-.613.432-.894.137-.187.296-.356.473-.505.046-.045.122-.102.174-.093.844.145 1.568-.532 2.497-.33-.86 1.29-1.513 2.678-3.021 3.348-.456.26-.883.568-1.274.92-.164-.55-.315-1.123-.512-1.68a9.143 9.143 0 01-.463-1.01 2.667 2.667 0 01-.001-1.187c.203-.78.5-1.537.755-2.295a3.8 3.8 0 01.708.569 1.3 1.3 0 01.23.698 2.33 2.33 0 01-.361 1.78 1.06 1.06 0 00-.11.62c0 .108.104.216.16.323zM98.436 83.62c.237.271.387.606.433.963.088.503.052 1.026.108 1.536.05.17.13.331.235.475.155-.142.29-.305.399-.485.109-.251.096-.558.22-.799.079-.156.301-.243.465-.354.165-.11.337-.208.502-.316.152-.098.299-.201.449-.302l.135.078a9.83 9.83 0 01-.398 1.538c-.098.228-.439.377-.698.505a3.846 3.846 0 00-1.764 1.848c-.076.156-.16.31-.253.492-.239-.392-.464-.773-.7-1.147-.135-.214-.29-.416-.433-.626a3.365 3.365 0 01-.268-2.618c.097-.564.251-1.117.385-1.673.011-.047.056-.085.113-.168.186.166.356.348.509.545.164.193.353.364.561.508zm7.066-4.908l.115.09a9.296 9.296 0 01-2.135 3.049 5.95 5.95 0 01-.121-.086 4190.66 4190.66 0 012.141-3.053zm-5.206-3.207c.351-.536.777-1.024 1.172-1.531a1.29 1.29 0 01.196-.142c.12.417.251.786.326 1.166.064.328.057.67.095 1.003.014.113.035.268.11.324a.602.602 0 01.207.66 5.926 5.926 0 01-.372 1.464 3.3 3.3 0 01-.839.87c-.175.137-.36.259-.554.365a16.784 16.784 0 01-.82-2.192 2.602 2.602 0 01.479-1.987zm-.468 3.874a2.795 2.795 0 01-.114 1.636 1.75 1.75 0 00-.212.68c-.012.121.127.257.198.386.112-.08.29-.14.326-.245.111-.54.394-1.03.807-1.397.16-.082.334-.136.513-.16.168-.03.334-.074.497-.129a2.297 2.297 0 011.59-.396c-.127.24-.25.464-.366.69a7.527 7.527 0 01-1.587 2.356c-.44.388-.944.705-1.397 1.08a3.397 3.397 0 00-.442.55l-.121-.07a6.391 6.391 0 00-.265-.864 8.806 8.806 0 00-.702-1.3 2.317 2.317 0 01-.278-1.823c.127-.697.343-1.378.542-2.15.392.438.988.533 1.011 1.156zm-5.274 1.277a4.923 4.923 0 01-.011-.989c.06 0 .12 0 .18.002.4 2.082.541 4.206.42 6.323-.636.013-.932-.514-1.012-1.04a5.154 5.154 0 01.267-1.778c.222-.82.275-1.677.156-2.518zm-1.87 6.799l.153.008c-.038.71-.076 1.422-.112 2.133l-.117-.005a3.223 3.223 0 01.075-2.136zm.28 9.613a.494.494 0 01-.083.377c-.185.277-.402.532-.656.86-.144-.302-.268-.556-.387-.812a2.834 2.834 0 00-.306-.65 2.23 2.23 0 01-.27-1.998.723.723 0 01.43-.571c.191-.097.296-.366.437-.56.058-.08.113-.162.169-.243.09 1.22.314 2.426.667 3.597zm-.992-6.12a1.597 1.597 0 01-.626 1.808c.042-.684.126-1.335.108-1.984-.02-.768.186-1.584-.375-2.35-.062.13-.136.214-.137.299-.011.716.01 1.433-.016 2.149-.022.466-.09.928-.204 1.38-.474-.615-1.091-1.143-.788-2.05.108-.384.186-.777.234-1.174a.805.805 0 01.411-.704c.196-.107.255-.481.355-.743a1.559 1.559 0 01.802-1.008c-.078.43-.17.858-.227 1.291a9.16 9.16 0 00.463 3.087zm-3.887-18.19c.157.945.177 1.906.059 2.856a.447.447 0 01-.04.152c-.324.532-.651 1.062-.973 1.585-.302-.415-.648-.828-.923-1.283a3.277 3.277 0 01-.245-1.998.846.846 0 01.055-.313c.118-.235.267-.454.388-.688a6.1 6.1 0 00.422-.882 2.405 2.405 0 011.281-1.359c0 .187.003.31 0 .43-.04.5-.048 1-.024 1.5zm-5.216-4.762c.229.12.466.225.71.313a1.197 1.197 0 01.547.958c.009.136-.05.32.017.4a.888.888 0 00.465.266c.062.013.244-.194.245-.302.002-.486-.067-.973-.06-1.459.006-.306.06-.61.16-.9.059-.172.242-.3.364-.453.207-.262.408-.528.613-.792.071-.092.146-.18.297-.367.252.836.513 1.55.673 2.285.085.498.114 1.004.087 1.508a1.4 1.4 0 01-.19.645c-.359.634-.746 1.252-1.126 1.88-.196-.312-.397-.652-.617-.98a2.954 2.954 0 00-1.425-1.13 1.42 1.42 0 01-1.066-1.123c-.048-.324-.152-.639-.254-1.051.228.124.39.22.56.302zm-1.782-9.39c.103-.437.144-.89.228-1.45.744.9 1.582 1.572 1.96 2.581.202.453.22.968.046 1.433-.212.615-.39 1.24-.532 1.875a2.573 2.573 0 01-1.859-2.06c-.032-.262-.107-.52-.155-.782-.011-.064-.02-.173.014-.195.562-.37.188-.938.298-1.402zm-.877 6.758a8.688 8.688 0 01-.102.085 8.193 8.193 0 01-2.307-2.802l.131-.106 2.278 2.823zm-.233-2.104a2.499 2.499 0 011.594.329c.123.052.271.154.372.122.679-.223.9.329 1.199.709.131.23.246.471.342.72.055.095.185.148.28.22.067-.113.199-.233.187-.337a1.72 1.72 0 00-.202-.722 1.99 1.99 0 01-.2-1.623c.07-.3.095-.588.464-.718.145-.052.225-.286.349-.457.048.036.13.065.144.112.261.921.552 1.837.748 2.773.01.332-.069.661-.228.953-.3.76-.635 1.506-.931 2.202a8.866 8.866 0 01-4.118-4.283zm-4.059 15.234c.186-.637.283-1.299.425-1.949a2.64 2.64 0 01.17-.386c.562 1.009 1.438 1.696 1.653 2.788.145.497.113 1.03-.091 1.505-.23.522-.426 1.059-.587 1.606-.088.255-.184.396-.434.133a1.446 1.446 0 00-.413-.32c-.764-.353-.804-1.076-.97-1.765a2.982 2.982 0 01.247-1.612zm-.03 4.177c.283.055.561.138.829.248.268.137.5.337.675.583.138.3.256.608.353.923.067.144.228.245.347.365.072-.135.214-.277.201-.404a3.578 3.578 0 00-.21-.848 3.133 3.133 0 01.228-2.028.242.242 0 01.096-.126c.246-.157.496-.308.805-.498.032.103.083.235.112.37.265.847.39 1.731.37 2.618a2.457 2.457 0 01-.24.872c-.43.819-.9 1.616-1.36 2.431a3.526 3.526 0 00-.307-.32c-.482-.41-.985-.794-1.454-1.217a7.573 7.573 0 01-1.632-2.609 4.525 4.525 0 01-.215-.475c-.062-.188-.041-.338.224-.255.392.124.784.25 1.177.37zm-8.637-8.606l.165-.02a8.976 8.976 0 01.399 3.603l-.125.016-.439-3.599zm-2.775 8.36c.079.015.162.082.227.065.967-.258 1.336.557 1.868 1.055.19.207.348.44.47.693.129.224.284.392.532.215.242-.174.163-.41.04-.644-.164-.313-.306-.64-.444-.966-.027-.067-.024-.203.018-.233.38-.27.311-.718.454-1.08.042-.105.076-.213.149-.424.278.598.542 1.092.731 1.615a.913.913 0 01-.09.655 4.223 4.223 0 00-.29 3.477 1.228 1.228 0 01-.303-.092 4.66 4.66 0 00-1.422-.594 2.798 2.798 0 01-1.802-1.56c-.372-.754-.732-1.513-1.15-2.38.41.079.712.136 1.012.197zm-3.18-7.041a23.988 23.988 0 01-.405-2.746c.459.114.88.349 1.218.679.177.15.342.312.495.486a.82.82 0 00.648.353c.14-.005.324.185.425.33.214.306.378.645.575.962a2.543 2.543 0 01-.021 2.233c-.017.057-.031.115-.048.172a16.156 16.156 0 01-2.033-1.189 2.562 2.562 0 01-.854-1.28zm1.266 2.507a.7.7 0 01.762.19c.47.32.821.788 1 1.33.13.33.313.636.541.908l.187-.04c.01-.17.008-.342-.004-.513-.052-.396-.137-.788-.181-1.184a.738.738 0 01.354-.861c.16-.087.187-.396.3-.589.225-.385.468-.76.703-1.14l.144.044c.126.526.266 1.048.375 1.577.122.465.197.941.225 1.421-.032.492-.102.98-.212 1.46-.082.498-.169.996-.255 1.494-.022.13-.048.258-.079.422-.416-.28-.787-.566-1.191-.79-.336-.184-.735-.256-1.066-.446a2.807 2.807 0 01-.98-.756c-.473-.723-.839-1.515-1.24-2.283a.785.785 0 01-.03-.274c.213.048.431.058.647.03zm4.593 23.766c.012-.151.042-.3.089-.444.681.84 1.715 1.402 1.929 2.557.036.375.015.754-.062 1.123-.06.488-.151.974-.234 1.46-.017.07-.04.14-.07.207-1.05-.564-1.42-1.578-1.805-2.581a.265.265 0 01-.003-.201c.43-.68.03-1.42.156-2.121zm-1.785 4.587c-.048-.072-.079-.158-.17-.345.325.081.548.141.774.191.169.039.363.136.506.088.623-.212 1.007.217 1.44.498.226.171.442.355.646.551.29.259.47.62.5 1.008.132.59.306 1.169.52 1.734a2.883 2.883 0 01-2.75-1.522c-.458-.753-.977-1.469-1.466-2.203zm-2.01-.186a3.795 3.795 0 011.513 1.235c.551.775 1.163 1.507 1.747 2.259.027.06.048.122.062.186a1.756 1.756 0 01-.6-.118 20.678 20.678 0 01-2.057-1.463c-.723-.622-1.37-1.332-2.035-2.018-.317-.327-.599-.689-.924-1.068.809.346 1.563.642 2.294.987zm-1.6-2.725c.568.42 1.087.908 1.653 1.389a1.3 1.3 0 01-1.629-.179c-1.25-.869-2.46-1.796-3.686-2.701a1.282 1.282 0 01-.132-.163 4.41 4.41 0 012.049.541c.607.329 1.19.701 1.744 1.113zm1.793-2.214c.04-.027.147.036.22.066a6.658 6.658 0 012.175 1.716c.102.125.176.27.219.425.191.581.37 1.165.566 1.787-.551-.146-1.068-.318-1.598-.416a3.776 3.776 0 01-1.805-1.066c-.787-.701-1.567-1.41-2.359-2.105a6.35 6.35 0 00-.637-.435 2.225 2.225 0 012.093-.092c.362.132.711.405 1.126.12zm-.572-3.923c.01-.161.035-.322.073-.48l.131-.058 2.54 2.89a1.257 1.257 0 01.29.938c-.02.466-.005.932-.005 1.399l-.183.031c-.652-.807-1.75-1.11-2.268-2.07-.147-.27-.315-.528-.463-.796a.869.869 0 01-.086-.862c.119-.274-.024-.657-.029-.992zm-6.008-1.17c.401.038.806-.024 1.177-.179.148-.086.49.056.688.18.601.373 1.176.786 1.759 1.187.077.053.136.172.213.18.192.02.493.07.563-.026.131-.183.048-.413-.15-.604a12.433 12.433 0 01-.866-.986c-.048-.056-.102-.175-.076-.217.27-.432.043-.853-.007-1.278-.014-.118-.002-.24-.002-.481.145.186.305.36.477.52a2.645 2.645 0 011.095 2.599c-.044.906.22 1.8.75 2.536.075.124.13.26.224.45-.222-.055-.386-.102-.552-.134a7.94 7.94 0 00-1.218-.213 3.09 3.09 0 01-2.028-.76c-.89-.812-1.694-1.72-2.603-2.659.183-.048.369-.087.556-.114zm-.447-9.762l.09-.05a11.31 11.31 0 012.397 4.278l-.095.053-2.392-4.28zm-3.489 4.517a2.86 2.86 0 01-1.454-.871 8.98 8.98 0 01-1.586-2.309c-.135-.225-.276-.447-.414-.67l.069-.131c.494.147.994.277 1.479.45.377.135.732.326 1.099.491.072.032.16.095.221.077.636-.192.98.316 1.387.607.375.285.71.62.996.995.142.222.236.471.275.732.099.41.162.828.253 1.31-.436-.163-.807-.328-1.195-.443a7.859 7.859 0 00-1.13-.238zm.792.893a.38.38 0 01.25-.01 3.828 3.828 0 012.223 1.47c.24.28.517.525.825.727.297-.262.188-.422.017-.6a3.727 3.727 0 01-1.025-1.782 1.134 1.134 0 01.059-.418c.046-.24.187-.505.128-.716-.155-.562.132-1.008.224-1.504l.132-.042c.241.34.51.664.72 1.022.485.83.965 1.664 1.402 2.519.133.32.217.657.249 1.002.118.718.212 1.44.32 2.185a2.588 2.588 0 01-.3-.112 8.738 8.738 0 00-2.51-.644 3.058 3.058 0 01-1.354-.624c-.72-.585-1.36-1.269-2.028-1.917a.54.54 0 01-.097-.183c.278-.137.518-.264.765-.373zm33.084 62.141c-.017-.323-.052-.645-.086-.967a670.388 670.388 0 00-.322-3.049c-.085-.776-.16-1.552-.267-2.325-.111-.795-.261-1.584-.387-2.378a617.41 617.41 0 01-.569-3.65c-.045-.29-.08-.581-.12-.872.512.504.815 1.183.85 1.901.144 1.104.283 2.209.417 3.315.113.947.218 1.895.321 2.843.065.588.121 1.178.176 1.767.03.336.04.674.076 1.009.106.949.22 1.896.323 2.845-.13-.019-.26-.035-.39-.055l-.022-.384zM96 34.323a61.676 61.676 0 1061.677 61.676A61.747 61.747 0 0096 34.323z" fill="#DCDFE0"/><path fill-rule="evenodd" clip-rule="evenodd" d="M96 189.22A93.221 93.221 0 11189.22 96 93.323 93.323 0 0196 189.22zM96 0a96 96 0 1096 96A96.111 96.111 0 0096 0zm34.374 161.693l2.52 3.157-2.638 1.346-1.077-3.894c-.266-1.031-.671-2.333-1.042-3.468l.061-.032.023.031c.686.939 1.45 1.986 2.153 2.86zm1.523 10.521l-1.217-4.626 3.091-1.575 3.033 3.7 1.566-.799-10.179-12.315-1.752.894 3.912 15.51 1.546-.789zm-73.564-.76a5.103 5.103 0 002.183.672l.419-1.452a4.194 4.194 0 01-1.585-.463c-1.702-.891-2.532-3.1-.323-7.325 2.21-4.225 4.702-4.748 6.178-3.977.484.231.904.577 1.225 1.007l1.045-1.152a3.779 3.779 0 00-1.52-1.238c-2.194-1.148-5.812-.819-8.665 4.635-2.455 4.697-1.643 7.888 1.043 9.293zm14.006-3.983l1.91-6.413-1.71-.51-4.452 14.957 1.708.509 2.081-6.99 4.194 1.25-2.08 6.989 1.708.509 4.454-14.957-1.71-.508-1.909 6.412-4.194-1.248zm18.16 6.374l-.461-4.016c-.133-1.127-.226-2.436-.308-3.606l-.07-.006c-.288 1.16-.637 2.476-.96 3.496l-1.154 3.872 2.953.26zm-3.333 1.146l-1.427 4.57-1.729-.153 4.924-15.23 1.96.172 2.087 15.85-1.753-.154-.603-4.749-3.46-.306zm12.662-10.445l1.722 15.503 1.588-.177-.596-5.359c-.368-3.313-.634-5.285-1.003-7.339l.046-.006a50.144 50.144 0 002.448 5.06l3.774 7.125 1.655-.184-1.722-15.503-1.588.176.617 5.545c.298 2.691.59 4.684.999 7.107l-.047.005c-.63-1.427-1.505-3.116-2.273-4.596v-.002l-.305-.588-3.659-6.951-1.656.184zm16.275-1.308l-2.72.843-.471-1.525 7.141-2.214.471 1.525-2.72.844 4.149 13.374-1.701.529-4.149-13.376zM90.239 27.135l-.49-15.592 1.667-.051 3.098 7.218.271.646c.645 1.53 1.378 3.267 1.888 4.73l.047-.002a118.09 118.09 0 01-.434-7.164l-.174-5.576 1.596-.05.489 15.592-1.666.052-3.196-7.403a49.873 49.873 0 01-2.04-5.238l-.046.002c.204 2.077.312 4.064.417 7.396l.17 5.39-1.597.05zm-11.88-8.18l1.708 3.663-2.882.689-.132-4.039c-.016-1.066-.103-2.426-.197-3.618l.068-.016.024.058c.443 1.068.937 2.256 1.412 3.264zm-.994 10.59l-.095-4.784 3.378-.806 2.075 4.312 1.711-.41-6.999-14.367-1.913.457.155 16.003 1.688-.404zM64.063 17.693l-1.644.69 6.04 14.391 1.644-.69-6.04-14.391zm-16.829 9.096l8.371 13.168 1.348-.857-2.894-4.553c-1.788-2.812-2.895-4.468-4.13-6.152l.039-.024a49.975 49.975 0 004.426 3.467l6.527 4.741 1.407-.894-8.372-13.17-1.348.858 2.993 4.71a118.105 118.105 0 004.026 5.944l-.04.024c-1.181-.994-2.693-2.113-4.025-3.098l-.573-.425-6.349-4.634-1.406.895zm-7.373 5.936l-1.324 1.195L48.998 45.5l1.324-1.196-10.462-11.58zm-5.4 13.602l3.595 1.845-1.854 2.312-2.583-3.11a63.041 63.041 0 00-2.375-2.736l.043-.054c1.02.58 2.16 1.23 3.173 1.743zm5.712 8.974l-3.011-3.721 2.173-2.71 4.286 2.133 1.101-1.374-14.348-7.052-1.23 1.534 9.944 12.545 1.085-1.355zm-13.76 7.008l.351-.678c.777-1.502.189-3.085-1.478-3.946-1.604-.831-2.931-.684-3.825.992a3.672 3.672 0 00-.354.886l5.306 2.746zM19.21 60.56a9.833 9.833 0 01.902-2.4 4.81 4.81 0 012.605-2.616 4.206 4.206 0 013.217.439 4.125 4.125 0 012.427 4.072l.042.021c.84-.868 2.104-.892 4.064-.243a21.2 21.2 0 003.91 1.007l-.83 1.604a20.228 20.228 0 01-3.797-1.025c-2.072-.682-3.08-.448-3.782.91l-.32.617 6.026 3.117-.808 1.565L19.21 60.56zm-5.17 13.51l-.496 1.689 14.976 4.394.495-1.688-5.776-1.695-1.196-1.269 8.12-.947.542-1.844-9.679 1.238-5.323-5.544-.555 1.888 4.49 4.358.262.244c.412.381.836.775 1.263 1.217l-.013.045-7.11-2.087zm7.544 18.178l-10.422-.91-.155 1.776 10.353.902c3.85.336 5.505-1.053 5.707-3.382.203-2.305-1.198-4.1-5.233-4.452l-10.146-.884-.155 1.776 10.423.908c2.72.237 3.66 1.18 3.546 2.492-.1 1.153-1.128 2.016-3.918 1.774zm95.888-70.181c.218.101.442.188.67.261 1.656.526 3.125-.2 3.797-2.318.482-1.523.298-3.087-1.6-3.689a3.648 3.648 0 00-.983-.191l-1.884 5.937zm.591-7.683c.865.054 1.719.219 2.541.49a4.866 4.866 0 012.967 2.132 4.471 4.471 0 01.102 3.433 4.962 4.962 0 01-1.871 2.759 4.545 4.545 0 01-4.034.542h-.001a8.494 8.494 0 01-.743-.26l-1.932 6.091-1.678-.532 4.649-14.655zm13.136 12.895l.671.365c1.485.809 3.079.253 3.976-1.395.863-1.585.744-2.915-.914-3.844a3.64 3.64 0 00-.878-.372l-2.855 5.246zm1.897-7.165a9.833 9.833 0 012.381.953 4.8 4.8 0 012.559 2.658 4.195 4.195 0 01-.505 3.204 4.12 4.12 0 01-4.122 2.343l-.022.042c.851.859.848 2.12.158 4.066a21.238 21.238 0 00-1.087 3.89l-1.587-.864a20.25 20.25 0 011.105-3.775c.724-2.057.511-3.07-.83-3.8l-.611-.332-3.243 5.958-1.546-.841 7.35-13.502zm7.844 21.784c-1.528-1.278.044-4.13 2.11-6.596 2.036-2.432 4.596-4.514 6.105-3.252 1.543 1.293-.263 4.28-2.135 6.516-1.962 2.343-4.555 4.61-6.08 3.331zm-1.118 1.118c1.935 1.618 4.903 1.175 8.662-3.314 3.196-3.816 3.828-7.06 1.786-8.77-2.075-1.738-5.31-.794-8.624 3.163-3.374 4.03-3.812 7.256-1.824 8.92zm9.969 7.618c.109.196.237.382.38.555 1.226 1.539 3.532 2.132 7.68-1.17 3.081-2.451 4.017-4.733 2.459-6.69a3.242 3.242 0 00-.59-.594l-9.929 7.899zm9.811-10.054a8.298 8.298 0 011.72 1.679 5.215 5.215 0 011.354 3.597c-.066 1.591-1.081 3.552-3.636 5.585-2.789 2.219-4.859 2.74-6.331 2.64a5.535 5.535 0 01-3.986-2.333 9.67 9.67 0 01-1.097-1.641l11.976-9.527zm1.621 20.28l9.344-4.716-.803-1.593-9.282 4.686c-3.452 1.742-4.128 3.795-3.074 5.883 1.043 2.068 3.18 2.857 6.798 1.031l9.095-4.592-.803-1.592-9.345 4.717c-2.439 1.231-3.735.926-4.33-.253-.521-1.034-.101-2.308 2.4-3.572zm2.557 20.47a5.09 5.09 0 01-1.005-2.052c-.816-2.92.958-5.698 6.064-7.123 5.932-1.655 8.648.76 9.312 3.145.219.629.266 1.304.138 1.957l-1.555.025a3.282 3.282 0 00-.104-1.58c-.449-1.606-2.538-3.066-7.131-1.784-4.593 1.28-5.637 3.399-5.121 5.25.149.536.403 1.037.748 1.474l-1.346.688zm14.557 3.664l.263 2.836-13.945 1.285.164 1.775 13.943-1.285.262 2.835 1.59-.147-.687-7.445-1.59.146zm-13.631 51.381a2.741 2.741 0 01-1.689 2.528 2.742 2.742 0 01-2.982-.593 2.738 2.738 0 011.935-4.671 2.729 2.729 0 011.934.802 2.725 2.725 0 01.802 1.934zm-132.007 0a2.736 2.736 0 11-5.472 0 2.736 2.736 0 015.472 0z" fill="#DCDFE0"/></svg>