<svg width="201" height="98" fill="none" xmlns="http://www.w3.org/2000/svg"><path opacity=".1" d="M179.474 70.457c1.427-10.252 3.521-24.112 3.807-29.236h.285c.667 6.643 2.189 17.181 3.9 29.236h-7.992zm10.086-37.21h-12.084l-10.372 63.41h8.658l2.57-18.32h10.181l2.856 18.32h8.943l-10.752-63.41zm-98.116-6.28L96.426.488h-7.85a131.31 131.31 0 00-2.938 18.505h-.284A152.2 152.2 0 0082.324.489h-8.107l5.14 26.477h12.087zm77.87 6.28H140.29v7.879h10.277v55.531h8.47V41.126h10.277v-7.88zm-40.933 18.985c0 10.347 0 19.269.475 27.433h-.191a106.83 106.83 0 00-2.474-11.297l-9.323-35.122h-9.993v63.411h7.995V77.102c0-11.485-.096-20.693-.478-28.382h.096c.382 1.898.855 4.556 1.713 7.877l10.466 40.06h9.61v-63.41h-7.896v18.985zM81.088 70.457c1.426-10.252 3.52-24.112 3.807-29.236h.284c.665 6.643 2.19 17.181 3.9 29.236h-7.991zm-1.999-37.21l-10.372 63.41h8.659l2.57-18.32h10.18l2.856 18.32h8.944l-10.753-63.41H79.09zM54.917 59.43H43.31V33.246h-8.563v63.411h8.563V67.31h11.608v29.347h8.566v-63.41h-8.566V59.43zM19.344 81.183c0 5.222-.951 8.638-5.043 8.638-4.187 0-5.234-3.607-5.234-8.638v-33.32c0-4.84 1.142-7.781 5.043-7.781 4.092 0 5.045 3.133 5.045 7.689v11.026h8.563V48.72c0-8.638-2.189-16.327-13.512-16.327-9.422 0-13.893 6.075-13.893 16.04v32.085c0 9.494 2.284 16.992 13.701 16.992 12.658 0 13.989-9.586 13.989-17.18V66.094l-8.659 3.57v11.52z" fill="#0B0D0E"/></svg>