<svg width="134" height="105" fill="none" xmlns="http://www.w3.org/2000/svg"><path d="M0 61.69v43.23l133.333-54.195V7.495L0 61.688z" fill="#0B0D0E"/><path d="M0 54.195v3.86L133.333 3.862V0L0 54.195z" fill="#AF272F"/><path d="M57.918 69.247c.366-2.636.903-6.2.976-7.518h.073c.171 1.708.562 4.418 1 7.518h-2.05zm2.587-9.568h-3.1l-2.66 16.304h2.22l.66-4.71h2.611l.733 4.71h2.294L60.505 59.68zm-25.168-1.615l1.278-6.808h-2.013a33.833 33.833 0 00-.754 4.758h-.072c-.162-1.6-.422-3.19-.778-4.758h-2.08l1.32 6.808h3.1zm19.975 1.615h-7.445v2.026h2.636v14.278h2.172V61.705h2.637v-2.026zm-10.5 4.882c0 2.66 0 4.954.122 7.053h-.049a27.517 27.517 0 00-.634-2.904l-2.392-9.031h-2.563v16.304h2.05v-5.028c0-2.953-.024-5.32-.122-7.297h.024c.099.487.22 1.171.44 2.025l2.684 10.3h2.466V59.68h-2.026v4.882zm-12.13 4.686c.365-2.636.902-6.2.976-7.518h.073c.17 1.708.561 4.418 1 7.518h-2.05zm-.513-9.568l-2.661 16.304h2.221l.66-4.71h2.61l.733 4.71h2.294L35.268 59.68h-3.1zm-6.2 6.732H22.99V59.68h-2.197v16.304h2.197v-7.546h2.977v7.546h2.197V59.68h-2.197v6.732zm-9.125 5.594c0 1.342-.244 2.22-1.294 2.22-1.074 0-1.343-.927-1.343-2.22v-8.568c0-1.244.293-2 1.294-2 1.05 0 1.294.805 1.294 1.977v2.835h2.197v-2.591c0-2.222-.562-4.199-3.467-4.199-2.416 0-3.563 1.562-3.563 4.125v8.25c0 2.44.586 4.369 3.514 4.369 3.247 0 3.589-2.465 3.589-4.418v-3.66l-2.221.918v2.962z" fill="#FCFCFC"/></svg>