<svg width="76" height="30" fill="none" xmlns="http://www.w3.org/2000/svg"><path fill-rule="evenodd" clip-rule="evenodd" d="M36.068.02c.786-.016 1.266.846.85 1.513l-1.264 2.021c-.631 1.01.713 2.079 1.555 1.237L41.597.403a.992.992 0 01.754-.29c1.153.06 2.276.146 3.368.254a.982.982 0 01.723 1.513l-.511.798c-.627.98.64 2.06 1.508 1.286l2.899-2.588a1 1 0 01.846-.235C67.969 4.282 76 13.397 76 21.957 76 26.75 58.987 30 38 30S0 26.481 0 21.957C0 12.95 8.1 4.052 25.032 1.058c.842-.149 1.442.772.981 1.492l-.082.128c-.627.98.64 2.06 1.508 1.286L31.36.463a.993.993 0 01.59-.25A78.69 78.69 0 0136.067.02z" fill="#2E3133"/></svg>