<svg width="250" height="250" fill="none" xmlns="http://www.w3.org/2000/svg"><path d="M127.162 201.635c.104-.689.202-1.378.315-2.066.312-1.908.567-3.83.994-5.713.509-2.249 1.165-4.465 1.775-6.691a61.6 61.6 0 013.201-8.478.756.756 0 01.593-.37 3.06 3.06 0 002.953-2.235c.168-.658.425-1.29.764-1.879a5.719 5.719 0 013.134-2.871c2.166-1.2 4.339-2.386 6.498-3.597.637-.358 1.241-.773 1.843-1.188.105-.072.119-.273.175-.415a2.6 2.6 0 00-.438-.073c-.078-.001-.158.069-.234.112-1.277.708-2.544 1.436-3.833 2.121-1.143.607-2.307 1.171-3.467 1.746-.43.212-.873.396-1.31.593.362-.869.816-1.614 1.185-2.4a5.003 5.003 0 012.824-2.519 19.454 19.454 0 004.258-2.429 33.138 33.138 0 002.888-2.456 29.102 29.102 0 002.131-2.31c.308-.361.489-.828.776-1.21.578-.769 1.21-1.497 1.781-2.271.652-.882 1.258-1.798 1.893-2.693a17.225 17.225 0 012.854-2.448c1.218-1.11 2.445-2.208 3.654-3.328.107-.098.108-.308.158-.467l-.166-.112c-.646.526-1.279 1.069-1.939 1.575-1.773 1.361-3.503 2.785-5.351 4.034-1.627 1.099-3.383 2.013-5.101 2.971a1.425 1.425 0 01-1.821-.048 1.633 1.633 0 00-.571-.243c-.383-.131-.426-.306-.118-.585.309-.279.6-.58.892-.876.566-.579 1.088-1.208 1.701-1.732a8.568 8.568 0 013.397-1.396 37.487 37.487 0 003.841-.93 17.21 17.21 0 004.81-3.101c.989-.859 1.872-1.839 2.852-2.709a15.404 15.404 0 012.246-1.71 9.51 9.51 0 012.645-1.589c.097-.022.147-.252.218-.386a1.363 1.363 0 00-.446-.005c-.189.062-.348.215-.535.285a6.01 6.01 0 00-.89.271 22.643 22.643 0 00-4.243 3.052c-.831.765-1.648 1.546-2.504 2.283a17.788 17.788 0 01-4.416 2.764c-1.421.632-2.476-.194-3.67-.536.982-.907 1.89-1.763 2.816-2.6a7.682 7.682 0 012.76-1.538 18.935 18.935 0 003.434-1.497c1.683-.978 3.295-2.083 4.902-3.186a27.095 27.095 0 014.796-2.612c.33-.14.597-.264.042-.689 1.165-.455 2.201-.893 3.262-1.261.752-.26 1.538-.419 2.305-.638.113-.032.203-.149.303-.226-.126-.067-.249-.183-.38-.19-.448-.025-.899-.01-1.349-.01.281-.3.612-.551.977-.74a30.428 30.428 0 015.554-2.259c.613-.194 1.203-.461 1.804-.694l-.047-.18a3.017 3.017 0 00-.879-.058 26.11 26.11 0 00-5.801 1.992c-1.306.657-2.576 1.39-3.836 2.135a2.667 2.667 0 01-2.093.379 2.668 2.668 0 01-1.71-1.267c.034-.038.064-.103.105-.113a10.347 10.347 0 003.547-1.733 5.086 5.086 0 013.556-.994c.476.073.961.066 1.434-.02 1.232-.294 2.446-.658 3.663-1.014a15.58 15.58 0 015.875-.996c.269-.013.535-.065.79-.153l.028-.223a4.097 4.097 0 00-1.023-.344 12.1 12.1 0 00-3.92.366c-1.592.43-3.178.883-4.782 1.261a2.302 2.302 0 01-2.652-.802c.742-.388 1.473-.783 2.217-1.157a8.238 8.238 0 012.022-.93 19.317 19.317 0 013.371-.236 12.008 12.008 0 003.98-1.014c1.207-.438 2.401-.91 3.6-1.37.532-.204 1.061-.412 1.591-.619a11.349 11.349 0 00-.047-.197 1.6 1.6 0 00-.589-.107c-.851.162-1.692.378-2.516.646a21.681 21.681 0 01-5.886 1.725 2.507 2.507 0 01-2.309-1.069 9.743 9.743 0 003.247-2.378c.41-.414.834-.817 1.28-1.189a8.515 8.515 0 013.422-1.612 19.655 19.655 0 015.208-.841 14.125 14.125 0 001.632-.11c.124-.013.237-.143.355-.219l-.034-.161a4.387 4.387 0 00-1.283-.335 64.17 64.17 0 00-4.245.369c-1.316.153-2.619.424-3.936.554-1.09.108-2.191.074-3.287.124a13.62 13.62 0 00-5.644 1.745 8.55 8.55 0 00-.774.504c-.204-.749-.375-1.439-.581-2.119a.75.75 0 01.172-.86 10.832 10.832 0 012.597-1.654 55.676 55.676 0 018.227-3.716c.163-.059.274-.261.41-.396a6.725 6.725 0 00-.127-.168c-3.544.637-6.627 2.493-9.907 3.85 1.431-1.222 3.235-1.812 4.769-2.889a.556.556 0 00-.429-.113c-.804.314-1.609.627-2.394.985a24.582 24.582 0 00-5.784 3.844 14.454 14.454 0 00-3.514 4.408 9.713 9.713 0 01-3.821 4.162 4.108 4.108 0 01.083-.849c.1-.222.23-.43.386-.618a35.458 35.458 0 014.406-5.356c1.115-1.106 2.289-2.154 3.43-3.235.076-.1.136-.211.176-.33-.049-.053-.099-.104-.149-.156a5.322 5.322 0 01-.659.465 15.766 15.766 0 00-3.402 2.808 23.383 23.383 0 00-2.252 2.456c-1.157 1.423-2.244 2.903-3.382 4.343a19.692 19.692 0 01-1.732 2.007 24.08 24.08 0 01-1.934 1.525c-.362.285-.715.583-1.142.93.012-.217-.017-.339.028-.423a27.35 27.35 0 011.863-3.438c1.008-1.389 2.224-2.625 3.342-3.935.104-.155.191-.321.259-.495l-.125-.113a1.45 1.45 0 00-.442.187c-.746.69-1.506 1.369-2.206 2.104a22.242 22.242 0 00-3.492 5.015 11.491 11.491 0 01-1.784 2.446 17.67 17.67 0 01-2.128 1.699c-.124.098-.254.189-.381.283a13.387 13.387 0 012.666-5.253c1.477-1.676 3.141-3.186 4.715-4.779.118-.159.214-.334.285-.519a9.93 9.93 0 01-.117-.151 3.07 3.07 0 00-.637.315c-.596.493-1.191.991-1.747 1.527a137.77 137.77 0 00-2.81 2.808c-.377.384-.649.936-1.096 1.17a7.619 7.619 0 00-2.323 2.027c-1.464 1.77-2.971 3.506-4.416 5.291a8.643 8.643 0 00-1.762 3.571 5.613 5.613 0 01-1.608 3.112 23.614 23.614 0 00-1.714 1.809c-.263.29-.483.617-.724.927l-.128-.054c.044-.388.131-.77.258-1.139.623-1.338 1.239-2.683 1.96-3.969a27.382 27.382 0 013.544-4.736 2.264 2.264 0 00.611-2.382 23.901 23.901 0 003.895-4.943.706.706 0 00-.467.195c-.496.516-.967 1.055-1.47 1.565-1.053 1.07-2.074 2.18-3.196 3.172-1.099.97-2.297 1.829-3.475 2.704-.413.266-.845.502-1.292.707.017-.153.007-.204.026-.218a7.418 7.418 0 002.042-2.81 3.32 3.32 0 011.796-1.798 15.644 15.644 0 005.231-3.517c.611-.583 1.255-1.131 1.894-1.685.728-.634 1.475-1.248 2.195-1.89.131-.158.238-.336.316-.526l-.105-.124a1.436 1.436 0 00-.522.136c-1.115.876-2.213 1.774-3.319 2.66-1.241.997-2.461 2.022-3.742 2.967-.593.358-1.217.662-1.865.908.026-.136.069-.268.126-.394a19.849 19.849 0 001.608-2.1 4.213 4.213 0 012.075-1.827 16.02 16.02 0 001.83-.74 16.46 16.46 0 002.166-1.552 182.377 182.377 0 004.552-3.919c.489-.433.826-1.072 1.272-1.488 1.282-1.2 2.763-2.186 4.131-3.297.58-.47 1.074-1.046 1.608-1.573a14.613 14.613 0 00-.161-.243c-.23.086-.45.196-.657.327-1.092.848-2.115 1.796-3.266 2.552a40.551 40.551 0 01-3.968 2.196c-.607.26-1.232.475-1.871.644.191-.394.424-.765.694-1.11a6.797 6.797 0 013.408-2.6 26.942 26.942 0 006.192-3.337c.229-.157.315-.524.467-.793a2.782 2.782 0 00-.827.238 24.956 24.956 0 01-5.636 2.826c-.418.124-.842.224-1.272.299.245-.41.541-.788.879-1.125a13.224 13.224 0 011.992-1.894 20.159 20.159 0 013.05-1.465 66.843 66.843 0 007.916-4.021c.38-.271.735-.575 1.061-.909l-.113-.163a8.653 8.653 0 00-1.164.392c-.731.363-1.417.815-2.153 1.163a313.438 313.438 0 01-6.131 2.803c-.412.183-.887.415-1.381-.015.35-.304.699-.572 1.007-.881a4.435 4.435 0 012.393-1.19 15.655 15.655 0 004.7-1.5 39.628 39.628 0 004.076-2.535 35.009 35.009 0 003.095-2.756c.15-.139.175-.411.258-.622-.063-.042-.128-.082-.192-.124a26.65 26.65 0 01-4.194 3.211.486.486 0 01.138-.261c1.21-1.108 2.426-2.21 3.631-3.322.703-.647 1.408-1.294 2.073-1.98a9.21 9.21 0 00.804-1.099c-.049-.056-.099-.112-.147-.169a3.767 3.767 0 00-.721.402c-1.778 1.58-3.527 3.193-5.32 4.756a21.502 21.502 0 01-2.191 1.608.775.775 0 01-.67.017c-.624-.344-1.204-.766-1.818-1.129-.255-.151-.228-.27-.048-.438.496-.408.964-.85 1.399-1.324a19.84 19.84 0 001.913-2.676c.52-1.024.982-2.076 1.384-3.151.714-1.7 2.075-2.968 3.005-4.522.534-.89 1.005-1.82 1.47-2.748.067-.134-.056-.36-.09-.545-.139.104-.324.18-.41.318-.357.577-.635 1.209-1.035 1.753-.777 1.056-1.638 2.049-2.428 3.096a8.958 8.958 0 01-4.298 3.063 6.632 6.632 0 00-3.184 1.949c-.1.085-.213.154-.335.201-.622-1.24-.711-1.778-.069-2.904a16.747 16.747 0 011.911-2.614c.754-.871 1.631-1.637 2.433-2.47.36-.383.693-.79.996-1.22.087-.12.046-.333.064-.503-.157.032-.308.09-.446.172-.281.242-.535.52-.798.785-1.264 1.263-2.572 2.484-3.776 3.802a7.36 7.36 0 00-1.933 3.644 4.056 4.056 0 01-.804 1.797c-.955 1.142-2.031 2.181-3.083 3.287a2.109 2.109 0 01-.541-1.681c.14-.575.36-1.127.651-1.642.629-1.064 1.333-2.083 2.009-3.119a15.005 15.005 0 002.143-4.273 2.06 2.06 0 00.067-.672c-.008-.11-.144-.213-.222-.318a1.88 1.88 0 00-.295.244 1.188 1.188 0 00-.106.289 15.686 15.686 0 01-.951 2.25c-.935 1.528-1.973 2.994-2.957 4.494a8.966 8.966 0 00-1.524 3.407 5.663 5.663 0 01-1.707 3.27 8.172 8.172 0 00-2.142 3.071 1.638 1.638 0 01-.221.315c-.138-.183-.248-.313-.342-.454-.98-1.475-1.011-2.25-.037-3.519.535-.697 1.174-1.313 1.742-1.985.599-.708 1.202-1.416 1.748-2.164a92.463 92.463 0 002.474-3.564c.329-.556.628-1.13.897-1.717l-.168-.15c-.145.082-.339.129-.429.252-.453.618-.861 1.267-1.318 1.882-1.092 1.472-2.184 2.946-3.32 4.384a4.917 4.917 0 01-1.035.793c-.13-.484.828-1.088.098-1.896a19.978 19.978 0 01-2.412 4.461c.265-1.038.919-1.96.928-3.25-.258.208-.429.285-.505.418a9.98 9.98 0 00-.553 1.128 19.965 19.965 0 01-4.11 6.699c-.39.393-.835.732-1.382 1.206.251-.985.441-1.818.676-2.639a8.183 8.183 0 012.139-3.074 22.847 22.847 0 003.375-4.907c.139-.345.247-.702.321-1.067l-.174-.126c-.146.1-.352.169-.426.308a21.179 21.179 0 01-2.713 4.089c-.606.696-1.293 1.322-1.954 1.968-.083.081-.235.09-.356.132a1.479 1.479 0 01.012-.364c.132-.448.307-.886.419-1.339a7.648 7.648 0 012.001-3.721 21.785 21.785 0 001.844-2.222c.733-.956 1.467-1.913 2.128-2.918.735-1.119 1.397-2.288 2.071-3.446.089-.216.151-.443.183-.675a42.3 42.3 0 00-.26-.168c-.109.166-.212.336-.327.5-1.229 1.754-2.425 3.535-3.706 5.252-.733.984-1.595 1.873-2.418 2.788a.623.623 0 01-.847.182c.109-.263.216-.484.294-.714a5.38 5.38 0 011.807-2.566 17.434 17.434 0 002.805-2.702 20.133 20.133 0 003.43-6.595 3.708 3.708 0 00.267-2.359c-.976 1.404-1.022 3.242-2.1 4.598.268-1.023.577-2.034.856-3.05.464-1.69.919-3.383 1.349-5.081a2.106 2.106 0 00-.091-.732l-.162-.037a2.765 2.765 0 00-.355.596c-.19.63-.31 1.281-.509 1.908a255.52 255.52 0 01-1.814 5.54 11.247 11.247 0 01-.798 1.692.665.665 0 01-.492.31c-.819-.063-1.632-.183-2.468-.285a.628.628 0 01.024-.207 10.24 10.24 0 00.562-6.431 23.538 23.538 0 01-.283-5.661c.01-1.037.024-2.073-.015-3.108a2.727 2.727 0 00-.314-.928.388.388 0 00-.307-.199c-.088.018-.19.188-.206.303-.009.174.005.35.04.52.091.428.14.863.148 1.3-.109 1.45-.203 2.908-.442 4.34a6.748 6.748 0 01-1.303 3.149 10.457 10.457 0 00-2.437 3.974c-.005.019-.057.027-.047.022a2.32 2.32 0 01-1.525-2.14 13.267 13.267 0 01.472-4.01 10.01 10.01 0 00.59-3.66c-.017-.142-.154-.27-.235-.403-.095.126-.244.238-.28.379-.351 1.398-.681 2.801-1.023 4.202a9.335 9.335 0 00-.079 5.36c.221.597.296 1.238.22 1.87-.226 1.33-.616 2.63-.947 3.976-.542-.324-1.209-.558-1.355-1.333a5.885 5.885 0 01-.127-1.146c.01-.883.08-1.766.094-2.648.018-1.12.067-2.246-.018-3.361a12.676 12.676 0 00-.505-2.227c-.03-.11-.213-.178-.326-.267a1.584 1.584 0 00-.205.376c-.017.14-.01.283.019.42.142.792.234 1.592.275 2.395-.018 1.91-.174 3.819-.172 5.729.068.76.212 1.51.43 2.24.329.768.404 1.62.215 2.433-.271.79-.459 1.606-.561 2.435-.106.65-.11 1.316-.165 2.046-.411-.233-.784-.447-1.16-.657a1.826 1.826 0 01-1.016-1.944c.09-.619.259-1.225.376-1.84.303-1.608.675-3.208.871-4.828.108-1.306.15-2.616.127-3.926a1.694 1.694 0 00-.11-.558c-.033-.099-.14-.172-.215-.256-.067.09-.183.175-.194.271-.12.99-.293 1.982-.314 2.975a22.807 22.807 0 01-.748 5.016c-.049.2-.116.394-.184.618l-.687-1.772-.237.03a4.353 4.353 0 00-.044.704c.035.38.157.756.167 1.135.027.943.042 1.888-.006 2.828-.021.422.17 1.045-.6 1.096-.046.003-.115.085-.123.137a8.71 8.71 0 00-.113.882c-.044.793-.018 1.594-.119 2.379-.254 1.991-.522 3.982-.862 5.958a12.456 12.456 0 00.2 5.107 7.847 7.847 0 01.159 3.405c-.192.994-.233 2.016-.344 3.025a2.918 2.918 0 01-.087.346 8.463 8.463 0 01-.812-.411c-.762-.491-1.568-.956-1.732-1.97-.064-.397-.087-.8-.148-1.196a11.871 11.871 0 01.215-4.396c.22-1 .527-1.98.748-2.98.275-1.24.537-2.484.735-3.737.096-.717.132-1.44.109-2.163a4.325 4.325 0 00-.232-.965l-.225.005c-.072.21-.127.426-.165.645-.03.948-.112 1.895-.244 2.835-.326 1.614-.78 3.201-1.18 4.801a16.56 16.56 0 00-.585 2.427 28.892 28.892 0 00-.104 3.936c.058.708.231 1.402.512 2.055.495 1.263 1.088 2.486 1.612 3.738a1.966 1.966 0 01-.322 2.525 20.555 20.555 0 00-1.73 2.009 4.98 4.98 0 01-.288-.712 36.394 36.394 0 01-.762-6.354c-.014-.652.021-1.305.103-1.952.159-1.495.346-2.988.525-4.48.087-.718.181-1.435.273-2.151a5.273 5.273 0 00-.152-.048c-.072.062-.185.109-.211.186-.227.67-.435 1.346-.657 2.017-.075.225-.117.572-.271.638a1.86 1.86 0 00-.968 1.208 17.42 17.42 0 01-3.678 5.619 3.523 3.523 0 01-.516.355c-.002-.16.005-.321.024-.48.129-.593.253-1.188.409-1.775a6.804 6.804 0 01.578-1.864c1.105-1.772 2.372-3.445 3.455-5.229.994-1.633 1.839-3.359 2.725-5.056.136-.333.24-.678.31-1.03-.645-.105-.705.388-.873.684-.808 1.425-1.527 2.903-2.383 4.297-.828 1.349-1.779 2.623-2.689 3.92a.75.75 0 01-.959.286c.396-.982.5-2.061 1.283-2.844.522-.52 1.071-1.016 1.563-1.562a16.85 16.85 0 002.549-3.696 22.61 22.61 0 001.996-5.965 1.834 1.834 0 00-.127-1.606 2.09 2.09 0 00-.364.532c-.209.79-.361 1.593-.573 2.381-.174.64-.404 1.265-.608 1.898l-.145-.043c.064-.338.124-.679.192-1.016.259-1.26.537-2.516.776-3.778.17-.908.321-1.821.411-2.738a1.574 1.574 0 00-.216-1.343 2.712 2.712 0 00-.39.675c-.41 1.975-.763 3.963-1.202 5.932a27.744 27.744 0 01-.941 3.131.9.9 0 01-.647.482c-.764.06-1.536.023-2.332.023a.825.825 0 01.027-.407 9.335 9.335 0 00-.011-5.856c-.806-2.324-.746-4.722-.979-7.098a7.385 7.385 0 00-.559-2.589c-.061-.127-.276-.18-.42-.268-.06.16-.186.329-.169.482.112 1.04.319 2.075.368 3.118a29.536 29.536 0 01-.092 3.019c-.04 1.014-.342 2-.876 2.863a57 57 0 00-1.823 3.206 4.49 4.49 0 00-.265 1.046 2.488 2.488 0 01-1.743-1.809 11.418 11.418 0 01.097-4.382 10.56 10.56 0 00.126-3.659 1.245 1.245 0 00-.225-.354 1.357 1.357 0 00-.191.386c-.12.953-.152 1.925-.346 2.863a16.575 16.575 0 00-.4 4.777c.042.413.126.821.249 1.218a7.62 7.62 0 01.698 2.818c-.031.362-.149.714-.205 1.074-.138.908-.264 1.816-.393 2.714a1.94 1.94 0 01-1.641-1.937c-.098-1.295-.19-2.592-.322-3.884-.115-1.111-.227-2.228-.448-3.32a2.818 2.818 0 00-1.141-1.8c.141.92.439 1.801.588 2.707.142.974.226 1.955.251 2.939.039.968.008 1.938.008 2.907a4.681 4.681 0 01-.837-1.435 5.713 5.713 0 01-.126-1.195 1.572 1.572 0 00-.555-1.277l-.18 1.059a1.691 1.691 0 01-.198-.33 24.48 24.48 0 01-.888-5.948 4.922 4.922 0 00-.174-.955l-.255.005a3.801 3.801 0 00-.191.862c-.026.83.012 1.66.111 2.485.244 1.562.591 3.108.884 4.662.242 1.282.554 2.559.671 3.853.018.914-.047 1.827-.193 2.729-.009.096-.116.182-.207.32-.194-.483-.344-.905-.536-1.307-.052-.109-.228-.159-.347-.235-.047.132-.153.274-.131.393.14.519.251 1.045.333 1.577.088.488.021.992-.193 1.439a5.828 5.828 0 01-1.529 1.034c-.024-.295-.03-.445-.05-.594-.092-.692-.191-1.382-.281-2.074a9.961 9.961 0 01-.224-2.029c.108-1.004.282-1.999.52-2.979a17.19 17.19 0 00-.083-5.878c-.104-.812-.244-1.62-.356-2.433-.112-.814-.249-1.627-.301-2.444-.05-.709-.038-1.42.036-2.126.065-.586-.077-.796-.668-.704-.078-.557-.12-1.12-.123-1.682.059-1.066.216-2.127.289-3.193.021-.31.192-.704-.303-1.023l-.667 1.927-.157-.003c-.187-1.092-.438-2.18-.547-3.28-.137-1.385-.155-2.78-.233-4.172a4.068 4.068 0 00-.116-.829c-.033-.127-.179-.226-.274-.338l-.161.052c-.064.604-.171 1.207-.182 1.812a18.17 18.17 0 00.102 2.06c.12 1.272.239 2.544.424 3.806.164 1.12.469 2.217.61 3.337a1.771 1.771 0 01-.464 1.657c-.576.394-1.182.742-1.813 1.042a1.034 1.034 0 01-.04-.26 6.939 6.939 0 00-.352-3.664 4.513 4.513 0 01.132-3.043 6.11 6.11 0 00.546-2.49c-.042-.765-.009-1.536-.01-2.304a6.693 6.693 0 00-.007-.907 12.401 12.401 0 01.316-4.802 7.52 7.52 0 00.125-.921l-.208-.075c-.26.313-.472.663-.629 1.04a13.284 13.284 0 00-.432 2.566c-.068 1.492.002 2.99-.028 4.483a12.143 12.143 0 01-.212 1.872 1.53 1.53 0 01-1.427 1.263 24.243 24.243 0 00-.626-2.957 4.339 4.339 0 01.186-3.022 7.411 7.411 0 00.216-3.991c-.261-1.557-.67-3.09-1.02-4.631-.089-.399-.193-.794-.291-1.19l-.288.014c-.098.37-.145.75-.139 1.133.289 1.875.651 3.74.944 5.615a3.09 3.09 0 01-1.572 3.625 2.183 2.183 0 01-.14-.319 7.2 7.2 0 00-1.428-2.699 12.707 12.707 0 01-1.542-2.407c-.718-1.504-.598-3.18-.737-4.79-.004-.931.054-1.861.173-2.784a2.238 2.238 0 00-.175-.663c-.185.18-.481.334-.533.546a7.303 7.303 0 00-.227 1.709c-.003 1.31.108 2.62.077 3.928-.018.927-.127 1.85-.327 2.756a11.968 11.968 0 00-.401 4.459c.109.722.23 1.442.366 2.16.056.295.162.582.253.9a1.583 1.583 0 01-.296.074c-.41.006-.822-.019-1.232.008-1.148.072-1.513-.095-1.835-.892a9.434 9.434 0 01-.329-.877c-.736-2.57-1.463-5.143-2.204-7.713a2.944 2.944 0 00-.29-.545l-.211.071c.026 3.03 1.317 5.806 1.838 8.751a21.239 21.239 0 01-.96-2.19 7.442 7.442 0 00-.909-2.27.785.785 0 00-.163.48c.055.485.142.965.26 1.438a21.189 21.189 0 002.303 5.463 15.228 15.228 0 003.927 4.418 5.147 5.147 0 011.772 3.267 1.246 1.246 0 01-.668-.27c-.594-.623-1.19-1.252-1.719-1.932a67.4 67.4 0 01-2.312-3.169c-.562-.816-1.05-1.682-1.594-2.512-.076-.117-.284-.148-.43-.22a1.806 1.806 0 00-.069.452c.017.156.068.306.151.44.992 1.576 1.953 3.174 3.004 4.71.718 1.052 1.575 2.008 2.349 3.023a9.19 9.19 0 011.301 1.889c.466 1.113.75 2.303 1.106 3.462.016.054-.025.124-.055.26a4.607 4.607 0 01-.575-.434c-.505-.52-.979-1.07-1.49-1.582a1.84 1.84 0 01-.672-1.373 1.007 1.007 0 00-.344-.587c-.504.18-.598-.225-.775-.495-.201-.305-.373-.63-.572-.935-.266-.407-.547-.805-.821-1.207l-.176.09c.136.566.316 1.12.539 1.657.403.807.907 1.565 1.369 2.343.492.83.182 1.78.444 2.659a1.708 1.708 0 01-.486-.613c-.487-1.06-.949-2.13-1.448-3.184-.068-.144-.292-.214-.443-.32-.071.184-.104.38-.099.577.097.333.225.657.383.966.67 1.472 1.349 2.94 2.022 4.41.145.236.25.496.308.767a5.684 5.684 0 01-.413 2.832c-.34.502-.844.869-1.426 1.038-.287-.772-.501-1.522-.838-2.212a20.718 20.718 0 00-1.278-2.157 8.187 8.187 0 01-1.026-4.067 19.313 19.313 0 01.358-5.523c.033-.145-.091-.327-.143-.492-.148.101-.38.171-.432.31a15.053 15.053 0 00-.644 4.173c-.093 1.109-.029 2.24-.218 3.33-.283 1.621-.79 3.204-1.075 4.826a11.733 11.733 0 00-.012 2.572c.03.603.152 1.201.227 1.752-.823 0-1.593-.019-2.362.008a.606.606 0 01-.686-.443c-.209-.678-.427-1.357-.577-2.05-.2-.917-.346-1.847-.503-2.773-.198-1.169-.368-2.342-.58-3.507-.107-.579-.282-1.143-.426-1.715l-.227.006a3.12 3.12 0 00-.18.871c.067.836.18 1.669.31 2.496.194 1.239.43 2.471.625 3.709.1.631.144 1.269.213 1.905l-.196.036c-.287-1.317-.6-2.629-.842-3.953-.066-.363-.134-.628-.491-.792a2.92 2.92 0 00-.022 2.138c.345 1.59.866 3.142 1.296 4.714.078.36.134.724.168 1.091l-.143.051a6.199 6.199 0 01-.392-.75c-.114-.307-.183-.62-.756-.411.252.829.557 1.642.912 2.433a4.934 4.934 0 01.23 4.131.349.349 0 01-.16-.21c-.334-.784-.704-1.555-.992-2.357a7.854 7.854 0 01-.601-2.194c-.094-2.021-.247-4.027-.54-6.031a34.58 34.58 0 00-1.414-6.033 6.186 6.186 0 00-.458-.878l-.181.049a1.34 1.34 0 00-.084.468c.351 1.647.754 3.284 1.069 4.937.198 1.045.278 2.113.405 3.171.075.626.116 1.256.212 1.878a1.414 1.414 0 01-.53 1.525c-.219-.593-.475-1.163-.637-1.758a5.337 5.337 0 01-.208-1.503c.021-.911.171-1.821.194-2.733a14.097 14.097 0 00-.68-4.546 29.865 29.865 0 00-1.548-3.925 27.785 27.785 0 00-1.743-2.904c-.098-.154-.336-.217-.509-.323l-.173.147a26.425 26.425 0 012.276 4.841c-.47-.673-.875-1.383-1.313-2.07-1.019-1.602-2.04-3.2-3.091-4.779a6.64 6.64 0 00-.898-.915c-.376.385-.138.631.039.894.72 1.069 1.476 2.115 2.139 3.219a65.795 65.795 0 012.246 4.074c.283.518.434 1.098.438 1.688-.016.323-.536.624-.831.933-.085.09-.174.177-.264.265-.26.253-.522.504-.812.784-.09-.155-.146-.242-.19-.335a11.275 11.275 0 00-3.946-4.6 21.142 21.142 0 01-4.21-3.113 13.82 13.82 0 00-2.01-1.79 24.894 24.894 0 00-2.396-1.457c-.11-.064-.298.01-.45.02l-.022.168c.202.163.402.328.605.49.878.695 1.797 1.345 2.623 2.098a22.057 22.057 0 011.824 2.017 5.86 5.86 0 011.372 2.55c.14.647.168 1.32.344 1.954.148.984.5 1.926 1.034 2.766.065.12.11.25.132.384-.231.06-.428.125-.63.163a2.038 2.038 0 01-1.546-.2 9.878 9.878 0 01-2.544-2.5c-.858-1.125-1.716-2.252-2.605-3.353a2.358 2.358 0 00-.707-.414 6.979 6.979 0 00-.101.137c.085.204.185.402.299.591.825 1.187 1.66 2.367 2.494 3.548a9.207 9.207 0 003.555 3.265 4.135 4.135 0 011.966 1.645c.574 1.012 1.189 1.999 1.82 3.054a2.462 2.462 0 01-1.727.093 9.78 9.78 0 01-2.799-2.481 13.846 13.846 0 00-4.101-3.41 4.464 4.464 0 00-1.023-.224l-.083.186c.184.168.381.32.59.456a13.034 13.034 0 013.145 2.534c.743.77 1.404 1.619 2.118 2.419a12.112 12.112 0 003.025 2.148c.477.247.89.605 1.2 1.043a14.422 14.422 0 002.815 4.051c-.446.119-.804.23-1.17.312a2.01 2.01 0 01-2.5-.99c-.317-.48-.608-.976-.871-1.486a24.173 24.173 0 00-4.857-6.247 7.062 7.062 0 00-.902-.607l-.149.173c1.726 2.261 3.85 4.244 5.094 6.992l-1.858-.99a36.26 36.26 0 00-.172.243c.721.662 1.467 1.299 2.158 1.991a9.92 9.92 0 011.793 2.336l-.408.117c.021.107.058.21.11.306.478.624 1.024 1.204 1.438 1.866.848 1.359 1.592 2.783 2.444 4.14 1.175 1.871 2.424 3.697 3.616 5.557a18.206 18.206 0 012.15 5.292c.09.351-.147.57-.449.408a3.93 3.93 0 01-1.415-1.017 11.271 11.271 0 01-1.105-2.348c-.61-1.587-1.108-3.219-1.767-4.783a17.626 17.626 0 00-2.717-4.327.622.622 0 00-.574-.076c-.25.124-.357.108-.512-.123a2.857 2.857 0 00-.515-.472 6.007 6.007 0 01-.155.124c.046.192.111.378.196.555a25.3 25.3 0 011.33 2.182c.693 1.478 1.297 3 1.93 4.506.132.313.232.638.347.958l-.143.062c-.167-.192-.33-.389-.503-.576a10.175 10.175 0 01-1.946-3.144 45.402 45.402 0 00-4.078-7.989c-.814-1.237-1.727-2.41-2.628-3.587a7.133 7.133 0 00-.969-.883 14.12 14.12 0 01-.13.124c.12.315.264.62.432.911.609.893 1.283 1.741 1.87 2.647a40.076 40.076 0 013.726 6.94c.218.551.72 1.112.321 1.83-.103-.042-.225-.056-.283-.122a11.25 11.25 0 01-2.442-4.154 20.016 20.016 0 00-1.32-3.503 20.67 20.67 0 00-4.024-5.41 56.695 56.695 0 00-4.48-3.738 1.175 1.175 0 00-1.246-.343 40.891 40.891 0 015.041 4.631.333.333 0 01-.192-.082c-1.46-1.139-2.894-2.315-4.389-3.408-1.077-.788-2.225-1.48-3.358-2.188a6.403 6.403 0 00-1.004-.418l-.08.129c.076.153.174.293.292.416 1.691 1.262 3.427 2.467 5.078 3.777a49.42 49.42 0 013.874 3.426c.533.524.62.769.144 1.457a4.548 4.548 0 00-.398.848c-.134.326-.25.661-.374.994-.657-.551-1.243-1.083-1.87-1.56a14.612 14.612 0 00-5.855-2.633 29.144 29.144 0 01-3.358-.937c-1.756-.606-3.474-1.318-5.23-1.926a8.155 8.155 0 00-1.848-.309c-.143-.014-.308.192-.463.295.125.11.234.278.378.319.466.132.95.205 1.42.323a24.338 24.338 0 015.305 2.173 9.074 9.074 0 013.49 3.103c.673 1.037 1.44 2.016 2.216 2.983.334.335.701.635 1.097.895-.648.345-1.227.828-1.963.656a8.715 8.715 0 01-2.259-.765c-1.411-.788-2.735-1.733-4.13-2.555-.789-.434-1.6-.823-2.431-1.166-.112-.049-.295.064-.445.103.079.116.132.275.24.344a945.105 945.105 0 005.677 3.631 10.676 10.676 0 003.856 1.523 6.59 6.59 0 012.42.876 40.977 40.977 0 013.366 2.677.5.5 0 01.046.34c-.511.15-.89.719-1.535.464-.546-.215-1.14-.327-1.66-.587-1.593-.797-3.136-1.693-4.746-2.451a7.231 7.231 0 00-3.667-.913 1.5 1.5 0 00-.478.231c.142.097.272.256.426.285a18.029 18.029 0 016.21 2.63 15.27 15.27 0 004.912 2.117 5.024 5.024 0 012.196 1.006c1.375 1.17 2.469 2.67 4.308 3.478-.637.312-1.151.556-1.659.811a1.6 1.6 0 01-1.734-.25c-.777-.568-1.485-1.233-2.212-1.869-.716-.626-1.386-1.309-2.135-1.893a30.053 30.053 0 00-5.742-3.398c-.169-.079-.418.013-.63.026l-.037.2c2.78 1.677 5.687 3.181 7.872 5.689-.348-.064-.658-.227-.988-.298a6.805 6.805 0 00-1.028-.073c-.02.067-.038.135-.057.202.348.175.69.365 1.044.522a20.778 20.778 0 014.058 2.568c.32.241.357.452-.172.6.303.255.54.458.78.656.84.692 1.714 1.345 2.507 2.084.822.764 1.563 1.618 2.343 2.426 1.113 1.154 2.186 2.353 3.362 3.44a24.144 24.144 0 002.827 2.162 9.638 9.638 0 012.443 2.11c.612.821 1.145 1.704 1.723 2.552.211.312.453.604.723.962a4.08 4.08 0 01-.564.152c-.47.064-.944.1-1.418.107a2.607 2.607 0 01-1.178-.179 14.48 14.48 0 01-4.25-4.055c-1.173-1.514-2.193-3.145-3.337-4.683a15.943 15.943 0 00-3.492-3.335 2.79 2.79 0 00-.725-.263c0 .202.074.398.209.549.779.759 1.599 1.478 2.346 2.266.67.695 1.292 1.435 1.862 2.215 1.138 1.584 2.146 3.266 3.348 4.797a23.188 23.188 0 002.832 2.819c1.2 1.079 2.846 1.369 4.17 2.232.888.504 1.7 1.13 2.414 1.859.694.936 1.31 1.928 1.843 2.965.167.277.332.554.52.869a5.75 5.75 0 00-1.012.29 1.293 1.293 0 01-1.612-.285c-1.623-1.544-3.24-3.093-4.853-4.645-.408-.39-.79-.808-1.14-1.251-1.17-1.501-2.313-3.023-3.48-4.526-.268-.312-.553-.61-.853-.892l-.145.107c.006.134.034.266.082.392.321.533.638 1.071 1 1.575a86.984 86.984 0 002.344 3.145 10.84 10.84 0 011.848 3.058 23.876 23.876 0 002.41 5.314c.251.415.469.85.649 1.301.092.311.206.615.341.91a18.989 18.989 0 003.523 4.095 26.017 26.017 0 005.161 3.56 6.422 6.422 0 012.658 2.313c.482.795.979 1.582 1.47 2.371a30.055 30.055 0 01-3.112-1.614c-1.84-1.064-3.67-2.143-5.511-3.204-.34-.176-.689-.335-1.045-.477l-.136.193c.166.207.349.4.546.576.388.293.796.561 1.211.815 2.17 1.323 4.361 2.613 6.512 3.965 1.201.755 2.583 1.277 3.455 2.482a11.237 11.237 0 011.511 2.308 4.109 4.109 0 002.37 2.558.77.77 0 01.365.489c.27 1.33.516 2.665.75 4.002a85.43 85.43 0 01.531 3.305c.14 1.023.218 2.054.342 3.081.164 1.371.366 2.737.512 4.109.108 1.014.152 2.034.222 3.051l.025.396a76.75 76.75 0 01-63.516-84.685 76.749 76.749 0 1178.441 85.712zm-12.112-.611a47.896 47.896 0 00-.059-.762c-.107-1.258-.198-2.518-.331-3.772-.113-1.058-.273-2.11-.417-3.164-.14-1.019-.283-2.038-.435-3.057-.062-.422-.148-.84-.223-1.261l.219-.049c.216.702.473 1.393.641 2.105.45 1.908.921 3.815 1.27 5.744.238 1.362.381 2.74.429 4.122.003.078.001.155.003.233-.366-.042-.731-.092-1.097-.139zm-6.162-22.543c.193.002.382.05.552.141.171.09.317.22.427.379.381.435.724.905 1.128 1.318.241.247.418.725.94.442.379.954.735 1.913 1.15 2.846.085.191.384.288.584.428.082-.185.274-.406.227-.551-.175-.554.149-.916.431-1.448.207.744.763 1.301.254 2.037a.446.446 0 00.076.429.343.343 0 01.136.516.77.77 0 00.049.457c.388 1.425.806 2.84 1.164 4.272.302 1.212.561 2.438.79 3.668.184.994.326 2 .431 3.005.168 1.635.353 3.272.445 4.912-.221-.022-.441-.036-.661-.059-.003-.223-.003-.446-.009-.669a22.687 22.687 0 00-.325-3.402 91.057 91.057 0 00-1.223-5.655 21.93 21.93 0 00-1.006-2.902 123.484 123.484 0 00-1.728-4.016c-.289-.648-.696-1.254-.917-1.923-.254-.772-.277-.852-1.057-.998a2.746 2.746 0 01-2.12-1.622c-.283-.64-.488-1.314-.762-2.068.385.185.705.464 1.024.463zm-3.227-5.724c.06.033.12.087.182.089 1.48.056 2.03 1.261 2.654 2.274a5.01 5.01 0 01.314 1.747c-3.034-1.16-4.826-2.924-5.242-5.225l2.092 1.115zm-5.372-6.717c.608.242 1.074.457 1.559.611.294.092.64.03.921.144.373.167.728.374 1.057.617a3.207 3.207 0 011.344 2.703c.037.256.1.507.189.75-.026.018-.067.06-.081.053-1.089-.558-2.363-.764-3.254-1.694a3.016 3.016 0 01-.472-.685c-.407-.778-.794-1.566-1.263-2.499zm-2.515-.128a4.522 4.522 0 012.163 2.058c.189.309.356.631.537.954-1.101.246-5.787-2.863-6.953-4.634 1.477.562 2.868 1.084 4.253 1.622zm-1.4-4.121c.554.717 1.059 1.471 1.581 2.209a.588.588 0 01.047.161 6.875 6.875 0 01-3.487-.507 7.67 7.67 0 01-3.833-3.776c-.747-1.314-1.371-2.697-2.036-4.055-.072-.2-.12-.407-.145-.618.034-.02.067-.037.1-.055.635.64 1.249 1.305 1.91 1.917a22.905 22.905 0 002.208 1.869 8.81 8.81 0 001.692.791c.953.408 1.382 1.312 1.964 2.064zm-4.26-10.806c.506.19 1.027.347 1.512.578.527.25.913.833 1.634.61.099-.03.288.175.412.296a17.83 17.83 0 011.975 2.004c.3.541.492 1.135.564 1.749.148.642.229 1.302.329 1.955.006.116-.003.232-.025.345a14.491 14.491 0 01-1.54-.552 3.386 3.386 0 01-1.412-1.828 11.706 11.706 0 00-2.383-3.967c-.37-.337-.775-.636-1.165-.952l.1-.238zm-2.941-6.384c.568.109 1.12.175 1.644.329.345.137.711.21 1.082.214.247-.016.545.364.774.609.936 1.001 1.09 2.338 1.496 3.566.106.32.221.637.331.955l-.125.096a21.782 21.782 0 01-2.507-1.449 6.077 6.077 0 01-1.251-1.574c-.514-.785-.968-1.611-1.44-2.422-.03-.052-.004-.136-.004-.324zm2.663-12.912l-.16.115c-.123-.145-.325-.275-.357-.438a14.7 14.7 0 00-1.297-3.726 1.138 1.138 0 01-.052-.343 10.672 10.672 0 011.866 4.392zm-2.27-10.553a5.478 5.478 0 01-.138-.559c.444.201.74.346 1.044.471.158.065.365.176.491.124.505-.205.782.111 1.08.399.256.247.518.489.751.756a2.144 2.144 0 01.643 1.552c-.018.632.02 1.266.111 1.892.047.357-.068.322-.331.285a3.14 3.14 0 01-2.567-2.106c-.383-.929-.728-1.874-1.084-2.814zm-2.09-.446c.416.392.751.861.988 1.381.532 1.015 1 2.064 1.492 3.093-.384.1-.794-.103-1.415-.69a14.906 14.906 0 01-2.593-3.415c-.452-.774-.884-1.559-1.388-2.452 1.064.749 2.037 1.36 2.917 2.083zm.092-1.923a1.238 1.238 0 01-1.385-.179c-.867-.859-1.748-1.707-2.565-2.611-.554-.614-1.006-1.319-1.593-2.101 2.742.758 4.052 2.892 5.543 4.891zm3.064-2.707a3.496 3.496 0 01.88 2.819c-.008.369.017.737.078 1.101a25.05 25.05 0 01-2.354-1.067 3.574 3.574 0 01-1.112-1.086 19.458 19.458 0 00-2.961-3.981 3.81 3.81 0 012.502.364c.465.291.974.504 1.508.63a3.767 3.767 0 011.459 1.22zm1.679-1.45a8.664 8.664 0 01-.597 1.511 11.826 11.826 0 01-1.666-1.942c-.32-.76-.546-1.555-.675-2.37-.019-.071.037-.164.069-.242.152-.379.306-.756.464-1.133.124-.296.255-.59.444-1.024.715 1.341 1.392 2.481 1.928 3.685a2.65 2.65 0 01.033 1.515zm2.362 5.16c-.5-.988-.432-2.136-1.188-2.927a13.21 13.21 0 01-.173.032c.121.755.226 1.513.372 2.263.144.407.255.825.331 1.25a11.64 11.64 0 01-.232 1.768 3.326 3.326 0 01-1.32-2.218 2.787 2.787 0 01-.1-.617c.014-.357-.124-.722.316-1.028.23-.159.217-.665.317-1.012.157-.544.316-1.087.485-1.665 1.267 1.03 1.897 3.165 1.192 4.154zm.313-11.936c-.292-.564-.584-1.127-.878-1.689l.246-.13.878 1.689c-.082.042-.164.086-.246.13zm1.2 5.018c-.653-1.222-1.717-2.265-1.648-3.796.898 1.112 1.957 2.149 1.648 3.796zm-.066 4.683a8.095 8.095 0 01-1.474-5.545c.326.544.654 1.087.974 1.635.184.295.35.601.499.916.156.282.25.596.273.918-.03.651-.163 1.298-.272 2.076zm.936 7.403c-.039.03-.076.059-.115.087-.248-.392-.513-.775-.74-1.179-.247-.442-.447-.909-.683-1.357a.93.93 0 01.192-1.235l1.346 3.684zm7.879-13.756c.194 1.074.348 2.069.556 3.052a3.938 3.938 0 01-1.255 3.799c-.34.418-.638.869-.889 1.346a2.536 2.536 0 01-.248.27 5.396 5.396 0 00-1.741-2.743 3.179 3.179 0 00-.762-.546 1.611 1.611 0 01-1.17-1.5 16.152 16.152 0 00-.225-1.608c.31.227.55.427.813.591.322.147.63.325.918.53.227.238.392.529.481.846.057.261.056.532-.005.793a.535.535 0 00.237.608c.068.04.143.065.221.072.396.084.531-.24.608-.522.051-.244.057-.496.018-.743a6.06 6.06 0 01.44-2.46c.035-.111.102-.279.183-.298.718-.171 1.027-.787 1.45-1.281.114-.085.238-.154.37-.206zm.655-9.353c.319.734.587 1.343.849 1.954.178.415.351.833.527 1.248a1.476 1.476 0 01-.059 1.352l-.68-.577-.163.073c.145.441.258.895.442 1.318a.962.962 0 01.08.85.973.973 0 01-.248.362.979.979 0 01-.383.213c-.314.133-.617.293-.945.45-.059-.873-.103-1.662-.169-2.448-.058-.697-.199-1.393-.195-2.088a6.469 6.469 0 01.944-2.707zm1.903-1.265a4.575 4.575 0 00-.162.066c-.502-.604-1.036-1.186-1.49-1.824a2.232 2.232 0 01-.201-.903 15.98 15.98 0 01-.25-2.38c.415.42.857.818 1.235 1.27.322.385.54.855.855 1.248.685.86.191 1.685.013 2.523zm8.607 1.194c.185.813.355 1.632.479 2.456a2.917 2.917 0 01-1.038 2.357.374.374 0 01-.345-.061c-.479-.663-.91-1.36-1.289-2.085a2.626 2.626 0 01-.08-1.299c.073-.463.177-.921.312-1.37.007-.033.022-.085.044-.092.685-.222.809-.915 1.182-1.399.077-.068.162-.127.252-.176.174.592.358 1.124.483 1.669zm1.125-7.908a32.44 32.44 0 01-.107 1.947 1.747 1.747 0 01-1.147 1.678c-.228-3.421.263-6.348 1.258-7.225 0 1.238.012 2.419-.004 3.6zm.893 9.851c-.086.137-.19.264-.367.508l-.198-1.313c-.111-.722-.196-1.45-.337-2.167a4.48 4.48 0 01.203-2.574c.3-.764.493-1.572.733-2.361l.115-.007c.08.463.2.924.233 1.39.092 1.334.225 2.672.195 4.007a4.882 4.882 0 01-.577 2.517zm3.168 27.099c-.061.659-.107 1.322-.165 2.043-.424-.214-.852-.4-1.246-.639-.575-.349-.199-.866-.132-1.282a1.457 1.457 0 01.794-1.188c.349-.176.556-.638.827-.972l.139.04c-.073.665-.153 1.331-.217 1.998zm.89 5.006c.34.537.498 1.18 1.101 1.557.18.112.213.491.272.757.198.788.354 1.585.47 2.388.029.26-.242.555-.382.832-.346.678-.694 1.354-1.043 2.028-1.129-.924-1.48-1.432-1.237-2.93.188-1.192.298-2.396.33-3.603a6.449 6.449 0 00-.352-1.563c-.027-.116-.039-.234-.059-.352l.123-.084c.277.308.537.632.777.97zm.44-17.719a19.673 19.673 0 01-.456-5.653c1.424 1.811 1.638 4.176.456 5.653zm1.722 3.916c.312.428.54.744.772 1.055.092.123.188.327.3.339.475.054.57.421.662.763.147.517.254 1.045.317 1.579.008.293-.058.583-.193.843-.308.658-.657 1.297-.996 1.941a1.88 1.88 0 01-.185.248 3.44 3.44 0 01-1.283-3.725c.224-.954.385-1.922.606-3.043zm.478-12.288l-.509-4.761a4.683 4.683 0 01.509 4.761zm1.376 5.636c.22.373.356.794.558 1.178.118.193.253.375.405.544.157.199.402.37.465.594.362.92.414 1.934.15 2.887a14.646 14.646 0 01-1.209 2.11c-.005.008-.033.003-.034.003a21.03 21.03 0 01-1.275-1.898 5.426 5.426 0 01-.415-2.973c.048-.768.012-1.543-.007-2.314-.009-.362-.066-.72-.11-1.167a2.811 2.811 0 011.472 1.036zm5.446 7.746a8.253 8.253 0 011.823-5.221 22.403 22.403 0 002.216-3.285c.481-.792.847-1.653 1.307-2.566.131 1.856-2.274 8.813-5.346 11.072zm3.568-2.627c-.114-.781.435-1.361.812-1.993-.202.686-.405 1.371-.609 2.056l-.203-.063zm2.186 4.851c-.623.921-1.306 1.803-1.968 2.696-.028.037-.09.046-.253.123a29.62 29.62 0 011.405-8.936l.203-.002c.065.497.109.999.201 1.491.225 1.211.503 2.413.689 3.63.024.355-.073.707-.277.998zm1.129 2.6c-.285 1.16-.561 2.323-.853 3.536a1.418 1.418 0 01-.318-.136 6.73 6.73 0 01-1.013-.822.953.953 0 01-.242-.767c.608-1.346 1.277-2.663 1.935-3.985.04-.082.148-.132.232-.202a2.612 2.612 0 01.259 2.376zm.225 7.216c.558-.921 1.027-1.895 1.54-2.843.097-.18.214-.349.322-.524l.157-.005c.125.504.243 1.008.376 1.51.074.279.169.552.261.825.086.251.292.519.251.745a3.53 3.53 0 01-1.355 2.644 7.664 7.664 0 00-1.201 1.254c-.093.098-.196.188-.343.325-.467-1.352-.806-2.619-.008-3.931zm.421-5.176c.058.021.117.042.175.065a1.887 1.887 0 01-.642 1.943l.467-2.008zm.865-5.806a.448.448 0 01-.61.326c-.231-.064-.349-.245-.183-.466.352-.465.726-.913 1.09-1.367l.13.089-.427 1.418zm1.648 4.521c.116.196.177.42.177.649 0 .156-.143.311-.222.466a1.968 1.968 0 01-1.266-1.121 1.958 1.958 0 01.076-1.689c.246.403.452.778.697 1.124.15.21.401.353.538.571zm2.117-7.51c.24.169.308.694.315 1.06.013.845-.024 1.691-.112 2.532a2.212 2.212 0 01-.414.828c-.348.56-.715 1.107-1.063 1.646-1.416-1.252-.951-2.724-.61-4.201.183-.793.255-1.611.407-2.413.091-.368.202-.73.334-1.085.127.091.218.125.257.188.288.481.349 1.067.886 1.445zm.773-16.142a1.9 1.9 0 01.044.769c-.181 1.095-.391 2.185-.595 3.277-.047.25-.113.497-.171.745l-.157.056a4.392 4.392 0 01-.48-1.004 11.887 11.887 0 01-.162-4.137c.135-.879.219-1.767.335-2.649.028-.215.095-.425.169-.748.368 1.326.705 2.505 1.017 3.691zm1.157-1.76a1.457 1.457 0 01-1.047-1.407 54.694 54.694 0 01-.219-4.007c.023-.584.084-1.164.185-1.74.078-.011.156-.025.234-.038.365.823.637 1.684.81 2.567.134 1.515.037 3.05.037 4.625zm1.193 3.987c.896.259.67 1.069.822 1.672.058.351.06.709.007 1.062a1.253 1.253 0 01-.172.535c-.362.593-.752 1.17-1.118 1.76-.183.297-.261.332-.545.026a2.777 2.777 0 01-.917-2.407c.16-.939.434-1.859.672-2.784.101-.396.241-.783.411-1.326.251.442.428.755.604 1.069.077.136.129.362.236.393zm1.959-6.896c.164.268.351.521.558.757.07.092.202.175.21.271.113.786.157 1.581.131 2.374-.085.998-.78 1.602-1.219 2.372-.095.166-.211.318-.379.569-.135-.284-.245-.533-.37-.773a6.622 6.622 0 01-.869-1.704 11.555 11.555 0 01-.028-2.609c.063-1.137.195-2.273.3-3.45a1.858 1.858 0 011.18 1.046c.183.372.293.781.486 1.147zm3.188 2.677c-.445.234-.885.477-1.396.753a1.4 1.4 0 01-.115-.369 9.562 9.562 0 01-.002-1.551c.099-.63.245-1.252.436-1.86.1-.242.233-.47.393-.676.065-.102.144-.275.22-.277.711-.018 1.168-.584 1.783-.796a1.37 1.37 0 01.369-.005c-.266 1.244-.522 2.41-.764 3.58a1.673 1.673 0 01-.924 1.201zm-.763 11.096c.064-1.197 2.804-5.41 3.576-6.123-.213 1.783-2.626 5.953-3.576 6.123zm4.079 1.931c-.141.534-.314 1.06-.516 1.575a1.716 1.716 0 01-.806.965 23.89 23.89 0 00-2.029 1.35 3.323 3.323 0 01.434-3.594c.736-.936 1.518-1.832 2.282-2.744.054-.065.126-.117.3-.276.03.461.024.816.083 1.159.049.288.199.558.252.844.053.238.053.483 0 .721zm-8.349 13.815c-.158.058-.309.137-.492.22a6.138 6.138 0 012.578-4.659c.042-.031.094-.081.133-.074.875.151 1.535-.534 2.351-.601.489-.04.978-.066 1.499-.099-.587 1.033-1.055 1.968-1.626 2.836a2.988 2.988 0 01-2.348 1.638 7.992 7.992 0 00-2.095.739zm-1.719-5.033c.052-.279.175-.54.357-.759.114.332.201.673.259 1.019.045.495-.009.996.021 1.493.05.21.114.417.191.619.04.173.042.352.007.526-.226.925-.443 1.853-.728 2.761a1.807 1.807 0 01-.582.695c-.613.535-1.248 1.047-1.877 1.563a3.04 3.04 0 01-.347.216 9.13 9.13 0 00-.292-1.265 1.403 1.403 0 01.129-1.299c.543-.892 1.104-1.771 1.67-2.649a6.778 6.778 0 001.192-2.92zm2.07-7.597a3.391 3.391 0 011.788-.886c-.278 1.127-.229 2.217-1.013 3.137a23.85 23.85 0 00-1.751 2.728 18.234 18.234 0 01-1.175-2.125c-.113-.279.125-.727.262-1.076a1.106 1.106 0 01.718-.789c.45-.155.77-.664 1.171-.989zm3.143 5.463c-.429.588-.904 1.14-1.421 1.652-.488.49-1.04.917-1.593 1.397-.936-1.231.525-4.962 2.658-6.643.139.426.256.859.35 1.297.072.436-.043.872.276 1.304.13.177-.073.72-.27.993zm-.234-14.138c-.554.229-1.069.553-1.599.835-.48-1.196.133-2.151.691-3.118.051-.089.149-.222.22-.217.97.048 1.362-.918 2.139-1.206.254-.118.5-.252.736-.402-.216.966.02 1.921-.716 2.639a1.22 1.22 0 00-.233.345 2.19 2.19 0 01-1.238 1.124zm-2.985 4.073a1.309 1.309 0 01.653-1.078c.055.046.111.09.167.135l-.82.943zm.129 1.282a1170.8 1170.8 0 012.824-3.509.884.884 0 01.472-.294c-.138.445-.298.885-.41 1.337-.195.788-.362 1.584-.539 2.378a1.074 1.074 0 01-.729.849c-.751.293-1.465.682-2.232 1.048a2.205 2.205 0 01.614-1.809zm-3.84 2.326c-.075.113-.16.219-.24.327l-.181-.061c.189-1.312.483-2.606.881-3.871a1.173 1.173 0 01.71 1.879c-.414.557-.78 1.151-1.17 1.726zm.454.684c.429-.675.824-1.372 1.258-2.045.135-.162.291-.306.463-.428l.102.098-1.743 4.182c-.66-.841-.656-.902-.08-1.807zm1.761 18.186c-.368.18-.759.307-1.162.378-.65.186-1.302.363-1.954.541-.143.039-.288.073-.432.108l-.135-.135c.251-.748.568-1.472.948-2.164a7.258 7.258 0 011.503-1.441c.148-.124.439-.06.651-.127a8.7 8.7 0 001.058-.399c.694-.322 1.373-.675 2.066-1 .154-.042.313-.064.473-.065-.744 1.713-1.469 3.308-3.016 4.304zm1.332 3.767a19.792 19.792 0 01-2.293 1.731 1.478 1.478 0 01-.623.262c.107-.191.22-.381.322-.575.325-.617.671-1.225.965-1.858a4.476 4.476 0 012.027-2.104 24.919 24.919 0 004.907-3.564c.134-.107.276-.204.424-.291l.103.085c-.175.228-.356.451-.524.684a19.42 19.42 0 01-2.98 3.667 1.454 1.454 0 01-.376.279 6.147 6.147 0 00-1.952 1.684zm-1.592 3.439a5.949 5.949 0 012.523-2.91c-.768 1.009-.848 2.589-2.523 2.91zm2.7 17.911c-.836.018-1.673-.02-2.505-.114a11.465 11.465 0 00-.013-.191c.66-.75 1.319-1.502 1.982-2.249.272-.388.602-.733.978-1.021a4.323 4.323 0 011.78-.64 7.194 7.194 0 002.969-1.201c.986-.529 1.931-1.134 2.893-1.706l.093.097c-.415.566-.803 1.156-1.251 1.695a163.154 163.154 0 01-2.753 3.186 6.083 6.083 0 01-4.173 2.144zm-4.009 2.631a3.758 3.758 0 012.732-1.338c.904-.155 1.796-.378 2.693-.57.096-.021.193-.038.291-.056.024.059.048.118.074.177-2.099 1.538-4.129 3.199-6.779 3.726l-.173-.187c.386-.584.76-1.177 1.162-1.752zm-5.699 3.133l.299-1.469a.792.792 0 00.049-.203c-.118-1.303.826-1.869 1.717-2.467.096-.063.263-.138.337-.098.664.362 1.228-.094 1.834-.19a7.64 7.64 0 01.771-.039c-.331.531-.628.974-.889 1.437-.223.394-.396.818-.608 1.219a2.137 2.137 0 01-1.344 1.144c-.699.196-1.388.425-2.166.666zm-3.22 6.169c.011.01-.037-.017-.034-.032.251-1.095.07-2.313.935-3.236a2.244 2.244 0 011.68-.991c.474-.095.93-.266 1.349-.506.349-.132.706-.244 1.059-.364l.147.147c-.622 1.152-1.208 2.325-1.887 3.443a2.2 2.2 0 01-1.004.713c-.723.314-1.479.549-2.245.826zm-3.217.546a6.14 6.14 0 011.738-5.884c.125 1.079.226 2.063.362 3.042.042.297.209.573.273.869.06.237.07.484.029.725a6.205 6.205 0 01-.459 1.534c-.207.398-.886.724-.856 1.034.057.589-.327.876-.501 1.298-.042.1-.155.171-.338.363.059-.411.1-.676.136-.942a4.31 4.31 0 00-.384-2.039zm-7.715 26.161c.048-.628.125-1.254.201-1.879.129-1.057.266-2.113.4-3.17.115-.902.226-1.804.347-2.704.176-1.316.341-2.632.544-3.943.145-.944.329-1.883.52-2.819a236.096 236.096 0 012.374-10.576c.378-1.497.818-2.978 1.255-4.459a238.76 238.76 0 011.506-4.927c.101-.22.248-.417.432-.575a7.638 7.638 0 002.139-3.539c.149-.753.246-1.515.288-2.281.011-.13-.156-.274-.239-.412a2.063 2.063 0 00-.487.323c-.337.401-.64.83-.957 1.248l-.176-.112a2.76 2.76 0 01.183-.546c.358-.677.765-1.326 1.219-1.943.317-.261.69-.448 1.09-.544.114.098.193.23.225.376.016 1.443.02 2.886 0 4.329a1.477 1.477 0 01-.229.671 9.732 9.732 0 00-1.405 2.473c-.299 1.418-1.384 2.305-1.929 3.53-.89 1.999-1.23 4.012-.137 6.038.175.473.197.99.061 1.475a19.483 19.483 0 01-.362 2.091 1.875 1.875 0 01-.26-1.71 1.729 1.729 0 00-.137-.588c-.162.072-.372.101-.478.222a6.312 6.312 0 00-1.83 4.43c.018.679.145 1.355.189 2.035.006.262-.03.523-.106.774-.455 1.674-.955 3.337-1.376 5.02-.463 1.85-.865 3.716-1.278 5.578-.293 1.323-.591 2.645-.831 3.978-.256 1.424-.444 2.86-.663 4.291l-.1.642c-.059 0-.119-.004-.18-.004.06-.931.115-1.863.187-2.793zm-1.747-2.446c.37.362.363 3.065.177 5.204l-.438-.012c.088-1.73.174-3.461.261-5.192zm-10.819-24.081c1.65.581 2.104 2.059 2.758 3.49-.881-.263-.817-1.229-1.456-1.677a6.725 6.725 0 01-1.302-1.813zm-4.192-12.215a3.715 3.715 0 01-.356-1.585c.679.663 1.37 1.313 2.035 1.991.4.532.864 1.013 1.382 1.432.438.403.735.935.848 1.52.2.807.354 1.626.464 2.451l-.262.12a15.12 15.12 0 01-1.526-1.703 71.094 71.094 0 01-2.585-4.226zm-1.436 10.141c.356-.43.2-.938.252-1.416.085-.78.202-1.555.318-2.331.037-.112.09-.219.157-.317a6.051 6.051 0 011.339 3.127c.129.664.308 1.318.535 1.956.276.81-.2 1.501-.204 2.303-.449-.422-.808-.805-1.214-1.131a3.512 3.512 0 01-1.172-1.913c-.024-.09-.055-.223-.011-.278zm-.673-11.094a2.93 2.93 0 011.036 2.905c-.58-.95-1.273-1.719-1.036-2.905zm-3.041 3.807c.071-.299.164-.593.221-.895.151-.799.281-1.603.437-2.402.066-.164.155-.317.265-.456.652.966 1.275 1.863 1.868 2.779.281.421.523.865.724 1.329.096.252.106.53.027.789-.352 1.043-.753 2.068-1.129 3.082a17.523 17.523 0 01-1.773-1.405 3.877 3.877 0 01-.622-1.24 2.037 2.037 0 01-.188-.751c.025-.282.082-.561.17-.83zm-1.963-13.897c.957.174 2.174 2.042 1.785 2.792l-1.785-2.792zm1.23 15.98a7.074 7.074 0 01-1.682-.612 6.973 6.973 0 01-1.696-1.606c-.684-.956-1.22-2.02-1.812-3.041a1.604 1.604 0 01-.06-.391c.691.238 1.302.446 1.912.66.13.046.304.193.371.151.589-.357.861.108 1.176.432.323.323.627.664.912 1.021.303.408.468.902.471 1.409.073.567.195 1.125.365 1.67.018.079.023.162.043.307zm-.54-4.411a4.83 4.83 0 01-2.04-3.379 1.951 1.951 0 01.225-1.586c.155-.219.084-.606.092-.918.025-.942.039-1.885.063-2.828.002-.06.063-.118.134-.241.233.332.476.625.66.952.358.63.643 1.304 1.028 1.915.479.851.75 1.804.789 2.78.007.296-.044.59-.149.867-.25.809-.528 1.608-.802 2.438zm-3.228-15.286a5.58 5.58 0 01-1.377-3.716c.719.138 1.459.312 1.696.919a37.079 37.079 0 011.062 3.666c.004.015-.048.048-.144.138l-1.381-3.304-.169.046c-.05.764.055 1.53.313 2.251zm-3.164 2.955c.536-.85.009-1.816.302-2.696.13-.459.235-.924.315-1.393.057-.01.114-.019.17-.03.185.301.356.611.557.902.504.731 1.07 1.425 1.52 2.187a3.592 3.592 0 01.592 3.336 11.48 11.48 0 00-.361 2.667.527.527 0 01-.233-.062 8.244 8.244 0 01-2.865-4.648.382.382 0 01.003-.263zm-.446-20.297c.356.105.626.645.845 1.042.27.588.393 1.234.355 1.881.042.628.122 1.253.24 1.871-2.757-.789-3.258-3.177-4.009-5.543a8.68 8.68 0 011.448.35c.365.156.74.289 1.12.399zm1.601.348l-.152.008c-.591-.882-1.396-1.652-1.479-2.802a34.506 34.506 0 01-.062-1.21.287.287 0 01.07-.179c.207-.258.422-.509.638-.767.23.188.2.456.189.823.026.657.135 1.308.323 1.938.126.538.327 1.057.465 1.593.027.198.03.398.008.596zm1.402 11.819c-.789-.105-.985-.695-1.17-1.243a19.418 19.418 0 00-1.882-4.434 7.75 7.75 0 01-.39-.791 2.053 2.053 0 011.735 1.392c.203.783.445 1.558.718 2.321.28.782.622 1.542.927 2.316.036.144.056.291.062.439zm-1.134-5.663a8.121 8.121 0 012.127 5.22l-.189.064c-.198-.649-.402-1.298-.594-1.948-.121-.415-.2-.843-.347-1.247-.086-.241-.161-.538-.55-.529-.096.001-.21-.211-.293-.339-.172-.26-.328-.531-.537-.871l.383-.35zm.267-7.559c-.155-.499-.3-.962-.442-1.425.906.897.924.957.442 1.425zm1.51 6.485c.135.283.308.546.515.782.441.519.473 1.036-.035 1.798a11.515 11.515 0 01-.749-1.199 40.865 40.865 0 01-.996-2.402 3 3 0 01-.22-.951c-.006-.197.16-.399.25-.599.049.017.098.034.148.053.36.84.707 1.687 1.087 2.518zm-.731-11.34c.855.61 1.426 2.316.892 2.889-.304-.981-.581-1.883-.892-2.889zm2.523 10.4a5.359 5.359 0 01-.366 1.083l-.294.009c-.344-.694-.713-1.377-1.02-2.086a18.357 18.357 0 01-.78-2.094c-.185-.623.29-1.041.669-1.679.538 1.004 1.014 1.887 1.484 2.772a3.32 3.32 0 01.307 1.995zm2.427-9.841a6.358 6.358 0 00-.14 1.134 16.384 16.384 0 01-1.776-1.265 1.83 1.83 0 01-.476-1.066c-.097-.838-.086-1.689-.128-2.533-.021-.416-.062-.831-.102-1.378.332.171.564.279.786.405.441.252.705.756 1.304.816.173.018.353.413.449.665a4.756 4.756 0 01.083 3.222zm.776 3.837a3.31 3.31 0 01.342 3.243 8.46 8.46 0 00-.723-.556c-.56-.349-1.148-.654-1.704-1.009a3.04 3.04 0 01-.982-2.882c.068-.323.092-.656.162-1.174.667.607 1.237 1.143 1.829 1.656.184.114.375.216.571.307.2.095.373.238.505.415zm3.678-8.156c-.105.414-.185.834-.239 1.257-.061.932-.07 1.868-.12 2.802a9.959 9.959 0 01-.148 1.41 3.14 3.14 0 01-.808 1.605c-.41.5-.781 1.032-1.11 1.589a9.994 9.994 0 01-1.17-2.152 7.666 7.666 0 01.012-2.323c.026-.277.107-.545.239-.79.146-.238.313-.463.498-.673a6.6 6.6 0 00.674-.896 3.412 3.412 0 011.55-1.647c.203-.074.411-.135.622-.182zm2.144-8.093a8.514 8.514 0 01-.518-.935c-.22-.56-.412-1.132-.58-1.71-.036-.123.083-.29.144-.476a3.221 3.221 0 01.954 3.121zm-.73-7.395c.583.52 1.1.936.822 1.807a5.123 5.123 0 00-.03 1.426c-.002.166-.023.331-.039.556-.806-.793-1.012-1.858-.753-3.789zm2.979-5.493c.011.157.015.316.022.474l-.126.058c-.71-.655-1.91-.712-2.203-1.876a42.472 42.472 0 01-.726-3.514c.001-.118.016-.236.044-.35.366.2.675.382.998.54.321.113.632.252.93.416.263.19.476.44.621.73a3.95 3.95 0 01.403 2.843 2.25 2.25 0 00.037.68zm1.943 5.899c-.024.072-.304.148-.407.099a20.263 20.263 0 01-2.071-1.095 2.029 2.029 0 01-.867-.941 23.914 23.914 0 01-.524-2.637l.188-.136c.555.398 1.103.807 1.671 1.187.226.125.462.232.705.318.152.069.379.106.437.223.362.706.686 1.43.972 2.17.047.275.011.558-.104.812zm1.562 6.532c-.334-.176-.647-.351-.968-.507a8.795 8.795 0 00-1.189-.534c-.558-.175-.643-.626-.754-1.083l-.786-3.231a.595.595 0 01.02-.397c.501.315 1.01.617 1.498.95.366.25.642.603 1.165.63.197.011.412.387.553.634a4.284 4.284 0 01.461 3.538zm.923-.415a1.13 1.13 0 01.415-.89c.37-.413.702-.859.99-1.333.169-.184.352-.355.548-.509.229.994.466 1.849.616 2.72a3.457 3.457 0 01-.468 3.053 6.334 6.334 0 00-.568 1.058c-.501-1.453-1.625-2.535-1.533-4.099zm.794 4.731a4.657 4.657 0 01-.11 3.193c-.806-.59-1.634-1.149-2.404-1.782a3.97 3.97 0 01-.829-1.081 2.406 2.406 0 01-.302-.931c-.114-1.02-.185-2.044-.276-3.122a5.108 5.108 0 012.496 1.722c.03.042.054.117.09.122 1.099.162 1.013 1.168 1.335 1.879zm1.357 9.081a7.772 7.772 0 00-.183.796 13.93 13.93 0 01-2.358-1.562 4.56 4.56 0 01-1.197-2.669c-.097-.747-.111-1.505-.17-2.374.218.084.362.097.437.176.592.628 1.169 1.267 1.752 1.902.093.102.18.282.281.291 1.022.086 1.176.98 1.515 1.658a2.24 2.24 0 01-.077 1.782zm-1.08 5.847c.107-1.089.204-2.179.304-3.27l.239-.014c.032.264.084.526.094.791.042 1.079.071 2.16.104 3.24a.582.582 0 01-.039.129c-.436-.137-.755-.342-.702-.876zm1.836 11.481a6.017 6.017 0 01-.78-1.703c.07-.039.14-.08.209-.12l2.173 2.528c-.619-.255-1.267-.338-1.602-.705zm3.746 8.08a5.516 5.516 0 00-.545 1.442 3.429 3.429 0 01-1.648-3.539c.147-1.057.19-2.127.279-3.191l.177-.156c.241.32.498.629.77.923.3.295.737.482.952.82.267.422.437.899.499 1.395a3.054 3.054 0 01-.484 2.306zm1.466-.065c.442-.428.825-.916 1.266-1.346.296-.269.614-.515.95-.733a1.73 1.73 0 01.451-.137c0 1.309.04 2.516-.019 3.718a1.336 1.336 0 01-.741 1.266 5.733 5.733 0 00-2.2 1.91 1.95 1.95 0 01-.301.266c-.206-.562-.373-1.077-.581-1.574a3.386 3.386 0 01.464-2.916c.105-.214.51-.26.711-.454zm1.009-6.681c.389-.411.75-.849 1.129-1.271.434-.482.876-.96 1.315-1.439a6.838 6.838 0 01-.63 4.75 3.396 3.396 0 01-.814.917c-.663.529-1.367 1.006-2.038 1.491a3.814 3.814 0 01.3-3.766c.166-.276.508-.439.738-.682zm1.206-7.906c.452-.404.876-.844 1.35-1.222.342-.224.701-.42 1.074-.587-.07.44-.136.71-.152.981-.048.793-.058 1.587-.116 2.377a2.57 2.57 0 01-1.073 2.029 21.403 21.403 0 00-1.91 1.778c-.056.051-.122.092-.201.152a5.241 5.241 0 01.212-4.807c.168-.293.547-.461.816-.701zm3.019-7.917a1.93 1.93 0 01.405-.143c-.176 1.186-.352 2.335-.514 3.485a1.37 1.37 0 01-.76 1.21c-.639.311-1.218.742-1.825 1.115a.864.864 0 01-.235.049 4.555 4.555 0 01.466-3.939c.047-.072.09-.181.156-.2.948-.268 1.497-1.113 2.307-1.577zm-.267-4.342c.596-.425 1.173-.875 1.759-1.313a1.64 1.64 0 01.312-.099 21.583 21.583 0 01-.27 2.562c-.12.437-.386.82-.755 1.084-.779.543-1.638.972-2.464 1.446a3.37 3.37 0 01.725-3.307c.146-.189.48-.221.693-.373zm2.3-4.086a1.672 1.672 0 01-.92 1.312c-.405.231-.801.479-1.231.739a1.796 1.796 0 01-.096-.302 9.69 9.69 0 01-.184-2.081 3.92 3.92 0 01.674-2.09 5.027 5.027 0 012.313-1.348c-.204 1.364-.403 2.563-.556 3.77zm2.008 7.579a57.087 57.087 0 01-1.826 3.976c-.26.365-.612.655-1.021.84-.205.119-.449.084-.378-.35a12.377 12.377 0 013.418-6.689c.156-.163.285-.354.428-.53.139-.173.28-.344.42-.516l.136.062c-.389 1.071-.738 2.157-1.177 3.207zm1.318-.582a5.511 5.511 0 00-.35 1.623 9.909 9.909 0 01-.949 2.795c-.774 1.745-1.501 3.513-2.25 5.269-.044.105-.108.201-.183.336-.138-.277-.257-.519-.378-.76l-.161-.017a5.36 5.36 0 00-.23.776 6.711 6.711 0 00-.009.851 1.12 1.12 0 01-.722 1.105c.131-1.1.229-2.258.419-3.399a3.622 3.622 0 011.236-2.081 9.107 9.107 0 002.379-4.006c.602-1.698 1.21-3.394 1.826-5.087.021-.06.082-.106.147-.187a7.032 7.032 0 01-.775 2.782zm-.127 6.043l.147-1.729c.511.736.484 1.016-.147 1.729zm.773 6.379c-1.043-1.704-.727-3.35-.077-5.012.116.571.232 1.142.346 1.713.114.579.271 1.153.327 1.738a2.377 2.377 0 01-.596 1.561zm2.148 23.338l.247.004c.103.479.18.964.232 1.451.04.672-.001 1.349.014 2.022.009.39-.131.821.268 1.131.045.035.012.192-.009.288a3.927 3.927 0 01-1.186 2.164 11.7 11.7 0 00-.903 1.024l-.176-.131c-.637-2.885.351-5.437 1.513-7.953zm.159-5.742c-.289 1.474-.564 2.89-.842 4.306l-.322-.035v-2.853a1.506 1.506 0 011.164-1.418zm-4.084.768c.063-.138.158-.32.114-.435a2.182 2.182 0 01.42-1.976 2.05 2.05 0 011.293-1.104c.466-.122.825-.62 1.257-.913.469-.32.967-.597 1.59-.977a6.423 6.423 0 01-1.622 3.728l-.05-1.078c-.533.139-.579.593-.598.938a1.85 1.85 0 01-1.315 1.905c-.448.158-.78.659-1.153 1.017-.154.163-.3.335-.437.513l-.219-.089c.242-.509.487-1.016.72-1.529zm-.27-23.225a6.6 6.6 0 00-.549 1.768 468.39 468.39 0 01-1.365 4.36.542.542 0 01-.259.273c.05-.915-.397-1.764.183-2.747a39.23 39.23 0 001.971-4.408c.114-.262.21-.53.313-.794a1.767 1.767 0 01-.294 1.548zm.9 12.493l.228.024c.118.536.267 1.067.343 1.607.069.481.039.974.517 1.293a.385.385 0 01.126.321c-.178 1.266-.163 2.596-1.265 3.549a3.926 3.926 0 00-.593.903l-.156.003a5.407 5.407 0 00-.135-.691c-.192-.576-.441-1.134-.607-1.717a3.316 3.316 0 01.187-2.249c.438-1.02.902-2.028 1.355-3.043zm-.694-8.854c-.049 1.345-.143 2.692-.09 4.034a4.432 4.432 0 01-.927 2.5c.111-1.113.643-2.169.414-3.329-.771.902-.767 2.097-1.32 3.168a3.464 3.464 0 01.155-2.678c.548-1.441.968-2.93 1.447-4.398.083-.253.189-.5.284-.749l.17.034c-.047.473-.116.945-.133 1.418zm-9.061 52.35c.324-1.868.678-3.732 1.062-5.59.395-1.905.834-3.799 1.265-5.696.405-1.778.82-3.554 1.243-5.327a1493.58 1493.58 0 011.856-7.645c.395-1.62.792-3.239 1.192-4.856.022-.104.07-.2.141-.279.323-.317.2-.584-.015-.911a3.229 3.229 0 01-.78-2.163c.014-.225.064-.446.148-.654.404-.848.832-1.683 1.297-2.613.086.211.15.432.189.657.025.55.621.884.508 1.5-.126.687-.115 1.401-.266 2.08-.102.462-.082.786.387 1.007-.208.443-.428.854-.598 1.286a13.323 13.323 0 00-.537 1.629c-.042.171.119.393.187.593.18-.094.444-.14.526-.287a2.72 2.72 0 011.259-.994l.103.11a3.01 3.01 0 01-.132.495c-.152.332-.33.652-.526 1.034-.316-.345-.54-.266-.702.118-.141.334-.338.648-.453.99-.904 2.702-1.849 5.391-2.675 8.116a204.898 204.898 0 00-2.337 8.428c-.558 2.168-1.026 4.361-1.485 6.554-.24 1.141-.372 2.306-.559 3.459-.03.116-.071.228-.123.336l-.146-.006a6.904 6.904 0 01-.029-1.371zm5.292-27.402l-5.353 22.265c-.696-7.959 2.019-15.178 5.353-22.265zm-9.825-3.954c.334.522.644 1.062 1.013 1.56.182.245.527.371.698.619.247.341.433.723.547 1.129a3.71 3.71 0 01-.191 2.783c-.13.332-.228.676-.292 1.026-.807-1.387-2.25-2.219-2.266-3.905.012-.349.044-.698.096-1.044.075-.705.153-1.411.229-2.117l.166-.051zm2.697-2.016c-.265.675-.562 1.337-.871 2.06-.095-.11-.204-.23-.304-.356-.408-.524-.842-1.031-1.207-1.582a1.895 1.895 0 01-.37-.998c.033-1.153.15-2.303.249-3.642.348.373.616.641.862.928.294.346.454.83 1.031.861.097.005.227.219.268.357.166.566.325 1.134.438 1.712.029.225-.005.453-.096.66zm2.914.929c-.439.894-.602 1.92-1.008 2.833a11.382 11.382 0 01-1.184 1.765c-.028.041-.129.032-.212.048a9.57 9.57 0 01-.574-1.931 3.223 3.223 0 01.309-1.766 14.603 14.603 0 011.611-2.054c.302-.366.625-.715.954-1.059.122-.106.255-.2.397-.28l.119.071c-.252.77-.022 1.579-.412 2.373zm-2.724 10.26c-.62-.604-.322-1.316-.233-1.975.065-.489.14-1.035.767-1.254.183-.065.267-.391.41-.588.492-.674.991-1.344 1.486-2.016l.166.052c.229.915.265 1.867.106 2.796a5.001 5.001 0 01-1.301 2.847 3.305 3.305 0 00-1.082 1.725.636.636 0 01-.233.312c-.111-.457-.412-.882-.085-1.391a.549.549 0 00.063-.254.548.548 0 00-.065-.254h.001zm4.308-4.393c.653-1.7 1.367-3.378 2.094-5.159.35.554.671 1.032.954 1.532.043.076-.069.252-.127.372-.836 1.687-1.716 3.356-2.504 5.065-.727 1.578-1.356 3.2-2.03 4.802-.085.202-.182.399-.29.636a1.488 1.488 0 01-.176-1.657c.405-.995.874-1.965 1.251-2.97.32-.857.499-1.767.828-2.621zm3.645-11.156a7.793 7.793 0 01-.933 3.118c-.099-.02-.199-.039-.298-.06a4.075 4.075 0 01-.036-1.367 3.664 3.664 0 011.267-1.691zm-.694-2.27a49.564 49.564 0 01-2.402 4.803l-.241-.132c.522-1.753 1.755-3.118 2.643-4.671zm-1.557-4.69c.164-.907.329-1.712.448-2.525.063-.434.041-.879.07-1.318a2.429 2.429 0 011.166-2.058 22.93 22.93 0 01-.043 3.242 5.058 5.058 0 01-.925 1.673c-.204.328-.454.627-.716.986zm1.496-.517l.194.003c.071.416.139.832.215 1.246a4.506 4.506 0 01-.878 2.96c-.381.722-.831 1.408-1.265 2.101a4.231 4.231 0 01-.469.514c.071-1.066.171-2.014.193-2.964.039-1.637 1.328-2.58 2.01-3.86zm-2.916 12.837a2.571 2.571 0 011.198-2.396c.274.306.56.589.795.907a.56.56 0 01.015.457 594.958 594.958 0 01-2.135 4.926c-.019.043-.077.068-.128.112a1.213 1.213 0 01-.089-1.214c.374-.88.494-1.847.344-2.792zm-11.423 6.306a5.355 5.355 0 01.547-3.736 36.25 36.25 0 011.79 3.114 2.605 2.605 0 01-.096 1.508c-.251 1.047-.575 2.075-.873 3.111-.013.041-.078.068-.177.154-.06-.244-.1-.451-.161-.655-.346-1.164-.752-2.315-1.03-3.496zm-.686 7.786a13.089 13.089 0 01-1.299-2.077 14.451 14.451 0 01-.554-2.526.344.344 0 01.092-.286c.667-.48.642-1.298.965-1.943.058-.118.124-.231.245-.458l.734 1.874c.519.995.769 2.108.723 3.229a3.575 3.575 0 01-.292.92c-.181.423-.399.829-.614 1.267zm-2.086-1.176c.751.154.9.813 1.18 1.356.205.402.369.824.555 1.236.021.048.084.103.073.135-.29.88.372 1.588.454 2.399l-.13.095a3.352 3.352 0 01-.279-.381 6.385 6.385 0 00-1.519-1.743 8.94 8.94 0 01-2.666-4.13c-.186-.585-.332-1.183-.498-1.776l.181-.1 2.339 2.563c.107.117.189.321.31.346zm-1.983-11.002c.393-.668.86-1.29 1.393-1.854.119.419.226.823.35 1.222.248.794.517 1.584.758 2.38a2.022 2.022 0 01-.235 1.895 6.15 6.15 0 00-.522 1.197c-.578-.862-1.149-1.596-1.59-2.401a2.75 2.75 0 01-.154-2.439zm-2.077-5.268a6.144 6.144 0 01-.079-2.112c-.001-.058.064-.121.111-.172.465-.505.93-1.01 1.403-1.508a2.31 2.31 0 01.381-.245c.117.663.217 1.279.335 1.891.122.63.232 1.265.401 1.884a2.998 2.998 0 01-.868 3.228 23.555 23.555 0 01-1.684-2.966zm-2.521-.631c.545.53 1.046 1.103 1.566 1.657.074.078.14.194.23.219 1.15.319 1.243 1.433 1.692 2.265.446.829.133 1.707.085 2.603-.893-.737-1.695-1.479-2.58-2.105-.566-.4-1.147-.744-1.339-1.451-.2-.735-.375-1.476-.527-2.224a7.023 7.023 0 01-.132-1.736c.351.236.687.494 1.005.772zm-2.653-8.055c.209.163.404.344.585.539.444.559.843 1.157 1.304 1.703.235.277.584.455.846.714.244.244.462.514.647.806a5.482 5.482 0 01.837 3.556c-.006.061-.066.115-.08.139a20.875 20.875 0 01-2.698-2.074 5.273 5.273 0 01-1.481-3.217c-.054-.683-.091-1.368-.135-2.052l.175-.114zm-1.185-7.225a6.326 6.326 0 012.334 1.873c.19.241.515.376.715.613.229.257.411.553.536.874.513 1.215.54 2.58.076 3.814a4.353 4.353 0 00-.128.515c-.314-.349-.547-.651-.822-.908a38.508 38.508 0 00-1.522-1.33 2.7 2.7 0 01-1.004-1.941c-.079-1.05-.144-2.1-.212-3.15.002-.12.011-.24.028-.36h-.001zm3.567-3.318a19.069 19.069 0 01-1.283-2.348 3.054 3.054 0 01.068-1.498c.1-.421.234-.834.401-1.233.029-.079.086-.192.149-.208.743-.183.978-.902 1.458-1.361.051-.049.106-.093.288-.251.089.561.167 1.011.23 1.465.111.796.192 1.596.32 2.388a3.307 3.307 0 01-1.631 3.046zm2.103.175l.165.09c.073.578.16 1.156.215 1.736.057.596.028 1.205.138 1.79a2.923 2.923 0 01-.575 2.031c-.298.476-.62.937-.965 1.381a7.641 7.641 0 00-.252-.865c-.216-.51-.492-.995-.685-1.511a3.724 3.724 0 01-.188-2.55c.086-.25.432-.408.649-.619.502-.492 1-.988 1.498-1.483zm.603-10.13a3.488 3.488 0 01-.849.665l-.147-.112c.329-1.871.172-3.835 1.119-5.652a4.838 4.838 0 01-.123 5.099zm1.025-4.775c-.62-.712-.645-1.038-.115-1.537a1.106 1.106 0 01.115 1.537zm.269-10.856a3.84 3.84 0 01-.006-.958c.011-.205.075-.408.091-.614.016-.207.004-.418.004-.627l.22-.064.991 2.818a.896.896 0 01-.788.046.873.873 0 01-.326-.241.88.88 0 01-.186-.36zm1.522 3.521l.819 3.684c-1.278-.534-1.7-2.134-.819-3.684zm1.516 9.457a.318.318 0 01-.314-.059c-.52-.692-.961-1.44-1.313-2.231a5.9 5.9 0 01.02-1.944c.004-.17-.019-.342-.039-.642l-.535.495v-1.129c.125.034.252.028.31.089.457.427.879.89 1.262 1.384a3.4 3.4 0 01.524 1.328c.133.79.165 1.598.223 2.401a.4.4 0 01-.034.17.403.403 0 01-.104.138zm.274 8.557c-.693-.697-1.348-1.35-1.995-2.013a.387.387 0 01-.051-.247c-.004-.585-.01-1.168.004-1.752.027-.149.075-.294.142-.429 1.538 2.067 2.108 3.367 1.9 4.441zm-.305-3.96l-.2.046a6.91 6.91 0 01-1.572-5.329 11.72 11.72 0 011.577 2.466c.185.927.251 1.873.195 2.817zm-2.856-15.65c.946.414 1.011.998.201 2.135l-.201-2.135zm.144 12.819c.052.106.089.218.109.334.008 1.28.06 2.563-.012 3.838a8.308 8.308 0 01-.848 3.515 6.635 6.635 0 01-.657.863c-.103-1.39-.17-2.679-.301-3.96a4.465 4.465 0 01.573-2.302c.336-.757.734-1.486 1.136-2.288zm-1.09 21.578c.126 1.025.19 2.057.192 3.09-.037.492-.593.944-.97 1.494a11.02 11.02 0 00-1.039-1.969 3.093 3.093 0 01-.314-3.329c.064-.18.079-.375.14-.556.055-.165.104-.421.219-.461.859-.303.87-1.249 1.402-1.791l.702-.717.133.089a9.563 9.563 0 00-.436 1.628 18.46 18.46 0 00-.029 2.522zm4.404-12.63a16.003 16.003 0 01-.844 4.343 2.33 2.33 0 01-1.17 1.326c-.582.256-1.15.54-1.845.869.065-.35.104-.704.116-1.059-.045-.877-.137-1.75-.197-2.625a5.818 5.818 0 01.398-2.517c.451-1.179.799-2.396 1.22-3.681.303.348.612.697.913 1.053.308.403.636.791.983 1.161a1.235 1.235 0 01.426 1.13zm.278-4.77c-.095-1.024-.222-2.046-.337-3.069l.256-.051c.797 1.313.581 2.856.941 4.381a1.51 1.51 0 01-.86-1.261zm.457 2.841l.193-.043.341 1.178c-.755-.272-.42-.777-.534-1.135zm.228 8.374c-.295 1.624-.598 3.247-.975 4.851-.225.957-.6 1.879-.903 2.819a1.024 1.024 0 01-.962.743c-.384.068-.764.16-1.136.276-.099-1.031-.22-2.026-.288-3.024a6.271 6.271 0 011.068-3.606c.641-1.093 1.396-2.121 2.026-3.221.519-.97.812-2.046.857-3.146a7.94 7.94 0 01.346-1.807c.096.195.268.387.276.584a25.798 25.798 0 01-.309 5.531zm.216 13.668a8.19 8.19 0 01-.737 1.028l-1.086-1.96-.206.071c.059.354.101.711.179 1.059.064.287.178.562.252.847.151.577-.084.835-.728.796-.114-1.449-.225-2.902-.347-4.354a2.14 2.14 0 01.579-1.683 8.049 8.049 0 001.451-3.134c.022-.064.048-.127.077-.188.007-.015.028-.021.158-.108.104.747.181 1.453.303 2.151.111.95.304 1.888.576 2.805a3.16 3.16 0 01-.471 2.67zm-.291 7.612c-.555-1.102-1.203-3.601-.473-4.428 1.354.984 1.62 3.468.473 4.428zm1.419-7.523a8.944 8.944 0 01-.351 3.976c-.308-.573-.606-1.096-.868-1.637a.566.566 0 01.009-.465c.383-.631.798-1.242 1.21-1.874zm.793-25.529c-.145.82-.215 1.653-.324 2.479-.023.172-.069.341-.104.51l-.26.015a8.396 8.396 0 01-.265-1.173 84.484 84.484 0 01-.189-3.145c-.013-.249.084-.327.355-.197.889.428.953.576.787 1.511zm1.112 26.342a14.344 14.344 0 01-.977-1.996 4.2 4.2 0 01-.006-1.12c-.031-.576-.097-1.148-.159-1.834a5.124 5.124 0 011.834 5.775 5.634 5.634 0 01-.692-.825zm.385 7.46c-.029-.016-.145-.041-.185-.111-.485-.818-.985-1.629-1.419-2.473a1.794 1.794 0 01-.1-.923c.097-1.125.229-2.245.364-3.524a6.637 6.637 0 011.356 5.191 10.872 10.872 0 00-.016 1.84zm-.38-18.706a4.032 4.032 0 011.383 2.595 3.853 3.853 0 01-1.383-2.595zm.969 3.369c.153.108.277.252.362.419.084.168.126.354.122.541-.036.768-.01 1.54-.01 2.322a6.49 6.49 0 01-2.262-1.649 3.67 3.67 0 01-.818-2.507 20.62 20.62 0 01-.435-4.327c.089-.787.255-1.566.388-2.348l.21.034c.033.234.042.47.026.706a7.462 7.462 0 00.889 5.106c.427.637.941 1.21 1.528 1.703zm-17.808-1.516l-1.439-2.428.177-.14c.136.114.266.235.387.364.319.373.601.776.939 1.13.332.348.307.652-.064 1.074zm-1.043-4.143l.645-2.46a1.834 1.834 0 01.611 1.655c.028.874.175 1.739.435 2.573.019.159.021.32.004.479a7.126 7.126 0 01-1.695-2.247zm2.243 6.162c-.547-.625-.553-.839-.137-1.304l.137 1.304zm-.185-10.982a14.766 14.766 0 00-.555-3.671.685.685 0 01.011-.207l.142-.143c.628.515 1.25 1.039 1.888 1.542.209.139.429.261.657.365.088.048.214.076.26.151a4.11 4.11 0 01.713 3.079 7.74 7.74 0 00-.05.791 3.066 3.066 0 01-.104.433c-.859-.512-1.684-.958-2.453-1.488a1.239 1.239 0 01-.509-.852zm16.955 39.871c-.324-.97-.697-1.925-1.006-2.898a7.992 7.992 0 01.11-5.084c.164-.491.237-1.012.36-1.517a.893.893 0 01.121-.215l.161.009c.057.53.062 1.065.014 1.596a3.365 3.365 0 00.999 3.44 1.205 1.205 0 01.416 1.016c.021 4.917.063 9.833.094 14.749a5.014 5.014 0 01-.076.646l-.123.004c-.251-1.061-.498-2.123-.757-3.181a852.205 852.205 0 00-1.343-5.404.54.54 0 01.254-.693 2.065 2.065 0 00.776-2.468zm2.315-4.608a2.805 2.805 0 01-1.403-1.815 1.515 1.515 0 01-.06-.463c.122-.839.261-1.674.386-2.454.425.287.809.63 1.142 1.019.239.462.403.958.488 1.471.096.367.1.762.223 1.118.145.289.323.56.53.808 0 .747.006 1.661-.003 2.575-.002.317.055.568.43.605.388.037.335-.27.444-.502.233-.428.494-.841.783-1.235a1.266 1.266 0 01-.353 1.702 1.246 1.246 0 00-.326.836c-.059 2.553-.081 5.107-.122 7.66-.028 1.77-.064 3.541-.108 5.312-.023.92-.066 1.839-.105 2.759-.032.777-.062 1.555-.113 2.332-.034.177-.089.35-.165.514l-.107-.026c-.049-1.059-.111-2.116-.144-3.174-.048-1.487-.06-2.974-.116-4.459-.049-1.302-.138-2.603-.209-3.905-.072-1.338-.112-2.677-.221-4.012-.144-1.796-.342-3.589-.513-5.384a.324.324 0 01.029-.203c.387-.55.032-.801-.387-1.079zm19.964-25.815l.211.189a14.62 14.62 0 01-.994 1.886c-.504.702-1.184 1.276-1.699 1.971a8.686 8.686 0 01-2.749 2.19c.053-.405.097-.699.13-.993a4.823 4.823 0 01.84-2.699c.183-.244.45-.412.749-.474a4.503 4.503 0 001.053-.632c.817-.484 1.639-.959 2.459-1.438zm2.082-2.273a1.012 1.012 0 01-.67.501 7.686 7.686 0 00-3.365 1.175c-.026.016-.067.001-.152.001.046-.374.091-.746.139-1.117.037-.153.058-.308.062-.465-.113-1.336.847-2.044 1.649-2.845a.14.14 0 01.098-.033c1.087.068 1.829-.836 2.833-1.006.373-.063.738-.175 1.141-.274.016.112.072.23.037.305-.578 1.258-1.151 2.52-1.772 3.758zm.121 2.412a2.67 2.67 0 011.618-1.524 1.88 1.88 0 01-1.618 1.524zm1.483 3.603a8.25 8.25 0 00-2.261 3.044 10.53 10.53 0 01.941-3.568c.27-.64.62-1.25.856-1.903.401-1.102 1.421-1.384 2.37-1.957-.337 1.679-.535 3.261-1.906 4.384zm3.003 8.294c.091.005.177.084.285.14-.91 1.167-1.738 2.315-2.659 3.382a3.411 3.411 0 01-2.918 1.132c.046-.189.084-.363.131-.535.173-.634.399-1.258.512-1.901.138-.788 1.352-2.11 2.038-2.054.903.073 1.74-.215 2.611-.164zm-5.707 2.965c-.229.67-.459 1.344-.751 1.989a1.782 1.782 0 01-.582.567c-.468.356-.953.689-1.494 1.077a4.248 4.248 0 01-.049-.585 7.593 7.593 0 00-.602-3.007 1.098 1.098 0 01.052-1.028c.369-.629.774-1.235 1.214-1.816.505-.629 1.092-1.191 1.745-1.891.109.498.19 1 .245 1.506.04.694-.004 1.391.019 2.087.042.214.102.423.18.626a.968.968 0 01.023.475zm-.731-7.729a8.074 8.074 0 01-1.711 3.524c-.345.415-.643.869-.965 1.304-.11.147-.229.286-.344.428a5.068 5.068 0 00-.13-.055c.058-.599.156-1.193.292-1.779.506-1.695.966-3.413 1.637-5.043a26.016 26.016 0 012.078-3.731c.209-.336.679-.509 1.03-.759.046.05.092.099.139.147a23.015 23.015 0 00-.955 2.163 38.213 38.213 0 00-1.071 3.801zm4.74.865c.104.184-.003.508-.061.757a5.17 5.17 0 01-2.413 3.324.177.177 0 01-.13.004c-.184-1.051-.371-2.076-.536-3.103a1.125 1.125 0 01.093-.454 6.41 6.41 0 011.683-3.077c.456-.421.878-.879 1.323-1.313a3.61 3.61 0 01.392-.294c.074.036.148.07.222.104-.197.912-.39 1.824-.591 2.735a1.68 1.68 0 00.018 1.317zm-8.138-17.519c.301.659-.181 1.096-.251 1.625-.378-.294-.315-.712.251-1.625zm-.241 5.876c.107.318.26.621.389.931.114.189.192.398.232.616a6.992 6.992 0 01-.128 1.144 2.574 2.574 0 01-.884 1.555c-.455.408-.851.882-1.312 1.37-.189-.74-.319-1.452-.554-2.128a2.8 2.8 0 01.414-2.406c.444-.803.89-1.602 1.415-2.548.168.581.281 1.029.428 1.466zm-14.061-20.647c.049-.225.136-.439.259-.633l.152.028.136.975c-.263-.171-.552-.278-.547-.37zm-.834 1.544c.602.926.257 1.878.097 2.825a7.802 7.802 0 01-.097-2.825zm-.098 10.692c.16-.693.239-1.405.371-2.106.044-.144.107-.282.187-.41.141.049.274.121.391.213.291.324.552.675.83 1.011.09.11.188.285.295.294.414.036.453.362.487.631a3.942 3.942 0 01-.385 2.387c-.324.627-.585 1.288-.89 1.973-.923-1.199-1.651-2.408-1.286-3.993zm-4.424-4.26c.035-.177.103-.347.199-.5.164.076.412.108.481.236a3.282 3.282 0 01.483 3.023 9.572 9.572 0 00-.334 1.085c-.076-.002-.151-.006-.226-.009-.17-.842-.359-1.68-.505-2.528a7.625 7.625 0 01-.098-1.307zm.811 6.491a7.091 7.091 0 011.024 1.668c.127.443.149.91.063 1.363a13.932 13.932 0 01-.352 1.562 10.038 10.038 0 01-2.907-6.835c.143.056.276.132.396.227.603.662 1.224 1.311 1.776 2.015zm-11.723-30.464l-1.286-2.836c1.395.941 1.827 1.905 1.286 2.836zm-.472 9.709a4.84 4.84 0 01.662-3.975c.191.359.38.693.55 1.038.395.812.827 1.611 1.153 2.451.159.539.27 1.091.333 1.649l-.22.062c-.202-.483-.42-.959-.599-1.45-.202-.555-.356-1.127-.554-1.683a4.446 4.446 0 00-.325-.614l-.194.096a9.252 9.252 0 00.68 3.246c.152.481.321.954.491 1.428a.438.438 0 01.006.372.43.43 0 01-.287.236c-.591.251-1.177.512-1.87.813.03-.29.081-.578.153-.862.263-.916.27-1.887.021-2.807zm-9.523-.678l.187-.076c.953.826.895 2.062 1.259 3.127l-.144.054c-.196-.516-.378-1.04-.591-1.549-.22-.526-.473-1.038-.711-1.556zm.122 4.239c1.482 1.478 1.114 3.451 1.627 5.149a.744.744 0 01-.117.097c-.832-.643-1.692-1.28-1.659-2.488.027-.92.098-1.839.15-2.758zm-3.3 22.87a111.41 111.41 0 01-1.543-3.696 12.876 12.876 0 01-.36-1.287 3.134 3.134 0 011.598 1.36c.677 1.241 1.208 2.563 1.822 3.904a3.771 3.771 0 01-.986.128.798.798 0 01-.53-.409zm-2.724-.587c.052-.425.103-.85.156-1.274l.137-.024c.258.441.5.892.777 1.321.557.86 1.126 1.714 1.706 2.561a1.683 1.683 0 01.195 1.746 18.316 18.316 0 00-.604 2.152c-.06-.008-.153.007-.193-.032a7.42 7.42 0 01-2.485-3.935c-.026-.137-.059-.331.01-.416.528-.647.215-1.4.3-2.099zm20.772 41.194c.012.157.013.314.004.471l-.097.001a3.628 3.628 0 01-.468-.844 3.999 3.999 0 00-1.145-1.741 5.277 5.277 0 01-.695-1.715.144.144 0 01-.004-.104c.618-1.059.384-2.313.85-3.6.4.59.761 1.079 1.077 1.596.636.975.93 2.133.837 3.294a1.72 1.72 0 01-.165.7 2.869 2.869 0 00-.194 1.942zm6.843 21.394a71.436 71.436 0 00-.404-3.919 83.024 83.024 0 00-.973-5.715c-.235-1.152-.632-2.272-.967-3.403-.202-.681-.431-1.355-.635-2.036a.83.83 0 01-.01-.387 5.414 5.414 0 00-.804-4.405c-.312-.439-.596-.9-.935-1.316-.123-.151-.369-.2-.703-.368l.12 2.016-.225.008c-.335-1.354-1.333-2.688.042-4.1.311.532.638 1.101.975 1.666a14.302 14.302 0 011.592 2.72c.706 2.194 1.24 4.445 1.773 6.689.414 1.74.786 3.496 1.055 5.264.237 1.556.338 3.137.443 4.71.059.87.106 1.742.143 2.613a74.111 74.111 0 01-.487-.037zm1.716.131a243.43 243.43 0 00-.51-5.663 42.595 42.595 0 00-1.577-7.605c-.599-2.03-1.196-4.06-1.821-6.083a23.32 23.32 0 00-.88-2.375 4.576 4.576 0 00-.721-1.019 5.036 5.036 0 01-.837-1.808l.202-.119c.35.48.682.978 1.062 1.435.184.165.392.302.616.407.066-.229.233-.485.179-.681-.238-.85-.541-1.682-.818-2.522-.037-.113-.122-.287-.078-.338.636-.708-.005-1.441.039-2.158.031-.53-.281-1.078.325-1.509.176-.126.202-.464.311-.743.434.935.87 1.762 1.206 2.629a1.96 1.96 0 01-.519 2.604c-.322.257-.294.459-.124.834.272.675.487 1.371.642 2.082.21.823.38 1.658.559 2.49.464 2.157.926 4.315 1.384 6.472.284 1.344.584 2.684.817 4.037.198 1.153.313 2.32.46 3.481.243 1.872.353 3.758.331 5.645-.003.175.001.35.001.526-.084-.004-.165-.014-.249-.019zm12.183-23.319a.671.671 0 01-.102.395c-.346.779-.758 1.536-1.045 2.336-.916 2.547-1.857 5.091-2.655 7.676-.613 1.989-1.09 4.026-1.504 6.066-.41 2.012-.675 4.055-.983 6.088-.044.288-.077.578-.118.867-.211.004-.419.014-.63.016.137-1.036.285-2.072.429-3.107.211-1.521.384-3.05.657-4.561.423-2.326.862-4.652 1.394-6.956.5-2.166 1.131-4.299 1.697-6.448.14-.53.254-1.067.362-1.531-.265-.138-.479-.179-.547-.299a2 2 0 01.568-1.557c.117.603.642 1.105.274 1.773a.22.22 0 00.001.099.207.207 0 00.046.088c.096.108.26.303.313.279.207-.096.479-.223.554-.409.291-.721.509-1.472.771-2.204.072-.199.256-.546.306-.531.573.165.683-.318.862-.62a3.922 3.922 0 013.082-2.226c-.21.584-.385 1.181-.523 1.787a2.384 2.384 0 01-2.521 2.217c-.366.015-.873.121-.688.762zm16.139-28.65a9.483 9.483 0 011.03-.511c.306-.064.615-.109.925-.133.561-.111 1.112-.264 1.673-.364.373-.066.757-.069 1.135-.101.018.059.038.115.056.173a2.346 2.346 0 01-.44.291 7.482 7.482 0 00-3.457 2.924 12.857 12.857 0 01-1.667 1.8 1.516 1.516 0 01-.749.292c-.44.084-.89.114-1.395.173.3-.703.553-1.424.758-2.16a3.43 3.43 0 012.131-2.384zm3.784-4.3a5.493 5.493 0 011.886-2.156.905.905 0 01.864-.114c.454.07.914.093 1.372.067.338.024.674.095 1.01.146.013.057.026.115.041.173-.956.939-1.892 1.898-2.872 2.809a5.098 5.098 0 01-2.67.923c-.218.045-.438.09-.75.152.095-.192.145-.309.207-.417.338-.507.643-1.036.912-1.583zm3.132-10.078a22.808 22.808 0 01-2.485 3.043c-.098.114-.363.243-.423.198-.136-.103-.293-.333-.262-.472a5.293 5.293 0 01.492-1.621 34.976 34.976 0 012.291-3.348c1.046-1.336 2.19-2.596 3.359-3.969.015.168.04.231.021.27-.984 1.974-1.883 3.998-2.993 5.899zm5.704-1.472c-.033.3-.048.601-.045.903.002.207-.042.412-.131.599a4.93 4.93 0 01-2.73 2.281c.034-.275.087-.533.093-.79a28.44 28.44 0 00.001-1.703 2.5 2.5 0 01.995-2.155c.654-.513 1.374-.945 2.069-1.406.047-.031.133-.004.328-.004-.203.782-.412 1.524-.58 2.275zm3.651-.982c.355-.14.72-.253 1.092-.335.115-.032.291-.056.362.006.612.534 1.253.153 1.893.105a2.7 2.7 0 012.102.724c-.119.103-.164.176-.224.19a19.434 19.434 0 00-4.344 2.212 3.458 3.458 0 01-2.461.625 7.751 7.751 0 00-2.045.127 7.15 7.15 0 00.779-1.232 4.545 4.545 0 012.846-2.422zm3.021-4.571c-.01.386-.054.771-.131 1.151a2.454 2.454 0 01-.541.916 4.895 4.895 0 01-2.478 1.671c-.39.14-.764.324-1.112.548-.143.07-.298.118-.586.229.122-.852.335-1.689.634-2.496a3.99 3.99 0 011.366-1.262c.937-.653 1.92-1.239 3.032-1.947-.074.478-.139.833-.184 1.19zm-.8 9.06a1.454 1.454 0 01-1.491-.362c2.399-1.167 4.608-2.735 7.517-2.027-1.104.499-2.194 1.034-3.318 1.485-.881.354-1.805.603-2.708.904zm-3.31 1.85a5.218 5.218 0 011.864-.594c.875-.198 1.764-.329 2.648-.488l.052.053c-.662.464-1.311.952-1.992 1.386a19.713 19.713 0 01-4.84 2.498c-.415.124-.854.346-1.257.004 1.173-.967 2.298-1.985 3.525-2.859zm-6.907 1.625c.224-.31.416-.641.572-.99a3.333 3.333 0 012.17-1.874 5.79 5.79 0 01.793-.25c.166-.043.407-.134.503-.059.624.482 1.347.21 2.132.335-.415.367-.78.677-1.129 1.002-.672.626-1.307 1.297-2.011 1.884-.762.637-1.548 1.099-3.485.644.177-.269.323-.476.455-.692zm-.323-1.614a.771.771 0 01-.092.821c-.345.564-.736 1.1-1.17 1.6a5.408 5.408 0 01-1.085.71c-.316.204-.628.416-.97.643-.056-.665-.057-1.298-.173-1.909a2.249 2.249 0 011.015-2.405 24.298 24.298 0 002.221-2.179c.148-.148.302-.289.454-.433l.162.021c.021.281.018.563-.008.843-.087.513-.237 1.014-.332 1.526-.08.247-.088.511-.022.762zm22.542-16.288c.212-1.971 1.495-2.939 3.172-3.538.401-.145.799-.368 1.245-.069.092.062.287-.029.434-.051.946-.139 1.89-.287 2.836-.41.222.024.439.078.646.162-1.219 1.144-2.257 2.247-3.435 3.172a2.827 2.827 0 01-2.368.537 7.175 7.175 0 00-1.935.107c-.206.017-.408.06-.595.09zm-4.486-2.161a15.644 15.644 0 013.9-4.576l.157.153-3.951 4.513-.106-.09zm2.799-.906c.182-.194.349-.401.499-.62.278.534.349 1.152.201 1.736-.051.254-.12.505-.204.75-.025.095-.067.233-.023.292.59.776-.133 1.199-.484 1.678-.325.345-.67.67-1.034.973a2.059 2.059 0 00-.272.593c.225.021.451-.002.667-.067.4-.245.784-.516 1.15-.81a3.795 3.795 0 012.713-.698c.387.036.743.412 1.205.688-.735.459-1.418.901-2.117 1.318-.49.301-.996.576-1.516.821a3.336 3.336 0 01-2.314.125 5.914 5.914 0 00-2.534.168c-.129.02-.262.03-.425.047.316-.615.58-1.255.789-1.914.51-2.237 2.095-3.657 3.699-5.08zm-7.413 8.74a.756.756 0 00.722.063 10.342 10.342 0 013.488-1.155c.064-.01.173-.004.198.035.373.586 1.039.489 1.576.689l.5.179c-1.168.811-2.195 1.552-3.252 2.251a4.75 4.75 0 01-3.473.6 15.78 15.78 0 00-2.196-.018c.093-.158.199-.308.317-.449a6.056 6.056 0 001.86-4.096.776.776 0 01.207-.515c.689-.568 1.405-1.105 2.111-1.653l.154.136c-.108.358-.215.716-.327 1.073-.035.116-.13.235-.115.341.139.962-.586 1.298-1.216 1.703a2.305 2.305 0 01-.282.139c-.318.14-.452.44-.272.677zm-22.473 18.073a2.97 2.97 0 01.96-2.56c.584-.582 1.219-1.115 1.852-1.646.375-.315.791-.586 1.188-.877.028.06.045.124.052.189a7.762 7.762 0 01-.317 2.964c-.028.081-.111.189-.084.237.466.818-.231 1.296-.568 1.843a7.222 7.222 0 01-3.266 2.674c.069-.792.14-1.536.199-2.283.013-.18.008-.362-.016-.541zm8.237-27.142c.435-.039.868-.102 1.301-.156l.025.133c-.525.625-1.062 1.241-1.575 1.877-.328.407-.638.83-.924 1.268a.996.996 0 01-1.062.505 15.397 15.397 0 00-2.482.2c.027-.15.065-.297.114-.442.137-.239.256-.489.355-.746a4.24 4.24 0 012.064-2.343c.094-.066.259-.145.334-.106.665.341 1.235-.133 1.85-.19zm1.597-11.608c-.501.893-.967 1.804-1.452 2.705-.063.117-.147.222-.233.351-.737-.688-.435-1.45-.203-2.099a24.206 24.206 0 012.714-5.218c.054-.059.114-.112.18-.157a8.902 8.902 0 01-1.006 4.418zm5.977 10.296c-.546.484-1.082.98-1.642 1.447-.953.798-1.898 1.605-2.888 2.354a18.414 18.414 0 01-2.316 1.502c-.38.118-.785.121-1.167.009 1.827-3.066 4.8-4.366 8.013-5.312zm-4.758-.421a2.244 2.244 0 01-.508.088c-.872.008-1.745.004-2.645.004a3.976 3.976 0 01.907-1.6 3.976 3.976 0 011.529-1.023 6.51 6.51 0 011.83-.155c.458-.054.919-.08 1.38-.078-.664 1.094-1.049 2.404-2.493 2.764zm4.132-8.18c.186-.111.482-.04.726-.053.317-.018.634-.044.953-.052.349-.009.701-.002 1.167-.002-.495.615-.885 1.122-1.298 1.61a66.909 66.909 0 01-1.638 1.858.898.898 0 01-.476.302c-.724.093-1.455.142-2.279.215.33-.667.659-1.254.919-1.87a4.361 4.361 0 011.926-2.008zm14.356-6.772l.123.222a12.895 12.895 0 01-4.338 1.727l-.081-.201 4.296-1.748zm-6.013-2.569c.149-.361.339-.778.497-1.207a5.3 5.3 0 00.328-1.088 3.22 3.22 0 012.148-2.497c.957-.433 1.976-.728 3.157-1.153-.118.4-.262.79-.428 1.172-.287.556-.631 1.081-.935 1.629a1.15 1.15 0 00-.204.57 1.243 1.243 0 01-.442 1.018c-.432.44-.889.855-1.369 1.243a1.668 1.668 0 01-.863.299c-.626.044-1.257.014-1.889.014zm-2.586 2.224c.295-.172.578-.366.887-.507a13.352 13.352 0 011.574-.631c.156-.048.376.14.572.194.291.104.592.172.899.203.66.031 1.294.262 1.82.661-.525.317-.952.608-1.41.841a10.348 10.348 0 01-3.321 1.345c-.335.044-.691-.056-1.023-.003-.734.115-1.459.288-2.261.451a2.72 2.72 0 01.106-.365c.432-.901.647-1.89.627-2.889a2.887 2.887 0 01.892-2.106 21.496 21.496 0 011.735-1.634c.257-.233.536-.442.864-.709 0 .782.587 1.428.083 2.246a4.78 4.78 0 01-1.456 1.72c-.574.361-.66.512-.588 1.183zm-6.798 3.209a5.725 5.725 0 011.112-1.92c.632-.764 1.389-1.424 2.097-2.124.148-.121.304-.232.467-.333.047.464.087.802.114 1.141.028.358-.096.742.265 1.032.067.053.036.311-.027.434-.466.91-.969 1.801-1.418 2.718-.114.233-.2.669-.081.786.289.281.561.005.79-.239.274-.314.574-.604.896-.868a1.22 1.22 0 01.611-.097c.404-.023.81-.025 1.214-.043.167-.007.332-.034.523-.055-.008.132.015.229-.023.265-.465.508-.964.985-1.491 1.429a1.53 1.53 0 01-.914.121 5.511 5.511 0 00-3.74 1.105c-.188.145-.389.275-.619.437.063-.635.141-1.199.167-1.766a8.614 8.614 0 01.057-2.023zm-1.567 4.85a.738.738 0 01-.048.608c-.414.837-.861 1.657-1.3 2.481a.423.423 0 01-.149.151c-.733.452-1.471.899-2.323 1.419a15.642 15.642 0 01.042-2.903 7.953 7.953 0 011.02-2.151c.625-1.119 1.293-2.216 1.943-3.322.052-.087.108-.172.196-.312a2.976 2.976 0 01.612 2.361c-.057.548-.398 1.096.007 1.668zm-8.982-16.933c.036.904.022 1.81-.042 2.712-.028.385.049.66.404.712.348.05.47-.229.541-.563.111-.416.25-.825.415-1.224.017-.047.043-.111.082-.13.622-.278 1.248-.552 1.962-.865-.187.633-.363 1.2-.522 1.772-.144.517-.565.62-1.001.797a5.162 5.162 0 00-2.673 2.417 5.09 5.09 0 01-.293.435c-.465-.828-.941-1.626-1.367-2.451a3.391 3.391 0 01-.229-2.503c.296-1.066.669-2.11 1.064-3.34.274.394.446.675.651.928.182.226.418.408.599.634.165.206.4.44.409.669zm9.388-6.014a9.455 9.455 0 01-3.12 3.655 19.182 19.182 0 013.12-3.655zm-7.127-3.38a4.757 4.757 0 011.422-2.392c.416-.42.813-.86 1.313-1.39.102.63.198 1.152.267 1.677-.017.73.069 1.46.255 2.166.198.487-.192 1.225-.353 1.842-.306 1.175-1.405 1.436-2.216 1.958-.256-.934-.529-1.793-.718-2.67a3 3 0 01.03-1.19zm-.723 6.963c.139-.113.326-.198.407-.344.209-.376.341-.798.563-1.164.178-.243.385-.464.616-.657.06-.059.159-.133.226-.122 1.1.189 2.042-.693 3.252-.43-1.12 1.68-1.971 3.488-3.933 4.36a9.479 9.479 0 00-1.659 1.197c-.215-.715-.411-1.462-.668-2.186a11.978 11.978 0 01-.602-1.316 3.484 3.484 0 01-.002-1.544c.265-1.017.652-2.003.984-2.99.336.21.645.459.921.741.186.268.29.584.3.909a3.025 3.025 0 01-.47 2.317c-.128.25-.178.531-.143.809 0 .14.135.28.208.42zm-24.716 17.802c.308.353.504.79.563 1.255.115.654.069 1.335.141 1.999.066.222.169.431.306.619a2.95 2.95 0 00.52-.632c.142-.327.125-.726.285-1.04.104-.204.394-.317.607-.461.214-.143.438-.272.654-.412.197-.127.389-.262.583-.394l.177.103a12.84 12.84 0 01-.519 2.003c-.127.296-.57.49-.908.656a5.009 5.009 0 00-2.297 2.407c-.099.203-.207.403-.33.641-.31-.511-.604-1.007-.911-1.493-.176-.28-.378-.542-.563-.816a4.37 4.37 0 01-.35-3.409c.126-.734.327-1.454.502-2.179.014-.061.073-.11.147-.218.242.216.463.454.662.71.214.251.46.473.731.661zm9.201-6.39l.149.115a12.086 12.086 0 01-2.78 3.971c-.053-.036-.105-.074-.158-.111.929-1.326 1.859-2.651 2.789-3.975zm-6.78-4.176c.458-.699 1.013-1.334 1.527-1.994.079-.07.165-.132.256-.185.156.543.326 1.023.423 1.518.084.427.075.872.125 1.307.017.147.044.349.143.421a.78.78 0 01.269.86 7.7 7.7 0 01-.484 1.906 4.3 4.3 0 01-1.093 1.133 5.218 5.218 0 01-.721.475 21.771 21.771 0 01-1.068-2.855 3.39 3.39 0 01.623-2.587zm-.609 5.044a3.638 3.638 0 01-.148 2.13 2.27 2.27 0 00-.276.886c-.015.158.165.334.257.502.146-.104.378-.181.425-.319a3.331 3.331 0 011.05-1.819c.21-.107.436-.177.669-.208.219-.04.435-.097.647-.168a2.99 2.99 0 012.071-.515c-.167.313-.327.603-.478.898a9.807 9.807 0 01-2.066 3.067c-.573.506-1.229.918-1.819 1.407a4.462 4.462 0 00-.576.716l-.157-.091a8.36 8.36 0 00-.345-1.126 11.537 11.537 0 00-.914-1.691 3.024 3.024 0 01-.362-2.375c.165-.908.447-1.794.706-2.799.51.57 1.286.694 1.316 1.505zm-6.867 1.663a6.373 6.373 0 01-.014-1.288l.234.002a33.53 33.53 0 01.548 8.233c-.829.018-1.215-.668-1.319-1.354a6.71 6.71 0 01.348-2.314 8.171 8.171 0 00.203-3.279zm-2.436 8.852l.201.01c-.05.926-.099 1.852-.147 2.779l-.152-.008a4.194 4.194 0 01.098-2.781zm.367 12.517a.654.654 0 01-.109.492c-.242.359-.523.692-.855 1.119-.187-.393-.348-.724-.503-1.058a3.732 3.732 0 00-.399-.845 2.899 2.899 0 01-.351-2.602.942.942 0 01.559-.744c.25-.126.385-.476.57-.729.076-.103.147-.21.22-.317.118 1.589.409 3.159.868 4.684zm-1.293-7.968a2.077 2.077 0 01-.814 2.354c.053-.89.164-1.739.14-2.584-.026-1 .242-2.061-.488-3.059-.081.169-.178.278-.179.389-.014.933.012 1.866-.021 2.798a9.025 9.025 0 01-.266 1.798c-.616-.802-1.421-1.49-1.025-2.669.141-.501.242-1.013.304-1.53a1.038 1.038 0 01.536-.917c.255-.139.331-.626.462-.967a2.022 2.022 0 011.043-1.313c-.1.561-.22 1.118-.295 1.682-.03 1.364.174 2.723.603 4.018zm-5.062-23.684c.205 1.229.231 2.481.077 3.717a.593.593 0 01-.051.199c-.422.692-.848 1.382-1.267 2.063-.394-.54-.844-1.077-1.203-1.67a4.274 4.274 0 01-.319-2.602 1.11 1.11 0 01.072-.407c.154-.306.348-.592.506-.896a8.15 8.15 0 00.55-1.149 3.137 3.137 0 011.668-1.769c0 .243.003.402-.001.56a15.72 15.72 0 00-.032 1.954zm-6.791-6.202c.298.157.607.293.924.407a1.56 1.56 0 01.713 1.249c.011.177-.066.416.022.52.162.175.373.296.605.347.081.016.319-.253.32-.393.002-.633-.088-1.268-.078-1.9.007-.4.078-.795.208-1.173.076-.224.315-.39.473-.589.27-.341.532-.688.799-1.031.093-.12.19-.235.387-.478.328 1.088.668 2.018.876 2.975.11.648.148 1.306.113 1.963a1.828 1.828 0 01-.247.84c-.468.826-.972 1.63-1.467 2.448-.255-.407-.516-.85-.802-1.275a3.85 3.85 0 00-1.856-1.472 1.849 1.849 0 01-1.388-1.462c-.063-.422-.198-.832-.331-1.369.297.162.509.287.729.393zm-2.32-12.226c.134-.57.187-1.158.298-1.888.968 1.172 2.058 2.046 2.55 3.361.265.59.286 1.26.061 1.865-.276.8-.508 1.615-.693 2.441a3.35 3.35 0 01-2.42-2.682c-.043-.341-.14-.677-.202-1.018-.015-.083-.026-.225.019-.253.731-.483.244-1.222.387-1.826zm-1.141 8.8a13.02 13.02 0 01-.134.11 10.663 10.663 0 01-3.004-3.649l.171-.137 2.967 3.675zm-.304-2.74a3.254 3.254 0 012.076.427c.159.068.352.202.483.16.885-.29 1.172.428 1.562.922.17.302.319.615.445.938.071.124.24.193.365.287.087-.147.258-.303.243-.44a2.226 2.226 0 00-.263-.939 2.588 2.588 0 01-.26-2.113c.092-.39.124-.766.604-.935.189-.067.293-.372.454-.595.063.047.17.084.188.146.34 1.2.718 2.392.973 3.61a2.44 2.44 0 01-.296 1.241c-.392.989-.826 1.962-1.212 2.867a11.544 11.544 0 01-5.362-5.576zm-5.285 19.835c.242-.829.368-1.691.553-2.537a3.43 3.43 0 01.222-.502c.732 1.313 1.871 2.207 2.151 3.629.189.647.147 1.34-.118 1.96-.299.68-.555 1.378-.764 2.091-.115.332-.24.516-.566.174a1.879 1.879 0 00-.537-.416c-.995-.462-1.047-1.403-1.263-2.299a3.884 3.884 0 01.322-2.1zm-.04 5.439c.37.072.731.18 1.08.323.349.179.651.439.879.759.179.39.333.792.459 1.202.087.188.298.319.453.476.093-.176.278-.362.261-.527a4.61 4.61 0 00-.273-1.104 4.077 4.077 0 01.297-2.641.312.312 0 01.124-.164c.32-.204.646-.401 1.049-.648.041.135.107.306.146.482.344 1.103.507 2.254.48 3.409a3.204 3.204 0 01-.311 1.135c-.56 1.066-1.173 2.105-1.772 3.165a4.737 4.737 0 00-.399-.415c-.627-.534-1.283-1.034-1.893-1.586a9.86 9.86 0 01-2.126-3.397 5.895 5.895 0 01-.28-.618c-.08-.245-.053-.441.293-.332.51.161 1.02.326 1.532.481zM87.566 96.439l.215-.026c.49 1.512.666 3.108.519 4.691l-.163.02-.57-4.685zm-3.614 10.884c.102.02.212.108.296.086 1.26-.336 1.74.724 2.433 1.373.246.269.453.573.611.903.168.291.37.51.692.279.316-.226.213-.533.053-.838a16.45 16.45 0 01-.578-1.258c-.036-.087-.032-.264.023-.303.494-.351.405-.935.592-1.407.054-.136.098-.277.193-.551.362.778.706 1.422.953 2.102.069.289.027.594-.118.854a5.496 5.496 0 00-.379 4.526 1.592 1.592 0 01-.393-.12 6.083 6.083 0 00-1.852-.773 3.645 3.645 0 01-2.347-2.031c-.484-.981-.952-1.97-1.496-3.098.533.102.926.176 1.317.256zm-4.14-9.168a31.217 31.217 0 01-.528-3.575 3.48 3.48 0 011.586.884c.23.196.446.407.645.634a1.067 1.067 0 00.843.46c.183-.008.423.24.554.43.278.397.492.838.748 1.252a3.312 3.312 0 01-.027 2.907c-.022.074-.04.149-.063.224a21.036 21.036 0 01-2.647-1.548 3.336 3.336 0 01-1.111-1.668zm1.647 3.266a.909.909 0 01.992.246 3.371 3.371 0 011.302 1.732c.17.43.408.829.706 1.183l.243-.052a5.048 5.048 0 00-.005-.668c-.067-.516-.179-1.027-.236-1.542a.962.962 0 01.462-1.121c.206-.113.243-.516.39-.767.293-.501.609-.99.916-1.484l.186.056c.165.685.347 1.365.49 2.054.158.606.256 1.226.291 1.851-.04.64-.133 1.276-.275 1.901-.107.649-.22 1.297-.332 1.945-.03.169-.063.336-.103.55-.542-.365-1.024-.738-1.551-1.029-.437-.24-.957-.333-1.388-.581a3.654 3.654 0 01-1.277-.984c-.615-.941-1.091-1.973-1.614-2.973a1.024 1.024 0 01-.037-.357c.275.063.56.076.84.04zm5.981 30.945c.016-.197.055-.391.116-.578.888 1.094 2.233 1.825 2.512 3.329.046.489.02.981-.08 1.462-.08.636-.198 1.269-.305 1.901a1.674 1.674 0 01-.092.269c-1.366-.733-1.85-2.053-2.35-3.36a.344.344 0 01-.003-.262c.56-.885.04-1.848.202-2.761zm-2.324 5.973c-.063-.094-.102-.206-.222-.45.424.105.715.183 1.008.249.22.051.473.177.659.114.812-.276 1.311.282 1.875.649.295.223.576.462.841.718.379.337.612.807.652 1.312.172.768.398 1.522.678 2.258a3.751 3.751 0 01-3.582-1.983c-.597-.979-1.272-1.912-1.909-2.867zm-2.617-.242a4.93 4.93 0 011.97 1.607c.718 1.009 1.514 1.962 2.275 2.942.035.078.062.159.08.242a2.29 2.29 0 01-.78-.154 26.993 26.993 0 01-2.68-1.905c-.94-.809-1.784-1.734-2.65-2.628-.412-.425-.778-.897-1.202-1.39 1.053.45 2.035.836 2.987 1.286zm-2.084-3.549c.74.547 1.415 1.182 2.153 1.808a1.692 1.692 0 01-2.12-.232c-1.629-1.132-3.204-2.338-4.8-3.518a1.61 1.61 0 01-.172-.211 5.738 5.738 0 012.667.704c.791.428 1.55.912 2.272 1.449zm2.335-2.883c.052-.035.192.047.286.086a8.67 8.67 0 012.833 2.234c.132.163.23.352.285.554.249.756.48 1.517.736 2.327-.717-.191-1.39-.415-2.08-.542a4.93 4.93 0 01-2.35-1.387c-1.025-.913-2.04-1.837-3.072-2.742a8.234 8.234 0 00-.83-.566c.41-.243.873-.381 1.349-.401.475-.021.948.075 1.377.281.471.172.926.527 1.466.156zm-.744-5.108c.013-.21.045-.419.095-.624l.17-.077 3.308 3.764a1.642 1.642 0 01.377 1.221c-.026.606-.007 1.214-.007 1.821l-.238.042c-.848-1.052-2.278-1.446-2.954-2.696-.19-.351-.409-.688-.602-1.037a1.133 1.133 0 01-.112-1.123c.155-.356-.031-.855-.037-1.291zm-7.823-1.522a3.23 3.23 0 001.533-.234c.192-.113.636.073.895.234.782.485 1.531 1.023 2.29 1.546.1.069.177.224.278.234.25.027.641.092.732-.035.172-.237.063-.537-.195-.786a16.133 16.133 0 01-1.127-1.283c-.063-.074-.133-.228-.1-.282.352-.563.056-1.112-.008-1.665-.019-.154-.003-.313-.003-.626.189.241.397.468.622.677a3.441 3.441 0 011.425 3.384 5.217 5.217 0 00.977 3.303c.097.161.17.337.292.585-.29-.071-.503-.133-.72-.175-.52-.133-1.05-.226-1.585-.277a4.028 4.028 0 01-2.64-.988c-1.16-1.059-2.206-2.241-3.39-3.463a6.39 6.39 0 01.724-.149zm-.583-12.712l.117-.066a14.723 14.723 0 013.122 5.571l-.123.069-3.116-5.574zm-4.542 5.882a3.722 3.722 0 01-1.894-1.135 11.691 11.691 0 01-2.065-3.006c-.176-.293-.36-.582-.539-.873l.09-.171c.643.193 1.294.361 1.926.587.49.175.953.424 1.43.639.094.042.209.124.289.1.828-.25 1.276.412 1.805.791a6.77 6.77 0 011.297 1.295c.186.289.308.614.36.953.127.534.21 1.078.328 1.707-.568-.214-1.051-.428-1.556-.577-.482-.14-.974-.243-1.471-.31zm1.031 1.162a.488.488 0 01.325-.012c1.163.27 2.19.949 2.895 1.913a5.05 5.05 0 001.074.947c.387-.342.245-.549.023-.781a4.853 4.853 0 01-1.336-2.322 1.477 1.477 0 01.077-.543c.06-.314.243-.657.167-.932-.201-.732.172-1.313.291-1.958.058-.02.115-.038.172-.056.314.443.664.865.938 1.331a66.164 66.164 0 011.825 3.28c.173.416.283.856.325 1.305.154.935.276 1.876.416 2.845a3.191 3.191 0 01-.389-.146 11.415 11.415 0 00-3.27-.839 3.979 3.979 0 01-1.763-.811c-.937-.763-1.77-1.653-2.64-2.497a.695.695 0 01-.127-.238c.362-.178.675-.344.997-.486zm43.079 80.913c-.024-.421-.069-.84-.113-1.26a889.836 889.836 0 00-.419-3.969c-.111-1.01-.208-2.022-.348-3.028-.145-1.035-.34-2.063-.504-3.096a768.614 768.614 0 01-.74-4.753c-.059-.378-.105-.757-.158-1.135a3.72 3.72 0 011.107 2.476c.189 1.437.37 2.876.543 4.316.148 1.233.284 2.467.419 3.701.084.766.158 1.534.229 2.301.039.438.051.878.099 1.314.138 1.235.287 2.469.421 3.704-.17-.024-.34-.045-.508-.072l-.028-.499zM125 44.69A80.309 80.309 0 10205.308 125 80.405 80.405 0 00125 44.691z" fill="#0B0D0E"/><path fill-rule="evenodd" clip-rule="evenodd" d="M125 246.381A121.379 121.379 0 0112.859 171.45 121.382 121.382 0 11246.38 125 121.519 121.519 0 01125 246.381zM125 0a125 125 0 10125 125A125.14 125.14 0 00125 0zm44.757 210.538l3.281 4.111-3.435 1.752-1.402-5.07c-.347-1.343-.874-3.037-1.357-4.516l.08-.041.03.04c.893 1.223 1.888 2.585 2.803 3.724zm1.983 13.699l-1.585-6.023 4.026-2.052 3.948 4.819 2.04-1.041-13.254-16.035-2.282 1.164 5.095 20.196 2.012-1.028zm-95.786-.99a6.64 6.64 0 002.844.875l.545-1.891a5.415 5.415 0 01-2.064-.603c-2.216-1.16-3.297-4.035-.42-9.537 2.876-5.501 6.122-6.182 8.044-5.178.63.301 1.177.751 1.595 1.311l1.36-1.5a4.916 4.916 0 00-1.978-1.612c-2.857-1.494-7.569-1.067-11.283 6.036-3.197 6.116-2.14 10.271 1.358 12.099zm18.238-5.186l2.487-8.35-2.225-.664-5.799 19.475 2.225.663 2.71-9.102 5.46 1.627-2.709 9.101 2.225.664 5.799-19.476-2.225-.662-2.487 8.349-5.46-1.625zm23.646 8.3l-.599-5.229c-.174-1.467-.294-3.172-.402-4.696l-.09-.007c-.376 1.51-.83 3.224-1.25 4.551l-1.503 5.042 3.844.339zm-4.339 1.492l-1.858 5.95-2.251-.199 6.412-19.831 2.552.225 2.716 20.638-2.281-.201-.787-6.183-4.503-.399zm16.486-13.601l2.242 20.186 2.068-.23-.776-6.978c-.48-4.313-.826-6.881-1.306-9.556l.06-.007a65.191 65.191 0 003.188 6.589l4.913 9.276 2.155-.239-2.242-20.186-2.067.229.803 7.219c.388 3.505.768 6.1 1.3 9.255l-.061.007c-.82-1.859-1.959-4.058-2.959-5.986l-.092-.178-.149-.286-.156-.303-4.765-9.051-2.156.239zm21.192-1.702l-3.542 1.097-.614-1.986 9.299-2.882.614 1.986-3.542 1.098 5.403 17.415-2.216.688-5.402-17.416zM117.498 35.332l-.636-20.302 2.169-.066 4.033 9.399.349.828.005.012c.84 1.992 1.794 4.255 2.458 6.16l.061-.004a153.97 153.97 0 01-.565-9.328l-.227-7.26 2.079-.065.636 20.302-2.169.067-4.161-9.638a64.83 64.83 0 01-2.656-6.82l-.06.001c.265 2.705.406 5.293.542 9.63l.221 7.019-2.079.065zm-15.467-10.65l2.223 4.769-3.753.896-.171-5.258c-.021-1.388-.135-3.16-.257-4.71l.089-.022.03.074h.001c.577 1.392 1.22 2.94 1.838 4.252zm-1.295 13.79l-.124-6.231 4.399-1.05 2.702 5.616 2.228-.534-9.114-18.708-2.491.596.202 20.836 2.198-.526zM83.415 23.036l-2.14.898 7.865 18.74 2.14-.9-7.865-18.738zM61.502 34.88l10.9 17.145 1.755-1.115-3.768-5.929c-2.329-3.661-3.77-5.817-5.377-8.01l.05-.032a65.06 65.06 0 005.763 4.514l8.498 6.174 1.832-1.164-10.901-17.148-1.755 1.117 3.897 6.132a153.85 153.85 0 005.243 7.74l-.051.03c-1.54-1.293-3.508-2.75-5.242-4.033l-.746-.553-8.267-6.033-1.831 1.165zm-9.6 7.729l-1.723 1.556 13.622 15.077 1.722-1.556-13.62-15.077zm-7.034 17.71l4.682 2.404-2.414 3.01-3.363-4.049c-.87-1.083-2.045-2.413-3.093-3.563l.056-.07c1.327.755 2.814 1.6 4.132 2.268zm7.439 11.685l-3.921-4.845 2.83-3.528 5.58 2.777 1.434-1.789-18.682-9.182-1.603 1.998 12.948 16.333 1.414-1.764zM34.393 81.13l.457-.883c1.011-1.955.245-4.016-1.925-5.138-2.088-1.082-3.817-.89-4.981 1.292a4.785 4.785 0 00-.46 1.154l6.909 3.575zm-9.381-2.275c.253-1.088.649-2.14 1.175-3.125a6.261 6.261 0 013.392-3.406 5.48 5.48 0 014.188.572 5.37 5.37 0 013.161 5.303l.054.027c1.095-1.13 2.74-1.162 5.292-.317a27.593 27.593 0 005.092 1.311l-1.081 2.09a26.349 26.349 0 01-4.944-1.336c-2.699-.888-4.01-.583-4.926 1.184l-.416.805 7.846 4.059-1.051 2.036-17.782-9.203zm-6.73 17.591l-.647 2.2 19.5 5.721.646-2.197-7.522-2.208-1.558-1.651 10.574-1.234.705-2.4-12.602 1.611-6.931-7.219-.723 2.46 5.845 5.673.342.318a40.288 40.288 0 011.645 1.585l-.017.058-9.258-2.717zm9.823 23.67l-13.57-1.184-.203 2.311 13.48 1.176c5.013.437 7.168-1.371 7.432-4.404.263-3.002-1.56-5.339-6.815-5.797l-13.21-1.151-.201 2.312 13.57 1.182c3.543.309 4.767 1.536 4.617 3.245-.13 1.502-1.468 2.626-5.1 2.31zM152.96 28.734c.283.132.574.246.872.341 2.155.684 4.068-.26 4.943-3.02.629-1.982.388-4.019-2.083-4.802a4.757 4.757 0 00-1.28-.25l-2.452 7.732zm.769-10.004c1.125.071 2.237.286 3.309.639a6.342 6.342 0 013.863 2.776 5.84 5.84 0 01.132 4.47 6.456 6.456 0 01-2.436 3.592 5.913 5.913 0 01-5.252.706h-.002c-.373-.119-.66-.21-.967-.338l-2.516 7.93-2.184-.692 6.053-19.083zm17.103 16.79l.874.477c1.933 1.053 4.009.328 5.177-1.817 1.124-2.065.968-3.796-1.19-5.005a4.738 4.738 0 00-1.143-.485l-3.718 6.83zm2.47-9.329c1.083.277 2.125.694 3.1 1.241a6.262 6.262 0 013.333 3.461 5.476 5.476 0 01-.658 4.173 5.371 5.371 0 01-5.368 3.05l-.028.054c1.108 1.119 1.104 2.762.206 5.295a27.626 27.626 0 00-1.416 5.064l-2.066-1.125a26.367 26.367 0 011.439-4.915c.943-2.677.665-3.997-1.081-4.947l-.796-.433-4.223 7.758-2.012-1.095 9.57-17.58zm10.214 28.364c-1.989-1.664.058-5.376 2.748-8.588 2.65-3.166 5.984-5.877 7.948-4.234 2.009 1.683-.341 5.572-2.779 8.485-2.555 3.05-5.931 6.002-7.917 4.337zm-1.456 1.456c2.52 2.107 6.384 1.531 11.279-4.315 4.161-4.969 4.985-9.192 2.326-11.418-2.702-2.263-6.915-1.034-11.23 4.118-4.392 5.246-4.963 9.447-2.375 11.615zm12.979 9.92c.143.255.309.497.496.722 1.595 2.004 4.599 2.776 10-1.522 4.011-3.192 5.23-6.163 3.202-8.712a4.21 4.21 0 00-.769-.773L195.039 65.93zm12.776-13.092a10.806 10.806 0 012.239 2.187 6.789 6.789 0 011.763 4.684c-.086 2.072-1.407 4.625-4.734 7.271-3.632 2.89-6.327 3.569-8.243 3.438a7.207 7.207 0 01-5.191-3.037 12.65 12.65 0 01-1.428-2.137l15.594-12.406zm2.112 26.406l12.166-6.14-1.045-2.073-12.087 6.1c-4.494 2.269-5.375 4.943-4.002 7.661 1.359 2.692 4.141 3.72 8.851 1.343l11.844-5.98-1.046-2.072-12.168 6.142c-3.176 1.603-4.864 1.205-5.638-.33-.679-1.346-.132-3.006 3.125-4.651zm3.327 26.655a6.629 6.629 0 01-1.308-2.672c-1.063-3.803 1.247-7.419 7.895-9.275 7.725-2.155 11.261.989 12.126 4.095.284.819.346 1.698.179 2.549l-2.024.032a4.286 4.286 0 00-.136-2.058c-.584-2.09-3.305-3.992-9.285-2.322-5.981 1.668-7.34 4.426-6.668 6.835.193.699.524 1.351.974 1.92l-1.753.896zm18.956 4.771l.342 3.692-18.158 1.674.214 2.311 18.155-1.674.341 3.691 2.071-.19-.895-9.695-2.07.191zm-17.75 66.902a3.562 3.562 0 11-7.124.001 3.562 3.562 0 017.124-.001zm-171.884 0a3.558 3.558 0 01-2.2 3.292 3.563 3.563 0 112.2-3.292z" fill="#0B0D0E"/></svg>