<svg width="220" height="220" fill="none" xmlns="http://www.w3.org/2000/svg"><path d="M111.902 177.438c.092-.606.178-1.212.277-1.818.275-1.679.499-3.37.875-5.027.448-1.979 1.025-3.929 1.562-5.888a54.323 54.323 0 012.817-7.461.682.682 0 01.221-.226.683.683 0 01.301-.099 2.692 2.692 0 002.598-1.967 6.66 6.66 0 01.672-1.653 5.04 5.04 0 012.758-2.527c1.907-1.056 3.819-2.1 5.719-3.165.56-.315 1.092-.681 1.622-1.045.092-.064.104-.241.153-.366a2.275 2.275 0 00-.385-.064c-.069-.001-.139.061-.206.098-1.123.623-2.239 1.264-3.373 1.867-1.006.534-2.03 1.031-3.051 1.536-.378.187-.768.349-1.153.522.319-.764.719-1.42 1.043-2.111a4.412 4.412 0 012.485-2.218 17.066 17.066 0 003.748-2.137 29.224 29.224 0 002.541-2.161 25.75 25.75 0 001.875-2.033c.271-.318.431-.729.683-1.065.509-.677 1.065-1.318 1.567-1.998.575-.777 1.108-1.583 1.666-2.37a15.095 15.095 0 012.512-2.154c1.071-.977 2.151-1.944 3.216-2.929.093-.086.094-.271.139-.411-.049-.032-.098-.066-.146-.099-.569.464-1.127.941-1.707 1.387-1.56 1.197-3.082 2.451-4.709 3.549-1.432.967-2.977 1.772-4.489 2.615a1.253 1.253 0 01-1.602-.043 1.466 1.466 0 00-.503-.214c-.337-.115-.375-.269-.103-.514.271-.245.527-.51.784-.771.499-.509.958-1.063 1.497-1.524a7.543 7.543 0 012.99-1.229 32.998 32.998 0 003.38-.818 15.146 15.146 0 004.232-2.729c.871-.756 1.648-1.618 2.51-2.384a13.567 13.567 0 011.977-1.505 8.34 8.34 0 012.327-1.398c.086-.019.129-.222.192-.34a1.205 1.205 0 00-.393-.004c-.165.054-.305.189-.47.25-.267.06-.529.14-.783.239a19.95 19.95 0 00-3.734 2.686c-.731.673-1.451 1.361-2.203 2.009a15.636 15.636 0 01-3.887 2.432c-1.25.557-2.179-.17-3.229-.472.864-.798 1.662-1.551 2.477-2.287a6.77 6.77 0 012.429-1.354 16.658 16.658 0 003.023-1.317c1.481-.861 2.899-1.833 4.313-2.804a23.953 23.953 0 014.22-2.299c.291-.123.526-.231.038-.606 1.024-.4 1.937-.785 2.87-1.109.662-.229 1.354-.369 2.028-.562.1-.028.179-.131.267-.199-.111-.058-.219-.161-.334-.167-.394-.022-.791-.008-1.187-.008a3.18 3.18 0 01.859-.652 26.719 26.719 0 014.888-1.987c.54-.172 1.059-.406 1.587-.611l-.041-.159a2.645 2.645 0 00-.774-.051c-1.764.382-3.477.97-5.104 1.753-1.149.578-2.267 1.224-3.376 1.879a2.36 2.36 0 01-3.347-.781c.031-.034.056-.091.093-.1a9.095 9.095 0 003.121-1.525 4.476 4.476 0 013.129-.874 3.88 3.88 0 001.263-.018c1.084-.259 2.152-.58 3.223-.893a13.693 13.693 0 015.169-.876c.237-.012.472-.057.696-.135l.025-.196a3.624 3.624 0 00-.901-.303 10.608 10.608 0 00-3.449.323c-1.401.378-2.797.776-4.209 1.109a2.023 2.023 0 01-2.333-.705c.653-.342 1.296-.69 1.951-1.019a7.235 7.235 0 011.78-.818c.98-.156 1.973-.225 2.966-.208a10.568 10.568 0 003.502-.892c1.062-.386 2.113-.801 3.168-1.206.468-.179.934-.363 1.4-.545a8.754 8.754 0 00-.041-.173 1.39 1.39 0 00-.518-.094c-.75.142-1.49.332-2.215.569a19.043 19.043 0 01-5.179 1.517 2.206 2.206 0 01-2.032-.94 8.563 8.563 0 002.857-2.093c.361-.365.734-.719 1.126-1.047a7.503 7.503 0 013.011-1.418c1.488-.451 3.03-.7 4.584-.74.48-.004.96-.037 1.436-.097.109-.011.208-.125.313-.192l-.031-.142a3.866 3.866 0 00-1.128-.295c-1.249.062-2.495.18-3.736.324-1.158.135-2.305.374-3.464.488-.959.095-1.928.065-2.893.11a11.981 11.981 0 00-4.966 1.535 7.418 7.418 0 00-.681.443c-.179-.659-.33-1.266-.512-1.864a.663.663 0 01.152-.757 9.54 9.54 0 012.285-1.455 49.036 49.036 0 017.24-3.27c.143-.052.242-.23.361-.35l-.111-.147c-3.119.56-5.833 2.194-8.719 3.388 1.259-1.075 2.846-1.594 4.196-2.542a.48.48 0 00-.377-.1c-.707.276-1.416.552-2.107.867a21.658 21.658 0 00-5.089 3.382 12.712 12.712 0 00-3.093 3.88 8.549 8.549 0 01-3.362 3.663 3.547 3.547 0 01.073-.748c.088-.195.202-.378.339-.543a31.296 31.296 0 013.878-4.714c.981-.973 2.014-1.895 3.018-2.846a1.02 1.02 0 00.155-.291 8.471 8.471 0 00-.131-.137 4.773 4.773 0 01-.58.409 13.873 13.873 0 00-2.993 2.47 20.482 20.482 0 00-1.982 2.162c-1.019 1.252-1.975 2.555-2.977 3.822a17.538 17.538 0 01-1.523 1.766c-.545.476-1.113.924-1.703 1.342-.319.251-.629.513-1.004.819.009-.191-.016-.299.024-.373a23.995 23.995 0 011.639-3.025c.888-1.223 1.957-2.31 2.941-3.463.092-.136.168-.282.228-.435l-.11-.1a1.285 1.285 0 00-.389.165c-.656.607-1.325 1.204-1.941 1.851a19.538 19.538 0 00-3.073 4.413 10.098 10.098 0 01-1.57 2.153 15.748 15.748 0 01-1.872 1.495c-.11.086-.224.167-.335.249a11.764 11.764 0 012.345-4.622c1.3-1.475 2.764-2.805 4.149-4.206.105-.14.189-.294.251-.457l-.103-.133a2.707 2.707 0 00-.56.278c-.525.433-1.048.872-1.538 1.343-.839.809-1.657 1.639-2.472 2.471-.332.338-.572.824-.965 1.03a6.704 6.704 0 00-2.045 1.784c-1.288 1.558-2.614 3.085-3.885 4.656a7.591 7.591 0 00-1.551 3.142 4.936 4.936 0 01-1.415 2.739 20.803 20.803 0 00-1.508 1.592c-.231.255-.426.543-.637.815l-.113-.047c.039-.341.115-.678.227-1.003.549-1.177 1.091-2.361 1.725-3.492a24.154 24.154 0 013.118-4.168 1.991 1.991 0 00.538-2.096 20.957 20.957 0 003.427-4.35.623.623 0 00-.41.172c-.437.454-.851.928-1.293 1.377-.928.941-1.826 1.918-2.813 2.791-.967.854-2.022 1.61-3.058 2.38a9.146 9.146 0 01-1.137.622c.015-.134.006-.18.023-.192a6.536 6.536 0 001.797-2.473 2.91 2.91 0 011.58-1.581 13.782 13.782 0 004.604-3.096c.537-.513 1.104-.995 1.666-1.483.641-.557 1.298-1.097 1.932-1.663.116-.139.209-.295.278-.462l-.092-.11c-.16.01-.316.051-.46.12-.981.771-1.947 1.561-2.921 2.341-1.092.877-2.165 1.779-3.292 2.61-.522.315-1.072.583-1.642.799.024-.119.061-.235.111-.346.512-.584.985-1.201 1.415-1.848a3.71 3.71 0 011.826-1.608c.55-.183 1.088-.401 1.611-.651.671-.403 1.308-.86 1.905-1.365a160.517 160.517 0 004.006-3.449c.431-.382.727-.944 1.119-1.31 1.129-1.056 2.432-1.923 3.636-2.901.51-.414.946-.92 1.415-1.385l-.141-.213a3.14 3.14 0 00-.579.287c-.96.746-1.861 1.581-2.874 2.246a35.745 35.745 0 01-3.491 1.933c-.535.228-1.085.417-1.647.566.168-.346.373-.673.611-.976a5.984 5.984 0 012.998-2.289 23.674 23.674 0 005.45-2.936c.201-.138.277-.461.411-.698a2.477 2.477 0 00-.728.21 21.941 21.941 0 01-4.96 2.486 9.72 9.72 0 01-1.119.263 5.07 5.07 0 01.773-.99 11.682 11.682 0 011.753-1.666 17.727 17.727 0 012.684-1.29 58.717 58.717 0 006.966-3.538 6.91 6.91 0 00.934-.8l-.099-.143c-.35.09-.692.205-1.025.345-.643.319-1.246.717-1.895 1.023a268.773 268.773 0 01-5.395 2.466c-.363.162-.78.366-1.215-.012.308-.268.615-.504.886-.776a3.9 3.9 0 012.106-1.046 13.768 13.768 0 004.136-1.321 34.956 34.956 0 003.587-2.23 30.779 30.779 0 002.723-2.426c.132-.122.155-.362.228-.547l-.17-.11a23.403 23.403 0 01-3.69 2.826.433.433 0 01.121-.23c1.065-.974 2.135-1.944 3.196-2.922.619-.57 1.238-1.14 1.824-1.743.259-.304.496-.628.707-.967l-.129-.149a3.288 3.288 0 00-.634.354c-1.565 1.39-3.105 2.81-4.682 4.185-.612.512-1.256.985-1.929 1.415a.673.673 0 01-.589.015c-.549-.303-1.059-.674-1.599-.994-.225-.133-.201-.237-.043-.385.437-.36.848-.749 1.231-1.165a17.3 17.3 0 001.683-2.355c.458-.9.865-1.827 1.218-2.773.629-1.496 1.826-2.612 2.645-3.98.47-.783.884-1.6 1.294-2.417.059-.118-.049-.318-.08-.48-.122.092-.285.159-.36.28-.315.507-.559 1.064-.911 1.542-.684.93-1.442 1.803-2.136 2.725a7.89 7.89 0 01-3.783 2.696 5.837 5.837 0 00-2.802 1.714 1.022 1.022 0 01-.295.178c-.547-1.092-.625-1.565-.061-2.556a14.694 14.694 0 011.682-2.3c.664-.767 1.435-1.441 2.141-2.174.317-.337.61-.696.877-1.073.077-.106.04-.294.056-.444-.138.029-.271.08-.392.152-.248.213-.471.458-.703.691-1.112 1.111-2.263 2.186-3.323 3.345a6.471 6.471 0 00-1.7 3.207 3.577 3.577 0 01-.708 1.581c-.841 1.005-1.788 1.92-2.713 2.894a1.847 1.847 0 01-.476-1.48c.123-.506.316-.992.573-1.445.554-.936 1.172-1.833 1.768-2.744a13.234 13.234 0 001.886-3.761c.052-.193.071-.392.058-.591-.007-.097-.126-.188-.195-.28a1.563 1.563 0 00-.259.215c-.042.08-.074.165-.094.254a13.8 13.8 0 01-.837 1.98c-.822 1.345-1.736 2.635-2.602 3.954a7.9 7.9 0 00-1.341 2.999 4.984 4.984 0 01-1.502 2.877 7.196 7.196 0 00-1.885 2.703c-.054.1-.119.192-.194.277-.122-.16-.219-.276-.302-.4-.862-1.298-.89-1.98-.032-3.096.471-.614 1.033-1.156 1.533-1.747.527-.623 1.057-1.246 1.538-1.904a80.642 80.642 0 002.177-3.137c.29-.49.553-.993.789-1.51l-.148-.132c-.127.072-.298.113-.377.22-.398.545-.758 1.116-1.16 1.657-.961 1.296-1.921 2.593-2.922 3.858a4.314 4.314 0 01-.91.698c-.114-.426.728-.957.086-1.669a17.52 17.52 0 01-2.123 3.926c.234-.913.809-1.725.817-2.86-.227.184-.377.251-.444.368-.183.32-.345.652-.487.992a17.556 17.556 0 01-3.617 5.896c-.343.346-.735.644-1.216 1.06.221-.866.389-1.599.596-2.32a7.176 7.176 0 011.882-2.706 20.144 20.144 0 002.97-4.318c.122-.304.217-.618.282-.939l-.153-.111c-.128.088-.31.148-.375.27a18.683 18.683 0 01-2.387 3.6c-.533.612-1.138 1.163-1.72 1.73-.073.072-.207.08-.313.117a1.278 1.278 0 01.011-.32c.115-.395.27-.78.368-1.178a6.731 6.731 0 011.761-3.275 19.072 19.072 0 001.622-1.956c.646-.84 1.292-1.683 1.873-2.567.647-.985 1.229-2.014 1.822-3.033a2.4 2.4 0 00.162-.594l-.229-.148c-.096.147-.187.296-.288.44-1.081 1.544-2.134 3.11-3.261 4.622-.646.866-1.403 1.649-2.128 2.454a.546.546 0 01-.746.16c.097-.231.191-.426.26-.628a4.73 4.73 0 011.589-2.259 15.298 15.298 0 002.469-2.378 17.731 17.731 0 003.018-5.803 3.256 3.256 0 00.235-2.076c-.859 1.236-.899 2.853-1.848 4.046.236-.9.508-1.79.754-2.684.408-1.488.809-2.977 1.187-4.47a1.846 1.846 0 00-.081-.645l-.142-.033a2.39 2.39 0 00-.312.525c-.168.554-.273 1.127-.448 1.678a224.66 224.66 0 01-1.597 4.876 9.965 9.965 0 01-.701 1.489.58.58 0 01-.434.273c-.72-.056-1.436-.16-2.172-.25a.533.533 0 01.022-.183 9.009 9.009 0 00.494-5.66 20.729 20.729 0 01-.249-4.981c.009-.912.021-1.824-.014-2.735a2.367 2.367 0 00-.275-.817.34.34 0 00-.27-.174c-.078.015-.168.165-.182.265a1.77 1.77 0 00.036.459c.079.376.123.76.13 1.144-.097 1.276-.18 2.559-.389 3.819a5.943 5.943 0 01-1.147 2.77 9.205 9.205 0 00-2.145 3.498c-.004.016-.05.024-.041.02a2.045 2.045 0 01-1.342-1.885 11.61 11.61 0 01.416-3.528 8.814 8.814 0 00.519-3.221c-.016-.124-.136-.237-.207-.354-.084.11-.215.21-.246.333-.31 1.23-.6 2.466-.901 3.698a8.208 8.208 0 00-.069 4.716c.194.526.26 1.09.193 1.647-.199 1.17-.542 2.313-.834 3.498-.476-.285-1.063-.49-1.192-1.173a5.179 5.179 0 01-.111-1.008c.009-.777.07-1.554.083-2.33.015-.987.059-1.977-.016-2.958a11.15 11.15 0 00-.445-1.96c-.026-.096-.187-.157-.286-.234a1.39 1.39 0 00-.181.33 1.12 1.12 0 00.017.37c.124.697.205 1.4.241 2.107-.015 1.681-.152 3.36-.15 5.041.059.669.186 1.33.378 1.973.289.675.355 1.425.189 2.14a10.51 10.51 0 00-.493 2.143c-.094.572-.098 1.158-.146 1.8-.362-.205-.69-.393-1.021-.578a1.607 1.607 0 01-.894-1.71c.079-.545.228-1.078.331-1.62.266-1.415.594-2.823.767-4.248a34.64 34.64 0 00.111-3.455 1.5 1.5 0 00-.096-.492c-.03-.086-.124-.151-.19-.225-.059.08-.161.154-.17.239-.106.872-.258 1.744-.277 2.618a20.024 20.024 0 01-.658 4.414c-.044.176-.102.347-.162.544l-.605-1.56c-.069.01-.14.018-.208.027-.03.205-.043.412-.039.619.031.335.139.665.147 1 .024.829.037 1.66-.005 2.488-.019.37.149.92-.529.964-.04.002-.1.075-.107.121a7.25 7.25 0 00-.099.776c-.04.698-.017 1.402-.106 2.093a121.519 121.519 0 01-.758 5.244 10.947 10.947 0 00.176 4.494c.265.976.313 2 .14 2.996-.169.875-.205 1.774-.303 2.662a2.475 2.475 0 01-.077.305 7.71 7.71 0 01-.714-.362c-.67-.433-1.38-.841-1.525-1.734-.056-.349-.075-.704-.13-1.052a10.449 10.449 0 01.19-3.868c.194-.88.464-1.743.658-2.623.242-1.09.473-2.186.647-3.289.084-.63.116-1.267.096-1.903a3.813 3.813 0 00-.204-.85c-.066.003-.132.004-.198.005a3.58 3.58 0 00-.146.567 23.152 23.152 0 01-.214 2.495c-.288 1.42-.687 2.818-1.039 4.226a14.633 14.633 0 00-.515 2.135 25.513 25.513 0 00-.091 3.464 5.74 5.74 0 00.451 1.808c.435 1.112.957 2.188 1.418 3.29a1.725 1.725 0 01-.283 2.222 18.011 18.011 0 00-1.522 1.767 4.296 4.296 0 01-.254-.626 32.146 32.146 0 01-.671-5.591 11.74 11.74 0 01.091-1.718c.14-1.316.304-2.63.462-3.943.077-.631.16-1.263.24-1.893l-.134-.042c-.063.055-.162.097-.185.164-.2.59-.383 1.184-.578 1.775-.066.198-.104.503-.239.561a1.639 1.639 0 00-.852 1.063 15.319 15.319 0 01-3.236 4.945 3.124 3.124 0 01-.454.312 3.13 3.13 0 01.02-.422c.115-.522.223-1.045.361-1.562a5.97 5.97 0 01.508-1.64c.973-1.56 2.087-3.032 3.04-4.602.875-1.437 1.619-2.956 2.399-4.45.119-.292.211-.596.273-.906-.568-.092-.621.342-.769.603-.711 1.254-1.344 2.554-2.097 3.781-.729 1.187-1.566 2.308-2.366 3.45a.66.66 0 01-.844.251c.349-.864.44-1.813 1.129-2.502.459-.458.942-.895 1.376-1.375a14.822 14.822 0 002.242-3.253 19.863 19.863 0 001.757-5.249 1.621 1.621 0 00-.112-1.413c-.13.138-.238.296-.32.468-.184.695-.317 1.402-.505 2.095-.152.564-.354 1.114-.535 1.67l-.127-.037c.056-.298.109-.597.169-.895.228-1.108.473-2.213.682-3.324.15-.8.283-1.602.362-2.41a1.378 1.378 0 00-.19-1.18c-.142.18-.258.38-.343.593-.361 1.738-.671 3.487-1.057 5.22a24.507 24.507 0 01-.829 2.756.787.787 0 01-.569.423c-.673.053-1.352.02-2.052.02a.72.72 0 01.023-.358 8.21 8.21 0 00-.009-5.153c-.709-2.045-.657-4.155-.862-6.246a6.511 6.511 0 00-.491-2.278c-.055-.113-.244-.159-.37-.237-.053.142-.163.29-.149.425.099.916.281 1.826.324 2.743.018.887-.009 1.774-.081 2.657a5.174 5.174 0 01-.771 2.52 50.28 50.28 0 00-1.604 2.821 3.95 3.95 0 00-.234.92 2.198 2.198 0 01-1.533-1.591 10.05 10.05 0 01.085-3.857 9.266 9.266 0 00.111-3.22 1.102 1.102 0 00-.198-.311c-.074.103-.13.218-.168.34-.106.838-.133 1.694-.304 2.52a14.567 14.567 0 00-.353 4.203c.038.364.111.723.22 1.072a6.7 6.7 0 01.614 2.48c-.028.318-.131.628-.18.945-.122.799-.233 1.598-.346 2.388a1.706 1.706 0 01-1.444-1.704c-.087-1.14-.167-2.281-.284-3.418-.101-.978-.2-1.96-.394-2.923a2.482 2.482 0 00-1.004-1.583c.124.81.386 1.585.517 2.382.126.857.199 1.72.221 2.587.035.851.007 1.705.007 2.558a4.13 4.13 0 01-.736-1.263 5.028 5.028 0 01-.111-1.052 1.383 1.383 0 00-.488-1.123l-.159.931a1.483 1.483 0 01-.174-.29 21.559 21.559 0 01-.782-5.234 4.364 4.364 0 00-.152-.84c-.075 0-.15.003-.225.004a3.4 3.4 0 00-.169.758c-.022.73.011 1.462.099 2.188.214 1.373.519 2.734.777 4.102.213 1.128.488 2.252.591 3.39.016.804-.041 1.608-.17 2.402-.008.085-.102.16-.182.282-.171-.426-.303-.797-.472-1.15-.045-.097-.2-.14-.305-.207-.041.115-.135.24-.115.345.123.457.221.92.293 1.388.077.43.018.873-.17 1.267-.398.373-.852.68-1.346.91-.021-.26-.026-.392-.044-.523-.081-.61-.168-1.217-.247-1.825a8.792 8.792 0 01-.198-1.786c.096-.883.249-1.759.459-2.622a15.125 15.125 0 00-.073-5.172c-.092-.715-.215-1.427-.314-2.142-.098-.716-.219-1.43-.265-2.15-.044-.624-.033-1.25.032-1.87.057-.516-.068-.702-.588-.62-.069-.49-.105-.985-.108-1.48.051-.939.19-1.872.254-2.81.019-.274.169-.62-.267-.9l-.586 1.695-.139-.002c-.165-.961-.385-1.918-.481-2.886-.12-1.22-.136-2.448-.205-3.672a3.593 3.593 0 00-.102-.73c-.029-.112-.158-.198-.241-.297l-.142.046c-.056.531-.15 1.062-.16 1.594-.004.606.025 1.21.089 1.813.106 1.119.211 2.239.374 3.35.144.984.413 1.95.537 2.936a1.558 1.558 0 01-.409 1.458 11.81 11.81 0 01-1.595.917.927.927 0 01-.035-.228 6.104 6.104 0 00-.31-3.225 3.968 3.968 0 01.116-2.678 5.394 5.394 0 00.481-2.19c-.038-.675-.008-1.353-.009-2.029a6.07 6.07 0 00-.006-.798 10.89 10.89 0 01.278-4.225c.053-.268.09-.54.109-.812-.061-.022-.122-.043-.182-.066a3.607 3.607 0 00-.554.915c-.2.74-.328 1.496-.38 2.26-.06 1.312.002 2.63-.025 3.944a10.706 10.706 0 01-.186 1.648 1.344 1.344 0 01-1.256 1.11 21.536 21.536 0 00-.55-2.601 3.821 3.821 0 01.162-2.66 6.53 6.53 0 00.191-3.512c-.23-1.37-.59-2.718-.897-4.075-.079-.35-.17-.699-.256-1.047l-.254.012c-.087.325-.128.66-.123.997.254 1.65.574 3.291.831 4.942a2.717 2.717 0 01-1.383 3.19 1.905 1.905 0 01-.124-.281 6.34 6.34 0 00-1.256-2.375 11.152 11.152 0 01-1.357-2.119c-.632-1.323-.526-2.799-.649-4.215a18.57 18.57 0 01.153-2.45 1.96 1.96 0 00-.155-.583c-.162.159-.422.294-.469.48a6.454 6.454 0 00-.2 1.504c-.002 1.153.096 2.306.068 3.457a12.316 12.316 0 01-.287 2.425 10.523 10.523 0 00-.353 3.924c.096.636.203 1.27.322 1.9.049.26.143.513.223.793-.085.03-.172.052-.26.065-.361.005-.724-.016-1.085.007-1.01.063-1.332-.084-1.614-.785a8.11 8.11 0 01-.29-.772c-.648-2.262-1.288-4.526-1.94-6.787a2.594 2.594 0 00-.254-.48l-.187.063c.023 2.667 1.16 5.109 1.618 7.7-.318-.625-.6-1.269-.846-1.927a6.548 6.548 0 00-.799-1.997.69.69 0 00-.143.423c.048.426.124.849.228 1.265a18.656 18.656 0 002.027 4.807 13.405 13.405 0 003.456 3.888 4.528 4.528 0 011.56 2.875 1.095 1.095 0 01-.588-.237c-.524-.55-1.048-1.103-1.513-1.701a60.064 60.064 0 01-2.035-2.788c-.494-.719-.924-1.481-1.403-2.211-.067-.103-.25-.13-.379-.193a1.59 1.59 0 00-.06.397c.015.137.06.27.133.387.873 1.387 1.719 2.793 2.643 4.146.633.925 1.387 1.766 2.068 2.66a8.11 8.11 0 011.145 1.661c.41.98.66 2.027.973 3.047.014.047-.022.109-.049.23a4.085 4.085 0 01-.505-.383c-.445-.458-.862-.94-1.312-1.392a1.62 1.62 0 01-.59-1.208.885.885 0 00-.304-.517c-.443.158-.526-.197-.682-.436-.177-.268-.328-.553-.503-.822-.234-.359-.481-.708-.723-1.062l-.154.079c.12.498.278.985.474 1.458.355.71.798 1.377 1.205 2.062.433.73.16 1.567.39 2.34a1.507 1.507 0 01-.428-.54c-.428-.932-.834-1.875-1.274-2.802-.06-.127-.257-.188-.39-.28a1.325 1.325 0 00-.087.506c.086.294.198.579.337.851.59 1.295 1.188 2.587 1.78 3.88.128.208.22.436.27.675a5 5 0 01-.363 2.492 2.287 2.287 0 01-1.255.914c-.252-.68-.44-1.34-.737-1.947a18.252 18.252 0 00-1.124-1.897 7.199 7.199 0 01-.903-3.58 17.005 17.005 0 01.314-4.86c.03-.128-.08-.288-.125-.433-.13.09-.334.15-.38.272a13.242 13.242 0 00-.567 3.674c-.082.975-.025 1.97-.192 2.93-.249 1.426-.695 2.819-.946 4.246-.087.752-.09 1.511-.01 2.264.025.53.133 1.056.2 1.541-.725 0-1.403-.016-2.08.008a.532.532 0 01-.603-.39c-.184-.597-.375-1.195-.508-1.805-.176-.806-.304-1.625-.442-2.44-.174-1.028-.324-2.06-.511-3.086-.094-.509-.248-1.006-.375-1.508l-.2.004a2.782 2.782 0 00-.158.767c.06.735.159 1.468.273 2.197.17 1.09.379 2.174.55 3.263.087.555.126 1.117.187 1.676l-.172.032c-.252-1.159-.529-2.313-.741-3.479-.058-.319-.118-.552-.432-.696a2.57 2.57 0 00-.02 1.881c.304 1.4.762 2.765 1.141 4.148.069.317.118.638.148.96l-.126.046a5.475 5.475 0 01-.345-.66c-.1-.271-.16-.547-.666-.362.223.73.49 1.445.803 2.14a4.342 4.342 0 01.202 3.636.307.307 0 01-.14-.185c-.294-.69-.62-1.368-.873-2.074a6.915 6.915 0 01-.53-1.93c-.081-1.779-.216-3.544-.474-5.308a30.423 30.423 0 00-1.244-5.31 5.44 5.44 0 00-.403-.771l-.16.042a1.182 1.182 0 00-.074.412c.31 1.45.664 2.89.94 4.345.175.92.246 1.86.357 2.79.066.551.102 1.106.187 1.653a1.245 1.245 0 01-.466 1.342c-.193-.522-.419-1.024-.561-1.547a4.697 4.697 0 01-.183-1.322c.019-.803.15-1.603.171-2.406a12.402 12.402 0 00-.6-4 26.29 26.29 0 00-1.36-3.454 24.454 24.454 0 00-1.535-2.556c-.086-.135-.295-.19-.448-.283l-.152.129a23.258 23.258 0 012.003 4.26c-.413-.593-.77-1.217-1.155-1.823a247.203 247.203 0 00-2.72-4.204 5.848 5.848 0 00-.79-.806c-.331.34-.122.556.033.787.633.94 1.3 1.862 1.883 2.832a57.869 57.869 0 011.976 3.586c.25.455.382.966.385 1.485-.013.284-.471.55-.73.821-.076.08-.154.156-.233.233-.229.223-.46.444-.715.69-.078-.136-.128-.212-.167-.294a9.921 9.921 0 00-3.472-4.048 18.605 18.605 0 01-3.705-2.74 12.164 12.164 0 00-1.768-1.575 21.906 21.906 0 00-2.11-1.283c-.096-.056-.262.01-.395.02l-.019.146c.177.144.353.29.532.43.772.613 1.581 1.185 2.308 1.847a19.452 19.452 0 011.606 1.776 5.157 5.157 0 011.207 2.244c.123.569.148 1.16.302 1.719.13.866.44 1.695.91 2.434.058.105.097.22.116.338-.203.053-.376.11-.554.143-.46.124-.948.061-1.36-.175a8.692 8.692 0 01-2.239-2.2c-.755-.99-1.51-1.982-2.292-2.951a2.077 2.077 0 00-.622-.365 6 6 0 00-.09.121c.075.18.163.354.263.52.726 1.044 1.462 2.083 2.196 3.123a8.099 8.099 0 003.127 2.873 3.642 3.642 0 011.73 1.448c.506.89 1.047 1.759 1.602 2.687-.48.21-1.02.24-1.52.082a8.606 8.606 0 01-2.463-2.184 12.178 12.178 0 00-3.609-3 3.93 3.93 0 00-.9-.198l-.073.164c.162.148.335.282.52.401a11.479 11.479 0 012.767 2.23c.654.678 1.236 1.425 1.864 2.13.785.762 1.683 1.4 2.662 1.89.42.217.782.531 1.056.917a12.686 12.686 0 002.477 3.565c-.392.105-.708.202-1.029.275a1.77 1.77 0 01-2.201-.872 14.145 14.145 0 01-.766-1.308 21.276 21.276 0 00-4.274-5.496 6.109 6.109 0 00-.794-.535l-.131.152c1.52 1.99 3.388 3.735 4.483 6.153l-1.635-.871-.152.214c.635.582 1.291 1.143 1.9 1.752a8.721 8.721 0 011.578 2.056l-.36.103a.94.94 0 00.097.269c.42.549.9 1.059 1.266 1.642.746 1.196 1.4 2.45 2.15 3.643 1.034 1.647 2.133 3.254 3.182 4.891a16.017 16.017 0 011.891 4.657c.08.308-.128.501-.394.358a3.462 3.462 0 01-1.245-.894 9.938 9.938 0 01-.973-2.067c-.537-1.396-.975-2.832-1.555-4.209a15.493 15.493 0 00-2.39-3.807.543.543 0 00-.506-.067c-.22.109-.314.094-.45-.109a2.51 2.51 0 00-.453-.415c-.046.037-.091.074-.137.109.04.169.098.332.172.489.423.62.813 1.26 1.171 1.919.61 1.301 1.141 2.641 1.699 3.966.116.275.204.561.305.843l-.126.054c-.147-.168-.29-.342-.442-.506a8.963 8.963 0 01-1.713-2.767 39.941 39.941 0 00-3.589-7.03c-.716-1.089-1.52-2.121-2.313-3.157a6.226 6.226 0 00-.852-.777 6.904 6.904 0 01-.114.109c.105.277.231.546.38.802.535.786 1.128 1.532 1.646 2.329a35.261 35.261 0 013.278 6.108c.192.484.634.978.283 1.61-.091-.037-.198-.049-.25-.108a9.903 9.903 0 01-2.148-3.655 17.63 17.63 0 00-1.163-3.083 18.18 18.18 0 00-3.54-4.76 50.002 50.002 0 00-3.942-3.29 1.035 1.035 0 00-1.097-.302 36.004 36.004 0 014.436 4.075.292.292 0 01-.168-.071c-1.285-1.003-2.548-2.038-3.863-3-.948-.693-1.958-1.302-2.956-1.926a5.646 5.646 0 00-.883-.367l-.07.113c.067.135.153.259.257.367 1.488 1.11 3.016 2.17 4.469 3.324a43.391 43.391 0 013.408 3.014c.47.461.546.677.127 1.282-.142.237-.26.487-.35.747-.118.287-.22.581-.33.874-.577-.485-1.092-.953-1.645-1.373a12.867 12.867 0 00-5.152-2.316c-1-.216-1.987-.491-2.955-.825-1.545-.533-3.057-1.16-4.602-1.695a7.153 7.153 0 00-1.627-.272c-.125-.012-.27.169-.407.26.11.097.206.244.333.28.41.116.835.18 1.249.285a21.4 21.4 0 014.668 1.912 7.988 7.988 0 013.07 2.731c.594.912 1.27 1.774 1.952 2.625.293.295.617.559.965.787-.57.304-1.08.729-1.728.578a7.675 7.675 0 01-1.987-.674c-1.242-.693-2.407-1.525-3.635-2.248a21.197 21.197 0 00-2.14-1.026c-.097-.043-.259.057-.39.09.069.103.115.242.21.304a849.707 849.707 0 004.996 3.194 9.367 9.367 0 003.394 1.34 5.798 5.798 0 012.13.772 36.246 36.246 0 012.961 2.355.443.443 0 01.041.3c-.45.132-.784.632-1.35.408-.481-.19-1.004-.288-1.462-.517-1.402-.701-2.76-1.49-4.176-2.157a6.363 6.363 0 00-3.227-.803 1.322 1.322 0 00-.421.203c.125.086.24.226.375.251a15.87 15.87 0 015.464 2.314 13.436 13.436 0 004.324 1.864 4.42 4.42 0 011.932.884c1.21 1.03 2.173 2.351 3.79 3.061-.56.275-1.012.49-1.459.714a1.407 1.407 0 01-1.526-.22c-.684-.5-1.306-1.085-1.947-1.645-.63-.551-1.22-1.152-1.878-1.665a26.395 26.395 0 00-5.053-2.991c-.149-.069-.368.012-.555.023-.01.059-.02.117-.032.176 2.446 1.476 5.004 2.8 6.927 5.006-.306-.056-.58-.199-.869-.262a5.959 5.959 0 00-.905-.064l-.05.177c.306.155.606.321.919.46a18.295 18.295 0 013.57 2.26c.283.212.315.398-.15.528.266.224.475.403.686.578.739.608 1.508 1.183 2.206 1.833.723.673 1.375 1.424 2.062 2.135.98 1.016 1.924 2.07 2.958 3.027a21.186 21.186 0 002.488 1.903 8.497 8.497 0 012.15 1.856c.539.723 1.008 1.5 1.516 2.246.186.275.398.532.637.847a3.559 3.559 0 01-.497.134c-.414.056-.83.087-1.247.094a2.31 2.31 0 01-1.037-.157 12.76 12.76 0 01-3.74-3.569c-1.032-1.333-1.93-2.768-2.937-4.122a14.057 14.057 0 00-3.073-2.934 2.492 2.492 0 00-.638-.232c0 .179.065.351.184.484.686.667 1.407 1.3 2.065 1.994.59.612 1.137 1.263 1.638 1.949 1.002 1.394 1.888 2.874 2.947 4.221a20.37 20.37 0 002.492 2.481c1.055.949 2.504 1.205 3.67 1.964a9.63 9.63 0 012.123 1.636 18.738 18.738 0 011.622 2.61l.459.764a5.025 5.025 0 00-.892.256 1.143 1.143 0 01-1.419-.252c-1.427-1.359-2.85-2.721-4.27-4.087-.36-.343-.695-.711-1.004-1.101-1.03-1.321-2.034-2.661-3.061-3.983a10.34 10.34 0 00-.751-.785l-.128.094c.006.118.03.235.073.345.282.469.56.943.88 1.387a77.244 77.244 0 002.062 2.767 9.531 9.531 0 011.626 2.691 21.026 21.026 0 002.12 4.677c.222.365.414.748.572 1.144.081.274.181.542.3.801a16.701 16.701 0 003.1 3.603 22.861 22.861 0 004.543 3.133 5.66 5.66 0 012.338 2.036c.425.7.862 1.392 1.294 2.086a26.71 26.71 0 01-2.74-1.42c-1.618-.936-3.228-1.886-4.849-2.819a9.745 9.745 0 00-.919-.42l-.12.169c.146.182.307.352.481.507.34.258.7.494 1.066.717 1.91 1.165 3.837 2.3 5.73 3.49 1.057.664 2.273 1.123 3.04 2.184.525.62.972 1.302 1.33 2.031a3.62 3.62 0 002.085 2.251.66.66 0 01.322.431c.237 1.169.454 2.345.66 3.521.17.966.335 1.935.467 2.908.123.901.192 1.808.3 2.711.145 1.207.324 2.41.452 3.617.094.892.134 1.789.195 2.685l.023.348a67.535 67.535 0 01-55.895-74.523 67.538 67.538 0 1169.028 75.426zm-10.658-.537a50.479 50.479 0 00-.052-.671c-.095-1.106-.175-2.215-.292-3.319-.1-.931-.239-1.857-.367-2.784-.123-.897-.249-1.794-.382-2.69-.055-.372-.131-.74-.197-1.11l.193-.043c.19.617.416 1.225.564 1.852.396 1.679.811 3.357 1.118 5.055.209 1.199.335 2.411.378 3.628.002.068.001.136.002.205-.322-.038-.643-.081-.965-.123zm-5.423-19.838a1.07 1.07 0 01.861.458c.335.383.638.797.993 1.16.213.217.368.638.827.388.334.84.647 1.684 1.012 2.505.075.168.338.254.514.377.073-.163.241-.358.2-.485-.154-.488.131-.806.379-1.274.183.654.672 1.145.224 1.792a.392.392 0 00.067.378.301.301 0 01.119.454.676.676 0 00.044.402c.341 1.254.709 2.499 1.024 3.759.265 1.067.493 2.146.695 3.229.162.874.287 1.759.379 2.643.148 1.439.311 2.88.392 4.323-.194-.019-.389-.031-.582-.052-.003-.196-.003-.392-.008-.588a20.03 20.03 0 00-.285-2.994 79.708 79.708 0 00-1.077-4.977 19.36 19.36 0 00-.885-2.553c-.479-1.19-1-2.362-1.521-3.534-.254-.571-.613-1.104-.807-1.693-.224-.679-.243-.75-.93-.878a2.408 2.408 0 01-1.865-1.428c-.25-.562-.43-1.156-.672-1.819.34.163.621.408.902.407zm-2.84-5.037c.053.029.106.077.16.079 1.303.049 1.786 1.109 2.336 2.001.183.491.276 1.012.276 1.537-2.67-1.021-4.247-2.573-4.613-4.598l1.841.981zm-4.727-5.911c.535.213.945.402 1.372.538.258.081.563.026.81.126.329.147.64.329.93.543a2.834 2.834 0 011.183 2.379c.033.225.089.446.166.66-.023.016-.059.053-.071.047-.958-.491-2.08-.672-2.863-1.491a2.636 2.636 0 01-.415-.602c-.359-.685-.7-1.379-1.112-2.2zm-2.213-.112a3.975 3.975 0 011.903 1.811c.166.272.313.555.473.839-.97.216-5.093-2.519-6.12-4.078 1.3.495 2.525.954 3.744 1.428zm-1.232-3.627c.487.631.931 1.294 1.391 1.944.02.045.035.093.041.142a6.053 6.053 0 01-3.069-.447 6.746 6.746 0 01-3.373-3.323c-.657-1.155-1.206-2.372-1.79-3.568a2.451 2.451 0 01-.128-.544l.088-.048c.558.563 1.098 1.148 1.68 1.687a20.13 20.13 0 001.944 1.645c.47.284.969.517 1.489.695.838.36 1.216 1.155 1.727 1.817zm-3.749-9.509c.445.167.903.305 1.33.509.464.22.804.733 1.439.536.086-.026.253.155.362.261a15.723 15.723 0 011.738 1.763c.264.476.433.999.496 1.539.13.566.201 1.146.29 1.721.005.102-.003.203-.023.303-.46-.136-.912-.298-1.355-.486a2.98 2.98 0 01-1.242-1.608 10.298 10.298 0 00-2.097-3.491c-.326-.297-.682-.56-1.025-.838l.087-.209zm-2.588-5.619c.5.097.985.155 1.447.29.303.121.625.185.951.188.218-.013.48.321.681.536.824.881.96 2.058 1.317 3.139.094.281.195.561.292.841l-.11.083a18.98 18.98 0 01-2.206-1.275 5.344 5.344 0 01-1.102-1.384c-.452-.691-.851-1.418-1.267-2.132-.026-.046-.003-.12-.003-.286zm2.343-11.361l-.14.1c-.109-.127-.286-.241-.315-.385a12.951 12.951 0 00-1.141-3.279 1 1 0 01-.045-.302 9.393 9.393 0 011.641 3.866zm-1.997-9.287a4.765 4.765 0 01-.121-.493c.39.178.65.305.918.415.139.057.32.155.432.11.444-.181.688.097.95.351.225.217.456.43.661.665a1.886 1.886 0 01.566 1.365 9.666 9.666 0 00.098 1.666c.04.314-.06.283-.292.25a2.767 2.767 0 01-2.258-1.853c-.337-.817-.641-1.649-.954-2.476zm-1.839-.393c.366.345.66.758.869 1.215.468.894.88 1.817 1.313 2.723-.338.087-.699-.091-1.246-.608a13.119 13.119 0 01-2.281-3.005c-.398-.681-.779-1.372-1.222-2.158.936.659 1.793 1.197 2.567 1.833zm.08-1.692a1.086 1.086 0 01-1.218-.158c-.764-.755-1.538-1.501-2.258-2.298-.487-.54-.885-1.16-1.401-1.848 2.412.667 3.565 2.545 4.877 4.304zm2.697-2.382a3.081 3.081 0 01.775 2.481c-.008.324.014.648.067.968a21.86 21.86 0 01-2.07-.939 3.148 3.148 0 01-.979-.955 17.12 17.12 0 00-2.606-3.504 3.356 3.356 0 012.202.32 4.36 4.36 0 001.327.555c.512.242.954.612 1.284 1.074zm1.477-1.276a7.608 7.608 0 01-.525 1.33 10.423 10.423 0 01-1.466-1.709 9.003 9.003 0 01-.595-2.086c-.016-.062.033-.144.061-.213.134-.333.27-.666.408-.997.11-.261.225-.52.392-.901.629 1.18 1.224 2.183 1.697 3.243.138.432.148.895.028 1.333zm2.078 4.541c-.44-.87-.38-1.88-1.045-2.576l-.152.028c.107.665.199 1.331.327 1.991.127.358.225.726.292 1.1a10.215 10.215 0 01-.204 1.556 2.924 2.924 0 01-1.161-1.951c-.05-.177-.08-.36-.088-.543.011-.315-.11-.636.277-.905.202-.14.19-.585.279-.891.138-.479.278-.956.427-1.465 1.114.907 1.67 2.785 1.049 3.656zm.276-10.504l-.772-1.487.216-.114.773 1.486-.217.115zm1.057 4.416c-.576-1.076-1.512-1.993-1.451-3.34.79.978 1.722 1.89 1.45 3.34zm-.06 4.121a7.124 7.124 0 01-1.296-4.88c.287.479.576.957.857 1.439.162.26.309.529.439.806.138.249.22.524.24.808-.025.573-.143 1.142-.24 1.827zm.825 6.515a6.647 6.647 0 01-.101.076c-.219-.345-.452-.682-.651-1.037-.218-.389-.394-.8-.602-1.194a.82.82 0 01.17-1.087c.4 1.099.792 2.171 1.184 3.242zm6.934-12.106c.17.945.306 1.821.488 2.686a3.46 3.46 0 01-1.103 3.343 7.21 7.21 0 00-.783 1.184 2.38 2.38 0 01-.218.239 4.747 4.747 0 00-1.533-2.415 2.839 2.839 0 00-.67-.481 1.419 1.419 0 01-1.029-1.319 14.161 14.161 0 00-.199-1.415c.273.2.485.375.716.52.283.13.554.286.808.466.2.21.345.465.423.744a1.6 1.6 0 01-.004.699.465.465 0 00.403.598c.348.074.467-.211.535-.459.045-.215.05-.437.015-.654a5.33 5.33 0 01.388-2.165c.03-.098.09-.246.16-.263.633-.15.905-.692 1.276-1.127.1-.074.21-.135.327-.18zm.576-8.23c.28.645.516 1.181.747 1.719.157.365.308.733.463 1.098a1.294 1.294 0 01-.051 1.19 518.78 518.78 0 00-.599-.508l-.143.065c.127.387.227.787.389 1.16a.842.842 0 01-.485 1.253c-.277.117-.543.258-.831.396-.053-.768-.091-1.462-.15-2.154-.05-.613-.175-1.226-.171-1.838a5.7 5.7 0 01.83-2.381zm1.674-1.114a9.48 9.48 0 00-.142.058c-.442-.531-.912-1.043-1.311-1.605a1.965 1.965 0 01-.178-.794 14.102 14.102 0 01-.219-2.095c.365.37.754.72 1.087 1.118.283.338.475.752.752 1.098.603.757.168 1.483.011 2.22zm7.574 1.051c.164.715.313 1.436.422 2.162a2.554 2.554 0 01-.914 2.073.327.327 0 01-.303-.053c-.421-.584-.8-1.197-1.134-1.835a2.309 2.309 0 01-.07-1.143c.064-.407.155-.81.274-1.205.006-.03.019-.075.039-.082.602-.195.712-.805 1.04-1.23a1.25 1.25 0 01.221-.156c.153.522.316.99.425 1.47zm.99-6.959a28.81 28.81 0 01-.093 1.713 1.543 1.543 0 01-1.01 1.477c-.2-3.01.231-5.586 1.107-6.358 0 1.09.01 2.129-.004 3.168zm.787 8.669c-.076.12-.168.232-.323.447l-.175-1.155c-.097-.636-.172-1.276-.296-1.908a3.946 3.946 0 01.178-2.264c.264-.673.435-1.384.645-2.079l.102-.006c.07.408.175.813.205 1.224.081 1.174.198 2.352.171 3.526a4.29 4.29 0 01-.507 2.215zm2.788 23.847c-.055.58-.095 1.163-.146 1.798-.373-.189-.75-.352-1.096-.562-.507-.307-.175-.763-.116-1.128a1.277 1.277 0 01.698-1.046c.307-.155.489-.562.728-.855l.122.034c-.064.586-.134 1.172-.19 1.759zm.782 4.405c.3.473.438 1.039.97 1.371.157.098.187.431.239.666.173.693.312 1.394.413 2.101.026.228-.213.489-.336.732-.305.597-.611 1.192-.917 1.785-.994-.813-1.303-1.261-1.089-2.578.165-1.05.262-2.109.29-3.171a5.6 5.6 0 00-.31-1.376c-.024-.101-.034-.206-.051-.309a4.11 4.11 0 01.108-.074c.244.271.472.556.683.853zm.387-15.592a17.332 17.332 0 01-.401-4.975c1.254 1.594 1.442 3.675.401 4.975zm1.516 3.446c.275.376.475.654.68.928.081.109.165.288.263.299.419.047.502.37.583.671.13.455.223.919.279 1.389.007.258-.051.513-.17.742-.271.579-.578 1.141-.876 1.708-.048.077-.103.15-.163.219a3.025 3.025 0 01-1.129-3.279c.197-.839.339-1.691.533-2.677zm.421-10.814c-.15-1.393-.292-2.729-.448-4.19a4.13 4.13 0 01.448 4.19zm1.211 4.96c.193.328.313.698.49 1.036.104.17.224.331.357.479.138.176.354.326.409.523.319.81.365 1.702.132 2.541a12.97 12.97 0 01-1.064 1.856c-.004.007-.029.003-.03.003a18.725 18.725 0 01-1.122-1.67 4.775 4.775 0 01-.365-2.616c.043-.676.011-1.358-.006-2.037-.008-.318-.058-.634-.097-1.027.52.154.976.474 1.296.912zm4.792 6.817a7.26 7.26 0 011.604-4.595 19.709 19.709 0 001.95-2.891c.424-.697.746-1.455 1.15-2.258.115 1.634-2 7.755-4.704 9.744zm3.14-2.312c-.1-.688.383-1.198.715-1.754l-.536 1.809-.179-.055zm1.924 4.269c-.549.81-1.15 1.586-1.733 2.372-.024.032-.078.04-.222.108a26.077 26.077 0 011.236-7.864l.179-.002c.057.438.096.88.177 1.313.198 1.065.443 2.124.606 3.195.021.311-.064.621-.243.878zm.993 2.288c-.251 1.021-.494 2.044-.751 3.111a1.238 1.238 0 01-.28-.12 5.946 5.946 0 01-.89-.723.822.822 0 01-.214-.675c.535-1.184 1.124-2.343 1.703-3.507.035-.072.131-.116.204-.177a2.298 2.298 0 01.228 2.091zm.198 6.35c.491-.811.904-1.668 1.355-2.502.086-.159.188-.308.284-.461l.138-.005c.11.444.214.888.331 1.329.065.245.149.486.23.726.075.221.257.457.22.656a3.096 3.096 0 01-1.192 2.326 6.735 6.735 0 00-1.057 1.104c-.082.086-.173.165-.302.286-.411-1.19-.709-2.305-.007-3.459zm.371-4.556l.153.058a1.655 1.655 0 01-.564 1.71l.411-1.768zm.76-5.108a.396.396 0 01-.536.287c-.204-.057-.307-.216-.161-.411.309-.409.638-.803.959-1.203l.115.078-.377 1.249zm1.451 3.978c.102.173.156.37.156.571 0 .137-.126.273-.195.41a1.722 1.722 0 01-1.115-.986 1.739 1.739 0 01.067-1.487c.217.355.398.685.613.989.132.186.354.311.474.503zm1.862-6.609c.212.149.272.611.278.933.012.744-.021 1.488-.098 2.228a1.938 1.938 0 01-.365.728c-.306.494-.629.975-.935 1.449-1.246-1.102-.837-2.397-.537-3.697.161-.697.225-1.418.358-2.123.08-.324.178-.642.294-.955.112.08.192.11.226.166.253.422.307.939.779 1.271zm.681-14.205c.059.22.072.45.039.677-.16.964-.344 1.923-.523 2.883-.042.22-.1.438-.151.657a8.429 8.429 0 00-.138.048 3.867 3.867 0 01-.423-.883 10.482 10.482 0 01-.143-3.64c.119-.774.193-1.555.296-2.332.024-.19.083-.374.149-.658.323 1.167.619 2.205.894 3.248zm1.018-1.549a1.28 1.28 0 01-.921-1.238 48.242 48.242 0 01-.193-3.526c.02-.514.074-1.025.163-1.53l.206-.034c.321.724.56 1.481.713 2.258.118 1.334.032 2.685.032 4.07zm1.05 3.509c.789.228.59.94.723 1.471.052.31.054.624.007.934a1.094 1.094 0 01-.152.471c-.318.523-.661 1.03-.983 1.55-.162.261-.23.291-.48.022a2.432 2.432 0 01-.807-2.118c.141-.826.382-1.636.591-2.45.089-.348.212-.689.362-1.167l.532.94c.067.12.113.32.207.347zm1.724-6.069c.145.236.309.459.491.666.062.082.178.155.185.24.1.691.139 1.39.116 2.088-.075.879-.687 1.41-1.074 2.088-.083.146-.185.28-.333.5-.119-.25-.215-.469-.326-.68a5.827 5.827 0 01-.764-1.5 10.131 10.131 0 01-.025-2.295c.055-1.001.171-2 .264-3.036a1.628 1.628 0 011.039.92c.16.327.257.688.427 1.01zm2.806 2.356c-.392.206-.78.42-1.229.663a1.316 1.316 0 01-.102-.325 8.407 8.407 0 010-1.365 11.34 11.34 0 01.383-1.637c.088-.213.205-.413.346-.595.057-.089.126-.241.193-.243.626-.016 1.028-.514 1.57-.7.107-.017.216-.019.324-.005-.234 1.094-.459 2.12-.672 3.15a1.49 1.49 0 01-.813 1.057zm-.672 9.764c.056-1.053 2.467-4.76 3.147-5.388-.187 1.57-2.311 5.239-3.147 5.388zm3.59 1.7c-.125.47-.277.933-.455 1.386a1.51 1.51 0 01-.709.849c-.615.366-1.211.762-1.786 1.188a2.928 2.928 0 01.383-3.163c.647-.823 1.336-1.612 2.008-2.414.047-.058.11-.103.264-.243.027.406.021.718.073 1.02.043.253.175.49.222.743.046.209.046.425 0 .634zm-7.348 12.157c-.139.052-.272.121-.432.193a5.39 5.39 0 012.268-4.099c.037-.027.083-.072.117-.065.77.132 1.351-.47 2.069-.529.43-.036.861-.058 1.319-.088-.516.91-.928 1.733-1.431 2.496a2.63 2.63 0 01-2.066 1.442 7.066 7.066 0 00-1.844.65zm-1.512-4.429c.046-.246.154-.476.314-.668.1.293.177.593.228.897.039.435-.008.877.018 1.314.044.185.1.367.168.544.035.152.038.31.007.463-.199.814-.39 1.631-.641 2.43a1.58 1.58 0 01-.512.611c-.54.471-1.099.922-1.652 1.376-.098.07-.2.134-.305.19a8.126 8.126 0 00-.257-1.113 1.23 1.23 0 01.113-1.144c.478-.784.972-1.558 1.469-2.33a5.957 5.957 0 001.05-2.57zm1.821-6.685a2.985 2.985 0 011.574-.78c-.245.992-.201 1.951-.891 2.761a20.821 20.821 0 00-1.541 2.4 15.897 15.897 0 01-1.034-1.869c-.1-.247.109-.641.23-.947a.97.97 0 01.632-.695c.396-.136.677-.584 1.03-.87zm2.766 4.807a11.785 11.785 0 01-1.251 1.454c-.429.431-.914.807-1.401 1.229-.824-1.083.462-4.366 2.339-5.845.122.375.225.756.308 1.141.063.384-.038.767.242 1.148.115.155-.064.633-.237.873zm-.206-12.441c-.487.201-.94.487-1.407.734-.422-1.052.117-1.892.608-2.743.045-.078.131-.195.194-.192.853.043 1.198-.808 1.882-1.06a5.41 5.41 0 00.647-.355c-.189.85.018 1.69-.629 2.323a1.047 1.047 0 00-.205.304c-.218.46-.61.816-1.09.989zm-2.626 3.584a1.143 1.143 0 01.574-.949l.147.119-.721.83zm.113 1.128c.826-1.03 1.655-2.06 2.485-3.088a.778.778 0 01.415-.258c-.121.391-.262.778-.36 1.176-.172.694-.319 1.394-.474 2.092a.949.949 0 01-.642.748c-.661.257-1.29.6-1.964.922a1.931 1.931 0 01.089-.857c.093-.276.247-.527.451-.735zm-3.379 2.047c-.066.099-.141.193-.212.288l-.158-.054c.166-1.155.425-2.294.774-3.406a1.028 1.028 0 01.78.65 1.043 1.043 0 01-.155 1.003c-.364.49-.686 1.013-1.029 1.519zm.399.602c.378-.594.726-1.207 1.107-1.799.119-.143.256-.27.408-.377l.09.086c-.514 1.234-1.03 2.468-1.534 3.68-.581-.74-.577-.794-.071-1.59zm1.55 16.004c-.324.158-.668.27-1.023.332-.571.164-1.146.319-1.719.476-.126.035-.253.064-.38.096l-.119-.12c.22-.658.5-1.295.834-1.903a6.394 6.394 0 011.323-1.269c.13-.109.387-.053.573-.112.317-.097.628-.214.931-.351.61-.283 1.208-.594 1.818-.88.135-.037.275-.056.416-.057-.654 1.508-1.293 2.911-2.654 3.788zm1.172 3.315a17.478 17.478 0 01-2.018 1.522c-.162.119-.35.198-.548.231.095-.168.194-.335.284-.506.286-.543.59-1.078.848-1.634.371-.8 1-1.452 1.785-1.852a21.897 21.897 0 004.318-3.137 3.27 3.27 0 01.372-.256l.091.075c-.154.201-.313.397-.461.602a17.091 17.091 0 01-2.622 3.227 1.291 1.291 0 01-.331.246 5.378 5.378 0 00-1.718 1.482zm-1.401 3.026a5.238 5.238 0 012.221-2.561c-.676.888-.747 2.278-2.221 2.561zm2.377 15.762a16.57 16.57 0 01-2.205-.101l-.012-.168c.581-.659 1.161-1.322 1.745-1.979.239-.342.529-.645.86-.899a3.8 3.8 0 011.567-.562 6.324 6.324 0 002.612-1.058c.868-.465 1.7-.998 2.546-1.5.028.027.054.056.082.084-.366.499-.706 1.018-1.101 1.492-.791.948-1.607 1.876-2.423 2.804a5.347 5.347 0 01-3.671 1.887zm-3.529 2.315a3.317 3.317 0 012.404-1.178c.796-.136 1.581-.332 2.37-.502l.256-.049.065.156c-1.846 1.354-3.633 2.815-5.965 3.279l-.152-.164c.339-.515.668-1.036 1.022-1.542zm-5.015 2.757l.263-1.293a.65.65 0 00.043-.179c-.103-1.147.728-1.644 1.511-2.17.085-.056.232-.122.297-.087.584.319 1.081-.083 1.614-.167.225-.023.452-.035.679-.034-.292.467-.553.857-.783 1.264-.196.347-.348.72-.535 1.073a1.886 1.886 0 01-1.183 1.006c-.615.173-1.221.375-1.906.587zm-2.833 5.428c.009.009-.033-.014-.031-.027.221-.964.063-2.036.823-2.848a1.98 1.98 0 011.479-.872 3.946 3.946 0 001.187-.446c.307-.116.622-.214.932-.32l.129.129c-.547 1.014-1.063 2.046-1.66 3.03a1.937 1.937 0 01-.884.628c-.636.276-1.301.483-1.975.726zm-2.831.481a5.404 5.404 0 011.529-5.178c.11.95.199 1.816.319 2.677.037.261.184.505.24.765.052.208.061.425.026.637-.076.466-.212.92-.404 1.35-.183.351-.78.638-.754.911.05.518-.288.771-.441 1.142-.036.088-.136.151-.297.319.052-.361.088-.595.12-.828a3.823 3.823 0 00-.338-1.795zm-6.79 23.021c.043-.552.111-1.103.177-1.653.114-.93.234-1.86.353-2.79.1-.793.198-1.587.305-2.379.155-1.158.3-2.316.478-3.47.128-.83.29-1.657.458-2.481a207.308 207.308 0 012.089-9.307c.332-1.316.72-2.62 1.105-3.924.426-1.448.867-2.893 1.324-4.335a1.48 1.48 0 01.381-.506 6.723 6.723 0 001.882-3.114c.132-.663.216-1.333.254-2.007.009-.115-.138-.242-.211-.363a1.821 1.821 0 00-.428.284c-.297.353-.563.73-.842 1.099l-.156-.099c.037-.166.092-.327.162-.481.315-.596.673-1.167 1.072-1.709.28-.231.608-.394.96-.479.1.086.169.202.198.331.014 1.269.018 2.539 0 3.809-.019.21-.088.413-.202.591a8.579 8.579 0 00-1.236 2.175c-.263 1.249-1.218 2.029-1.698 3.107-.783 1.759-1.082 3.531-.12 5.314.154.416.173.87.053 1.298a16.786 16.786 0 01-.318 1.839 1.636 1.636 0 01-.229-1.504 1.496 1.496 0 00-.121-.518c-.142.064-.327.089-.421.195a5.564 5.564 0 00-1.61 3.9c.016.597.128 1.192.167 1.79.005.23-.026.46-.094.681-.4 1.473-.84 2.937-1.211 4.418-.407 1.628-.761 3.27-1.124 4.908-.258 1.165-.521 2.328-.731 3.501-.226 1.253-.391 2.517-.584 3.776l-.087.565-.159-.003c.053-.82.101-1.64.164-2.459zm-1.537-2.152c.325.319.319 2.697.156 4.579-.129-.003-.257-.005-.385-.009l.229-4.57zm-9.52-21.191c1.452.511 1.851 1.812 2.426 3.072-.775-.232-.718-1.082-1.281-1.477a5.9 5.9 0 01-1.146-1.595zm-3.69-10.749a3.277 3.277 0 01-.313-1.395c.598.583 1.206 1.156 1.79 1.752.353.469.762.892 1.217 1.26.385.355.647.823.746 1.338.176.71.312 1.43.409 2.156l-.231.106a13.403 13.403 0 01-1.343-1.498 62.668 62.668 0 01-2.274-3.719zm-1.263 8.924c.313-.378.176-.826.221-1.247.075-.685.178-1.367.28-2.05.033-.099.08-.193.138-.279a5.325 5.325 0 011.18 2.751c.112.585.27 1.161.47 1.722.242.712-.177 1.32-.18 2.026-.395-.371-.71-.708-1.068-.995a3.093 3.093 0 01-1.032-1.684c-.02-.078-.048-.196-.009-.244zm-.593-9.762a2.567 2.567 0 01.912 2.556c-.51-.836-1.12-1.513-.912-2.556zm-2.676 3.349c.063-.263.145-.521.195-.787.133-.703.247-1.411.384-2.114a1.64 1.64 0 01.234-.401c.573.85 1.121 1.64 1.644 2.446.247.369.46.761.636 1.168.085.223.094.467.025.695-.31.917-.663 1.82-.995 2.712a15.432 15.432 0 01-1.559-1.236 3.39 3.39 0 01-.547-1.092 1.774 1.774 0 01-.166-.66c.022-.249.072-.494.15-.731zm-1.728-12.229c.843.153 1.914 1.797 1.572 2.457l-1.572-2.457zm1.083 14.063a6.291 6.291 0 01-1.48-.539 6.16 6.16 0 01-1.493-1.413c-.602-.842-1.072-1.778-1.594-2.677a1.408 1.408 0 01-.053-.344c.609.21 1.146.393 1.683.581.114.04.267.17.326.133.518-.315.758.095 1.035.38.284.284.552.584.803.899.266.359.412.793.415 1.24.064.498.171.99.32 1.469.016.07.021.143.038.271zm-.475-3.883a4.24 4.24 0 01-1.795-2.973 1.718 1.718 0 01.198-1.395c.136-.193.074-.534.081-.808.022-.829.034-1.66.055-2.489.002-.052.056-.104.118-.212.205.292.419.55.581.837.315.555.566 1.148.904 1.686.422.749.66 1.587.695 2.446.006.26-.038.52-.131.763-.22.712-.465 1.415-.706 2.145zm-2.84-13.451a4.908 4.908 0 01-1.213-3.27c.633.121 1.284.275 1.493.809a32.49 32.49 0 01.934 3.226c.004.013-.041.042-.126.121l-1.215-2.908-.148.041a4.92 4.92 0 00.274 1.981zm-2.784 2.6c.471-.748.007-1.597.265-2.372a12 12 0 00.278-1.226l.148-.026c.163.265.314.538.49.794.445.642.943 1.253 1.338 1.924a3.157 3.157 0 01.522 2.936 10.1 10.1 0 00-.319 2.347.46.46 0 01-.205-.055 7.25 7.25 0 01-2.52-4.091.336.336 0 01.002-.231zm-.394-17.861c.314.092.551.568.744.917a3.47 3.47 0 01.313 1.655c.037.553.107 1.103.211 1.647-2.426-.695-2.867-2.796-3.528-4.878.433.066.86.169 1.274.308.322.137.65.254.986.351zm1.41.306a6 6 0 01-.134.008c-.52-.777-1.228-1.455-1.302-2.467a29.948 29.948 0 01-.054-1.064.254.254 0 01.061-.158c.182-.226.371-.448.562-.675.202.166.176.401.166.725.023.578.119 1.151.284 1.705.111.473.288.931.41 1.402.024.174.026.35.007.524zm1.233 10.401c-.694-.093-.867-.611-1.029-1.094a17.09 17.09 0 00-1.657-3.902 6.842 6.842 0 01-.342-.696 1.809 1.809 0 011.526 1.225c.179.689.392 1.371.632 2.043.247.688.547 1.357.816 2.038.031.127.05.256.054.386zm-.998-4.983a7.146 7.146 0 011.872 4.594l-.166.056c-.175-.572-.354-1.142-.523-1.715-.107-.365-.176-.742-.305-1.097-.076-.212-.142-.474-.484-.466-.084.001-.184-.185-.258-.298-.152-.229-.29-.467-.473-.766l.337-.308zm.236-6.652l-.39-1.254c.798.789.813.842.39 1.254zm1.328 5.707c.119.249.271.48.453.687.389.458.416.912-.03 1.583a10.15 10.15 0 01-.66-1.055 36.022 36.022 0 01-.876-2.114 2.643 2.643 0 01-.193-.837c-.006-.173.14-.351.22-.527l.13.046c.316.739.622 1.485.956 2.217zm-.644-9.98c.753.537 1.256 2.038.786 2.543l-.786-2.543zm2.221 9.152a4.73 4.73 0 01-.322.954l-.259.008c-.302-.611-.627-1.212-.898-1.836-.266-.6-.495-1.216-.685-1.843-.164-.549.255-.916.588-1.478.474.884.892 1.661 1.306 2.44a2.92 2.92 0 01.27 1.755zm2.136-8.66a5.58 5.58 0 00-.123.998 14.448 14.448 0 01-1.563-1.113 1.611 1.611 0 01-.42-.938c-.085-.737-.075-1.486-.112-2.229-.018-.366-.054-.732-.09-1.213.293.15.497.246.692.356.388.222.62.665 1.148.719.152.015.31.363.395.585.353.908.38 1.91.073 2.835zm.683 3.377a2.913 2.913 0 01.3 2.854 7.42 7.42 0 00-.635-.49c-.493-.306-1.01-.575-1.5-.888a2.668 2.668 0 01-.864-2.536c.06-.284.081-.577.143-1.033.586.534 1.088 1.006 1.609 1.457.162.1.33.191.503.27.175.085.327.21.444.366zm3.236-7.178a9.413 9.413 0 00-.21 1.107c-.053.82-.062 1.644-.105 2.465a8.852 8.852 0 01-.13 1.241 2.755 2.755 0 01-.712 1.412c-.36.441-.687.908-.976 1.398a8.751 8.751 0 01-1.03-1.893 6.75 6.75 0 01.01-2.044c.023-.244.095-.48.211-.695.128-.21.275-.408.438-.592.22-.246.418-.51.593-.789a3.005 3.005 0 011.364-1.449 4.39 4.39 0 01.547-.161zm1.887-7.121a7.419 7.419 0 01-.456-.823 17.47 17.47 0 01-.51-1.505c-.032-.108.073-.255.127-.42a2.831 2.831 0 01.839 2.748zm-.642-6.508c.513.457.968.824.723 1.59a4.522 4.522 0 00-.027 1.255c-.001.146-.02.292-.034.49-.71-.699-.89-1.636-.662-3.335zm2.621-4.834c.01.139.014.278.02.417l-.111.052c-.625-.577-1.681-.627-1.939-1.652a38.137 38.137 0 01-.64-3.092 1.39 1.39 0 01.04-.308c.322.175.594.337.878.475.283.1.556.222.819.366a1.8 1.8 0 01.546.642 3.48 3.48 0 01.354 2.502c-.019.2-.008.402.033.599zm1.71 5.192c-.02.063-.268.13-.358.086a17.742 17.742 0 01-1.822-.963 1.788 1.788 0 01-.763-.828 21.034 21.034 0 01-.462-2.321l.165-.12c.49.35.972.711 1.472 1.045.198.11.406.204.62.28.133.06.333.093.385.196.317.621.603 1.259.855 1.91.04.242.009.49-.092.715zm1.375 5.748c-.295-.155-.569-.31-.852-.447a7.786 7.786 0 00-1.047-.47c-.491-.153-.565-.55-.663-.953l-.692-2.843a.525.525 0 01.018-.349c.44.277.889.543 1.318.835.323.22.565.531 1.025.555.174.01.363.34.487.558a3.775 3.775 0 01.406 3.114zm.812-.366a1.003 1.003 0 01.365-.783c.326-.363.618-.756.871-1.173a4.04 4.04 0 01.483-.448c.201.875.41 1.627.542 2.393a3.04 3.04 0 01-.412 2.687 5.577 5.577 0 00-.5.932c-.441-1.279-1.43-2.231-1.349-3.608zm.699 4.163c.3.919.266 1.914-.097 2.81-.709-.518-1.438-1.011-2.116-1.568a3.52 3.52 0 01-.73-.951 2.12 2.12 0 01-.265-.82c-.1-.897-.162-1.798-.243-2.747a4.49 4.49 0 012.196 1.516c.027.037.049.103.08.107.967.143.891 1.028 1.175 1.653zm1.194 7.992c-.066.23-.12.464-.162.7a12.246 12.246 0 01-2.074-1.374 4.007 4.007 0 01-1.053-2.349c-.086-.657-.098-1.324-.15-2.089.192.074.318.086.384.155.521.552 1.029 1.115 1.542 1.674.082.089.158.248.248.256.898.075 1.034.862 1.333 1.458a1.978 1.978 0 01-.068 1.569zm-.951 5.145c.095-.958.18-1.918.268-2.877l.21-.013c.029.232.074.463.083.696.037.949.063 1.901.091 2.851a.442.442 0 01-.034.114c-.383-.121-.664-.301-.618-.771zm1.616 10.103a5.301 5.301 0 01-.687-1.498l.185-.106 1.912 2.225c-.545-.224-1.115-.297-1.41-.621zm3.296 7.111a4.873 4.873 0 00-.479 1.268 3.015 3.015 0 01-1.45-3.114c.129-.93.167-1.871.245-2.808l.156-.137c.212.282.438.553.678.812.264.26.648.425.838.722.234.372.384.791.438 1.227a2.692 2.692 0 01-.426 2.03zm1.29-.057c.39-.377.727-.806 1.115-1.184.26-.238.54-.454.835-.646.127-.058.261-.098.398-.12 0 1.152.035 2.214-.017 3.271a1.178 1.178 0 01-.653 1.115 5.04 5.04 0 00-1.935 1.68 1.74 1.74 0 01-.265.235c-.181-.495-.328-.948-.511-1.386a2.992 2.992 0 01-.091-1.33 2.99 2.99 0 01.499-1.236c.092-.188.449-.229.625-.399zm.888-5.88c.343-.362.66-.747.994-1.118.382-.424.771-.845 1.157-1.267a6.013 6.013 0 01-.554 4.18c-.188.31-.431.584-.717.808-.583.465-1.202.884-1.793 1.312a3.358 3.358 0 01.264-3.315c.146-.242.447-.386.649-.6zm1.061-6.957c.399-.356.772-.743 1.189-1.075.301-.197.617-.37.945-.516-.062.386-.119.624-.134.863-.042.697-.051 1.396-.102 2.091a2.255 2.255 0 01-.944 1.785 18.847 18.847 0 00-1.681 1.565c-.049.046-.107.081-.177.134a4.619 4.619 0 01.187-4.23c.148-.258.481-.406.717-.617zm2.657-6.967c.114-.055.234-.097.357-.126-.155 1.044-.31 2.055-.452 3.067a1.21 1.21 0 01-.67 1.065c-.561.274-1.071.653-1.605.981a.742.742 0 01-.207.043 4.014 4.014 0 01.41-3.466c.042-.063.079-.16.137-.176.835-.236 1.318-.98 2.03-1.388zm-.234-3.821c.524-.374 1.032-.77 1.548-1.155.088-.038.18-.068.274-.088a18.944 18.944 0 01-.238 2.255c-.105.385-.34.722-.664.954-.686.478-1.442.855-2.168 1.273a2.957 2.957 0 01.638-2.91c.128-.167.422-.195.61-.329zm2.024-3.595a1.473 1.473 0 01-.81 1.154c-.356.203-.705.422-1.083.65a1.47 1.47 0 01-.085-.266 8.58 8.58 0 01-.162-1.831 3.448 3.448 0 01.594-1.838 4.407 4.407 0 012.035-1.187c-.18 1.2-.354 2.256-.489 3.318zm1.766 6.669a49.546 49.546 0 01-1.607 3.498 2.227 2.227 0 01-.897.74c-.181.105-.396.074-.334-.308a10.896 10.896 0 013.008-5.886c.138-.144.251-.312.377-.467l.37-.454.119.055c-.342.942-.649 1.898-1.036 2.822zm1.16-.512a4.824 4.824 0 00-.307 1.428 8.762 8.762 0 01-.836 2.459c-.681 1.537-1.32 3.092-1.979 4.638-.039.092-.096.176-.162.295l-.332-.669-.142-.015a4.778 4.778 0 00-.202.683 5.672 5.672 0 00-.008.749.995.995 0 01-.635.973c.115-.969.201-1.988.368-2.992a3.188 3.188 0 011.088-1.831 8.02 8.02 0 002.093-3.526c.53-1.494 1.065-2.986 1.607-4.475.019-.054.072-.094.129-.165a6.185 6.185 0 01-.682 2.448zm-.111 5.318l.129-1.521c.449.647.426.893-.129 1.521zm.68 5.613c-.917-1.499-.64-2.947-.068-4.411.102.503.204 1.005.304 1.508.101.509.239 1.015.288 1.529a2.093 2.093 0 01-.524 1.374zm1.89 20.538l.218.003c.09.422.158.848.204 1.277.035.591-.001 1.187.012 1.78.008.343-.115.722.236.995.039.03.011.168-.008.253-.134.73-.5 1.398-1.043 1.904-.283.285-.548.586-.796.902l-.154-.116c-.561-2.538.309-4.784 1.331-6.998zm.14-5.053c-.254 1.297-.496 2.543-.741 3.789l-.283-.031v-2.511a1.324 1.324 0 011.024-1.247zm-3.594.676c.055-.122.139-.282.101-.384a1.923 1.923 0 01.369-1.738 1.808 1.808 0 011.138-.971c.41-.108.726-.546 1.106-.805.413-.28.851-.525 1.399-.859a5.656 5.656 0 01-1.427 3.281l-.044-.949c-.469.123-.509.522-.526.825a1.629 1.629 0 01-1.157 1.677c-.395.139-.687.58-1.015.895a5.693 5.693 0 00-.384.452l-.193-.079c.212-.448.428-.894.633-1.345zm-.237-20.439a5.82 5.82 0 00-.483 1.556c-.394 1.281-.795 2.56-1.201 3.837a.474.474 0 01-.229.24c.044-.805-.349-1.552.162-2.417a34.591 34.591 0 001.734-3.879c.1-.23.184-.466.275-.699a1.544 1.544 0 01-.258 1.362zm.792 10.995l.2.02c.104.472.236.939.302 1.414.061.424.034.858.455 1.138a.345.345 0 01.111.283c-.157 1.114-.144 2.284-1.113 3.123-.21.239-.386.507-.522.794l-.138.003a4.662 4.662 0 00-.118-.608c-.169-.506-.388-.998-.534-1.51a2.919 2.919 0 01.164-1.98c.386-.898.794-1.785 1.193-2.677zm-.611-7.792c-.043 1.183-.126 2.369-.08 3.549a3.898 3.898 0 01-.815 2.201c.098-.98.566-1.909.364-2.93-.678.794-.675 1.846-1.162 2.788a3.063 3.063 0 01.137-2.356c.482-1.268.851-2.579 1.273-3.871.073-.223.167-.439.251-.659l.149.03c-.041.416-.102.832-.117 1.248zm-7.974 46.068c.285-1.644.597-3.284.934-4.919.348-1.676.734-3.344 1.114-5.013.357-1.565.721-3.127 1.094-4.688.539-2.244 1.083-4.487 1.633-6.727.347-1.426.697-2.85 1.049-4.274a.53.53 0 01.124-.245c.284-.279.176-.514-.013-.801a2.845 2.845 0 01-.687-1.904 1.84 1.84 0 01.13-.576c.356-.746.733-1.481 1.142-2.299.076.186.132.38.166.578.023.484.547.778.447 1.32-.111.604-.101 1.233-.234 1.83-.09.407-.072.692.341.887-.183.389-.377.751-.526 1.131-.188.467-.346.946-.473 1.434-.037.15.105.346.164.521.159-.082.391-.123.463-.252.273-.396.66-.701 1.108-.875.032.032.061.065.091.097a2.619 2.619 0 01-.116.436c-.134.292-.29.574-.463.91-.278-.304-.475-.235-.618.103-.124.295-.297.571-.399.871-.795 2.378-1.627 4.745-2.353 7.143a178.143 178.143 0 00-2.056 7.417c-.492 1.908-.904 3.837-1.308 5.767-.211 1.004-.327 2.029-.492 3.044a1.566 1.566 0 01-.108.296l-.128-.006a6.076 6.076 0 01-.026-1.206zm4.657-24.114l-4.71 19.593c-.613-7.003 1.777-13.356 4.71-19.593zm-8.646-3.48c.294.46.567.935.892 1.373.16.216.463.327.614.545.218.3.381.637.481.993a3.263 3.263 0 01-.168 2.45c-.114.292-.2.594-.257.903-.71-1.221-1.98-1.953-1.994-3.436.011-.308.039-.615.084-.92.066-.62.135-1.241.202-1.862l.146-.046zm2.374-1.773c-.234.594-.495 1.176-.767 1.812-.083-.097-.179-.202-.268-.313-.358-.461-.741-.907-1.062-1.392a1.668 1.668 0 01-.325-.878c.028-1.015.132-2.027.219-3.205.306.328.542.564.758.816.259.305.4.731.908.758.085.004.2.192.235.314.146.498.286.998.386 1.506.025.198-.004.399-.084.582zm2.564.817c-.386.787-.53 1.69-.887 2.493-.298.549-.647 1.07-1.042 1.554-.025.035-.114.027-.187.041a8.446 8.446 0 01-.505-1.699 2.836 2.836 0 01.272-1.554c.418-.644.892-1.249 1.418-1.807.266-.322.55-.63.839-.932.108-.094.225-.177.35-.247l.105.062c-.222.678-.02 1.39-.363 2.089zm-2.398 9.029c-.544-.532-.282-1.158-.205-1.738.058-.431.124-.911.675-1.104.162-.057.236-.344.361-.517.434-.594.872-1.183 1.308-1.774l.146.045c.202.805.233 1.643.093 2.461a4.407 4.407 0 01-1.145 2.506 2.91 2.91 0 00-.952 1.517.563.563 0 01-.205.275c-.097-.402-.362-.776-.075-1.224a.474.474 0 00-.001-.447zm3.791-3.866c.575-1.496 1.204-2.973 1.843-4.54.309.487.591.908.84 1.348.038.067-.06.222-.112.328-.736 1.485-1.51 2.953-2.203 4.457-.64 1.388-1.193 2.816-1.787 4.226-.074.177-.16.351-.255.559a1.304 1.304 0 01-.155-1.458c.356-.876.769-1.729 1.101-2.614.282-.754.439-1.555.728-2.306zm3.208-9.818a6.849 6.849 0 01-.821 2.745l-.262-.053a3.606 3.606 0 01-.032-1.204 3.238 3.238 0 011.115-1.488zm-.61-1.997a43.713 43.713 0 01-2.114 4.226 8.775 8.775 0 01-.213-.116c.461-1.542 1.546-2.743 2.327-4.11zm-1.371-4.127c.145-.798.29-1.507.394-2.222.057-.382.037-.774.062-1.16a2.145 2.145 0 011.026-1.811c.055.951.043 1.904-.037 2.853a4.466 4.466 0 01-.814 1.472c-.18.289-.4.552-.631.868zm1.317-.455l.17.003c.063.365.123.732.189 1.096a3.962 3.962 0 01-.772 2.605c-.335.636-.731 1.239-1.113 1.849a3.685 3.685 0 01-.413.452c.063-.938.151-1.772.17-2.608.034-1.441 1.169-2.271 1.769-3.397zm-2.566 11.297a2.264 2.264 0 011.054-2.109c.242.269.493.518.7.798a.483.483 0 01.013.402 519.844 519.844 0 01-1.879 4.335c-.016.038-.068.06-.113.098a1.078 1.078 0 01-.078-1.068c.33-.774.435-1.625.303-2.456zm-10.052 5.548a4.708 4.708 0 01.481-3.287c.57.887 1.096 1.801 1.575 2.741.104.441.074.902-.085 1.326-.22.922-.505 1.827-.767 2.738-.012.036-.069.06-.156.135-.053-.214-.089-.396-.142-.576-.304-1.024-.662-2.037-.906-3.077zm-.604 6.852a11.544 11.544 0 01-1.143-1.827 12.682 12.682 0 01-.488-2.223.301.301 0 01.082-.252c.586-.422.564-1.142.848-1.71.051-.103.109-.203.216-.403l.646 1.65c.457.875.676 1.855.636 2.841-.049.28-.135.553-.256.81-.16.372-.352.729-.541 1.114zm-1.836-1.035c.661.136.792.716 1.038 1.194.181.353.326.725.489 1.088.019.042.074.09.064.118-.255.774.327 1.398.4 2.112l-.115.083a2.774 2.774 0 01-.245-.336 5.639 5.639 0 00-1.337-1.533 7.877 7.877 0 01-2.346-3.634c-.163-.516-.293-1.042-.438-1.563l.159-.089 2.059 2.256c.093.103.165.283.272.304zm-1.744-9.681a9.134 9.134 0 011.225-1.632c.105.369.2.724.308 1.076.219.699.455 1.393.667 2.094a1.776 1.776 0 01-.207 1.667 5.4 5.4 0 00-.459 1.054c-.51-.758-1.011-1.405-1.399-2.113a2.417 2.417 0 01-.135-2.146zm-1.828-4.636a5.392 5.392 0 01-.07-1.858c0-.051.056-.107.097-.152.41-.444.819-.889 1.235-1.327a2.1 2.1 0 01.335-.216c.103.584.191 1.126.296 1.664.107.555.204 1.114.352 1.659a2.64 2.64 0 01-.763 2.84 20.632 20.632 0 01-1.482-2.61zm-2.219-.555c.48.466.92.97 1.378 1.458.065.069.123.17.202.192 1.012.281 1.094 1.261 1.49 1.994.392.729.116 1.502.074 2.291-.785-.649-1.491-1.302-2.27-1.853-.498-.352-1.01-.655-1.178-1.277a30.839 30.839 0 01-.464-1.957 6.127 6.127 0 01-.116-1.527c.309.207.604.434.884.679zm-2.335-7.089c.184.144.356.303.515.474.391.492.742 1.018 1.147 1.499.207.244.515.4.745.629.215.214.406.452.57.708a4.83 4.83 0 01.736 3.13c-.005.053-.058.102-.07.122a18.394 18.394 0 01-2.375-1.825 4.635 4.635 0 01-1.303-2.831c-.048-.601-.08-1.204-.119-1.805l.154-.101zm-1.042-6.357c.806.377 1.51.942 2.053 1.647.168.213.453.331.63.54.201.226.361.487.471.769a4.532 4.532 0 01.067 3.356 4.03 4.03 0 00-.113.453c-.275-.307-.48-.572-.723-.799a32.39 32.39 0 00-1.34-1.169 2.385 2.385 0 01-.883-1.709c-.07-.924-.126-1.848-.186-2.772.002-.106.01-.211.024-.316zm3.138-2.92a16.82 16.82 0 01-1.128-2.067c-.09-.438-.07-.891.06-1.318.087-.371.205-.734.353-1.085.025-.07.074-.169.13-.183.654-.161.861-.794 1.284-1.198.044-.043.092-.081.253-.22.078.493.147.889.202 1.289.097.7.169 1.404.282 2.101a2.913 2.913 0 01-1.436 2.681zm1.852.154l.144.078c.064.509.14 1.018.19 1.529.05.524.024 1.06.121 1.574a2.577 2.577 0 01-.506 1.788 14.37 14.37 0 01-.85 1.215 6.798 6.798 0 00-.221-.761c-.19-.449-.433-.876-.603-1.33a3.272 3.272 0 01-.165-2.244c.075-.22.38-.359.57-.545.443-.432.88-.869 1.32-1.304zm.53-8.915c-.217.233-.47.43-.747.585l-.13-.099c.29-1.646.151-3.374.985-4.973a4.263 4.263 0 01-.108 4.487zm.901-4.202c-.545-.627-.567-.914-.1-1.352a.973.973 0 01.1 1.352zm.238-9.553a3.328 3.328 0 01-.006-.843c.01-.181.066-.36.08-.54.015-.183.004-.368.004-.552l.194-.056c.29.827.58 1.654.872 2.48a.781.781 0 01-1.144-.49zm1.339 3.098l.72 3.242c-1.124-.47-1.496-1.878-.72-3.242zm1.334 8.322a.286.286 0 01-.277-.051 10.144 10.144 0 01-1.155-1.964 5.188 5.188 0 01.018-1.711c.003-.15-.017-.3-.034-.564l-.471.435v-.993c.11.029.221.025.273.078.402.376.773.783 1.11 1.218.235.352.392.751.46 1.168.118.696.146 1.407.197 2.113a.343.343 0 01-.121.271zm.241 7.531c-.61-.614-1.186-1.189-1.755-1.772a.345.345 0 01-.046-.217c-.003-.515-.009-1.028.004-1.542a1.45 1.45 0 01.125-.378c1.353 1.82 1.855 2.964 1.672 3.909zm-.268-3.485l-.177.041a6.087 6.087 0 01-1.382-4.69 10.28 10.28 0 011.387 2.17 9.74 9.74 0 01.172 2.479zm-2.514-13.772c.833.364.89.878.177 1.878l-.177-1.878zm.127 11.28c.046.094.078.193.096.295.007 1.126.053 2.255-.01 3.377a7.323 7.323 0 01-.747 3.093 5.814 5.814 0 01-.578.76c-.09-1.224-.15-2.358-.265-3.486a3.925 3.925 0 01.505-2.025c.295-.666.645-1.307 1-2.014zm-.96 18.989c.112.902.168 1.811.17 2.72-.033.432-.522.83-.854 1.314a9.722 9.722 0 00-.914-1.733 2.72 2.72 0 01-.276-2.929c.056-.158.07-.33.123-.489.048-.145.092-.371.192-.406.756-.267.766-1.099 1.234-1.576l.618-.631.117.078c-.17.465-.298.945-.383 1.433-.06.738-.069 1.48-.026 2.219zm3.877-11.114a14.112 14.112 0 01-.743 3.822 2.053 2.053 0 01-1.03 1.167c-.512.224-1.012.475-1.624.764a6.21 6.21 0 00.103-.932c-.04-.771-.121-1.54-.174-2.31a5.13 5.13 0 01.35-2.215c.397-1.038.704-2.109 1.074-3.239.267.307.538.613.803.926.271.355.56.696.865 1.022a1.087 1.087 0 01.376.995zm.244-4.198c-.084-.901-.195-1.801-.296-2.7l.224-.046c.702 1.156.512 2.514.829 3.856a1.324 1.324 0 01-.757-1.11zm.402 2.501c.056-.014.113-.026.17-.039l.3 1.037c-.664-.24-.369-.684-.47-.998zm.201 7.369c-.26 1.428-.526 2.856-.858 4.268-.198.842-.528 1.654-.795 2.481a.906.906 0 01-.847.654c-.338.059-.672.14-1 .242-.087-.906-.193-1.782-.252-2.66a5.521 5.521 0 01.94-3.174c.564-.962 1.228-1.867 1.783-2.834a6.425 6.425 0 00.753-2.768c.04-.541.142-1.074.305-1.591.085.172.235.341.242.514a22.668 22.668 0 01-.271 4.868zm.19 12.027a7.11 7.11 0 01-.649.905l-.956-1.725-.18.063c.051.311.089.625.157.931.056.253.156.495.221.746.133.507-.074.735-.64.701-.1-1.276-.198-2.555-.306-3.832a1.882 1.882 0 01.51-1.481 7.09 7.09 0 001.277-2.758c.02-.057.042-.112.068-.166.006-.013.025-.018.139-.095.091.658.159 1.279.267 1.893.097.836.267 1.662.506 2.468a2.787 2.787 0 01-.414 2.35zm-.256 6.698c-.488-.969-1.059-3.168-.417-3.896 1.192.866 1.426 3.052.417 3.896zm1.249-6.62a7.879 7.879 0 01-.31 3.5c-.271-.505-.533-.965-.763-1.441a.501.501 0 01.008-.409c.337-.556.702-1.093 1.065-1.65zm.697-22.465c-.128.721-.189 1.454-.284 2.182-.021.15-.061.299-.092.448l-.229.014a7.342 7.342 0 01-.233-1.033c-.079-.92-.122-1.844-.167-2.767-.011-.22.074-.288.313-.173.782.376.838.506.692 1.329zm.979 23.181a12.572 12.572 0 01-.86-1.756 3.7 3.7 0 01-.005-.986c-.028-.507-.085-1.011-.14-1.614a4.512 4.512 0 011.614 5.082 4.912 4.912 0 01-.609-.726zm.339 6.565c-.026-.014-.128-.036-.163-.098-.427-.719-.867-1.434-1.249-2.176-.1-.259-.13-.539-.088-.813.086-.989.202-1.975.32-3.101a5.837 5.837 0 011.194 4.569 9.412 9.412 0 00-.014 1.619zm-.335-16.462a3.543 3.543 0 011.217 2.284 3.396 3.396 0 01-1.217-2.284zm.853 2.965a1.009 1.009 0 01.426.845c-.032.676-.009 1.355-.009 2.044a5.72 5.72 0 01-1.99-1.452 3.228 3.228 0 01-.72-2.206 18.177 18.177 0 01-.383-3.808c.079-.693.225-1.377.342-2.066l.184.03c.03.205.037.414.023.621a6.572 6.572 0 00.782 4.494c.376.56.829 1.064 1.345 1.498zm-15.671-1.334l-1.266-2.136.156-.123c.12.099.233.206.34.32.28.328.53.683.826.994.292.307.27.574-.056.945zm-.918-3.646l.567-2.165a1.61 1.61 0 01.538 1.457 8.53 8.53 0 00.383 2.264c.017.14.018.281.004.422a6.28 6.28 0 01-1.492-1.978zm1.974 5.423c-.481-.55-.486-.738-.12-1.148l.12 1.148zm-.163-9.664a12.991 12.991 0 00-.488-3.231.635.635 0 01.01-.182l.124-.126c.553.454 1.1.915 1.662 1.357.184.122.377.229.578.321.078.043.188.067.23.133a3.62 3.62 0 01.626 2.709c-.026.232-.04.464-.044.697a2.584 2.584 0 01-.092.38c-.755-.45-1.481-.842-2.158-1.308a1.096 1.096 0 01-.448-.75zm14.921 35.086c-.286-.854-.614-1.693-.886-2.55a7.035 7.035 0 01.097-4.474c.145-.432.209-.89.317-1.335a.801.801 0 01.107-.189l.141.008c.051.466.055.937.012 1.404a2.96 2.96 0 00.879 3.027 1.067 1.067 0 01.367.894c.019 4.327.055 8.654.083 12.98a4.73 4.73 0 01-.067.568c-.037.001-.073.001-.109.003-.221-.933-.438-1.868-.666-2.799a868.163 868.163 0 00-1.181-4.755.47.47 0 01.223-.61 1.818 1.818 0 00.683-2.172zm2.037-4.055a2.47 2.47 0 01-1.235-1.597 1.374 1.374 0 01-.053-.408c.107-.738.23-1.473.34-2.159.374.252.712.554 1.005.897.21.406.355.843.43 1.294.084.323.087.671.196.984.127.254.284.493.466.711 0 .657.005 1.462-.003 2.266-.001.279.049.5.379.532.341.033.295-.237.391-.441.205-.377.435-.741.688-1.087a1.117 1.117 0 01-.31 1.498 1.095 1.095 0 00-.287.736c-.052 2.245-.071 4.493-.107 6.74a521.469 521.469 0 01-.096 4.675c-.019.809-.057 1.618-.091 2.428-.029.684-.056 1.368-.1 2.051-.03.157-.078.309-.146.453l-.093-.023c-.044-.932-.098-1.862-.128-2.793-.042-1.308-.052-2.617-.101-3.924-.043-1.146-.122-2.291-.184-3.437-.063-1.177-.099-2.355-.194-3.53-.128-1.58-.302-3.159-.452-4.738a.285.285 0 01.026-.179c.34-.483.027-.704-.341-.949zm17.568-22.717l.186.166a12.816 12.816 0 01-.875 1.66c-.443.618-1.042 1.123-1.495 1.734a7.649 7.649 0 01-2.419 1.928c.046-.357.085-.615.114-.875a4.253 4.253 0 01.739-2.374c.162-.215.397-.363.66-.417a3.98 3.98 0 00.926-.557c.719-.426 1.442-.843 2.164-1.265zm1.833-2.001a.894.894 0 01-.591.442 6.768 6.768 0 00-2.961 1.034c-.022.013-.059.001-.133.001.041-.33.08-.657.122-.984.032-.134.051-.271.055-.409-.1-1.175.745-1.798 1.451-2.504a.122.122 0 01.086-.028c.957.06 1.61-.736 2.493-.885.328-.056.649-.155 1.004-.242.014.099.063.202.033.268-.509 1.108-1.013 2.219-1.559 3.307zm.106 2.123a2.345 2.345 0 011.424-1.341 1.66 1.66 0 01-1.424 1.341zm1.305 3.171a7.269 7.269 0 00-1.99 2.678c.089-1.087.37-2.15.828-3.139.237-.564.546-1.1.754-1.675.353-.97 1.25-1.218 2.085-1.722-.297 1.477-.471 2.87-1.677 3.858zm2.643 7.299c.079.004.155.074.25.123-.8 1.027-1.529 2.037-2.339 2.976a3.011 3.011 0 01-2.568.996c.04-.166.074-.319.115-.471.152-.557.351-1.107.45-1.673.121-.693 1.19-1.856 1.794-1.807.795.064 1.531-.189 2.298-.144zm-5.023 2.608c-.201.591-.404 1.184-.66 1.751-.13.204-.306.374-.513.499-.412.313-.838.606-1.314.948a3.702 3.702 0 01-.044-.515 6.68 6.68 0 00-.53-2.646.963.963 0 01.047-.905c.324-.553.681-1.087 1.068-1.598.444-.553.961-1.048 1.535-1.664.096.438.168.88.216 1.325.035.611-.004 1.225.017 1.837.037.188.089.372.158.551a.83.83 0 01.02.417zm-.643-6.801a7.1 7.1 0 01-1.505 3.101c-.305.366-.567.765-.85 1.148-.096.129-.202.251-.302.377a5.662 5.662 0 00-.115-.049c.051-.527.137-1.05.257-1.566.445-1.491.85-3.003 1.44-4.437a22.945 22.945 0 011.829-3.283c.184-.296.598-.449.907-.668.04.044.081.086.122.129-.313.62-.593 1.255-.84 1.904a33.387 33.387 0 00-.943 3.344zm4.171.762c.091.161-.002.446-.053.666a4.57 4.57 0 01-2.124 2.925.16.16 0 01-.114.004c-.162-.926-.326-1.827-.472-2.731 0-.138.028-.274.082-.4a5.634 5.634 0 011.481-2.708c.402-.371.772-.774 1.164-1.155.109-.094.224-.18.345-.259l.195.092c-.173.803-.343 1.605-.52 2.407a1.482 1.482 0 00.016 1.159zm-7.161-15.417c.265.579-.16.964-.221 1.43-.333-.259-.277-.627.221-1.43zm-.212 5.17c.094.28.229.547.342.82.1.167.169.35.204.542-.01.338-.047.674-.112 1.006a2.272 2.272 0 01-.778 1.369c-.401.359-.749.777-1.155 1.205-.166-.65-.281-1.277-.488-1.872a2.48 2.48 0 01.365-2.118c.39-.706.783-1.409 1.245-2.241.148.511.247.905.377 1.289zm-12.374-18.169c.043-.198.12-.386.228-.557l.134.025.119.858c-.231-.151-.486-.245-.481-.326zm-.734 1.359c.53.815.227 1.653.086 2.486a6.86 6.86 0 01-.086-2.486zm-.086 9.409c.14-.61.21-1.237.326-1.854.04-.126.095-.247.165-.36.124.043.241.106.344.187.256.286.486.594.73.89.08.096.166.251.26.259.364.032.398.318.429.555a3.478 3.478 0 01-.339 2.101c-.286.552-.515 1.133-.783 1.736-.812-1.055-1.453-2.12-1.132-3.514zm-3.893-3.748c.031-.157.09-.306.175-.441.144.067.362.095.423.208.282.375.467.814.541 1.278a2.87 2.87 0 01-.116 1.382 8.406 8.406 0 00-.294.954 6.498 6.498 0 01-.199-.007c-.149-.741-.315-1.479-.444-2.224a6.71 6.71 0 01-.086-1.15zm.713 5.711c.367.445.67.939.902 1.468.111.39.13.8.055 1.199-.077.464-.18.923-.31 1.375a8.835 8.835 0 01-2.558-6.015c.126.05.243.117.349.2.531.583 1.077 1.154 1.562 1.773zM94.228 90.883l-1.131-2.496c1.227.829 1.607 1.677 1.131 2.496zm-.415 8.544a4.258 4.258 0 01.583-3.498c.167.315.334.61.483.914.348.714.728 1.417 1.015 2.156.14.474.238.96.293 1.451a6.276 6.276 0 01-.193.054c-.178-.424-.37-.843-.527-1.276-.179-.487-.314-.99-.488-1.48a3.98 3.98 0 00-.286-.54c-.056.028-.114.055-.17.084a8.13 8.13 0 00.598 2.857c.133.422.282.839.431 1.256a.377.377 0 01-.247.535c-.52.221-1.036.45-1.646.716.027-.256.072-.509.135-.759a4.595 4.595 0 00.019-2.47zm-8.38-.597l.164-.067c.838.727.788 1.815 1.108 2.752l-.127.048c-.172-.455-.332-.916-.52-1.363-.194-.463-.416-.914-.626-1.37zm.107 3.73c1.304 1.301.98 3.037 1.432 4.532a.654.654 0 01-.103.085c-.732-.566-1.49-1.127-1.46-2.19.023-.809.086-1.618.131-2.427zm-2.904 20.126a96.75 96.75 0 01-1.358-3.253 11.197 11.197 0 01-.317-1.132c.592.226 1.09.648 1.407 1.197.596 1.092 1.063 2.255 1.603 3.435a3.3 3.3 0 01-.868.113.71.71 0 01-.467-.36zm-2.397-.516c.045-.375.09-.749.137-1.122l.12-.02c.228.387.44.784.684 1.161.49.757.991 1.509 1.502 2.254a1.484 1.484 0 01.17 1.537 16.18 16.18 0 00-.53 1.893c-.053-.007-.135.007-.17-.027a6.53 6.53 0 01-2.187-3.463c-.022-.121-.052-.292.01-.367.463-.569.188-1.231.264-1.846zm18.28 36.25c.01.138.01.277.002.415l-.084.001a3.168 3.168 0 01-.412-.743 3.517 3.517 0 00-1.008-1.532 4.627 4.627 0 01-.611-1.509.127.127 0 01-.004-.092c.544-.932.338-2.036.748-3.168.352.519.67.95.948 1.404a4.63 4.63 0 01.736 2.899 1.522 1.522 0 01-.145.616 2.524 2.524 0 00-.17 1.709zm6.021 18.827a64.24 64.24 0 00-.355-3.449 73.108 73.108 0 00-.857-5.029c-.207-1.014-.555-2-.851-2.995-.177-.599-.379-1.192-.559-1.791a.755.755 0 01-.009-.341 4.751 4.751 0 00-.707-3.876c-.274-.386-.524-.792-.823-1.159-.107-.132-.324-.175-.618-.323l.106 1.774-.198.007c-.295-1.192-1.174-2.365.036-3.608.274.468.562.969.858 1.466a12.62 12.62 0 011.402 2.394c.62 1.93 1.09 3.911 1.559 5.886.365 1.531.692 3.076.929 4.632.209 1.37.297 2.761.39 4.145.052.766.093 1.533.126 2.3l-.429-.033zm1.51.116a218.57 218.57 0 00-.448-4.985 37.458 37.458 0 00-1.389-6.692c-.527-1.786-1.052-3.573-1.602-5.352a20.145 20.145 0 00-.775-2.09 3.969 3.969 0 00-.634-.897 4.434 4.434 0 01-.736-1.592l.177-.104c.309.422.6.86.935 1.262.162.146.345.266.542.359.058-.202.205-.427.158-.599-.21-.748-.476-1.48-.72-2.22-.033-.099-.108-.253-.069-.297.56-.624-.004-1.268.034-1.9.028-.466-.247-.948.287-1.327.155-.111.177-.408.273-.654.382.822.765 1.551 1.061 2.313a1.723 1.723 0 01-.456 2.292c-.284.226-.259.404-.11.734.24.594.429 1.206.565 1.832.185.725.335 1.459.493 2.191.408 1.899.814 3.797 1.218 5.696.249 1.182.513 2.362.718 3.552.175 1.015.276 2.042.405 3.064.213 1.647.311 3.306.292 4.967-.003.154 0 .308 0 .463-.074-.004-.145-.012-.219-.016zm10.721-20.522a.592.592 0 01-.089.348c-.305.686-.667 1.352-.92 2.056-.806 2.241-1.635 4.479-2.336 6.755-.54 1.75-.96 3.542-1.325 5.338-.36 1.771-.593 3.568-.864 5.357-.039.254-.068.509-.104.763-.185.004-.369.012-.554.014.12-.912.25-1.823.377-2.734.186-1.339.338-2.684.578-4.013.372-2.048.759-4.095 1.227-6.122.44-1.906.995-3.783 1.494-5.675.123-.466.223-.938.318-1.347-.234-.121-.422-.157-.481-.263a1.752 1.752 0 01.5-1.369c.102.53.564.972.241 1.56a.183.183 0 00.041.164c.084.095.229.267.275.245.183-.084.422-.196.488-.359.256-.635.447-1.296.678-1.94.064-.175.226-.48.27-.467.504.145.601-.28.758-.546a3.45 3.45 0 012.713-1.959c-.186.514-.34 1.04-.461 1.573a2.1 2.1 0 01-2.219 1.951c-.322.013-.767.107-.605.67zm14.202-25.211c.293-.168.596-.319.907-.45.269-.057.541-.096.814-.117.493-.098.978-.233 1.472-.32.328-.058.666-.061.999-.089l.049.152c-.119.1-.249.186-.387.256a6.588 6.588 0 00-3.042 2.573 11.403 11.403 0 01-1.467 1.584 1.344 1.344 0 01-.66.257c-.387.074-.782.1-1.227.152.264-.618.487-1.253.667-1.9a3.015 3.015 0 011.875-2.098zm3.331-3.784a4.835 4.835 0 011.659-1.898.793.793 0 01.761-.1c.399.062.803.082 1.207.059.298.021.593.083.889.128l.035.152c-.84.827-1.664 1.67-2.526 2.473a4.496 4.496 0 01-2.35.812l-.661.134c.084-.17.128-.272.183-.367.298-.447.566-.912.803-1.393zm2.756-8.869a20.07 20.07 0 01-2.187 2.677c-.086.101-.32.214-.372.175-.12-.091-.258-.293-.231-.415.066-.496.213-.978.433-1.427a30.777 30.777 0 012.016-2.946c.92-1.176 1.927-2.285 2.956-3.493.013.148.035.203.018.238-.865 1.737-1.657 3.518-2.633 5.191zm5.019-1.296a6.594 6.594 0 00-.04.795c.003.182-.037.363-.115.528a4.342 4.342 0 01-2.403 2.007c.031-.243.077-.469.082-.696.013-.499.019-.999.001-1.499a2.205 2.205 0 01.876-1.896c.576-.451 1.209-.831 1.821-1.237.041-.027.117-.003.288-.003-.178.688-.362 1.341-.51 2.001zm3.213-.864c.312-.123.633-.222.961-.295.101-.027.256-.049.318.006.539.47 1.103.134 1.666.092a2.391 2.391 0 011.85.637c-.104.091-.144.155-.197.168a17.036 17.036 0 00-3.822 1.946 3.046 3.046 0 01-2.166.55 6.835 6.835 0 00-1.8.112c.265-.337.495-.701.685-1.085a4.002 4.002 0 012.505-2.131zm2.659-4.023c-.01.341-.048.68-.116 1.013-.098.301-.26.576-.476.807a4.32 4.32 0 01-2.18 1.471 4.712 4.712 0 00-.979.482c-.126.061-.262.103-.516.201.108-.75.295-1.486.559-2.197a3.51 3.51 0 011.201-1.11c.825-.575 1.69-1.09 2.668-1.713-.065.421-.122.733-.161 1.046zm-.705 7.973a1.257 1.257 0 01-.701.029 1.266 1.266 0 01-.611-.347c2.111-1.027 4.055-2.406 6.616-1.783-.972.438-1.932.909-2.92 1.306-.776.312-1.589.53-2.384.795zm-2.913 1.628a4.597 4.597 0 011.641-.522c.77-.174 1.552-.29 2.33-.43l.046.047c-.583.409-1.154.838-1.753 1.22a17.34 17.34 0 01-4.259 2.198c-.365.11-.752.305-1.106.004 1.032-.851 2.022-1.747 3.101-2.517zm-6.078 1.431c.198-.273.366-.565.504-.872a2.93 2.93 0 01.769-1.039c.33-.286.719-.494 1.14-.61.227-.09.461-.163.698-.219.146-.039.359-.119.443-.053.549.424 1.185.185 1.876.295-.365.323-.686.596-.993.882-.592.551-1.15 1.141-1.77 1.658-.67.56-1.362.967-3.067.567.156-.237.284-.42.4-.609zm-.284-1.421a.686.686 0 01.065.373.686.686 0 01-.145.349c-.304.498-.649.969-1.03 1.409a4.742 4.742 0 01-.955.624c-.278.18-.553.367-.853.566-.05-.584-.051-1.142-.153-1.679a1.982 1.982 0 01.894-2.117 21.558 21.558 0 001.954-1.917c.13-.13.266-.255.399-.382l.143.019c.018.247.016.495-.007.742-.077.451-.209.892-.292 1.343a1.193 1.193 0 00-.02.67zm19.837-14.333c.187-1.735 1.316-2.586 2.791-3.114.353-.127.704-.324 1.096-.061.081.056.252-.025.382-.044.832-.122 1.663-.252 2.496-.361.195.021.386.069.568.142-1.073 1.007-1.986 1.978-3.022 2.792a2.507 2.507 0 01-2.084.473 6.275 6.275 0 00-1.703.094c-.181.014-.359.053-.524.079zm-3.948-1.901a13.78 13.78 0 013.432-4.028c.047.045.093.089.138.135l-3.476 3.971-.094-.078zm2.464-.798c.16-.171.306-.353.439-.546.244.47.307 1.014.177 1.528a5.191 5.191 0 01-.18.66c-.021.084-.059.205-.02.257.519.683-.117 1.055-.426 1.476-.286.304-.59.59-.91.857-.107.16-.188.336-.239.522.197.018.397-.002.586-.059a9.544 9.544 0 001.012-.713 3.342 3.342 0 012.388-.615c.341.032.654.363 1.06.607-.646.403-1.247.792-1.862 1.159-.431.265-.877.507-1.335.723a2.933 2.933 0 01-2.036.109 5.214 5.214 0 00-2.229.148c-.115.018-.231.026-.375.041.278-.541.51-1.104.695-1.684.448-1.968 1.843-3.218 3.255-4.47zm-6.524 7.691a.672.672 0 00.636.056 9.082 9.082 0 013.069-1.017c.057-.008.152-.003.174.031.328.516.914.43 1.387.606l.44.158c-1.028.713-1.932 1.366-2.862 1.981a4.183 4.183 0 01-3.056.528 13.843 13.843 0 00-1.932-.016c.082-.139.175-.271.279-.395a5.334 5.334 0 001.637-3.605.678.678 0 01.182-.453c.606-.5 1.236-.973 1.858-1.455l.135.12c-.095.315-.19.63-.288.945-.031.101-.115.206-.101.299.122.847-.516 1.142-1.07 1.499-.08.047-.163.087-.248.122-.28.123-.398.388-.24.596zm-19.776 15.904a2.605 2.605 0 01.845-2.253c.514-.512 1.073-.981 1.629-1.448.331-.277.696-.516 1.046-.772.024.053.04.109.045.167a6.81 6.81 0 01-.279 2.608c-.024.071-.097.167-.073.208.409.72-.203 1.141-.5 1.622a6.34 6.34 0 01-2.875 2.353c.062-.696.124-1.351.176-2.009a2.298 2.298 0 00-.014-.476zm7.249-23.884c.382-.035.763-.09 1.145-.138l.022.117c-.463.55-.935 1.092-1.387 1.652-.289.358-.561.731-.813 1.116a.877.877 0 01-.934.444c-.732 0-1.462.059-2.185.176.024-.132.058-.262.101-.388.12-.211.225-.431.312-.657a3.73 3.73 0 011.816-2.062c.083-.058.229-.127.295-.093.584.3 1.086-.117 1.628-.167zm1.405-10.216c-.441.786-.851 1.588-1.278 2.381-.055.103-.129.195-.205.309-.648-.606-.382-1.276-.178-1.848a21.272 21.272 0 012.388-4.592.918.918 0 01.158-.138 7.842 7.842 0 01-.885 3.888zm5.26 9.061c-.481.425-.953.862-1.445 1.273-.839.702-1.671 1.413-2.542 2.072-.645.491-1.326.933-2.038 1.322a1.775 1.775 0 01-1.026.008c1.607-2.699 4.223-3.843 7.051-4.675zm-4.187-.371a2.004 2.004 0 01-.447.078c-.768.007-1.536.003-2.328.003a3.516 3.516 0 012.143-2.308 5.743 5.743 0 011.611-.136 9.865 9.865 0 011.215-.069c-.585.963-.924 2.116-2.194 2.432zm3.636-7.198c.164-.098.424-.035.639-.047.279-.015.558-.038.838-.046.308-.008.617-.001 1.027-.001-.435.54-.778.988-1.142 1.416-.47.554-.951 1.1-1.442 1.636a.791.791 0 01-.418.265c-.637.082-1.28.125-2.006.19.291-.587.58-1.103.809-1.646a3.831 3.831 0 011.695-1.767zm12.633-5.96l.109.196a11.357 11.357 0 01-3.818 1.52l-.072-.177 3.781-1.538zm-5.291-2.26c.131-.318.298-.684.437-1.062.13-.308.227-.63.289-.958a2.83 2.83 0 011.89-2.197c.842-.38 1.739-.641 2.778-1.015a8.82 8.82 0 01-.377 1.032c-.252.489-.555.951-.823 1.433a1.019 1.019 0 00-.179.502 1.098 1.098 0 01-.389.896c-.38.387-.782.752-1.204 1.093a1.473 1.473 0 01-.76.264c-.551.038-1.107.011-1.662.011zm-2.276 1.957c.259-.151.509-.322.781-.446.449-.214.912-.4 1.384-.556.138-.042.331.123.504.171.256.092.521.151.791.179a2.86 2.86 0 011.601.582c-.461.278-.837.535-1.24.74a9.102 9.102 0 01-2.923 1.183c-.295.039-.608-.049-.9-.002-.646.101-1.284.253-1.989.396.023-.109.054-.216.092-.32.381-.793.57-1.664.552-2.543a2.547 2.547 0 01.786-1.853 18.9 18.9 0 011.526-1.439c.227-.204.472-.388.761-.623 0 .688.516 1.257.073 1.976-.301.6-.74 1.118-1.281 1.514-.506.318-.582.45-.518 1.04zm-5.982 2.824a5.026 5.026 0 01.978-1.69c.556-.672 1.222-1.253 1.846-1.87a3.74 3.74 0 01.411-.291c.041.408.076.705.1 1.003.024.315-.084.653.233.908.059.047.031.274-.024.383-.41.8-.852 1.584-1.247 2.39-.101.206-.177.59-.072.693.254.247.494.004.696-.21.241-.277.504-.532.788-.764.169-.074.354-.104.538-.085.355-.02.712-.023 1.068-.039.147-.006.292-.03.46-.048-.007.116.013.202-.02.234-.41.447-.848.867-1.312 1.257a1.344 1.344 0 01-.804.106 4.853 4.853 0 00-3.291.973c-.166.127-.343.241-.545.384.055-.558.124-1.055.146-1.554a7.57 7.57 0 01.051-1.78zm-1.379 4.267a.664.664 0 01-.042.536c-.365.737-.758 1.458-1.144 2.183a.382.382 0 01-.131.133c-.646.398-1.295.792-2.045 1.249a13.71 13.71 0 01.037-2.554 6.97 6.97 0 01.898-1.893c.55-.986 1.137-1.95 1.71-2.924.045-.077.094-.152.172-.275a2.601 2.601 0 01.538 2.078c-.05.482-.35.965.007 1.468zm-7.905-14.9a21.6 21.6 0 01-.036 2.387c-.025.338.043.58.355.626.306.044.413-.201.476-.495.098-.367.22-.727.365-1.077.016-.042.038-.098.073-.114.547-.246 1.098-.486 1.726-.762-.164.557-.319 1.057-.459 1.56-.127.454-.497.545-.881.7a4.543 4.543 0 00-2.352 2.128 4.74 4.74 0 01-.258.382c-.409-.728-.828-1.43-1.203-2.157a2.98 2.98 0 01-.201-2.202c.26-.938.588-1.857.936-2.94.241.347.392.594.572.817.161.199.368.36.528.558.144.181.351.387.359.589zm8.262-5.293a8.322 8.322 0 01-2.745 3.217 16.814 16.814 0 012.745-3.217zm-6.272-2.973a4.191 4.191 0 011.251-2.105c.367-.37.716-.757 1.156-1.225.09.555.175 1.015.235 1.477-.015.643.06 1.284.224 1.906.175.428-.168 1.078-.31 1.621-.269 1.034-1.237 1.264-1.95 1.723-.226-.822-.466-1.578-.632-2.35a2.659 2.659 0 01.026-1.047zm-.636 6.127c.122-.1.287-.175.358-.303.184-.331.3-.702.495-1.025a3.27 3.27 0 01.543-.578c.053-.051.139-.116.199-.106.967.165 1.797-.61 2.861-.38-.985 1.48-1.734 3.07-3.461 3.838a8.406 8.406 0 00-1.46 1.053c-.189-.63-.362-1.287-.587-1.924-.2-.375-.377-.762-.53-1.158a3.055 3.055 0 01-.002-1.36c.233-.893.574-1.76.866-2.63.295.185.567.404.811.652.163.236.254.514.263.8a2.666 2.666 0 01-.413 2.04 1.218 1.218 0 00-.126.71c0 .124.119.248.183.37zm-21.75 15.665c.271.31.444.695.495 1.104.101.576.061 1.175.124 1.76.058.195.15.38.27.544a2.62 2.62 0 00.457-.555c.125-.288.111-.64.252-.916.09-.18.345-.279.534-.406.188-.125.385-.239.575-.362.174-.112.342-.23.513-.346l.155.09a11.279 11.279 0 01-.456 1.762c-.112.26-.502.432-.799.578a4.403 4.403 0 00-2.021 2.118c-.088.179-.183.355-.291.564-.273-.449-.531-.886-.802-1.314-.155-.246-.332-.477-.495-.718a3.853 3.853 0 01-.308-3c.111-.646.288-1.28.441-1.917.013-.054.065-.097.13-.192.213.19.408.4.583.624.188.222.404.417.643.582zm8.096-5.623l.132.102a10.635 10.635 0 01-2.446 3.494l-.139-.098 2.453-3.498zm-5.965-3.675c.403-.614.89-1.174 1.343-1.755.07-.061.145-.116.225-.162.137.478.287.9.373 1.335.074.377.066.768.109 1.15.016.13.04.307.126.372a.69.69 0 01.237.756 6.798 6.798 0 01-.426 1.678 3.795 3.795 0 01-.962.997c-.2.156-.412.296-.634.418a19.37 19.37 0 01-.94-2.513 2.967 2.967 0 01.042-1.194c.094-.391.266-.76.507-1.082zm-.536 4.44a3.2 3.2 0 01-.131 1.873c-.134.24-.216.506-.243.78-.013.139.146.294.227.442.128-.092.332-.16.373-.28.128-.62.452-1.182.925-1.601.184-.094.383-.156.588-.183.193-.036.383-.086.569-.148a2.636 2.636 0 011.823-.454c-.146.275-.287.531-.42.79a8.651 8.651 0 01-1.818 2.7c-.505.445-1.082.808-1.602 1.237a3.98 3.98 0 00-.506.63l-.138-.08a7.434 7.434 0 00-.304-.99 10.113 10.113 0 00-.804-1.488 2.65 2.65 0 01-.319-2.09c.146-.8.393-1.58.622-2.464.448.502 1.131.611 1.158 1.325zm-6.043 1.462a5.575 5.575 0 01-.013-1.133l.206.002c.459 2.386.621 4.82.482 7.245-.729.015-1.069-.588-1.161-1.192a5.919 5.919 0 01.307-2.036c.254-.94.315-1.922.179-2.886zm-2.144 7.79l.177.009-.13 2.445-.133-.006a3.693 3.693 0 01.086-2.448zm.323 11.015a.573.573 0 01-.096.433c-.213.316-.461.609-.752.985-.165-.346-.307-.637-.443-.931a3.201 3.201 0 00-.352-.743 2.565 2.565 0 01-.308-2.291.825.825 0 01.492-.654c.219-.111.339-.419.501-.641.067-.091.13-.186.194-.28.104 1.398.36 2.78.764 4.122zm-1.138-7.011a1.833 1.833 0 01-.717 2.071c.048-.784.145-1.53.124-2.274-.023-.88.212-1.814-.43-2.692-.071.149-.157.245-.157.342-.013.821.01 1.642-.018 2.463a7.975 7.975 0 01-.235 1.581c-.542-.705-1.25-1.31-.902-2.348.124-.441.214-.891.267-1.346a.925.925 0 01.472-.807c.225-.122.292-.551.407-.851a1.792 1.792 0 01.918-1.156c-.088.494-.193.984-.259 1.481-.027 1.2.152 2.396.53 3.536zm-4.454-20.843a11.35 11.35 0 01.067 3.272.505.505 0 01-.045.174c-.371.61-.746 1.217-1.115 1.816-.346-.475-.742-.948-1.058-1.47a3.755 3.755 0 01-.28-2.29.97.97 0 01.063-.358c.135-.269.305-.52.444-.788.188-.324.35-.662.485-1.011a2.758 2.758 0 011.467-1.557c0 .214.003.354-.001.493a13.89 13.89 0 00-.027 1.72zm-5.977-5.457c.263.138.534.258.813.358a1.373 1.373 0 01.628 1.099c.01.156-.058.366.02.457.141.154.327.261.532.306.071.014.28-.223.28-.346.003-.557-.076-1.115-.068-1.672.007-.352.07-.7.184-1.032.067-.197.277-.344.416-.518.237-.3.468-.606.703-.908.082-.105.167-.207.34-.42.29.957.588 1.775.772 2.618.097.57.13 1.15.099 1.727a1.6 1.6 0 01-.218.739c-.41.727-.855 1.435-1.29 2.154-.225-.357-.455-.747-.706-1.121a3.386 3.386 0 00-1.634-1.296 1.628 1.628 0 01-1.221-1.287c-.055-.37-.174-.732-.29-1.204.26.142.447.252.64.346zm-2.041-10.76c.118-.5.164-1.019.262-1.66.852 1.03 1.811 1.8 2.244 2.957.233.519.252 1.109.053 1.642a20.176 20.176 0 00-.61 2.147 2.947 2.947 0 01-2.129-2.36c-.037-.3-.123-.595-.177-.896-.014-.073-.023-.198.016-.223.644-.424.215-1.075.34-1.606zm-1.005 7.744l-.117.097a9.388 9.388 0 01-2.644-3.21l.15-.121 2.611 3.234zm-.267-2.41a2.863 2.863 0 011.827.376c.14.06.31.177.425.14.779-.255 1.032.377 1.374.812.15.265.282.54.392.825.063.11.212.17.322.253.076-.13.227-.268.213-.387a1.97 1.97 0 00-.231-.827 2.282 2.282 0 01-.229-1.86c.08-.343.11-.674.532-.822.166-.06.257-.328.4-.524.054.041.149.074.164.129.3 1.055.632 2.105.857 3.177a2.15 2.15 0 01-.26 1.092c-.345.87-.728 1.726-1.068 2.523a10.16 10.16 0 01-4.718-4.908zM86.99 89.94c.212-.73.323-1.489.486-2.233.053-.152.119-.3.195-.442.644 1.155 1.647 1.942 1.893 3.194.167.57.13 1.18-.104 1.725a15.329 15.329 0 00-.672 1.84c-.101.292-.21.454-.498.152a1.658 1.658 0 00-.472-.366c-.876-.406-.922-1.234-1.112-2.023-.08-.63.019-1.27.283-1.847zm-.036 4.786c.325.063.643.158.95.284.308.157.573.386.774.668.158.343.293.696.404 1.058.077.165.262.28.399.419.082-.156.244-.319.23-.464a4.1 4.1 0 00-.241-.972 3.59 3.59 0 01.261-2.323.28.28 0 01.11-.145c.282-.18.568-.353.922-.57.037.118.095.269.129.424.303.97.446 1.984.423 3a2.815 2.815 0 01-.274.999c-.493.938-1.033 1.852-1.56 2.785a4.07 4.07 0 00-.35-.365c-.553-.47-1.13-.91-1.666-1.396a8.678 8.678 0 01-1.871-2.99 5.24 5.24 0 01-.246-.543c-.071-.216-.047-.388.257-.293.45.142.898.287 1.349.424zm-9.895-9.86l.189-.024c.43 1.33.586 2.736.456 4.128-.047.007-.094.012-.143.018l-.502-4.123zm-3.18 9.577c.09.018.185.096.26.076 1.108-.296 1.53.637 2.14 1.208.218.237.399.505.539.794.147.257.325.45.609.247.277-.2.187-.47.046-.738-.188-.36-.351-.733-.509-1.107-.031-.077-.028-.233.02-.267.436-.308.357-.823.521-1.238.048-.12.087-.244.17-.485.319.684.622 1.252.839 1.85.06.254.024.523-.104.751a4.837 4.837 0 00-.333 3.983 1.403 1.403 0 01-.346-.105 5.339 5.339 0 00-1.63-.68 3.208 3.208 0 01-2.065-1.788c-.426-.863-.838-1.733-1.317-2.726.47.09.815.155 1.16.225zm-3.644-8.067a27.502 27.502 0 01-.465-3.147c.526.132 1.008.4 1.396.779.202.171.392.358.568.557a.938.938 0 00.742.405c.16-.007.371.211.487.378.245.35.433.738.658 1.102a2.914 2.914 0 01-.024 2.559c-.02.065-.035.13-.055.197a18.53 18.53 0 01-2.329-1.363 2.936 2.936 0 01-.978-1.467zm1.45 2.874a.801.801 0 01.873.216c.539.368.941.904 1.145 1.524.15.378.36.73.621 1.041l.214-.045a4.63 4.63 0 00-.004-.589c-.06-.453-.157-.903-.208-1.357a.845.845 0 01.406-.986c.182-.1.214-.454.344-.675.257-.441.536-.87.806-1.306l.164.05c.145.603.305 1.201.43 1.807.14.533.226 1.08.257 1.63a10.465 10.465 0 01-.242 1.672c-.094.57-.194 1.141-.292 1.712-.026.148-.055.295-.09.483-.478-.32-.902-.649-1.366-.905-.384-.211-.842-.293-1.221-.512a3.217 3.217 0 01-1.124-.865c-.541-.829-.96-1.736-1.42-2.617a.894.894 0 01-.033-.313c.243.054.493.066.74.035zm5.263 27.231a2.23 2.23 0 01.102-.509c.78.963 1.965 1.607 2.21 2.93.041.43.017.864-.07 1.287-.07.559-.174 1.116-.269 1.672-.02.081-.047.161-.08.237-1.203-.645-1.628-1.807-2.069-2.957a.295.295 0 01-.002-.23c.493-.779.035-1.626.178-2.43zm-2.045 5.256c-.056-.083-.09-.181-.196-.396.373.093.629.162.888.22.193.044.416.155.58.1.713-.243 1.153.248 1.65.571.258.196.505.406.74.631.332.297.538.711.573 1.155.151.676.35 1.34.596 1.987a3.297 3.297 0 01-3.151-1.744c-.526-.863-1.12-1.683-1.68-2.524zm-2.303-.213c.69.312 1.288.8 1.733 1.414.632.888 1.333 1.727 2.002 2.59a.985.985 0 01.07.213 2.017 2.017 0 01-.686-.136 23.62 23.62 0 01-2.358-1.676c-.828-.713-1.57-1.527-2.332-2.313-.362-.374-.685-.789-1.058-1.223.926.396 1.79.735 2.629 1.131zm-1.834-3.123c.651.481 1.245 1.04 1.894 1.591a1.488 1.488 0 01-1.866-.204c-1.433-.996-2.82-2.058-4.224-3.096a1.407 1.407 0 01-.151-.186 5.061 5.061 0 012.347.62 16.71 16.71 0 012 1.275zm2.055-2.537c.045-.031.168.041.251.076a7.623 7.623 0 012.493 1.966c.117.143.202.309.25.488.22.665.424 1.334.649 2.047-.631-.168-1.223-.365-1.83-.477a4.331 4.331 0 01-2.07-1.221c-.9-.803-1.794-1.616-2.702-2.413a7.399 7.399 0 00-.73-.498 2.551 2.551 0 012.399-.105c.414.151.815.464 1.29.137zm-.656-4.494c.012-.186.04-.369.084-.55l.15-.067 2.911 3.312a1.445 1.445 0 01.332 1.074c-.023.533-.006 1.068-.006 1.603l-.21.036c-.746-.925-2.004-1.272-2.599-2.372-.168-.309-.36-.605-.53-.913a.99.99 0 01-.099-.988c.137-.313-.027-.752-.033-1.135zm-6.884-1.341c.46.043.923-.028 1.35-.206.169-.098.56.065.787.206.689.428 1.348.901 2.015 1.361.089.061.156.197.245.206.22.024.564.081.644-.03.151-.209.056-.473-.172-.692-.35-.359-.68-.736-.991-1.129-.055-.065-.117-.201-.088-.249.31-.495.05-.978-.007-1.465-.017-.135-.003-.275-.003-.551.166.213.35.412.547.596a3.028 3.028 0 011.255 2.978 4.593 4.593 0 00.86 2.907c.085.141.148.296.256.515-.255-.063-.442-.118-.633-.154a9.043 9.043 0 00-1.395-.245c-.854 0-1.68-.309-2.324-.869-1.02-.932-1.941-1.971-2.983-3.047.21-.056.422-.1.637-.132zm-.513-11.186c.034-.02.07-.038.103-.058a12.96 12.96 0 012.748 4.902 5.939 5.939 0 01-.109.061l-2.742-4.905zm-3.997 5.176a3.277 3.277 0 01-1.666-.999 10.29 10.29 0 01-1.817-2.645c-.155-.258-.317-.512-.474-.768l.078-.15c.566.17 1.14.317 1.695.516.431.154.839.374 1.259.563.083.036.184.108.254.088.728-.22 1.123.362 1.589.695.43.327.814.71 1.141 1.14.163.254.27.54.316.839.112.47.185.948.29 1.502-.5-.188-.926-.377-1.37-.508a8.937 8.937 0 00-1.295-.273zm.908 1.023a.43.43 0 01.285-.011 4.388 4.388 0 012.549 1.683c.273.322.592.602.945.834.34-.3.215-.483.02-.687a4.273 4.273 0 01-1.176-2.043 1.3 1.3 0 01.068-.478c.053-.276.214-.579.147-.82-.177-.645.15-1.156.256-1.724l.152-.049c.276.39.584.762.824 1.172a57.27 57.27 0 011.607 2.886c.152.366.248.753.285 1.148.136.823.244 1.651.367 2.504a2.978 2.978 0 01-.343-.128 10.017 10.017 0 00-2.877-.739 3.492 3.492 0 01-1.551-.714c-.825-.671-1.559-1.454-2.324-2.197a.62.62 0 01-.111-.209c.318-.157.594-.303.877-.428zm37.909 71.203c-.02-.37-.06-.739-.1-1.108-.12-1.164-.242-2.329-.368-3.493-.097-.889-.183-1.779-.306-2.664-.127-.912-.3-1.816-.444-2.725a706.627 706.627 0 01-.65-4.183c-.053-.332-.094-.666-.14-.998.587.577.935 1.355.975 2.178.165 1.265.325 2.531.477 3.798.13 1.085.25 2.171.369 3.257.074.674.139 1.35.201 2.025.035.385.046.773.088 1.156.12 1.087.252 2.173.37 3.26-.15-.021-.3-.04-.447-.063l-.025-.44zm10.411-136.918a70.671 70.671 0 1070.672 70.671 70.755 70.755 0 00-70.672-70.671z" fill="#0B0D0E"/><path fill-rule="evenodd" clip-rule="evenodd" d="M110 216.815A106.815 106.815 0 11216.815 110 106.936 106.936 0 01110 216.815zM110 0a110 110 0 10110 110A110.125 110.125 0 00110 0zm39.386 185.273l2.887 3.618-3.022 1.542-1.234-4.461c-.305-1.183-.769-2.673-1.194-3.974l.07-.037.026.036h.001c.786 1.076 1.661 2.275 2.466 3.276zm1.745 12.056l-1.394-5.301 3.542-1.805 3.475 4.24 1.794-.915-11.663-14.112-2.008 1.025 4.483 17.772 1.771-.904zm-84.291-.871c.765.442 1.62.705 2.502.769l.48-1.664a4.781 4.781 0 01-1.817-.53c-1.95-1.021-2.901-3.551-.37-8.393 2.532-4.84 5.388-5.44 7.08-4.557a3.8 3.8 0 011.403 1.154l1.198-1.32a4.32 4.32 0 00-1.742-1.418c-2.514-1.315-6.66-.939-9.929 5.311-2.813 5.382-1.883 9.038 1.195 10.648zm16.05-4.564l2.187-7.348-1.958-.584-5.102 17.137 1.958.584 2.384-8.01 4.806 1.432-2.385 8.009 1.958.584 5.103-17.139-1.958-.582-2.188 7.347-4.806-1.43zm20.808 7.304l-.528-4.602c-.153-1.291-.259-2.792-.353-4.133l-.08-.006c-.33 1.33-.73 2.837-1.1 4.005l-1.322 4.437 3.383.299zm-3.82 1.313l-1.634 5.236-1.98-.175 5.641-17.452 2.246.198 2.391 18.162-2.008-.177-.692-5.442-3.963-.35zm14.508-11.969l1.973 17.764 1.82-.203-.683-6.14c-.422-3.796-.726-6.056-1.149-8.41l.053-.006a57.408 57.408 0 002.805 5.798l4.324 8.164 1.896-.211-1.973-17.763-1.819.201.707 6.353a134.55 134.55 0 001.144 8.144l-.053.006c-.722-1.635-1.724-3.57-2.604-5.266v-.001l-.211-.406-.139-.27-4.193-7.964-1.898.21zm18.649-1.498l-3.116.966-.54-1.748 8.182-2.537.541 1.748-3.117.967 4.754 15.325-1.95.605-4.754-15.326zM103.398 31.092l-.56-17.865 1.909-.06 3.549 8.272.309.734.003.006c.739 1.753 1.578 3.744 2.163 5.42l.053-.003a135.267 135.267 0 01-.497-8.208l-.199-6.39 1.828-.057.56 17.866-1.909.06-3.661-8.483a57.077 57.077 0 01-2.337-6.002l-.053.002c.234 2.38.357 4.658.477 8.475l.194 6.176-1.829.057zm-13.61-9.371l1.955 4.196-3.302.789-.15-4.628c-.02-1.221-.12-2.78-.226-4.145l.077-.019.027.066c.509 1.224 1.074 2.586 1.618 3.74zm-1.14 12.134l-.109-5.483 3.87-.924 2.378 4.942 1.961-.47-8.02-16.463-2.193.524.179 18.336 1.934-.462zM73.405 20.272l-1.883.79 6.921 16.491 1.884-.79-6.922-16.49zM54.122 30.695l9.592 15.088 1.544-.982-3.316-5.217c-2.049-3.222-3.317-5.12-4.732-7.049l.044-.028a57.252 57.252 0 005.072 3.973l7.478 5.433 1.612-1.025-9.593-15.09-1.544.983 3.43 5.396a135.464 135.464 0 004.613 6.812l-.045.027c-1.354-1.14-3.087-2.421-4.612-3.55l-.658-.487-7.274-5.31-1.611 1.026zm-8.448 6.802l-1.516 1.37 11.987 13.267 1.516-1.37-11.987-13.267zm-6.19 15.585l4.12 2.115-2.125 2.649-2.96-3.563c-.764-.953-1.798-2.124-2.72-3.136l.049-.061c1.168.664 2.476 1.407 3.636 1.996zm6.546 10.283L42.58 59.1l2.49-3.105 4.91 2.444 1.262-1.574-16.44-8.08-1.41 1.757 11.394 14.374 1.244-1.552zm-15.764 8.03l.402-.777c.89-1.721.216-3.535-1.694-4.522-1.838-.952-3.36-.783-4.384 1.137-.178.32-.314.661-.404 1.016l6.08 3.145zm-8.256-2.002a11.28 11.28 0 011.034-2.751 5.511 5.511 0 012.985-2.997 4.82 4.82 0 013.686.503 4.725 4.725 0 012.781 4.667l.048.024c.964-.995 2.412-1.023 4.657-.28 1.453.527 2.954.914 4.48 1.155l-.95 1.838a23.186 23.186 0 01-4.352-1.175c-2.374-.781-3.529-.513-4.334 1.042l-.366.708 6.905 3.572-.926 1.792-15.648-8.098zm-5.923 15.48l-.569 1.935 17.16 5.035.568-1.934-6.619-1.942-1.37-1.454 9.305-1.085.62-2.113-11.09 1.419-6.1-6.353-.635 2.164 5.144 4.993.3.28c.472.436.958.887 1.448 1.394l-.015.051-8.147-2.39zm8.645 20.829L12.79 104.66l-.178 2.034 11.862 1.034c4.412.385 6.309-1.206 6.54-3.875.232-2.642-1.373-4.698-5.997-5.102L13.393 97.74l-.178 2.034 11.942 1.041c3.119.272 4.195 1.352 4.064 2.856-.115 1.321-1.292 2.31-4.489 2.032zm109.872-80.416c.25.116.506.216.768.3 1.897.602 3.58-.23 4.35-2.657.553-1.745.342-3.537-1.833-4.226a4.196 4.196 0 00-1.127-.22l-2.158 6.803zm.677-8.803c.991.062 1.969.25 2.912.561a5.579 5.579 0 013.4 2.443 5.139 5.139 0 01.116 3.934 5.685 5.685 0 01-2.144 3.16 5.204 5.204 0 01-4.622.622h-.001a9.676 9.676 0 01-.851-.297l-2.214 6.98-1.922-.61 5.326-16.793zm15.051 14.775l.769.42c1.701.925 3.528.288 4.556-1.6.989-1.817.852-3.34-1.047-4.404a4.185 4.185 0 00-1.006-.427l-3.272 6.011zm2.173-8.21c.954.244 1.871.61 2.729 1.092a5.506 5.506 0 012.932 3.046 4.815 4.815 0 01-.578 3.672 4.724 4.724 0 01-4.724 2.684l-.025.048c.975.984.972 2.43.182 4.66a24.342 24.342 0 00-1.247 4.456l-1.818-.99c.281-1.48.705-2.928 1.266-4.325.831-2.357.586-3.518-.951-4.354l-.7-.38-3.716 6.826-1.771-.964 8.421-15.47zm8.989 24.96c-1.75-1.464.051-4.73 2.418-7.557 2.333-2.786 5.266-5.172 6.995-3.726 1.768 1.481-.301 4.903-2.446 7.466-2.248 2.684-5.219 5.282-6.967 3.817zm-1.281 1.282c2.217 1.854 5.618 1.347 9.925-3.798 3.662-4.372 4.387-8.088 2.048-10.047-2.378-1.992-6.086-.91-9.883 3.623-3.865 4.617-4.367 8.314-2.09 10.222zm11.422 8.73c.126.224.272.436.436.635 1.404 1.763 4.047 2.443 8.8-1.34 3.53-2.809 4.603-5.423 2.818-7.666a3.74 3.74 0 00-.677-.68l-11.377 9.05zm11.242-11.522a9.504 9.504 0 011.971 1.925 5.973 5.973 0 011.551 4.122c-.076 1.823-1.238 4.07-4.166 6.399-3.196 2.543-5.568 3.14-7.254 3.025a6.34 6.34 0 01-4.568-2.673 11.167 11.167 0 01-1.257-1.88l13.723-10.917zm1.859 23.238l10.706-5.404-.92-1.824-10.636 5.368c-3.955 1.997-4.73 4.35-3.522 6.742 1.196 2.37 3.644 3.273 7.789 1.181l10.422-5.261-.92-1.824-10.708 5.405c-2.794 1.41-4.28 1.06-4.961-.29-.597-1.185-.116-2.645 2.75-4.093zm2.928 23.456a5.822 5.822 0 01-1.151-2.351c-.935-3.347 1.097-6.529 6.947-8.162 6.798-1.897 9.91.87 10.671 3.604.25.72.305 1.494.158 2.242l-1.781.028a3.77 3.77 0 00-.12-1.81c-.514-1.84-2.908-3.513-8.171-2.044-5.263 1.468-6.459 3.895-5.867 6.015.169.615.461 1.19.856 1.69l-1.542.788zm16.681 4.198l.3 3.249-15.978 1.473.188 2.034 15.977-1.473.299 3.248 1.823-.167-.787-8.531-1.822.167zm-15.621 58.874a3.13 3.13 0 01-1.935 2.897 3.136 3.136 0 01-2.941-5.503 3.127 3.127 0 012.941-.29 3.137 3.137 0 011.935 2.896zm-151.258 0a3.132 3.132 0 01-3.746 3.075 3.13 3.13 0 01-2.463-2.463 3.134 3.134 0 116.21-.612z" fill="#0B0D0E"/></svg>