<svg width="70" height="49" fill="none" xmlns="http://www.w3.org/2000/svg"><g clip-path="url(#clip0)"><path d="M68.455 7.677a8.799 8.799 0 00-6.195-6.195C56.828 0 34.965 0 34.965 0S13.101.045 7.67 1.526a8.8 8.8 0 00-6.195 6.196c-1.643 9.652-2.28 24.36.045 33.625a8.8 8.8 0 006.195 6.196c5.432 1.481 27.296 1.481 27.296 1.481s21.863 0 27.295-1.481a8.8 8.8 0 006.195-6.196c1.733-9.665 2.267-24.364-.045-33.67z" fill="red"/><path d="M28.007 35.017l18.137-10.505-18.137-10.505v21.01z" fill="#fff"/></g><defs><clipPath id="clip0"><path fill="#fff" d="M0 0h70v49H0z"/></clipPath></defs></svg>