<svg width="100" height="100" viewBox="0 0 100 100" fill="none" xmlns="http://www.w3.org/2000/svg">
<path fill-rule="evenodd" clip-rule="evenodd" d="M11.4643 75.2008C11.5741 75.2415 11.6836 75.2822 11.7931 75.3198C11.805 75.302 11.8175 75.2843 11.8301 75.2665C11.8678 75.2133 11.9055 75.1601 11.9232 75.1069C11.866 75.0578 11.813 74.9989 11.7603 74.9403L11.7602 74.9402C11.6606 74.8293 11.5621 74.7198 11.4383 74.6811C10.4684 74.3617 9.79422 73.6994 9.21465 72.9187C8.69018 72.2168 8.16438 71.5162 7.63859 70.8156C6.58733 69.4148 5.53609 68.014 4.49535 66.6027C4.02224 65.964 3.76202 65.2543 3.97493 64.4382C4.21149 63.5156 4.08138 62.6404 3.5373 61.8479C3.51732 61.8188 3.49719 61.7897 3.47697 61.7605C3.45856 61.7339 3.44008 61.7072 3.42154 61.6805L3.41877 61.6765L3.41866 61.6764C3.19334 61.3515 2.96122 61.0169 2.78032 60.6651C2.23624 59.5888 1.81043 58.5006 2.0943 57.2232C2.24806 56.4899 2.27172 55.6856 2.15344 54.9523C1.96186 53.8028 1.7192 52.6661 1.47654 51.5294L1.47643 51.5288C1.31462 50.7709 1.15282 50.013 1.00615 49.2513C0.873627 48.569 0.761467 47.8847 0.649391 47.2009L0.649345 47.2006C0.491364 46.2368 0.333542 45.2739 0.119057 44.3191C-0.235779 42.7223 0.237335 41.4212 1.07711 40.0965C1.63302 39.2213 1.99969 38.1922 2.24807 37.175C2.36897 36.6821 2.4332 36.1819 2.49754 35.6808C2.59684 34.9074 2.6964 34.132 3.00504 33.3783C3.3363 32.5629 3.61704 31.7278 3.89743 30.8937L3.89748 30.8935L3.89754 30.8934C4.26788 29.7917 4.6376 28.6919 5.12223 27.6418C5.58788 26.6192 6.27203 25.6953 6.9516 24.7775L6.95183 24.7772L6.95206 24.7769C7.15266 24.506 7.35287 24.2356 7.54694 23.9634C7.85998 23.5177 8.1992 23.0886 8.53792 22.6603C8.95427 22.1337 9.36985 21.6081 9.73508 21.0537C10.3133 20.1753 10.868 19.2812 11.4225 18.3873C12.0477 17.3796 12.6726 16.3723 13.3307 15.3882C14.6318 13.4484 16.1458 11.6979 17.9554 10.2194C20.2215 8.37646 22.8016 7.08666 25.3806 5.79735C26.0457 5.46484 26.7108 5.13237 27.3704 4.79046C28.342 4.28438 29.3137 3.80429 30.2928 3.32053L30.7886 3.07542C31.0133 2.96897 31.1671 2.94532 31.4155 3.20553C31.7822 3.58402 32.2907 3.998 32.7875 4.05713C34.1595 4.2109 34.4079 4.62487 34.7155 5.58292C34.8456 5.98507 34.7509 6.17432 34.4079 6.32808C33.8166 6.58825 33.2371 6.87208 32.6577 7.1559L32.6574 7.15603C32.1619 7.39811 31.6615 7.63293 31.161 7.86785C30.0964 8.36751 29.0308 8.86758 28.0091 9.4388C25.4188 10.8936 22.9231 12.5022 20.6522 14.4183C20.3097 14.7081 19.9644 14.9955 19.6187 15.2831C18.4121 16.2872 17.2017 17.2945 16.0984 18.4161C13.177 21.3967 11.0598 24.9333 9.4039 28.7418C8.49403 30.8242 7.64367 32.9289 6.79382 35.0323L6.79236 35.036L6.79172 35.0375C6.57066 35.5847 6.34963 36.1317 6.12759 36.6783C6.07366 36.8111 6.01855 36.9436 5.96349 37.0759C5.5234 38.1335 5.08546 39.1859 5.26417 40.4159C5.44158 41.6223 5.57169 42.8642 5.51254 44.0707C5.41792 46.1879 5.22868 48.305 4.94481 50.4104C4.58997 53.048 4.8975 55.6265 5.57169 58.1694C5.79654 59.0207 6.04322 59.8671 6.28976 60.7131L6.28986 60.7134L6.28995 60.7137C6.58801 61.7364 6.88588 62.7585 7.14478 63.7877C7.16754 63.8762 7.19006 63.9646 7.21254 64.0529C7.50561 65.204 7.79349 66.3347 8.54047 67.3124C9.28562 68.2704 9.99529 69.2639 10.6577 70.2811C10.8942 70.6478 11.1071 71.1919 11.0243 71.5822C10.7641 72.8005 11.0835 73.7703 12.077 74.48C12.4003 74.7138 12.7466 74.9204 13.0931 75.127L13.0932 75.1271L13.0933 75.1272L13.0934 75.1272C13.5707 75.4119 14.0482 75.6968 14.4662 76.0531C15.371 76.8211 16.2319 77.633 17.0927 78.445C17.5709 78.8961 18.0492 79.3472 18.535 79.7907C21.4446 82.4401 24.508 84.9003 27.9145 86.8756C29.4994 87.7981 31.1553 88.6616 32.8585 89.3358C34.7509 90.0809 36.7144 90.6723 38.6778 91.1927C39.7248 91.4737 40.8025 91.6443 41.88 91.8149L41.8802 91.8149L41.8805 91.815L41.8808 91.815C42.3001 91.8814 42.7194 91.9478 43.1369 92.0207C43.3102 92.0512 43.4836 92.0819 43.657 92.1126L43.6708 92.1151L43.6716 92.1152L43.672 92.1153C44.7713 92.3101 45.8717 92.5051 46.9809 92.6476C48.4239 92.8368 49.8669 93.0024 51.3217 93.1088C51.5695 93.1278 51.8176 93.1482 52.0658 93.1686C53.3699 93.276 54.6783 93.3837 55.9701 93.2744C57.4722 93.1468 58.9581 92.8236 60.4412 92.5009L60.4413 92.5009L60.4429 92.5006L60.4444 92.5003C60.7469 92.4344 61.0493 92.3686 61.3517 92.3046C64.2141 91.7013 67.0646 91.0272 69.6194 89.4422C69.6128 89.4226 69.6099 89.3885 69.6066 89.35C69.6039 89.3188 69.601 89.2847 69.5957 89.253C69.5839 89.1702 69.5602 89.0992 69.5247 89.0282C68.9334 88.0465 69.1344 87.1003 69.9032 86.4025C71.2989 85.1251 72.7419 83.8595 74.2914 82.7713C76.172 81.4466 77.8634 79.9563 79.2827 78.1585C79.5526 77.8192 79.8124 77.4687 80.0723 77.1179L80.0724 77.1178C80.6101 76.3923 81.1486 75.6657 81.7784 75.0359C82.559 74.2474 83.4132 73.5325 84.2675 72.8176C84.6946 72.4601 85.1217 72.1026 85.5396 71.736L85.6019 71.6821C86.0207 71.3204 86.4548 70.9453 86.7815 70.5059C87.509 69.5336 88.2158 68.5447 88.9239 67.554L88.9242 67.5536C89.4134 66.8693 89.9032 66.184 90.4009 65.5027C90.4688 65.4196 90.5803 65.3703 90.6919 65.3208L90.692 65.3208C90.7552 65.2929 90.8184 65.2648 90.874 65.2307C90.8708 65.2843 90.871 65.3396 90.8712 65.395C90.8718 65.5474 90.8724 65.7006 90.803 65.822C90.5971 66.1926 90.3753 66.5513 90.1538 66.9095L90.1537 66.9097L90.1532 66.9104C89.9931 67.1693 89.8331 67.428 89.6794 67.6908C89.6013 67.8157 89.5542 67.9612 89.4937 68.1477L89.4937 68.1478C89.4626 68.2439 89.4279 68.3509 89.3837 68.4715C89.4718 68.4337 89.5421 68.4079 89.5987 68.387L89.5995 68.3867L89.5996 68.3867C89.702 68.3491 89.7596 68.3279 89.7976 68.2822C89.9668 68.0785 90.1441 67.8778 90.322 67.6764L90.3221 67.6763C90.7537 67.1876 91.1895 66.6941 91.5245 66.1414C92.3192 64.8133 93.0237 63.4351 93.7302 62.053L93.9137 61.6941C94.4578 60.6296 94.9427 59.5415 94.0557 58.406C94.0557 58.406 94.0675 58.3705 94.103 58.2995H94.9427C95.818 58.2995 96.4685 57.8619 96.6933 57.0695C97.0008 56.0168 97.2728 54.9286 97.3201 53.8405C97.3803 52.4783 97.3735 51.1113 97.3667 49.7426C97.3628 48.9602 97.3588 48.1773 97.3675 47.3943C97.3911 45.7266 97.7223 45.2889 99.2363 44.7212C99.5674 44.5911 99.7094 44.7094 99.733 45.0524C99.7627 45.5896 99.8039 46.1269 99.8451 46.6637C99.9355 47.8407 100.026 49.016 99.9932 50.1857C99.875 54.1716 99.3427 58.1103 98.4083 61.978C98.0062 63.6221 97.4148 65.2543 96.6933 66.7919C95.8594 68.5788 94.857 70.2863 93.8585 71.9871L93.8585 71.9872L93.5825 72.4575C92.6008 74.1252 91.4299 75.6391 90.046 76.9993L89.9101 77.1328C88.6421 78.3771 87.3746 79.6211 86.4267 81.1627C86.1839 81.5643 85.8232 81.8921 85.4668 82.216L85.4663 82.2164L85.4659 82.2168C85.3711 82.3029 85.2766 82.3887 85.1848 82.4756C84.98 82.6638 84.7648 82.8417 84.549 83.02C84.3036 83.2228 84.0574 83.4263 83.8246 83.6466C83.78 83.6887 83.7359 83.7311 83.6918 83.7735L83.6914 83.7739C83.3141 84.1367 82.9414 84.495 82.3698 84.5692C82.2694 84.5792 82.1691 84.6829 82.076 84.7791L82.0758 84.7793C82.0592 84.7964 82.0428 84.8133 82.0268 84.8294C81.9089 84.9473 81.798 85.0749 81.6874 85.2023L81.6873 85.2023C81.476 85.4455 81.2657 85.6876 81.0096 85.8584C80.158 86.438 79.2591 86.982 78.3365 87.4551C77.4021 87.9401 76.858 88.5788 76.787 89.6788C76.7161 90.7196 76.1247 91.0035 75.2494 90.4712C74.8236 90.2229 74.457 90.2347 74.0193 90.4003C73.6408 90.5422 73.2518 90.6631 72.8628 90.784C72.6683 90.8445 72.4738 90.9049 72.2806 90.968L71.9653 91.0729C70.1893 91.6628 68.4164 92.2517 66.8753 93.3572C65.7753 94.1497 64.6517 94.0078 63.4334 93.511L63.5182 93.3806C63.7941 92.956 64.0587 92.5489 64.3915 92.0443C64.2705 92.0443 64.1811 92.0384 64.1122 92.0338C64.0126 92.0272 63.9554 92.0234 63.9065 92.0443C63.7088 92.1328 63.5104 92.2196 63.3123 92.3062L63.3122 92.3063C62.6097 92.6136 61.9095 92.9199 61.2453 93.2981L61.2319 93.3055C60.6586 93.6214 60.1992 93.8746 59.5302 93.4755C59.2682 93.316 58.8306 93.387 58.4711 93.4453L58.4302 93.4519C57.7442 93.5701 57.0464 93.7239 56.3722 93.925C56.1233 93.9936 55.893 94.1433 55.6634 94.2926L55.6633 94.2926L55.6633 94.2927C55.5765 94.349 55.4899 94.4053 55.4023 94.4572C55.4098 94.476 55.4161 94.4948 55.422 94.5135C55.4254 94.5243 55.4286 94.5351 55.4319 94.5459C55.4408 94.5755 55.4496 94.6051 55.4615 94.6346C55.5455 94.6508 55.6286 94.6678 55.7114 94.6848L55.7117 94.6849C55.9316 94.7299 56.1488 94.7744 56.3722 94.8002C57.2593 94.9067 57.484 95.226 57.2238 96.1368C57.196 96.1368 57.1674 96.1372 57.1381 96.1377H57.1379C57.0178 96.1396 56.8884 96.1416 56.7743 96.1131C55.9972 95.9262 55.2283 95.7311 54.4539 95.5347L53.983 95.4153C53.4941 95.2975 53.2486 95.2383 53.0582 95.3153C52.8663 95.3929 52.7303 95.6087 52.4572 96.0421C52.4426 96.0714 52.4144 96.0871 52.3755 96.1088C52.3514 96.1222 52.3232 96.1378 52.2916 96.1604C51.9959 95.7583 51.7002 95.368 51.3809 94.954C50.5056 96.4088 50.1981 96.6217 49.039 96.3378C47.8562 96.054 46.7089 96.1013 45.5379 96.3378L45.5042 96.3448C45.1702 96.4141 44.8056 96.4897 44.4852 96.4325L44.0704 96.3536C42.4702 96.0497 40.8724 95.7462 39.3046 95.3325C38.0034 94.9967 36.7145 94.6071 35.4258 94.2175L35.4255 94.2174C34.5356 93.9484 33.6458 93.6794 32.752 93.4282C32.2142 93.2737 31.6654 93.158 31.1161 93.0422C30.5299 92.9186 29.9433 92.7949 29.3693 92.6239C26.8381 91.8551 24.5199 90.6132 22.3672 89.0637C19.6823 87.1358 17.2103 84.9595 14.963 82.5348L14.6896 82.2401C12.8388 80.2465 10.9889 78.2538 10.0308 75.6273C9.98572 75.4997 9.97404 75.3577 9.96243 75.2166V75.2165C9.95576 75.1353 9.9491 75.0545 9.93616 74.9768C10.015 74.9728 10.0952 74.9623 10.1754 74.9518C10.3357 74.9308 10.496 74.9098 10.6458 74.9413C10.9232 75.0002 11.1946 75.1008 11.4643 75.2008ZM79.5325 12.2286C79.525 12.3814 79.5171 12.541 79.5072 12.7153C79.454 12.6987 79.4065 12.6858 79.364 12.6743C79.2552 12.6448 79.1797 12.6244 79.1287 12.5734C77.5674 11.3906 76.0061 10.196 74.4685 8.98952C74.2674 8.83576 74.1255 8.56372 74.0545 8.32716C73.8653 7.65298 73.818 7.60566 73.1556 7.77125C73.0722 7.79211 72.991 7.82906 72.9102 7.86589C72.8076 7.91259 72.7055 7.9591 72.5997 7.97233C72.304 8.01964 71.9965 8.05512 71.7008 8.00781C70.6836 7.84222 70.4234 7.01427 70.1868 6.18633C69.9384 5.33472 70.3406 4.76699 71.2277 4.66054C71.9728 4.56591 72.6588 4.7315 73.2857 5.18096C73.9996 5.68588 74.7182 6.1828 75.4364 6.67937C76.6697 7.53212 77.9015 8.38386 79.105 9.27339C79.6002 9.63869 80.023 10.0987 80.4765 10.5923L80.4766 10.5923C80.6839 10.8179 80.8976 11.0504 81.1276 11.2841C80.4889 11.4142 80.0394 11.5088 79.5663 11.6153C79.5526 11.8208 79.5429 12.0183 79.5325 12.2286ZM84.9271 17.3916L84.9278 17.3925L84.9279 17.3926C85.9204 18.5692 86.9068 19.7387 87.9048 20.912C88.2242 19.126 84.6758 14.8679 82.6651 14.7142C83.4275 15.6138 84.179 16.5048 84.9271 17.3916ZM91.7443 24.9801C91.6987 25.1204 91.6516 25.2652 91.6073 25.4182C90.9686 25.3591 90.4837 25.0989 90.3536 24.5903C90.2076 24.0377 90.1995 23.4393 90.1915 22.8515C90.1905 22.7725 90.1894 22.6936 90.188 22.615C90.188 22.5086 90.46 22.3075 90.5901 22.3193C91.4417 22.4258 92.1041 23.3365 91.9622 24.1881C91.9154 24.4534 91.8325 24.7083 91.7443 24.9801Z" fill="#4B3209"/>
<path fill-rule="evenodd" clip-rule="evenodd" d="M79.3757 32.312C78.6661 31.1973 77.9634 30.0937 77.2811 29C76.7105 29.9364 76.1312 30.9043 75.5409 31.8905C74.1726 34.1762 72.7454 36.5605 71.2317 38.8805C69.0568 42.1932 67.8807 45.7284 68.0096 49.7333C68.1546 54.4305 71.3686 58.147 76.0164 58.8886C80.4307 59.5891 84.7483 56.9274 86.1338 52.5351C87.5434 48.0687 86.3674 43.9237 84.1602 40.0836C82.6336 37.4292 80.9867 34.8424 79.3757 32.312ZM74.0348 55.757C77.6758 57.5946 81.0429 56.6717 83.2661 53.0623C83.0887 53.147 82.9352 53.2195 82.7972 53.2846C82.5592 53.397 82.3673 53.4876 82.1786 53.5815C80.6723 54.3067 79.1741 54.4879 77.8127 53.3095C76.5078 52.1723 76.4836 50.6808 76.8219 49.0986C76.8851 48.808 75.9753 49.0427 75.0277 49.2871C74.0406 49.5417 73.0123 49.8069 73 49.5C72.9626 48.589 73.2316 47.501 73.4602 46.5761C73.823 45.1083 74.0842 44.0513 72.8588 44.7641C71.9566 45.2997 71.1027 46.2968 70.6919 47.2857C69.3467 50.4995 70.8772 54.1666 74.0348 55.757Z" fill="#D3C28C"/>
<path fill-rule="evenodd" clip-rule="evenodd" d="M30.8509 21.6508C30.8509 21.3842 30.9342 21.1842 31.1009 21.0508C31.2675 20.9175 31.4675 20.8508 31.7009 20.8508C31.9175 20.8508 32.1092 20.9258 32.2759 21.0758C32.4425 21.2092 32.5259 21.4008 32.5259 21.6508V35.8258C32.5259 36.0758 32.4425 36.2758 32.2759 36.4258C32.1092 36.5758 31.9092 36.6508 31.6759 36.6508C31.5092 36.6508 31.3509 36.6008 31.2009 36.5008C31.0509 36.3842 30.9509 36.2342 30.9009 36.0508L28.4259 27.5758V36.0508C28.4259 36.3008 28.3425 36.4925 28.1759 36.6258C28.0092 36.7592 27.8175 36.8258 27.6009 36.8258C27.3675 36.8258 27.1675 36.7592 27.0009 36.6258C26.8342 36.4925 26.7509 36.3008 26.7509 36.0508V21.7758C26.7509 21.5258 26.8342 21.3258 27.0009 21.1758C27.1675 21.0258 27.3675 20.9508 27.6009 20.9508C27.7675 20.9508 27.9259 21.0092 28.0759 21.1258C28.2259 21.2258 28.3259 21.3675 28.3759 21.5508L30.8509 30.0258V21.6508ZM39.9013 25.9258C39.9846 26.5758 40.0263 27.3508 40.0263 28.2508C40.0263 28.9342 40.0096 29.4508 39.9763 29.8008C39.8763 31.2842 39.7179 32.4258 39.5013 33.2258L39.3013 33.9008C39.1846 34.3508 39.0679 34.7425 38.9513 35.0758C38.8513 35.3925 38.7096 35.6758 38.5263 35.9258C38.0763 36.5758 37.5179 36.9008 36.8513 36.9008C36.4846 36.9008 36.1346 36.8175 35.8013 36.6508C35.5846 36.5508 35.4513 36.4092 35.4013 36.2258C35.2179 35.9592 35.0763 35.6675 34.9763 35.3508C34.8763 35.0342 34.7763 34.6508 34.6763 34.2008C34.4929 33.3175 34.3596 32.3425 34.2763 31.2758C34.1096 29.6425 34.0263 28.3758 34.0263 27.4758C34.0263 27.2092 34.0429 26.8092 34.0763 26.2758C34.1763 24.8925 34.3846 23.7758 34.7013 22.9258C34.9346 22.3425 35.2013 21.8675 35.5013 21.5008C35.8179 21.1175 36.2263 20.9258 36.7263 20.9258C37.1763 20.9258 37.5929 21.0842 37.9763 21.4008C38.3596 21.7175 38.6679 22.1008 38.9013 22.5508C39.3846 23.4008 39.7179 24.5258 39.9013 25.9258ZM38.0013 32.2258C38.2679 30.8592 38.4013 29.5342 38.4013 28.2508C38.4013 27.0342 38.2846 25.9508 38.0513 25.0008C37.9179 24.4508 37.7596 23.9592 37.5763 23.5258C37.3929 23.0925 37.1346 22.7842 36.8013 22.6008H36.7763L36.6513 22.7258C36.4513 23.0425 36.2846 23.4092 36.1513 23.8258C35.8679 24.8258 35.7263 25.9925 35.7263 27.3258C35.7263 27.8592 35.7596 28.6758 35.8263 29.7758C35.9263 31.2758 36.0429 32.3925 36.1763 33.1258C36.2596 33.6425 36.3429 34.0592 36.4263 34.3758C36.5096 34.6925 36.6263 34.9925 36.7763 35.2758C36.8096 35.2758 36.8346 35.2842 36.8513 35.3008V35.2758H36.8763L36.9263 35.2508L37.0263 35.1508C37.1596 34.9842 37.2929 34.7258 37.4263 34.3758C37.7263 33.4592 37.9179 32.7425 38.0013 32.2258ZM31.0519 40.8256C31.3185 40.8256 31.5185 40.9089 31.6519 41.0756C31.8019 41.2423 31.8769 41.4423 31.8769 41.6756C31.8769 41.9089 31.8019 42.1089 31.6519 42.2756C31.5185 42.4423 31.3185 42.5256 31.0519 42.5256H29.4769V56.0256C29.4769 56.2756 29.3935 56.4673 29.2269 56.6006C29.0602 56.7339 28.8685 56.8006 28.6519 56.8006C28.4185 56.8006 28.2185 56.7339 28.0519 56.6006C27.8852 56.4673 27.8019 56.2756 27.8019 56.0256V42.5256H25.8019C25.5519 42.5256 25.3602 42.4423 25.2269 42.2756C25.0935 42.1089 25.0269 41.9089 25.0269 41.6756C25.0269 41.4423 25.0935 41.2423 25.2269 41.0756C25.3602 40.9089 25.5519 40.8256 25.8019 40.8256H31.0519ZM40.4616 58.5506C40.6616 58.6006 40.8116 58.6923 40.9116 58.8256C41.0116 58.9589 41.0616 59.1173 41.0616 59.3006C41.0616 59.5506 40.9783 59.7673 40.8116 59.9506C40.6616 60.1339 40.4616 60.2256 40.2116 60.2256C40.1116 60.2256 40.0366 60.2173 39.9866 60.2006C39.17 59.9839 38.52 59.3256 38.0366 58.2256C37.6366 57.3256 37.295 56.2173 37.0116 54.9006L36.8366 54.1006C36.6366 53.0173 36.4033 52.1423 36.1366 51.4756C35.87 50.7923 35.445 50.3423 34.8616 50.1256V56.1756C34.8616 56.4256 34.7783 56.6256 34.6116 56.7756C34.445 56.9089 34.245 56.9756 34.0116 56.9756C33.7783 56.9756 33.57 56.9089 33.3866 56.7756C33.22 56.6256 33.1366 56.4256 33.1366 56.1756V42.2756C33.1366 42.0923 33.1783 41.9423 33.2616 41.8256C33.3116 41.6589 33.4033 41.5256 33.5366 41.4256C33.6866 41.3089 33.8616 41.2423 34.0616 41.2256L34.5616 41.2006C35.845 41.2006 36.7866 41.5756 37.3866 42.3256C37.62 42.6256 37.77 42.9756 37.8366 43.3756C37.92 43.7589 37.9783 44.2423 38.0116 44.8256C38.045 45.3256 38.0616 45.7089 38.0616 45.9756C38.0616 47.0423 37.9116 47.9173 37.6116 48.6006C37.4283 49.0006 37.1866 49.3173 36.8866 49.5506C37.27 50.0173 37.5783 50.5839 37.8116 51.2506C38.045 51.9006 38.2616 52.6423 38.4616 53.4756C38.5783 54.0423 38.7033 54.6256 38.8366 55.2256C38.97 55.8089 39.1283 56.3423 39.3116 56.8256C39.4783 57.3089 39.6866 57.7423 39.9366 58.1256C40.02 58.2423 40.12 58.3506 40.2366 58.4506L40.3366 58.5006C40.37 58.5339 40.4116 58.5506 40.4616 58.5506ZM36.2366 47.2006C36.3033 46.8006 36.3366 46.3339 36.3366 45.8006C36.3366 45.3839 36.3116 44.9756 36.2616 44.5756C36.245 44.2589 36.2116 44.0006 36.1616 43.8006C36.1283 43.6006 36.0533 43.4173 35.9366 43.2506L35.7866 43.1256C35.5866 43.0423 35.4783 43.0006 35.4616 43.0006C35.2616 42.9506 35.0616 42.9256 34.8616 42.9256V48.3506H34.9366C35.1033 48.3839 35.2366 48.4006 35.3366 48.4006C35.5866 48.4006 35.7616 48.3256 35.8616 48.1756C36.045 47.9756 36.17 47.6506 36.2366 47.2006ZM48.1085 56.1006C48.1252 56.3506 48.0585 56.5423 47.9085 56.6756C47.7585 56.8089 47.5668 56.8756 47.3335 56.8756C47.1002 56.8756 46.8918 56.8089 46.7085 56.6756C46.5252 56.5423 46.4252 56.3506 46.4085 56.1006L46.0335 52.1506H43.2335C43.0002 53.9506 42.8418 55.2673 42.7585 56.1006C42.7418 56.3506 42.6418 56.5423 42.4585 56.6756C42.2752 56.8089 42.0668 56.8756 41.8335 56.8756C41.6002 56.8756 41.4085 56.8089 41.2585 56.6756C41.1085 56.5423 41.0418 56.3506 41.0585 56.1006C41.2585 54.2506 41.5085 52.3589 41.8085 50.4256C42.1085 48.4423 42.4002 46.7756 42.6835 45.4256C42.9668 44.0756 43.3585 42.7756 43.8585 41.5256C44.0418 41.1089 44.3168 40.9006 44.6835 40.9006H45.8585C46.0918 40.9006 46.2835 40.9839 46.4335 41.1506C46.5835 41.3173 46.6752 41.5173 46.7085 41.7506L48.1085 56.1006ZM45.8585 50.4756C45.7085 48.7923 45.4668 46.2839 45.1335 42.9506C44.7668 44.0173 44.4668 45.1256 44.2335 46.2756C44.0002 47.4256 43.7502 48.8256 43.4835 50.4756H45.8585ZM54.2034 41.6506C54.2034 41.3839 54.2868 41.1839 54.4534 41.0506C54.6201 40.9173 54.8201 40.8506 55.0534 40.8506C55.2701 40.8506 55.4618 40.9256 55.6284 41.0756C55.7951 41.2089 55.8784 41.4006 55.8784 41.6506V55.8256C55.8784 56.0756 55.7951 56.2756 55.6284 56.4256C55.4618 56.5756 55.2618 56.6506 55.0284 56.6506C54.8618 56.6506 54.7034 56.6006 54.5534 56.5006C54.4034 56.3839 54.3034 56.2339 54.2534 56.0506L51.7784 47.5756V56.0506C51.7784 56.3006 51.6951 56.4923 51.5284 56.6256C51.3618 56.7589 51.1701 56.8256 50.9534 56.8256C50.7201 56.8256 50.5201 56.7589 50.3534 56.6256C50.1868 56.4923 50.1034 56.3006 50.1034 56.0506V41.7756C50.1034 41.5256 50.1868 41.3256 50.3534 41.1756C50.5201 41.0256 50.7201 40.9506 50.9534 40.9506C51.1201 40.9506 51.2784 41.0089 51.4284 41.1256C51.5784 41.2256 51.6784 41.3673 51.7284 41.5506L54.2034 50.0256V41.6506ZM62.5538 49.8506C63.0538 50.8506 63.3038 51.8339 63.3038 52.8006C63.3038 52.9506 63.2871 53.1923 63.2538 53.5256C63.1538 54.3589 62.8621 55.1173 62.3788 55.8006C61.9121 56.4673 61.3121 56.8006 60.5788 56.8006C60.4121 56.8006 60.2288 56.7756 60.0288 56.7256C59.2455 56.5256 58.6871 56.0589 58.3538 55.3256C58.0371 54.5756 57.8788 53.7173 57.8788 52.7506C57.8788 52.5339 57.8955 52.2256 57.9288 51.8256C57.9621 51.5923 58.0455 51.4006 58.1788 51.2506C58.3288 51.0839 58.5205 51.0006 58.7538 51.0006C58.9705 51.0006 59.1705 51.0839 59.3538 51.2506C59.5371 51.4173 59.6205 51.6089 59.6038 51.8256C59.5538 52.1756 59.5288 52.5339 59.5288 52.9006C59.5288 53.5506 59.6288 54.0673 59.8288 54.4506C59.8955 54.6173 59.9788 54.7506 60.0788 54.8506C60.1121 54.9006 60.1538 54.9423 60.2038 54.9756C60.2038 54.9923 60.2121 55.0089 60.2288 55.0256C60.2621 55.0423 60.2871 55.0506 60.3038 55.0506L60.3538 55.1006H60.4288C60.4455 55.1006 60.4538 55.1089 60.4538 55.1256H60.5788H60.6038L60.7038 55.1006L60.7288 55.0756C60.7955 55.0423 60.8455 55.0089 60.8788 54.9756L61.1288 54.7256C61.1955 54.6589 61.2621 54.5423 61.3288 54.3756C61.3955 54.2089 61.4538 54.0506 61.5038 53.9006C61.6038 53.5173 61.6538 53.1423 61.6538 52.7756C61.6538 52.0423 61.4788 51.3506 61.1288 50.7006C60.8455 50.2006 60.5455 49.7256 60.2288 49.2756C59.7288 48.5256 59.3705 47.9173 59.1538 47.4506C58.8871 46.8506 58.6705 46.2339 58.5038 45.6006C58.3371 44.9506 58.2538 44.3423 58.2538 43.7756C58.2538 43.0089 58.4538 42.3256 58.8538 41.7256C59.2705 41.1089 59.8538 40.8006 60.6038 40.8006C60.8871 40.8006 61.1705 40.8589 61.4538 40.9756C61.7371 41.0923 61.9705 41.2589 62.1538 41.4756C62.6705 42.1089 62.9288 42.9256 62.9288 43.9256C62.9288 44.1089 62.9121 44.4006 62.8788 44.8006C62.8455 45.0339 62.7538 45.2339 62.6038 45.4006C62.4705 45.5506 62.2871 45.6256 62.0538 45.6256C61.8371 45.6256 61.6371 45.5423 61.4538 45.3756C61.2871 45.2089 61.2121 45.0173 61.2288 44.8006C61.2621 44.4339 61.2788 44.1423 61.2788 43.9256C61.2788 43.6756 61.2538 43.4256 61.2038 43.1756C61.1538 42.9756 61.0871 42.8173 61.0038 42.7006L60.8788 42.5756L60.7038 42.4756H60.6538C60.6371 42.4423 60.6121 42.4423 60.5788 42.4756H60.5038H60.4538V42.5006L60.3538 42.5506C60.1538 42.7673 60.0288 42.9756 59.9788 43.1756C59.9455 43.2923 59.9288 43.4756 59.9288 43.7256C59.9288 44.0589 59.9871 44.4589 60.1038 44.9256C60.1371 45.0756 60.1955 45.3339 60.2788 45.7006C60.3621 46.0506 60.4705 46.3506 60.6038 46.6006C60.8871 47.1506 61.2288 47.7256 61.6288 48.3256C62.0621 48.9923 62.3705 49.5006 62.5538 49.8506ZM30.3509 66.6508H28.5259V62.3258H30.7009C30.9675 62.3258 31.1759 62.2425 31.3259 62.0758C31.4925 61.9092 31.5759 61.7092 31.5759 61.4758C31.5759 61.2592 31.4925 61.0675 31.3259 60.9008C31.1759 60.7342 30.9675 60.6508 30.7009 60.6508H27.6509C27.4009 60.6508 27.1842 60.7342 27.0009 60.9008C26.8342 61.0675 26.7509 61.2675 26.7509 61.5008V76.0008C26.7509 76.2508 26.8342 76.4425 27.0009 76.5758C27.1842 76.7092 27.4009 76.7758 27.6509 76.7758C27.8842 76.7758 28.0842 76.7092 28.2509 76.5758C28.4342 76.4425 28.5259 76.2508 28.5259 76.0008V68.3508H30.3509C30.6175 68.3508 30.8259 68.2675 30.9759 68.1008C31.1425 67.9342 31.2259 67.7342 31.2259 67.5008C31.2259 67.2675 31.1425 67.0675 30.9759 66.9008C30.8259 66.7342 30.6175 66.6508 30.3509 66.6508ZM40.3997 76.6758C40.5497 76.5425 40.6164 76.3508 40.5997 76.1008L39.1997 61.7508C39.1664 61.5175 39.0747 61.3175 38.9247 61.1508C38.7747 60.9842 38.583 60.9008 38.3497 60.9008H37.1747C36.808 60.9008 36.533 61.1092 36.3497 61.5258C35.8497 62.7758 35.458 64.0758 35.1747 65.4258C34.8914 66.7758 34.5997 68.4425 34.2997 70.4258C33.9997 72.3592 33.7497 74.2508 33.5497 76.1008C33.533 76.3508 33.5997 76.5425 33.7497 76.6758C33.8997 76.8092 34.0914 76.8758 34.3247 76.8758C34.558 76.8758 34.7664 76.8092 34.9497 76.6758C35.133 76.5425 35.233 76.3508 35.2497 76.1008C35.333 75.2675 35.4914 73.9508 35.7247 72.1508H38.5247L38.8997 76.1008C38.9164 76.3508 39.0164 76.5425 39.1997 76.6758C39.383 76.8092 39.5914 76.8758 39.8247 76.8758C40.058 76.8758 40.2497 76.8092 40.3997 76.6758ZM37.6247 62.9508C37.958 66.2842 38.1997 68.7925 38.3497 70.4758H35.9747C36.2414 68.8258 36.4914 67.4258 36.7247 66.2758C36.958 65.1258 37.258 64.0175 37.6247 62.9508ZM48.4946 61.0758C48.3613 60.9092 48.1613 60.8258 47.8946 60.8258H42.6446C42.3946 60.8258 42.203 60.9092 42.0696 61.0758C41.9363 61.2425 41.8696 61.4425 41.8696 61.6758C41.8696 61.9092 41.9363 62.1092 42.0696 62.2758C42.203 62.4425 42.3946 62.5258 42.6446 62.5258H44.6446V76.0258C44.6446 76.2758 44.728 76.4675 44.8946 76.6008C45.0613 76.7342 45.2613 76.8008 45.4946 76.8008C45.7113 76.8008 45.903 76.7342 46.0696 76.6008C46.2363 76.4675 46.3196 76.2758 46.3196 76.0258V62.5258H47.8946C48.1613 62.5258 48.3613 62.4425 48.4946 62.2758C48.6446 62.1092 48.7196 61.9092 48.7196 61.6758C48.7196 61.4425 48.6446 61.2425 48.4946 61.0758ZM55.4044 72.8008C55.4044 71.8342 55.1544 70.8508 54.6544 69.8508C54.4711 69.5008 54.1627 68.9925 53.7294 68.3258C53.3294 67.7258 52.9877 67.1508 52.7044 66.6008C52.5711 66.3508 52.4627 66.0508 52.3794 65.7008C52.2961 65.3342 52.2377 65.0758 52.2044 64.9258C52.0877 64.4592 52.0294 64.0592 52.0294 63.7258C52.0294 63.4758 52.0461 63.2925 52.0794 63.1758C52.1294 62.9758 52.2544 62.7675 52.4544 62.5508L52.5544 62.5008V62.4758H52.6044H52.6794C52.7127 62.4425 52.7377 62.4425 52.7544 62.4758H52.8044L52.9794 62.5758L53.1044 62.7008C53.1877 62.8175 53.2544 62.9758 53.3044 63.1758C53.3544 63.4258 53.3794 63.6758 53.3794 63.9258C53.3794 64.1425 53.3627 64.4342 53.3294 64.8008C53.3127 65.0175 53.3877 65.2092 53.5544 65.3758C53.7377 65.5425 53.9377 65.6258 54.1544 65.6258C54.3877 65.6258 54.5711 65.5508 54.7044 65.4008C54.8544 65.2342 54.9461 65.0342 54.9794 64.8008C55.0127 64.4008 55.0294 64.1092 55.0294 63.9258C55.0294 62.9258 54.7711 62.1092 54.2544 61.4758C54.0711 61.2592 53.8377 61.0925 53.5544 60.9758C53.2711 60.8592 52.9877 60.8008 52.7044 60.8008C51.9544 60.8008 51.3711 61.1092 50.9544 61.7258C50.5544 62.3258 50.3544 63.0092 50.3544 63.7758C50.3544 64.3425 50.4377 64.9508 50.6044 65.6008C50.7711 66.2342 50.9877 66.8508 51.2544 67.4508C51.4711 67.9175 51.8294 68.5258 52.3294 69.2758C52.6461 69.7258 52.9461 70.2008 53.2294 70.7008C53.5794 71.3508 53.7544 72.0425 53.7544 72.7758C53.7544 73.1425 53.7044 73.5175 53.6044 73.9008C53.5544 74.0508 53.4961 74.2092 53.4294 74.3758C53.3627 74.5425 53.2961 74.6592 53.2294 74.7258L52.9794 74.9758C52.9461 75.0092 52.8961 75.0425 52.8294 75.0758L52.8044 75.1008L52.7044 75.1258H52.6794H52.5544C52.5544 75.1092 52.5461 75.1008 52.5294 75.1008H52.4544L52.4044 75.0508C52.3877 75.0508 52.3627 75.0425 52.3294 75.0258C52.3127 75.0092 52.3044 74.9925 52.3044 74.9758C52.2544 74.9425 52.2127 74.9008 52.1794 74.8508C52.0794 74.7508 51.9961 74.6175 51.9294 74.4508C51.7294 74.0675 51.6294 73.5508 51.6294 72.9008C51.6294 72.5342 51.6544 72.1758 51.7044 71.8258C51.7211 71.6092 51.6377 71.4175 51.4544 71.2508C51.2711 71.0842 51.0711 71.0008 50.8544 71.0008C50.6211 71.0008 50.4294 71.0842 50.2794 71.2508C50.1461 71.4008 50.0627 71.5925 50.0294 71.8258C49.9961 72.2258 49.9794 72.5342 49.9794 72.7508C49.9794 73.7175 50.1377 74.5758 50.4544 75.3258C50.7877 76.0592 51.3461 76.5258 52.1294 76.7258C52.3294 76.7758 52.5127 76.8008 52.6794 76.8008C53.4127 76.8008 54.0127 76.4675 54.4794 75.8008C54.9627 75.1175 55.2544 74.3592 55.3544 73.5258C55.3877 73.1925 55.4044 72.9508 55.4044 72.8008Z" fill="#4B3209"/>
</svg>
