<svg width="100" height="100" viewBox="0 0 100 100" fill="none" xmlns="http://www.w3.org/2000/svg">
<g clip-path="url(#clip0)">
<rect width="100" height="100" fill="white"/>
<path d="M2.76635 39.752C3.06838 40.2574 3.78081 40.3029 4.14421 39.84C5.30939 38.3639 6.0839 36.2836 6.72369 34.2672C6.74632 34.1958 6.84307 34.1862 6.87909 34.2517C6.91324 34.3139 7.00367 34.3092 7.03136 34.2439L8.16775 31.5646C8.20311 31.4813 8.24974 31.4031 8.30553 31.3318C10.0672 29.0828 11.2604 26.6196 12.4102 24.222C13.7242 21.4931 15.0831 18.674 17.2956 16.2157C17.5651 15.9225 18.2502 15.3925 18.9802 14.84C21.5184 12.9117 23.4614 11.3105 23.4726 9.72047C23.4726 9.17919 23.1581 8.76196 22.664 8.63792C22.1024 8.5026 21.3275 8.72813 19.2722 10.2392C18.0032 11.1751 16.3634 12.5283 14.6563 14.0506C11.5678 16.8021 8.13118 20.2414 7.41241 21.6848C6.62624 23.2635 5.03145 26.8946 3.85221 30.4016C1.44879 37.5396 2.42588 39.186 2.75158 39.7272L2.76635 39.752ZM93.5085 33.7732L93.5142 33.7781C93.6627 33.9059 93.852 33.9762 94.0476 33.9762C94.0589 33.9762 94.0813 33.9762 94.0926 33.9762C95.0921 33.9762 95.5301 33.4011 95.7098 33.0628C96.0692 32.3411 95.9569 31.2924 95.3729 29.8603C94.9686 28.8905 94.4183 27.932 94.1038 27.5261C93.6545 26.9397 93.1491 26.9397 92.8908 26.9961C92.5539 27.0637 92.1047 27.3231 91.8913 28.135C91.5319 29.5446 91.8913 32.3637 93.5085 33.7732ZM32.8392 7.22836C33.9286 6.72092 35.0517 6.19092 36.2983 5.77369C39.9259 4.55583 43.0256 4.3303 47.4618 4.34158C60.3998 4.35285 71.7318 8.00644 80.2224 14.9077C80.3572 15.0204 80.5256 15.1557 80.7165 15.3136C81.5476 16.0015 82.8167 17.0502 83.9735 17.8734C85.1415 18.7078 86.0288 19.2266 86.7138 19.2266C86.9946 19.2266 87.2417 19.1363 87.4663 18.9446C88.2862 18.2117 87.6797 16.881 86.2758 14.6709C84.2767 11.5585 78.7399 8.24324 75.438 6.25858L75.2022 6.11199C70.9344 3.5635 66.0827 1.78181 60.7704 0.812031C55.9748 -0.033707 50.8985 -0.225407 45.6873 0.270759C44.553 0.259482 40.173 0.541395 36.0063 1.40969C29.2902 2.80797 25.5054 5.0971 24.7417 8.23197C24.6115 8.76073 25.0078 9.28068 25.5503 9.28068C28.4704 9.26941 30.593 8.27707 32.8392 7.22836ZM99.1015 43.1327C98.7534 41.0128 98.394 39.2536 98.0009 37.923C97.4618 36.0173 96.9003 35.0024 96.204 34.5964C95.6986 34.3145 95.137 34.3483 94.6541 34.6979C94.1487 35.0588 94.115 35.6339 94.4295 37.7651C94.6204 39.0055 94.8899 40.5053 95.137 41.8359C95.3392 42.9523 95.575 44.2266 95.5863 44.4746C95.8558 51.3759 94.9124 58.4688 92.9245 64.4453C91.1164 69.8693 88.3199 73.9289 85.3661 78.2252C84.4789 79.5107 83.558 80.8526 82.637 82.2622C82.4236 82.5892 81.3455 84.292 80.3347 86.0285C79.7731 86.9983 79.3351 87.7877 79.0319 88.3853C78.9168 88.5973 78.6911 88.7206 78.4513 88.7382C77.9029 88.7786 77.0354 89.0136 75.5166 89.6709C74.8652 89.9528 74.2588 90.246 73.8657 90.4377C73.4838 90.6294 73.2705 90.7308 73.1357 90.8098C70.4964 92.1066 69.4519 93.1553 69.7552 94.2153C69.7818 94.3223 69.6888 94.4242 69.587 94.3827L68.8455 94.08C68.1941 93.8093 67.2282 93.5049 66.5207 94.001C66.2287 94.204 65.8805 94.61 65.8917 95.388C65.8984 95.7513 66.1411 96.0705 66.487 96.1774C66.7004 96.2451 66.9587 96.2902 67.2395 96.2902C67.7898 96.2902 68.4524 96.0985 69.1038 95.4782L69.1616 95.4232C69.5928 95.0128 70.3263 95.0696 70.8982 95.2311C71.1962 95.3153 71.566 95.3655 72.0238 95.3655C72.2372 95.3655 72.4731 95.3542 72.7314 95.3317C75.0247 95.1182 78.5994 93.7972 79.6153 91.1122C79.6225 91.0932 79.6406 91.0804 79.6608 91.0804C79.6833 91.0804 79.717 91.0804 79.7394 91.0804C80.9075 91.0804 82.345 89.6596 85.3661 85.5775C85.602 85.2505 85.7929 85.0024 85.9052 84.8671C86.4443 84.1905 87.354 83.2658 88.4097 82.1945C91.2388 79.3116 94.6731 75.8209 95.0848 73.0523C95.1331 72.7276 95.2941 72.4261 95.5174 72.1863C96.4672 71.1656 97.4962 68.6408 98.5512 62.4832C99.5171 56.8337 99.9888 51.0037 100 50.9473C100.034 50.4286 99.6743 46.7074 99.1015 43.1327ZM28.2682 89.5017C20.9681 85.9947 13.4209 82.375 10.1415 74.7182C9.71474 73.7484 7.58087 66.4638 5.76146 59.089C2.3585 45.2753 3.07727 43.4485 3.17835 43.2793C3.07262 43.4917 2.8153 43.2585 2.82475 43.0213L2.84143 42.6027C2.86001 42.1362 2.48189 41.7235 2.04978 41.8962C1.76268 42.0109 1.50025 42.1949 1.2691 42.4449C-0.516616 44.3844 -0.101072 50.4399 0.606475 56.6871C0.67386 57.2735 0.730015 57.7358 0.752477 58.0177C1.40387 65.7421 3.80728 71.1887 7.21025 76.9848C9.89443 81.5405 12.8369 84.3258 16.5656 87.8553L16.6891 87.9681C17.3181 88.5545 19.6429 90.2911 21.9901 91.8359C23.2929 92.693 24.3823 93.347 25.2359 93.798C26.6509 94.531 27.3697 94.6663 27.8976 94.3055C27.9851 94.2469 28.0928 94.2235 28.1923 94.2578C29.3126 94.6441 30.1459 95.1264 30.9075 95.5572C32.1204 96.2451 33.221 96.8653 34.872 96.8653C35.7031 96.8653 36.6689 96.7074 37.8594 96.324C38.5266 96.1098 38.6542 95.2165 38.0728 94.8242C35.0966 92.7832 31.6262 91.1143 28.2682 89.5017Z" fill="#C3D833"/>
<path d="M64.1059 96.3236C64.0541 96.3073 64.0027 96.2903 63.9523 96.2703C63.4503 96.0707 62.6317 95.9114 61.2646 95.7827C58.659 95.5346 54.8967 95.5008 51.6846 95.6812C45.523 96.0287 44.853 96.9442 44.5694 97.3318L44.5642 97.3389C44.2094 97.8471 44.5052 98.5536 45.1146 98.6582C45.8895 98.7935 46.6644 98.9401 47.4057 99.0867L47.5494 99.1139C49.9456 99.5666 52.2406 100 54.7731 100C55.0971 100 55.4321 99.989 55.7672 99.9778C55.7702 99.9777 55.7727 99.9801 55.7727 99.9831C55.7727 99.9862 55.7753 99.9886 55.7784 99.9884L56.3856 99.9376C56.4261 99.9342 56.4661 99.9264 56.505 99.9144L56.7386 99.8423C57.4349 99.5491 62.7808 97.8463 63.6343 97.9478C63.5552 97.939 63.9939 97.9979 64.327 97.9546C64.489 97.9336 64.6238 97.8251 64.6925 97.6764C64.8947 97.239 64.7582 96.8404 64.5553 96.6172C64.4465 96.4781 64.2941 96.3828 64.1059 96.3236Z" fill="#C3D833"/>
<path d="M30.2034 40.253H34.1994V47.921C33.1734 48.695 31.9854 49.289 30.6354 49.703C29.2854 50.117 27.9264 50.324 26.5584 50.324C24.5964 50.324 22.8324 49.91 21.2664 49.082C19.7004 48.236 18.4674 47.075 17.5674 45.599C16.6854 44.105 16.2444 42.422 16.2444 40.55C16.2444 38.678 16.6854 37.004 17.5674 35.528C18.4674 34.034 19.7094 32.873 21.2934 32.045C22.8774 31.199 24.6594 30.776 26.6394 30.776C28.2954 30.776 29.7984 31.055 31.1484 31.613C32.4984 32.171 33.6324 32.981 34.5504 34.043L31.7424 36.635C30.3924 35.213 28.7634 34.502 26.8554 34.502C25.6494 34.502 24.5784 34.754 23.6424 35.258C22.7064 35.762 21.9774 36.473 21.4554 37.391C20.9334 38.309 20.6724 39.362 20.6724 40.55C20.6724 41.72 20.9334 42.764 21.4554 43.682C21.9774 44.6 22.6974 45.32 23.6154 45.842C24.5514 46.346 25.6134 46.598 26.8014 46.598C28.0614 46.598 29.1954 46.328 30.2034 45.788V40.253ZM55.4615 50L55.4345 38.66L49.8725 48.002H47.9015L42.3665 38.903V50H38.2625V31.1H41.8805L48.9545 42.845L55.9205 31.1H59.5115L59.5655 50H55.4615Z" fill="#4D9D20"/>
<path fill-rule="evenodd" clip-rule="evenodd" d="M72.3022 51.0823C78.1004 51.0823 82.8008 46.3629 82.8008 40.5412C82.8008 34.7194 78.1004 30 72.3022 30C66.5041 30 61.8037 34.7194 61.8037 40.5412C61.8037 46.3629 66.5041 51.0823 72.3022 51.0823ZM72.4783 41.0006C73.5168 42.8067 73.9554 44.7708 74.1135 46.4488C74.2917 45.5971 74.5907 44.7023 75.0768 43.8568C76.8299 40.8081 80.3532 39.5551 80.3532 39.5551C80.3532 39.5551 81.0342 43.2453 79.2811 46.294C77.528 49.3428 74.0047 50.5957 74.0047 50.5957L74.0047 50.5956C73.9864 50.5891 68.9836 48.8038 66.4921 44.4708C63.996 40.1299 64.9656 34.8758 64.9656 34.8758C64.9656 34.8758 69.9822 36.6597 72.4783 41.0006Z" fill="#4D9D20"/>
<path d="M26.6422 59.6V63.3H33.1222V65.9H26.6422V71H23.4022V57H33.9822V59.6H26.6422ZM45.0956 71L42.3956 67.1H42.2356H39.4156V71H36.1756V57H42.2356C43.4756 57 44.549 57.2067 45.4556 57.62C46.3756 58.0333 47.0823 58.62 47.5756 59.38C48.069 60.14 48.3156 61.04 48.3156 62.08C48.3156 63.12 48.0623 64.02 47.5556 64.78C47.0623 65.5267 46.3556 66.1 45.4356 66.5L48.5756 71H45.0956ZM45.0356 62.08C45.0356 61.2933 44.7823 60.6933 44.2756 60.28C43.769 59.8533 43.029 59.64 42.0556 59.64H39.4156V64.52H42.0556C43.029 64.52 43.769 64.3067 44.2756 63.88C44.7823 63.4533 45.0356 62.8533 45.0356 62.08ZM61.7227 68.4V71H50.8827V57H61.4627V59.6H54.1027V62.64H60.6027V65.16H54.1027V68.4H61.7227ZM75.1406 68.4V71H64.3006V57H74.8806V59.6H67.5206V62.64H74.0206V65.16H67.5206V68.4H75.1406Z" fill="#4B3209"/>
</g>
<defs>
<clipPath id="clip0">
<rect width="100" height="100" fill="white"/>
</clipPath>
</defs>
</svg>
