<svg width="200" height="100" viewBox="0 0 200 100" fill="none" xmlns="http://www.w3.org/2000/svg">
<g clip-path="url(#clip0)">
<rect width="200" height="100" fill="white"/>
<path d="M100.787 92.3252C103.291 91.316 107.121 88.898 109.624 88.919C110.212 88.919 110.155 90.1806 110.629 90.2647C112.127 90.538 112.525 89.739 113.663 89.1503C115.066 88.4144 114.042 88.3303 115.559 88.1411C116.242 88.0569 117.759 88.9611 118.612 88.9821C119.087 88.9821 121.647 88.9611 121.912 88.2882C122.557 86.6061 120.755 87.6574 120.774 86.2908C120.774 85.1133 125.344 85.702 125.591 86.5851C126.008 88.0569 123.201 87.8257 124.51 89.5288C128.018 86.0595 130.047 88.7929 133.934 88.0569C134.579 87.9308 135.11 86.9636 135.85 86.8585C136.912 86.7323 138.049 87.3421 139.073 87.5103C142.335 88.0569 141.69 87.6785 143.909 85.5338C143.055 84.6087 142.013 85.0292 141.178 83.9358C142.013 83.3261 142.657 83.8517 143.321 83.4102C143.757 83.1368 144.117 82.1907 144.44 82.0225C146.829 80.7819 144.364 80.9712 147.151 81.2655C147.076 81.2655 149.636 81.8332 149.408 81.644C149.996 82.1276 148.744 84.041 149.844 84.1251C151.323 84.2302 151.247 82.2748 152.177 82.1486C152.84 82.0645 153.485 83.3051 153.94 83.1789C154.945 82.9056 155.704 81.8963 156.898 81.4548C156.898 82.3589 156.424 83.6625 156.822 84.4405C158.226 82.6743 157.96 83.242 159.97 82.9686C159.363 81.4127 159.382 81.2865 159.781 79.6255C158.605 79.7306 156.614 80.004 155.779 78.9947C156.462 78.406 158.87 77.649 159.61 77.7962C161.089 78.0906 160.748 78.8265 161.544 79.6465C161.923 80.046 161.089 81.3076 162.018 81.4968C163.421 81.7912 162.36 80.2983 163.497 79.9619C165.697 79.3101 170.589 80.067 172.827 80.7188C173.794 81.0132 174.628 81.686 175.558 81.9804C176.051 82.1276 176.638 81.6019 177.094 81.7701C178.516 82.3168 179.862 83.242 180.791 84.5456C181.341 85.3025 180.696 86.5431 181.531 87.0267C182.327 87.4892 183.37 86.8374 184.205 87.1528C185.703 87.6995 185.608 88.7508 186.784 89.4447C188.414 90.3908 187.637 90.4749 189.495 90.3698C189.78 90.6432 190.083 90.8324 190.443 90.9375C190.898 91.295 191.183 91.0847 191.297 90.3067C191.486 89.9913 191.657 89.676 191.847 89.3816C192.434 89.4236 193.003 89.5498 193.553 89.7811C195.696 89.8021 197.915 92.3042 198.825 89.3606C199.09 88.4985 198.237 87.3841 198.427 86.3959C198.597 85.5128 200.114 84.4825 200.057 83.6625C199.678 78.7424 186.499 77.8383 183.787 74.6423C182.346 72.9392 182.119 69.4278 181.341 67.136C180.336 64.2134 179.161 61.4379 177.985 58.5994C177.549 57.5481 170.855 41.8837 170.191 42.6616C171.177 41.5052 174.761 41.7996 176.108 41.337C178.686 40.4539 179.198 40.2647 179.843 37.3841C180.45 34.7558 180.222 31.7701 180.753 29.0788C181.322 26.0931 182.346 23.2966 182.934 20.3109C184.205 13.8139 182.707 12.321 177.226 10.4287C171.917 8.57838 166.512 6.93835 160.975 6.11833C144.098 3.61623 126.766 3.27981 109.776 2.37569C93.1076 1.47157 76.4204 0.693608 59.7142 0.336164C51.143 0.167956 42.4202 -0.420774 33.8869 0.546425C30.1892 0.966946 24.1211 -0.168462 21.4284 3.09058C18.2996 6.85425 17.8634 14.1503 17.1239 18.8812C16.7257 21.4674 16.0809 24.1377 16.1757 26.7659C16.3085 30.4245 17.1808 30.1511 13.502 30.887C9.17849 31.7491 2.40879 31.7281 4.32403 38.2462C5.9169 43.6499 9.17849 51.5347 12.3453 55.9712C15.3983 60.2605 21.4664 61.1856 25.6002 63.6036C22.3386 65.4539 17.6738 65.4119 14.0709 66.0426C11.5109 66.4842 4.45677 66.7996 2.50361 68.7971C0.58837 70.7945 1.17622 75.189 0.986588 78.1537C0.740072 82.2117 0.455631 86.2697 0.209115 90.3488C0.0384506 93.1032 -0.492506 94.4489 1.11933 96.194C3.0156 98.2336 7.07363 99.0956 9.59567 99.2638C13.7296 99.5372 17.9203 99.4531 22.0542 99.5372C26.226 99.6213 31.1184 100.462 35.2143 99.7054C38.3053 99.1377 40.6377 96.9299 44.0131 97.0141C45.6628 97.0561 47.0092 97.8551 48.7158 97.5818C50.157 97.3715 51.2379 96.3833 52.7738 96.4464C55.9027 96.5725 58.6902 97.2033 61.9897 96.8879C65.896 96.5304 69.7645 96.2571 73.6708 95.7315C77.122 95.2689 80.5922 95.332 83.9865 95.2268C86.6034 95.1638 88.6703 94.554 91.1734 94.1755C92.406 93.9863 93.5248 94.7012 94.7763 94.3017C95.3073 94.1335 95.2125 92.7247 96.0089 92.6617C96.7105 92.5986 97.0708 94.1545 97.4121 94.1125C98.7775 93.9863 99.5928 92.8088 100.787 92.3252Z" fill="#C3D833"/>
<path d="M98.0363 18.7461C95.7413 19.5855 92.2551 21.5157 89.9296 21.5933C89.3836 21.6152 89.399 20.6804 88.9562 20.6359C87.5567 20.4896 87.2105 21.0951 86.1711 21.5727C84.8896 22.169 85.8432 22.193 84.4397 22.3894C83.8082 22.477 82.3723 21.8651 81.5791 21.8813C81.1388 21.8989 78.7617 22.0098 78.535 22.5171C77.986 23.7847 79.6281 22.9404 79.651 23.9515C79.6859 24.822 75.4237 24.5568 75.1685 23.9131C74.7374 22.8406 77.351 22.9071 76.0853 21.6967C72.9296 24.3921 70.9641 22.4468 67.3752 23.1356C66.7801 23.2529 66.3156 23.9877 65.6318 24.0929C64.6492 24.2257 63.5743 23.8173 62.6182 23.7311C59.5726 23.4483 60.1827 23.7041 58.1855 25.3723C59.0055 26.0245 59.9617 25.6747 60.7691 26.452C60.0122 26.9339 59.3978 26.5692 58.7944 26.9204C58.3974 27.1387 58.0908 27.8516 57.7964 27.988C55.6139 28.9941 57.898 28.7624 55.3001 28.6485C55.3706 28.6457 52.976 28.3213 53.1929 28.4527C52.6326 28.1171 53.7384 26.6559 52.7143 26.6347C51.3374 26.612 51.4658 28.0549 50.6065 28.1827C49.9925 28.2696 49.3569 27.3765 48.938 27.4867C48.0126 27.7262 47.3379 28.5005 46.2414 28.8715C46.2146 28.203 46.6163 27.2216 46.2234 26.6613C44.9724 28.0193 45.2021 27.5897 43.3432 27.8666C43.953 28.9943 43.9391 29.0883 43.6184 30.3311C44.7073 30.2096 46.5486 29.9334 47.3535 30.6485C46.7368 31.1092 44.5224 31.7584 43.8311 31.6772C42.4486 31.5146 42.7438 30.9578 41.9798 30.3812C41.6157 30.1 42.3533 29.1363 41.4846 29.031C40.1725 28.8656 41.2031 29.9297 40.1563 30.2208C38.1325 30.7845 33.5659 30.4071 31.4682 30.0085C30.5613 29.8268 29.7663 29.3605 28.8946 29.1774C28.4323 29.087 27.9018 29.4975 27.4741 29.3901C26.137 29.0388 24.859 28.405 23.9574 27.4758C23.4242 26.9367 23.9863 25.9956 23.1969 25.6691C22.4435 25.3568 21.4941 25.8775 20.7098 25.6754C19.3021 25.327 19.3591 24.5462 18.2465 24.077C16.7037 23.4382 17.4234 23.3471 15.7004 23.494C15.4281 23.3025 15.1407 23.1739 14.8029 23.1096C14.3696 22.8622 14.1117 23.0283 14.029 23.6077C13.8623 23.8479 13.7131 24.0874 13.5457 24.3121C12.9984 24.3029 12.4663 24.2308 11.9487 24.0803C9.95777 24.1445 7.82291 22.3773 7.06469 24.5874C6.84365 25.2346 7.66926 26.0267 7.5224 26.7644C7.39006 27.4236 6.01155 28.2418 6.08869 28.8459C6.58673 32.4692 18.8546 32.647 21.4679 34.9089C22.857 36.1143 23.1724 38.7018 23.9624 40.3672C24.9825 42.4905 26.1568 44.4986 27.3329 46.5534C27.7691 47.3144 34.4507 58.6459 35.0441 58.0461C34.1625 58.9377 30.8249 58.8535 29.5881 59.2456C27.2188 59.9945 26.7489 60.1535 26.2354 62.3071C25.7497 64.2727 26.0495 66.4716 25.6361 68.4811C25.1961 70.7096 24.3279 72.8151 23.8703 75.0444C22.8828 79.8949 24.3185 80.9428 29.4647 82.1378C34.4512 83.3081 39.5195 84.3194 44.6868 84.7195C60.4365 85.9411 76.5448 85.5446 92.3529 85.5806C107.862 85.6285 123.384 85.5825 138.912 85.2248C146.878 85.0301 154.997 85.1407 162.895 84.1079C166.317 83.6594 171.986 84.2729 174.391 81.7633C177.186 78.8643 177.375 73.4541 177.921 69.929C178.214 68.0022 178.734 66.0041 178.568 64.0645C178.337 61.3647 177.534 61.5993 180.93 60.9182C184.92 60.12 191.208 59.8835 189.236 55.136C187.597 51.2003 184.334 45.4925 181.261 42.3305C178.298 39.273 172.634 38.8149 168.723 37.1812C171.698 35.6919 176.032 35.5493 179.36 34.9488C181.724 34.5271 188.267 34.0313 190.022 32.4819C191.742 30.9339 191.065 27.7069 191.154 25.5081C191.262 22.4988 191.406 19.4881 191.515 16.4633C191.591 14.4206 192.045 13.406 190.496 12.1758C188.674 10.7385 184.879 10.2523 182.532 10.2218C178.684 10.1736 174.794 10.3918 170.952 10.4835C167.075 10.5766 162.506 10.1369 158.724 10.849C155.87 11.3838 153.769 13.1028 150.631 13.1663C149.097 13.1966 147.823 12.656 146.246 12.9216C144.914 13.1307 143.939 13.9015 142.51 13.9121C139.601 13.9353 136.993 13.5727 133.937 13.9287C130.32 14.3384 126.735 14.6845 123.122 15.2185C119.93 15.689 116.705 15.7715 113.556 15.9756C111.127 16.1196 109.225 16.6474 106.911 17.0203C105.772 17.2061 104.712 16.7193 103.561 17.0612C103.073 17.2053 103.203 18.2433 102.465 18.3195C101.815 18.3923 101.434 17.2554 101.119 17.2992C99.8541 17.4433 99.1316 18.3442 98.0363 18.7461Z" fill="#C3D833"/>
<path d="M100.281 8C102.512 11.5764 104.961 15.26 107.16 19.0836C109.367 22.9237 110.543 27.0687 109.134 31.5351C107.748 35.9274 103.431 38.5891 99.0164 37.8886C94.3686 37.147 91.1546 33.4305 91.0096 28.7333C90.8807 24.7284 92.0568 21.1932 94.2317 17.8805C96.3985 14.5595 98.3881 11.1067 100.281 8ZM106.266 32.0625C105.783 32.2933 105.485 32.4334 105.179 32.5817C103.672 33.3069 102.174 33.4882 100.813 32.3098C99.5078 31.1808 99.4836 29.681 99.822 28.0988C99.9508 27.5055 100.031 26.8874 100.007 26.2859C99.9106 23.9373 97.8565 22.6023 95.8588 23.7643C94.9486 24.2917 94.1028 25.297 93.692 26.2859C92.3467 29.4997 93.8772 33.1668 97.0349 34.7572C100.676 36.5949 104.035 35.6719 106.266 32.0625Z" fill="white"/>
<path d="M106.266 32.0623C104.043 35.6717 100.676 36.5946 97.0348 34.757C93.8772 33.1666 92.3467 29.4995 93.6919 26.2857C94.1027 25.2968 94.9566 24.2997 95.8588 23.7641C97.8565 22.6021 99.9105 23.9289 100.007 26.2857C100.031 26.8872 99.9508 27.5053 99.8219 28.0986C99.4836 29.6808 99.5078 31.1723 100.813 32.3095C102.174 33.4879 103.672 33.3067 105.179 32.5815C105.477 32.4332 105.783 32.2931 106.266 32.0623Z" fill="#C3D833"/>
<path d="M43.7559 65.541C42.4961 65.563 41.3824 65.3624 40.4149 64.9392C39.4473 64.516 38.6968 63.919 38.1633 63.1482C37.6294 62.3574 37.3534 61.4421 37.3352 60.4023C37.3199 59.5224 37.4859 58.7194 37.8333 57.9932C38.2006 57.2667 38.6906 56.688 39.3032 56.2573C39.9358 55.8262 40.632 55.604 41.3919 55.5907C42.0918 55.5785 42.6848 55.7482 43.171 56.0998C43.6569 56.4313 43.9652 56.906 44.096 57.5238C43.0562 57.542 42.2312 57.8364 41.6211 58.4072C41.0106 58.9579 40.7135 59.7032 40.7299 60.6431C40.745 61.5029 41.017 62.1883 41.546 62.6991C42.0749 63.21 42.7694 63.4579 43.6292 63.4429C44.6891 63.4244 45.5528 63.0593 46.2205 62.3475C46.9079 61.6154 47.2421 60.7094 47.2232 59.6296C47.2068 58.6897 46.9313 57.8044 46.3968 56.9736C45.8622 56.1428 45.0645 55.1366 44.0037 53.9549C42.9022 52.7339 42.0639 51.6884 41.4886 50.8183C40.933 49.9279 40.6459 48.9527 40.6274 47.8929C40.6093 46.8531 40.883 45.9181 41.4486 45.0881C42.0138 44.2382 42.8022 43.5643 43.8137 43.0666C44.8251 42.5688 45.9708 42.3088 47.2506 42.2865C48.8703 42.2582 50.1668 42.6156 51.1399 43.3587C52.133 44.1015 52.6407 45.1128 52.6631 46.3926C52.6777 47.2325 52.4796 47.9161 52.0688 48.4433C51.6579 48.9706 51.1125 49.2401 50.4326 49.252C49.6727 49.2652 49.0574 48.9659 48.5867 48.3541C48.9617 48.0675 49.2552 47.6923 49.4672 47.2285C49.6791 46.7648 49.7807 46.2829 49.772 45.783C49.7608 45.1431 49.5619 44.6365 49.1754 44.2632C48.7888 43.8899 48.2656 43.709 47.6057 43.7205C46.8058 43.7344 46.1509 44.0359 45.6411 44.6249C45.151 45.1935 44.9136 45.9178 44.9289 46.7977C44.9429 47.5975 45.186 48.3434 45.6581 49.0353C46.1299 49.7071 46.8652 50.5744 47.8639 51.6372C48.6787 52.4831 49.3316 53.2118 49.8223 53.8233C50.3331 54.4345 50.7656 55.1471 51.1198 55.961C51.4937 56.7546 51.6889 57.6213 51.7053 58.5612C51.7276 59.841 51.3879 61.0071 50.6862 62.0595C50.0044 63.1116 49.0489 63.9484 47.8196 64.5699C46.6102 65.1911 45.2557 65.5148 43.7559 65.541ZM57.8858 64.8743C56.406 64.9001 55.2295 64.5406 54.3564 63.7957C53.4833 63.0508 53.0324 61.8585 53.0038 60.2188C52.98 58.859 53.2337 57.3443 53.7646 55.6748C54.2955 54.0053 55.1704 52.5598 56.3893 51.3383C57.6078 50.0969 59.157 49.4598 61.0367 49.4269C63.5963 49.3823 64.904 50.9597 64.9599 54.1592L64.9604 54.1892C65.0207 54.2081 65.1309 54.2162 65.2908 54.2134C65.9507 54.2019 66.7077 54.0187 67.5616 53.6637C68.4152 53.2888 69.1876 52.8452 69.8787 52.3331L70.1628 53.1382C69.5937 53.7683 68.8431 54.3115 67.9109 54.7678C66.9984 55.2038 65.9938 55.5214 64.8971 55.7205C64.7689 57.543 64.3867 59.14 63.7505 60.5113C63.1144 61.8826 62.2828 62.9473 61.2559 63.7053C60.229 64.4633 59.1056 64.853 57.8858 64.8743ZM59.0385 62.1538C59.5184 62.1454 59.9936 61.867 60.4641 61.3188C60.9343 60.7505 61.3411 59.9932 61.6847 59.0471C62.0278 58.081 62.2693 57.0166 62.409 55.854C61.867 55.7434 61.5897 55.3282 61.5772 54.6083C61.5629 53.7884 61.8634 53.2431 62.4788 52.9723C62.4272 52.3131 62.3194 51.8649 62.1552 51.6278C61.9907 51.3706 61.7085 51.2455 61.3086 51.2525C60.6487 51.264 60.0171 51.7551 59.414 52.7258C58.8108 53.6964 58.331 54.855 57.9744 56.2014C57.6179 57.5479 57.4485 58.731 57.4663 59.7508C57.4831 60.7107 57.6044 61.3587 57.8303 61.6948C58.0558 62.0109 58.4586 62.1639 59.0385 62.1538ZM69.6586 64.7288C68.6988 64.7456 67.9137 64.4592 67.3033 63.8698C66.7129 63.28 66.4072 62.3852 66.3863 61.1854C66.3776 60.6855 66.4462 60.0342 66.5922 59.2315L68.4638 49.5673L72.7832 49.492L70.8015 59.7281C70.7468 60.0291 70.7217 60.3096 70.7262 60.5695C70.7405 61.3894 71.0476 61.7941 71.6475 61.7836C72.2074 61.7739 72.6834 61.5355 73.0753 61.0686C73.4668 60.5817 73.7754 59.9262 74.0011 59.1022L75.8727 49.438L80.1921 49.3626L78.2104 59.5988C78.1356 59.9001 78.1012 60.2208 78.1072 60.5607C78.1142 60.9607 78.2092 61.249 78.3923 61.4259C78.5951 61.5824 78.9164 61.6568 79.3564 61.6491C79.9163 61.6393 80.392 61.391 80.7836 60.9041C81.1951 60.4168 81.5139 59.7711 81.7399 58.9671L82.9997 58.9451C82.2975 61.1177 81.4033 62.6035 80.3171 63.4026C79.2505 64.1813 78.1673 64.5803 77.0675 64.5995C76.2076 64.6145 75.5135 64.3866 74.9852 63.9157C74.4769 63.4445 74.1646 62.7399 74.0482 61.8017C73.3875 62.9134 72.6807 63.6759 71.9278 64.0891C71.1949 64.502 70.4385 64.7152 69.6586 64.7288ZM83.608 49.303L87.9274 49.2276L87.5699 51.0941C88.2393 50.4824 88.8412 50.0118 89.3755 49.6824C89.9298 49.3527 90.527 49.1822 91.1669 49.1711C91.8068 49.1599 92.3105 49.3711 92.6782 49.8048C93.0658 50.2381 93.265 50.7647 93.2758 51.3846C93.2859 51.9645 93.1049 52.4777 92.7326 52.9243C92.3603 53.3709 91.8343 53.6001 91.1544 53.612C90.7144 53.6196 90.4127 53.5249 90.2493 53.3277C90.1055 53.1102 89.9901 52.8022 89.9031 52.4036C89.8386 52.1447 89.7753 51.9558 89.7132 51.8368C89.6511 51.7179 89.5401 51.6598 89.3801 51.6626C88.9601 51.67 88.6018 51.7662 88.305 51.9514C88.0278 52.1163 87.6629 52.4127 87.2103 52.8407L85.0096 64.2808L80.6903 64.3562L83.608 49.303ZM96.7103 64.2566C95.5705 64.2765 94.6138 63.9032 93.8403 63.1365C93.0668 62.3699 92.6656 61.1567 92.6366 59.497C92.6108 58.0172 92.8737 56.4624 93.4253 54.8325C93.9966 53.1823 94.8524 51.7871 95.9927 50.6471C97.1526 49.4866 98.5424 48.8923 100.162 48.864C100.982 48.8497 101.594 48.979 101.999 49.252C102.404 49.525 102.61 49.8915 102.619 50.3514L102.621 50.4714L103.97 43.5468L108.399 42.8694L105.232 59.1271C105.157 59.4285 105.123 59.7491 105.129 60.0891C105.136 60.489 105.231 60.7774 105.414 60.9542C105.617 61.1107 105.938 61.1851 106.378 61.1774C106.938 61.1676 107.414 60.9193 107.805 60.4324C108.217 59.9451 108.536 59.2995 108.762 58.4954L110.021 58.4734C108.864 62.0742 106.886 63.899 104.086 63.9478C103.266 63.9622 102.592 63.7539 102.065 63.323C101.557 62.8918 101.236 62.2573 101.101 61.4195C100.595 62.2285 99.9771 62.8994 99.2463 63.4322C98.5355 63.9647 97.6901 64.2395 96.7103 64.2566ZM98.6092 61.313C99.0891 61.3046 99.5652 61.0763 100.037 60.628C100.53 60.1793 100.859 59.5635 101.025 58.7805L101.023 58.6305L102.373 51.7359C102.18 51.0391 101.764 50.6963 101.124 50.7075C100.325 50.7215 99.6129 51.204 98.9894 52.155C98.3656 53.086 97.8852 54.2146 97.5483 55.5407C97.211 56.8467 97.0511 57.9997 97.0686 58.9996C97.086 59.9994 97.2372 60.6369 97.522 60.9119C97.8269 61.1867 98.1893 61.3204 98.6092 61.313ZM113.248 63.9079C111.769 63.9338 110.592 63.5742 109.719 62.8294C108.846 62.0845 108.395 60.8922 108.366 59.2524C108.343 57.8926 108.596 56.378 109.127 54.7085C109.658 53.0389 110.533 51.5934 111.752 50.372C112.97 49.1305 114.52 48.4934 116.399 48.4606C118.959 48.4159 120.267 49.9933 120.323 53.1928L120.323 53.2228C120.383 53.2418 120.494 53.2499 120.654 53.2471C121.313 53.2356 122.07 53.0523 122.924 52.6974C123.778 52.3224 124.55 51.8789 125.241 51.3667L125.525 52.1719C124.956 52.8019 124.206 53.3451 123.274 53.8014C122.361 54.2374 121.356 54.555 120.26 54.7542C120.132 56.5767 119.749 58.1736 119.113 59.5449C118.477 60.9162 117.645 61.9809 116.619 62.7389C115.592 63.497 114.468 63.8866 113.248 63.9079ZM114.401 61.1874C114.881 61.179 115.356 60.9007 115.827 60.3524C116.297 59.7841 116.704 59.0269 117.047 58.0807C117.391 57.1146 117.632 56.0502 117.772 54.8876C117.23 54.7771 116.952 54.3618 116.94 53.6419C116.926 52.8221 117.226 52.2767 117.841 52.006C117.79 51.3468 117.682 50.8986 117.518 50.6614C117.353 50.4042 117.071 50.2791 116.671 50.2861C116.011 50.2976 115.38 50.7887 114.777 51.7594C114.173 52.7301 113.694 53.8886 113.337 55.2351C112.981 56.5815 112.811 57.7646 112.829 58.7845C112.846 59.7443 112.967 60.3923 113.193 60.7284C113.418 61.0445 113.821 61.1975 114.401 61.1874ZM125.021 63.7624C124.061 63.7792 123.276 63.4929 122.666 62.9034C122.076 62.3136 121.77 61.4188 121.749 60.219C121.74 59.7191 121.809 59.0678 121.955 58.2651L123.827 48.601L128.146 48.5256L126.164 58.7617C126.109 59.0627 126.084 59.3432 126.089 59.6032C126.103 60.4231 126.41 60.8278 127.01 60.8173C127.57 60.8075 128.046 60.5692 128.438 60.1023C128.829 59.6154 129.138 58.9599 129.364 58.1358L131.235 48.4717L135.555 48.3963L133.573 58.6324C133.498 58.9338 133.464 59.2544 133.47 59.5944C133.477 59.9943 133.572 60.2827 133.755 60.4595C133.958 60.616 134.279 60.6904 134.719 60.6827C135.279 60.673 135.755 60.4246 136.146 59.9377C136.558 59.4504 136.877 58.8048 137.103 58.0007L138.362 57.9787C137.66 60.1513 136.766 61.6371 135.68 62.4362C134.613 63.215 133.53 63.6139 132.43 63.6331C131.57 63.6481 130.876 63.4202 130.348 62.9494C129.84 62.4782 129.527 61.7735 129.411 60.8354C128.75 61.9471 128.043 62.7095 127.29 63.1227C126.558 63.5356 125.801 63.7488 125.021 63.7624ZM142.633 70.7761C141.673 70.7929 140.869 70.5569 140.22 70.0681C139.572 69.5794 139.239 68.8651 139.223 67.9252C139.203 66.7854 139.647 65.8575 140.554 65.1416C141.462 64.4456 142.622 63.8553 144.034 63.3706L144.366 61.7745C143.365 62.8922 142.175 63.463 140.795 63.4871C139.656 63.507 138.699 63.1336 137.925 62.367C137.152 61.6004 136.751 60.3872 136.722 58.7275C136.696 57.2477 136.959 55.6929 137.51 54.063C138.082 52.4128 138.937 51.0176 140.078 49.8776C141.238 48.7171 142.628 48.1228 144.247 48.0945C145.067 48.0802 145.679 48.2095 146.084 48.4825C146.489 48.7555 146.696 49.1219 146.704 49.5819L146.707 49.7618L147.009 48.1963L151.329 48.1209L148.602 62.0906C149.556 61.7539 150.318 61.2606 150.887 60.6106C151.455 59.9605 151.929 59.0021 152.307 57.7353L153.567 57.7133C153.058 59.5025 152.351 60.825 151.445 61.681C150.54 62.5169 149.51 63.095 148.355 63.4152L147.943 65.5827C147.577 67.5294 146.91 68.8712 145.943 69.6082C144.976 70.3652 143.873 70.7545 142.633 70.7761ZM142.694 60.5435C143.154 60.5355 143.62 60.3173 144.093 59.889C144.566 59.4607 144.886 58.885 145.053 58.162L146.459 51.0264C146.455 50.7864 146.35 50.5482 146.146 50.3117C145.942 50.0552 145.63 49.9307 145.21 49.938C144.41 49.952 143.698 50.4345 143.075 51.3855C142.451 52.3165 141.97 53.4451 141.633 54.7712C141.296 56.0772 141.136 57.2302 141.154 58.2301C141.171 59.2299 141.322 59.8674 141.607 60.1424C141.912 60.4172 142.274 60.5508 142.694 60.5435ZM141.902 68.4485C142.242 68.4426 142.568 68.2069 142.88 67.7414C143.192 67.2759 143.43 66.6116 143.595 65.7486L143.76 64.8756C141.813 65.6297 140.848 66.4966 140.865 67.4765C140.87 67.7365 140.964 67.9649 141.147 68.1617C141.33 68.3585 141.582 68.4541 141.902 68.4485ZM162.687 63.105C161.627 63.1235 160.852 62.817 160.361 62.1854C159.87 61.5539 159.616 60.7482 159.598 59.7684C159.591 59.3484 159.633 58.8776 159.724 58.356C159.814 57.8143 159.905 57.2927 159.997 56.791C160.108 56.289 160.182 55.9676 160.22 55.8269C160.367 55.1243 160.505 54.4317 160.634 53.7494C160.762 53.0671 160.822 52.5159 160.815 52.096C160.797 51.0761 160.428 50.5725 159.708 50.5851C159.228 50.5934 158.792 50.8211 158.4 51.268C158.028 51.7146 157.728 52.2999 157.5 53.024L155.545 63.0496L151.226 63.125L155.219 42.6522L159.648 41.9748L158.16 49.5319C159.14 48.4147 160.3 47.8443 161.64 47.8209C162.66 47.8031 163.475 48.0689 164.084 48.6184C164.694 49.1678 165.009 50.0125 165.029 51.1523C165.039 51.7322 164.98 52.3833 164.853 53.1057C164.725 53.808 164.54 54.6714 164.298 55.6957C164.149 56.3184 164.01 56.931 163.88 57.5333C163.77 58.1153 163.718 58.5763 163.724 58.9162C163.731 59.3162 163.827 59.6246 164.01 59.8414C164.194 60.0582 164.506 60.1628 164.946 60.1551C165.426 60.1467 165.755 60.081 165.933 59.9579C165.831 60.9798 165.474 61.7561 164.863 62.2869C164.272 62.8173 163.547 63.09 162.687 63.105Z" fill="#4B3209"/>
</g>
<defs>
<clipPath id="clip0">
<rect width="200" height="100" fill="white"/>
</clipPath>
</defs>
</svg>
