<svg width="100" height="100" viewBox="0 0 100 100" fill="none" xmlns="http://www.w3.org/2000/svg">
<g clip-path="url(#clip0)">
<path d="M34.0206 98.5134H49.7584C49.7584 98.3861 49.7584 98.2587 49.7978 98.0996C55.0218 98.4816 60.2328 98.8954 65.4568 99.2456C69.4077 99.5003 73.3585 99.7391 77.3094 99.8664C78.3463 99.8982 79.3964 99.4685 80.4464 99.2775C82.1265 98.975 83.8066 98.7044 85.4867 98.4179C85.5524 98.4179 85.6049 98.3542 85.6705 98.3383C86.9437 97.9085 88.1906 97.3514 89.4901 97.0808C90.527 96.8739 91.7346 97.3355 92.6665 96.8898C94.2679 96.1099 95.6986 95.7597 97.2212 96.9376C97.3918 97.049 97.7068 96.9853 97.9168 96.9057C98.4418 96.6988 98.9537 96.4442 99.4655 96.1895L99.4657 96.1894C99.6232 96.1099 99.8069 95.9507 99.8857 95.7756C100.293 94.741 99.5313 91.7325 98.8881 90.8571C98.1531 89.8702 97.5624 88.7082 96.9849 87.5621L96.9329 87.4618C96.1491 85.9505 95.3565 84.4224 94.7273 82.8028C94.2022 81.4498 92.4696 80.7494 93.2309 78.7279C93.244 78.6961 93.2047 78.6324 93.1915 78.5846C92.8109 77.5659 92.3121 76.5949 92.0496 75.5444C91.4721 73.2682 91.0389 72.6792 89.2669 72.2813C89.1882 72.2654 89.0963 72.2017 89.0569 72.1221C88.5844 71.3262 88.0594 70.5463 87.6525 69.6867C87.3112 68.9704 87.1931 68.0631 86.7993 67.3946C85.9461 65.9302 84.8829 64.6249 84.0823 63.1128C83.2947 61.6484 82.7959 59.977 82.0609 58.4648C81.2996 56.9049 80.4333 55.4087 79.5539 53.9443C78.3069 51.8909 76.9419 49.9171 75.7212 47.8319C74.8942 46.3993 74.2117 44.8553 73.4767 43.3432C73.0304 42.4359 72.7022 41.4171 72.1772 40.5735C70.799 38.3291 69.3158 36.1962 67.9507 33.9518C67.0975 32.5511 66.415 31.023 65.6406 29.5586C65.2337 28.7945 64.7349 28.0941 64.3674 27.2983C63.6586 25.7383 63.2779 23.7964 62.2673 22.6185C60.7972 20.9153 60.574 18.3048 58.8283 16.8404C57.8701 16.0446 57.227 14.6597 56.4788 13.4977C56.0063 12.7815 55.5469 12.0333 55.1662 11.2375C54.2474 9.35918 53.4336 7.3854 52.4623 5.55488C51.7667 4.24965 50.7166 3.18317 50.1259 1.83018C49.2334 -0.239107 47.7502 -0.191355 46.372 0.238419C45.4925 0.509018 44.6131 1.46407 44.0881 2.40321C43.6156 3.26276 43.4449 4.52024 43.4712 5.58672C43.5368 8.05394 41.9355 9.40693 41.1348 11.2852C40.5966 12.5586 39.7697 13.6569 39.1134 14.8826C38.549 15.949 38.1421 17.1588 37.4858 18.1138C36.5145 19.5305 35.2938 20.6925 34.3225 22.0932C33.6925 23.0164 33.3643 24.2262 32.8131 25.229C31.8417 27.0117 30.8179 28.7468 29.7941 30.4977C28.7834 32.2168 27.7203 33.9041 26.7358 35.655C26.027 36.9125 25.397 38.2655 24.7013 39.5548C23.9794 40.8759 23.1656 42.1334 22.4962 43.5023C21.9843 44.537 21.6693 45.7149 21.1836 46.7814C20.908 47.3703 20.3961 47.8001 20.0942 48.3731C19.1623 50.124 18.506 52.1933 17.3115 53.61C15.8283 55.3928 15.3558 57.653 14.5026 59.7382C14.0432 60.8843 13.6101 62.0622 13.1638 63.2242C13.1375 63.2879 10.0399 70.0369 10.0005 70.0051C9.39672 70.8965 8.83229 72.1699 8.39914 73.2204C8.01849 74.1596 7.82161 75.226 7.40158 76.1492C6.75842 77.5818 5.984 78.9348 5.26208 80.3196C4.68455 81.418 4.14639 82.5322 3.55573 83.6146C3.14884 84.3468 2.45317 84.9676 2.28254 85.7635C1.90189 87.5462 1.84939 89.4404 1.52124 91.2391C1.31123 92.3852 0.87808 93.4994 0.44493 94.5659C0.0511576 95.5209 -0.447621 96.5715 0.759949 96.9694C2.07252 97.4151 3.47698 97.5743 4.85519 97.6698C7.13907 97.813 9.4492 97.7494 11.7331 97.9085C12.4025 97.9563 13.0325 98.593 13.7019 98.7044C15.0933 98.9432 16.4977 99.0228 17.9022 99.1342C17.9941 99.1342 18.0728 98.7363 18.2041 98.5771C18.4141 98.3224 18.6635 97.8926 18.8866 97.9085C19.8842 97.9881 20.9605 98.02 21.3018 99.5958C21.3411 99.7709 21.643 99.9619 21.8268 99.9619C24.0844 99.9937 26.3552 100.01 28.6128 99.9938C28.8097 99.9938 29.0066 99.6595 29.2035 99.4844C29.5841 99.166 29.9516 98.593 30.3585 98.5452C31.5792 98.4338 32.7999 98.5134 34.0206 98.5134Z" fill="#D3C28C"/>
<path d="M45.8861 21.028C45.8861 20.6973 45.9894 20.4493 46.1961 20.284C46.4027 20.1187 46.6507 20.036 46.9401 20.036C47.2087 20.036 47.4464 20.129 47.6531 20.315C47.8597 20.4803 47.9631 20.718 47.9631 21.028V38.605C47.9631 38.915 47.8597 39.163 47.6531 39.349C47.4464 39.535 47.1984 39.628 46.9091 39.628C46.7024 39.628 46.5061 39.566 46.3201 39.442C46.1341 39.2973 46.0101 39.1113 45.9481 38.884L42.8791 28.375V38.884C42.8791 39.194 42.7757 39.4317 42.5691 39.597C42.3624 39.7623 42.1247 39.845 41.8561 39.845C41.5667 39.845 41.3187 39.7623 41.1121 39.597C40.9054 39.4317 40.8021 39.194 40.8021 38.884V21.183C40.8021 20.873 40.9054 20.625 41.1121 20.439C41.3187 20.253 41.5667 20.16 41.8561 20.16C42.0627 20.16 42.2591 20.2323 42.4451 20.377C42.6311 20.501 42.7551 20.6767 42.8171 20.904L45.8861 31.413V21.028ZM56.4886 26.329C56.5919 27.135 56.6436 28.096 56.6436 29.212C56.6436 30.0593 56.6229 30.7 56.5816 31.134C56.4576 32.9733 56.2612 34.389 55.9926 35.381L55.7446 36.218C55.5999 36.776 55.4552 37.2617 55.3106 37.675C55.1866 38.0677 55.0109 38.419 54.7836 38.729C54.2256 39.535 53.5332 39.938 52.7066 39.938C52.2519 39.938 51.8179 39.8347 51.4046 39.628C51.1359 39.504 50.9706 39.3283 50.9086 39.101C50.6812 38.7703 50.5056 38.4087 50.3816 38.016C50.2576 37.6233 50.1336 37.148 50.0096 36.59C49.7822 35.4947 49.6169 34.2857 49.5136 32.963C49.3069 30.9377 49.2036 29.367 49.2036 28.251C49.2036 27.9203 49.2242 27.4243 49.2656 26.763C49.3896 25.0477 49.6479 23.663 50.0406 22.609C50.3299 21.8857 50.6606 21.2967 51.0326 20.842C51.4252 20.3667 51.9316 20.129 52.5516 20.129C53.1096 20.129 53.6262 20.3253 54.1016 20.718C54.5769 21.1107 54.9592 21.586 55.2486 22.144C55.8479 23.198 56.2612 24.593 56.4886 26.329ZM54.1326 34.141C54.4632 32.4463 54.6286 30.8033 54.6286 29.212C54.6286 27.7033 54.4839 26.36 54.1946 25.182C54.0292 24.5 53.8329 23.8903 53.6056 23.353C53.3782 22.8157 53.0579 22.4333 52.6446 22.206H52.6136L52.4586 22.361C52.2106 22.7537 52.0039 23.2083 51.8386 23.725C51.4872 24.965 51.3116 26.4117 51.3116 28.065C51.3116 28.7263 51.3529 29.739 51.4356 31.103C51.5596 32.963 51.7042 34.3477 51.8696 35.257C51.9729 35.8977 52.0762 36.4143 52.1796 36.807C52.2829 37.1997 52.4276 37.5717 52.6136 37.923C52.6549 37.923 52.6859 37.9333 52.7066 37.954V37.923H52.7376L52.7996 37.892C52.8822 37.8093 52.9236 37.768 52.9236 37.768C53.0889 37.5613 53.2542 37.241 53.4196 36.807C53.7916 35.6703 54.0292 34.7817 54.1326 34.141Z" fill="#4B3209"/>
<path d="M35.8908 64.446C35.9114 64.756 35.8288 64.9937 35.6428 65.159C35.4568 65.3243 35.2191 65.407 34.9298 65.407C34.6404 65.407 34.3821 65.3243 34.1548 65.159C33.9274 64.9937 33.8034 64.756 33.7828 64.446L33.3178 59.548H29.8458C29.5564 61.78 29.3601 63.4127 29.2568 64.446C29.2361 64.756 29.1121 64.9937 28.8848 65.159C28.6574 65.3243 28.3991 65.407 28.1098 65.407C27.8204 65.407 27.5828 65.3243 27.3968 65.159C27.2108 64.9937 27.1281 64.756 27.1488 64.446C27.3968 62.152 27.7068 59.8063 28.0788 57.409C28.4508 54.9497 28.8124 52.883 29.1638 51.209C29.5151 49.535 30.0008 47.923 30.6208 46.373C30.8481 45.8563 31.1891 45.598 31.6438 45.598H33.1008C33.3901 45.598 33.6278 45.7013 33.8138 45.908C33.9998 46.1147 34.1134 46.3627 34.1548 46.652L35.8908 64.446ZM33.1008 57.471C32.9148 55.3837 32.6151 52.2733 32.2018 48.14C31.7471 49.4627 31.3751 50.837 31.0858 52.263C30.7964 53.689 30.4864 55.425 30.1558 57.471H33.1008ZM42.7975 46.745C43.5621 47.6337 44.0685 48.6773 44.3165 49.876C44.5851 51.054 44.7195 52.4077 44.7195 53.937V55.053C44.6781 57.1403 44.5541 58.7833 44.3475 59.982C44.1201 61.3047 43.7791 62.3587 43.3245 63.144C42.8491 63.9293 42.2188 64.508 41.4335 64.88C40.6481 65.2313 39.7698 65.3863 38.7985 65.345C38.5505 65.3037 38.3851 65.252 38.3025 65.19C37.9305 65.004 37.7445 64.7043 37.7445 64.291V46.373C37.7445 46.1457 37.8168 45.939 37.9615 45.753C38.1061 45.567 38.2921 45.443 38.5195 45.381C38.6641 45.3397 38.9018 45.2983 39.2325 45.257C39.8938 45.2157 40.5448 45.3293 41.1855 45.598C41.8261 45.8667 42.3635 46.249 42.7975 46.745ZM42.4875 57.998C42.5908 56.696 42.6425 55.487 42.6425 54.371C42.6425 53.6063 42.6321 53.038 42.6115 52.666C42.5288 51.0747 42.2498 49.8243 41.7745 48.915C41.5678 48.543 41.3715 48.264 41.1855 48.078C40.9995 47.8713 40.7618 47.6957 40.4725 47.551L40.3795 47.52L40.2555 47.489C40.1728 47.4477 40.0488 47.4063 39.8835 47.365H39.8215V63.237L39.9145 63.206C40.1211 63.1647 40.2968 63.1233 40.4415 63.082C40.4415 63.0613 40.4621 63.051 40.5035 63.051L40.7205 62.927L40.8755 62.834C40.9375 62.772 40.9788 62.741 40.9995 62.741C41.0201 62.7203 41.0718 62.6583 41.1545 62.555C41.2578 62.4517 41.2991 62.4207 41.2785 62.462C41.5471 62.09 41.7125 61.78 41.7745 61.532C42.1465 60.5813 42.3841 59.4033 42.4875 57.998ZM51.6373 46.745C52.402 47.6337 52.9083 48.6773 53.1563 49.876C53.425 51.054 53.5593 52.4077 53.5593 53.937V55.053C53.518 57.1403 53.394 58.7833 53.1873 59.982C52.96 61.3047 52.619 62.3587 52.1643 63.144C51.689 63.9293 51.0586 64.508 50.2733 64.88C49.488 65.2313 48.6096 65.3863 47.6383 65.345C47.3903 65.3037 47.225 65.252 47.1423 65.19C46.7703 65.004 46.5843 64.7043 46.5843 64.291V46.373C46.5843 46.1457 46.6566 45.939 46.8013 45.753C46.946 45.567 47.132 45.443 47.3593 45.381C47.504 45.3397 47.7416 45.2983 48.0723 45.257C48.7336 45.2157 49.3846 45.3293 50.0253 45.598C50.666 45.8667 51.2033 46.249 51.6373 46.745ZM51.3273 57.998C51.4306 56.696 51.4823 55.487 51.4823 54.371C51.4823 53.6063 51.472 53.038 51.4513 52.666C51.3686 51.0747 51.0896 49.8243 50.6143 48.915C50.4076 48.543 50.2113 48.264 50.0253 48.078C49.8393 47.8713 49.6016 47.6957 49.3123 47.551L49.2193 47.52L49.0953 47.489C49.0126 47.4477 48.8886 47.4063 48.7233 47.365H48.6613V63.237L48.7543 63.206C48.961 63.1647 49.1366 63.1233 49.2813 63.082C49.2813 63.0613 49.302 63.051 49.3433 63.051L49.5603 62.927L49.7153 62.834C49.7773 62.772 49.8186 62.741 49.8393 62.741C49.86 62.7203 49.9116 62.6583 49.9943 62.555C50.0976 62.4517 50.139 62.4207 50.1183 62.462C50.387 62.09 50.5523 61.78 50.6143 61.532C50.9863 60.5813 51.224 59.4033 51.3273 57.998ZM60.0121 63.206C60.3221 63.206 60.5598 63.3093 60.7251 63.516C60.9111 63.7227 61.0041 63.9603 61.0041 64.229C61.0041 64.5183 60.9215 64.7663 60.7561 64.973C60.5908 65.1797 60.3428 65.283 60.0121 65.283H56.4471C56.1785 65.283 55.9408 65.1797 55.7341 64.973C55.5275 64.7663 55.4241 64.5183 55.4241 64.229V46.559C55.4241 46.2697 55.5275 46.032 55.7341 45.846C55.9408 45.6393 56.1785 45.536 56.4471 45.536H60.0121C60.3221 45.536 60.5598 45.6393 60.7251 45.846C60.9111 46.0527 61.0041 46.2903 61.0041 46.559C61.0041 46.8483 60.9111 47.0963 60.7251 47.303C60.5598 47.5097 60.3221 47.613 60.0121 47.613H57.4701V55.58H59.6091C59.9191 55.58 60.1568 55.6833 60.3221 55.89C60.5081 56.0967 60.6011 56.3343 60.6011 56.603C60.6011 56.8923 60.5185 57.1403 60.3531 57.347C60.1878 57.5537 59.9398 57.657 59.6091 57.657H57.4701V63.206H60.0121ZM67.9244 46.745C68.6891 47.6337 69.1954 48.6773 69.4434 49.876C69.7121 51.054 69.8464 52.4077 69.8464 53.937V55.053C69.8051 57.1403 69.6811 58.7833 69.4744 59.982C69.2471 61.3047 68.9061 62.3587 68.4514 63.144C67.9761 63.9293 67.3457 64.508 66.5604 64.88C65.7751 65.2313 64.8967 65.3863 63.9254 65.345C63.6774 65.3037 63.5121 65.252 63.4294 65.19C63.0574 65.004 62.8714 64.7043 62.8714 64.291V46.373C62.8714 46.1457 62.9437 45.939 63.0884 45.753C63.2331 45.567 63.4191 45.443 63.6464 45.381C63.7911 45.3397 64.0287 45.2983 64.3594 45.257C65.0207 45.2157 65.6717 45.3293 66.3124 45.598C66.9531 45.8667 67.4904 46.249 67.9244 46.745ZM67.6144 57.998C67.7177 56.696 67.7694 55.487 67.7694 54.371C67.7694 53.6063 67.7591 53.038 67.7384 52.666C67.6557 51.0747 67.3767 49.8243 66.9014 48.915C66.6947 48.543 66.4984 48.264 66.3124 48.078C66.1264 47.8713 65.8887 47.6957 65.5994 47.551L65.5064 47.52L65.3824 47.489C65.2997 47.4477 65.1757 47.4063 65.0104 47.365H64.9484V63.237L65.0414 63.206C65.2481 63.1647 65.4237 63.1233 65.5684 63.082C65.5684 63.0613 65.5891 63.051 65.6304 63.051L65.8474 62.927L66.0024 62.834C66.0644 62.772 66.1057 62.741 66.1264 62.741C66.1471 62.7203 66.1987 62.6583 66.2814 62.555C66.3847 62.4517 66.4261 62.4207 66.4054 62.462C66.6741 62.09 66.8394 61.78 66.9014 61.532C67.2734 60.5813 67.5111 59.4033 67.6144 57.998Z" fill="#4B3209"/>
<path d="M26.8759 82.196C27.4959 83.436 27.8059 84.6553 27.8059 85.854C27.8059 86.04 27.7853 86.3397 27.7439 86.753C27.6199 87.7863 27.2583 88.7267 26.6589 89.574C26.0803 90.4007 25.3363 90.814 24.4269 90.814C24.2203 90.814 23.9929 90.783 23.7449 90.721C22.7736 90.473 22.0813 89.8943 21.6679 88.985C21.2753 88.055 21.0789 86.9907 21.0789 85.792C21.0789 85.5233 21.0996 85.141 21.1409 84.645C21.1823 84.3557 21.2856 84.118 21.4509 83.932C21.6369 83.7253 21.8746 83.622 22.1639 83.622C22.4326 83.622 22.6806 83.7253 22.9079 83.932C23.1353 84.1387 23.2386 84.3763 23.2179 84.645C23.1559 85.079 23.1249 85.5233 23.1249 85.978C23.1249 86.784 23.2489 87.4247 23.4969 87.9C23.5796 88.1067 23.6829 88.272 23.8069 88.396C23.8483 88.458 23.8999 88.5097 23.9619 88.551C23.9619 88.5717 23.9723 88.5923 23.9929 88.613C24.0343 88.6337 24.0653 88.644 24.0859 88.644C24.1066 88.6647 24.1273 88.6853 24.1479 88.706C24.1893 88.706 24.2203 88.706 24.2409 88.706C24.2616 88.706 24.2719 88.7163 24.2719 88.737H24.4269H24.4579L24.5819 88.706L24.6129 88.675C24.6956 88.6337 24.7576 88.5923 24.7989 88.551C25.0056 88.3443 25.1089 88.241 25.1089 88.241C25.1916 88.1583 25.2743 88.0137 25.3569 87.807C25.4396 87.6003 25.5119 87.404 25.5739 87.218C25.6979 86.7427 25.7599 86.2777 25.7599 85.823C25.7599 84.9137 25.5429 84.056 25.1089 83.25C24.7576 82.63 24.3856 82.041 23.9929 81.483C23.3729 80.553 22.9286 79.7987 22.6599 79.22C22.3293 78.476 22.0606 77.7113 21.8539 76.926C21.6473 76.12 21.5439 75.3657 21.5439 74.663C21.5439 73.7123 21.7919 72.865 22.2879 72.121C22.8046 71.3563 23.5279 70.974 24.4579 70.974C24.8093 70.974 25.1606 71.0463 25.5119 71.191C25.8633 71.3357 26.1526 71.5423 26.3799 71.811C27.0206 72.5963 27.3409 73.609 27.3409 74.849C27.3409 75.0763 27.3203 75.438 27.2789 75.934C27.2376 76.2233 27.1239 76.4713 26.9379 76.678C26.7726 76.864 26.5453 76.957 26.2559 76.957C25.9873 76.957 25.7393 76.8537 25.5119 76.647C25.3053 76.4403 25.2123 76.2027 25.2329 75.934C25.2743 75.4793 25.2949 75.1177 25.2949 74.849C25.2949 74.539 25.2639 74.229 25.2019 73.919C25.1399 73.671 25.0573 73.4747 24.9539 73.33L24.7989 73.175L24.5819 73.051H24.5199C24.4993 73.0097 24.4683 73.0097 24.4269 73.051H24.3339H24.2719V73.082L24.1479 73.144C23.8999 73.4127 23.7449 73.671 23.6829 73.919C23.6416 74.0637 23.6209 74.291 23.6209 74.601C23.6209 75.0143 23.6933 75.5103 23.8379 76.089C23.8793 76.275 23.9516 76.5953 24.0549 77.05C24.1583 77.484 24.2926 77.856 24.4579 78.166C24.8093 78.848 25.2329 79.561 25.7289 80.305C26.2663 81.1317 26.6486 81.762 26.8759 82.196ZM34.1096 72.369C34.1096 72.0383 34.2129 71.7903 34.4196 71.625C34.6262 71.4597 34.8742 71.377 35.1636 71.377C35.4529 71.377 35.7009 71.4597 35.9076 71.625C36.1142 71.7903 36.2176 72.0383 36.2176 72.369V89.946C36.2176 90.256 36.1142 90.4937 35.9076 90.659C35.7009 90.8243 35.4529 90.907 35.1636 90.907C34.8742 90.907 34.6262 90.8243 34.4196 90.659C34.2129 90.4937 34.1096 90.256 34.1096 89.946V82.258C33.3449 82.2993 32.5699 82.2683 31.7846 82.165V89.946C31.7846 90.256 31.6812 90.4937 31.4746 90.659C31.2679 90.8243 31.0199 90.907 30.7306 90.907C30.4412 90.907 30.1932 90.8243 29.9866 90.659C29.7799 90.4937 29.6766 90.256 29.6766 89.946V72.369C29.6766 72.0383 29.7799 71.7903 29.9866 71.625C30.1932 71.4597 30.4412 71.377 30.7306 71.377C31.0199 71.377 31.2679 71.4597 31.4746 71.625C31.6812 71.7903 31.7846 72.0383 31.7846 72.369V80.057C32.5079 80.181 33.2829 80.2223 34.1096 80.181V72.369ZM46.3696 80.336C46.3696 82.0307 46.2869 83.5703 46.1216 84.955C45.9769 86.1123 45.8323 87.0217 45.6876 87.683C45.5429 88.3443 45.2639 88.9643 44.8506 89.543C44.5406 89.9563 44.1789 90.2767 43.7656 90.504C43.3729 90.7107 42.9493 90.814 42.4946 90.814C41.9573 90.814 41.4303 90.6693 40.9136 90.38C40.4176 90.0907 40.0043 89.698 39.6736 89.202C39.0949 88.334 38.6919 87.094 38.4646 85.482C38.2579 84.0973 38.1546 82.6197 38.1546 81.049L38.1856 79.22C38.2063 78.8273 38.2166 78.228 38.2166 77.422C38.2166 77.0913 38.1959 76.616 38.1546 75.996C38.1133 75.0453 38.0926 74.353 38.0926 73.919C38.0926 73.5883 38.1133 73.113 38.1546 72.493C38.1753 72.183 38.2993 71.9453 38.5266 71.78C38.7539 71.594 39.0019 71.501 39.2706 71.501C39.5599 71.501 39.7976 71.594 39.9836 71.78C40.1696 71.9453 40.2523 72.183 40.2316 72.493C40.1903 72.7823 40.1696 73.0097 40.1696 73.175C40.1696 73.6917 40.1903 74.4667 40.2316 75.5C40.2729 76.678 40.2833 77.5667 40.2626 78.166L40.2316 80.987C40.2316 82.9917 40.3659 84.645 40.6346 85.947C40.6553 86.071 40.7173 86.3293 40.8206 86.722C40.9239 87.094 41.0479 87.4247 41.1926 87.714C41.3166 87.962 41.4303 88.1377 41.5336 88.241C41.6989 88.4063 41.7816 88.489 41.7816 88.489C41.8436 88.551 41.9366 88.6233 42.0606 88.706C42.0606 88.706 42.0916 88.7163 42.1536 88.737C42.2776 88.7783 42.3603 88.799 42.4016 88.799H42.4946C42.5359 88.799 42.5566 88.799 42.5566 88.799C42.5773 88.799 42.6083 88.7887 42.6496 88.768C42.6909 88.7473 42.7219 88.7473 42.7426 88.768C42.8459 88.706 42.9493 88.613 43.0526 88.489C43.4039 88.0963 43.6416 87.6003 43.7656 87.001C43.9103 86.4017 44.0033 85.8437 44.0446 85.327C44.0859 84.8103 44.1169 84.4797 44.1376 84.335C44.2616 82.909 44.3236 81.4933 44.3236 80.088C44.3236 78.0627 44.1893 75.4587 43.9206 72.276C43.8999 71.966 43.9826 71.7283 44.1686 71.563C44.3546 71.377 44.5819 71.284 44.8506 71.284C45.1399 71.284 45.3983 71.377 45.6256 71.563C45.8529 71.7283 45.9769 71.966 45.9976 72.276C46.2456 75.314 46.3696 78.0007 46.3696 80.336ZM56.0772 85.761C56.0979 85.9057 56.1082 86.1227 56.1082 86.412C56.1082 87.1147 55.9945 87.807 55.7672 88.489C55.5399 89.1503 55.1989 89.698 54.7442 90.132C54.0415 90.7313 53.2872 91.031 52.4812 91.031C52.0885 91.031 51.6649 90.9483 51.2102 90.783C51.0862 90.7417 50.9932 90.7003 50.9312 90.659C50.7452 90.5557 50.6212 90.4523 50.5592 90.349C49.8565 89.6877 49.3605 88.8817 49.0712 87.931C48.7819 86.9597 48.5752 85.8333 48.4512 84.552C48.3065 82.9193 48.2342 81.4933 48.2342 80.274C48.2342 79.8193 48.2549 79.1787 48.2962 78.352C48.3582 77.0293 48.5752 75.7687 48.9472 74.57C49.3812 73.2473 49.8875 72.3173 50.4662 71.78C50.9829 71.3047 51.5409 71.067 52.1402 71.067C52.5742 71.067 52.9462 71.1807 53.2562 71.408C54.2275 72.0073 54.9922 73.144 55.5502 74.818C55.5915 74.9833 55.6122 75.097 55.6122 75.159C55.6122 75.4483 55.4985 75.686 55.2712 75.872C55.0645 76.0373 54.8269 76.12 54.5582 76.12C54.3309 76.12 54.1242 76.058 53.9382 75.934C53.7522 75.81 53.6179 75.624 53.5352 75.376C53.2872 74.5907 53.0185 74.0327 52.7292 73.702C52.4605 73.392 52.2539 73.206 52.1092 73.144H52.0782C52.0989 73.144 52.1092 73.144 52.1092 73.144C52.1092 73.1233 52.1092 73.113 52.1092 73.113L52.0782 73.144C51.9955 73.1853 51.9439 73.2163 51.9232 73.237C51.7165 73.4437 51.5305 73.7227 51.3652 74.074C50.7039 75.3967 50.3732 76.9673 50.3732 78.786V80.894C50.3732 82.32 50.4249 83.5393 50.5282 84.552C50.7349 86.8667 51.2205 88.303 51.9852 88.861C52.1505 88.9437 52.3262 88.985 52.5122 88.985C52.9255 88.985 53.2665 88.768 53.5352 88.334C53.8245 87.838 53.9795 87.3317 54.0002 86.815H52.6052C52.2952 86.815 52.0472 86.7117 51.8612 86.505C51.6959 86.2983 51.6132 86.0503 51.6132 85.761C51.6132 85.4923 51.6959 85.2547 51.8612 85.048C52.0472 84.8413 52.2952 84.738 52.6052 84.738H55.0232C55.3125 84.738 55.5502 84.8413 55.7362 85.048C55.9222 85.234 56.0359 85.4717 56.0772 85.761ZM66.7242 89.946C66.7449 90.256 66.6622 90.4937 66.4762 90.659C66.2902 90.8243 66.0526 90.907 65.7632 90.907C65.4739 90.907 65.2156 90.8243 64.9882 90.659C64.7609 90.4937 64.6369 90.256 64.6162 89.946L64.1512 85.048H60.6792C60.3899 87.28 60.1936 88.9127 60.0902 89.946C60.0696 90.256 59.9456 90.4937 59.7182 90.659C59.4909 90.8243 59.2326 90.907 58.9432 90.907C58.6539 90.907 58.4162 90.8243 58.2302 90.659C58.0442 90.4937 57.9616 90.256 57.9822 89.946C58.2302 87.652 58.5402 85.3063 58.9122 82.909C59.2842 80.4497 59.6459 78.383 59.9972 76.709C60.3486 75.035 60.8342 73.423 61.4542 71.873C61.6816 71.3563 62.0226 71.098 62.4772 71.098H63.9342C64.2236 71.098 64.4612 71.2013 64.6472 71.408C64.8332 71.6147 64.9469 71.8627 64.9882 72.152L66.7242 89.946ZM63.9342 82.971C63.7482 80.8837 63.4486 77.7733 63.0352 73.64C62.5806 74.9627 62.2086 76.337 61.9192 77.763C61.6299 79.189 61.3199 80.925 60.9892 82.971H63.9342ZM77.6609 92.984C77.9089 93.046 78.0949 93.1597 78.2189 93.325C78.3429 93.4903 78.4049 93.6867 78.4049 93.914C78.4049 94.224 78.3016 94.4927 78.0949 94.72C77.9089 94.9473 77.6609 95.061 77.3509 95.061C77.2269 95.061 77.1339 95.0507 77.0719 95.03C76.0593 94.7613 75.2533 93.945 74.6539 92.581C74.1579 91.465 73.7343 90.0907 73.3829 88.458L73.1659 87.466C72.9179 86.1227 72.6286 85.0377 72.2979 84.211C71.9673 83.3637 71.4403 82.8057 70.7169 82.537V90.039C70.7169 90.349 70.6136 90.597 70.4069 90.783C70.2003 90.9483 69.9523 91.031 69.6629 91.031C69.3736 91.031 69.1153 90.9483 68.8879 90.783C68.6813 90.597 68.5779 90.349 68.5779 90.039V72.803C68.5779 72.5757 68.6296 72.3897 68.7329 72.245C68.7949 72.0383 68.9086 71.873 69.0739 71.749C69.2599 71.6043 69.4769 71.5217 69.7249 71.501L70.3449 71.47C71.9363 71.47 73.1039 71.935 73.8479 72.865C74.1373 73.237 74.3233 73.671 74.4059 74.167C74.5093 74.6423 74.5816 75.2417 74.6229 75.965C74.6643 76.585 74.6849 77.0603 74.6849 77.391C74.6849 78.7137 74.4989 79.7987 74.1269 80.646C73.8996 81.142 73.5999 81.5347 73.2279 81.824C73.7033 82.4027 74.0856 83.1053 74.3749 83.932C74.6643 84.738 74.9329 85.6577 75.1809 86.691C75.3256 87.3937 75.4806 88.117 75.6459 88.861C75.8113 89.5843 76.0076 90.2457 76.2349 90.845C76.4416 91.4443 76.6999 91.9817 77.0099 92.457C77.1133 92.6017 77.2373 92.736 77.3819 92.86L77.5059 92.922C77.5473 92.9633 77.5989 92.984 77.6609 92.984ZM72.4219 78.91C72.5046 78.414 72.5459 77.8353 72.5459 77.174C72.5459 76.6573 72.5149 76.151 72.4529 75.655C72.4323 75.2623 72.3909 74.942 72.3289 74.694C72.2876 74.446 72.1946 74.2187 72.0499 74.012L71.8639 73.857C71.6159 73.7537 71.4816 73.702 71.4609 73.702C71.2129 73.64 70.9649 73.609 70.7169 73.609V80.336H70.8099C71.0166 80.3773 71.1819 80.398 71.3059 80.398C71.6159 80.398 71.8329 80.305 71.9569 80.119C72.1843 79.871 72.3393 79.468 72.4219 78.91Z" fill="#4B3209"/>
</g>
<defs>
<clipPath id="clip0">
<rect width="100" height="100" fill="white"/>
</clipPath>
</defs>
</svg>
