<svg width="100" height="100" viewBox="0 0 100 100" fill="none" xmlns="http://www.w3.org/2000/svg">
<path fill-rule="evenodd" clip-rule="evenodd" d="M74.7335 79.2958C73.5311 80.3448 72.2642 81.3181 70.9396 82.2086C72.0859 81.7273 73.2617 81.3566 73.2159 81.8813C72.8936 85.5584 65.4065 86.4454 66.5514 84.7478C65.7689 85.1325 64.9715 85.4905 64.1604 85.8205C64.2469 86.0155 64.1587 86.2932 63.8565 86.3116C63.6876 86.3219 63.5364 86.2216 63.4741 86.0919C62.2134 86.5758 60.9208 86.9929 59.6006 87.3388C60.2854 87.4252 60.7858 87.5334 61.014 87.6606C60.0351 87.5217 54.9495 89.2519 55.1192 89.2364C52.5881 89.4363 50.3891 89.0141 48.0764 88.5702C47.8657 88.5297 47.6539 88.4891 47.4409 88.4487C47.4293 88.4465 47.4179 88.4441 47.4067 88.4416C44.3889 88.2163 41.4691 87.6283 38.6885 86.7199C38.6444 86.7343 38.5971 86.7448 38.5465 86.7509C37.0364 86.9316 36.1663 86.4376 35.09 85.8265C34.6095 85.5537 34.0879 85.2576 33.45 84.9877C33.1622 84.866 32.6854 84.8348 32.2046 84.8033C31.6965 84.77 31.1839 84.7364 30.8853 84.5954C28.8098 83.6156 24.5938 80.5784 23.8447 79.8711L23.7881 79.8177C20.7555 76.9512 18.4905 74.8103 16.3851 71.236C13.5664 66.4408 11.807 62.2043 11.3133 56.3635C11.2931 56.1248 11.2508 55.7527 11.1976 55.2844C10.8245 52.0047 9.91507 44.0091 12.3187 44.0959C11.5823 44.0709 11.7204 46.346 12.2868 49.5604C12.2919 46.5181 12.6371 43.5576 13.2855 40.717C12.9911 40.9521 12.579 40.8224 12.5539 40.3708C12.3704 37.0741 15.5855 29.699 16.5736 27.691C17.6328 25.5457 28.1534 16.0904 28.1354 17.812C28.1351 17.8706 28.1287 17.9304 28.1168 17.9913C28.9745 17.3594 29.8589 16.7633 30.768 16.2053C30.7538 16.0895 30.7773 15.965 30.8487 15.8441C33.0361 12.1423 42.2298 11.165 45.4768 10.9651C45.6765 10.9529 45.9587 10.9369 46.2638 10.9198C47.5566 10.783 48.8688 10.7129 50.1968 10.7129C50.3443 10.7129 50.4915 10.7138 50.6385 10.7155C57.2118 10.6574 63.9733 12.0218 69.7961 15.5134L70.0125 15.643C72.5259 17.1468 76.9317 19.7827 78.4316 22.1295C79.6701 24.0671 79.7783 24.7327 79.3278 24.7234C81.2444 27.0831 82.8939 29.6793 84.229 32.463C84.3479 32.2317 84.5211 32.1896 84.7238 32.4502C85.1416 32.9918 86.5367 35.5541 85.8294 36.3126C86.0516 36.939 86.2586 37.5729 86.4499 38.2139C88.1773 38.575 89.3347 50.0952 89.2844 50.6849C89.1315 52.6724 87.9978 64.4431 86.0514 67.0637C85.7673 67.4463 85.4412 68.002 85.3483 68.4694C84.959 70.4286 82.2844 73.1482 80.2126 75.255C79.3657 76.1162 78.6195 76.875 78.1713 77.4375C78.0735 77.5599 77.9156 77.7738 77.7152 78.0452C76.573 79.5922 74.053 83.0053 73.4496 81.9624C73.3462 81.7806 73.9916 80.5707 74.7335 79.2958ZM23.5156 77.275C20.9599 74.6758 18.7628 71.7057 17.007 68.4499C17.2568 69.2639 17.4421 69.8224 17.5341 70.0372C18.8572 73.1332 20.9858 75.4152 23.5156 77.275Z" fill="#C3D833"/>
<path d="M61.1246 87.8933C61.224 87.7556 61.1736 87.6832 61.014 87.6606C61.1427 87.7323 61.1848 87.81 61.1246 87.8933Z" fill="#C3D833"/>
<path d="M48.892 18.6307C48.892 18.364 48.9753 18.164 49.142 18.0307C49.3087 17.8973 49.5087 17.8307 49.742 17.8307C49.9587 17.8307 50.1503 17.9057 50.317 18.0557C50.4837 18.189 50.567 18.3807 50.567 18.6307V32.8057C50.567 33.0557 50.4837 33.2557 50.317 33.4057C50.1503 33.5557 49.9503 33.6307 49.717 33.6307C49.5503 33.6307 49.392 33.5807 49.242 33.4807C49.092 33.364 48.992 33.214 48.942 33.0307L46.467 24.5557V33.0307C46.467 33.2807 46.3837 33.4723 46.217 33.6057C46.0503 33.739 45.8587 33.8057 45.642 33.8057C45.4087 33.8057 45.2087 33.739 45.042 33.6057C44.8753 33.4723 44.792 33.2807 44.792 33.0307V18.7557C44.792 18.5057 44.8753 18.3057 45.042 18.1557C45.2087 18.0057 45.4087 17.9307 45.642 17.9307C45.8087 17.9307 45.967 17.989 46.117 18.1057C46.267 18.2057 46.367 18.3473 46.417 18.5307L48.892 27.0057V18.6307ZM57.4424 22.9057C57.5257 23.5557 57.5674 24.3307 57.5674 25.2307C57.5674 25.914 57.5507 26.4307 57.5174 26.7807C57.4174 28.264 57.259 29.4057 57.0424 30.2057L56.8424 30.8807C56.7257 31.3307 56.609 31.7223 56.4924 32.0557C56.3924 32.3723 56.2507 32.6557 56.0674 32.9057C55.6174 33.5557 55.059 33.8807 54.3924 33.8807C54.0257 33.8807 53.6757 33.7973 53.3424 33.6307C53.1257 33.5307 52.9924 33.389 52.9424 33.2057C52.759 32.939 52.6174 32.6473 52.5174 32.3307C52.4174 32.014 52.3174 31.6307 52.2174 31.1807C52.034 30.2973 51.9007 29.3223 51.8174 28.2557C51.6507 26.6223 51.5674 25.3557 51.5674 24.4557C51.5674 24.189 51.584 23.789 51.6174 23.2557C51.7174 21.8723 51.9257 20.7557 52.2424 19.9057C52.4757 19.3223 52.7424 18.8473 53.0424 18.4807C53.359 18.0973 53.7674 17.9057 54.2674 17.9057C54.7174 17.9057 55.134 18.064 55.5174 18.3807C55.9007 18.6973 56.209 19.0807 56.4424 19.5307C56.9257 20.3807 57.259 21.5057 57.4424 22.9057ZM55.5424 29.2057C55.809 27.839 55.9424 26.514 55.9424 25.2307C55.9424 24.014 55.8257 22.9307 55.5924 21.9807C55.459 21.4307 55.3007 20.939 55.1174 20.5057C54.934 20.0723 54.6757 19.764 54.3424 19.5807H54.3174L54.1924 19.7057C53.9924 20.0223 53.8257 20.389 53.6924 20.8057C53.409 21.8057 53.2674 22.9723 53.2674 24.3057C53.2674 24.839 53.3007 25.6557 53.3674 26.7557C53.4674 28.2557 53.584 29.3723 53.7174 30.1057C53.8007 30.6223 53.884 31.039 53.9674 31.3557C54.0507 31.6723 54.1674 31.9723 54.3174 32.2557C54.3507 32.2557 54.3757 32.264 54.3924 32.2807V32.2557H54.4174L54.4674 32.2307C54.534 32.164 54.5674 32.1307 54.5674 32.1307C54.7007 31.964 54.834 31.7057 54.9674 31.3557C55.2674 30.439 55.459 29.7223 55.5424 29.2057Z" fill="#4B3209"/>
<path d="M12.5014 36.5419C12.7822 33.4652 13.7616 30.897 15.5386 28.3663C10.3251 27.996 2.38258 28.3561 1.18054 30.9839C-0.569639 34.8099 9.95292 35.9109 12.5014 36.5419Z" fill="#4B3209"/>
<path d="M7.12771e-09 33.7485C-4.73679e-05 35.2832 0.235994 38.9311 1.18054 41.2451C2.36121 44.1376 3.83695 51.5543 3.77792 53.8565C3.73069 55.6982 2.5383 60.1031 1.94801 60.5753C5.6826 62.6312 16.2741 66.5624 28.7636 65.8399C44.3754 64.9367 75.986 63.3884 82.5662 64.1626C87.8303 64.7819 92.845 66.915 94.6943 67.9042C95.2104 65.7538 96.449 60.9112 97.2748 55.7436C98.307 53.0341 101.016 43.3265 99.5972 41.2451C98.1779 39.1637 91.0817 38.1315 77.9213 37.6154C64.761 37.0993 38.1823 39.2927 28.7636 39.1637C19.3449 39.0347 4.78241 38.0101 7.12771e-09 33.7485Z" fill="#4B3209"/>
<path d="M86.8047 66.7325C86.9852 68.7727 84.5905 70.4093 84.1418 72.3267C85.15 72.3627 90.0276 72.91 91.5616 72.3267C93.0955 71.7434 94.2892 70.5893 94.6943 70.0852C94.1812 69.7161 92.7445 68.8267 91.1025 68.2217C89.4605 67.6168 87.2368 66.8855 86.8047 66.7325Z" fill="#4B3209"/>
<path d="M13.0791 47.6849C13.1098 48.2381 13.1252 48.6837 13.1252 49.0218C13.1252 49.9746 13.0099 50.7276 12.7794 51.2808C12.5028 51.9877 12.1263 52.464 11.6499 52.7099C11.3733 52.8482 11.0352 52.9174 10.6357 52.9174C10.4667 52.9174 10.3437 52.9097 10.2669 52.8943V57.7349C10.2669 57.9654 10.1901 58.1498 10.0364 58.2882C9.88272 58.4111 9.69831 58.4726 9.48317 58.4726C9.26803 58.4726 9.08363 58.4111 8.92996 58.2882C8.77629 58.1498 8.69945 57.9654 8.69945 57.7349V44.7574C8.69945 44.4347 8.84544 44.2042 9.13741 44.0659C9.21425 44.0352 9.3295 44.0045 9.48317 43.9737C10.9891 43.9123 12.0034 44.2888 12.5259 45.1032C12.741 45.4413 12.8793 45.8024 12.9408 46.1866C13.0022 46.5554 13.0483 47.0548 13.0791 47.6849ZM11.4425 50.1743C11.5193 49.6365 11.5577 49.1447 11.5577 48.6991C11.5577 48.4532 11.5424 48.0691 11.5116 47.5466L11.4425 46.6937C11.3964 46.371 11.3272 46.1328 11.235 45.9791C11.1274 45.8101 10.9584 45.6948 10.7279 45.6334C10.605 45.6026 10.4513 45.5719 10.2669 45.5412V51.3499H10.2899C10.3514 51.3653 10.4513 51.373 10.5896 51.373C10.8201 51.373 10.9815 51.3192 11.0737 51.2116C11.2581 51.0118 11.381 50.6661 11.4425 50.1743ZM21.722 59.9708C21.9064 60.0169 22.0447 60.1015 22.1369 60.2244C22.2291 60.3473 22.2752 60.4933 22.2752 60.6624C22.2752 60.8929 22.1983 61.0926 22.0447 61.2617C21.9064 61.4307 21.722 61.5152 21.4915 61.5152C21.3993 61.5152 21.3301 61.5076 21.284 61.4922C20.531 61.2924 19.9317 60.6854 19.4861 59.6712C19.1172 58.8414 18.8022 57.8195 18.541 56.6055L18.3796 55.8678C18.1952 54.869 17.9801 54.0622 17.7342 53.4475C17.4883 52.8175 17.0965 52.4026 16.5586 52.2028V57.781C16.5586 58.0115 16.4818 58.1959 16.3281 58.3343C16.1744 58.4572 15.99 58.5187 15.7749 58.5187C15.5598 58.5187 15.3677 58.4572 15.1986 58.3343C15.045 58.1959 14.9681 58.0115 14.9681 57.781V44.9649C14.9681 44.7959 15.0066 44.6576 15.0834 44.55C15.1295 44.3963 15.214 44.2734 15.3369 44.1812C15.4752 44.0736 15.6366 44.0121 15.821 43.9968L16.282 43.9737C17.4653 43.9737 18.3335 44.3195 18.8867 45.011C19.1019 45.2876 19.2402 45.6103 19.3016 45.9791C19.3785 46.3326 19.4323 46.7782 19.463 47.3161C19.4937 47.7771 19.5091 48.1305 19.5091 48.3764C19.5091 49.3599 19.3708 50.1667 19.0942 50.7967C18.9252 51.1655 18.7023 51.4575 18.4257 51.6726C18.7792 52.1029 19.0635 52.6254 19.2786 53.2401C19.4937 53.8394 19.6935 54.5232 19.8779 55.2916C19.9855 55.8141 20.1007 56.3519 20.2237 56.9051C20.3466 57.443 20.4926 57.9347 20.6616 58.3804C20.8153 58.826 21.0074 59.2255 21.2379 59.579C21.3147 59.6866 21.4069 59.7864 21.5145 59.8786L21.6067 59.9247C21.6374 59.9555 21.6759 59.9708 21.722 59.9708ZM17.8264 49.5059C17.8879 49.1371 17.9186 48.7068 17.9186 48.215C17.9186 47.8309 17.8956 47.4544 17.8495 47.0856C17.8341 46.7936 17.8034 46.5554 17.7573 46.371C17.7265 46.1866 17.6574 46.0175 17.5498 45.8639L17.4115 45.7486C17.2271 45.6718 17.1272 45.6334 17.1118 45.6334C16.9274 45.5873 16.743 45.5642 16.5586 45.5642V50.5662H16.6278C16.7814 50.5969 16.9044 50.6123 16.9966 50.6123C17.2271 50.6123 17.3884 50.5431 17.4807 50.4048C17.6497 50.2204 17.7649 49.9208 17.8264 49.5059ZM25.6838 56.7899C25.9143 56.7899 26.091 56.8667 26.2139 57.0204C26.3522 57.174 26.4214 57.3508 26.4214 57.5505C26.4214 57.7657 26.3599 57.9501 26.237 58.1037C26.1141 58.2574 25.9297 58.3343 25.6838 58.3343H23.033C22.8332 58.3343 22.6565 58.2574 22.5028 58.1037C22.3491 57.9501 22.2723 57.7657 22.2723 57.5505V44.4117C22.2723 44.1966 22.3491 44.0198 22.5028 43.8815C22.6565 43.7279 22.8332 43.651 23.033 43.651H25.6838C25.9143 43.651 26.091 43.7279 26.2139 43.8815C26.3522 44.0352 26.4214 44.2119 26.4214 44.4117C26.4214 44.6268 26.3522 44.8112 26.2139 44.9649C26.091 45.1186 25.9143 45.1954 25.6838 45.1954H23.7936V51.1194H25.3841C25.6146 51.1194 25.7914 51.1962 25.9143 51.3499C26.0526 51.5036 26.1217 51.6803 26.1217 51.8801C26.1217 52.0952 26.0603 52.2796 25.9373 52.4333C25.8144 52.587 25.63 52.6638 25.3841 52.6638H23.7936V56.7899H25.6838ZM32.5813 51.9492C33.0423 52.8713 33.2728 53.7779 33.2728 54.6692C33.2728 54.8075 33.2575 55.0303 33.2267 55.3377C33.1345 56.106 32.8656 56.8052 32.42 57.4353C31.9897 58.05 31.4365 58.3573 30.7603 58.3573C30.6066 58.3573 30.4376 58.3343 30.2532 58.2882C29.5309 58.1037 29.0162 57.6735 28.7088 56.9973C28.4168 56.3058 28.2709 55.5144 28.2709 54.6231C28.2709 54.4233 28.2862 54.139 28.317 53.7702C28.3477 53.5551 28.4245 53.3784 28.5475 53.2401C28.6858 53.0864 28.8625 53.0096 29.0776 53.0096C29.2774 53.0096 29.4618 53.0864 29.6308 53.2401C29.7999 53.3937 29.8767 53.5705 29.8613 53.7702C29.8152 54.0929 29.7922 54.4233 29.7922 54.7614C29.7922 55.3607 29.8844 55.8371 30.0688 56.1905C30.1303 56.3442 30.2071 56.4672 30.2993 56.5594C30.33 56.6055 30.3685 56.6439 30.4146 56.6746C30.4146 56.69 30.4222 56.7053 30.4376 56.7207C30.4683 56.7361 30.4914 56.7438 30.5068 56.7438C30.5221 56.7591 30.5375 56.7745 30.5529 56.7899C30.5836 56.7899 30.6066 56.7899 30.622 56.7899C30.6374 56.7899 30.6451 56.7975 30.6451 56.8129H30.7603H30.7834L30.8756 56.7899L30.8986 56.7668C30.9601 56.7361 31.0062 56.7053 31.0369 56.6746C31.1906 56.5209 31.2674 56.4441 31.2674 56.4441C31.3289 56.3826 31.3904 56.2751 31.4518 56.1214C31.5133 55.9677 31.5671 55.8217 31.6132 55.6834C31.7054 55.33 31.7515 54.9842 31.7515 54.6462C31.7515 53.97 31.5901 53.3323 31.2674 52.733C31.0062 52.2719 30.7296 51.834 30.4376 51.4191C29.9766 50.7276 29.6462 50.1667 29.4464 49.7364C29.2006 49.1832 29.0008 48.6146 28.8471 48.0306C28.6934 47.4313 28.6166 46.8704 28.6166 46.3479C28.6166 45.6411 28.801 45.011 29.1698 44.4578C29.554 43.8892 30.0918 43.6049 30.7834 43.6049C31.0446 43.6049 31.3058 43.6587 31.5671 43.7663C31.8283 43.8738 32.0435 44.0275 32.2125 44.2273C32.6889 44.8112 32.9271 45.5642 32.9271 46.4862C32.9271 46.6553 32.9117 46.9242 32.881 47.293C32.8502 47.5082 32.7657 47.6926 32.6274 47.8462C32.5045 47.9845 32.3354 48.0537 32.1203 48.0537C31.9205 48.0537 31.7361 47.9768 31.5671 47.8232C31.4134 47.6695 31.3443 47.4928 31.3596 47.293C31.3904 46.9549 31.4057 46.686 31.4057 46.4862C31.4057 46.2557 31.3827 46.0252 31.3366 45.7947C31.2905 45.6103 31.229 45.4643 31.1522 45.3568L31.0369 45.2415L30.8756 45.1493H30.8295C30.8141 45.1186 30.791 45.1186 30.7603 45.1493H30.6912H30.6451V45.1724L30.5529 45.2185C30.3685 45.4182 30.2532 45.6103 30.2071 45.7947C30.1764 45.9023 30.161 46.0713 30.161 46.3018C30.161 46.6092 30.2148 46.978 30.3224 47.4083C30.3531 47.5466 30.4069 47.7848 30.4837 48.1228C30.5605 48.4455 30.6604 48.7222 30.7834 48.9527C31.0446 49.4598 31.3596 49.9899 31.7284 50.5431C32.128 51.1578 32.4123 51.6265 32.5813 51.9492ZM38.5363 56.7899C38.7668 56.7899 38.9435 56.8667 39.0665 57.0204C39.2048 57.174 39.2739 57.3508 39.2739 57.5505C39.2739 57.7657 39.2124 57.9501 39.0895 58.1037C38.9666 58.2574 38.7822 58.3343 38.5363 58.3343H35.8855C35.6857 58.3343 35.509 58.2574 35.3553 58.1037C35.2016 57.9501 35.1248 57.7657 35.1248 57.5505V44.4117C35.1248 44.1966 35.2016 44.0198 35.3553 43.8815C35.509 43.7279 35.6857 43.651 35.8855 43.651H38.5363C38.7668 43.651 38.9435 43.7279 39.0665 43.8815C39.2048 44.0352 39.2739 44.2119 39.2739 44.4117C39.2739 44.6268 39.2048 44.8112 39.0665 44.9649C38.9435 45.1186 38.7668 45.1954 38.5363 45.1954H36.6461V51.1194H38.2366C38.4671 51.1194 38.6439 51.1962 38.7668 51.3499C38.9051 51.5036 38.9743 51.6803 38.9743 51.8801C38.9743 52.0952 38.9128 52.2796 38.7898 52.4333C38.6669 52.587 38.4825 52.6638 38.2366 52.6638H36.6461V56.7899H38.5363ZM47.8772 59.9708C48.0616 60.0169 48.1999 60.1015 48.2921 60.2244C48.3843 60.3473 48.4304 60.4933 48.4304 60.6624C48.4304 60.8929 48.3536 61.0926 48.1999 61.2617C48.0616 61.4307 47.8772 61.5152 47.6467 61.5152C47.5545 61.5152 47.4853 61.5076 47.4392 61.4922C46.6862 61.2924 46.0869 60.6854 45.6413 59.6712C45.2725 58.8414 44.9574 57.8195 44.6962 56.6055L44.5348 55.8678C44.3504 54.869 44.1353 54.0622 43.8894 53.4475C43.6436 52.8175 43.2517 52.4026 42.7139 52.2028V57.781C42.7139 58.0115 42.637 58.1959 42.4833 58.3343C42.3297 58.4572 42.1453 58.5187 41.9301 58.5187C41.715 58.5187 41.5229 58.4572 41.3539 58.3343C41.2002 58.1959 41.1234 58.0115 41.1234 57.781V44.9649C41.1234 44.7959 41.1618 44.6576 41.2386 44.55C41.2847 44.3963 41.3692 44.2734 41.4922 44.1812C41.6305 44.0736 41.7918 44.0121 41.9762 43.9968L42.4372 43.9737C43.6205 43.9737 44.4887 44.3195 45.042 45.011C45.2571 45.2876 45.3954 45.6103 45.4569 45.9791C45.5337 46.3326 45.5875 46.7782 45.6182 47.3161C45.649 47.7771 45.6643 48.1305 45.6643 48.3764C45.6643 49.3599 45.526 50.1667 45.2494 50.7967C45.0804 51.1655 44.8576 51.4575 44.581 51.6726C44.9344 52.1029 45.2187 52.6254 45.4338 53.2401C45.649 53.8394 45.8487 54.5232 46.0331 55.2916C46.1407 55.8141 46.256 56.3519 46.3789 56.9051C46.5018 57.443 46.6478 57.9347 46.8169 58.3804C46.9705 58.826 47.1626 59.2255 47.3931 59.579C47.47 59.6866 47.5622 59.7864 47.6697 59.8786L47.7619 59.9247C47.7927 59.9555 47.8311 59.9708 47.8772 59.9708ZM43.9816 49.5059C44.0431 49.1371 44.0738 48.7068 44.0738 48.215C44.0738 47.8309 44.0508 47.4544 44.0047 47.0856C43.9893 46.7936 43.9586 46.5554 43.9125 46.371C43.8817 46.1866 43.8126 46.0175 43.705 45.8639L43.5667 45.7486C43.3823 45.6718 43.2824 45.6334 43.2671 45.6334C43.0827 45.5873 42.8983 45.5642 42.7139 45.5642V50.5662H42.783C42.9367 50.5969 43.0596 50.6123 43.1518 50.6123C43.3823 50.6123 43.5437 50.5431 43.6359 50.4048C43.8049 50.2204 43.9202 49.9208 43.9816 49.5059ZM53.7061 43.8585C53.9059 43.8585 54.0826 43.943 54.2363 44.112C54.4053 44.2657 54.4821 44.4424 54.4668 44.6422L52.9224 57.5966C52.8917 57.8118 52.8071 57.9962 52.6688 58.1498C52.5305 58.3035 52.3538 58.3804 52.1387 58.3804L51.6546 58.4034C51.3626 58.4034 51.1552 58.3573 51.0322 58.2651C50.9247 58.2036 50.8401 58.1268 50.7787 58.0346C50.7172 57.9424 50.6557 57.8118 50.5943 57.6427C50.4713 57.2739 50.3715 56.859 50.2946 56.398C50.0641 55.3377 49.849 54.139 49.6492 52.8021C49.6031 52.6023 49.5493 52.3027 49.4878 51.9031C49.119 49.552 48.7733 47.2008 48.4506 44.8497C48.4198 44.6345 48.4429 44.4347 48.5197 44.2503C48.6119 44.0659 48.7656 43.943 48.9807 43.8815C49.1805 43.8354 49.3803 43.8662 49.58 43.9737C49.7952 44.0813 49.9104 44.235 49.9258 44.4347C50.3254 47.2008 50.6327 49.2754 50.8478 50.6584C51.0015 51.6419 51.2474 53.1171 51.5855 55.0841C51.6162 55.1763 51.6316 55.2532 51.6316 55.3146C52.1848 50.8582 52.615 47.3007 52.9224 44.6422C52.9531 44.4271 53.0376 44.2427 53.1759 44.089C53.3142 43.9353 53.491 43.8585 53.7061 43.8585ZM62.3895 57.7119C62.4049 57.9424 62.3434 58.1191 62.2051 58.242C62.0668 58.365 61.8901 58.4265 61.6749 58.4265C61.4598 58.4265 61.2677 58.365 61.0987 58.242C60.9296 58.1191 60.8374 57.9424 60.8221 57.7119L60.4763 54.0699H57.8947C57.6795 55.7295 57.5335 56.9435 57.4567 57.7119C57.4413 57.9424 57.3491 58.1191 57.1801 58.242C57.011 58.365 56.819 58.4265 56.6038 58.4265C56.3887 58.4265 56.212 58.365 56.0737 58.242C55.9354 58.1191 55.8739 57.9424 55.8892 57.7119C56.0737 56.0061 56.3042 54.262 56.5808 52.4794C56.8574 50.6507 57.1263 49.114 57.3875 47.8693C57.6488 46.6245 58.0099 45.4259 58.4709 44.2734C58.64 43.8892 58.8935 43.6971 59.2316 43.6971H60.315C60.5301 43.6971 60.7068 43.774 60.8451 43.9276C60.9834 44.0813 61.068 44.2657 61.0987 44.4808L62.3895 57.7119ZM60.315 52.5255C60.1767 50.9734 59.9538 48.6607 59.6465 45.5873C59.3084 46.5708 59.0318 47.5927 58.8167 48.653C58.6015 49.7133 58.371 51.0042 58.1252 52.5255H60.315ZM69.1156 43.628C69.3615 43.628 69.5459 43.7048 69.6688 43.8585C69.8071 44.0121 69.8763 44.1966 69.8763 44.4117C69.8763 44.6268 69.8071 44.8112 69.6688 44.9649C69.5459 45.1186 69.3615 45.1954 69.1156 45.1954H67.6634V57.6427C67.6634 57.8732 67.5866 58.05 67.4329 58.1729C67.2792 58.2958 67.1025 58.3573 66.9028 58.3573C66.6876 58.3573 66.5032 58.2958 66.3495 58.1729C66.1959 58.05 66.119 57.8732 66.119 57.6427V45.1954H64.275C64.0445 45.1954 63.8678 45.1186 63.7448 44.9649C63.6219 44.8112 63.5604 44.6268 63.5604 44.4117C63.5604 44.1966 63.6219 44.0121 63.7448 43.8585C63.8678 43.7048 64.0445 43.628 64.275 43.628H69.1156ZM71.0378 44.8035C71.0378 44.573 71.1147 44.3963 71.2683 44.2734C71.422 44.1351 71.5987 44.0659 71.7985 44.0659C72.0136 44.0659 72.1903 44.1274 72.3286 44.2503C72.4823 44.3733 72.5592 44.5577 72.5592 44.8035V57.758C72.5592 57.9885 72.4823 58.1652 72.3286 58.2882C72.1903 58.4111 72.0136 58.4726 71.7985 58.4726C71.5987 58.4726 71.422 58.4111 71.2683 58.2882C71.1147 58.1652 71.0378 57.9885 71.0378 57.758V44.8035ZM79.6812 43.8585C79.881 43.8585 80.0577 43.943 80.2114 44.112C80.3805 44.2657 80.4573 44.4424 80.4419 44.6422L78.8975 57.5966C78.8668 57.8118 78.7823 57.9962 78.644 58.1498C78.5057 58.3035 78.3289 58.3804 78.1138 58.3804L77.6297 58.4034C77.3378 58.4034 77.1303 58.3573 77.0074 58.2651C76.8998 58.2036 76.8153 58.1268 76.7538 58.0346C76.6924 57.9424 76.6309 57.8118 76.5694 57.6427C76.4465 57.2739 76.3466 56.859 76.2698 56.398C76.0393 55.3377 75.8241 54.139 75.6243 52.8021C75.5782 52.6023 75.5245 52.3027 75.463 51.9031C75.0942 49.552 74.7484 47.2008 74.4257 44.8497C74.395 44.6345 74.418 44.4347 74.4949 44.2503C74.5871 44.0659 74.7407 43.943 74.9559 43.8815C75.1556 43.8354 75.3554 43.8662 75.5552 43.9737C75.7703 44.0813 75.8856 44.235 75.901 44.4347C76.3005 47.2008 76.6078 49.2754 76.823 50.6584C76.9766 51.6419 77.2225 53.1171 77.5606 55.0841C77.5913 55.1763 77.6067 55.2532 77.6067 55.3146C78.1599 50.8582 78.5902 47.3007 78.8975 44.6422C78.9283 44.4271 79.0128 44.2427 79.1511 44.089C79.2894 43.9353 79.4661 43.8585 79.6812 43.8585ZM85.7036 56.7899C85.9341 56.7899 86.1108 56.8667 86.2337 57.0204C86.372 57.174 86.4412 57.3508 86.4412 57.5505C86.4412 57.7657 86.3797 57.9501 86.2568 58.1037C86.1339 58.2574 85.9495 58.3343 85.7036 58.3343H83.0528C82.853 58.3343 82.6763 58.2574 82.5226 58.1037C82.3689 57.9501 82.2921 57.7657 82.2921 57.5505V44.4117C82.2921 44.1966 82.3689 44.0198 82.5226 43.8815C82.6763 43.7279 82.853 43.651 83.0528 43.651H85.7036C85.9341 43.651 86.1108 43.7279 86.2337 43.8815C86.372 44.0352 86.4412 44.2119 86.4412 44.4117C86.4412 44.6268 86.372 44.8112 86.2337 44.9649C86.1108 45.1186 85.9341 45.1954 85.7036 45.1954H83.8134V51.1194H85.4039C85.6344 51.1194 85.8111 51.1962 85.9341 51.3499C86.0724 51.5036 86.1415 51.6803 86.1415 51.8801C86.1415 52.0952 86.0801 52.2796 85.9571 52.4333C85.8342 52.587 85.6498 52.6638 85.4039 52.6638H83.8134V56.7899H85.7036ZM92.6011 51.9492C93.0621 52.8713 93.2926 53.7779 93.2926 54.6692C93.2926 54.8075 93.2773 55.0303 93.2465 55.3377C93.1543 56.106 92.8854 56.8052 92.4398 57.4353C92.0095 58.05 91.4563 58.3573 90.7801 58.3573C90.6264 58.3573 90.4574 58.3343 90.273 58.2882C89.5507 58.1037 89.0359 57.6735 88.7286 56.9973C88.4366 56.3058 88.2906 55.5144 88.2906 54.6231C88.2906 54.4233 88.306 54.139 88.3367 53.7702C88.3675 53.5551 88.4443 53.3784 88.5673 53.2401C88.7056 53.0864 88.8823 53.0096 89.0974 53.0096C89.2972 53.0096 89.4816 53.0864 89.6506 53.2401C89.8197 53.3937 89.8965 53.5705 89.8811 53.7702C89.835 54.0929 89.812 54.4233 89.812 54.7614C89.812 55.3607 89.9042 55.8371 90.0886 56.1905C90.1501 56.3442 90.2269 56.4672 90.3191 56.5594C90.3498 56.6055 90.3883 56.6439 90.4344 56.6746C90.4344 56.69 90.442 56.7053 90.4574 56.7207C90.4881 56.7361 90.5112 56.7438 90.5266 56.7438C90.5419 56.7591 90.5573 56.7745 90.5727 56.7899C90.6034 56.7899 90.6264 56.7899 90.6418 56.7899C90.6572 56.7899 90.6649 56.7975 90.6649 56.8129H90.7801H90.8032L90.8954 56.7899L90.9184 56.7668C90.9799 56.7361 91.026 56.7053 91.0567 56.6746C91.2104 56.5209 91.2872 56.4441 91.2872 56.4441C91.3487 56.3826 91.4102 56.2751 91.4716 56.1214C91.5331 55.9677 91.5869 55.8217 91.633 55.6834C91.7252 55.33 91.7713 54.9842 91.7713 54.6462C91.7713 53.97 91.6099 53.3323 91.2872 52.733C91.026 52.2719 90.7494 51.834 90.4574 51.4191C89.9964 50.7276 89.666 50.1667 89.4662 49.7364C89.2204 49.1832 89.0206 48.6146 88.8669 48.0306C88.7132 47.4313 88.6364 46.8704 88.6364 46.3479C88.6364 45.6411 88.8208 45.011 89.1896 44.4578C89.5738 43.8892 90.1116 43.6049 90.8032 43.6049C91.0644 43.6049 91.3256 43.6587 91.5869 43.7663C91.8481 43.8738 92.0633 44.0275 92.2323 44.2273C92.7087 44.8112 92.9469 45.5642 92.9469 46.4862C92.9469 46.6553 92.9315 46.9242 92.9008 47.293C92.87 47.5082 92.7855 47.6926 92.6472 47.8462C92.5243 47.9845 92.3552 48.0537 92.1401 48.0537C91.9403 48.0537 91.7559 47.9768 91.5869 47.8232C91.4332 47.6695 91.3641 47.4928 91.3794 47.293C91.4102 46.9549 91.4255 46.686 91.4255 46.4862C91.4255 46.2557 91.4025 46.0252 91.3564 45.7947C91.3103 45.6103 91.2488 45.4643 91.172 45.3568L91.0567 45.2415L90.8954 45.1493H90.8493C90.8339 45.1186 90.8108 45.1186 90.7801 45.1493H90.711H90.6649V45.1724L90.5727 45.2185C90.3883 45.4182 90.273 45.6103 90.2269 45.7947C90.1962 45.9023 90.1808 46.0713 90.1808 46.3018C90.1808 46.6092 90.2346 46.978 90.3421 47.4083C90.3729 47.5466 90.4267 47.7848 90.5035 48.1228C90.5803 48.4455 90.6802 48.7222 90.8032 48.9527C91.0644 49.4598 91.3794 49.9899 91.7482 50.5431C92.1478 51.1578 92.4321 51.6265 92.6011 51.9492Z" fill="white"/>
</svg>
