<svg width="100" height="100" viewBox="0 0 100 100" fill="none" xmlns="http://www.w3.org/2000/svg">
<g clip-path="url(#clip0)">
<path d="M36.0681 36.196C36.6881 37.436 36.9981 38.6553 36.9981 39.854C36.9981 40.04 36.9774 40.3397 36.9361 40.753C36.8121 41.7863 36.4504 42.7267 35.8511 43.574C35.2724 44.4007 34.5284 44.814 33.6191 44.814C33.4124 44.814 33.1851 44.783 32.9371 44.721C31.9657 44.473 31.2734 43.8943 30.8601 42.985C30.4674 42.055 30.2711 40.9907 30.2711 39.792C30.2711 39.5233 30.2917 39.141 30.3331 38.645C30.3744 38.3557 30.4777 38.118 30.6431 37.932C30.8291 37.7253 31.0667 37.622 31.3561 37.622C31.6247 37.622 31.8727 37.7253 32.1001 37.932C32.3274 38.1387 32.4307 38.3763 32.4101 38.645C32.3481 39.079 32.3171 39.5233 32.3171 39.978C32.3171 40.784 32.4411 41.4247 32.6891 41.9C32.7717 42.1067 32.8751 42.272 32.9991 42.396C33.0404 42.458 33.0921 42.5097 33.1541 42.551C33.1541 42.5717 33.1644 42.5923 33.1851 42.613C33.2264 42.6337 33.2574 42.644 33.2781 42.644C33.2987 42.6647 33.3194 42.6853 33.3401 42.706C33.3814 42.706 33.4124 42.706 33.4331 42.706C33.4537 42.706 33.4641 42.7163 33.4641 42.737H33.6191H33.6501L33.7741 42.706L33.8051 42.675C33.8877 42.6337 33.9497 42.5923 33.9911 42.551C34.1977 42.3443 34.3011 42.241 34.3011 42.241C34.3837 42.1583 34.4664 42.0137 34.5491 41.807C34.6317 41.6003 34.7041 41.404 34.7661 41.218C34.8901 40.7427 34.9521 40.2777 34.9521 39.823C34.9521 38.9137 34.7351 38.056 34.3011 37.25C33.9497 36.63 33.5777 36.041 33.1851 35.483C32.5651 34.553 32.1207 33.7987 31.8521 33.22C31.5214 32.476 31.2527 31.7113 31.0461 30.926C30.8394 30.12 30.7361 29.3657 30.7361 28.663C30.7361 27.7123 30.9841 26.865 31.4801 26.121C31.9967 25.3563 32.7201 24.974 33.6501 24.974C34.0014 24.974 34.3527 25.0463 34.7041 25.191C35.0554 25.3357 35.3447 25.5423 35.5721 25.811C36.2127 26.5963 36.5331 27.609 36.5331 28.849C36.5331 29.0763 36.5124 29.438 36.4711 29.934C36.4297 30.2233 36.3161 30.4713 36.1301 30.678C35.9647 30.864 35.7374 30.957 35.4481 30.957C35.1794 30.957 34.9314 30.8537 34.7041 30.647C34.4974 30.4403 34.4044 30.2027 34.4251 29.934C34.4664 29.4793 34.4871 29.1177 34.4871 28.849C34.4871 28.539 34.4561 28.229 34.3941 27.919C34.3321 27.671 34.2494 27.4747 34.1461 27.33L33.9911 27.175L33.7741 27.051H33.7121C33.6914 27.0097 33.6604 27.0097 33.6191 27.051H33.5261H33.4641V27.082L33.3401 27.144C33.0921 27.4127 32.9371 27.671 32.8751 27.919C32.8337 28.0637 32.8131 28.291 32.8131 28.601C32.8131 29.0143 32.8854 29.5103 33.0301 30.089C33.0714 30.275 33.1437 30.5953 33.2471 31.05C33.3504 31.484 33.4847 31.856 33.6501 32.166C34.0014 32.848 34.4251 33.561 34.9211 34.305C35.4584 35.1317 35.8407 35.762 36.0681 36.196ZM46.0607 25.005C46.3914 25.005 46.6394 25.1083 46.8047 25.315C46.9907 25.5217 47.0837 25.7697 47.0837 26.059C47.0837 26.3483 46.9907 26.5963 46.8047 26.803C46.6394 27.0097 46.3914 27.113 46.0607 27.113H44.1077V43.853C44.1077 44.163 44.0044 44.4007 43.7977 44.566C43.591 44.7313 43.3534 44.814 43.0847 44.814C42.7954 44.814 42.5474 44.7313 42.3407 44.566C42.134 44.4007 42.0307 44.163 42.0307 43.853V27.113H39.5507C39.2407 27.113 39.003 27.0097 38.8377 26.803C38.6724 26.5963 38.5897 26.3483 38.5897 26.059C38.5897 25.7697 38.6724 25.5217 38.8377 25.315C39.003 25.1083 39.2407 25.005 39.5507 25.005H46.0607ZM55.3108 31.329C55.4142 32.135 55.4658 33.096 55.4658 34.212C55.4658 35.0593 55.4452 35.7 55.4038 36.134C55.2798 37.9733 55.0835 39.389 54.8148 40.381L54.5668 41.218C54.4222 41.776 54.2775 42.2617 54.1328 42.675C54.0088 43.0677 53.8332 43.419 53.6058 43.729C53.0478 44.535 52.3555 44.938 51.5288 44.938C51.0742 44.938 50.6402 44.8347 50.2268 44.628C49.9582 44.504 49.7928 44.3283 49.7308 44.101C49.5035 43.7703 49.3278 43.4087 49.2038 43.016C49.0798 42.6233 48.9558 42.148 48.8318 41.59C48.6045 40.4947 48.4392 39.2857 48.3358 37.963C48.1292 35.9377 48.0258 34.367 48.0258 33.251C48.0258 32.9203 48.0465 32.4243 48.0878 31.763C48.2118 30.0477 48.4702 28.663 48.8628 27.609C49.1522 26.8857 49.4828 26.2967 49.8548 25.842C50.2475 25.3667 50.7538 25.129 51.3738 25.129C51.9318 25.129 52.4485 25.3253 52.9238 25.718C53.3992 26.1107 53.7815 26.586 54.0708 27.144C54.6702 28.198 55.0835 29.593 55.3108 31.329ZM52.9548 39.141C53.2855 37.4463 53.4508 35.8033 53.4508 34.212C53.4508 32.7033 53.3062 31.36 53.0168 30.182C52.8515 29.5 52.6552 28.8903 52.4278 28.353C52.2005 27.8157 51.8802 27.4333 51.4668 27.206H51.4358L51.2808 27.361C51.0328 27.7537 50.8262 28.2083 50.6608 28.725C50.3095 29.965 50.1338 31.4117 50.1338 33.065C50.1338 33.7263 50.1752 34.739 50.2578 36.103C50.3818 37.963 50.5265 39.3477 50.6918 40.257C50.7952 40.8977 50.8985 41.4143 51.0018 41.807C51.1052 42.1997 51.2498 42.5717 51.4358 42.923C51.4772 42.923 51.5082 42.9333 51.5288 42.954V42.923H51.5598L51.6218 42.892C51.7045 42.8093 51.7458 42.768 51.7458 42.768C51.9112 42.5613 52.0765 42.241 52.2418 41.807C52.6138 40.6703 52.8515 39.7817 52.9548 39.141ZM62.5842 26.028C62.5842 25.6973 62.6875 25.4493 62.8942 25.284C63.1009 25.1187 63.3489 25.036 63.6382 25.036C63.9069 25.036 64.1445 25.129 64.3512 25.315C64.5579 25.4803 64.6612 25.718 64.6612 26.028V43.605C64.6612 43.915 64.5579 44.163 64.3512 44.349C64.1445 44.535 63.8965 44.628 63.6072 44.628C63.4005 44.628 63.2042 44.566 63.0182 44.442C62.8322 44.2973 62.7082 44.1113 62.6462 43.884L59.5772 33.375V43.884C59.5772 44.194 59.4739 44.4317 59.2672 44.597C59.0605 44.7623 58.8229 44.845 58.5542 44.845C58.2649 44.845 58.0169 44.7623 57.8102 44.597C57.6035 44.4317 57.5002 44.194 57.5002 43.884V26.183C57.5002 25.873 57.6035 25.625 57.8102 25.439C58.0169 25.253 58.2649 25.16 58.5542 25.16C58.7609 25.16 58.9572 25.2323 59.1432 25.377C59.3292 25.501 59.4532 25.6767 59.5152 25.904L62.5842 36.413V26.028ZM71.7297 42.706C72.0397 42.706 72.2773 42.8093 72.4427 43.016C72.6287 43.2227 72.7217 43.4603 72.7217 43.729C72.7217 44.0183 72.639 44.2663 72.4737 44.473C72.3083 44.6797 72.0603 44.783 71.7297 44.783H68.1647C67.896 44.783 67.6583 44.6797 67.4517 44.473C67.245 44.2663 67.1417 44.0183 67.1417 43.729V26.059C67.1417 25.7697 67.245 25.532 67.4517 25.346C67.6583 25.1393 67.896 25.036 68.1647 25.036H71.7297C72.0397 25.036 72.2773 25.1393 72.4427 25.346C72.6287 25.5527 72.7217 25.7903 72.7217 26.059C72.7217 26.3483 72.6287 26.5963 72.4427 26.803C72.2773 27.0097 72.0397 27.113 71.7297 27.113H69.1877V35.08H71.3267C71.6367 35.08 71.8743 35.1833 72.0397 35.39C72.2257 35.5967 72.3187 35.8343 72.3187 36.103C72.3187 36.3923 72.236 36.6403 72.0707 36.847C71.9053 37.0537 71.6573 37.157 71.3267 37.157H69.1877V42.706H71.7297Z" fill="#4B3209"/>
<path d="M0 59.6939C0 56.6327 0.340136 52.2959 0.510204 50.5102C2.55102 51.0204 14.5408 51.0204 21.1735 51.0204C27.8061 51.0204 64.5408 51.0204 75 51.2755C83.3673 51.4796 94.6429 50.5102 99.2347 50C99.1497 54.3367 99.0306 63.7755 99.2347 66.8367C99.4388 69.898 99.8299 78.6565 100 82.6531C94.6429 82.7381 82.398 82.8571 76.2755 82.6531C68.6225 82.398 45.9184 83.4184 41.0714 83.1633C37.1939 82.9592 13.4354 82.398 2.04082 82.1429C1.95578 81.0374 1.88776 77.9082 2.29592 74.2347C2.80612 69.6429 1.02041 68.1122 0.510204 67.0918C0 66.0714 0 63.5204 0 59.6939Z" fill="#4B3209"/>
<path d="M34.4551 70.079C34.5997 70.513 34.6721 71.102 34.6721 71.846C34.6721 71.97 34.6721 72.249 34.6721 72.683C34.6927 73.117 34.6411 73.4993 34.5171 73.83C34.2484 74.5327 33.8041 75.0493 33.1841 75.38C32.5641 75.7107 31.8407 75.876 31.0141 75.876C30.6421 75.876 30.2701 75.845 29.8981 75.783C29.6707 75.7623 29.4951 75.6693 29.3711 75.504C29.1231 75.318 28.9991 75.0597 28.9991 74.729V57.369C28.9991 57.1003 29.0611 56.8937 29.1851 56.749C29.2884 56.4183 29.5261 56.222 29.8981 56.16C30.2701 56.098 30.6524 56.067 31.0451 56.067C31.9131 56.067 32.6364 56.253 33.2151 56.625C33.7111 56.935 34.0624 57.3173 34.2691 57.772C34.4964 58.2267 34.6307 58.6503 34.6721 59.043C34.7134 59.415 34.7651 60.0763 34.8271 61.027C34.8477 61.3163 34.8581 61.7813 34.8581 62.422C34.8581 65.336 34.2897 67.32 33.1531 68.374C33.8144 68.8287 34.2484 69.397 34.4551 70.079ZM32.6261 59.446C32.6054 58.9293 32.4194 58.5677 32.0681 58.361C31.7581 58.237 31.4377 58.175 31.1071 58.175V67.196C31.8097 67.0513 32.2851 66.3383 32.5331 65.057C32.6777 64.437 32.7501 63.6207 32.7501 62.608C32.7501 61.9673 32.7397 61.4817 32.7191 61.151L32.6261 59.446ZM32.5331 73.148C32.5951 72.838 32.6261 72.4867 32.6261 72.094C32.6261 71.5773 32.5744 71.133 32.4711 70.761C32.3264 70.3063 31.8717 69.9447 31.1071 69.676V73.799C31.2724 73.799 31.3964 73.7887 31.4791 73.768C31.5617 73.768 31.6651 73.7577 31.7891 73.737C31.9337 73.6957 32.0474 73.6543 32.1301 73.613C32.2541 73.551 32.3471 73.489 32.4091 73.427C32.4711 73.365 32.5124 73.272 32.5331 73.148ZM46.0808 74.946C46.1015 75.256 46.0188 75.4937 45.8328 75.659C45.6468 75.8243 45.4091 75.907 45.1198 75.907C44.8305 75.907 44.5721 75.8243 44.3448 75.659C44.1175 75.4937 43.9935 75.256 43.9728 74.946L43.5078 70.048H40.0358C39.7465 72.28 39.5501 73.9127 39.4468 74.946C39.4261 75.256 39.3021 75.4937 39.0748 75.659C38.8475 75.8243 38.5891 75.907 38.2998 75.907C38.0105 75.907 37.7728 75.8243 37.5868 75.659C37.4008 75.4937 37.3181 75.256 37.3388 74.946C37.5868 72.652 37.8968 70.3063 38.2688 67.909C38.6408 65.4497 39.0025 63.383 39.3538 61.709C39.7051 60.035 40.1908 58.423 40.8108 56.873C41.0381 56.3563 41.3791 56.098 41.8338 56.098H43.2908C43.5801 56.098 43.8178 56.2013 44.0038 56.408C44.1898 56.6147 44.3035 56.8627 44.3448 57.152L46.0808 74.946ZM43.2908 67.971C43.1048 65.8837 42.8051 62.7733 42.3918 58.64C41.9371 59.9627 41.5651 61.337 41.2758 62.763C40.9865 64.189 40.6765 65.925 40.3458 67.971H43.2908ZM57.8235 77.798C58.0715 77.86 58.2575 77.9737 58.3815 78.139C58.5055 78.325 58.5675 78.5317 58.5675 78.759C58.5675 79.0277 58.4745 79.2757 58.2885 79.503C58.1025 79.7303 57.8648 79.844 57.5755 79.844C57.4308 79.844 57.3275 79.8337 57.2655 79.813C56.7282 79.6683 56.2632 79.3687 55.8705 78.914C55.4778 78.48 55.1575 77.9737 54.9095 77.395C54.3928 76.2583 53.9795 74.9047 53.6695 73.334L53.4835 72.435C53.2355 71.009 52.9152 69.8413 52.5225 68.932C52.1298 68.0227 51.4995 67.506 50.6315 67.382V74.915C50.6315 75.225 50.5282 75.4627 50.3215 75.628C50.1148 75.7933 49.8772 75.876 49.6085 75.876C49.3192 75.876 49.0712 75.7933 48.8645 75.628C48.6578 75.4627 48.5545 75.225 48.5545 74.915V57.369C48.5545 57.0383 48.6578 56.7903 48.8645 56.625C49.0712 56.4597 49.3192 56.377 49.6085 56.377C49.8772 56.377 50.1148 56.47 50.3215 56.656C50.5282 56.8213 50.6315 57.059 50.6315 57.369V63.476C51.1688 62.5667 51.6132 61.585 51.9645 60.531C52.3365 59.477 52.6775 58.2783 52.9875 56.935C53.0495 56.7077 53.1632 56.532 53.3285 56.408C53.5145 56.284 53.7108 56.222 53.9175 56.222C54.2068 56.222 54.4652 56.315 54.6925 56.501C54.9198 56.687 55.0335 56.935 55.0335 57.245C55.0335 57.3483 55.0232 57.431 55.0025 57.493C54.6098 59.1257 54.1552 60.6033 53.6385 61.926C53.1425 63.2487 52.5122 64.4473 51.7475 65.522C52.7808 65.894 53.5662 66.6277 54.1035 67.723C54.6408 68.7977 55.0748 70.0893 55.4055 71.598C55.7775 73.458 56.1185 74.822 56.4285 75.69C56.6352 76.2893 56.8832 76.8163 57.1725 77.271C57.2965 77.4363 57.4205 77.581 57.5445 77.705C57.5652 77.6843 57.5858 77.6843 57.6065 77.705C57.6272 77.7257 57.6478 77.7463 57.6685 77.767L57.8235 77.798ZM62.5418 73.706C62.8518 73.706 63.0895 73.8093 63.2548 74.016C63.4408 74.2227 63.5338 74.4603 63.5338 74.729C63.5338 75.0183 63.4511 75.2663 63.2858 75.473C63.1205 75.6797 62.8725 75.783 62.5418 75.783H58.9768C58.7081 75.783 58.4705 75.6797 58.2638 75.473C58.0571 75.2663 57.9538 75.0183 57.9538 74.729V57.059C57.9538 56.7697 58.0571 56.532 58.2638 56.346C58.4705 56.1393 58.7081 56.036 58.9768 56.036H62.5418C62.8518 56.036 63.0895 56.1393 63.2548 56.346C63.4408 56.5527 63.5338 56.7903 63.5338 57.059C63.5338 57.3483 63.4408 57.5963 63.2548 57.803C63.0895 58.0097 62.8518 58.113 62.5418 58.113H59.9998V66.08H62.1388C62.4488 66.08 62.6865 66.1833 62.8518 66.39C63.0378 66.5967 63.1308 66.8343 63.1308 67.103C63.1308 67.3923 63.0481 67.6403 62.8828 67.847C62.7175 68.0537 62.4695 68.157 62.1388 68.157H59.9998V73.706H62.5418ZM71.0741 57.245C71.8387 58.1337 72.3451 59.1773 72.5931 60.376C72.8617 61.554 72.9961 62.9077 72.9961 64.437V65.553C72.9547 67.6403 72.8307 69.2833 72.6241 70.482C72.3967 71.8047 72.0557 72.8587 71.6011 73.644C71.1257 74.4293 70.4954 75.008 69.7101 75.38C68.9247 75.7313 68.0464 75.8863 67.0751 75.845C66.8271 75.8037 66.6617 75.752 66.5791 75.69C66.2071 75.504 66.0211 75.2043 66.0211 74.791V56.873C66.0211 56.6457 66.0934 56.439 66.2381 56.253C66.3827 56.067 66.5687 55.943 66.7961 55.881C66.9407 55.8397 67.1784 55.7983 67.5091 55.757C68.1704 55.7157 68.8214 55.8293 69.4621 56.098C70.1027 56.3667 70.6401 56.749 71.0741 57.245ZM70.7641 68.498C70.8674 67.196 70.9191 65.987 70.9191 64.871C70.9191 64.1063 70.9087 63.538 70.8881 63.166C70.8054 61.5747 70.5264 60.3243 70.0511 59.415C69.8444 59.043 69.6481 58.764 69.4621 58.578C69.2761 58.3713 69.0384 58.1957 68.7491 58.051L68.6561 58.02L68.5321 57.989C68.4494 57.9477 68.3254 57.9063 68.1601 57.865H68.0981V73.737L68.1911 73.706C68.3977 73.6647 68.5734 73.6233 68.7181 73.582C68.7181 73.5613 68.7387 73.551 68.7801 73.551L68.9971 73.427L69.1521 73.334C69.2141 73.272 69.2554 73.241 69.2761 73.241C69.2967 73.2203 69.3484 73.1583 69.4311 73.055C69.5344 72.9517 69.5757 72.9207 69.5551 72.962C69.8237 72.59 69.9891 72.28 70.0511 72.032C70.4231 71.0813 70.6607 69.9033 70.7641 68.498Z" fill="white"/>
</g>
<defs>
<clipPath id="clip0">
<rect width="100" height="100" fill="white"/>
</clipPath>
</defs>
</svg>
