<svg width="100" height="100" viewBox="0 0 100 100" fill="none" xmlns="http://www.w3.org/2000/svg">
<g clip-path="url(#clip0)">
<path d="M79.7041 26.658C79.2704 26.7036 78.8367 27.0227 78.403 27.205C76.4856 27.091 74.5681 27.0227 72.6507 26.9087C69.1811 26.6808 65.8027 26.2933 62.607 24.6068C60.3472 23.3988 57.7221 22.829 55.2112 22.0769C53.4307 21.5527 51.6274 21.1881 49.8241 20.755C49.71 20.7322 49.6187 20.6411 49.5045 20.6183C48.3632 20.2764 47.2675 19.7978 46.1034 19.6154C44.9621 19.4331 43.7294 19.661 42.5881 19.4331C39.2554 18.7266 35.9227 18.9317 32.7042 19.7066C30.3987 20.2764 28.1617 21.3248 25.9932 22.3504C24.6007 22.9886 23.3224 23.923 22.0898 24.8347C21.1767 25.4956 20.3322 26.3161 19.5561 27.1594C18.7115 28.0711 17.981 29.0967 17.2049 30.0539C15.9266 31.6493 14.9451 33.3587 14.8081 35.4783C14.7853 36.0708 14.557 36.6406 14.3744 37.2104C13.9864 38.4639 13.2331 39.7175 13.2103 40.971C13.1646 43.3185 13.7125 45.6888 13.6668 48.0591C13.6211 52.1616 13.7353 56.1501 15.9038 59.8651C16.931 61.5972 16.0864 63.1698 14.3059 63.2838C6.5449 63.8308 -1.12483 63.7624 -8.45216 60.64C-8.61195 60.5716 -8.81739 60.6628 -9 60.6628C-8.90869 60.8451 -8.88587 61.1186 -8.74891 61.2098C-7.9728 61.7568 -7.21953 62.3949 -6.35211 62.7824C-3.54444 64.0131 -0.759603 65.4262 2.18503 66.2695C5.19814 67.1583 8.34821 67.6825 11.4754 67.9104C13.8038 68.07 16.2006 67.523 18.5745 67.3179C20.1495 67.1811 21.1996 67.9105 22.0213 69.2324C22.4094 69.8705 22.98 70.4631 23.5964 70.9189C25.1257 72.0129 26.7921 72.9246 26.1986 75.2721C26.1301 75.5228 26.4725 75.9786 26.7236 76.2065C28.2302 77.574 29.7595 78.9871 31.3574 80.2862C32.7042 81.403 34.0509 82.7021 35.626 83.2947C37.4293 83.9556 39.2554 84.9356 41.3783 84.6849C41.812 84.6166 42.4055 85.2091 42.7935 85.6194C43.5468 86.4399 44.3686 86.7818 45.5327 86.8957C48.9795 87.2376 52.1752 86.759 55.2797 85.1636C57.3341 84.1152 59.6395 83.591 61.6939 82.5653C64.7755 81.0155 67.7658 79.2834 70.6876 77.4828C72.4681 76.3889 74.2029 75.1125 75.7094 73.6767C76.9649 72.4915 77.8323 70.8961 78.9052 69.5059C80.8911 66.9076 82.877 64.3322 84.8629 61.734C85.1825 61.3237 85.5934 60.9819 85.8445 60.526C87.0999 58.2469 88.3782 55.945 89.5424 53.6202C90.8207 51.1132 92.1218 48.6061 93.1261 45.9851C94.2675 42.9994 95.0436 39.877 96.0936 36.8685C97.2806 33.4498 98.6502 30.1223 99.8143 26.7036C100.111 25.8603 99.9513 24.8803 99.9969 23.9458C99.0382 23.8774 98.0339 23.6267 97.1436 23.8319C94.4729 24.4928 91.9163 25.5868 89.2228 25.997C86.0956 26.4985 82.877 26.4301 79.7041 26.658Z" fill="#4D9D20"/>
<path d="M27.1473 49.5427C26.1892 50.3703 25.5672 51.3416 25.2814 52.4566C24.9898 53.556 25.0777 54.7478 25.5451 56.032C25.756 56.6115 25.9591 56.9987 26.1542 57.1938C26.3436 57.3731 26.4441 57.4785 26.4555 57.5098C25.6097 57.8176 24.9127 57.8762 24.3645 57.6856C23.8262 57.4735 23.4088 56.9603 23.1124 56.1459C22.7476 55.1436 22.8013 54.0244 23.2737 52.7883C23.7561 51.5308 24.5339 50.3786 25.6072 49.3317C26.6749 48.2691 27.8508 47.5041 29.135 47.0367C29.3543 46.9569 29.6732 46.8586 30.0918 46.7417L35.5618 61.1125L35.2623 44.9396L36.9068 44.3411L36.746 64.2199L33.3631 65.4511L27.1473 49.5427ZM45.0252 61.3661C43.8662 61.788 42.8574 61.8182 41.9986 61.4567C41.1342 61.0797 40.4682 60.249 40.0008 58.9647C39.6075 57.8841 39.3857 56.6169 39.3354 55.1631C39.2852 53.7092 39.5667 52.3386 40.18 51.0512C40.7877 49.7481 41.8276 48.8287 43.2998 48.2928C45.0225 47.6658 46.1575 48.104 46.7048 49.6076C47.024 50.4846 47.067 51.3824 46.8337 52.3009C46.6005 53.2194 46.1515 54.0568 45.4867 54.8131C44.8163 55.5537 44.0226 56.1264 43.1057 56.5311C43.2454 57.0123 43.3437 57.3312 43.4007 57.4878C43.68 58.2553 44.0041 58.7315 44.373 58.9165C44.7361 59.0858 45.2153 59.0622 45.8104 58.8456C46.6561 58.5377 47.3053 58.0798 47.758 57.4716C48.2262 56.8578 48.6752 56.0204 49.105 54.9594L49.9037 54.6687C49.2198 58.1988 47.5936 60.4313 45.0252 61.3661ZM42.8832 55.335C43.4513 55.0928 43.9253 54.6897 44.3054 54.1257C44.701 53.556 44.95 52.9244 45.0524 52.2309C45.1703 51.5317 45.1125 50.8611 44.8788 50.219C44.645 49.5768 44.3324 49.327 43.9409 49.4695C43.3771 49.6747 43.0006 50.3704 42.8116 51.5566C42.6382 52.7371 42.6621 53.9966 42.8832 55.335ZM56.9263 63.526C56.1746 63.7996 55.4768 63.8318 54.8332 63.6227C54.1895 63.4136 53.7337 62.941 53.4658 62.2049C53.1409 61.3122 53.2389 60.4606 53.7598 59.6503C54.2864 58.8555 55.0401 58.0757 56.021 57.3108L55.8497 55.9631C55.3645 57.1152 54.5816 57.8879 53.5009 58.2812C52.6082 58.6061 51.7531 58.5715 50.9357 58.1773C50.1182 57.7831 49.4729 56.9361 48.9998 55.6362C48.578 54.4772 48.3633 53.1808 48.3558 51.7469C48.3582 50.2916 48.654 48.9602 49.2431 47.7525C49.8422 46.5235 50.7761 45.6781 52.0447 45.2164C52.6868 44.9827 53.2044 44.9184 53.5974 45.0237C53.9904 45.129 54.2525 45.3617 54.3836 45.7219L54.4349 45.8629L54.2487 44.5472L57.6316 43.3159L59.2733 55.0629C59.9338 54.5387 60.4 53.9433 60.6718 53.2768C60.9436 52.6104 61.0565 51.7268 61.0106 50.6261L61.9973 50.267C62.0818 51.8148 61.8835 53.0487 61.4025 53.9687C60.9157 54.873 60.261 55.6079 59.4381 56.1735L59.7013 57.9932C59.941 59.6264 59.7798 60.8645 59.2176 61.7076C58.6611 62.5664 57.8973 63.1725 56.9263 63.526ZM54.1985 55.4467C54.5587 55.3156 54.8669 55.0172 55.1231 54.5515C55.3793 54.0858 55.4752 53.5454 55.411 52.9302L54.5826 46.9265C54.5142 46.7385 54.3675 46.5791 54.1425 46.4482C53.9118 46.3016 53.6319 46.2881 53.3031 46.4078C52.6766 46.6359 52.2467 47.2091 52.0135 48.1276C51.7745 49.0305 51.7022 50.05 51.7965 51.1863C51.8851 52.3069 52.072 53.2587 52.357 54.0418C52.642 54.8249 52.934 55.2862 53.2331 55.4256C53.5478 55.5594 53.8696 55.5664 54.1985 55.4467ZM55.719 61.8902C55.9853 61.7933 56.1782 61.5192 56.2976 61.0677C56.4171 60.6163 56.4248 60.0282 56.3206 59.3035L56.2136 58.5709C54.884 59.6934 54.3588 60.6383 54.6381 61.4057C54.7122 61.6093 54.8483 61.7638 55.0462 61.8691C55.2442 61.9744 55.4685 61.9814 55.719 61.8902ZM65.4077 53.9475C64.515 54.2724 63.6599 54.2378 62.8424 53.8436C62.025 53.4494 61.3797 52.6024 60.9066 51.3025C60.4847 50.1435 60.2701 48.8471 60.2625 47.4132C60.2649 45.9579 60.5607 44.6265 61.1499 43.4188C61.749 42.1898 62.6828 41.3444 63.9514 40.8827C64.5935 40.649 65.1111 40.5847 65.5042 40.69C65.8972 40.7952 66.1593 41.028 66.2904 41.3882L66.3502 41.5526L66.1555 40.2135L69.5384 38.9822L70.7541 47.5852C70.7769 47.843 70.8368 48.105 70.9337 48.3712C71.1788 49.0447 71.6225 49.2645 72.2646 49.0308C72.7031 48.8712 73.0049 48.5308 73.1699 48.0096C73.3506 47.4827 73.4152 46.8561 73.3637 46.1299L74.3504 45.7708C74.3865 47.6732 74.0851 49.0865 73.446 50.0108C72.8169 50.9138 72.0717 51.522 71.2103 51.8355C70.5525 52.075 69.9544 52.0887 69.4161 51.8767C68.8878 51.6433 68.4562 51.1885 68.1214 50.5122C67.9009 51.3196 67.5829 52.0296 67.1673 52.642C66.7616 53.233 66.1751 53.6682 65.4077 53.9475ZM66.1053 51.113C66.4968 50.9705 66.815 50.6507 67.0597 50.1537C67.3145 49.6353 67.3955 49.0294 67.3027 48.336L66.4979 42.6163C66.4238 42.4127 66.2742 42.2454 66.0492 42.1145C65.8185 41.9679 65.5387 41.9544 65.2098 42.0741C64.5833 42.3022 64.1535 42.8754 63.9202 43.7939C63.6813 44.6968 63.609 45.7163 63.7033 46.8526C63.7919 47.9732 63.9787 48.925 64.2637 49.7081C64.5487 50.4912 64.8408 50.9524 65.1398 51.0919C65.4546 51.2257 65.7764 51.2327 66.1053 51.113ZM83.0355 47.5315C82.2055 47.8336 81.5113 47.8025 80.953 47.4381C80.3947 47.0738 79.9759 46.5079 79.6966 45.7405C79.5769 45.4116 79.4821 45.0293 79.4122 44.5936C79.3366 44.1422 79.2667 43.7065 79.2025 43.2865C79.154 42.8607 79.1254 42.5873 79.1168 42.4663C79.0426 41.8726 78.9634 41.2895 78.8792 40.7171C78.795 40.1447 78.6931 39.694 78.5734 39.3652C78.2827 38.5664 77.8554 38.2697 77.2916 38.4749C76.8844 38.6231 76.5983 38.9578 76.4332 39.479C76.2625 39.9845 76.2001 40.5926 76.2458 41.3031L77.3931 49.4256L74.0102 50.6568L72.2251 38.0043L75.608 36.7731L75.7942 38.0887C76.2581 36.9266 77.0147 36.1547 78.064 35.7727C78.8627 35.482 79.5768 35.4704 80.2063 35.7379C80.8357 36.0054 81.3129 36.5855 81.6378 37.4783C81.8031 37.9324 81.9336 38.4614 82.0292 39.0651C82.1191 39.6532 82.2076 40.3836 82.2947 41.2565C82.3461 41.7876 82.4025 42.308 82.4639 42.8178C82.5352 43.3061 82.6193 43.6835 82.7162 43.9497C82.8302 44.2629 82.9891 44.48 83.1927 44.601C83.3964 44.722 83.6705 44.7198 84.015 44.5944C84.3909 44.4575 84.6322 44.3165 84.739 44.1712C84.9357 45.0042 84.8655 45.7126 84.5282 46.2965C84.2065 46.8747 83.709 47.2864 83.0355 47.5315Z" fill="#C3D833"/>
</g>
<defs>
<clipPath id="clip0">
<rect width="100" height="100" fill="white"/>
</clipPath>
</defs>
</svg>
