<svg width="130" height="39" fill="none" xmlns="http://www.w3.org/2000/svg"><path fill-rule="evenodd" clip-rule="evenodd" d="M4.194 4.157h121.612v30.485H4.194V4.157zM0 38.799V0h130v38.798H0zm54.964-9.368c-2.031 0-3.867-.434-5.507-1.302-1.622-.869-2.898-2.06-3.83-3.575-.914-1.534-1.37-3.252-1.37-5.155 0-1.903.456-3.612 1.37-5.127.932-1.533 2.208-2.734 3.83-3.603 1.64-.868 3.476-1.302 5.507-1.302 2.032 0 3.858.434 5.48 1.302 1.621.869 2.898 2.07 3.83 3.603.932 1.515 1.398 3.224 1.398 5.127 0 1.903-.466 3.621-1.398 5.155-.932 1.515-2.209 2.707-3.83 3.575-1.622.868-3.448 1.302-5.48 1.302zm0-3.824c1.156 0 2.2-.259 3.132-.776a5.69 5.69 0 002.18-2.217c.54-.942.81-2.014.81-3.215 0-1.2-.27-2.272-.81-3.215a5.501 5.501 0 00-2.18-2.189c-.932-.536-1.976-.804-3.132-.804-1.155 0-2.199.268-3.13.804a5.692 5.692 0 00-2.21 2.19c-.521.942-.782 2.013-.782 3.214s.26 2.273.782 3.215a5.892 5.892 0 002.21 2.217c.931.517 1.975.776 3.13.776zm-40.566-7.178v-5.127h10.26V9.7H9.87v19.399h4.529v-7.067h9.058v-3.603h-9.058zm20.623 5.266l3.774 5.404h4.865l-4.39-6.236c1.287-.554 2.274-1.348 2.964-2.383.708-1.053 1.062-2.3 1.062-3.741 0-1.441-.344-2.689-1.034-3.742-.69-1.053-1.677-1.866-2.964-2.438-1.267-.573-2.767-.86-4.5-.86h-8.472v19.4h4.53v-5.404h4.165zm2.628-9.45c.708.572 1.062 1.404 1.062 2.494 0 1.071-.354 1.903-1.062 2.494-.708.591-1.743.887-3.103.887h-3.69v-6.762h3.69c1.36 0 2.395.295 3.103.886zm45.69 14.854V25.44H72.21l10.71-12.831V9.7H66.452v3.659h10.512l-10.736 12.83v2.91h17.11zm16.659-3.603V29.1H84.845V9.7h14.79v3.603h-10.29v4.213h9.086v3.491h-9.086v4.49h10.652zm20.154 3.603v-19.4h-4.473v11.779L105.95 9.7h-3.746v19.399h4.473V17.32l9.757 11.778h3.718z" fill="#5854B1"/></svg>