<svg width="50" height="50" fill="none" xmlns="http://www.w3.org/2000/svg"><path d="M1 25C1 11.746 11.746 1 25 1s24 10.746 24 24-10.746 24-24 24S1 38.254 1 25z" stroke="url(#paint0_linear)" stroke-width="2"/><path d="M24.996 20.553A4.456 4.456 0 0020.55 25a4.456 4.456 0 004.446 4.446A4.456 4.456 0 0029.443 25a4.456 4.456 0 00-4.447-4.447zM38.332 25c0-1.841.017-3.666-.087-5.504-.103-2.135-.59-4.03-2.151-5.59-1.565-1.565-3.456-2.048-5.59-2.152-1.842-.103-3.666-.086-5.504-.086-1.841 0-3.666-.017-5.504.086-2.135.104-4.03.59-5.59 2.152-1.565 1.564-2.048 3.455-2.152 5.59-.103 1.841-.086 3.666-.086 5.504 0 1.838-.017 3.666.086 5.504.104 2.134.59 4.029 2.152 5.59 1.564 1.564 3.455 2.048 5.59 2.151 1.841.104 3.666.087 5.504.087 1.841 0 3.666.017 5.503-.087 2.135-.103 4.03-.59 5.59-2.151 1.565-1.564 2.049-3.456 2.152-5.59.107-1.838.087-3.663.087-5.504zm-13.336 6.84a6.832 6.832 0 01-6.84-6.84 6.832 6.832 0 016.84-6.841 6.832 6.832 0 016.842 6.84 6.832 6.832 0 01-6.842 6.842zm7.122-12.365a1.596 1.596 0 01-1.598-1.598c0-.884.714-1.597 1.598-1.597a1.596 1.596 0 011.476 2.21 1.595 1.595 0 01-1.476.985z" fill="url(#paint1_linear)"/><defs><linearGradient id="paint0_linear" x1="25" y1="0" x2="25" y2="50" gradientUnits="userSpaceOnUse"><stop stop-color="#625ACA"/><stop offset="1" stop-color="#E53F60"/></linearGradient><linearGradient id="paint1_linear" x1="25" y1="11.666" x2="25" y2="38.333" gradientUnits="userSpaceOnUse"><stop stop-color="#625ACA"/><stop offset="1" stop-color="#E53F60"/></linearGradient></defs></svg>