<svg width="193" height="87" viewBox="0 0 193 87" fill="none" xmlns="http://www.w3.org/2000/svg">
<path fill-rule="evenodd" clip-rule="evenodd" d="M163.531 56.5064C163.221 58.6602 162.917 60.7744 162.641 62.7405H169.874C169.748 61.8621 169.624 60.9927 169.5 60.1334C168.107 50.4182 166.899 41.9972 166.344 36.5248H166.087C165.883 40.1367 164.668 48.5896 163.531 56.5064ZM160.833 29.3734H171.769L181.5 86.2346H173.406L170.822 69.8065H161.607L159.282 86.2346H151.446L160.833 29.3734ZM87.4827 0L82.9737 23.7423H72.0358L67.3833 0H74.7196C75.9773 5.47013 76.8933 11.0115 77.4626 16.5929H77.72C78.2062 11.0065 79.0946 5.4615 80.3785 0H87.4827ZM127.179 29.3734H153.446V36.4393H144.145V86.2346H136.48V36.4393H127.179V29.3734ZM116.832 70.9973C116.402 63.6769 116.402 55.6767 116.402 46.3979V29.3734H123.548V86.2346H114.851L105.379 50.3125C104.747 47.8863 104.345 45.8545 104.031 44.2646C103.96 43.9029 103.893 43.5641 103.828 43.2487H103.742C104.088 50.1436 104.175 58.4004 104.175 68.699V86.2346H96.9395V29.3734H105.983L114.42 60.8677C115.351 64.2019 116.098 67.5834 116.659 70.9973H116.832ZM74.4908 56.5063C74.1813 58.6601 73.8775 60.7743 73.6013 62.7405H80.8343C80.7001 61.8043 80.5672 60.8783 80.436 59.9638C79.0524 50.3203 77.8536 41.9653 77.3043 36.5248H77.0469C76.8429 40.1366 75.6283 48.5895 74.4908 56.5063ZM62.4059 86.2346L71.7931 29.3734H82.729L92.4601 86.2346H84.3663L81.7816 69.8065H72.5675L70.2423 86.2346H62.4059ZM39.4117 52.8528H49.9172V29.3734H57.6691V86.2346H49.9172V59.9188H39.4117V86.2346H31.6619V29.3734H39.4117V52.8528ZM13.1597 80.1051C16.8627 80.1051 17.7235 77.0414 17.7235 72.3592V62.0294L25.5599 58.828V71.5938C25.5599 78.4032 24.3551 87 12.9002 87C2.56775 87 0.5 80.2761 0.5 71.7627V42.9922C0.5 34.0555 4.54688 28.6079 13.0732 28.6079C23.3212 28.6079 25.3025 35.5028 25.3025 43.2487V52.2855H17.5526V42.3978C17.5526 38.3121 16.6896 35.5029 12.9867 35.5029C9.45674 35.5029 8.42286 38.1411 8.42286 42.4812V72.3592C8.42286 76.8704 9.37023 80.1051 13.1597 80.1051ZM192.717 80.1191H186.717V86.1191H192.717V80.1191Z" fill="#AF272F"/>
</svg>
