<svg width="60" height="68" fill="none" xmlns="http://www.w3.org/2000/svg"><path fill-rule="evenodd" clip-rule="evenodd" d="M9.834 65.432c.16-.001.313.06.426.172a.55.55 0 01.174.427v.393a.591.591 0 01-.6.566H.594a.564.564 0 01-.426-.178.606.606 0 01-.168-.427 4.49 4.49 0 01.118-.98c.072-.3.179-.59.32-.865.146-.249.305-.49.476-.721.19-.25.398-.485.622-.704.236-.233.477-.45.724-.649.252-.205.504-.399.756-.587l.78-.555a19.4 19.4 0 01.774-.52c.532-.35 1.026-.705 1.485-1.07.46-.367.897-.744 1.312-1.11a3.72 3.72 0 00.796-1.108c.18-.395.278-.82.292-1.253 0-.39-.076-.775-.224-1.136a2.175 2.175 0 00-.611-.826 3.85 3.85 0 00-2.372-.693 4.528 4.528 0 00-1.553.26 2.44 2.44 0 00-1.049.715 4.262 4.262 0 00-.813 2.722.551.551 0 01-.168.422.598.598 0 01-.426.166H.824a.598.598 0 01-.426-.166.551.551 0 01-.168-.422c.022-3.47 1.695-5.227 5.018-5.272.621-.008 1.24.08 1.833.26a5.226 5.226 0 011.525.76 3.895 3.895 0 011.453 3.232 4.602 4.602 0 01-.404 1.769 5.473 5.473 0 01-1.037 1.535c-.437.447-.898.87-1.38 1.27-.495.413-1.017.792-1.564 1.136a34.11 34.11 0 00-2.803 2.079c-.464.365-.838.83-1.094 1.358h8.057zm12.37.016a.613.613 0 01.431.172.547.547 0 01.19.382v.394a.552.552 0 01-.173.421.562.562 0 01-.43.172h-9.237a.563.563 0 01-.42-.177.613.613 0 01-.174-.427c.008-.33.05-.66.123-.982.072-.3.18-.59.32-.865a8.21 8.21 0 01.475-.72c.19-.25.398-.485.622-.705.227-.23.468-.447.722-.649.246-.205.498-.399.755-.587l.773-.555c.258-.183.515-.355.772-.521.56-.35 1.03-.705 1.484-1.07a45.54 45.54 0 001.316-1.11c.33-.32.598-.695.794-1.109.177-.395.274-.821.286-1.253a2.901 2.901 0 00-.224-1.137 2.108 2.108 0 00-.582-.82 3.838 3.838 0 00-2.368-.694 4.517 4.517 0 00-1.556.26c-.407.143-.768.39-1.047.716a4.302 4.302 0 00-.812 2.723.552.552 0 01-.168.421.562.562 0 01-.42.167h-.42a.563.563 0 01-.42-.167.552.552 0 01-.167-.421c0-3.471 1.67-5.23 5.01-5.274.62-.008 1.238.08 1.83.26.547.17 1.061.426 1.523.76a3.866 3.866 0 011.444 3.234 4.505 4.505 0 01-.397 1.769 5.598 5.598 0 01-1.036 1.536 20.22 20.22 0 01-1.377 1.27 14.35 14.35 0 01-1.562 1.136 33.145 33.145 0 00-2.799 2.08 3.81 3.81 0 00-1.114 1.37h8.033zm12.721-3.299a10.85 10.85 0 00.29-2.632c.018-.896-.074-1.79-.273-2.665a9.069 9.069 0 00-.905-2.339 4.673 4.673 0 00-1.85-1.811 6.112 6.112 0 00-2.845-.669 6.038 6.038 0 00-2.8.669 4.598 4.598 0 00-1.839 1.85 9.142 9.142 0 00-.922 2.333c-.215.863-.316 1.75-.301 2.637a10.1 10.1 0 00.301 2.627 9.03 9.03 0 00.922 2.317 4.7 4.7 0 001.839 1.833c.853.452 1.813.69 2.788.69a6.084 6.084 0 002.846-.69 4.666 4.666 0 001.844-1.849c.41-.724.715-1.498.905-2.3zm-1.389-3.72c.063.392.063.75.063 1.088a9.36 9.36 0 01-.034 1.055c-.04.38-.091.734-.148 1.088-.074.342-.167.68-.28 1.012a4.67 4.67 0 01-.437.93 3.664 3.664 0 01-.57.75c-.223.21-.473.394-.745.544-.27.186-.572.322-.894.402-.372.09-.754.132-1.138.126a4.443 4.443 0 01-1.138-.126 3.124 3.124 0 01-.916-.402 3.422 3.422 0 01-1.27-1.322 5.757 5.757 0 01-.426-.93 5.533 5.533 0 01-.262-1.011 9.48 9.48 0 010-4.28c.052-.347.138-.687.256-1.018.106-.31.248-.61.421-.892.157-.273.348-.526.57-.756.216-.22.459-.415.722-.582a3.946 3.946 0 012.02-.5c1.61.033 2.723.642 3.341 1.827.174.29.319.593.433.909.117.327.212.661.284 1 .03.172.05.348.073.532.022.179.044.364.075.556zm14.07 1.088c.017.885-.08 1.77-.29 2.632a8.919 8.919 0 01-.9 2.301 4.704 4.704 0 01-1.844 1.85 6.09 6.09 0 01-2.846.69 5.969 5.969 0 01-2.788-.69 4.7 4.7 0 01-1.839-1.834 9.253 9.253 0 01-.927-2.317 10.611 10.611 0 01-.302-2.627c-.01-.887.092-1.773.302-2.637a9.368 9.368 0 01.928-2.334 4.598 4.598 0 011.838-1.849 6.032 6.032 0 012.794-.669c.993-.01 1.971.22 2.846.669a4.712 4.712 0 011.85 1.811c.405.739.707 1.525.899 2.339.206.874.3 1.769.279 2.665zm-1.617 0c0-.337 0-.696-.057-1.088-.02-.146-.039-.288-.056-.425-.03-.231-.058-.451-.097-.663a7.049 7.049 0 00-.285-1 5.149 5.149 0 00-.427-.909c-.626-1.185-1.741-1.794-3.346-1.827a3.94 3.94 0 00-2.015.5 3.902 3.902 0 00-.723.582 3.679 3.679 0 00-.569.756 4.824 4.824 0 00-.427.892 6.543 6.543 0 00-.256 1.017 9.48 9.48 0 000 4.28 5.728 5.728 0 00.694 1.942c.29.543.729 1 1.27 1.322.28.183.589.319.916.402.363.09.736.131 1.11.126a4.54 4.54 0 001.138-.126c.323-.08.628-.216.9-.402.27-.15.518-.333.74-.544a3.9 3.9 0 00.568-.75c.179-.295.324-.607.433-.93.114-.332.207-.67.279-1.012.062-.354.114-.707.153-1.088.04-.35.058-.703.057-1.055zm13.718 2.632c.205-.863.302-1.747.29-2.632.019-.896-.073-1.79-.273-2.665a9.057 9.057 0 00-.905-2.339 4.675 4.675 0 00-1.852-1.811 6.123 6.123 0 00-2.848-.669 6.049 6.049 0 00-2.803.669 4.632 4.632 0 00-1.829 1.844 9.14 9.14 0 00-.923 2.333 10.17 10.17 0 00-.302 2.638c-.015.884.087 1.767.302 2.627a9.04 9.04 0 00.923 2.317 4.733 4.733 0 001.829 1.838c.854.452 1.815.69 2.791.69a6.077 6.077 0 002.849-.69A4.667 4.667 0 0058.8 64.45a8.72 8.72 0 00.906-2.3zm-1.327-2.632c0 .345-.019.69-.057 1.033-.04.381-.091.735-.148 1.088-.074.342-.167.68-.28 1.012a4.983 4.983 0 01-.432.93c-.15.273-.334.529-.547.761a3.678 3.678 0 01-.746.544c-.27.186-.573.322-.895.403a4.59 4.59 0 01-1.14.125 4.452 4.452 0 01-1.139-.125 3.13 3.13 0 01-.917-.403 3.42 3.42 0 01-1.27-1.322 5.747 5.747 0 01-.427-.93 5.522 5.522 0 01-.262-1.011 9.472 9.472 0 010-4.28 5.47 5.47 0 01.256-1.018c.107-.31.248-.61.422-.892.157-.273.348-.526.57-.756.216-.22.459-.415.723-.582a3.953 3.953 0 012.022-.5c1.606.033 2.723.642 3.35 1.827.168.294.31.602.421.92.117.327.213.661.285 1 .03.172.05.348.073.532.022.178.044.363.075.556.063.392.063.75.063 1.088z" fill="#808285"/><path fill-rule="evenodd" clip-rule="evenodd" d="M59.786 48.44v-3.72a24.563 24.563 0 01-3.67 1.537c-.83.233-1.687.35-2.549.347a6.485 6.485 0 01-4.383-1.47 4.711 4.711 0 01-1.71-3.72 4.6 4.6 0 011.735-3.72 6.72 6.72 0 014.484-1.45c2.084.064 4.117.662 5.899 1.736v-3.733a12.038 12.038 0 00-6.206-1.494c-3.073 0-5.557.85-7.452 2.548a8.027 8.027 0 00-2.856 6.2 8.024 8.024 0 002.705 6.151c1.804 1.654 4.227 2.48 7.27 2.48a14.263 14.263 0 006.733-1.692zM11.838 36.516V33.47H.214v16.662h4.22v-6.851h7.404v-3.045H4.434v-3.721h7.404zm29.033-2.462v3.313c-2.267-1.01-4.073-1.516-5.42-1.52a3.728 3.728 0 00-1.83.385c-.407.18-.672.576-.682 1.017.018.365.196.703.488.925a9.045 9.045 0 002.362 1.13c1.04.36 2.055.79 3.038 1.283.77.409 1.44.98 1.963 1.676a4.4 4.4 0 01.83 2.736 4.511 4.511 0 01-1.805 3.723 7.584 7.584 0 01-4.757 1.402 12.66 12.66 0 01-6.144-1.613v-3.655c.95.656 1.966 1.213 3.031 1.663a7.59 7.59 0 002.807.522c1.675 0 2.5-.522 2.5-1.564a1.374 1.374 0 00-.5-1.011 7.972 7.972 0 00-2.42-1.155 25.169 25.169 0 01-3.03-1.24 5.682 5.682 0 01-1.938-1.67 4.469 4.469 0 01-.813-2.767 4.221 4.221 0 011.775-3.53 7.654 7.654 0 014.75-1.347 14.66 14.66 0 015.795 1.297zM26.323 37.37v-3.304a14.667 14.667 0 00-5.813-1.312 7.666 7.666 0 00-4.72 1.368 4.202 4.202 0 00-1.767 3.52 4.45 4.45 0 00.78 2.755 5.71 5.71 0 001.93 1.664c.983.478 1.997.891 3.034 1.238a8.048 8.048 0 012.416 1.15c.303.253.484.619.5 1.01 0 1.04-.832 1.559-2.497 1.559a7.552 7.552 0 01-2.797-.52 17.03 17.03 0 01-3.041-1.658v3.645c1.878 1.06 4 1.626 6.162 1.64a7.538 7.538 0 004.776-1.43 4.484 4.484 0 001.805-3.713 4.385 4.385 0 00-.824-2.729 5.91 5.91 0 00-1.96-1.67 26.048 26.048 0 00-3.035-1.282 8.831 8.831 0 01-2.385-1.126 1.234 1.234 0 01-.487-.922c.01-.438.272-.833.674-1.015a3.775 3.775 0 011.83-.384c1.348.004 3.155.51 5.419 1.517z" fill="#2A8961"/><path d="M40.716 5.41C35.906.501 28.326-.46 22.431 3.09c-6.958 4.092-8.685 13.31-4.54 19.957.098.157.607 0 .558-.193a14.391 14.391 0 012.006-12.653 14.007 14.007 0 018.906-6.473A14.08 14.08 0 0140.22 5.669c.133.115.667-.09.497-.259z" fill="#2A8961"/><path d="M41.2 3.216c-2.146-1.305-4.99-.84-7.233-.153h-.078c-5.389 1.953-11.494 7.182-11.03 13.545 0 .171.536 0 .572-.123 1.266-4.145 4.521-7.348 8.228-9.307 3.707-1.96 10.204-2.609 11.127 2.835 0 .177.542 0 .572-.123.597-2.614.265-5.18-2.158-6.674z" fill="#AAD0C0"/><path d="M41.621 10.659c-.415-.481-.539-.601-.979-1.064-.142-.15-.681 0-.533.222 2.758 4.367 2.473 9.928-.718 14.008-1.985 2.454-4.87 4.07-8.054 4.509-3.296.517-6.517-.704-9.441-2.05-.18-.085-.657.06-.44.294 4.405 4.81 12.192 5.97 17.607 1.978 2.81-2.026 4.664-5.063 5.145-8.428.482-3.365-.45-6.777-2.587-9.47z" fill="#808285"/><path d="M38.47 15.36c-.03-.183-.557-.116-.613.049-.613 3.247-2.635 5.952-5.112 8.102-3.2 2.772-10.42 5.44-12.094-.195-.055-.2-.57-.11-.613.086-.729 5.756 4.291 7.152 8.92 5.482 4.903-1.754 9.561-6.938 9.641-12.25a5.742 5.742 0 00-.129-1.274z" fill="#BCBEC0"/></svg>