<svg width="140" height="81" fill="none" xmlns="http://www.w3.org/2000/svg"><path fill-rule="evenodd" clip-rule="evenodd" d="M111.08 62.71a24.212 24.212 0 01-.677 6.159 20.894 20.894 0 01-2.099 5.384 10.988 10.988 0 01-4.302 4.327 14.172 14.172 0 01-6.64 1.616 13.893 13.893 0 01-6.507-1.616 10.984 10.984 0 01-4.29-4.289 21.694 21.694 0 01-2.164-5.422 24.896 24.896 0 01-.704-6.147 25.106 25.106 0 01.704-6.172 21.943 21.943 0 012.165-5.46 10.74 10.74 0 014.289-4.327 14.043 14.043 0 016.52-1.566c2.316-.022 4.6.517 6.64 1.566a11.009 11.009 0 014.316 4.238 21.705 21.705 0 012.098 5.472c.483 2.046.701 4.14.651 6.237zm-3.772 0c0-.79 0-1.63-.132-2.546-.05-.342-.092-.673-.133-.995-.069-.541-.134-1.056-.226-1.55a16.475 16.475 0 00-.664-2.342 11.984 11.984 0 00-.996-2.125c-1.461-2.775-4.063-4.2-7.808-4.277a9.175 9.175 0 00-4.701 1.171 9.137 9.137 0 00-1.687 1.362 8.613 8.613 0 00-1.328 1.769 11.281 11.281 0 00-.996 2.087 15.367 15.367 0 00-.597 2.38 22.248 22.248 0 000 10.016 14.1 14.1 0 00.61 2.368c.27.751.609 1.48 1.01 2.176a7.997 7.997 0 002.961 3.093 7.122 7.122 0 002.138.941 10.21 10.21 0 002.59.293c.895.015 1.788-.084 2.656-.293a6.503 6.503 0 002.098-.941c.63-.352 1.21-.78 1.726-1.273a9.142 9.142 0 001.328-1.756c.417-.689.755-1.419 1.009-2.177.267-.776.484-1.566.651-2.367.146-.827.266-1.655.359-2.545a21.69 21.69 0 00.132-2.469zM51.81 76.588c.376-.003.737.141 1.006.402.262.228.422.55.444.895v.922c.013.371-.134.73-.405.986a1.31 1.31 0 01-1.006.402H30.298a1.312 1.312 0 01-.98-.415 1.437 1.437 0 01-.405-.999 11.54 11.54 0 01.287-2.297 9.171 9.171 0 01.745-2.024c.34-.581.711-1.144 1.11-1.687.442-.584.927-1.135 1.45-1.648a18.58 18.58 0 011.685-1.519c.575-.48 1.163-.934 1.763-1.375l1.803-1.298c.6-.428 1.202-.83 1.802-1.22 1.306-.817 2.404-1.648 3.462-2.504 1.058-.856 2.09-1.739 3.07-2.595a8.944 8.944 0 001.854-2.596 7.74 7.74 0 00.666-2.932 6.796 6.796 0 00-.522-2.66 4.927 4.927 0 00-1.359-1.921 8.936 8.936 0 00-5.525-1.622 10.514 10.514 0 00-3.631.61 5.682 5.682 0 00-2.443 1.674 10.086 10.086 0 00-1.894 6.371 1.29 1.29 0 01-.391.986 1.31 1.31 0 01-.98.39h-.98a1.31 1.31 0 01-.98-.39 1.292 1.292 0 01-.391-.986c0-8.123 3.897-12.237 11.69-12.34a14.01 14.01 0 014.271.61c1.275.394 2.475.994 3.553 1.777a9.058 9.058 0 013.37 7.566 10.57 10.57 0 01-.927 4.139 13.101 13.101 0 01-2.417 3.595 47.296 47.296 0 01-3.213 2.971 33.512 33.512 0 01-3.644 2.66 77.2 77.2 0 00-6.531 4.867 8.908 8.908 0 00-2.6 3.205H51.81zm-28.863-.037c.372-.002.73.142.994.402.275.259.423.623.405.999v.921a1.381 1.381 0 01-1.4 1.323H1.387a1.312 1.312 0 01-.993-.415A1.42 1.42 0 010 78.782c.008-.773.1-1.543.275-2.296a9.18 9.18 0 01.746-2.024c.34-.58.712-1.143 1.112-1.686.443-.583.928-1.134 1.452-1.647a22.764 22.764 0 011.687-1.518 55.37 55.37 0 011.766-1.375l1.819-1.297a50.26 50.26 0 011.805-1.22 46.461 46.461 0 003.467-2.503 78.41 78.41 0 003.061-2.595 8.696 8.696 0 001.858-2.594 7.72 7.72 0 00.68-2.932c0-.911-.178-1.814-.523-2.659a5.097 5.097 0 00-1.426-1.933 8.966 8.966 0 00-5.534-1.621 10.545 10.545 0 00-3.624.61c-.95.333-1.794.91-2.446 1.673a9.993 9.993 0 00-1.897 6.369c.017.369-.126.728-.392.986a1.395 1.395 0 01-.995.389h-.968a1.395 1.395 0 01-.994-.389 1.291 1.291 0 01-.392-.986c.052-8.12 3.955-12.232 11.708-12.336 1.45-.02 2.893.186 4.278.61a12.17 12.17 0 013.559 1.777 9.123 9.123 0 013.388 7.562 10.789 10.789 0 01-.942 4.138 12.822 12.822 0 01-2.42 3.594 41.927 41.927 0 01-3.218 2.97 33.544 33.544 0 01-3.65 2.659 79.633 79.633 0 00-6.542 4.865 9.093 9.093 0 00-2.55 3.178h18.799zm58.545-7.682c.476-2.02.703-4.088.677-6.159a25.879 25.879 0 00-.638-6.237 21.248 21.248 0 00-2.111-5.472 10.918 10.918 0 00-4.316-4.238 14.227 14.227 0 00-6.64-1.566 14.06 14.06 0 00-6.533 1.566 10.74 10.74 0 00-4.29 4.327 21.423 21.423 0 00-2.151 5.46 23.887 23.887 0 00-.704 6.172 23.693 23.693 0 00.704 6.147 21.157 21.157 0 002.151 5.422 10.984 10.984 0 004.29 4.289 13.906 13.906 0 006.507 1.616 14.16 14.16 0 006.64-1.616 10.902 10.902 0 004.302-4.327 20.46 20.46 0 002.112-5.384zm-3.24-8.705c.145.916.145 1.756.145 2.546.02.823-.006 1.648-.08 2.469a45.89 45.89 0 01-.344 2.545c-.173.8-.39 1.59-.651 2.367a10.948 10.948 0 01-1.023 2.177 8.57 8.57 0 01-1.328 1.756 8.618 8.618 0 01-1.74 1.273 6.416 6.416 0 01-2.084.941c-.868.209-1.761.307-2.656.293a10.318 10.318 0 01-2.656-.293 7.275 7.275 0 01-2.138-.941 7.997 7.997 0 01-2.962-3.093 13.518 13.518 0 01-.996-2.176 12.954 12.954 0 01-.61-2.368 22.248 22.248 0 010-10.016 12.82 12.82 0 01.597-2.38c.249-.727.578-1.427.983-2.087a9.08 9.08 0 011.328-1.769 9.59 9.59 0 011.686-1.362 9.193 9.193 0 014.715-1.171c3.753.077 6.352 1.502 7.795 4.277.405.676.743 1.388 1.01 2.125.272.766.494 1.548.663 2.342.067.4.118.814.17 1.244.05.417.104.85.175 1.301zm61.065 8.705c.477-2.02.704-4.088.678-6.159a25.874 25.874 0 00-.638-6.237 21.197 21.197 0 00-2.114-5.472 10.92 10.92 0 00-4.32-4.238 14.25 14.25 0 00-6.646-1.566 14.083 14.083 0 00-6.54 1.566 10.823 10.823 0 00-4.267 4.314 21.398 21.398 0 00-2.153 5.46 23.887 23.887 0 00-.705 6.173 23.694 23.694 0 00.705 6.147 21.137 21.137 0 002.153 5.421 11.06 11.06 0 004.267 4.302 13.928 13.928 0 006.513 1.616 14.147 14.147 0 006.647-1.616 10.91 10.91 0 004.307-4.327 20.44 20.44 0 002.113-5.384zm-3.243-8.705c.146.916.146 1.756.146 2.546 0 .807-.044 1.614-.133 2.418a45.563 45.563 0 01-.346 2.545c-.173.8-.39 1.59-.651 2.367-.26.756-.598 1.485-1.01 2.177a9.125 9.125 0 01-1.276 1.781 8.592 8.592 0 01-1.742 1.273 6.42 6.42 0 01-2.087.942c-.869.208-1.762.307-2.658.293-.896.017-1.79-.081-2.659-.293a7.288 7.288 0 01-2.14-.942 7.988 7.988 0 01-2.964-3.093 13.435 13.435 0 01-.997-2.176 12.965 12.965 0 01-.611-2.367 22.2 22.2 0 010-10.016c.122-.81.322-1.606.598-2.38a10.38 10.38 0 01.983-2.087 9.095 9.095 0 011.33-1.769 9.493 9.493 0 011.688-1.362 9.199 9.199 0 014.719-1.171c3.748.076 6.354 1.502 7.816 4.276.393.688.722 1.408.983 2.151.274.766.496 1.548.665 2.342.068.4.118.814.17 1.244.051.417.104.85.176 1.301z" fill="#808285"/><path fill-rule="evenodd" clip-rule="evenodd" d="M95.365 3.125v7.754c-5.289-2.362-9.504-3.548-12.644-3.557a8.682 8.682 0 00-4.273.9 2.671 2.671 0 00-1.59 2.38 2.9 2.9 0 001.137 2.164 21.068 21.068 0 005.513 2.643 58.623 58.623 0 017.088 3.005 13.823 13.823 0 014.58 3.92 10.335 10.335 0 011.94 6.404 10.567 10.567 0 01-4.215 8.711 17.658 17.658 0 01-11.1 3.282 29.48 29.48 0 01-14.335-3.775v-8.552a39.736 39.736 0 007.073 3.891 17.67 17.67 0 006.548 1.22c3.909 0 5.834-1.22 5.834-3.659a3.217 3.217 0 00-1.167-2.367 18.57 18.57 0 00-5.644-2.7 58.653 58.653 0 01-7.073-2.905 13.27 13.27 0 01-4.522-3.905 10.478 10.478 0 01-1.895-6.476 9.887 9.887 0 014.141-8.261A17.821 17.821 0 0181.846.09c4.668.076 9.27 1.11 13.52 3.034zM139.5 36.79v-8.706a57.098 57.098 0 01-8.563 3.598 21.767 21.767 0 01-5.947.813 15.101 15.101 0 01-10.228-3.439 11.037 11.037 0 01-3.989-8.705 10.778 10.778 0 014.047-8.705 15.652 15.652 0 0110.463-3.396 28.32 28.32 0 0113.764 4.063V3.578A28.024 28.024 0 00124.567.08c-7.17 0-12.966 1.988-17.389 5.963a18.81 18.81 0 00-6.663 14.51 18.799 18.799 0 006.313 14.392c4.208 3.869 9.863 5.804 16.964 5.804a33.221 33.221 0 0015.708-3.961zM27.622 8.887V1.762H.5V40.75h9.847V24.719h17.275v-7.125H10.347V8.887h17.275zm33.798 2V3.154A34.143 34.143 0 0047.857.084a17.85 17.85 0 00-11.013 3.2 9.842 9.842 0 00-4.123 8.24 10.438 10.438 0 001.821 6.444 13.335 13.335 0 004.502 3.895 59.01 59.01 0 007.08 2.896 18.758 18.758 0 015.637 2.693 3.251 3.251 0 011.166 2.361c0 2.432-1.943 3.649-5.827 3.649-2.234.012-4.45-.4-6.527-1.217a39.674 39.674 0 01-7.094-3.88v8.529a29.565 29.565 0 0014.378 3.837c3.99.183 7.924-.997 11.145-3.345a10.504 10.504 0 004.21-8.688 10.28 10.28 0 00-1.923-6.386 13.802 13.802 0 00-4.574-3.91 60.688 60.688 0 00-7.08-2.998 20.586 20.586 0 01-5.566-2.635 2.891 2.891 0 01-1.136-2.158 2.678 2.678 0 011.574-2.374 8.785 8.785 0 014.268-.898c3.147.01 7.362 1.192 12.645 3.547z" fill="#2A8961"/></svg>