<svg width="100" height="100" viewBox="0 0 100 100" fill="none" xmlns="http://www.w3.org/2000/svg">
<path fill-rule="evenodd" clip-rule="evenodd" d="M11.4643 75.2008C11.5741 75.2415 11.6836 75.2822 11.7931 75.3198C11.805 75.302 11.8175 75.2843 11.8301 75.2665C11.8678 75.2133 11.9055 75.1601 11.9232 75.1069C11.866 75.0578 11.813 74.9989 11.7603 74.9403L11.7602 74.9402C11.6606 74.8293 11.5621 74.7198 11.4383 74.6811C10.4684 74.3617 9.79422 73.6994 9.21465 72.9187C8.69018 72.2168 8.16438 71.5162 7.63859 70.8156C6.58733 69.4148 5.53609 68.014 4.49535 66.6027C4.02224 65.964 3.76202 65.2543 3.97493 64.4382C4.21149 63.5156 4.08138 62.6404 3.5373 61.8479C3.51732 61.8188 3.49719 61.7897 3.47697 61.7605C3.45856 61.7339 3.44008 61.7072 3.42154 61.6805L3.41877 61.6765L3.41866 61.6764C3.19334 61.3515 2.96122 61.0169 2.78032 60.6651C2.23624 59.5888 1.81043 58.5006 2.0943 57.2232C2.24806 56.4899 2.27172 55.6856 2.15344 54.9523C1.96186 53.8028 1.7192 52.6661 1.47654 51.5294L1.47643 51.5288C1.31462 50.7709 1.15282 50.013 1.00615 49.2513C0.873627 48.569 0.761467 47.8847 0.649391 47.2009L0.649345 47.2006C0.491364 46.2368 0.333542 45.2739 0.119057 44.3191C-0.235779 42.7223 0.237335 41.4212 1.07711 40.0965C1.63302 39.2213 1.99969 38.1922 2.24807 37.175C2.36897 36.6821 2.4332 36.1819 2.49754 35.6808C2.59684 34.9074 2.6964 34.132 3.00504 33.3783C3.3363 32.5629 3.61704 31.7278 3.89743 30.8937L3.89748 30.8935L3.89754 30.8934C4.26788 29.7917 4.6376 28.6919 5.12223 27.6418C5.58788 26.6192 6.27203 25.6953 6.9516 24.7775L6.95183 24.7772L6.95206 24.7769C7.15266 24.506 7.35287 24.2356 7.54694 23.9634C7.85998 23.5177 8.1992 23.0886 8.53792 22.6603C8.95427 22.1337 9.36985 21.6081 9.73508 21.0537C10.3133 20.1753 10.868 19.2812 11.4225 18.3873C12.0477 17.3796 12.6726 16.3723 13.3307 15.3882C14.6318 13.4484 16.1458 11.6979 17.9554 10.2194C20.2215 8.37646 22.8016 7.08666 25.3806 5.79735C26.0457 5.46484 26.7108 5.13237 27.3704 4.79046C28.342 4.28438 29.3137 3.80429 30.2928 3.32053L30.7886 3.07542C31.0133 2.96897 31.1671 2.94532 31.4155 3.20553C31.7822 3.58402 32.2907 3.998 32.7875 4.05713C34.1595 4.2109 34.4079 4.62487 34.7155 5.58292C34.8456 5.98507 34.7509 6.17432 34.4079 6.32808C33.8166 6.58825 33.2371 6.87208 32.6577 7.1559L32.6574 7.15603C32.1619 7.39811 31.6615 7.63293 31.161 7.86785C30.0964 8.36751 29.0308 8.86758 28.0091 9.4388C25.4188 10.8936 22.9231 12.5022 20.6522 14.4183C20.3097 14.7081 19.9644 14.9955 19.6187 15.2831C18.4121 16.2872 17.2017 17.2945 16.0984 18.4161C13.177 21.3967 11.0598 24.9333 9.4039 28.7418C8.49403 30.8242 7.64367 32.9289 6.79382 35.0323L6.79236 35.036L6.79172 35.0375C6.57066 35.5847 6.34963 36.1317 6.12759 36.6783C6.07366 36.8111 6.01855 36.9436 5.96349 37.0759C5.5234 38.1335 5.08546 39.1859 5.26417 40.4159C5.44158 41.6223 5.57169 42.8642 5.51254 44.0707C5.41792 46.1879 5.22868 48.305 4.94481 50.4104C4.58997 53.048 4.8975 55.6265 5.57169 58.1694C5.79654 59.0207 6.04322 59.8671 6.28976 60.7131L6.28986 60.7134L6.28995 60.7137C6.58801 61.7364 6.88588 62.7585 7.14478 63.7877C7.16754 63.8762 7.19006 63.9646 7.21254 64.0529C7.50561 65.204 7.79349 66.3347 8.54047 67.3124C9.28562 68.2704 9.99529 69.2639 10.6577 70.2811C10.8942 70.6478 11.1071 71.1919 11.0243 71.5822C10.7641 72.8005 11.0835 73.7703 12.077 74.48C12.4003 74.7138 12.7466 74.9204 13.0931 75.127L13.0932 75.1271L13.0933 75.1272L13.0934 75.1272C13.5707 75.4119 14.0482 75.6968 14.4662 76.0531C15.371 76.8211 16.2319 77.633 17.0927 78.445C17.5709 78.8961 18.0492 79.3472 18.535 79.7907C21.4446 82.4401 24.508 84.9003 27.9145 86.8756C29.4994 87.7981 31.1553 88.6616 32.8585 89.3358C34.7509 90.0809 36.7144 90.6723 38.6778 91.1927C39.7248 91.4737 40.8025 91.6443 41.88 91.8149L41.8802 91.8149L41.8805 91.815L41.8808 91.815C42.3001 91.8814 42.7194 91.9478 43.1369 92.0207C43.3102 92.0512 43.4836 92.0819 43.657 92.1126L43.6708 92.1151L43.6716 92.1152L43.672 92.1153C44.7713 92.3101 45.8717 92.5051 46.9809 92.6476C48.4239 92.8368 49.8669 93.0024 51.3217 93.1088C51.5695 93.1278 51.8176 93.1482 52.0658 93.1686C53.3699 93.276 54.6783 93.3837 55.9701 93.2744C57.4722 93.1468 58.9581 92.8236 60.4412 92.5009L60.4413 92.5009L60.4429 92.5006L60.4444 92.5003C60.7469 92.4344 61.0493 92.3686 61.3517 92.3046C64.2141 91.7013 67.0646 91.0272 69.6194 89.4422C69.6128 89.4226 69.6099 89.3885 69.6066 89.35C69.6039 89.3188 69.601 89.2847 69.5957 89.253C69.5839 89.1702 69.5602 89.0992 69.5247 89.0282C68.9334 88.0465 69.1344 87.1003 69.9032 86.4025C71.2989 85.1251 72.7419 83.8595 74.2914 82.7713C76.172 81.4466 77.8634 79.9563 79.2827 78.1585C79.5526 77.8192 79.8124 77.4687 80.0723 77.1179L80.0724 77.1178C80.6101 76.3923 81.1486 75.6657 81.7784 75.0359C82.559 74.2474 83.4132 73.5325 84.2675 72.8176C84.6946 72.4601 85.1217 72.1026 85.5396 71.736L85.6019 71.6821C86.0207 71.3204 86.4548 70.9453 86.7815 70.5059C87.509 69.5336 88.2158 68.5447 88.9239 67.554L88.9242 67.5536C89.4134 66.8693 89.9032 66.184 90.4009 65.5027C90.4688 65.4196 90.5803 65.3703 90.6919 65.3208L90.692 65.3208C90.7552 65.2929 90.8184 65.2648 90.874 65.2307C90.8708 65.2843 90.871 65.3396 90.8712 65.395C90.8718 65.5474 90.8724 65.7006 90.803 65.822C90.5971 66.1926 90.3753 66.5513 90.1538 66.9095L90.1537 66.9097L90.1532 66.9104C89.9931 67.1693 89.8331 67.428 89.6794 67.6908C89.6013 67.8157 89.5542 67.9612 89.4937 68.1477L89.4937 68.1478C89.4626 68.2439 89.4279 68.3509 89.3837 68.4715C89.4718 68.4337 89.5421 68.4079 89.5987 68.387L89.5995 68.3867L89.5996 68.3867C89.702 68.3491 89.7596 68.3279 89.7976 68.2822C89.9668 68.0785 90.1441 67.8778 90.322 67.6764L90.3221 67.6763C90.7537 67.1876 91.1895 66.6941 91.5245 66.1414C92.3192 64.8133 93.0237 63.4351 93.7302 62.053L93.9137 61.6941C94.4578 60.6296 94.9427 59.5415 94.0557 58.406C94.0557 58.406 94.0675 58.3705 94.103 58.2995H94.9427C95.818 58.2995 96.4685 57.8619 96.6933 57.0695C97.0008 56.0168 97.2728 54.9286 97.3201 53.8405C97.3803 52.4783 97.3735 51.1113 97.3667 49.7426C97.3628 48.9602 97.3588 48.1773 97.3675 47.3943C97.3911 45.7266 97.7223 45.2889 99.2363 44.7212C99.5674 44.5911 99.7094 44.7094 99.733 45.0524C99.7627 45.5896 99.8039 46.1269 99.8451 46.6637C99.9355 47.8407 100.026 49.016 99.9932 50.1857C99.875 54.1716 99.3427 58.1103 98.4083 61.978C98.0062 63.6221 97.4148 65.2543 96.6933 66.7919C95.8594 68.5788 94.857 70.2863 93.8585 71.9871L93.8585 71.9872L93.5825 72.4575C92.6008 74.1252 91.4299 75.6391 90.046 76.9993L89.9101 77.1328C88.6421 78.3771 87.3746 79.6211 86.4267 81.1627C86.1839 81.5643 85.8232 81.8921 85.4668 82.216L85.4663 82.2164L85.4659 82.2168C85.3711 82.3029 85.2766 82.3887 85.1848 82.4756C84.98 82.6638 84.7648 82.8417 84.549 83.02C84.3036 83.2228 84.0574 83.4263 83.8246 83.6466C83.78 83.6887 83.7359 83.7311 83.6918 83.7735L83.6914 83.7739C83.3141 84.1367 82.9414 84.495 82.3698 84.5692C82.2694 84.5792 82.1691 84.6829 82.076 84.7791L82.0758 84.7793C82.0592 84.7964 82.0428 84.8133 82.0268 84.8294C81.9089 84.9473 81.798 85.0749 81.6874 85.2023L81.6873 85.2023C81.476 85.4455 81.2657 85.6876 81.0096 85.8584C80.158 86.438 79.2591 86.982 78.3365 87.4551C77.4021 87.9401 76.858 88.5788 76.787 89.6788C76.7161 90.7196 76.1247 91.0035 75.2494 90.4712C74.8236 90.2229 74.457 90.2347 74.0193 90.4003C73.6408 90.5422 73.2518 90.6631 72.8628 90.784C72.6683 90.8445 72.4738 90.9049 72.2806 90.968L71.9653 91.0729C70.1893 91.6628 68.4164 92.2517 66.8753 93.3572C65.7753 94.1497 64.6517 94.0078 63.4334 93.511L63.5182 93.3806C63.7941 92.956 64.0587 92.5489 64.3915 92.0443C64.2705 92.0443 64.1811 92.0384 64.1122 92.0338C64.0126 92.0272 63.9554 92.0234 63.9065 92.0443C63.7088 92.1328 63.5104 92.2196 63.3123 92.3062L63.3122 92.3063C62.6097 92.6136 61.9095 92.9199 61.2453 93.2981L61.2319 93.3055C60.6586 93.6214 60.1992 93.8746 59.5302 93.4755C59.2682 93.316 58.8306 93.387 58.4711 93.4453L58.4302 93.4519C57.7442 93.5701 57.0464 93.7239 56.3722 93.925C56.1233 93.9936 55.893 94.1433 55.6634 94.2926L55.6633 94.2926L55.6633 94.2927C55.5765 94.349 55.4899 94.4053 55.4023 94.4572C55.4098 94.476 55.4161 94.4948 55.422 94.5135C55.4254 94.5243 55.4286 94.5351 55.4319 94.5459C55.4408 94.5755 55.4496 94.6051 55.4615 94.6346C55.5455 94.6508 55.6286 94.6678 55.7114 94.6848L55.7117 94.6849C55.9316 94.7299 56.1488 94.7744 56.3722 94.8002C57.2593 94.9067 57.484 95.226 57.2238 96.1368C57.196 96.1368 57.1674 96.1372 57.1381 96.1377H57.1379C57.0178 96.1396 56.8884 96.1416 56.7743 96.1131C55.9972 95.9262 55.2283 95.7311 54.4539 95.5347L53.983 95.4153C53.4941 95.2975 53.2486 95.2383 53.0582 95.3153C52.8663 95.3929 52.7303 95.6087 52.4572 96.0421C52.4426 96.0714 52.4144 96.0871 52.3755 96.1088C52.3514 96.1222 52.3232 96.1378 52.2916 96.1604C51.9959 95.7583 51.7002 95.368 51.3809 94.954C50.5056 96.4088 50.1981 96.6217 49.039 96.3378C47.8562 96.054 46.7089 96.1013 45.5379 96.3378L45.5042 96.3448C45.1702 96.4141 44.8056 96.4897 44.4852 96.4325L44.0704 96.3536C42.4702 96.0497 40.8724 95.7462 39.3046 95.3325C38.0034 94.9967 36.7145 94.6071 35.4258 94.2175L35.4255 94.2174C34.5356 93.9484 33.6458 93.6794 32.752 93.4282C32.2142 93.2737 31.6654 93.158 31.1161 93.0422C30.5299 92.9186 29.9433 92.7949 29.3693 92.6239C26.8381 91.8551 24.5199 90.6132 22.3672 89.0637C19.6823 87.1358 17.2103 84.9595 14.963 82.5348L14.6896 82.2401C12.8388 80.2465 10.9889 78.2538 10.0308 75.6273C9.98572 75.4997 9.97404 75.3577 9.96243 75.2166V75.2165C9.95576 75.1353 9.9491 75.0545 9.93616 74.9768C10.015 74.9728 10.0952 74.9623 10.1754 74.9518C10.3357 74.9308 10.496 74.9098 10.6458 74.9413C10.9232 75.0002 11.1946 75.1008 11.4643 75.2008ZM79.5325 12.2286C79.525 12.3814 79.5171 12.541 79.5072 12.7153C79.454 12.6987 79.4065 12.6858 79.364 12.6743C79.2552 12.6448 79.1797 12.6244 79.1287 12.5734C77.5674 11.3906 76.0061 10.196 74.4685 8.98952C74.2674 8.83576 74.1255 8.56372 74.0545 8.32716C73.8653 7.65298 73.818 7.60566 73.1556 7.77125C73.0722 7.79211 72.991 7.82906 72.9102 7.86589C72.8076 7.91259 72.7055 7.9591 72.5997 7.97233C72.304 8.01964 71.9965 8.05512 71.7008 8.00781C70.6836 7.84222 70.4234 7.01427 70.1868 6.18633C69.9384 5.33472 70.3406 4.76699 71.2277 4.66054C71.9728 4.56591 72.6588 4.7315 73.2857 5.18096C73.9996 5.68588 74.7182 6.1828 75.4364 6.67937C76.6697 7.53212 77.9015 8.38386 79.105 9.27339C79.6002 9.63869 80.023 10.0987 80.4765 10.5923L80.4766 10.5923C80.6839 10.8179 80.8976 11.0504 81.1276 11.2841C80.4889 11.4142 80.0394 11.5088 79.5663 11.6153C79.5526 11.8208 79.5429 12.0183 79.5325 12.2286ZM84.9271 17.3916L84.9278 17.3925L84.9279 17.3926C85.9204 18.5692 86.9068 19.7387 87.9048 20.912C88.2242 19.126 84.6758 14.8679 82.6651 14.7142C83.4275 15.6138 84.179 16.5048 84.9271 17.3916ZM91.7443 24.9801C91.6987 25.1204 91.6516 25.2652 91.6073 25.4182C90.9686 25.3591 90.4837 25.0989 90.3536 24.5903C90.2076 24.0377 90.1995 23.4393 90.1915 22.8515C90.1905 22.7725 90.1894 22.6936 90.188 22.615C90.188 22.5086 90.46 22.3075 90.5901 22.3193C91.4417 22.4258 92.1041 23.3365 91.9622 24.1881C91.9154 24.4534 91.8325 24.7083 91.7443 24.9801Z" fill="#4B3209"/>
<path fill-rule="evenodd" clip-rule="evenodd" d="M80.3757 32.312C79.6661 31.1973 78.9634 30.0937 78.2811 29C77.7105 29.9364 77.1312 30.9043 76.5409 31.8905C75.1726 34.1762 73.7454 36.5605 72.2317 38.8805C70.0568 42.1932 68.8807 45.7284 69.0096 49.7333C69.1546 54.4305 72.3686 58.147 77.0164 58.8886C81.4307 59.5891 85.7483 56.9274 87.1338 52.5351C88.5434 48.0687 87.3674 43.9237 85.1602 40.0836C83.6336 37.4292 81.9867 34.8424 80.3757 32.312ZM75.0348 55.757C78.6758 57.5946 82.0429 56.6717 84.2661 53.0623C84.0887 53.147 83.9352 53.2195 83.7972 53.2846C83.5592 53.397 83.3673 53.4876 83.1786 53.5815C81.6723 54.3067 80.1741 54.4879 78.8127 53.3095C77.5078 52.1723 77.4836 50.6808 77.8219 49.0986C77.8851 48.808 76.9753 49.0427 76.0277 49.2871C75.0406 49.5417 74.0123 49.8069 74 49.5C73.9626 48.589 74.2316 47.501 74.4602 46.5761C74.823 45.1083 75.0842 44.0513 73.8588 44.7641C72.9566 45.2997 72.1027 46.2968 71.6919 47.2857C70.3467 50.4995 71.8772 54.1666 75.0348 55.757Z" fill="#D3C28C"/>
<path fill-rule="evenodd" clip-rule="evenodd" d="M27.2251 32.55C27.2251 33.55 27.2001 34.2917 27.1501 34.775C27.1001 35.225 27.0418 35.5833 26.9751 35.85C26.9251 36.1167 26.8334 36.3667 26.7001 36.6C26.1668 37.45 25.3418 37.875 24.2251 37.875C23.9084 37.875 23.6668 37.8583 23.5001 37.825L23.3001 37.75C22.9334 37.6333 22.7501 37.3667 22.7501 36.95V23.05C22.7501 22.8167 22.8251 22.6167 22.9751 22.45C23.1251 22.2833 23.3001 22.2 23.5001 22.2H25.7751C26.0084 22.2 26.1918 22.2833 26.3251 22.45C26.4584 22.6167 26.5251 22.8167 26.5251 23.05C26.5251 23.2833 26.4584 23.4833 26.3251 23.65C26.1918 23.8167 26.0084 23.9 25.7751 23.9H24.2751V28.05C25.5251 28.1167 26.3501 28.5917 26.7501 29.475C26.9334 29.8917 27.0501 30.3333 27.1001 30.8C27.1668 31.2667 27.2084 31.85 27.2251 32.55ZM25.5251 35.35C25.6584 34.75 25.7251 34.0417 25.7251 33.225L25.7001 32.25C25.7001 32.1667 25.6918 31.975 25.6751 31.675C25.6751 31.375 25.6501 31.1083 25.6001 30.875C25.5668 30.6417 25.5168 30.4583 25.4501 30.325C25.4001 30.2417 25.3418 30.1667 25.2751 30.1C25.2251 30.0167 25.1418 29.95 25.0251 29.9C24.8084 29.8167 24.5584 29.775 24.2751 29.775V36.2C24.5751 36.2167 24.8418 36.1583 25.0751 36.025C25.3084 35.875 25.4584 35.65 25.5251 35.35ZM32.9315 36.25C33.1815 36.25 33.3732 36.3333 33.5065 36.5C33.6565 36.6667 33.7315 36.8583 33.7315 37.075C33.7315 37.3083 33.6649 37.5083 33.5315 37.675C33.3982 37.8417 33.1982 37.925 32.9315 37.925H30.0565C29.8399 37.925 29.6482 37.8417 29.4815 37.675C29.3149 37.5083 29.2315 37.3083 29.2315 37.075V22.825C29.2315 22.5917 29.3149 22.4 29.4815 22.25C29.6482 22.0833 29.8399 22 30.0565 22H32.9315C33.1815 22 33.3732 22.0833 33.5065 22.25C33.6565 22.4167 33.7315 22.6083 33.7315 22.825C33.7315 23.0583 33.6565 23.2583 33.5065 23.425C33.3732 23.5917 33.1815 23.675 32.9315 23.675H30.8815V30.1H32.6065C32.8565 30.1 33.0482 30.1833 33.1815 30.35C33.3315 30.5167 33.4065 30.7083 33.4065 30.925C33.4065 31.1583 33.3399 31.3583 33.2065 31.525C33.0732 31.6917 32.8732 31.775 32.6065 31.775H30.8815V36.25H32.9315ZM39.4874 27.8C40.1374 28.3 40.6207 29.0083 40.9374 29.925C41.2541 30.825 41.4124 31.7583 41.4124 32.725C41.4124 33.2917 41.3457 33.8583 41.2124 34.425C41.0791 34.9917 40.8791 35.5 40.6124 35.95C40.2124 36.6167 39.6791 37.1167 39.0124 37.45C38.3624 37.7833 37.6291 37.95 36.8124 37.95C36.5624 37.9333 36.3707 37.85 36.2374 37.7C36.1041 37.5333 36.0374 37.3333 36.0374 37.1C36.0374 36.8833 36.0957 36.7 36.2124 36.55C36.3457 36.3833 36.5291 36.3 36.7624 36.3C37.9957 36.3 38.8374 35.8417 39.2874 34.925C39.4541 34.5583 39.5707 34.2 39.6374 33.85C39.6707 33.75 39.7041 33.6 39.7374 33.4V33.375V33.3C39.7541 33.25 39.7624 33.175 39.7624 33.075C39.7957 32.1417 39.6541 31.2 39.3374 30.25C39.0207 29.3 38.4791 28.7833 37.7124 28.7C37.4791 28.6833 37.2791 28.5833 37.1124 28.4C36.9624 28.2 36.8874 27.9917 36.8874 27.775C36.8874 27.6083 36.9374 27.4667 37.0374 27.35C37.1374 27.2167 37.2874 27.125 37.4874 27.075C37.9207 26.975 38.3124 26.7 38.6624 26.25C39.0291 25.8 39.2124 25.3417 39.2124 24.875C39.2124 24.8083 39.1957 24.6917 39.1624 24.525C39.1291 24.3083 39.0457 24.1583 38.9124 24.075C38.8124 23.9917 38.7207 23.9417 38.6374 23.925C38.6374 23.9083 38.6291 23.9 38.6124 23.9C38.5957 23.9 38.5791 23.8917 38.5624 23.875H38.4374C38.4041 23.8583 38.4124 23.85 38.4624 23.85C38.3291 23.8167 38.2041 23.8167 38.0874 23.85C37.7707 23.9 37.4041 24.025 36.9874 24.225C36.8707 24.275 36.7541 24.3 36.6374 24.3C36.3874 24.3 36.1707 24.2083 35.9874 24.025C35.8207 23.825 35.7374 23.6167 35.7374 23.4C35.7374 23.1167 35.8791 22.9167 36.1624 22.8C36.5791 22.6 36.9541 22.45 37.2874 22.35C37.6374 22.2333 37.9707 22.175 38.2874 22.175C38.5707 22.175 38.8457 22.225 39.1124 22.325C39.5291 22.4917 39.8874 22.725 40.1874 23.025C40.4874 23.325 40.6791 23.675 40.7624 24.075C40.8124 24.2917 40.8374 24.525 40.8374 24.775C40.8374 25.325 40.7124 25.875 40.4624 26.425C40.2291 26.9583 39.9041 27.4167 39.4874 27.8ZM27.2509 41.275C27.5175 41.275 27.7175 41.3583 27.8509 41.525C28.0009 41.6916 28.0759 41.8916 28.0759 42.125C28.0759 42.3583 28.0009 42.5583 27.8509 42.725C27.7175 42.8916 27.5175 42.975 27.2509 42.975H25.6509V56.2C25.6509 56.45 25.5675 56.65 25.4009 56.7999C25.2342 56.9333 25.0342 57 24.8009 57C24.5675 57 24.3675 56.9333 24.2009 56.7999C24.0342 56.65 23.9509 56.45 23.9509 56.2V42.975H21.9509C21.7009 42.975 21.5009 42.8916 21.3509 42.725C21.2175 42.5583 21.1509 42.3583 21.1509 42.125C21.1509 41.8916 21.2175 41.6916 21.3509 41.525C21.5009 41.3583 21.7009 41.275 21.9509 41.275H27.2509ZM34.253 45.025C34.2864 45.6583 34.303 46.15 34.303 46.5C34.303 47.5166 34.178 48.3416 33.928 48.975C33.628 49.7416 33.2114 50.2583 32.678 50.525C32.3447 50.6916 31.978 50.775 31.578 50.775C31.3947 50.775 31.253 50.7666 31.153 50.75V56.0499C31.153 56.2999 31.0697 56.5 30.903 56.65C30.7364 56.7833 30.5364 56.85 30.303 56.85C30.0697 56.85 29.8697 56.7833 29.703 56.65C29.5364 56.5 29.453 56.2999 29.453 56.0499V41.825C29.453 41.475 29.6114 41.225 29.928 41.0749C30.0614 41.0083 30.1864 40.9749 30.303 40.9749C31.9364 40.875 33.053 41.2916 33.653 42.225C33.8864 42.575 34.0364 42.9583 34.103 43.375C34.1697 43.775 34.2197 44.3249 34.253 45.025ZM32.478 47.75C32.5447 47.2833 32.578 46.75 32.578 46.15C32.578 45.8833 32.5614 45.4666 32.528 44.9C32.528 44.6166 32.503 44.3 32.453 43.9499C32.3864 43.5666 32.3114 43.2999 32.228 43.15C32.078 42.95 31.8947 42.825 31.678 42.775C31.5114 42.725 31.3364 42.6999 31.153 42.6999V49.05H31.178C31.2447 49.0666 31.3614 49.075 31.528 49.075C31.778 49.075 31.953 49.0166 32.053 48.9C32.1697 48.7666 32.253 48.6166 32.303 48.45C32.3697 48.2666 32.428 48.0333 32.478 47.75ZM43.1757 56.125C43.209 56.375 43.1424 56.5666 42.9757 56.7C42.8257 56.8333 42.634 56.9 42.4007 56.9C42.1674 56.9 41.9507 56.8333 41.7507 56.7C41.5674 56.5666 41.4674 56.375 41.4507 56.125L41.0507 52.175H38.1757C37.959 53.6416 37.7924 54.9583 37.6757 56.125C37.659 56.375 37.5507 56.5666 37.3507 56.7C37.1674 56.8333 36.959 56.9 36.7257 56.9C36.4757 56.9 36.2757 56.8333 36.1257 56.7C35.9757 56.5666 35.909 56.375 35.9257 56.125C36.1257 54.2416 36.3757 52.3583 36.6757 50.475C36.9924 48.475 37.3007 46.8083 37.6007 45.475C37.9007 44.125 38.309 42.825 38.8257 41.575C39.009 41.1583 39.2924 40.9499 39.6757 40.9499H40.8757C41.1257 40.9499 41.3257 41.0333 41.4757 41.1999C41.6257 41.3666 41.7174 41.5666 41.7507 41.8L43.1757 56.125ZM40.1257 42.975C39.7424 44.0583 39.4257 45.1916 39.1757 46.375C38.9257 47.5416 38.6757 48.9166 38.4257 50.5H40.8757L40.1257 42.975ZM48.7021 41.95C48.7021 41.6833 48.7854 41.4833 48.9521 41.35C49.1187 41.2 49.3187 41.125 49.5521 41.125C49.7854 41.125 49.9854 41.2 50.1521 41.35C50.3187 41.4833 50.4021 41.6833 50.4021 41.95V56.1C50.4021 56.35 50.3187 56.5499 50.1521 56.7C49.9854 56.8333 49.7854 56.9 49.5521 56.9C49.3187 56.9 49.1187 56.8333 48.9521 56.7C48.7854 56.5499 48.7021 56.35 48.7021 56.1V49.875C48.0521 49.9083 47.4104 49.8833 46.7771 49.8V56.1C46.7771 56.35 46.6937 56.5499 46.5271 56.7C46.3604 56.8333 46.1604 56.9 45.9271 56.9C45.6937 56.9 45.4937 56.8333 45.3271 56.7C45.1604 56.5499 45.0771 56.35 45.0771 56.1V41.95C45.0771 41.6833 45.1604 41.4833 45.3271 41.35C45.4937 41.2 45.6937 41.125 45.9271 41.125C46.1604 41.125 46.3604 41.2 46.5271 41.35C46.6937 41.4833 46.7771 41.6833 46.7771 41.95V48.075C47.3771 48.175 48.0187 48.2083 48.7021 48.175V41.95ZM56.313 52.6C56.3797 52.4166 56.4797 52.275 56.613 52.175C56.763 52.075 56.9213 52.025 57.088 52.025C57.3213 52.025 57.5213 52.1 57.688 52.25C57.8713 52.3833 57.963 52.5666 57.963 52.8C57.963 52.9166 57.9547 53 57.938 53.05C57.888 53.2 57.8297 53.425 57.763 53.725C57.6297 54.2416 57.5047 54.6583 57.388 54.975C57.2713 55.2916 57.1213 55.5833 56.938 55.85C56.488 56.5 55.9213 56.825 55.238 56.825C54.8713 56.825 54.5213 56.7416 54.188 56.575C53.988 56.475 53.8463 56.3416 53.763 56.1749C53.4963 55.625 53.2713 54.9833 53.088 54.25C52.9213 53.4333 52.7797 52.4583 52.663 51.325C52.4963 49.5916 52.413 48.25 52.413 47.3C52.413 46.85 52.4213 46.5083 52.438 46.275C52.5213 45.1083 52.6797 44.1333 52.913 43.35C53.1963 42.2999 53.563 41.5916 54.013 41.225C54.3963 40.9083 54.7797 40.75 55.163 40.75C55.763 40.75 56.3047 41.075 56.788 41.725C57.288 42.3583 57.663 43.0499 57.913 43.7999C57.9463 43.9333 57.963 44.025 57.963 44.0749C57.963 44.3083 57.8797 44.4916 57.713 44.625C57.5463 44.7583 57.3463 44.825 57.113 44.825C56.9297 44.825 56.763 44.775 56.613 44.6749C56.4797 44.575 56.3797 44.4333 56.313 44.25C56.1297 43.65 55.9047 43.1916 55.638 42.875C55.438 42.6416 55.2797 42.4916 55.163 42.4249C55.1797 42.4249 55.1963 42.4166 55.213 42.4L55.163 42.4249C55.163 42.4416 55.138 42.475 55.088 42.525C54.938 42.725 54.8297 42.9166 54.763 43.1C54.3297 44.2 54.113 45.4666 54.113 46.9C54.113 48.45 54.2047 50.0666 54.388 51.75C54.488 52.6666 54.5797 53.3666 54.663 53.85C54.763 54.3333 54.938 54.7833 55.188 55.2H55.263L55.363 55.15C55.5297 54.9833 55.6547 54.775 55.738 54.525C55.8713 54.1916 55.988 53.8166 56.088 53.4C56.2047 52.9833 56.2797 52.7166 56.313 52.6ZM64.6181 48.075C64.8347 48.0583 64.9931 48.1166 65.0931 48.25C65.2097 48.3833 65.2681 48.5416 65.2681 48.725C65.2681 48.9083 65.2097 49.0666 65.0931 49.2C64.9931 49.3333 64.8347 49.4083 64.6181 49.4249L63.5431 49.45C62.9597 49.45 62.5264 49.4416 62.2431 49.4249L60.6431 49.4C60.4431 49.4 60.2847 49.3333 60.1681 49.2C60.0514 49.0666 59.9931 48.9083 59.9931 48.725C59.9931 48.5416 60.0514 48.3833 60.1681 48.25C60.2847 48.1166 60.4431 48.05 60.6431 48.05C60.9931 48.05 61.2431 48.0583 61.3931 48.075L63.3181 48.1C63.8514 48.1 64.2847 48.0916 64.6181 48.075ZM30.2751 60.35C30.1418 60.45 30.0501 60.6 30.0001 60.8C29.7168 61.9667 29.4334 62.975 29.1501 63.825C28.8834 64.6583 28.5501 65.4 28.1501 66.05V61.05C28.1501 60.7833 28.0668 60.575 27.9001 60.425C27.7334 60.275 27.5251 60.2 27.2751 60.2C27.0418 60.2 26.8334 60.275 26.6501 60.425C26.4834 60.575 26.4001 60.7833 26.4001 61.05V66.2C25.9834 65.5167 25.6251 64.75 25.3251 63.9C25.0418 63.0333 24.7501 62 24.4501 60.8C24.4001 60.6 24.3001 60.45 24.1501 60.35C24.0168 60.2333 23.8668 60.175 23.7001 60.175C23.4501 60.175 23.2251 60.2583 23.0251 60.425C22.8418 60.5917 22.7501 60.8 22.7501 61.05C22.7501 61.15 22.7584 61.225 22.7751 61.275C23.0918 62.5917 23.4751 63.7833 23.9251 64.85C24.3751 65.9167 24.9501 66.8917 25.6501 67.775C25.6168 67.8083 25.6001 67.8417 25.6001 67.875L23.1251 74.925C23.0918 75.0583 23.0751 75.15 23.0751 75.2C23.0751 75.4333 23.1584 75.6167 23.3251 75.75C23.5084 75.8833 23.7168 75.95 23.9501 75.95C24.1334 75.95 24.3001 75.9 24.4501 75.8C24.6168 75.7 24.7334 75.5583 24.8001 75.375C25.0001 74.825 25.2668 73.9417 25.6001 72.725C26.0334 71.1583 26.3334 70.1583 26.5001 69.725L26.4001 75.3C26.4001 75.5667 26.4834 75.775 26.6501 75.925C26.8334 76.0583 27.0418 76.125 27.2751 76.125C27.5251 76.125 27.7334 76.0583 27.9001 75.925C28.0834 75.775 28.1668 75.5667 28.1501 75.3L28.0251 69.75C28.1584 70.1333 28.3168 70.65 28.5001 71.3C28.6834 71.9333 28.8084 72.3667 28.8751 72.6C29.2751 74 29.5584 74.95 29.7251 75.45C29.7918 75.6333 29.9001 75.775 30.0501 75.875C30.2168 75.975 30.3918 76.025 30.5751 76.025C30.8084 76.025 31.0084 75.9583 31.1751 75.825C31.3584 75.6917 31.4501 75.5083 31.4501 75.275C31.4501 75.2083 31.4334 75.1083 31.4001 74.975L28.9251 67.925C28.8751 67.825 28.8418 67.7667 28.8251 67.75C29.5251 66.8667 30.0918 65.9 30.5251 64.85C30.9584 63.7833 31.3418 62.5917 31.6751 61.275C31.6918 61.225 31.7001 61.1417 31.7001 61.025C31.7001 60.7917 31.6001 60.5917 31.4001 60.425C31.2168 60.2583 31.0084 60.175 30.7751 60.175C30.5918 60.175 30.4251 60.2333 30.2751 60.35ZM38.1743 60.075C38.0243 60.175 37.9243 60.3167 37.8743 60.5L35.3743 69.025V60.725C35.3743 60.475 35.291 60.2833 35.1243 60.15C34.9577 60 34.766 59.925 34.5493 59.925C34.316 59.925 34.116 59.9917 33.9493 60.125C33.7826 60.2583 33.6993 60.4583 33.6993 60.725V74.875C33.6993 75.125 33.7826 75.325 33.9493 75.475C34.116 75.6083 34.316 75.675 34.5493 75.675C34.7326 75.675 34.891 75.625 35.0243 75.525C35.1743 75.425 35.2826 75.2833 35.3493 75.1C36.2826 71.8667 37.116 69.025 37.8493 66.575V75.1C37.8493 75.35 37.9326 75.5417 38.0993 75.675C38.266 75.8083 38.466 75.875 38.6993 75.875C38.916 75.875 39.1077 75.8083 39.2743 75.675C39.441 75.5417 39.5243 75.35 39.5243 75.1V60.725C39.5243 60.475 39.441 60.275 39.2743 60.125C39.1077 59.975 38.9076 59.9 38.6743 59.9C38.491 59.9 38.3243 59.9583 38.1743 60.075ZM46.3735 65.5C46.3735 65.15 46.3569 64.6583 46.3235 64.025C46.2902 63.325 46.2402 62.775 46.1735 62.375C46.1069 61.9583 45.9569 61.575 45.7235 61.225C45.1235 60.2917 44.0069 59.875 42.3735 59.975C42.2569 59.975 42.1319 60.0083 41.9985 60.075C41.6819 60.225 41.5235 60.475 41.5235 60.825V75.05C41.5235 75.3 41.6069 75.5 41.7735 75.65C41.9402 75.7833 42.1402 75.85 42.3735 75.85C42.6069 75.85 42.8069 75.7833 42.9735 75.65C43.1402 75.5 43.2235 75.3 43.2235 75.05V69.75C43.3235 69.7667 43.4652 69.775 43.6485 69.775C44.0485 69.775 44.4152 69.6917 44.7485 69.525C45.2819 69.2583 45.6985 68.7417 45.9985 67.975C46.2485 67.3417 46.3735 66.5167 46.3735 65.5ZM44.6485 65.15C44.6485 65.75 44.6152 66.2833 44.5485 66.75C44.4985 67.0333 44.4402 67.2667 44.3735 67.45C44.3235 67.6167 44.2402 67.7667 44.1235 67.9C44.0235 68.0167 43.8485 68.075 43.5985 68.075C43.4319 68.075 43.3152 68.0667 43.2485 68.05H43.2235V61.7C43.4069 61.7 43.5819 61.725 43.7485 61.775C43.9652 61.825 44.1485 61.95 44.2985 62.15C44.3819 62.3 44.4569 62.5667 44.5235 62.95C44.5735 63.3 44.5985 63.6167 44.5985 63.9C44.6319 64.4667 44.6485 64.8833 44.6485 65.15ZM48.6212 60.525C48.4545 60.6583 48.3712 60.85 48.3712 61.1V75.15C48.3712 75.4 48.4545 75.5917 48.6212 75.725C48.7879 75.8583 48.9795 75.925 49.1962 75.925C49.4295 75.925 49.6212 75.8583 49.7712 75.725C49.9379 75.5917 50.0212 75.4 50.0212 75.15V61.1C50.0212 60.8333 49.9379 60.6333 49.7712 60.5C49.6212 60.3667 49.4295 60.3 49.1962 60.3C48.9795 60.3 48.7879 60.375 48.6212 60.525ZM56.6706 72.6C56.6373 71.95 56.5706 71.475 56.4706 71.175C56.3039 70.6083 55.9456 70.1417 55.3956 69.775C56.3289 68.925 56.7956 67.325 56.7956 64.975C56.7956 64.425 56.7873 64.025 56.7706 63.775C56.7373 63.0917 56.7039 62.575 56.6706 62.225C56.6373 61.8583 56.5289 61.4917 56.3456 61.125C56.1623 60.7417 55.8706 60.425 55.4706 60.175C54.9873 59.875 54.3956 59.725 53.6956 59.725C53.3789 59.725 53.0706 59.75 52.7706 59.8C52.4539 59.85 52.2539 60.0083 52.1706 60.275C52.0706 60.3917 52.0206 60.5583 52.0206 60.775V74.95C52.0206 75.2167 52.1206 75.4333 52.3206 75.6C52.4206 75.7167 52.5706 75.8 52.7706 75.85C53.0539 75.9 53.3373 75.925 53.6206 75.925C54.2873 75.925 54.8873 75.7917 55.4206 75.525C55.9539 75.2417 56.3289 74.8083 56.5456 74.225C56.6456 73.9583 56.6873 73.65 56.6706 73.3V72.6ZM54.5206 61.6C54.8206 61.7667 54.9789 62.0667 54.9956 62.5C54.9956 62.8 55.0039 63.025 55.0206 63.175L55.0456 63.9C55.0623 64.1667 55.0706 64.5833 55.0706 65.15C55.0706 65.9167 55.0206 66.5583 54.9206 67.075C54.6873 68.1083 54.2956 68.6917 53.7456 68.825V61.45C54.0123 61.45 54.2706 61.5 54.5206 61.6ZM54.9956 72.85C54.9956 73.15 54.9706 73.425 54.9206 73.675C54.9039 73.775 54.8706 73.85 54.8206 73.9C54.7706 73.95 54.6873 74 54.5706 74.05C54.4706 74.0833 54.3623 74.1167 54.2456 74.15C54.1456 74.1667 54.0789 74.1833 54.0456 74.2H53.7456V70.825C54.0456 70.9417 54.2873 71.075 54.4706 71.225C54.6706 71.3583 54.7956 71.525 54.8456 71.725C54.9456 72.025 54.9956 72.4 54.9956 72.85Z" fill="#4B3209"/>
</svg>
