<svg width="100" height="100" viewBox="0 0 100 100" fill="none" xmlns="http://www.w3.org/2000/svg">
<g clip-path="url(#clip0)">
<rect width="100" height="100" fill="white"/>
<path d="M2.76635 39.7518C3.06838 40.2573 3.78081 40.3028 4.14421 39.8399C5.30939 38.3638 6.0839 36.2835 6.72369 34.267C6.74632 34.1957 6.84307 34.186 6.87909 34.2516C6.91324 34.3137 7.00367 34.3091 7.03136 34.2438L8.16775 31.5645C8.20311 31.4811 8.24974 31.4029 8.30553 31.3317C10.0672 29.0827 11.2604 26.6195 12.4102 24.2219C13.7242 21.493 15.0831 18.6739 17.2956 16.2156C17.5651 15.9224 18.2502 15.3924 18.9802 14.8399C21.5184 12.9116 23.4614 11.3103 23.4726 9.72034C23.4726 9.17907 23.1581 8.76184 22.664 8.6378C22.1024 8.50248 21.3275 8.72801 19.2722 10.2391C18.0032 11.175 16.3634 12.5282 14.6563 14.0505C11.5678 16.802 8.13118 20.2413 7.41241 21.6847C6.62624 23.2634 5.03145 26.8945 3.85221 30.4014C1.44879 37.5395 2.42588 39.1858 2.75158 39.7271L2.76635 39.7518ZM93.5085 33.7731L93.5142 33.778C93.6627 33.9058 93.852 33.9761 94.0476 33.9761C94.0589 33.9761 94.0813 33.9761 94.0926 33.9761C95.0921 33.9761 95.5301 33.401 95.7098 33.0627C96.0692 32.341 95.9569 31.2923 95.3729 29.8602C94.9686 28.8904 94.4183 27.9319 94.1038 27.5259C93.6545 26.9396 93.1491 26.9396 92.8908 26.9959C92.5539 27.0636 92.1047 27.323 91.8913 28.1349C91.5319 29.5444 91.8913 32.3636 93.5085 33.7731ZM32.8392 7.22824C33.9286 6.72079 35.0517 6.1908 36.2983 5.77357C39.9259 4.55571 43.0256 4.33018 47.4618 4.34145C60.3998 4.35273 71.7318 8.00632 80.2224 14.9075C80.3572 15.0203 80.5256 15.1556 80.7165 15.3135C81.5476 16.0014 82.8167 17.0501 83.9735 17.8733C85.1415 18.7077 86.0288 19.2264 86.7138 19.2264C86.9946 19.2264 87.2417 19.1362 87.4663 18.9445C88.2862 18.2115 87.6797 16.8809 86.2758 14.6707C84.2767 11.5584 78.7399 8.24312 75.438 6.25846L75.2022 6.11186C70.9344 3.56337 66.0827 1.78169 60.7704 0.811908C55.9748 -0.033829 50.8985 -0.225529 45.6873 0.270637C44.553 0.25936 40.173 0.541273 36.0063 1.40956C29.2902 2.80785 25.5054 5.09698 24.7417 8.23185C24.6115 8.76061 25.0078 9.28056 25.5503 9.28056C28.4704 9.26928 30.593 8.27695 32.8392 7.22824ZM99.1015 43.1326C98.7534 41.0126 98.394 39.2535 98.0009 37.9229C97.4618 36.0171 96.9003 35.0023 96.204 34.5963C95.6986 34.3144 95.137 34.3482 94.6541 34.6978C94.1487 35.0586 94.115 35.6337 94.4295 37.765C94.6204 39.0054 94.8899 40.5052 95.137 41.8358C95.3392 42.9522 95.575 44.2264 95.5863 44.4745C95.8558 51.3757 94.9124 58.4687 92.9245 64.4452C91.1164 69.8692 88.3199 73.9287 85.3661 78.2251C84.4789 79.5106 83.558 80.8525 82.637 82.2621C82.4236 82.5891 81.3455 84.2918 80.3347 86.0284C79.7731 86.9982 79.3351 87.7876 79.0319 88.3852C78.9168 88.5971 78.6911 88.7205 78.4513 88.7381C77.9029 88.7784 77.0354 89.0135 75.5166 89.6707C74.8652 89.9526 74.2588 90.2458 73.8657 90.4375C73.4838 90.6292 73.2705 90.7307 73.1357 90.8097C70.4964 92.1065 69.4519 93.1552 69.7552 94.2152C69.7818 94.3222 69.6888 94.4241 69.587 94.3826L68.8455 94.0798C68.1941 93.8092 67.2282 93.5047 66.5207 94.0009C66.2287 94.2039 65.8805 94.6098 65.8917 95.3879C65.8984 95.7512 66.1411 96.0704 66.487 96.1773C66.7004 96.2449 66.9587 96.29 67.2395 96.29C67.7898 96.29 68.4524 96.0983 69.1038 95.4781L69.1616 95.4231C69.5928 95.0126 70.3263 95.0694 70.8982 95.231C71.1962 95.3151 71.566 95.3654 72.0238 95.3654C72.2372 95.3654 72.4731 95.3541 72.7314 95.3315C75.0247 95.1181 78.5994 93.7971 79.6153 91.1121C79.6225 91.0931 79.6406 91.0803 79.6608 91.0803C79.6833 91.0803 79.717 91.0803 79.7394 91.0803C80.9075 91.0803 82.345 89.6595 85.3661 85.5774C85.602 85.2503 85.7929 85.0023 85.9052 84.8669C86.4443 84.1904 87.354 83.2657 88.4097 82.1944C91.2388 79.3115 94.6731 75.8208 95.0848 73.0521C95.1331 72.7275 95.2941 72.426 95.5174 72.1862C96.4672 71.1655 97.4962 68.6407 98.5512 62.4831C99.5171 56.8336 99.9888 51.0036 100 50.9472C100.034 50.4285 99.6743 46.7073 99.1015 43.1326ZM28.2682 89.5016C20.9681 85.9946 13.4209 82.3748 10.1415 74.7181C9.71474 73.7483 7.58087 66.4637 5.76146 59.0889C2.3585 45.2751 3.07727 43.4484 3.17835 43.2792C3.07262 43.4915 2.8153 43.2584 2.82475 43.0212L2.84143 42.6026C2.86001 42.136 2.48189 41.7234 2.04978 41.8961C1.76268 42.0108 1.50025 42.1948 1.2691 42.4447C-0.516616 44.3843 -0.101072 50.4398 0.606475 56.687C0.67386 57.2733 0.730015 57.7357 0.752477 58.0176C1.40387 65.742 3.80728 71.1885 7.21025 76.9847C9.89443 81.5404 12.8369 84.3257 16.5656 87.8552L16.6891 87.968C17.3181 88.5544 19.6429 90.2909 21.9901 91.8358C23.2929 92.6928 24.3823 93.3469 25.2359 93.7979C26.6509 94.5309 27.3697 94.6662 27.8976 94.3054C27.9851 94.2468 28.0928 94.2234 28.1923 94.2577C29.3126 94.644 30.1459 95.1263 30.9075 95.5571C32.1204 96.2449 33.221 96.8651 34.872 96.8651C35.7031 96.8651 36.6689 96.7073 37.8594 96.3239C38.5266 96.1097 38.6542 95.2163 38.0728 94.8241C35.0966 92.783 31.6262 91.1141 28.2682 89.5016Z" fill="#C3D833"/>
<path d="M64.1059 96.3234C64.0541 96.3071 64.0027 96.2902 63.9523 96.2701C63.4503 96.0706 62.6317 95.9113 61.2646 95.7826C58.659 95.5345 54.8967 95.5007 51.6846 95.6811C45.523 96.0285 44.853 96.9441 44.5694 97.3317L44.5642 97.3388C44.2094 97.847 44.5052 98.5535 45.1146 98.6581C45.8895 98.7934 46.6644 98.94 47.4057 99.0866L47.5494 99.1138C49.9456 99.5664 52.2406 100 54.7731 100C55.0971 100 55.4321 99.9889 55.7672 99.9776C55.7702 99.9775 55.7727 99.9799 55.7727 99.9829C55.7727 99.9861 55.7753 99.9885 55.7784 99.9882L56.3856 99.9374C56.4261 99.9341 56.4661 99.9263 56.505 99.9143L56.7386 99.8421C57.4349 99.549 62.7808 97.8462 63.6343 97.9477C63.5552 97.9389 63.9939 97.9978 64.327 97.9545C64.489 97.9335 64.6238 97.825 64.6925 97.6762C64.8947 97.2388 64.7582 96.8403 64.5553 96.6171C64.4465 96.478 64.2941 96.3827 64.1059 96.3234Z" fill="#C3D833"/>
<path d="M31.0662 30H42.3662V32.58H34.2862V35.46H38.1662C39.8595 35.46 41.1462 35.8133 42.0262 36.52C42.9195 37.2267 43.3662 38.2467 43.3662 39.58C43.3662 40.98 42.8728 42.0667 41.8862 42.84C40.8995 43.6133 39.5062 44 37.7062 44H31.0662V30ZM37.5262 41.6C38.3528 41.6 38.9862 41.44 39.4262 41.12C39.8662 40.7867 40.0862 40.3067 40.0862 39.68C40.0862 38.4533 39.2328 37.84 37.5262 37.84H34.2862V41.6H37.5262ZM56.6718 41.4V44H45.8318V30H56.4118V32.6H49.0518V35.64H55.5518V38.16H49.0518V41.4H56.6718ZM67.2488 36.7C68.0622 36.98 68.6955 37.42 69.1488 38.02C69.6155 38.6067 69.8488 39.2933 69.8488 40.08C69.8488 40.9333 69.5688 41.6733 69.0088 42.3C68.4488 42.9267 67.6888 43.4067 66.7288 43.74C65.7822 44.0733 64.7422 44.24 63.6088 44.24C62.6488 44.24 61.6888 44.12 60.7288 43.88C59.7822 43.64 58.8822 43.2733 58.0288 42.78L59.0288 40.46C59.6422 40.8333 60.3155 41.12 61.0488 41.32C61.7955 41.5067 62.5222 41.6 63.2288 41.6C64.1888 41.6 64.9822 41.4267 65.6088 41.08C66.2488 40.7333 66.5688 40.2467 66.5688 39.62C66.5688 39.1 66.3488 38.7067 65.9088 38.44C65.4822 38.1733 64.8955 38.04 64.1488 38.04H60.7288V35.6H63.9088C64.5622 35.6 65.0688 35.4667 65.4288 35.2C65.8022 34.9333 65.9888 34.5667 65.9888 34.1C65.9888 33.5533 65.7222 33.1267 65.1888 32.82C64.6688 32.5133 63.9955 32.36 63.1688 32.36C62.5555 32.36 61.9222 32.4467 61.2688 32.62C60.6155 32.78 59.9955 33.0267 59.4088 33.36L58.4288 30.84C59.9088 30.08 61.5088 29.7 63.2288 29.7C64.3222 29.7 65.3288 29.86 66.2488 30.18C67.1688 30.5 67.9022 30.9667 68.4488 31.58C68.9955 32.1933 69.2688 32.9067 69.2688 33.72C69.2688 34.3867 69.0888 34.98 68.7288 35.5C68.3688 36.02 67.8755 36.42 67.2488 36.7Z" fill="#4B3209"/>
<path d="M34.3548 54.664H25.3638L25.3908 70H21.0438V51.1H34.3818L34.3548 54.664ZM54.2477 70L54.2207 58.687L48.6587 68.002H46.7147L41.1527 58.903V70H37.0487V51.1H40.6667L47.7407 62.845L54.7067 51.1H58.3247L58.3517 70H54.2477Z" fill="#4D9D20"/>
<path fill-rule="evenodd" clip-rule="evenodd" d="M71.4985 70.0823C77.2967 70.0823 81.9971 65.3629 81.9971 59.5412C81.9971 53.7194 77.2967 49 71.4985 49C65.7004 49 61 53.7194 61 59.5412C61 65.3629 65.7004 70.0823 71.4985 70.0823ZM71.6746 60.0006C72.7131 61.8067 73.1517 63.7708 73.3098 65.4488C73.488 64.5971 73.787 63.7023 74.2731 62.8568C76.0262 59.8081 79.5495 58.5551 79.5495 58.5551C79.5495 58.5551 80.2305 62.2453 78.4774 65.294C76.7243 68.3428 73.201 69.5957 73.201 69.5957L73.201 69.5956C73.1827 69.5891 68.1799 67.8038 65.6884 63.4708C63.1923 59.1299 64.1619 53.8758 64.1619 53.8758C64.1619 53.8758 69.1785 55.6597 71.6746 60.0006Z" fill="#4D9D20"/>
</g>
<defs>
<clipPath id="clip0">
<rect width="100" height="100" fill="white"/>
</clipPath>
</defs>
</svg>
