<svg width="200" height="100" viewBox="0 0 200 100" fill="none" xmlns="http://www.w3.org/2000/svg">
<g clip-path="url(#clip0)">
<rect width="200" height="100" fill="white"/>
<path d="M100.787 92.3254C103.291 91.3161 107.121 88.8981 109.624 88.9191C110.212 88.9191 110.155 90.1807 110.629 90.2648C112.127 90.5381 112.525 89.7392 113.663 89.1504C115.066 88.4145 114.042 88.3304 115.559 88.1412C116.242 88.0571 117.759 88.9612 118.612 88.9822C119.087 88.9822 121.647 88.9612 121.912 88.2884C122.557 86.6063 120.755 87.6576 120.774 86.2909C120.774 85.1134 125.344 85.7021 125.591 86.5852C126.008 88.0571 123.201 87.8258 124.51 89.5289C128.018 86.0596 130.047 88.793 133.934 88.0571C134.579 87.9309 135.11 86.9637 135.85 86.8586C136.912 86.7324 138.049 87.3422 139.073 87.5104C142.335 88.0571 141.69 87.6786 143.909 85.5339C143.055 84.6088 142.013 85.0293 141.178 83.936C142.013 83.3262 142.657 83.8519 143.321 83.4103C143.757 83.137 144.117 82.1908 144.44 82.0226C146.829 80.782 144.364 80.9713 147.151 81.2656C147.076 81.2656 149.636 81.8333 149.408 81.6441C149.996 82.1277 148.744 84.0411 149.844 84.1252C151.323 84.2303 151.247 82.2749 152.177 82.1487C152.84 82.0646 153.485 83.3052 153.94 83.179C154.945 82.9057 155.704 81.8964 156.898 81.4549C156.898 82.359 156.424 83.6626 156.822 84.4406C158.226 82.6744 157.96 83.2421 159.97 82.9688C159.363 81.4128 159.382 81.2867 159.781 79.6256C158.605 79.7307 156.614 80.0041 155.779 78.9948C156.462 78.4061 158.87 77.6492 159.61 77.7963C161.089 78.0907 160.748 78.8266 161.544 79.6466C161.923 80.0461 161.089 81.3077 162.018 81.4969C163.421 81.7913 162.36 80.2984 163.497 79.962C165.697 79.3102 170.589 80.0672 172.827 80.719C173.794 81.0133 174.628 81.6862 175.558 81.9805C176.051 82.1277 176.638 81.6021 177.094 81.7703C178.516 82.3169 179.862 83.2421 180.791 84.5457C181.341 85.3027 180.696 86.5432 181.531 87.0268C182.327 87.4894 183.37 86.8376 184.205 87.1529C185.703 87.6996 185.608 88.7509 186.784 89.4448C188.414 90.391 187.637 90.4751 189.495 90.3699C189.78 90.6433 190.083 90.8325 190.443 90.9376C190.898 91.2951 191.183 91.0848 191.297 90.3069C191.486 89.9915 191.657 89.6761 191.847 89.3817C192.434 89.4238 193.003 89.5499 193.553 89.7812C195.696 89.8022 197.915 92.3043 198.825 89.3607C199.09 88.4986 198.237 87.3842 198.427 86.396C198.597 85.5129 200.114 84.4826 200.057 83.6626C199.678 78.7425 186.499 77.8384 183.787 74.6424C182.346 72.9393 182.119 69.428 181.341 67.1361C180.336 64.2135 179.161 61.4381 177.985 58.5995C177.549 57.5482 170.855 41.8838 170.191 42.6618C171.177 41.5053 174.761 41.7997 176.108 41.3371C178.686 40.454 179.198 40.2648 179.843 37.3842C180.45 34.756 180.222 31.7703 180.753 29.0789C181.322 26.0932 182.346 23.2968 182.934 20.3111C184.205 13.814 182.707 12.3211 177.226 10.4288C171.917 8.57851 166.512 6.93847 160.975 6.11846C144.098 3.61635 126.766 3.27994 109.776 2.37582C93.1076 1.47169 76.4204 0.69373 59.7142 0.336286C51.143 0.168078 42.4202 -0.420652 33.8869 0.546547C30.1892 0.967069 24.1211 -0.168339 21.4284 3.0907C18.2996 6.85437 17.8634 14.1504 17.1239 18.8813C16.7257 21.4675 16.0809 24.1378 16.1757 26.7661C16.3085 30.4246 17.1808 30.1513 13.502 30.8872C9.17849 31.7492 2.40879 31.7282 4.32403 38.2463C5.9169 43.65 9.17849 51.5348 12.3453 55.9713C15.3983 60.2606 21.4664 61.1857 25.6002 63.6037C22.3386 65.454 17.6738 65.412 14.0709 66.0428C11.5109 66.4843 4.45677 66.7997 2.50361 68.7972C0.58837 70.7947 1.17622 75.1891 0.986588 78.1538C0.740072 82.2118 0.455631 86.2699 0.209115 90.3489C0.0384506 93.1033 -0.492506 94.449 1.11933 96.1942C3.0156 98.2337 7.07363 99.0958 9.59567 99.264C13.7296 99.5373 17.9203 99.4532 22.0542 99.5373C26.226 99.6214 31.1184 100.462 35.2143 99.7055C38.3053 99.1378 40.6377 96.9301 44.0131 97.0142C45.6628 97.0562 47.0092 97.8552 48.7158 97.5819C50.157 97.3716 51.2379 96.3834 52.7738 96.4465C55.9027 96.5726 58.6902 97.2034 61.9897 96.888C65.896 96.5306 69.7645 96.2572 73.6708 95.7316C77.122 95.269 80.5922 95.3321 83.9865 95.227C86.6034 95.1639 88.6703 94.5541 91.1734 94.1757C92.406 93.9864 93.5248 94.7013 94.7763 94.3018C95.3073 94.1336 95.2125 92.7249 96.0089 92.6618C96.7105 92.5987 97.0708 94.1546 97.4121 94.1126C98.7775 93.9864 99.5928 92.809 100.787 92.3254Z" fill="#C3D833"/>
<path d="M98.0363 18.7461C95.7413 19.5855 92.2551 21.5157 89.9296 21.5933C89.3836 21.6152 89.399 20.6804 88.9562 20.6359C87.5567 20.4896 87.2105 21.0951 86.1711 21.5727C84.8896 22.169 85.8432 22.193 84.4397 22.3894C83.8082 22.477 82.3723 21.8651 81.5791 21.8813C81.1388 21.8989 78.7617 22.0098 78.535 22.5171C77.986 23.7847 79.6281 22.9404 79.651 23.9515C79.6859 24.822 75.4237 24.5568 75.1685 23.9131C74.7374 22.8406 77.351 22.9071 76.0853 21.6967C72.9296 24.3921 70.9641 22.4468 67.3752 23.1356C66.7801 23.2529 66.3156 23.9877 65.6318 24.0929C64.6492 24.2257 63.5743 23.8173 62.6182 23.7311C59.5726 23.4483 60.1827 23.7041 58.1855 25.3723C59.0055 26.0245 59.9617 25.6747 60.7691 26.452C60.0122 26.9339 59.3978 26.5692 58.7944 26.9204C58.3974 27.1387 58.0908 27.8516 57.7964 27.988C55.6139 28.9941 57.898 28.7624 55.3001 28.6485C55.3706 28.6457 52.976 28.3213 53.1929 28.4527C52.6326 28.1171 53.7384 26.6559 52.7143 26.6347C51.3374 26.612 51.4658 28.0549 50.6065 28.1827C49.9925 28.2696 49.3569 27.3765 48.938 27.4867C48.0126 27.7262 47.3379 28.5005 46.2414 28.8715C46.2146 28.203 46.6163 27.2216 46.2234 26.6613C44.9724 28.0193 45.2021 27.5897 43.3432 27.8666C43.953 28.9943 43.9391 29.0883 43.6184 30.3311C44.7073 30.2096 46.5486 29.9334 47.3535 30.6485C46.7368 31.1092 44.5224 31.7584 43.8311 31.6772C42.4486 31.5146 42.7438 30.9578 41.9798 30.3812C41.6157 30.1 42.3533 29.1363 41.4846 29.031C40.1725 28.8656 41.2031 29.9297 40.1563 30.2208C38.1325 30.7845 33.5659 30.4071 31.4682 30.0085C30.5613 29.8268 29.7663 29.3605 28.8946 29.1774C28.4323 29.087 27.9018 29.4975 27.4741 29.3901C26.137 29.0388 24.859 28.405 23.9574 27.4758C23.4242 26.9367 23.9863 25.9956 23.1969 25.6691C22.4435 25.3568 21.4941 25.8775 20.7098 25.6754C19.3021 25.327 19.3591 24.5462 18.2465 24.077C16.7037 23.4382 17.4234 23.3471 15.7004 23.494C15.4281 23.3025 15.1407 23.1739 14.8029 23.1096C14.3696 22.8622 14.1117 23.0283 14.029 23.6077C13.8623 23.8479 13.7131 24.0874 13.5457 24.3121C12.9984 24.3029 12.4663 24.2308 11.9487 24.0803C9.95777 24.1445 7.82291 22.3773 7.06469 24.5874C6.84365 25.2346 7.66926 26.0267 7.5224 26.7644C7.39006 27.4236 6.01155 28.2418 6.08869 28.8459C6.58673 32.4692 18.8546 32.647 21.4679 34.9089C22.857 36.1143 23.1724 38.7018 23.9624 40.3672C24.9825 42.4905 26.1568 44.4986 27.3329 46.5534C27.7691 47.3144 34.4507 58.6459 35.0441 58.0461C34.1625 58.9377 30.8249 58.8535 29.5881 59.2456C27.2188 59.9945 26.7489 60.1535 26.2354 62.3071C25.7497 64.2727 26.0495 66.4716 25.6361 68.4811C25.1961 70.7096 24.3279 72.8151 23.8703 75.0444C22.8828 79.8949 24.3185 80.9428 29.4647 82.1378C34.4512 83.3081 39.5195 84.3194 44.6868 84.7195C60.4365 85.9411 76.5448 85.5446 92.3529 85.5806C107.862 85.6285 123.384 85.5825 138.912 85.2248C146.878 85.0301 154.997 85.1407 162.895 84.1079C166.317 83.6594 171.986 84.2729 174.391 81.7633C177.186 78.8643 177.375 73.4541 177.921 69.929C178.214 68.0022 178.734 66.0041 178.568 64.0645C178.337 61.3647 177.534 61.5993 180.93 60.9182C184.92 60.12 191.208 59.8835 189.236 55.136C187.597 51.2003 184.334 45.4925 181.261 42.3305C178.298 39.273 172.634 38.8149 168.723 37.1812C171.698 35.6919 176.032 35.5493 179.36 34.9488C181.724 34.5271 188.267 34.0313 190.022 32.4819C191.742 30.9339 191.065 27.7069 191.154 25.5081C191.262 22.4988 191.406 19.4881 191.515 16.4633C191.591 14.4206 192.045 13.406 190.496 12.1758C188.674 10.7385 184.879 10.2523 182.532 10.2218C178.684 10.1736 174.794 10.3918 170.952 10.4835C167.075 10.5766 162.506 10.1369 158.724 10.849C155.87 11.3838 153.769 13.1028 150.631 13.1663C149.097 13.1966 147.823 12.656 146.246 12.9216C144.914 13.1307 143.939 13.9015 142.51 13.9121C139.601 13.9353 136.993 13.5727 133.937 13.9287C130.32 14.3384 126.735 14.6845 123.122 15.2185C119.93 15.689 116.705 15.7715 113.556 15.9756C111.127 16.1196 109.225 16.6474 106.911 17.0203C105.772 17.2061 104.712 16.7193 103.561 17.0612C103.073 17.2053 103.203 18.2433 102.465 18.3195C101.815 18.3923 101.434 17.2554 101.119 17.2992C99.8541 17.4433 99.1316 18.3442 98.0363 18.7461Z" fill="#C3D833"/>
<path d="M100.281 8C102.512 11.5764 104.961 15.26 107.16 19.0836C109.367 22.9237 110.543 27.0687 109.134 31.5351C107.748 35.9274 103.431 38.5891 99.0164 37.8886C94.3686 37.147 91.1546 33.4305 91.0096 28.7333C90.8807 24.7284 92.0568 21.1932 94.2317 17.8805C96.3985 14.5595 98.3881 11.1067 100.281 8ZM106.266 32.0625C105.783 32.2933 105.485 32.4334 105.179 32.5817C103.672 33.3069 102.174 33.4882 100.813 32.3098C99.5078 31.1808 99.4836 29.681 99.822 28.0988C99.9508 27.5055 100.031 26.8874 100.007 26.2859C99.9106 23.9373 97.8565 22.6023 95.8588 23.7643C94.9486 24.2917 94.1028 25.297 93.692 26.2859C92.3467 29.4997 93.8772 33.1668 97.0349 34.7572C100.676 36.5949 104.035 35.6719 106.266 32.0625Z" fill="white"/>
<path d="M106.266 32.0623C104.043 35.6717 100.676 36.5946 97.0348 34.757C93.8772 33.1666 92.3467 29.4995 93.6919 26.2857C94.1027 25.2968 94.9566 24.2997 95.8588 23.7641C97.8565 22.6021 99.9105 23.9289 100.007 26.2857C100.031 26.8872 99.9508 27.5053 99.8219 28.0986C99.4836 29.6808 99.5078 31.1723 100.813 32.3095C102.174 33.4879 103.672 33.3067 105.179 32.5815C105.477 32.4332 105.783 32.2931 106.266 32.0623Z" fill="#C3D833"/>
<path d="M51.2916 72.3706C50.3317 72.3873 49.5275 72.1513 48.8788 71.6626C48.2302 71.1738 47.8977 70.4595 47.8813 69.5197C47.8474 67.58 49.3915 66.0828 52.5136 65.0281C52.4166 62.9095 51.6782 61.8622 50.2984 61.8863L49.3686 61.9026L49.7271 60.096L50.597 60.0808C51.2969 60.0686 51.9228 59.8277 52.4747 59.358C53.0265 58.8883 53.4556 58.2607 53.762 57.4752C54.068 56.6697 54.2128 55.7971 54.1964 54.8572C54.1841 54.1573 54.0137 53.5602 53.685 53.0659C53.356 52.5515 52.8415 52.3005 52.1416 52.3127C51.4018 52.3256 50.7674 52.6567 50.2387 53.3061C49.7096 53.9354 49.2922 54.6628 48.9866 55.4883L47.5468 55.5134C48.156 53.7425 48.9313 52.3187 49.8726 51.2421C50.8336 50.1452 52.174 49.5817 53.8937 49.5517C55.3535 49.5262 56.5107 49.9261 57.3652 50.7513C58.2397 51.5762 58.6901 52.7385 58.7163 54.2383C58.7372 55.4381 58.4663 56.533 57.9035 57.5229C57.3603 58.4926 56.724 59.2838 55.9946 59.8966C55.2648 60.4894 54.6608 60.84 54.1827 60.9484C54.7057 61.1193 55.2019 61.4707 55.6713 62.0026C56.1606 62.5341 56.5018 63.1683 56.6947 63.905C57.8285 63.5452 58.7099 63.0397 59.3386 62.3886C59.9873 61.7372 60.5296 60.7176 60.9655 59.3298L62.2253 59.3078C61.7171 61.1369 60.9904 62.4798 60.0452 63.3364C59.1 64.1931 58.0302 64.7818 56.8356 65.1027C56.8347 67.3431 56.3253 69.1022 55.3074 70.3802C54.3099 71.6778 52.9713 72.3413 51.2916 72.3706ZM50.5608 70.043C50.9808 70.0357 51.3746 69.6787 51.7423 68.9722C52.1101 68.2657 52.3455 67.4314 52.4488 66.4695C50.4809 67.184 49.5059 68.0511 49.5237 69.0709C49.529 69.3709 49.6131 69.6095 49.7762 69.7866C49.9594 69.9635 50.2209 70.0489 50.5608 70.043ZM64.6641 64.8161C63.5243 64.836 62.5676 64.4626 61.7941 63.696C61.0206 62.9294 60.6194 61.7162 60.5904 60.0564C60.5646 58.5767 60.8275 57.0218 61.3791 55.392C61.9504 53.7417 62.8062 52.3466 63.9465 51.2065C65.1064 50.0461 66.4962 49.4517 68.116 49.4235C68.9359 49.4092 69.5482 49.5385 69.953 49.8115C70.3579 50.0844 70.5643 50.4509 70.5723 50.9108L70.576 51.1208L70.8782 49.5253L75.1975 49.4499L73.2159 59.686C73.1411 59.9874 73.1067 60.308 73.1127 60.648C73.1277 61.5078 73.5451 61.9306 74.365 61.9163C74.9249 61.9065 75.4003 61.6382 75.7911 61.1113C76.202 60.5841 76.5201 59.8984 76.7454 59.0543L78.0052 59.0323C77.303 61.2049 76.4088 62.6908 75.3226 63.4898C74.256 64.2686 73.1728 64.6675 72.073 64.6867C71.2331 64.7014 70.5492 64.4833 70.0212 64.0324C69.5129 63.5612 69.201 62.8766 69.0853 61.9785C68.5197 62.8085 67.8815 63.4897 67.1706 64.0222C66.4795 64.5343 65.644 64.799 64.6641 64.8161ZM66.563 61.8725C67.0629 61.8637 67.5489 61.6252 68.0208 61.1569C68.5123 60.6683 68.8409 60.0124 69.0066 59.1894L70.328 52.3853C70.3235 52.1254 70.2191 51.8771 70.015 51.6407C69.8105 51.3842 69.4983 51.2596 69.0783 51.267C68.2784 51.2809 67.5668 51.7634 66.9433 52.7144C66.3194 53.6455 65.839 54.774 65.5021 56.1001C65.1649 57.4062 65.005 58.5592 65.0224 59.559C65.0399 60.5589 65.191 61.1963 65.4759 61.4714C65.7807 61.7461 66.1431 61.8798 66.563 61.8725ZM87.6816 64.4143C86.4818 64.4352 85.5669 64.1612 84.9369 63.5921C84.3265 63.0026 84.0122 62.188 83.9941 61.1481C83.9892 60.8682 84.0494 60.3071 84.1747 59.4647C84.266 58.9631 84.3091 58.5723 84.3043 58.2923C84.2875 57.3324 83.8992 56.8592 83.1393 56.8724C82.8793 56.877 82.6308 56.9613 82.3936 57.1255C82.1761 57.2693 81.7912 57.566 81.239 58.0158L80.0296 64.3678L75.7103 64.4432L78.658 49.3895L82.9774 49.3141L81.7912 55.2757C83.1231 53.6522 84.1816 52.4135 84.9669 51.5597C85.7521 50.7059 86.471 50.0632 87.1235 49.6318C87.7958 49.18 88.4518 48.9485 89.0917 48.9373C90.3315 48.9157 90.963 49.5648 90.986 50.8846C90.9965 51.4845 90.8349 51.9674 90.5012 52.3332C90.1872 52.6788 89.7302 52.8568 89.1303 52.8672C88.5704 52.877 88.1478 52.7344 87.8627 52.4393C87.5771 52.1242 87.4408 51.7666 87.4539 51.3663C87.0781 51.6129 86.7429 51.8888 86.4482 52.194C86.1534 52.4991 85.8303 52.8948 85.4787 53.3811C85.0686 53.9483 84.667 54.4354 84.274 54.8423C84.6726 54.7553 85.0918 54.708 85.5318 54.7003C86.5716 54.6822 87.3055 54.8994 87.7335 55.352C88.1814 55.8043 88.4136 56.5003 88.43 57.4402C88.4349 57.7201 88.3829 58.1811 88.2741 58.8231C88.166 59.5051 88.1151 60.0261 88.1214 60.386C88.1343 61.1259 88.5407 61.4889 89.3406 61.4749C89.9005 61.4651 90.3371 61.2675 90.6504 60.8819C90.9837 60.4961 91.3616 59.7994 91.7841 58.7918L93.0439 58.7698C91.8487 62.4913 90.0613 64.3728 87.6816 64.4143ZM96.4385 64.2014C94.7788 64.2304 93.5204 63.7623 92.6634 62.7971C91.8265 61.8316 91.3937 60.5289 91.365 58.8892C91.3371 57.2894 91.7287 55.0822 92.5397 52.2677C93.3503 49.4331 94.4469 46.9336 95.8293 44.7691C97.2117 42.6046 98.7228 41.5081 100.363 41.4795C102.562 41.4411 103.686 42.7917 103.734 45.5313C103.768 47.471 102.99 49.8849 101.4 52.7731C101.823 52.9657 102.208 53.2591 102.555 53.6531C103.435 53.6377 104.382 53.4312 105.395 53.0334C106.428 52.6353 107.3 52.18 108.012 51.6675L108.296 52.4727C107.766 53.062 107.055 53.5845 106.163 54.0402C105.29 54.4755 104.326 54.7923 103.269 54.9908C103.375 55.369 103.434 55.8681 103.445 56.488C103.468 57.8278 103.2 59.0826 102.641 60.2526C102.081 61.4225 101.267 62.3669 100.2 63.0856C99.132 63.8044 97.8783 64.1763 96.4385 64.2014ZM97.7112 61.4788C98.3311 61.468 98.8674 61.2486 99.32 60.8206C99.7926 60.3923 100.143 59.8561 100.372 59.212C100.621 58.5676 100.739 57.9054 100.727 57.2255C100.715 56.4856 100.615 55.9373 100.429 55.5805C100.29 55.6429 100.141 55.6955 99.9814 55.7383C99.8217 55.7611 99.612 55.7748 99.352 55.7793C98.8721 55.7877 98.4899 55.6643 98.2054 55.4093C97.9209 55.1542 97.7746 54.7967 97.7666 54.3367C97.7561 53.7368 97.9284 53.2938 98.2835 53.0075C98.6585 52.7209 99.1756 52.5519 99.8348 52.5004C100.396 51.4304 100.866 50.252 101.243 48.9652C101.641 47.6581 101.83 46.4846 101.812 45.4448C101.802 44.8449 101.714 44.4263 101.55 44.1892C101.406 43.9317 101.153 43.806 100.793 43.8123C100.013 43.8259 99.2305 44.8097 98.4445 46.7638C97.6785 48.7174 97.0472 50.9388 96.5505 53.4278C96.0539 55.9169 95.8157 57.7413 95.8359 58.9011C95.8663 60.6409 96.4914 61.5001 97.7112 61.4788ZM108.954 64.043C107.814 64.0629 106.858 63.6895 106.084 62.9229C105.311 62.1563 104.91 60.9431 104.881 59.2833C104.855 57.8036 105.118 56.2487 105.669 54.6189C106.241 52.9686 107.096 51.5735 108.237 50.4334C109.397 49.273 110.786 48.6787 112.406 48.6504C113.226 48.6361 113.838 48.7654 114.243 49.0384C114.648 49.3114 114.854 49.6778 114.862 50.1377L114.866 50.3477L115.168 48.7522L119.488 48.6768L117.506 58.9129C117.431 59.2143 117.397 59.5349 117.403 59.8749C117.418 60.7348 117.835 61.1575 118.655 61.1432C119.215 61.1335 119.69 60.8651 120.081 60.3382C120.492 59.811 120.81 59.1253 121.036 58.2812L122.295 58.2593C121.593 60.4318 120.699 61.9177 119.613 62.7168C118.546 63.4955 117.463 63.8945 116.363 63.9137C115.523 63.9283 114.839 63.7102 114.311 63.2594C113.803 62.7882 113.491 62.1035 113.375 61.2054C112.81 62.0354 112.172 62.7166 111.461 63.2491C110.77 63.7612 109.934 64.0259 108.954 64.043ZM110.853 61.0994C111.353 61.0907 111.839 60.8521 112.311 60.3838C112.802 59.8952 113.131 59.2393 113.297 58.4163L114.618 51.6122C114.614 51.3523 114.509 51.1041 114.305 50.8676C114.101 50.6111 113.788 50.4865 113.368 50.4939C112.569 50.5078 111.857 50.9903 111.233 51.9414C110.61 52.8724 110.129 54.0009 109.792 55.327C109.455 56.6331 109.295 57.7861 109.313 58.7859C109.33 59.7858 109.481 60.4232 109.766 60.6983C110.071 60.973 110.433 61.1067 110.853 61.0994ZM125.433 63.7553C123.953 63.7812 122.797 63.4213 121.963 62.6757C121.13 61.9102 120.699 60.7075 120.67 59.0677C120.646 57.688 120.89 56.1635 121.401 54.4943C121.931 52.8248 122.786 51.3796 123.965 50.1589C125.164 48.9178 126.693 48.281 128.553 48.2485C129.752 48.2276 130.607 48.4727 131.116 48.9839C131.645 49.4948 131.916 50.1501 131.93 50.95C131.942 51.6499 131.802 52.1924 131.509 52.5776C131.215 52.9628 130.839 53.1594 130.379 53.1674C130.039 53.1733 129.687 53.0595 129.323 52.8258C129.551 52.1617 129.661 51.5697 129.652 51.0498C129.645 50.6698 129.57 50.3711 129.426 50.1536C129.282 49.9361 129.07 49.8297 128.79 49.8346C128.19 49.8451 127.599 50.3455 127.016 51.3358C126.433 52.3261 125.964 53.5245 125.609 54.9309C125.253 56.3373 125.085 57.6005 125.105 58.7203C125.122 59.7001 125.304 60.3671 125.65 60.7211C125.996 61.0551 126.549 61.2155 127.308 61.2022C128.388 61.1834 129.304 60.9173 130.055 60.4042C130.826 59.8906 131.663 59.1159 132.565 58.08L133.585 58.0622C131.43 61.8004 128.712 63.6981 125.433 63.7553ZM135.295 70.4842C135.53 69.0399 135.821 67.9247 136.167 67.1385C136.533 66.352 137.004 65.7937 137.578 65.4636C138.152 65.1336 138.909 64.9603 139.849 64.9439L142.189 64.9031C142.909 64.8905 143.438 64.8413 143.777 64.7553C144.135 64.6691 144.451 64.4335 144.724 64.0487C144.998 63.6639 145.217 63.0399 145.382 62.1769C144.871 62.7059 144.437 63.0536 144.08 63.2198C143.722 63.3661 143.274 63.4439 142.734 63.4533C142.014 63.4659 141.41 63.2364 140.921 62.7649C140.433 62.2733 140.13 61.5685 140.014 60.6504C139.354 61.7621 138.647 62.5245 137.894 62.9377C137.161 63.3506 136.405 63.5638 135.625 63.5774C134.665 63.5942 133.88 63.3078 133.27 62.7184C132.679 62.1286 132.373 61.2338 132.353 60.034C132.344 59.5341 132.412 58.8828 132.558 58.0801L134.43 48.416L138.749 48.3406L136.768 58.5767C136.713 58.8777 136.688 59.1582 136.692 59.4182C136.707 60.238 137.014 60.6427 137.614 60.6323C138.174 60.6225 138.65 60.3842 139.042 59.9173C139.433 59.4303 139.742 58.7749 139.967 57.9508L141.839 48.2867L146.158 48.2113L144.177 58.4474C144.102 58.7488 144.067 59.0694 144.073 59.4094C144.08 59.8093 144.175 60.0977 144.359 60.2745C144.561 60.431 144.883 60.5054 145.323 60.4977L146.852 60.471C146.674 62.8745 146.276 64.6917 145.657 65.9227C145.039 67.1737 144.363 67.9856 143.63 68.3585C142.896 68.7313 142.109 68.9251 141.269 68.9397L139.2 68.9759C138.36 68.9905 137.73 69.0315 137.311 69.0988C136.893 69.1662 136.575 69.3017 136.358 69.5055C136.142 69.7093 135.988 70.0321 135.895 70.4738L135.295 70.4842ZM153.424 46.4642C152.764 46.4757 152.2 46.2555 151.732 45.8036C151.264 45.3517 151.024 44.7958 151.013 44.1359C151.001 43.476 151.221 42.9121 151.673 42.4441C152.125 41.9562 152.68 41.7064 153.34 41.6949C154 41.6834 154.564 41.9136 155.033 42.3855C155.521 42.837 155.77 43.3928 155.782 44.0527C155.793 44.7126 155.563 45.2767 155.091 45.745C154.639 46.2129 154.083 46.4527 153.424 46.4642ZM151.677 63.2972C150.717 63.314 149.932 63.0277 149.322 62.4382C148.731 61.8484 148.426 60.9536 148.405 59.7538C148.396 59.2539 148.465 58.6026 148.611 57.7999L150.482 48.1358L154.802 48.0604L152.82 58.2965C152.745 58.5979 152.711 58.9185 152.717 59.2585C152.724 59.6584 152.819 59.9468 153.002 60.1236C153.205 60.2801 153.526 60.3545 153.966 60.3468C154.326 60.3406 154.645 60.275 154.923 60.1501C154.86 61.1514 154.514 61.9275 153.883 62.4786C153.272 63.0094 152.537 63.2822 151.677 63.2972Z" fill="#4B3209"/>
<path d="M51.5237 44.12C50.7637 44.12 50.177 43.92 49.7637 43.52C49.3637 43.1067 49.1637 42.6 49.1637 42C49.1637 41.6133 49.317 40.68 49.6237 39.2H47.4037L46.3837 44H43.5037L45.6237 34H48.5037L47.6437 38H49.8837L50.7837 34H53.4637L52.4037 38.96C52.2703 39.5333 52.157 40.0333 52.0637 40.46C51.9703 40.8867 51.9237 41.18 51.9237 41.34C51.9237 41.9 52.1903 42.18 52.7237 42.18C53.097 42.18 53.397 42.0533 53.6237 41.8C53.8503 41.5467 54.1103 41.0867 54.4037 40.42H55.2437C54.4037 42.8867 53.1637 44.12 51.5237 44.12ZM56.8004 44.12C56.0404 44.12 55.4071 43.86 54.9004 43.34C54.3937 42.82 54.1404 42.0067 54.1404 40.9C54.1404 39.9133 54.3337 38.88 54.7204 37.8C55.1204 36.7067 55.7071 35.7867 56.4804 35.04C57.2671 34.28 58.2004 33.9 59.2804 33.9C59.8271 33.9 60.2337 33.9933 60.5004 34.18C60.7671 34.3667 60.9004 34.6133 60.9004 34.92V35.06L61.1204 34H64.0004L62.5604 40.8C62.5071 41 62.4804 41.2133 62.4804 41.44C62.4804 41.7067 62.5404 41.9 62.6604 42.02C62.7937 42.1267 63.0071 42.18 63.3004 42.18C63.4871 42.18 63.6337 42.1533 63.7404 42.1C63.4471 42.8467 63.1671 43.3733 62.9004 43.68C62.6337 43.9733 62.2471 44.12 61.7404 44.12C61.1937 44.12 60.7471 43.96 60.4004 43.64C60.0671 43.3067 59.8604 42.8467 59.7804 42.26C58.9671 43.5 57.9737 44.12 56.8004 44.12ZM58.1004 42.18C58.4337 42.18 58.7604 42.0267 59.0804 41.72C59.4137 41.4 59.6404 40.9667 59.7604 40.42L60.7204 35.9C60.7204 35.7267 60.6537 35.56 60.5204 35.4C60.3871 35.2267 60.1804 35.14 59.9004 35.14C59.3671 35.14 58.8871 35.4533 58.4604 36.08C58.0337 36.6933 57.7004 37.44 57.4604 38.32C57.2204 39.1867 57.1004 39.9533 57.1004 40.62C57.1004 41.2867 57.1937 41.7133 57.3804 41.9C57.5804 42.0867 57.8204 42.18 58.1004 42.18Z" fill="#4B3209"/>
</g>
<defs>
<clipPath id="clip0">
<rect width="200" height="100" fill="white"/>
</clipPath>
</defs>
</svg>
