<svg width="100" height="100" viewBox="0 0 100 100" fill="none" xmlns="http://www.w3.org/2000/svg">
<g clip-path="url(#clip0)">
<path d="M34.0206 98.5134H49.7584C49.7584 98.3861 49.7584 98.2587 49.7978 98.0996C55.0218 98.4816 60.2328 98.8954 65.4568 99.2456C69.4077 99.5003 73.3585 99.7391 77.3094 99.8664C78.3463 99.8982 79.3964 99.4685 80.4464 99.2775C82.1265 98.975 83.8066 98.7044 85.4867 98.4179C85.5524 98.4179 85.6049 98.3542 85.6705 98.3383C86.9437 97.9085 88.1906 97.3514 89.4901 97.0808C90.527 96.8739 91.7346 97.3355 92.6665 96.8898C94.2679 96.1099 95.6986 95.7597 97.2212 96.9376C97.3918 97.049 97.7068 96.9853 97.9168 96.9057C98.4418 96.6988 98.9537 96.4442 99.4655 96.1895L99.4657 96.1894C99.6232 96.1099 99.8069 95.9507 99.8857 95.7756C100.293 94.741 99.5313 91.7325 98.8881 90.8571C98.1531 89.8702 97.5624 88.7082 96.9849 87.5621L96.9329 87.4618C96.1491 85.9505 95.3565 84.4224 94.7273 82.8028C94.2022 81.4498 92.4696 80.7494 93.2309 78.7279C93.244 78.6961 93.2047 78.6324 93.1915 78.5846C92.8109 77.5659 92.3121 76.5949 92.0496 75.5444C91.4721 73.2682 91.0389 72.6792 89.2669 72.2813C89.1882 72.2654 89.0963 72.2017 89.0569 72.1221C88.5844 71.3262 88.0594 70.5463 87.6525 69.6867C87.3112 68.9704 87.1931 68.0631 86.7993 67.3946C85.9461 65.9302 84.8829 64.6249 84.0823 63.1128C83.2947 61.6484 82.7959 59.977 82.0609 58.4648C81.2996 56.9049 80.4333 55.4087 79.5539 53.9443C78.3069 51.8909 76.9419 49.9171 75.7212 47.8319C74.8942 46.3993 74.2117 44.8553 73.4767 43.3432C73.0304 42.4359 72.7022 41.4171 72.1772 40.5735C70.799 38.3291 69.3158 36.1962 67.9507 33.9518C67.0975 32.5511 66.415 31.023 65.6406 29.5586C65.2337 28.7945 64.7349 28.0941 64.3674 27.2983C63.6586 25.7383 63.2779 23.7964 62.2673 22.6185C60.7972 20.9153 60.574 18.3048 58.8283 16.8404C57.8701 16.0446 57.227 14.6597 56.4788 13.4977C56.0063 12.7815 55.5469 12.0333 55.1662 11.2375C54.2474 9.35918 53.4336 7.3854 52.4623 5.55488C51.7667 4.24965 50.7166 3.18317 50.1259 1.83018C49.2334 -0.239107 47.7502 -0.191355 46.372 0.238419C45.4925 0.509018 44.6131 1.46407 44.0881 2.40321C43.6156 3.26276 43.4449 4.52024 43.4712 5.58672C43.5368 8.05394 41.9355 9.40693 41.1348 11.2852C40.5966 12.5586 39.7697 13.6569 39.1134 14.8826C38.549 15.949 38.1421 17.1588 37.4858 18.1138C36.5145 19.5305 35.2938 20.6925 34.3225 22.0932C33.6925 23.0164 33.3643 24.2262 32.8131 25.229C31.8417 27.0117 30.8179 28.7468 29.7941 30.4977C28.7834 32.2168 27.7203 33.9041 26.7358 35.655C26.027 36.9125 25.397 38.2655 24.7013 39.5548C23.9794 40.8759 23.1656 42.1334 22.4962 43.5023C21.9843 44.537 21.6693 45.7149 21.1836 46.7814C20.908 47.3703 20.3961 47.8001 20.0942 48.3731C19.1623 50.124 18.506 52.1933 17.3115 53.61C15.8283 55.3928 15.3558 57.653 14.5026 59.7382C14.0432 60.8843 13.6101 62.0622 13.1638 63.2242C13.1375 63.2879 10.0399 70.0369 10.0005 70.0051C9.39672 70.8965 8.83229 72.1699 8.39914 73.2204C8.01849 74.1596 7.82161 75.226 7.40158 76.1492C6.75842 77.5818 5.984 78.9348 5.26208 80.3196C4.68455 81.418 4.14639 82.5322 3.55573 83.6146C3.14884 84.3468 2.45317 84.9676 2.28254 85.7635C1.90189 87.5462 1.84939 89.4404 1.52124 91.2391C1.31123 92.3852 0.87808 93.4994 0.44493 94.5659C0.0511576 95.5209 -0.447621 96.5715 0.759949 96.9694C2.07252 97.4151 3.47698 97.5743 4.85519 97.6698C7.13907 97.813 9.4492 97.7494 11.7331 97.9085C12.4025 97.9563 13.0325 98.593 13.7019 98.7044C15.0933 98.9432 16.4977 99.0228 17.9022 99.1342C17.9941 99.1342 18.0728 98.7363 18.2041 98.5771C18.4141 98.3224 18.6635 97.8926 18.8866 97.9085C19.8842 97.9881 20.9605 98.02 21.3018 99.5958C21.3411 99.7709 21.643 99.9619 21.8268 99.9619C24.0844 99.9937 26.3552 100.01 28.6128 99.9938C28.8097 99.9938 29.0066 99.6595 29.2035 99.4844C29.5841 99.166 29.9516 98.593 30.3585 98.5452C31.5792 98.4338 32.7999 98.5134 34.0206 98.5134Z" fill="#D3C28C"/>
<path d="M42.8995 46.44C42.8995 47.84 42.8645 48.8783 42.7945 49.555C42.7245 50.185 42.6428 50.6867 42.5495 51.06C42.4795 51.4333 42.3511 51.7833 42.1645 52.11C41.4178 53.3 40.2628 53.895 38.6995 53.895C38.2561 53.895 37.9178 53.8717 37.6845 53.825L37.4045 53.72C36.8911 53.5567 36.6345 53.1833 36.6345 52.6V33.14C36.6345 32.8133 36.7395 32.5333 36.9495 32.3C37.1595 32.0667 37.4045 31.95 37.6845 31.95H40.8695C41.1961 31.95 41.4528 32.0667 41.6395 32.3C41.8261 32.5333 41.9195 32.8133 41.9195 33.14C41.9195 33.4667 41.8261 33.7467 41.6395 33.98C41.4528 34.2133 41.1961 34.33 40.8695 34.33H38.7695V40.14C40.5195 40.2333 41.6745 40.8983 42.2345 42.135C42.4911 42.7183 42.6545 43.3367 42.7245 43.99C42.8178 44.6433 42.8761 45.46 42.8995 46.44ZM40.5195 50.36C40.7061 49.52 40.7995 48.5283 40.7995 47.385L40.7645 46.02C40.7645 45.9033 40.7528 45.635 40.7295 45.215C40.7295 44.795 40.6945 44.4217 40.6245 44.095C40.5778 43.7683 40.5078 43.5117 40.4145 43.325C40.3445 43.2083 40.2628 43.1033 40.1695 43.01C40.0995 42.8933 39.9828 42.8 39.8195 42.73C39.5161 42.6133 39.1661 42.555 38.7695 42.555V51.55C39.1895 51.5733 39.5628 51.4917 39.8895 51.305C40.2161 51.095 40.4261 50.78 40.5195 50.36ZM50.1885 51.62C50.5385 51.62 50.8068 51.7367 50.9935 51.97C51.2035 52.2033 51.3085 52.4717 51.3085 52.775C51.3085 53.1017 51.2152 53.3817 51.0285 53.615C50.8418 53.8483 50.5618 53.965 50.1885 53.965H46.1635C45.8602 53.965 45.5918 53.8483 45.3585 53.615C45.1252 53.3817 45.0085 53.1017 45.0085 52.775V32.825C45.0085 32.4983 45.1252 32.23 45.3585 32.02C45.5918 31.7867 45.8602 31.67 46.1635 31.67H50.1885C50.5385 31.67 50.8068 31.7867 50.9935 32.02C51.2035 32.2533 51.3085 32.5217 51.3085 32.825C51.3085 33.1517 51.2035 33.4317 50.9935 33.665C50.8068 33.8983 50.5385 34.015 50.1885 34.015H47.3185V43.01H49.7335C50.0835 43.01 50.3518 43.1267 50.5385 43.36C50.7485 43.5933 50.8535 43.8617 50.8535 44.165C50.8535 44.4917 50.7602 44.7717 50.5735 45.005C50.3868 45.2383 50.1068 45.355 49.7335 45.355H47.3185V51.62H50.1885ZM58.6667 39.79C59.5767 40.49 60.2534 41.4817 60.6967 42.765C61.14 44.025 61.3617 45.3317 61.3617 46.685C61.3617 47.4783 61.2684 48.2717 61.0817 49.065C60.895 49.8583 60.615 50.57 60.2417 51.2C59.6817 52.1333 58.935 52.8333 58.0017 53.3C57.0917 53.7667 56.065 54 54.9217 54C54.5717 53.9767 54.3034 53.86 54.1167 53.65C53.93 53.4167 53.8367 53.1367 53.8367 52.81C53.8367 52.5067 53.9184 52.25 54.0817 52.04C54.2684 51.8067 54.525 51.69 54.8517 51.69C56.5784 51.69 57.7567 51.0483 58.3867 49.765C58.62 49.2517 58.7834 48.75 58.8767 48.26C58.9234 48.12 58.97 47.91 59.0167 47.63V47.595V47.49C59.04 47.42 59.0517 47.315 59.0517 47.175C59.0984 45.8683 58.9 44.55 58.4567 43.22C58.0134 41.89 57.255 41.1667 56.1817 41.05C55.855 41.0267 55.575 40.8867 55.3417 40.63C55.1317 40.35 55.0267 40.0583 55.0267 39.755C55.0267 39.5217 55.0967 39.3233 55.2367 39.16C55.3767 38.9733 55.5867 38.845 55.8667 38.775C56.4734 38.635 57.0217 38.25 57.5117 37.62C58.025 36.99 58.2817 36.3483 58.2817 35.695C58.2817 35.6017 58.2584 35.4383 58.2117 35.205C58.165 34.9017 58.0484 34.6917 57.8617 34.575C57.7217 34.4583 57.5934 34.3883 57.4767 34.365C57.4767 34.3417 57.465 34.33 57.4417 34.33C57.4184 34.33 57.395 34.3183 57.3717 34.295C57.325 34.295 57.2667 34.295 57.1967 34.295C57.15 34.2717 57.1617 34.26 57.2317 34.26C57.045 34.2133 56.87 34.2133 56.7067 34.26C56.2634 34.33 55.75 34.505 55.1667 34.785C55.0034 34.855 54.84 34.89 54.6767 34.89C54.3267 34.89 54.0234 34.7617 53.7667 34.505C53.5334 34.225 53.4167 33.9333 53.4167 33.63C53.4167 33.2333 53.615 32.9533 54.0117 32.79C54.595 32.51 55.12 32.3 55.5867 32.16C56.0767 31.9967 56.5434 31.915 56.9867 31.915C57.3834 31.915 57.7684 31.985 58.1417 32.125C58.725 32.3583 59.2267 32.685 59.6467 33.105C60.0667 33.525 60.335 34.015 60.4517 34.575C60.5217 34.8783 60.5567 35.205 60.5567 35.555C60.5567 36.325 60.3817 37.095 60.0317 37.865C59.705 38.6117 59.25 39.2533 58.6667 39.79Z" fill="#4B3209"/>
<path d="M32.4586 86.6066C32.4586 87.718 31.9153 88.4836 30.8286 88.9035C29.7666 89.3233 28.507 89.5333 27.0498 89.5333C26.6547 89.5333 26.346 89.4098 26.1237 89.1628C25.9014 88.9158 25.7903 88.6318 25.7903 88.3107C25.7903 87.965 25.9014 87.6686 26.1237 87.4216C26.3707 87.1746 26.6917 87.0512 27.0869 87.0512C27.2351 87.0512 27.5808 87.0388 28.1242 87.0141C28.6675 87.0141 29.1491 86.9277 29.569 86.7548C29.7172 86.7054 29.816 86.656 29.8654 86.6066C29.9148 86.5572 29.9024 86.4708 29.8283 86.3473C29.6801 86.125 29.2726 86.0139 28.6058 86.0139H28.4576H23.5675C23.2217 86.0139 22.913 85.8904 22.6413 85.6434C22.3943 85.3964 22.2708 85.1124 22.2708 84.7913V63.4155C22.2708 63.0203 22.3943 62.7239 22.6413 62.5264C22.913 62.3288 23.2341 62.23 23.6045 62.23C23.9503 62.23 24.2467 62.3411 24.4936 62.5634C24.7653 62.761 24.9011 63.045 24.9011 63.4155V83.5317H25.6421H25.6791L27.6426 83.4947C28.1118 83.4947 28.47 83.507 28.7169 83.5317V63.2302C28.7169 62.8351 28.8404 62.5387 29.0874 62.3411C29.3591 62.1189 29.6678 62.0077 30.0136 62.0077C30.384 62.0077 30.6928 62.1189 30.9397 62.3411C31.1867 62.5387 31.3102 62.8351 31.3102 63.2302V84.3097C32.0758 84.8531 32.4586 85.6187 32.4586 86.6066ZM42.1272 63.7489C42.1519 63.3537 42.2877 63.0574 42.5347 62.8598C42.8064 62.6375 43.1151 62.5264 43.4609 62.5264C43.8066 62.5264 44.0907 62.6375 44.3129 62.8598C44.5599 63.0574 44.6711 63.3537 44.6464 63.7489C44.4735 66.8608 43.9919 70.1085 43.2015 73.4921C42.5594 76.4559 41.7567 78.8886 40.7935 80.7903C39.608 83.2107 38.2003 84.816 36.5702 85.6063C36.3973 85.6804 36.2121 85.7175 36.0145 85.7175C35.6441 85.7175 35.323 85.5816 35.0513 85.31C34.7796 85.0136 34.6438 84.6925 34.6438 84.3468C34.6438 83.9269 34.8537 83.6182 35.2736 83.4206C36.0392 83.0501 36.6937 82.5068 37.2371 81.7906C37.7804 81.0743 38.2867 80.2099 38.756 79.1973C39.324 77.9871 39.8303 76.5546 40.2749 74.8999C40.0279 74.8505 39.8056 74.727 39.608 74.5294C38.3978 73.1711 37.4099 71.6398 36.6443 69.9357C35.8787 68.2315 35.2365 66.3175 34.7179 64.1935C34.6932 64.1194 34.6808 64.0082 34.6808 63.86C34.6808 63.4896 34.8167 63.1932 35.0884 62.9709C35.36 62.7239 35.6688 62.6005 36.0145 62.6005C36.2862 62.6005 36.5208 62.6869 36.7184 62.8598C36.9407 63.008 37.0889 63.2302 37.163 63.5266C37.5828 65.3295 38.0768 66.9349 38.6448 68.3427C39.2376 69.7504 40.0032 71.0224 40.9417 72.1585C41.5592 69.17 41.9543 66.3669 42.1272 63.7489ZM58.3935 88.5701C58.6899 88.6442 58.9122 88.78 59.0603 88.9776C59.2332 89.1999 59.3197 89.4468 59.3197 89.7185C59.3197 90.0643 59.1962 90.373 58.9492 90.6447C58.7022 90.941 58.4059 91.0892 58.0601 91.0892C57.8872 91.0892 57.7637 91.0769 57.6896 91.0522C57.0475 90.8793 56.4794 90.5212 55.9855 89.9778C55.4915 89.4345 55.084 88.7923 54.763 88.0514C54.2196 86.7918 53.701 85.1124 53.207 83.0131L52.9847 81.9387C52.6883 80.1852 52.2932 78.728 51.7992 77.5672C51.3053 76.4065 50.5273 75.752 49.4653 75.6038V84.9766C49.4653 85.347 49.3295 85.6434 49.0578 85.8657C48.8108 86.0632 48.5144 86.162 48.1687 86.162C47.8229 86.162 47.5142 86.0632 47.2425 85.8657C46.9955 85.6434 46.872 85.347 46.872 84.9766V63.823C46.872 63.4278 46.9955 63.1191 47.2425 62.8968C47.5142 62.6745 47.8229 62.5634 48.1687 62.5634C48.5391 62.5634 48.8479 62.6745 49.0948 62.8968C49.3418 63.1191 49.4653 63.4278 49.4653 63.823V70.7877C50.1074 69.7751 50.6384 68.6761 51.0583 67.4906C51.4782 66.3051 51.8733 64.9714 52.2438 63.4896C52.392 62.8721 52.7748 62.5634 53.3922 62.5634C53.738 62.5634 54.0467 62.6869 54.3184 62.9339C54.6148 63.1562 54.763 63.4402 54.763 63.7859C54.763 63.9588 54.7506 64.0823 54.7259 64.1564C54.2813 65.9593 53.7503 67.6141 53.1329 69.1206C52.5155 70.6272 51.7622 72.0103 50.8731 73.2699C52.1327 73.7391 53.0959 74.6529 53.7627 76.0113C54.4295 77.345 54.9729 78.9627 55.3927 80.8644C55.8126 82.9637 56.2325 84.6555 56.6523 85.9398C56.9981 86.8289 57.3192 87.4834 57.6155 87.9032C57.6649 88.002 57.8131 88.1749 58.0601 88.4219L58.2083 88.496C58.2577 88.5454 58.3194 88.5701 58.3935 88.5701ZM66.4303 68.3056C66.4797 69.2441 66.5044 69.9727 66.5044 70.4914C66.5044 71.9979 66.3191 73.2205 65.9487 74.159C65.5041 75.2951 64.8867 76.0607 64.0964 76.4559C63.6024 76.7028 63.0591 76.8263 62.4663 76.8263C62.1946 76.8263 61.9847 76.814 61.8365 76.7893V84.6431C61.8365 85.0136 61.713 85.31 61.4661 85.5322C61.2191 85.7298 60.9227 85.8286 60.5769 85.8286C60.2312 85.8286 59.9348 85.7298 59.6878 85.5322C59.4408 85.31 59.3174 85.0136 59.3174 84.6431V63.5637C59.3174 63.045 59.552 62.6745 60.0212 62.4523C60.2188 62.3535 60.4041 62.3041 60.5769 62.3041C62.9973 62.1559 64.6521 62.7733 65.5412 64.1564C65.8869 64.6751 66.1092 65.2431 66.208 65.8605C66.3068 66.4533 66.3809 67.2683 66.4303 68.3056ZM63.8 72.3437C63.8988 71.6522 63.9482 70.8618 63.9482 69.9727C63.9482 69.5775 63.9235 68.9601 63.8741 68.1204C63.8741 67.7005 63.837 67.2313 63.7629 66.7126C63.6641 66.1446 63.553 65.7494 63.4295 65.5271C63.2072 65.2308 62.9356 65.0455 62.6145 64.9714C62.3675 64.8973 62.1082 64.8603 61.8365 64.8603V74.2701H61.8736C61.9724 74.2948 62.1452 74.3072 62.3922 74.3072C62.7627 74.3072 63.022 74.2207 63.1702 74.0478C63.3431 73.8502 63.4666 73.628 63.5407 73.381C63.6395 73.1093 63.7259 72.7635 63.8 72.3437ZM76.2071 63.7489C76.2318 63.3537 76.3676 63.0574 76.6146 62.8598C76.8863 62.6375 77.195 62.5264 77.5408 62.5264C77.8865 62.5264 78.1706 62.6375 78.3928 62.8598C78.6398 63.0574 78.751 63.3537 78.7263 63.7489C78.5534 66.8608 78.0718 70.1085 77.2814 73.4921C76.6393 76.4559 75.8366 78.8886 74.8734 80.7903C73.6879 83.2107 72.2802 84.816 70.6501 85.6063C70.4772 85.6804 70.292 85.7175 70.0944 85.7175C69.724 85.7175 69.4029 85.5816 69.1312 85.31C68.8595 85.0136 68.7237 84.6925 68.7237 84.3468C68.7237 83.9269 68.9336 83.6182 69.3535 83.4206C70.1191 83.0501 70.7736 82.5068 71.317 81.7906C71.8603 81.0743 72.3666 80.2099 72.8359 79.1973C73.4039 77.9871 73.9102 76.5546 74.3548 74.8999C74.1078 74.8505 73.8855 74.727 73.6879 74.5294C72.4777 73.1711 71.4898 71.6398 70.7242 69.9357C69.9586 68.2315 69.3164 66.3175 68.7978 64.1935C68.7731 64.1194 68.7607 64.0082 68.7607 63.86C68.7607 63.4896 68.8966 63.1932 69.1683 62.9709C69.4399 62.7239 69.7487 62.6005 70.0944 62.6005C70.3661 62.6005 70.6007 62.6869 70.7983 62.8598C71.0206 63.008 71.1688 63.2302 71.2429 63.5266C71.6627 65.3295 72.1567 66.9349 72.7247 68.3427C73.3175 69.7504 74.0831 71.0224 75.0216 72.1585C75.639 69.17 76.0342 66.3669 76.2071 63.7489Z" fill="#4B3209"/>
</g>
<defs>
<clipPath id="clip0">
<rect width="100" height="100" fill="white"/>
</clipPath>
</defs>
</svg>
