<svg width="100" height="100" viewBox="0 0 100 100" fill="none" xmlns="http://www.w3.org/2000/svg">
<path fill-rule="evenodd" clip-rule="evenodd" d="M74.7335 79.2958C73.5311 80.3448 72.2642 81.3181 70.9396 82.2086C72.0859 81.7273 73.2617 81.3566 73.2159 81.8813C72.8936 85.5584 65.4065 86.4454 66.5514 84.7478C65.7689 85.1325 64.9715 85.4905 64.1604 85.8205C64.2469 86.0155 64.1587 86.2932 63.8565 86.3116C63.6876 86.3219 63.5364 86.2216 63.4741 86.0919C62.2134 86.5758 60.9208 86.9929 59.6006 87.3388C60.2854 87.4252 60.7858 87.5334 61.014 87.6606C60.0351 87.5217 54.9495 89.2519 55.1192 89.2364C52.5881 89.4363 50.3891 89.0141 48.0764 88.5702C47.8657 88.5297 47.6539 88.4891 47.4409 88.4487C47.4293 88.4465 47.4179 88.4441 47.4067 88.4416C44.3889 88.2163 41.4691 87.6283 38.6885 86.7199C38.6444 86.7343 38.5971 86.7448 38.5465 86.7509C37.0364 86.9316 36.1663 86.4376 35.09 85.8265C34.6095 85.5537 34.0879 85.2576 33.45 84.9877C33.1622 84.866 32.6854 84.8348 32.2046 84.8033C31.6965 84.77 31.1839 84.7364 30.8853 84.5954C28.8098 83.6156 24.5938 80.5784 23.8447 79.8711L23.7881 79.8177C20.7555 76.9512 18.4905 74.8103 16.3851 71.236C13.5664 66.4408 11.807 62.2043 11.3133 56.3635C11.2931 56.1248 11.2508 55.7527 11.1976 55.2844C10.8245 52.0047 9.91507 44.0091 12.3187 44.0959C11.5823 44.0709 11.7204 46.346 12.2868 49.5604C12.2919 46.5181 12.6371 43.5576 13.2855 40.717C12.9911 40.9521 12.579 40.8224 12.5539 40.3708C12.3704 37.0741 15.5855 29.699 16.5736 27.691C17.6328 25.5457 28.1534 16.0904 28.1354 17.812C28.1351 17.8706 28.1287 17.9304 28.1168 17.9913C28.9745 17.3594 29.8589 16.7633 30.768 16.2053C30.7538 16.0895 30.7773 15.965 30.8487 15.8441C33.0361 12.1423 42.2298 11.165 45.4768 10.9651C45.6765 10.9529 45.9587 10.9369 46.2638 10.9198C47.5566 10.783 48.8688 10.7129 50.1968 10.7129C50.3443 10.7129 50.4915 10.7138 50.6385 10.7155C57.2118 10.6574 63.9733 12.0218 69.7961 15.5134L70.0125 15.643C72.5259 17.1468 76.9317 19.7827 78.4316 22.1295C79.6701 24.0671 79.7783 24.7327 79.3278 24.7234C81.2444 27.0831 82.8939 29.6793 84.229 32.463C84.3479 32.2317 84.5211 32.1896 84.7238 32.4502C85.1416 32.9918 86.5367 35.5541 85.8294 36.3126C86.0516 36.939 86.2586 37.5729 86.4499 38.2139C88.1773 38.575 89.3347 50.0952 89.2844 50.6849C89.1315 52.6724 87.9978 64.4431 86.0514 67.0637C85.7673 67.4463 85.4412 68.002 85.3483 68.4694C84.959 70.4286 82.2844 73.1482 80.2126 75.255C79.3657 76.1162 78.6195 76.875 78.1713 77.4375C78.0735 77.5599 77.9156 77.7738 77.7152 78.0452C76.573 79.5922 74.053 83.0053 73.4496 81.9624C73.3462 81.7806 73.9916 80.5707 74.7335 79.2958ZM23.5156 77.275C20.9599 74.6758 18.7628 71.7057 17.007 68.4499C17.2568 69.2639 17.4421 69.8224 17.5341 70.0372C18.8572 73.1332 20.9858 75.4152 23.5156 77.275Z" fill="#C3D833"/>
<path d="M61.1246 87.8933C61.224 87.7556 61.1736 87.6832 61.014 87.6606C61.1427 87.7323 61.1848 87.81 61.1246 87.8933Z" fill="#C3D833"/>
<path d="M46.6425 28.5307C46.6425 29.5307 46.6175 30.2723 46.5675 30.7557C46.5175 31.2057 46.4591 31.564 46.3925 31.8307C46.3425 32.0973 46.2508 32.3473 46.1175 32.5807C45.5841 33.4307 44.7591 33.8557 43.6425 33.8557C43.3258 33.8557 43.0841 33.839 42.9175 33.8057L42.7175 33.7307C42.3508 33.614 42.1675 33.3473 42.1675 32.9307V19.0307C42.1675 18.7973 42.2425 18.5973 42.3925 18.4307C42.5425 18.264 42.7175 18.1807 42.9175 18.1807H45.1925C45.4258 18.1807 45.6091 18.264 45.7425 18.4307C45.8758 18.5973 45.9425 18.7973 45.9425 19.0307C45.9425 19.264 45.8758 19.464 45.7425 19.6307C45.6091 19.7973 45.4258 19.8807 45.1925 19.8807H43.6925V24.0307C44.9425 24.0973 45.7675 24.5723 46.1675 25.4557C46.3508 25.8723 46.4675 26.314 46.5175 26.7807C46.5841 27.2473 46.6258 27.8307 46.6425 28.5307ZM44.9425 31.3307C45.0758 30.7307 45.1425 30.0223 45.1425 29.2057L45.1175 28.2307C45.1175 28.1473 45.1091 27.9557 45.0925 27.6557C45.0925 27.3557 45.0675 27.089 45.0175 26.8557C44.9841 26.6223 44.9341 26.439 44.8675 26.3057C44.8175 26.2223 44.7591 26.1473 44.6925 26.0807C44.6425 25.9973 44.5591 25.9307 44.4425 25.8807C44.2258 25.7973 43.9758 25.7557 43.6925 25.7557V32.1807C43.9925 32.1973 44.2591 32.139 44.4925 32.0057C44.7258 31.8557 44.8758 31.6307 44.9425 31.3307ZM51.8489 32.2307C52.0989 32.2307 52.2906 32.314 52.4239 32.4807C52.5739 32.6473 52.6489 32.839 52.6489 33.0557C52.6489 33.289 52.5823 33.489 52.4489 33.6557C52.3156 33.8223 52.1156 33.9057 51.8489 33.9057H48.9739C48.7573 33.9057 48.5656 33.8223 48.3989 33.6557C48.2323 33.489 48.1489 33.289 48.1489 33.0557V18.8057C48.1489 18.5723 48.2323 18.3807 48.3989 18.2307C48.5656 18.064 48.7573 17.9807 48.9739 17.9807H51.8489C52.0989 17.9807 52.2906 18.064 52.4239 18.2307C52.5739 18.3973 52.6489 18.589 52.6489 18.8057C52.6489 19.039 52.5739 19.239 52.4239 19.4057C52.2906 19.5723 52.0989 19.6557 51.8489 19.6557H49.7989V26.0807H51.5239C51.7739 26.0807 51.9656 26.164 52.0989 26.3307C52.2489 26.4973 52.3239 26.689 52.3239 26.9057C52.3239 27.139 52.2573 27.339 52.1239 27.5057C51.9906 27.6723 51.7906 27.7557 51.5239 27.7557H49.7989V32.2307H51.8489ZM57.9048 23.7807C58.5548 24.2807 59.0381 24.989 59.3548 25.9057C59.6715 26.8057 59.8298 27.739 59.8298 28.7057C59.8298 29.2723 59.7631 29.839 59.6298 30.4057C59.4965 30.9723 59.2965 31.4807 59.0298 31.9307C58.6298 32.5973 58.0965 33.0973 57.4298 33.4307C56.7798 33.764 56.0465 33.9307 55.2298 33.9307C54.9798 33.914 54.7881 33.8307 54.6548 33.6807C54.5215 33.514 54.4548 33.314 54.4548 33.0807C54.4548 32.864 54.5131 32.6807 54.6298 32.5307C54.7631 32.364 54.9465 32.2807 55.1798 32.2807C56.4131 32.2807 57.2548 31.8223 57.7048 30.9057C57.8715 30.539 57.9881 30.1807 58.0548 29.8307C58.0881 29.7307 58.1215 29.5807 58.1548 29.3807V29.3557V29.2807C58.1715 29.2307 58.1798 29.1557 58.1798 29.0557C58.2131 28.1223 58.0715 27.1807 57.7548 26.2307C57.4381 25.2807 56.8965 24.764 56.1298 24.6807C55.8965 24.664 55.6965 24.564 55.5298 24.3807C55.3798 24.1807 55.3048 23.9723 55.3048 23.7557C55.3048 23.589 55.3548 23.4473 55.4548 23.3307C55.5548 23.1973 55.7048 23.1057 55.9048 23.0557C56.3381 22.9557 56.7298 22.6807 57.0798 22.2307C57.4465 21.7807 57.6298 21.3223 57.6298 20.8557C57.6298 20.789 57.6131 20.6723 57.5798 20.5057C57.5465 20.289 57.4631 20.139 57.3298 20.0557C57.2298 19.9723 57.1381 19.9223 57.0548 19.9057C57.0548 19.889 57.0465 19.8807 57.0298 19.8807C57.0131 19.8807 56.9965 19.8723 56.9798 19.8557C56.9465 19.8557 56.9048 19.8557 56.8548 19.8557C56.8215 19.839 56.8298 19.8307 56.8798 19.8307C56.7465 19.7973 56.6215 19.7973 56.5048 19.8307C56.1881 19.8807 55.8215 20.0057 55.4048 20.2057C55.2881 20.2557 55.1715 20.2807 55.0548 20.2807C54.8048 20.2807 54.5881 20.189 54.4048 20.0057C54.2381 19.8057 54.1548 19.5973 54.1548 19.3807C54.1548 19.0973 54.2965 18.8973 54.5798 18.7807C54.9965 18.5807 55.3715 18.4307 55.7048 18.3307C56.0548 18.214 56.3881 18.1557 56.7048 18.1557C56.9881 18.1557 57.2631 18.2057 57.5298 18.3057C57.9465 18.4723 58.3048 18.7057 58.6048 19.0057C58.9048 19.3057 59.0965 19.6557 59.1798 20.0557C59.2298 20.2723 59.2548 20.5057 59.2548 20.7557C59.2548 21.3057 59.1298 21.8557 58.8798 22.4057C58.6465 22.939 58.3215 23.3973 57.9048 23.7807Z" fill="#4B3209"/>
<path d="M12.5014 36.5419C12.7822 33.4652 13.7616 30.897 15.5386 28.3663C10.3251 27.996 2.38258 28.3561 1.18054 30.9839C-0.569639 34.8099 9.95292 35.9109 12.5014 36.5419Z" fill="#4B3209"/>
<path d="M7.12771e-09 33.7485C-4.73679e-05 35.2832 0.235994 38.9311 1.18054 41.2451C2.36121 44.1376 3.83695 51.5543 3.77792 53.8565C3.73069 55.6982 2.5383 60.1031 1.94801 60.5753C5.6826 62.6312 16.2741 66.5624 28.7636 65.8399C44.3754 64.9367 75.986 63.3884 82.5662 64.1626C87.8303 64.7819 92.845 66.915 94.6943 67.9042C95.2104 65.7538 96.449 60.9112 97.2748 55.7436C98.307 53.0341 101.016 43.3265 99.5972 41.2451C98.1779 39.1637 91.0817 38.1315 77.9213 37.6154C64.761 37.0993 38.1823 39.2927 28.7636 39.1637C19.3449 39.0347 4.78241 38.0101 7.12771e-09 33.7485Z" fill="#4B3209"/>
<path d="M86.8047 66.7325C86.9852 68.7727 84.5905 70.4093 84.1418 72.3267C85.15 72.3627 90.0276 72.91 91.5616 72.3267C93.0955 71.7434 94.2892 70.5893 94.6943 70.0852C94.1812 69.7161 92.7445 68.8267 91.1025 68.2217C89.4605 67.6168 87.2368 66.8855 86.8047 66.7325Z" fill="#4B3209"/>
<path d="M20.0361 60.1091C20.2205 60.1552 20.3588 60.2398 20.451 60.3627C20.5586 60.501 20.6124 60.6547 20.6124 60.8237C20.6124 61.0389 20.5355 61.2309 20.3819 61.4C20.2282 61.5844 20.0438 61.6766 19.8287 61.6766C19.7211 61.6766 19.6443 61.6689 19.5982 61.6535C19.1986 61.546 18.8452 61.3231 18.5378 60.9851C18.2305 60.647 17.9769 60.2475 17.7772 59.7864C17.4391 59.0027 17.1164 57.9578 16.809 56.6516L16.6707 55.9831C16.4863 54.892 16.2404 53.9854 15.9331 53.2631C15.6258 52.5409 15.1417 52.1336 14.4809 52.0414V57.8732C14.4809 58.1037 14.3964 58.2882 14.2274 58.4265C14.0737 58.5494 13.8893 58.6109 13.6741 58.6109C13.459 58.6109 13.2669 58.5494 13.0979 58.4265C12.9442 58.2882 12.8674 58.1037 12.8674 57.8732V44.7113C12.8674 44.4655 12.9442 44.2734 13.0979 44.1351C13.2669 43.9968 13.459 43.9276 13.6741 43.9276C13.9047 43.9276 14.0967 43.9968 14.2504 44.1351C14.4041 44.2734 14.4809 44.4655 14.4809 44.7113V49.0449C14.8805 48.4148 15.2109 47.731 15.4721 46.9934C15.7333 46.2557 15.9792 45.4259 16.2097 44.5039C16.3019 44.1197 16.5401 43.9276 16.9243 43.9276C17.1394 43.9276 17.3315 44.0045 17.5005 44.1581C17.685 44.2964 17.7772 44.4732 17.7772 44.6883C17.7772 44.7959 17.7695 44.8727 17.7541 44.9188C17.4775 46.0406 17.1471 47.0702 16.7629 48.0076C16.3788 48.945 15.9101 49.8055 15.3568 50.5892C16.1406 50.8812 16.7399 51.4498 17.1548 52.295C17.5697 53.1248 17.9078 54.1314 18.169 55.3146C18.4303 56.6208 18.6915 57.6735 18.9527 58.4726C19.1679 59.0258 19.3676 59.433 19.552 59.6942C19.5828 59.7557 19.675 59.8633 19.8287 60.0169L19.9209 60.063C19.9516 60.0938 19.99 60.1091 20.0361 60.1091ZM25.7498 48.192C25.842 48.8989 25.8881 49.6288 25.8881 50.3818C25.8881 50.9965 25.8727 51.4575 25.842 51.7648C25.7805 52.4871 25.719 53.0864 25.6576 53.5628C25.5961 54.0238 25.4962 54.4771 25.3579 54.9228L25.2196 55.4299C25.0045 56.3058 24.7432 56.9666 24.4359 57.4122C24.021 58.0115 23.4985 58.3112 22.8685 58.3112C22.5611 58.3112 22.223 58.2267 21.8542 58.0576C21.7313 58.0115 21.6391 57.9501 21.5776 57.8732C21.5162 57.781 21.4777 57.7273 21.4624 57.7119C21.2933 57.4814 21.1627 57.2355 21.0705 56.9743C20.9937 56.6977 20.9015 56.3135 20.7939 55.8217C20.6402 55.0687 20.5096 54.1698 20.402 53.1248C20.2484 51.6188 20.1715 50.4509 20.1715 49.6211C20.1715 49.3753 20.1869 49.0064 20.2176 48.5147C20.3098 47.2239 20.5096 46.1943 20.817 45.4259C21.0321 44.8881 21.2856 44.4501 21.5776 44.112C21.885 43.7586 22.2768 43.5819 22.7532 43.5819C23.1835 43.5819 23.5753 43.7279 23.9288 44.0198C24.2822 44.2964 24.5742 44.6499 24.8047 45.0802C25.2657 45.8639 25.5807 46.9012 25.7498 48.192ZM22.8454 56.8129C22.9069 56.8129 22.953 56.7975 22.9837 56.7668C23.0144 56.7207 23.0298 56.6977 23.0298 56.6977C23.1527 56.5286 23.2757 56.2904 23.3986 55.9831C23.6752 55.2147 23.8596 54.554 23.9518 54.0007C24.2131 52.6638 24.3437 51.4421 24.3437 50.3357C24.3437 49.3061 24.2284 48.3072 23.9979 47.3391C23.7213 46.1251 23.3218 45.3875 22.7993 45.1263H22.7763L22.661 45.2415C22.492 45.5028 22.3383 45.8408 22.2 46.2557C21.9234 47.1778 21.7851 48.2611 21.7851 49.5059C21.7851 49.9976 21.8158 50.7352 21.8773 51.7187C21.9695 53.1018 22.077 54.139 22.2 54.8306C22.2154 54.9074 22.2538 55.0995 22.3152 55.4068C22.3767 55.6988 22.4459 55.9677 22.5227 56.2136C22.5995 56.4441 22.6917 56.6439 22.7993 56.8129H22.8454ZM31.0647 44.6652C31.0647 44.4194 31.1416 44.235 31.2952 44.112C31.4489 43.9737 31.6333 43.9046 31.8485 43.9046C32.0636 43.9046 32.248 43.9737 32.4017 44.112C32.5553 44.235 32.6322 44.4194 32.6322 44.6652V57.7119C32.6322 57.9424 32.5553 58.1268 32.4017 58.2651C32.248 58.388 32.0636 58.4495 31.8485 58.4495C31.6333 58.4495 31.4489 58.388 31.2952 58.2651C31.1416 58.1268 31.0647 57.9424 31.0647 57.7119V51.9723C30.4654 52.003 29.8738 51.98 29.2898 51.9031V57.7119C29.2898 57.9424 29.213 58.1268 29.0593 58.2651C28.9057 58.388 28.7213 58.4495 28.5061 58.4495C28.291 58.4495 28.1066 58.388 27.9529 58.2651C27.7992 58.1268 27.7224 57.9424 27.7224 57.7119V44.6652C27.7224 44.4194 27.7992 44.235 27.9529 44.112C28.1066 43.9737 28.291 43.9046 28.5061 43.9046C28.7213 43.9046 28.9057 43.9737 29.0593 44.112C29.213 44.235 29.2898 44.4194 29.2898 44.6652V50.3126C29.8431 50.4048 30.4347 50.4356 31.0647 50.4048V44.6652ZM38.5432 54.4848C38.6047 54.3158 38.6969 54.1851 38.8198 54.0929C38.9581 54.0007 39.1041 53.9546 39.2578 53.9546C39.4729 53.9546 39.6573 54.0238 39.811 54.1621C39.98 54.285 40.0646 54.4541 40.0646 54.6692C40.0646 54.7768 40.0569 54.8536 40.0415 54.8997C39.9954 55.038 39.9416 55.2455 39.8802 55.5221C39.7572 55.9985 39.642 56.3826 39.5344 56.6746C39.4268 56.9666 39.2885 57.2355 39.1195 57.4814C38.7046 58.0807 38.1821 58.3804 37.552 58.3804C37.214 58.3804 36.8913 58.3035 36.5839 58.1498C36.3995 58.0576 36.2689 57.9347 36.1921 57.781C35.9462 57.2739 35.7387 56.6823 35.5697 56.0061C35.416 55.2532 35.2854 54.3542 35.1778 53.3092C35.0242 51.711 34.9473 50.474 34.9473 49.5981C34.9473 49.1832 34.955 48.8681 34.9704 48.653C35.0472 47.5773 35.1932 46.6783 35.4083 45.9561C35.6696 44.988 36.0077 44.3349 36.4226 43.9968C36.776 43.7048 37.1295 43.5588 37.4829 43.5588C38.0361 43.5588 38.5355 43.8585 38.9812 44.4578C39.4422 45.0417 39.788 45.6795 40.0185 46.371C40.0492 46.4939 40.0646 46.5784 40.0646 46.6245C40.0646 46.8397 39.9877 47.0087 39.8341 47.1317C39.6804 47.2546 39.496 47.3161 39.2808 47.3161C39.1118 47.3161 38.9581 47.27 38.8198 47.1778C38.6969 47.0856 38.6047 46.9549 38.5432 46.7859C38.3742 46.2327 38.1667 45.8101 37.9209 45.5181C37.7365 45.303 37.5905 45.1647 37.4829 45.1032C37.4829 45.1186 37.4598 45.1493 37.4137 45.1954C37.2754 45.3798 37.1756 45.5565 37.1141 45.7256C36.7145 46.7398 36.5148 47.9077 36.5148 49.2293C36.5148 50.6584 36.5993 52.149 36.7683 53.7011C36.8605 54.5463 36.945 55.1917 37.0219 55.6373C37.1141 56.083 37.2754 56.4979 37.5059 56.8821H37.5751L37.6673 56.836C37.821 56.6823 37.9362 56.4902 38.0131 56.2597C38.136 55.9524 38.2436 55.6066 38.3358 55.2224C38.4433 54.8382 38.5125 54.5924 38.5432 54.4848ZM37.4829 45.1032C37.4983 45.1032 37.5136 45.0955 37.529 45.0802L37.4829 45.1032ZM45.8088 56.9282C46.0393 56.9282 46.2161 57.005 46.339 57.1587C46.4773 57.3123 46.5465 57.4891 46.5465 57.6888C46.5465 57.904 46.485 58.0884 46.3621 58.242C46.2391 58.3957 46.0547 58.4726 45.8088 58.4726H43.158C42.9583 58.4726 42.7815 58.3957 42.6279 58.242C42.4742 58.0884 42.3974 57.904 42.3974 57.6888V44.55C42.3974 44.3349 42.4742 44.1581 42.6279 44.0198C42.7815 43.8662 42.9583 43.7893 43.158 43.7893H45.8088C46.0393 43.7893 46.2161 43.8662 46.339 44.0198C46.4773 44.1735 46.5465 44.3502 46.5465 44.55C46.5465 44.7651 46.4773 44.9495 46.339 45.1032C46.2161 45.2569 46.0393 45.3337 45.8088 45.3337H43.9187V51.2577H45.5092C45.7397 51.2577 45.9164 51.3346 46.0393 51.4882C46.1777 51.6419 46.2468 51.8186 46.2468 52.0184C46.2468 52.2335 46.1853 52.4179 46.0624 52.5716C45.9395 52.7253 45.7551 52.8021 45.5092 52.8021H43.9187V56.9282H45.8088ZM52.9599 54.0929C53.0521 54.3695 53.1136 54.8075 53.1443 55.4068C53.1443 55.499 53.1443 55.7142 53.1443 56.0522C53.1597 56.375 53.1213 56.6592 53.0291 56.9051C52.8293 57.443 52.4836 57.8425 51.9918 58.1037C51.5001 58.3496 50.9468 58.4726 50.3322 58.4726C50.0709 58.4726 49.8097 58.4495 49.5484 58.4034C49.364 58.3573 49.2257 58.2805 49.1335 58.1729C48.9491 58.0192 48.8569 57.8195 48.8569 57.5736V44.5039C48.8569 44.3041 48.903 44.1504 48.9952 44.0429C49.0721 43.797 49.2565 43.651 49.5484 43.6049C49.825 43.5588 50.1093 43.5358 50.4013 43.5358C51.0467 43.5358 51.5923 43.6741 52.0379 43.9507C52.4067 44.1812 52.6756 44.4732 52.8447 44.8266C53.0137 45.1647 53.1136 45.5028 53.1443 45.8408C53.1751 46.1635 53.2058 46.6399 53.2365 47.27C53.2519 47.5005 53.2596 47.8693 53.2596 48.3764C53.2596 50.5431 52.8293 52.0184 51.9688 52.8021C52.4759 53.1402 52.8063 53.5705 52.9599 54.0929ZM51.5999 46.0944C51.5846 45.6948 51.4386 45.4182 51.162 45.2646C50.9315 45.1724 50.6933 45.1263 50.4474 45.1263V51.9262C50.9545 51.8032 51.3157 51.2654 51.5308 50.3126C51.623 49.8363 51.6691 49.2446 51.6691 48.5377C51.6691 48.0153 51.6614 47.6311 51.646 47.3852L51.623 46.7167C51.6076 46.5784 51.5999 46.371 51.5999 46.0944ZM51.5308 56.398C51.5769 56.1675 51.5999 55.9139 51.5999 55.6373C51.5999 55.2224 51.5538 54.8767 51.4616 54.6001C51.4155 54.4156 51.3003 54.262 51.1159 54.139C50.9468 54.0007 50.724 53.8778 50.4474 53.7702V56.8821H50.724C50.7548 56.8667 50.8162 56.8513 50.9084 56.836C51.016 56.8052 51.1159 56.7745 51.2081 56.7438C51.3157 56.6977 51.3925 56.6516 51.4386 56.6055C51.4847 56.5594 51.5154 56.4902 51.5308 56.398ZM61.903 57.7349C61.9338 57.9654 61.8723 58.1422 61.7186 58.2651C61.5803 58.388 61.4036 58.4495 61.1885 58.4495C60.9733 58.4495 60.7735 58.388 60.5891 58.2651C60.4201 58.1422 60.3279 57.9654 60.3125 57.7349L59.9437 54.0929H57.2929C57.0931 55.4452 56.9395 56.6592 56.8319 57.7349C56.8165 57.9654 56.7166 58.1422 56.5322 58.2651C56.3632 58.388 56.1711 58.4495 55.956 58.4495C55.7255 58.4495 55.5411 58.388 55.4028 58.2651C55.2644 58.1422 55.203 57.9654 55.2183 57.7349C55.4028 55.9985 55.6333 54.262 55.9099 52.5255C56.2018 50.6815 56.4861 49.1447 56.7627 47.9154C57.0393 46.6706 57.4158 45.472 57.8922 44.3195C58.0613 43.9353 58.3225 43.7432 58.6759 43.7432H59.7824C60.0129 43.7432 60.1973 43.8201 60.3356 43.9737C60.4739 44.1274 60.5584 44.3118 60.5891 44.5269L61.903 57.7349ZM59.0908 45.6103C58.7374 46.6092 58.4454 47.6541 58.2149 48.7452C57.9844 49.8209 57.7539 51.0887 57.5234 52.5486H59.7824L59.0908 45.6103ZM67.4595 44.6652C67.4595 44.4194 67.5363 44.235 67.69 44.112C67.8437 43.9737 68.0281 43.9046 68.2432 43.9046C68.4583 43.9046 68.6427 43.9737 68.7964 44.112C68.9501 44.235 69.0269 44.4194 69.0269 44.6652V57.7119C69.0269 57.9424 68.9501 58.1268 68.7964 58.2651C68.6427 58.388 68.4583 58.4495 68.2432 58.4495C68.0281 58.4495 67.8437 58.388 67.69 58.2651C67.5363 58.1268 67.4595 57.9424 67.4595 57.7119V51.9723C66.8602 52.003 66.2685 51.98 65.6846 51.9031V57.7119C65.6846 57.9424 65.6077 58.1268 65.4541 58.2651C65.3004 58.388 65.116 58.4495 64.9009 58.4495C64.6857 58.4495 64.5013 58.388 64.3476 58.2651C64.194 58.1268 64.1171 57.9424 64.1171 57.7119V44.6652C64.1171 44.4194 64.194 44.235 64.3476 44.112C64.5013 43.9737 64.6857 43.9046 64.9009 43.9046C65.116 43.9046 65.3004 43.9737 65.4541 44.112C65.6077 44.235 65.6846 44.4194 65.6846 44.6652V50.3126C66.2378 50.4048 66.8294 50.4356 67.4595 50.4048V44.6652ZM76.4132 44.0429C76.6591 44.0429 76.8435 44.1197 76.9664 44.2734C77.1047 44.4271 77.1739 44.6115 77.1739 44.8266C77.1739 45.0417 77.1047 45.2261 76.9664 45.3798C76.8435 45.5335 76.6591 45.6103 76.4132 45.6103H74.938V57.8041C74.938 58.0346 74.8611 58.219 74.7074 58.3573C74.5538 58.4802 74.3694 58.5417 74.1542 58.5417C73.9391 58.5417 73.7547 58.4802 73.601 58.3573C73.4473 58.219 73.3705 58.0346 73.3705 57.8041V45.6103H71.5265C71.296 45.6103 71.1116 45.5335 70.9733 45.3798C70.8503 45.2261 70.7888 45.0417 70.7888 44.8266C70.7888 44.6115 70.8503 44.4271 70.9733 44.2734C71.1116 44.1197 71.296 44.0429 71.5265 44.0429H76.4132ZM78.9046 44.8035C78.9046 44.573 78.9815 44.3963 79.1351 44.2734C79.2888 44.1351 79.4655 44.0659 79.6653 44.0659C79.8804 44.0659 80.0572 44.1274 80.1955 44.2503C80.3491 44.3733 80.426 44.5577 80.426 44.8035V57.758C80.426 57.9885 80.3491 58.1652 80.1955 58.2882C80.0572 58.4111 79.8804 58.4726 79.6653 58.4726C79.4655 58.4726 79.2888 58.4111 79.1351 58.2882C78.9815 58.1652 78.9046 57.9885 78.9046 57.758V44.8035ZM86.8335 54.0929C86.9257 54.3695 86.9872 54.8075 87.0179 55.4068C87.0179 55.499 87.0179 55.7142 87.0179 56.0522C87.0333 56.375 86.9949 56.6592 86.9027 56.9051C86.7029 57.443 86.3571 57.8425 85.8654 58.1037C85.3736 58.3496 84.8204 58.4726 84.2057 58.4726C83.9445 58.4726 83.6833 58.4495 83.422 58.4034C83.2376 58.3573 83.0993 58.2805 83.0071 58.1729C82.8227 58.0192 82.7305 57.8195 82.7305 57.5736V44.5039C82.7305 44.3041 82.7766 44.1504 82.8688 44.0429C82.9456 43.797 83.13 43.651 83.422 43.6049C83.6986 43.5588 83.9829 43.5358 84.2749 43.5358C84.9203 43.5358 85.4658 43.6741 85.9115 43.9507C86.2803 44.1812 86.5492 44.4732 86.7183 44.8266C86.8873 45.1647 86.9872 45.5028 87.0179 45.8408C87.0486 46.1635 87.0794 46.6399 87.1101 47.27C87.1255 47.5005 87.1332 47.8693 87.1332 48.3764C87.1332 50.5431 86.7029 52.0184 85.8423 52.8021C86.3494 53.1402 86.6798 53.5705 86.8335 54.0929ZM85.4735 46.0944C85.4582 45.6948 85.3122 45.4182 85.0356 45.2646C84.8051 45.1724 84.5669 45.1263 84.321 45.1263V51.9262C84.8281 51.8032 85.1892 51.2654 85.4044 50.3126C85.4966 49.8363 85.5427 49.2446 85.5427 48.5377C85.5427 48.0153 85.535 47.6311 85.5196 47.3852L85.4966 46.7167C85.4812 46.5784 85.4735 46.371 85.4735 46.0944ZM85.4044 56.398C85.4505 56.1675 85.4735 55.9139 85.4735 55.6373C85.4735 55.2224 85.4274 54.8767 85.3352 54.6001C85.2891 54.4156 85.1739 54.262 84.9895 54.139C84.8204 54.0007 84.5976 53.8778 84.321 53.7702V56.8821H84.5976C84.6283 56.8667 84.6898 56.8513 84.782 56.836C84.8896 56.8052 84.9895 56.7745 85.0817 56.7438C85.1892 56.6977 85.2661 56.6516 85.3122 56.6055C85.3583 56.5594 85.389 56.4902 85.4044 56.398Z" fill="white"/>
</svg>
