<svg width="100" height="100" viewBox="0 0 100 100" fill="none" xmlns="http://www.w3.org/2000/svg">
<g clip-path="url(#clip0)">
<path d="M22.7341 39.079C22.8581 39.451 22.9407 40.04 22.9821 40.846C22.9821 40.97 22.9821 41.2593 22.9821 41.714C23.0027 42.148 22.9511 42.5303 22.8271 42.861C22.5584 43.5843 22.0934 44.1217 21.4321 44.473C20.7707 44.8037 20.0267 44.969 19.2001 44.969C18.8487 44.969 18.4974 44.938 18.1461 44.876C17.8981 44.814 17.7121 44.7107 17.5881 44.566C17.3401 44.3593 17.2161 44.0907 17.2161 43.76V26.183C17.2161 25.9143 17.2781 25.7077 17.4021 25.563C17.5054 25.2323 17.7534 25.036 18.1461 24.974C18.5181 24.912 18.9004 24.881 19.2931 24.881C20.1611 24.881 20.8947 25.067 21.4941 25.439C21.9901 25.749 22.3517 26.1417 22.5791 26.617C22.8064 27.0717 22.9407 27.5263 22.9821 27.981C23.0234 28.415 23.0647 29.0557 23.1061 29.903C23.1267 30.213 23.1371 30.709 23.1371 31.391C23.1371 34.305 22.5584 36.289 21.4011 37.343C22.0831 37.7977 22.5274 38.3763 22.7341 39.079ZM20.9051 28.322C20.8844 27.7847 20.6881 27.4127 20.3161 27.206C20.0061 27.082 19.6857 27.02 19.3551 27.02V36.165C20.0371 35.9997 20.5227 35.2763 20.8121 33.995C20.9361 33.3543 20.9981 32.5587 20.9981 31.608C20.9981 30.9053 20.9877 30.3887 20.9671 30.058L20.9361 29.159C20.9154 28.973 20.9051 28.694 20.9051 28.322ZM20.8121 42.179C20.8741 41.869 20.9051 41.528 20.9051 41.156C20.9051 40.598 20.8431 40.133 20.7191 39.761C20.6571 39.513 20.5021 39.3063 20.2541 39.141C20.0267 38.955 19.7271 38.7897 19.3551 38.645V42.83H19.7271C19.7684 42.8093 19.8511 42.7887 19.9751 42.768C20.1197 42.7267 20.2541 42.6853 20.3781 42.644C20.5227 42.582 20.6261 42.52 20.6881 42.458C20.7501 42.396 20.7914 42.303 20.8121 42.179ZM30.7933 25.842C30.8553 25.6147 30.9793 25.439 31.1653 25.315C31.3513 25.1703 31.558 25.098 31.7853 25.098C32.0747 25.098 32.3227 25.191 32.5293 25.377C32.736 25.563 32.8393 25.811 32.8393 26.121V43.946C32.8393 44.256 32.736 44.4937 32.5293 44.659C32.3227 44.8243 32.085 44.907 31.8163 44.907C31.527 44.907 31.279 44.8243 31.0723 44.659C30.8657 44.4937 30.7623 44.256 30.7623 43.946V33.375C29.853 36.413 28.8197 39.9367 27.6623 43.946C27.5797 44.1733 27.4453 44.349 27.2593 44.473C27.094 44.597 26.8977 44.659 26.6703 44.659C26.381 44.659 26.133 44.5763 25.9263 44.411C25.7197 44.225 25.6163 43.977 25.6163 43.667V26.121C25.6163 25.7903 25.7197 25.5423 25.9263 25.377C26.133 25.2117 26.381 25.129 26.6703 25.129C26.939 25.129 27.1767 25.222 27.3833 25.408C27.59 25.5733 27.6933 25.811 27.6933 26.121V36.413L30.7933 25.842ZM40.8054 25.532C41.0947 25.532 41.3427 25.6353 41.5494 25.842C41.756 26.0487 41.8594 26.2967 41.8594 26.586V44.039C41.8594 44.349 41.756 44.597 41.5494 44.783C41.3427 44.9483 41.105 45.031 40.8364 45.031C40.547 45.031 40.299 44.9483 40.0924 44.783C39.8857 44.597 39.7824 44.349 39.7824 44.039V27.64H37.4264V44.039C37.4264 44.349 37.323 44.597 37.1164 44.783C36.9097 44.9483 36.6617 45.031 36.3724 45.031C36.083 45.031 35.835 44.9483 35.6284 44.783C35.4217 44.597 35.3184 44.349 35.3184 44.039V26.586C35.3184 26.2967 35.4217 26.0487 35.6284 25.842C35.835 25.6353 36.083 25.532 36.3724 25.532H40.8054ZM48.9424 42.892C49.2524 42.892 49.49 42.9953 49.6554 43.202C49.8414 43.4087 49.9344 43.6463 49.9344 43.915C49.9344 44.2043 49.8517 44.4523 49.6864 44.659C49.521 44.8657 49.273 44.969 48.9424 44.969H45.3774C45.1087 44.969 44.871 44.8657 44.6644 44.659C44.4577 44.4523 44.3544 44.2043 44.3544 43.915V26.245C44.3544 25.9557 44.4577 25.718 44.6644 25.532C44.871 25.3253 45.1087 25.222 45.3774 25.222H48.9424C49.2524 25.222 49.49 25.3253 49.6554 25.532C49.8414 25.7387 49.9344 25.9763 49.9344 26.245C49.9344 26.5343 49.8414 26.7823 49.6554 26.989C49.49 27.1957 49.2524 27.299 48.9424 27.299H46.4004V35.266H48.5394C48.8494 35.266 49.087 35.3693 49.2524 35.576C49.4384 35.7827 49.5314 36.0203 49.5314 36.289C49.5314 36.5783 49.4487 36.8263 49.2834 37.033C49.118 37.2397 48.87 37.343 48.5394 37.343H46.4004V42.892H48.9424ZM56.8236 26.059C56.8236 25.7283 56.9166 25.4803 57.1026 25.315C57.2886 25.1497 57.516 25.067 57.7846 25.067C58.0326 25.067 58.2496 25.1497 58.4356 25.315C58.6216 25.4803 58.7146 25.7283 58.7146 26.059V43.884C58.7146 44.194 58.6216 44.4317 58.4356 44.597C58.2496 44.7623 58.0326 44.845 57.7846 44.845C57.516 44.845 57.2886 44.7623 57.1026 44.597C56.9166 44.4317 56.8236 44.194 56.8236 43.884V37.095C56.121 37.095 55.4906 36.7953 54.9326 36.196C54.3953 35.5967 53.951 34.832 53.5996 33.902C52.8143 31.732 52.4216 29.1797 52.4216 26.245C52.4216 25.9143 52.5146 25.6663 52.7006 25.501C52.8866 25.3357 53.1036 25.253 53.3516 25.253C53.5996 25.253 53.8166 25.3357 54.0026 25.501C54.1886 25.6663 54.2816 25.9143 54.2816 26.245C54.323 28.725 54.6226 30.8537 55.1806 32.631C55.47 33.6023 55.8006 34.2947 56.1726 34.708C56.4206 34.956 56.6376 35.0697 56.8236 35.049V26.059ZM65.7732 42.892C66.0832 42.892 66.3209 42.9953 66.4862 43.202C66.6722 43.4087 66.7652 43.6463 66.7652 43.915C66.7652 44.2043 66.6825 44.4523 66.5172 44.659C66.3519 44.8657 66.1039 44.969 65.7732 44.969H62.2082C61.9395 44.969 61.7019 44.8657 61.4952 44.659C61.2885 44.4523 61.1852 44.2043 61.1852 43.915V26.245C61.1852 25.9557 61.2885 25.718 61.4952 25.532C61.7019 25.3253 61.9395 25.222 62.2082 25.222H65.7732C66.0832 25.222 66.3209 25.3253 66.4862 25.532C66.6722 25.7387 66.7652 25.9763 66.7652 26.245C66.7652 26.5343 66.6722 26.7823 66.4862 26.989C66.3209 27.1957 66.0832 27.299 65.7732 27.299H63.2312V35.266H65.3702C65.6802 35.266 65.9179 35.3693 66.0832 35.576C66.2692 35.7827 66.3622 36.0203 66.3622 36.289C66.3622 36.5783 66.2795 36.8263 66.1142 37.033C65.9489 37.2397 65.7009 37.343 65.3702 37.343H63.2312V42.892H65.7732ZM73.7475 26.4C73.7475 26.0693 73.8508 25.8213 74.0575 25.656C74.2641 25.47 74.5121 25.377 74.8015 25.377C75.0908 25.377 75.3388 25.47 75.5455 25.656C75.7521 25.8213 75.8555 26.0693 75.8555 26.4V43.946C75.8555 44.256 75.7521 44.504 75.5455 44.69C75.3388 44.8553 75.0908 44.938 74.8015 44.938C74.5121 44.938 74.2641 44.8553 74.0575 44.69C73.8508 44.504 73.7475 44.256 73.7475 43.946V36.227C72.9415 36.2683 72.1458 36.2373 71.3605 36.134V43.946C71.3605 44.256 71.2571 44.504 71.0505 44.69C70.8438 44.8553 70.5958 44.938 70.3065 44.938C70.0171 44.938 69.7691 44.8553 69.5625 44.69C69.3558 44.504 69.2525 44.256 69.2525 43.946V26.4C69.2525 26.0693 69.3558 25.8213 69.5625 25.656C69.7691 25.47 70.0171 25.377 70.3065 25.377C70.5958 25.377 70.8438 25.47 71.0505 25.656C71.2571 25.8213 71.3605 26.0693 71.3605 26.4V33.995C72.1045 34.119 72.9001 34.1603 73.7475 34.119V26.4ZM85.231 31.143C85.355 32.0937 85.417 33.0753 85.417 34.088C85.417 34.9147 85.3964 35.5347 85.355 35.948C85.2724 36.9193 85.1897 37.7253 85.107 38.366C85.0244 38.986 84.89 39.5957 84.704 40.195L84.518 40.877C84.2287 42.055 83.8774 42.9437 83.464 43.543C82.906 44.349 82.2034 44.752 81.356 44.752C80.9427 44.752 80.488 44.6383 79.992 44.411C79.8267 44.349 79.7027 44.2663 79.62 44.163C79.5374 44.039 79.4857 43.9667 79.465 43.946C79.2377 43.636 79.062 43.3053 78.938 42.954C78.8347 42.582 78.7107 42.0653 78.566 41.404C78.3594 40.3913 78.1837 39.1823 78.039 37.777C77.8324 35.7517 77.729 34.181 77.729 33.065C77.729 32.7343 77.7497 32.2383 77.791 31.577C77.915 29.841 78.1837 28.4563 78.597 27.423C78.8864 26.6997 79.2274 26.1107 79.62 25.656C80.0334 25.1807 80.5604 24.943 81.201 24.943C81.7797 24.943 82.3067 25.1393 82.782 25.532C83.2574 25.904 83.65 26.3793 83.96 26.958C84.58 28.012 85.0037 29.407 85.231 31.143ZM81.325 42.737C81.4077 42.737 81.4697 42.7163 81.511 42.675C81.5524 42.613 81.573 42.582 81.573 42.582C81.7384 42.3547 81.9037 42.0343 82.069 41.621C82.441 40.5877 82.689 39.699 82.813 38.955C83.1644 37.157 83.34 35.514 83.34 34.026C83.34 32.6413 83.185 31.298 82.875 29.996C82.503 28.3633 81.9657 27.3713 81.263 27.02H81.232L81.077 27.175C80.8497 27.5263 80.643 27.981 80.457 28.539C80.085 29.779 79.899 31.236 79.899 32.91C79.899 33.5713 79.9404 34.5633 80.023 35.886C80.147 37.746 80.2917 39.141 80.457 40.071C80.4777 40.1743 80.5294 40.4327 80.612 40.846C80.6947 41.2387 80.7877 41.6003 80.891 41.931C80.9944 42.241 81.1184 42.5097 81.263 42.737H81.325Z" fill="#4B3209"/>
<path d="M0 59.6939C0 56.6327 0.340136 52.2959 0.510204 50.5102C2.55102 51.0204 14.5408 51.0204 21.1735 51.0204C27.8061 51.0204 64.5408 51.0204 75 51.2755C83.3673 51.4796 94.6429 50.5102 99.2347 50C99.1497 54.3367 99.0306 63.7755 99.2347 66.8367C99.4388 69.898 99.8299 78.6565 100 82.6531C94.6429 82.7381 82.398 82.8571 76.2755 82.6531C68.6225 82.398 45.9184 83.4184 41.0714 83.1633C37.1939 82.9592 13.4354 82.398 2.04082 82.1429C1.95578 81.0374 1.88776 77.9082 2.29592 74.2347C2.80612 69.6429 1.02041 68.1122 0.510204 67.0918C0 66.0714 0 63.5204 0 59.6939Z" fill="#4B3209"/>
<path d="M15.6794 57.4C15.6794 57.0693 15.7827 56.8213 15.9894 56.656C16.196 56.47 16.444 56.377 16.7334 56.377C17.0227 56.377 17.2707 56.47 17.4774 56.656C17.684 56.8213 17.7874 57.0693 17.7874 57.4V74.946C17.7874 75.256 17.684 75.504 17.4774 75.69C17.2707 75.8553 17.0227 75.938 16.7334 75.938C16.444 75.938 16.196 75.8553 15.9894 75.69C15.7827 75.504 15.6794 75.256 15.6794 74.946V67.227C14.8734 67.2683 14.0777 67.2373 13.2924 67.134V74.946C13.2924 75.256 13.189 75.504 12.9824 75.69C12.7757 75.8553 12.5277 75.938 12.2384 75.938C11.949 75.938 11.701 75.8553 11.4944 75.69C11.2877 75.504 11.1844 75.256 11.1844 74.946V57.4C11.1844 57.0693 11.2877 56.8213 11.4944 56.656C11.701 56.47 11.949 56.377 12.2384 56.377C12.5277 56.377 12.7757 56.47 12.9824 56.656C13.189 56.8213 13.2924 57.0693 13.2924 57.4V64.995C14.0364 65.119 14.832 65.1603 15.6794 65.119V57.4ZM28.8059 74.977C28.8473 75.287 28.7646 75.5247 28.5579 75.69C28.3719 75.8553 28.1343 75.938 27.8449 75.938C27.5556 75.938 27.2869 75.8553 27.0389 75.69C26.8116 75.5247 26.6876 75.287 26.6669 74.977L26.1709 70.079H22.6059C22.3373 71.8977 22.1306 73.5303 21.9859 74.977C21.9653 75.287 21.8309 75.5247 21.5829 75.69C21.3556 75.8553 21.0973 75.938 20.8079 75.938C20.4979 75.938 20.2499 75.8553 20.0639 75.69C19.8779 75.5247 19.7953 75.287 19.8159 74.977C20.0639 72.6417 20.3739 70.3063 20.7459 67.971C21.1386 65.491 21.5209 63.4243 21.8929 61.771C22.2649 60.097 22.7713 58.485 23.4119 56.935C23.6393 56.4183 23.9906 56.16 24.4659 56.16H25.9539C26.2639 56.16 26.5119 56.2633 26.6979 56.47C26.8839 56.6767 26.9976 56.9247 27.0389 57.214L28.8059 74.977ZM25.0239 58.671C24.5486 60.0143 24.1559 61.4197 23.8459 62.887C23.5359 64.3337 23.2259 66.0387 22.9159 68.002H25.9539L25.0239 58.671ZM47.9334 78.17C48.1814 78.232 48.3674 78.3457 48.4914 78.511C48.6361 78.697 48.7084 78.9037 48.7084 79.131C48.7084 79.4203 48.6051 79.6787 48.3984 79.906C48.1918 80.154 47.9438 80.278 47.6544 80.278C47.5098 80.278 47.4064 80.2677 47.3444 80.247C46.8071 80.1023 46.3318 79.8027 45.9184 79.348C45.5051 78.8933 45.1641 78.356 44.8954 77.736C44.4408 76.682 44.0068 75.2767 43.5934 73.52L43.4074 72.621C43.1594 71.1537 42.8288 69.9343 42.4154 68.963C42.0021 67.9917 41.3511 67.444 40.4624 67.32V75.163C40.4624 75.473 40.3488 75.721 40.1214 75.907C39.9148 76.0723 39.6668 76.155 39.3774 76.155C39.0881 76.155 38.8298 76.0723 38.6024 75.907C38.3958 75.721 38.2924 75.473 38.2924 75.163V57.462C38.2924 57.1313 38.3958 56.873 38.6024 56.687C38.8298 56.501 39.0881 56.408 39.3774 56.408C39.6874 56.408 39.9458 56.501 40.1524 56.687C40.3591 56.873 40.4624 57.1313 40.4624 57.462V63.29C40.9998 62.4427 41.4441 61.523 41.7954 60.531C42.1468 59.539 42.4774 58.423 42.7874 57.183C42.9114 56.6663 43.2318 56.408 43.7484 56.408C44.0378 56.408 44.2961 56.5113 44.5234 56.718C44.7714 56.904 44.8954 57.1417 44.8954 57.431C44.8954 57.5757 44.8851 57.679 44.8644 57.741C44.4924 59.2497 44.0481 60.6343 43.5314 61.895C43.0148 63.1557 42.3844 64.313 41.6404 65.367C42.6944 65.7597 43.5004 66.5243 44.0584 67.661C44.6164 68.777 45.0711 70.1307 45.4224 71.722C45.7738 73.4787 46.1251 74.8943 46.4764 75.969C46.7658 76.713 47.0344 77.2607 47.2824 77.612C47.3238 77.6947 47.4478 77.8393 47.6544 78.046L47.7784 78.108C47.8198 78.1493 47.8714 78.17 47.9334 78.17ZM57.8515 74.977C57.8928 75.287 57.8102 75.5247 57.6035 75.69C57.4175 75.8553 57.1798 75.938 56.8905 75.938C56.6012 75.938 56.3325 75.8553 56.0845 75.69C55.8572 75.5247 55.7332 75.287 55.7125 74.977L55.2165 70.079H51.6515C51.3828 71.8977 51.1762 73.5303 51.0315 74.977C51.0108 75.287 50.8765 75.5247 50.6285 75.69C50.4012 75.8553 50.1428 75.938 49.8535 75.938C49.5435 75.938 49.2955 75.8553 49.1095 75.69C48.9235 75.5247 48.8408 75.287 48.8615 74.977C49.1095 72.6417 49.4195 70.3063 49.7915 67.971C50.1842 65.491 50.5665 63.4243 50.9385 61.771C51.3105 60.097 51.8168 58.485 52.4575 56.935C52.6848 56.4183 53.0362 56.16 53.5115 56.16H54.9995C55.3095 56.16 55.5575 56.2633 55.7435 56.47C55.9295 56.6767 56.0432 56.9247 56.0845 57.214L57.8515 74.977ZM54.0695 58.671C53.5942 60.0143 53.2015 61.4197 52.8915 62.887C52.5815 64.3337 52.2715 66.0387 51.9615 68.002H54.9995L54.0695 58.671ZM67.0912 56.656C67.1738 56.408 67.3082 56.222 67.4942 56.098C67.6802 55.974 67.8868 55.912 68.1142 55.912C68.3828 55.912 68.6205 56.005 68.8272 56.191C69.0338 56.377 69.1372 56.625 69.1372 56.935V74.946C69.1372 75.256 69.0338 75.504 68.8272 75.69C68.6205 75.8553 68.3725 75.938 68.0832 75.938C67.7938 75.938 67.5458 75.8553 67.3392 75.69C67.1325 75.504 67.0292 75.256 67.0292 74.946V63.848C66.5745 65.336 66.1612 66.6587 65.7892 67.816C65.7065 68.0433 65.5722 68.2293 65.3862 68.374C65.2002 68.498 65.0038 68.56 64.7972 68.56C64.5698 68.56 64.3632 68.498 64.1772 68.374C63.9912 68.25 63.8568 68.064 63.7742 67.816L62.3172 63.445V75.039C62.3172 75.349 62.2138 75.597 62.0072 75.783C61.8005 75.9483 61.5525 76.031 61.2632 76.031C60.9738 76.031 60.7258 75.9483 60.5192 75.783C60.3125 75.597 60.2092 75.349 60.2092 75.039V56.935C60.2092 56.6043 60.3022 56.3563 60.4882 56.191C60.6948 56.005 60.9428 55.912 61.2322 55.912C61.4595 55.912 61.6662 55.9843 61.8522 56.129C62.0588 56.253 62.2035 56.4287 62.2862 56.656C62.8235 58.3093 63.6502 60.7893 64.7662 64.096L67.0912 56.656ZM76.1945 73.892C76.5045 73.892 76.7422 73.9953 76.9075 74.202C77.0935 74.4087 77.1865 74.6463 77.1865 74.915C77.1865 75.2043 77.1039 75.4523 76.9385 75.659C76.7732 75.8657 76.5252 75.969 76.1945 75.969H72.6295C72.3609 75.969 72.1232 75.8657 71.9165 75.659C71.7099 75.4523 71.6065 75.2043 71.6065 74.915V57.245C71.6065 56.9557 71.7099 56.718 71.9165 56.532C72.1232 56.3253 72.3609 56.222 72.6295 56.222H76.1945C76.5045 56.222 76.7422 56.3253 76.9075 56.532C77.0935 56.7387 77.1865 56.9763 77.1865 57.245C77.1865 57.5343 77.0935 57.7823 76.9075 57.989C76.7422 58.1957 76.5045 58.299 76.1945 58.299H73.6525V66.266H75.7915C76.1015 66.266 76.3392 66.3693 76.5045 66.576C76.6905 66.7827 76.7835 67.0203 76.7835 67.289C76.7835 67.5783 76.7009 67.8263 76.5355 68.033C76.3702 68.2397 76.1222 68.343 75.7915 68.343H73.6525V73.892H76.1945ZM84.1688 57.4C84.1688 57.0693 84.2721 56.8213 84.4788 56.656C84.6855 56.47 84.9335 56.377 85.2228 56.377C85.5121 56.377 85.7601 56.47 85.9668 56.656C86.1735 56.8213 86.2768 57.0693 86.2768 57.4V74.946C86.2768 75.256 86.1735 75.504 85.9668 75.69C85.7601 75.8553 85.5121 75.938 85.2228 75.938C84.9335 75.938 84.6855 75.8553 84.4788 75.69C84.2721 75.504 84.1688 75.256 84.1688 74.946V67.227C83.3628 67.2683 82.5671 67.2373 81.7818 67.134V74.946C81.7818 75.256 81.6785 75.504 81.4718 75.69C81.2651 75.8553 81.0171 75.938 80.7278 75.938C80.4385 75.938 80.1905 75.8553 79.9838 75.69C79.7771 75.504 79.6738 75.256 79.6738 74.946V57.4C79.6738 57.0693 79.7771 56.8213 79.9838 56.656C80.1905 56.47 80.4385 56.377 80.7278 56.377C81.0171 56.377 81.2651 56.47 81.4718 56.656C81.6785 56.8213 81.7818 57.0693 81.7818 57.4V64.995C82.5258 65.119 83.3215 65.1603 84.1688 65.119V57.4ZM88.7703 57.586C88.7703 57.276 88.8737 57.0383 89.0803 56.873C89.287 56.687 89.5247 56.594 89.7933 56.594C90.0827 56.594 90.3203 56.6767 90.5063 56.842C90.713 57.0073 90.8163 57.2553 90.8163 57.586V75.008C90.8163 75.318 90.713 75.5557 90.5063 75.721C90.3203 75.8863 90.0827 75.969 89.7933 75.969C89.5247 75.969 89.287 75.8863 89.0803 75.721C88.8737 75.5557 88.7703 75.318 88.7703 75.008V57.586Z" fill="white"/>
</g>
<defs>
<clipPath id="clip0">
<rect width="100" height="100" fill="white"/>
</clipPath>
</defs>
</svg>
