<svg width="100" height="100" viewBox="0 0 100 100" fill="none" xmlns="http://www.w3.org/2000/svg">
<g clip-path="url(#clip0)">
<path d="M79.7041 26.658C79.2704 26.7036 78.8367 27.0227 78.403 27.205C76.4856 27.091 74.5681 27.0227 72.6507 26.9087C69.1811 26.6808 65.8027 26.2933 62.607 24.6068C60.3472 23.3988 57.7221 22.829 55.2112 22.0769C53.4307 21.5527 51.6274 21.1881 49.8241 20.755C49.71 20.7322 49.6187 20.6411 49.5045 20.6183C48.3632 20.2764 47.2675 19.7978 46.1034 19.6154C44.9621 19.4331 43.7294 19.661 42.5881 19.4331C39.2554 18.7266 35.9227 18.9317 32.7042 19.7066C30.3987 20.2764 28.1617 21.3248 25.9932 22.3504C24.6007 22.9886 23.3224 23.923 22.0898 24.8347C21.1767 25.4956 20.3322 26.3161 19.5561 27.1594C18.7115 28.0711 17.981 29.0967 17.2049 30.0539C15.9266 31.6493 14.9451 33.3587 14.8081 35.4783C14.7853 36.0708 14.557 36.6406 14.3744 37.2104C13.9864 38.4639 13.2331 39.7175 13.2103 40.971C13.1646 43.3185 13.7125 45.6888 13.6668 48.0591C13.6211 52.1616 13.7353 56.1501 15.9038 59.8651C16.931 61.5972 16.0864 63.1698 14.3059 63.2838C6.5449 63.8308 -1.12483 63.7624 -8.45216 60.64C-8.61195 60.5716 -8.81739 60.6628 -9 60.6628C-8.90869 60.8451 -8.88587 61.1186 -8.74891 61.2098C-7.9728 61.7568 -7.21953 62.3949 -6.35211 62.7824C-3.54444 64.0131 -0.759603 65.4262 2.18503 66.2695C5.19814 67.1583 8.34821 67.6825 11.4754 67.9104C13.8038 68.07 16.2006 67.523 18.5745 67.3179C20.1495 67.1811 21.1996 67.9105 22.0213 69.2324C22.4094 69.8705 22.98 70.4631 23.5964 70.9189C25.1257 72.0129 26.7921 72.9246 26.1986 75.2721C26.1301 75.5228 26.4725 75.9786 26.7236 76.2065C28.2302 77.574 29.7595 78.9871 31.3574 80.2862C32.7042 81.403 34.0509 82.7021 35.626 83.2947C37.4293 83.9556 39.2554 84.9356 41.3783 84.6849C41.812 84.6166 42.4055 85.2091 42.7935 85.6194C43.5468 86.4399 44.3686 86.7818 45.5327 86.8957C48.9795 87.2376 52.1752 86.759 55.2797 85.1636C57.3341 84.1152 59.6395 83.591 61.6939 82.5653C64.7755 81.0155 67.7658 79.2834 70.6876 77.4828C72.4681 76.3889 74.2029 75.1125 75.7094 73.6767C76.9649 72.4915 77.8323 70.8961 78.9052 69.5059C80.8911 66.9076 82.877 64.3322 84.8629 61.734C85.1825 61.3237 85.5934 60.9819 85.8445 60.526C87.0999 58.2469 88.3782 55.945 89.5424 53.6202C90.8207 51.1132 92.1218 48.6061 93.1261 45.9851C94.2675 42.9994 95.0436 39.877 96.0936 36.8685C97.2806 33.4498 98.6502 30.1223 99.8143 26.7036C100.111 25.8603 99.9513 24.8803 99.9969 23.9458C99.0382 23.8774 98.0339 23.6267 97.1436 23.8319C94.4729 24.4928 91.9163 25.5868 89.2228 25.997C86.0956 26.4985 82.877 26.4301 79.7041 26.658Z" fill="#4D9D20"/>
<path d="M34.196 65.2544C32.8961 65.7275 31.7776 65.7 30.8405 65.172C29.9191 64.6383 29.2246 63.7294 28.7572 62.4451C28.3012 61.1922 28.0109 59.3469 27.8863 56.9091C27.756 54.4557 27.9418 52.1888 28.4439 50.1083C28.9459 48.0278 29.839 46.7538 31.1233 46.2864C32.846 45.6593 34.0979 46.4186 34.8788 48.5643C35.4318 50.0834 35.4737 52.1965 35.0046 54.9036C35.3905 54.9405 35.7736 55.0671 36.1538 55.2834C36.8429 55.0326 37.5327 54.6131 38.2231 54.0248C38.9292 53.4308 39.4929 52.8354 39.9142 52.2387L40.3565 52.796C40.099 53.4041 39.6805 54.0087 39.1012 54.6097C38.5318 55.1894 37.8577 55.7008 37.0789 56.1439C37.2655 56.413 37.4472 56.7903 37.6239 57.2758C38.0058 58.3251 38.135 59.3866 38.0114 60.4603C37.8879 61.534 37.503 62.4988 36.8568 63.3548C36.2106 64.2107 35.3236 64.8439 34.196 65.2544ZM34.4601 62.7638C34.9456 62.5871 35.3086 62.2688 35.5491 61.8088C35.8053 61.3431 35.9362 60.8254 35.9417 60.2558C35.9629 59.6806 35.8766 59.1267 35.6828 58.5942C35.4719 58.0147 35.2446 57.6097 35.0011 57.3791C34.9085 57.466 34.8053 57.5479 34.6914 57.6248C34.5718 57.6861 34.4102 57.7537 34.2066 57.8278C33.8308 57.9647 33.4961 57.9712 33.2028 57.8474C32.9094 57.7236 32.6972 57.4816 32.5661 57.1213C32.395 56.6515 32.4106 56.2556 32.6127 55.9338C32.8305 55.6062 33.1921 55.3327 33.6975 55.1133C33.8496 54.1179 33.8998 53.062 33.8482 51.9457C33.8066 50.808 33.6376 49.8319 33.3411 49.0175C33.1701 48.5477 32.9878 48.2416 32.7941 48.0993C32.6103 47.9356 32.3775 47.905 32.0956 48.0076C31.4848 48.2299 31.1348 49.2175 31.0456 50.9704C30.9721 52.7176 31.0773 54.6392 31.3613 56.7351C31.6453 58.831 31.9526 60.3332 32.2832 61.2416C32.7791 62.6041 33.5048 63.1115 34.4601 62.7638ZM44.5549 61.5372C43.3959 61.9591 42.3871 61.9893 41.5283 61.6278C40.6639 61.2508 39.998 60.4201 39.5305 59.1358C39.1372 58.0552 38.9154 56.788 38.8652 55.3341C38.8149 53.8803 39.0964 52.5097 39.7098 51.2223C40.3174 49.9192 41.3573 48.9998 42.8295 48.4639C44.5523 47.8369 45.6873 48.2751 46.2345 49.7786C46.5537 50.6557 46.5967 51.5535 46.3634 52.472C46.1302 53.3905 45.6812 54.2279 45.0164 54.9842C44.346 55.7248 43.5523 56.2975 42.6354 56.7021C42.7751 57.1834 42.8734 57.5023 42.9304 57.6589C43.2098 58.4264 43.5338 58.9026 43.9027 59.0876C44.2658 59.2569 44.745 59.2333 45.3401 59.0167C46.1859 58.7088 46.835 58.2509 47.2877 57.6427C47.756 57.0288 48.205 56.1914 48.6347 55.1305L49.4334 54.8398C48.7495 58.3699 47.1234 60.6024 44.5549 61.5372ZM42.4129 55.5061C42.981 55.2639 43.455 54.8608 43.8351 54.2968C44.2308 53.7271 44.4798 53.0955 44.5821 52.402C44.7001 51.7028 44.6422 51.0322 44.4085 50.3901C44.1748 49.7479 43.8621 49.4981 43.4706 49.6406C42.9068 49.8458 42.5304 50.5415 42.3413 51.7277C42.168 52.9082 42.1918 54.1677 42.4129 55.5061ZM53.3595 58.3326C52.2006 58.7544 51.2202 58.8629 50.4185 58.6581C49.6324 58.4476 49.0769 57.896 48.752 57.0033C48.5411 56.4238 48.4918 55.8742 48.6042 55.3544C48.6951 54.8247 48.8694 54.3533 49.127 53.9403C49.3789 53.5116 49.7341 53.0011 50.1924 52.4086C50.7788 51.6808 51.1866 51.0712 51.4157 50.5799C51.6548 50.0672 51.6746 49.5368 51.4751 48.9886C51.3496 48.6441 51.1588 48.412 50.9024 48.2925C50.656 48.1516 50.3527 48.1467 49.9925 48.2778C49.4757 48.4659 49.0849 48.8299 48.8202 49.3696C48.5556 49.9093 48.397 50.6676 48.3446 51.6445L47.217 52.0549C47.198 50.3946 47.4453 49.0275 47.9591 47.9538C48.4671 46.8643 49.3711 46.083 50.671 45.6099C51.5793 45.2793 52.4109 45.2249 53.1656 45.4468C53.936 45.663 54.4837 46.2175 54.8086 47.1102C55.0537 47.7836 55.1266 48.4222 55.0271 49.026C54.9276 49.6298 54.7341 50.1702 54.4466 50.6473C54.1534 51.1088 53.7698 51.6386 53.2958 52.2368C52.7606 52.9105 52.3934 53.4609 52.1942 53.8882C51.9892 54.2997 51.9637 54.7169 52.1176 55.1398C52.4198 55.9699 53.1268 56.1825 54.2388 55.7778C54.9435 55.5213 55.5436 55.0989 56.039 54.5107C56.55 53.9168 57.0168 53.0552 57.4393 51.9259L58.2381 51.6351C57.8826 53.2899 57.3227 54.6997 56.5584 55.8647C55.804 57.0083 54.7377 57.831 53.3595 58.3326ZM61.8403 55.2459C60.9475 55.5708 60.0925 55.5362 59.275 55.142C58.4576 54.7478 57.8123 53.9007 57.3391 52.6008C56.9173 51.4419 56.7026 50.1455 56.6951 48.7116C56.6975 47.2563 56.9933 45.9248 57.5824 44.7172C58.1816 43.4881 59.1154 42.6428 60.384 42.181C61.0261 41.9473 61.5437 41.8831 61.9367 41.9884C62.3298 42.0936 62.5918 42.3263 62.7229 42.6866L62.7828 42.851L62.588 41.5119L65.9709 40.2806L67.1867 48.8836C67.2095 49.1413 67.2694 49.4033 67.3663 49.6696C67.6114 50.343 68.055 50.5629 68.6972 50.3292C69.1357 50.1696 69.4375 49.8291 69.6025 49.3079C69.7832 48.781 69.8478 48.1545 69.7963 47.4283L70.783 47.0692C70.8191 48.9715 70.5177 50.3849 69.8786 51.3092C69.2495 52.2121 68.5042 52.8204 67.6429 53.1339C66.9851 53.3733 66.387 53.387 65.8487 53.175C65.3204 52.9416 64.8888 52.4868 64.554 51.8106C64.3335 52.618 64.0155 53.3279 63.5998 53.9403C63.1942 54.5314 62.6077 54.9666 61.8403 55.2459ZM62.5379 52.4113C62.9294 52.2688 63.2476 51.9491 63.4923 51.452C63.747 50.9337 63.828 50.3277 63.7353 49.6343L62.9305 43.9146C62.8564 43.711 62.7068 43.5438 62.4818 43.4128C62.2511 43.2662 61.9713 43.2528 61.6424 43.3725C61.0159 43.6005 60.5861 44.1738 60.3528 45.0923C60.1139 45.9951 60.0415 47.0147 60.1359 48.1509C60.2245 49.2715 60.4113 50.2234 60.6963 51.0065C60.9813 51.7895 61.2734 52.2508 61.5724 52.3903C61.8872 52.524 62.209 52.531 62.5379 52.4113ZM79.5151 48.8128C78.826 49.0636 78.1767 49.0339 77.5671 48.7236C76.9733 48.4077 76.5053 47.7799 76.1633 46.8402C75.9809 46.339 75.7862 45.2925 75.5793 43.7006L72.9716 44.6497L73.8256 50.7239L70.4428 51.9552L68.6577 39.3027L72.0406 38.0714L72.7405 43.1375L75.3716 42.1799L74.7187 37.0967L77.8667 35.9509L79.0589 44.5625C79.0818 44.8202 79.1302 45.0508 79.2043 45.2544C79.4381 45.8966 79.876 46.1008 80.5181 45.8671C80.8 45.7645 81.0335 45.6263 81.2186 45.4525C81.4409 46.2584 81.3785 46.9639 81.0312 47.5692C80.6939 48.1531 80.1885 48.5676 79.5151 48.8128Z" fill="#C3D833"/>
</g>
<defs>
<clipPath id="clip0">
<rect width="100" height="100" fill="white"/>
</clipPath>
</defs>
</svg>
