<svg width="130" height="39" viewBox="0 0 130 39" fill="none" xmlns="http://www.w3.org/2000/svg">
<path fill-rule="evenodd" clip-rule="evenodd" d="M4.19355 4.15698H125.806V34.6415H4.19355V4.15698ZM0 38.7985V0H130V38.7985H0ZM54.9643 29.4313C52.9327 29.4313 51.0969 28.9972 49.4568 28.1288C47.8353 27.2605 46.5586 26.0688 45.6267 24.5538C44.7134 23.0204 44.2568 21.3021 44.2568 19.3992C44.2568 17.4962 44.7134 15.7872 45.6267 14.2722C46.5586 12.7388 47.8353 11.5379 49.4568 10.6695C51.0969 9.80117 52.9327 9.367 54.9643 9.367C56.9958 9.367 58.8223 9.80117 60.4439 10.6695C62.0654 11.5379 63.3421 12.7388 64.274 14.2722C65.2059 15.7872 65.6718 17.4962 65.6718 19.3992C65.6718 21.3021 65.2059 23.0204 64.274 24.5538C63.3421 26.0688 62.0654 27.2605 60.4439 28.1288C58.8223 28.9972 56.9958 29.4313 54.9643 29.4313ZM54.9643 25.6069C56.1198 25.6069 57.1636 25.3483 58.0955 24.831C59.0274 24.2952 59.7543 23.5562 60.2761 22.6139C60.8166 21.6717 61.0869 20.6001 61.0869 19.3992C61.0869 18.1983 60.8166 17.1267 60.2761 16.1844C59.7543 15.2422 59.0274 14.5124 58.0955 13.9951C57.1636 13.4593 56.1198 13.1914 54.9643 13.1914C53.8087 13.1914 52.765 13.4593 51.8331 13.9951C50.9012 14.5124 50.165 15.2422 49.6245 16.1844C49.1026 17.1267 48.8417 18.1983 48.8417 19.3992C48.8417 20.6001 49.1026 21.6717 49.6245 22.6139C50.165 23.5562 50.9012 24.2952 51.8331 24.831C52.765 25.3483 53.8087 25.6069 54.9643 25.6069ZM14.398 18.4292V13.3023H24.6583V9.69956H9.86901V29.0988H14.398V22.0319H23.4561V18.4292H14.398ZM35.0211 23.6947L38.7953 29.0988H43.6598L39.2706 22.8633C40.5566 22.3091 41.5444 21.5146 42.234 20.48C42.9423 19.4269 43.2964 18.1798 43.2964 16.7387C43.2964 15.2976 42.9516 14.0505 42.262 12.9974C41.5724 11.9443 40.5846 11.1314 39.2985 10.5587C38.0312 9.98593 36.5308 9.69956 34.7975 9.69956H26.3265V29.0988H30.8555V23.6947H35.0211ZM37.6491 14.2445C38.3573 14.8173 38.7114 15.6487 38.7114 16.7387C38.7114 17.8103 38.3573 18.6417 37.6491 19.2329C36.9408 19.8241 35.9064 20.1197 34.5459 20.1197H30.8555V13.3577H34.5459C35.9064 13.3577 36.9408 13.6533 37.6491 14.2445ZM83.3382 29.0988V25.4406H72.2113L82.9189 12.6094V9.69956H66.4522V13.3577H76.964L66.2285 26.1889V29.0988H83.3382ZM99.9978 25.4961V29.0988H84.8451V9.69956H99.6343V13.3023H89.3461V17.5147H98.4322V21.0065H89.3461V25.4961H99.9978ZM120.152 29.0988V9.69956H115.679V21.4777L105.95 9.69956H102.204V29.0988H106.677V17.3207L116.434 29.0988H120.152Z" fill="#5854B1"/>
</svg>
