<svg width="51" height="50" viewBox="0 0 51 50" fill="none" xmlns="http://www.w3.org/2000/svg">
<path fill-rule="evenodd" clip-rule="evenodd" d="M10.0501 48.3864C10.1701 48.3857 10.2856 48.432 10.3708 48.5153C10.4595 48.5983 10.5072 48.7151 10.5017 48.8354V49.1306C10.4925 49.3691 10.2923 49.5571 10.0501 49.5547H3.09533C2.97397 49.5579 2.8571 49.5094 2.77459 49.4217C2.69176 49.3352 2.64636 49.2204 2.64799 49.1015C2.65047 48.8538 2.68018 48.6071 2.73661 48.3656C2.79076 48.1409 2.8715 47.9232 2.97716 47.717C3.08726 47.5309 3.20699 47.3505 3.33587 47.1765C3.47879 46.9896 3.63535 46.8131 3.80431 46.6485C3.98155 46.4739 4.16301 46.3117 4.3487 46.1621C4.53861 46.0082 4.72851 45.8627 4.91842 45.7214L5.50502 45.3056C5.69915 45.1684 5.89327 45.0395 6.0874 44.9148C6.48831 44.6528 6.85968 44.3867 7.20573 44.1123C7.55178 43.8379 7.88095 43.5552 8.19324 43.2808C8.44316 43.0423 8.6463 42.7604 8.7925 42.4493C8.92698 42.1531 9.00151 41.8339 9.01194 41.5096C9.01187 41.2175 8.95456 40.9281 8.84314 40.6573C8.74206 40.4177 8.58435 40.2053 8.38315 40.0378C7.86311 39.6743 7.23512 39.4915 6.59803 39.5181C6.19972 39.5148 5.80396 39.581 5.42905 39.7135C5.12242 39.8203 4.85008 40.0054 4.63989 40.2499C4.20709 40.8424 3.99133 41.5622 4.02797 42.2913C4.03337 42.4096 3.98731 42.5245 3.90136 42.6073C3.81567 42.6894 3.70017 42.7343 3.58064 42.732H3.26835C3.14881 42.7343 3.03331 42.6894 2.94762 42.6073C2.86167 42.5245 2.81562 42.4096 2.82102 42.2913C2.8379 39.6886 4.0969 38.3706 6.59803 38.3373C7.06557 38.331 7.53123 38.3969 7.97801 38.5327C8.38987 38.659 8.77771 38.8515 9.12589 39.1024C9.8611 39.6928 10.267 40.5929 10.2189 41.5263C10.207 41.9837 10.1038 42.4344 9.91506 42.8526C9.72285 43.2772 9.45885 43.6666 9.13433 44.0042C8.80539 44.3393 8.45887 44.6571 8.09618 44.9563C7.72363 45.2662 7.33026 45.551 6.91876 45.8087C6.18877 46.2924 5.48449 46.8128 4.80869 47.3678C4.45983 47.6418 4.17849 47.99 3.98577 48.3864H10.0501ZM19.3609 48.3982C19.482 48.3973 19.5986 48.4436 19.6853 48.5271C19.7699 48.6001 19.8215 48.7034 19.8286 48.8141V49.1094C19.8329 49.2284 19.7853 49.3434 19.698 49.4255C19.6139 49.5129 19.4955 49.5599 19.3735 49.5544H12.4213C12.3016 49.5564 12.1867 49.508 12.1053 49.4214C12.0215 49.3353 11.9747 49.2205 11.9747 49.1011C11.9806 48.8533 12.0117 48.6066 12.0674 48.3649C12.1215 48.1401 12.2021 47.9224 12.3076 47.7161C12.4175 47.5299 12.537 47.3495 12.6657 47.1754C12.8084 46.9884 12.9647 46.8118 13.1334 46.6472C13.3043 46.4742 13.4858 46.3117 13.6769 46.1606C13.8623 46.0067 14.0519 45.8611 14.2458 45.7197L14.8272 45.3038C15.021 45.1666 15.2149 45.0376 15.4087 44.9129C15.83 44.6508 16.1839 44.3846 16.5252 44.1101C16.8665 43.8356 17.1994 43.5528 17.5154 43.2783C17.7636 43.0385 17.9662 42.7568 18.1137 42.4465C18.2465 42.1499 18.3195 41.8306 18.3286 41.5065C18.3306 41.2141 18.2733 40.9242 18.1601 40.6539C18.0663 40.4169 17.916 40.2057 17.7219 40.0383C17.2026 39.6747 16.5756 39.4918 15.9396 39.5185C15.5405 39.5147 15.1439 39.5808 14.7682 39.7139C14.4621 39.8207 14.1902 40.0059 13.9803 40.2505C13.55 40.8441 13.3348 41.5635 13.3694 42.2926C13.3748 42.4109 13.3288 42.5259 13.243 42.6087C13.1601 42.6923 13.0454 42.7376 12.927 42.7335H12.6109C12.4925 42.7376 12.3778 42.6923 12.2949 42.6087C12.2091 42.5259 12.1631 42.4109 12.1685 42.2926C12.1685 39.689 13.4255 38.3705 15.9396 38.3373C16.4063 38.3315 16.8711 38.3974 17.3174 38.5327C17.7286 38.6591 18.1158 38.8516 18.4634 39.1025C19.1993 39.6916 19.6037 40.5936 19.5505 41.5273C19.5421 41.9849 19.4403 42.4362 19.2513 42.8541C19.0579 43.278 18.7945 43.6674 18.4719 44.0062C18.1516 44.3306 17.8061 44.6467 17.4353 44.9586C17.0634 45.2686 16.6706 45.5535 16.2598 45.8112C15.5302 46.2942 14.827 46.8148 14.1531 47.3709C13.7961 47.644 13.5089 47.9958 13.3146 48.3982H19.3609ZM28.9356 45.9244C29.0892 45.2767 29.1625 44.614 29.1541 43.9501C29.1674 43.2785 29.0984 42.6077 28.9484 41.9513C28.8049 41.3402 28.5758 40.7502 28.2673 40.1972C27.9468 39.6286 27.4642 39.1578 26.8751 38.8389C26.2169 38.5025 25.4801 38.3299 24.7332 38.3371C23.9976 38.3333 23.2727 38.5058 22.6256 38.8389C22.0336 39.1645 21.5531 39.6462 21.2419 40.2258C20.93 40.7772 20.6966 41.3657 20.5479 41.9757C20.3858 42.6236 20.3095 43.2882 20.3209 43.9541C20.3095 44.6174 20.3858 45.2793 20.5479 45.9244C20.6966 46.5306 20.93 47.115 21.2419 47.6621C21.5586 48.2348 22.0381 48.7112 22.6256 49.0368C23.2679 49.3758 23.9902 49.5541 24.7246 49.5548C25.4732 49.5578 26.2102 49.3795 26.8665 49.0368C27.4582 48.7095 27.9397 48.2284 28.2545 47.6499C28.5635 47.1072 28.7927 46.5266 28.9356 45.9244ZM27.8904 43.1342C27.9375 43.4279 27.9375 43.6972 27.9375 43.9501C27.9439 44.2141 27.9353 44.4783 27.9118 44.7414C27.8818 45.027 27.8432 45.2921 27.8004 45.5573C27.7446 45.8135 27.6745 46.0668 27.5905 46.316C27.507 46.559 27.3964 46.7929 27.2606 47.0135C27.1435 47.2177 26.9996 47.4069 26.8322 47.5764C26.6642 47.7346 26.4756 47.8716 26.2711 47.9844C26.0683 48.1235 25.8403 48.2259 25.5985 48.2862C25.3185 48.353 25.0304 48.3846 24.7418 48.38C24.453 48.3857 24.1648 48.3541 23.885 48.2862C23.6391 48.2227 23.4061 48.1206 23.1953 47.9844C22.7883 47.7426 22.4581 47.4 22.24 46.9931C22.112 46.7699 22.0045 46.5365 21.9187 46.2956C21.829 46.0489 21.763 45.7949 21.7217 45.5369C21.4761 44.4795 21.4761 43.3839 21.7217 42.3266C21.7612 42.0672 21.8257 41.8118 21.9145 41.5638C21.9946 41.3306 22.1009 41.1063 22.2315 40.8948C22.3498 40.6901 22.4937 40.4997 22.6598 40.3278C22.8231 40.163 23.0056 40.0165 23.2039 39.8913C23.6642 39.6338 24.1909 39.5038 24.7246 39.516C25.9355 39.5405 26.7737 39.9974 27.2392 40.8866C27.3701 41.1034 27.4791 41.3315 27.5648 41.5678C27.6528 41.8134 27.7244 42.0641 27.779 42.3184C27.8007 42.4468 27.8169 42.5794 27.8338 42.7173C27.8502 42.851 27.8672 42.9897 27.8904 43.1342ZM38.4802 43.9501C38.4929 44.6142 38.4195 45.2773 38.2617 45.9244C38.1183 46.5258 37.8907 47.1062 37.5849 47.6499C37.2687 48.2275 36.7876 48.7083 36.1969 49.0368C35.5405 49.3793 34.8035 49.5576 34.055 49.5548C33.3205 49.5543 32.5983 49.376 31.956 49.0368C31.3685 48.7112 30.889 48.2348 30.5723 47.6621C30.2608 47.1144 30.0261 46.5302 29.874 45.9244C29.7161 45.2786 29.6399 44.6172 29.647 43.9541C29.6399 43.2884 29.7161 42.6243 29.874 41.9757C30.026 41.366 30.2608 40.7778 30.5723 40.2258C30.8835 39.6462 31.364 39.1645 31.956 38.8389C32.6018 38.5063 33.3251 38.3338 34.0593 38.3371C34.8062 38.3301 35.5429 38.5026 36.2012 38.8389C36.7893 39.159 37.2716 39.6296 37.5934 40.1972C37.8987 40.7512 38.1262 41.3409 38.2703 41.9513C38.4259 42.6068 38.4964 43.2781 38.4802 43.9501ZM37.2636 43.9501C37.2636 43.6972 37.2636 43.4279 37.2207 43.1342C37.2047 43.0246 37.1911 42.9184 37.1779 42.8152L37.1779 42.8151C37.1557 42.6418 37.1346 42.4769 37.1051 42.3184C37.0524 42.0637 36.9809 41.8129 36.8909 41.5678C36.8066 41.3316 36.6991 41.1035 36.5696 40.8866C36.0984 39.9973 35.2588 39.5405 34.0507 39.516C33.5184 39.5043 32.9932 39.6343 32.5343 39.8913C32.3352 40.0155 32.1525 40.162 31.9902 40.3278C31.8227 40.4987 31.6788 40.6892 31.5618 40.8948C31.4316 41.107 31.324 41.3311 31.2406 41.5637C31.1558 41.8129 31.0914 42.0679 31.0478 42.3265C30.8022 43.3839 30.8022 44.4795 31.0478 45.5369C31.0912 45.7945 31.1571 46.0483 31.2448 46.2956C31.3321 46.5366 31.441 46.7699 31.5704 46.9931C31.7885 47.4 32.1187 47.7426 32.5257 47.9844C32.736 48.1214 32.9692 48.2235 33.2154 48.2862C33.4882 48.3527 33.7691 48.3842 34.0507 48.38C34.3394 48.3848 34.6275 48.3532 34.9075 48.2862C35.1506 48.2259 35.38 48.1236 35.5843 47.9844C35.7875 47.8716 35.9746 47.7345 36.1412 47.5764C36.3071 47.4057 36.4509 47.2167 36.5696 47.0135C36.7041 46.7928 36.8132 46.5589 36.8952 46.316C36.9812 46.0673 37.0513 45.814 37.1051 45.5573C37.1522 45.2921 37.1907 45.027 37.2207 44.7414C37.25 44.4786 37.2643 44.2144 37.2636 43.9501ZM47.589 45.9244C47.7427 45.2767 47.8161 44.614 47.8077 43.9501C47.821 43.2784 47.7519 42.6077 47.6018 41.9513C47.4582 41.3402 47.2289 40.7502 46.9201 40.1972C46.5993 39.6286 46.1162 39.1578 45.5265 38.8389C44.8677 38.5025 44.1302 38.3299 43.3825 38.3371C42.6462 38.3333 41.9206 38.5058 41.2728 38.8389C40.685 39.1658 40.2075 39.6455 39.8964 40.2217C39.5842 40.7731 39.3505 41.3616 39.2017 41.9717C39.0395 42.6195 38.9631 43.2842 38.9745 43.9501C38.9631 44.6133 39.0395 45.2752 39.2017 45.9203C39.3506 46.5265 39.5842 47.1109 39.8964 47.658C40.2116 48.2304 40.6882 48.7078 41.2728 49.0368C41.9158 49.3758 42.6388 49.5541 43.3739 49.5548C44.1233 49.5583 44.8612 49.38 45.5179 49.0368C46.1102 48.7095 46.5921 48.2284 46.9072 47.6499C47.2166 47.1072 47.446 46.5266 47.589 45.9244ZM46.5427 43.1342C46.5899 43.4279 46.5899 43.6971 46.5899 43.9501C46.59 44.2089 46.5757 44.4676 46.547 44.7251C46.517 45.0106 46.4784 45.2758 46.4355 45.5409C46.3797 45.7972 46.3095 46.0505 46.2254 46.2996C46.1415 46.5419 46.0324 46.7756 45.8995 46.9972C45.7866 47.2024 45.6485 47.3941 45.4879 47.5683C45.3196 47.7264 45.1309 47.8635 44.9262 47.9762C44.7232 48.1154 44.495 48.2177 44.253 48.278C43.9726 48.3448 43.6843 48.3764 43.3954 48.3719C43.1064 48.3775 42.8179 48.3459 42.5378 48.278C42.2917 48.2145 42.0584 48.1125 41.8474 47.9762C41.44 47.7344 41.1095 47.3918 40.8912 46.985C40.7631 46.7617 40.6555 46.5283 40.5696 46.2874C40.4798 46.0407 40.4138 45.7868 40.3724 45.5287C40.1265 44.4714 40.1265 43.3757 40.3724 42.3184C40.4119 42.059 40.4765 41.8037 40.5653 41.5556C40.6455 41.3224 40.7519 41.0981 40.8826 40.8866C41.0011 40.6819 41.1451 40.4916 41.3114 40.3196C41.4748 40.1548 41.6575 40.0084 41.856 39.8831C42.3167 39.6256 42.844 39.4956 43.3782 39.5079C44.5874 39.5323 45.4279 39.9892 45.8995 40.8785C46.0264 41.0989 46.1326 41.3296 46.2168 41.5678C46.305 41.8134 46.3766 42.0641 46.4312 42.3184C46.453 42.4468 46.4692 42.5794 46.4861 42.7172C46.5025 42.8509 46.5195 42.9896 46.5427 43.1342Z" fill="#808285"/>
<path fill-rule="evenodd" clip-rule="evenodd" d="M47.6477 35.6421V32.8519C46.7604 33.3099 45.8366 33.6956 44.8856 34.0052C44.2615 34.1794 43.6158 34.2671 42.9672 34.2656C41.767 34.314 40.5913 33.9212 39.6678 33.1634C38.8327 32.4736 38.3596 31.4476 38.381 30.3733C38.3514 29.2932 38.8342 28.2614 39.6866 27.5831C40.6399 26.8272 41.8398 26.4403 43.0615 26.4949C44.6307 26.5433 46.1604 26.9919 47.5016 27.797V24.9975C46.0766 24.2125 44.4618 23.825 42.8305 23.8768C40.5178 23.8768 38.6481 24.5139 37.2215 25.7881C35.8434 26.9484 35.0565 28.651 35.0721 30.4384C35.0392 32.1949 35.7824 33.8787 37.1083 35.0515C38.4658 36.2916 40.29 36.9116 42.5807 36.9116C44.3504 36.9102 46.0918 36.4739 47.6477 35.6421ZM11.5581 26.6992V24.4156H2.80908V36.9117H5.98548V31.7735H11.5581V29.4898H5.98548V26.6992H11.5581ZM33.4108 24.8526V27.3376C31.7046 26.5806 30.3449 26.2006 29.3319 26.1975C28.855 26.1754 28.3804 26.2747 27.9534 26.486C27.6477 26.6209 27.448 26.9181 27.4406 27.2492C27.454 27.5224 27.5882 27.776 27.8076 27.9426C28.3554 28.3092 28.9546 28.5945 29.5859 28.7896C30.3686 29.0606 31.1325 29.3824 31.8724 29.7529C32.4523 30.059 32.9567 30.4881 33.3496 31.0094C33.7817 31.6063 34.0017 32.3279 33.9753 33.0616C34.0035 34.1547 33.4973 35.1942 32.6157 35.8538C31.5763 36.5937 30.3146 36.9643 29.0355 36.9055C27.4147 36.9001 25.8224 36.4835 24.4108 35.6956V32.9546C25.1264 33.4462 25.891 33.8641 26.6926 34.2018C27.3651 34.464 28.0821 34.5967 28.8049 34.5927C30.0658 34.5927 30.6868 34.2018 30.6868 33.4199C30.6764 33.1256 30.5395 32.8496 30.3104 32.6614C29.7575 32.2728 29.1419 31.9801 28.4897 31.7958C27.7094 31.5352 26.9472 31.2242 26.208 30.8651C25.6319 30.563 25.1331 30.1348 24.7496 29.6133C24.3207 29.0067 24.1058 28.2772 24.138 27.5377C24.1146 26.4911 24.6145 25.5005 25.4741 24.8898C26.5193 24.1694 27.7774 23.8141 29.0496 23.8799C30.5554 23.9045 32.04 24.2356 33.4108 24.8526ZM22.4607 27.3401V24.8617C21.0867 24.2392 19.5971 23.9042 18.0856 23.8777C16.8191 23.8223 15.5697 24.183 14.5329 24.9035C13.6754 25.513 13.1777 26.5012 13.2029 27.5443C13.165 28.2777 13.3713 29.0031 13.7904 29.6097C14.1729 30.1286 14.6693 30.5555 15.2425 30.8581C15.9825 31.2162 16.7455 31.5263 17.5264 31.7864C18.1774 31.9713 18.7922 32.2631 19.345 32.6497C19.5724 32.8385 19.7088 33.113 19.721 33.4062C19.721 34.1859 19.0944 34.5758 17.8412 34.5758C17.1207 34.5798 16.406 34.4475 15.7359 34.1859C14.932 33.8495 14.1652 33.4327 13.4473 32.942V35.6757C14.8611 36.4716 16.4583 36.8951 18.0856 36.9056C19.3728 36.9644 20.6415 36.586 21.6806 35.8335C22.5625 35.1767 23.0685 34.1393 23.0387 33.0488C23.0668 32.3176 22.8486 31.5978 22.4184 31.002C22.026 30.4821 21.5221 30.0542 20.9428 29.7489C20.2029 29.3811 19.4401 29.0602 18.6589 28.7882C18.0209 28.5974 17.4157 28.3127 16.8638 27.9435C16.6446 27.7773 16.5105 27.5244 16.4972 27.2519C16.5048 26.9231 16.7019 26.6275 17.0047 26.4908C17.4317 26.2814 17.9054 26.1824 18.3817 26.203C19.3967 26.2061 20.7564 26.5851 22.4607 27.3401Z" fill="#2A8961"/>
<path d="M33.2946 3.37004C29.6744 -0.311607 23.969 -1.03285 19.5315 1.63018C14.2946 4.69866 12.9944 11.6129 16.1147 16.5975C16.1877 16.715 16.5709 16.5975 16.5344 16.4529C15.5189 13.2291 16.0771 9.72073 18.0444 6.96274C19.5148 4.50457 21.9373 2.75022 24.7479 2.10815C27.5585 1.46609 30.5119 1.99233 32.9205 3.56436C33.0209 3.65022 33.4223 3.49657 33.2946 3.37004Z" fill="#2A8961"/>
<path d="M33.6592 1.72401C32.0441 0.745807 29.9027 1.09484 28.215 1.6092H28.1833H28.156C24.1001 3.07421 19.5044 6.99622 19.8537 11.7678C19.8537 11.8964 20.2575 11.7678 20.2847 11.676C21.2374 8.56687 23.6873 6.16498 26.4774 4.69537C29.2675 3.22577 34.1582 2.73896 34.8523 6.82171C34.8523 6.95489 35.2606 6.82171 35.2833 6.72986C35.7325 4.76885 35.4829 2.84459 33.6592 1.72401Z" fill="#AAD0C0"/>
<path d="M33.9755 7.30638C33.6631 6.94567 33.5698 6.85549 33.2388 6.50831C33.1315 6.39559 32.7258 6.50831 32.8377 6.67514C34.9137 9.95017 34.6989 14.1213 32.2968 17.1807C30.8029 19.0217 28.631 20.2333 26.235 20.5624C23.7543 20.9501 21.3296 20.0348 19.1286 19.0248C18.9934 18.9617 18.6344 19.0699 18.7976 19.2458C22.1129 22.8529 27.9743 23.7231 32.0497 20.7292C34.1652 19.2097 35.5608 16.9322 35.923 14.4082C36.2851 11.8842 35.5834 9.3253 33.9755 7.30638Z" fill="#808285"/>
<path d="M31.6041 10.8324C31.5811 10.6953 31.1843 10.7456 31.1428 10.869C30.6814 13.3042 29.1589 15.3329 27.2949 16.9457C24.8866 19.0246 19.4516 21.0259 18.1921 16.7995C18.1506 16.6488 17.763 16.7173 17.7307 16.8635C17.1817 21.1812 20.9603 22.2275 24.4437 20.9756C28.1346 19.6597 31.641 15.7715 31.701 11.7873C31.7046 11.4664 31.6721 11.1462 31.6041 10.8324Z" fill="#BCBEC0"/>
</svg>
