<svg width="8" height="15" viewBox="0 0 8 15" fill="none" xmlns="http://www.w3.org/2000/svg">
<path fill-rule="evenodd" clip-rule="evenodd" d="M6.94554 2.55884C6.94554 3.53613 6.15329 4.32838 5.176 4.32838C4.19871 4.32838 3.40646 3.53613 3.40646 2.55884C3.40646 1.58156 4.19871 0.789307 5.176 0.789307C6.15329 0.789307 6.94554 1.58156 6.94554 2.55884ZM6.82373 11.4413C6.88154 11.4527 6.9365 11.4755 6.98538 11.5084C7.07182 11.5722 7.13206 11.6654 7.15486 11.7704C7.17765 11.8754 7.16144 11.9851 7.10925 12.079C6.50319 13.0036 5.35299 14.1804 4.25145 14.6228C3.81678 14.7983 3.35322 14.8913 2.88448 14.897C2.40239 14.9267 1.92385 14.7977 1.52194 14.5299C1.30781 14.3903 1.14247 14.1875 1.04892 13.9497C0.955365 13.7118 0.938239 13.4507 0.999922 13.2027C1.02986 13.0484 1.537 11.586 2.03259 10.1569C2.48895 8.84092 2.93551 7.55319 2.99065 7.34111C3.0908 7.1007 3.10178 6.83242 3.02162 6.58463C2.98441 6.51936 2.92911 6.46625 2.86238 6.43171C2.79566 6.39718 2.72037 6.38268 2.64559 6.38998C2.49961 6.40325 1.17245 6.57578 1.17245 6.57578C1.11436 6.57956 1.05609 6.57186 1.00097 6.55311C0.945852 6.53437 0.894965 6.50495 0.851216 6.46655C0.807467 6.42814 0.771711 6.38149 0.745991 6.32926C0.72027 6.27703 0.705088 6.22025 0.701312 6.16215C0.697536 6.10406 0.705239 6.04579 0.723982 5.99067C0.742726 5.93555 0.772141 5.88467 0.810551 5.84092C0.84896 5.79717 0.89561 5.76141 0.947837 5.73569C1.00006 5.70997 1.05685 5.69479 1.11494 5.69101C1.13945 5.68926 1.69542 5.61822 2.37945 5.53082C3.42381 5.39737 4.76671 5.22578 4.97254 5.20439C6.22448 5.00532 6.34393 5.83258 6.06965 6.67311C5.88385 7.24821 4.18951 12.2737 4.09219 12.5568L3.85773 13.2514C3.85507 13.2627 3.85196 13.2755 3.84859 13.2892C3.81268 13.436 3.74751 13.7023 3.89312 13.7468C4.11695 13.8329 4.63817 13.4374 4.80061 13.3141C4.80511 13.3106 4.80934 13.3074 4.81328 13.3045C5.41449 12.8327 5.93839 12.27 6.36605 11.6367C6.39785 11.5871 6.43923 11.5443 6.48777 11.5109C6.53632 11.4775 6.59104 11.4542 6.64873 11.4422C6.70642 11.4303 6.76592 11.43 6.82373 11.4413Z" fill="white"/>
</svg>
