<svg width="50" height="50" viewBox="0 0 50 50" fill="none" xmlns="http://www.w3.org/2000/svg">
<path d="M1 25C1 11.7465 11.7465 1 25 1C38.2535 1 49 11.7465 49 25C49 38.2535 38.2535 49 25 49C11.7465 49 1 38.2535 1 25Z" stroke="url(#paint0_linear)" stroke-width="2"/>
<path d="M24.9964 20.5535C22.5481 20.5535 20.5502 22.5515 20.5502 24.9998C20.5502 27.4482 22.5481 29.4462 24.9964 29.4462C27.4447 29.4462 29.4427 27.4482 29.4427 24.9998C29.4427 22.5515 27.4447 20.5535 24.9964 20.5535ZM38.3318 24.9998C38.3318 23.1586 38.3485 21.334 38.2451 19.4961C38.1417 17.3613 37.6547 15.4667 36.0937 13.9057C34.5294 12.3413 32.6381 11.8576 30.5034 11.7542C28.6622 11.6508 26.8376 11.6675 24.9998 11.6675C23.1585 11.6675 21.334 11.6508 19.4961 11.7542C17.3614 11.8576 15.4668 12.3446 13.9058 13.9057C12.3414 15.4701 11.8578 17.3613 11.7544 19.4961C11.651 21.3374 11.6677 23.1619 11.6677 24.9998C11.6677 26.8377 11.651 28.6656 11.7544 30.5036C11.8578 32.6383 12.3448 34.5329 13.9058 36.094C15.4702 37.6584 17.3614 38.142 19.4961 38.2455C21.3373 38.3489 23.1619 38.3322 24.9998 38.3322C26.841 38.3322 28.6655 38.3489 30.5034 38.2455C32.6381 38.142 34.5327 37.6551 36.0937 36.094C37.6581 34.5296 38.1417 32.6383 38.2451 30.5036C38.3519 28.6656 38.3318 26.8411 38.3318 24.9998ZM24.9964 31.8411C21.2106 31.8411 18.1553 28.7857 18.1553 24.9998C18.1553 21.2139 21.2106 18.1585 24.9964 18.1585C28.7822 18.1585 31.8376 21.2139 31.8376 24.9998C31.8376 28.7857 28.7822 31.8411 24.9964 31.8411ZM32.1178 19.4761C31.2339 19.4761 30.52 18.7623 30.52 17.8784C30.52 16.9944 31.2339 16.2806 32.1178 16.2806C33.0017 16.2806 33.7155 16.9944 33.7155 17.8784C33.7157 18.0883 33.6746 18.2961 33.5944 18.4901C33.5142 18.6841 33.3965 18.8603 33.2481 19.0087C33.0997 19.1571 32.9235 19.2748 32.7295 19.355C32.5355 19.4352 32.3277 19.4764 32.1178 19.4761Z" fill="url(#paint1_linear)"/>
<defs>
<linearGradient id="paint0_linear" x1="25" y1="0" x2="25" y2="50" gradientUnits="userSpaceOnUse">
<stop stop-color="#625ACA"/>
<stop offset="1" stop-color="#E53F60"/>
</linearGradient>
<linearGradient id="paint1_linear" x1="25" y1="11.6665" x2="25" y2="38.3332" gradientUnits="userSpaceOnUse">
<stop stop-color="#625ACA"/>
<stop offset="1" stop-color="#E53F60"/>
</linearGradient>
</defs>
</svg>
