<svg width="200" height="157" viewBox="0 0 200 157" fill="none" xmlns="http://www.w3.org/2000/svg">
<path d="M0 92.3106V157L200 75.904V11.2145L0 92.3106Z" fill="#0B0D0E"/>
<path d="M0 81.096V86.8733L200 5.7773V0L0 81.096Z" fill="#AF272F"/>
<path d="M86.8764 103.619C87.4253 99.6746 88.2309 94.342 88.3412 92.3706H88.4507C88.7072 94.9264 89.293 98.981 89.9514 103.619H86.8764ZM90.7569 89.3021H86.1076L82.1167 113.7H85.4483L86.4368 106.651H90.3542L91.453 113.7H94.8941L90.7569 89.3021ZM53.006 86.8859L54.923 76.6987H51.9026C51.3568 79.0421 50.9791 81.4213 50.7724 83.8183H50.6629C50.4209 81.4235 50.0315 79.0458 49.4968 76.6987H46.3778L48.3557 86.8859H53.006ZM82.9671 89.3021H71.7998V92.3339H75.754V113.7H79.0129V92.3339H82.9671V89.3021ZM67.2178 96.607C67.2178 100.588 67.2178 104.021 67.4008 107.162H67.3272C67.0886 105.697 66.7709 104.246 66.3754 102.816L62.7882 89.3021H58.9435V113.7H62.0194V106.176C62.0194 101.757 61.9826 98.2141 61.8355 95.2557H61.8723C62.0194 95.9859 62.2015 97.0087 62.5316 98.2866L66.5584 113.7H70.256V89.3021H67.2178V96.607ZM49.0213 103.619C49.5703 99.6746 50.3759 94.342 50.4862 92.3706H50.5956C50.8513 94.9264 51.438 98.981 52.0964 103.619H49.0213ZM48.2526 89.3021L44.2617 113.7H47.5933L48.5818 106.651H52.4992L53.598 113.7H57.0391L52.9019 89.3021H48.2526ZM38.9521 99.3766H34.4857V89.3021H31.1909V113.7H34.4857V102.408H38.9521V113.7H42.2478V89.3021H38.9521V99.3766ZM25.2651 107.746C25.2651 109.755 24.8991 111.07 23.3248 111.07C21.7137 111.07 21.3109 109.682 21.3109 107.746V94.9264C21.3109 93.0642 21.7505 91.9321 23.2512 91.9321C24.8255 91.9321 25.1924 93.1375 25.1924 94.8906V99.1332H28.4872V95.2557C28.4872 91.9321 27.6449 88.9737 23.288 88.9737C19.6631 88.9737 17.9426 91.3111 17.9426 95.1456V107.49C17.9426 111.143 18.8217 114.028 23.2145 114.028C28.0845 114.028 28.5967 110.34 28.5967 107.418V101.94L25.2651 103.314V107.746Z" fill="#FCFCFC"/>
</svg>
