<svg width="201" height="98" viewBox="0 0 201 98" fill="none" xmlns="http://www.w3.org/2000/svg">
<path opacity="0.1" d="M179.474 70.4568C180.901 60.2046 182.995 46.3451 183.281 41.2213H183.566C184.233 47.8638 185.755 58.4021 187.466 70.4568H179.474ZM189.56 33.2462H177.476L167.104 96.657H175.762L178.332 78.3366H188.513L191.369 96.657H200.312L189.56 33.2462ZM91.4437 26.9665L96.426 0.489441H88.576C87.1574 6.58002 86.1757 12.7637 85.6384 18.9936H85.354C84.725 12.7693 83.7128 6.58965 82.3231 0.489441H74.2167L79.3575 26.9665H91.4437ZM169.314 33.2462H140.29V41.126H150.567V96.657H159.037V41.126H169.314V33.2462ZM128.381 52.2317C128.381 62.5793 128.381 71.501 128.856 79.6646H128.665C128.045 75.8574 127.219 72.0865 126.191 68.3682L116.868 33.2462H106.875V96.657H114.87V77.1016C114.87 65.6167 114.774 56.4089 114.392 48.7197H114.488C114.87 50.6176 115.343 53.276 116.201 56.5972L126.667 96.657H136.277V33.2462H128.381V52.2317ZM81.0875 70.4568C82.5143 60.2046 84.6079 46.3451 84.8947 41.2213H85.1791C85.8436 47.8638 87.3683 58.4021 89.0796 70.4568H81.0875ZM79.0894 33.2462L68.7169 96.657H77.3758L79.9451 78.3366H90.1264L92.9825 96.657H101.926L91.1733 33.2462H79.0894ZM54.9171 59.4301H43.3089V33.2462H34.7455V96.657H43.3089V67.31H54.9171V96.657H63.4828V33.2462H54.9171V59.4301ZM19.344 81.1834C19.344 86.4048 18.3928 89.8214 14.3011 89.8214C10.1139 89.8214 9.06704 86.2141 9.06704 81.1834V47.8639C9.06704 43.0239 10.2094 40.0817 14.1099 40.0817C18.2016 40.0817 19.1552 43.2146 19.1552 47.7708V58.7975H27.7185V48.7197C27.7185 40.0817 25.5293 32.3926 14.2055 32.3926C4.7842 32.3926 0.3125 38.4676 0.3125 48.4337V80.5182C0.3125 90.0121 2.59731 97.5105 14.0144 97.5105C26.6717 97.5105 28.003 87.9236 28.003 80.3298V66.0935L19.344 69.6637V81.1834Z" fill="#0B0D0E"/>
</svg>
