<svg width="134" height="105" viewBox="0 0 134 105" fill="none" xmlns="http://www.w3.org/2000/svg">
<path d="M0 61.6893V104.92L133.333 50.7251V7.49445L0 61.6893Z" fill="#0B0D0E"/>
<path d="M0 54.1949V58.0557L133.333 3.86085V0L0 54.1949Z" fill="#AF272F"/>
<path d="M57.9178 69.2466C58.2838 66.6105 58.8208 63.0469 58.8943 61.7294H58.9673C59.1383 63.4374 59.5289 66.1471 59.9678 69.2466H57.9178ZM60.5048 59.6788H57.4053L54.7446 75.9834H56.9657L57.6247 71.2727H60.2363L60.9689 75.9834H63.2629L60.5048 59.6788ZM35.3375 58.0641L36.6155 51.2562H34.602C34.2381 52.8223 33.9862 54.4122 33.8484 56.0141H33.7755C33.6142 54.4137 33.3545 52.8247 32.9981 51.2562H30.9187L32.2374 58.0641H35.3375ZM55.3116 59.6788H47.8668V61.7049H50.5028V75.9834H52.6755V61.7049H55.3116V59.6788ZM44.812 64.5605C44.812 67.2211 44.812 69.5151 44.934 71.6142H44.885C44.726 70.6353 44.5142 69.6657 44.2505 68.7096L41.859 59.6788H39.2959V75.9834H41.3465V70.9552C41.3465 68.0021 41.322 65.6345 41.2239 63.6575H41.2484C41.3465 64.1455 41.4679 64.829 41.688 65.683L44.3725 75.9834H46.8376V59.6788H44.812V64.5605ZM32.6811 69.2466C33.0471 66.6105 33.5841 63.0469 33.6577 61.7294H33.7306C33.9011 63.4374 34.2922 66.1471 34.7311 69.2466H32.6811ZM32.1686 59.6788L29.508 75.9834H31.729L32.3881 71.2727H34.9996L35.7322 75.9834H38.0262L35.2682 59.6788H32.1686ZM25.9683 66.4114H22.9907V59.6788H20.7941V75.9834H22.9907V68.4375H25.9683V75.9834H28.1654V59.6788H25.9683V66.4114ZM16.8436 72.0047C16.8436 73.3473 16.5996 74.2258 15.5501 74.2258C14.476 74.2258 14.2075 73.2982 14.2075 72.0047V63.4374C14.2075 62.1929 14.5005 61.4364 15.501 61.4364C16.5506 61.4364 16.7952 62.2419 16.7952 63.4135V66.2487H18.9917V63.6575C18.9917 61.4364 18.4302 59.4593 15.5255 59.4593C13.1089 59.4593 11.9619 61.0214 11.9619 63.5839V71.8337C11.9619 74.2748 12.548 76.2028 15.4765 76.2028C18.7232 76.2028 19.0647 73.7378 19.0647 71.7852V68.1247L16.8436 69.0427V72.0047Z" fill="#FCFCFC"/>
</svg>
