<svg width="100" height="32" viewBox="0 0 100 32" fill="none" xmlns="http://www.w3.org/2000/svg">
<path fill-rule="evenodd" clip-rule="evenodd" d="M3.22581 3.86735H96.7742V28.5612H3.22581V3.86735ZM0 31.9286V0.5H100V31.9286H0ZM42.2801 24.3408C40.7174 24.3408 39.3052 23.9891 38.0435 23.2857C36.7962 22.5823 35.8141 21.617 35.0973 20.3898C34.3948 19.1476 34.0435 17.7557 34.0435 16.2142C34.0435 14.6727 34.3948 13.2884 35.0973 12.0612C35.8141 10.819 36.7962 9.84622 38.0435 9.14281C39.3052 8.43941 40.7174 8.08771 42.2801 8.08771C43.8428 8.08771 45.2478 8.43941 46.4951 9.14281C47.7425 9.84622 48.7245 10.819 49.4414 12.0612C50.1582 13.2884 50.5166 14.6727 50.5166 16.2142C50.5166 17.7557 50.1582 19.1476 49.4414 20.3898C48.7245 21.617 47.7425 22.5823 46.4951 23.2857C45.2478 23.9891 43.8428 24.3408 42.2801 24.3408ZM42.2801 21.2428C43.169 21.2428 43.9718 21.0333 44.6887 20.6142C45.4055 20.1802 45.9647 19.5816 46.3661 18.8183C46.7819 18.0551 46.9898 17.187 46.9898 16.2142C46.9898 15.2415 46.7819 14.3734 46.3661 13.6102C45.9647 12.8469 45.4055 12.2557 44.6887 11.8367C43.9718 11.4027 43.169 11.1857 42.2801 11.1857C41.3912 11.1857 40.5883 11.4027 39.8715 11.8367C39.1546 12.2557 38.5883 12.8469 38.1726 13.6102C37.7711 14.3734 37.5704 15.2415 37.5704 16.2142C37.5704 17.187 37.7711 18.0551 38.1726 18.8183C38.5883 19.5816 39.1546 20.1802 39.8715 20.6142C40.5883 21.0333 41.3912 21.2428 42.2801 21.2428ZM11.0753 15.4285V11.2755H18.9678V8.3571H7.59141V24.0714H11.0753V18.3469H18.043V15.4285H11.0753ZM26.9392 19.6938L29.8424 24.0714H33.5844L30.208 19.0204C31.1973 18.5714 31.9571 17.9279 32.4876 17.0898C33.0324 16.2367 33.3048 15.2265 33.3048 14.0591C33.3048 12.8918 33.0396 11.8816 32.5091 11.0285C31.9786 10.1755 31.2188 9.51696 30.2295 9.05302C29.2546 8.58907 28.1005 8.3571 26.7671 8.3571H20.251V24.0714H23.7349V19.6938H26.9392ZM28.9607 12.0387C29.5055 12.5027 29.7779 13.1761 29.7779 14.0591C29.7779 14.9272 29.5055 15.6006 28.9607 16.0796C28.4159 16.5585 27.6202 16.7979 26.5736 16.7979H23.7349V11.3204H26.5736C27.6202 11.3204 28.4159 11.5598 28.9607 12.0387ZM64.1062 24.0714V21.1081H55.5471L63.7836 10.7142V8.3571H51.1169V11.3204H59.203L50.9449 21.7142V24.0714H64.1062ZM76.9212 21.153V24.0714H65.2653V8.3571H76.6416V11.2755H68.7277V14.6877H75.7169V17.5163H68.7277V21.153H76.9212ZM92.4244 24.0714V8.3571H88.9836V17.8979L81.4997 8.3571H78.618V24.0714H82.0588V14.5306L89.5642 24.0714H92.4244Z" fill="#5854B1"/>
</svg>
