<svg width="60" height="68" viewBox="0 0 60 68" fill="none" xmlns="http://www.w3.org/2000/svg">
<path fill-rule="evenodd" clip-rule="evenodd" d="M9.83428 65.432C9.99378 65.431 10.1471 65.4929 10.2604 65.6039C10.3781 65.7146 10.4415 65.8703 10.4342 66.0307V66.4243C10.4221 66.7423 10.1561 66.993 9.83428 66.9898H0.594373C0.433141 66.994 0.277875 66.9294 0.168255 66.8124C0.0582092 66.6971 -0.00211631 66.544 5.67341e-05 66.3855C0.00334956 66.0552 0.0428202 65.7262 0.117792 65.4043C0.189735 65.1047 0.297 64.8144 0.43738 64.5395C0.583662 64.2914 0.742728 64.0509 0.913952 63.8189C1.10383 63.5696 1.31183 63.3343 1.5363 63.1148C1.77178 62.882 2.01287 62.6658 2.25957 62.4662C2.51187 62.2611 2.76418 62.0671 3.01648 61.8786L3.79582 61.3243C4.05373 61.1413 4.31164 60.9695 4.56955 60.8032C5.10219 60.4539 5.59558 60.0991 6.05533 59.7333C6.51509 59.3674 6.95241 58.9904 7.36731 58.6246C7.69934 58.3065 7.96924 57.9307 8.16347 57.5159C8.34213 57.121 8.44116 56.6954 8.45502 56.263C8.45492 55.8735 8.37878 55.4876 8.23075 55.1266C8.09646 54.8071 7.88694 54.5239 7.61962 54.3006C6.92871 53.8159 6.09438 53.5721 5.24797 53.6077C4.71879 53.6032 4.19299 53.6914 3.6949 53.8682C3.28751 54.0105 2.92569 54.2573 2.64644 54.5833C2.07142 55.3734 1.78478 56.333 1.83346 57.3052C1.84062 57.4629 1.77944 57.6162 1.66525 57.7265C1.5514 57.836 1.39795 57.8959 1.23914 57.8928H0.82424C0.665433 57.8959 0.511985 57.836 0.398132 57.7265C0.283947 57.6162 0.22277 57.4629 0.229934 57.3052C0.252361 53.8349 1.92504 52.0776 5.24797 52.0333C5.86912 52.0248 6.48778 52.1127 7.08137 52.2938C7.62855 52.4622 8.14382 52.7188 8.6064 53.0533C9.58319 53.8406 10.1224 55.0408 10.0586 56.2852C10.0428 56.8951 9.90558 57.496 9.65487 58.0536C9.39951 58.6198 9.04877 59.139 8.61761 59.5891C8.1806 60.0358 7.72022 60.4596 7.23836 60.8586C6.74341 61.2718 6.22078 61.6515 5.67408 61.995C4.70424 62.6401 3.76854 63.3339 2.8707 64.0739C2.40721 64.4392 2.03343 64.9035 1.77739 65.432H9.83428ZM22.2043 65.4478C22.3653 65.4465 22.5202 65.5083 22.6354 65.6197C22.7478 65.717 22.8163 65.8547 22.8257 66.0023V66.396C22.8314 66.5547 22.7682 66.7081 22.6522 66.8175C22.5404 66.934 22.3832 66.9967 22.2211 66.9894H12.9847C12.8256 66.992 12.673 66.9275 12.5648 66.812C12.4534 66.6972 12.3912 66.5442 12.3913 66.385C12.3991 66.0545 12.4404 65.7257 12.5144 65.4034C12.5863 65.1037 12.6934 64.8133 12.8335 64.5383C12.9796 64.2901 13.1384 64.0495 13.3093 63.8174C13.4989 63.568 13.7066 63.3326 13.9307 63.1131C14.1578 62.8824 14.3989 62.6657 14.6528 62.4643C14.8991 62.2591 15.151 62.065 15.4085 61.8765L16.181 61.3219C16.4385 61.1389 16.696 60.967 16.9535 60.8006C17.5133 60.4513 17.9835 60.0964 18.437 59.7303C18.8904 59.3643 19.3326 58.9873 19.7525 58.6212C20.0822 58.3015 20.3514 57.9259 20.5474 57.5121C20.7238 57.1167 20.8208 56.691 20.8329 56.2589C20.8355 55.8689 20.7594 55.4824 20.609 55.122C20.4844 54.806 20.2847 54.5245 20.0268 54.3013C19.337 53.8164 18.5039 53.5725 17.6589 53.6081C17.1287 53.603 16.6017 53.6913 16.1027 53.8687C15.6959 54.0111 15.3347 54.258 15.0559 54.5841C14.4842 55.3756 14.1982 56.3348 14.2442 57.307C14.2513 57.4647 14.1902 57.618 14.0762 57.7284C13.9661 57.8399 13.8137 57.9003 13.6564 57.8948H13.2366C13.0792 57.9003 12.9268 57.8399 12.8167 57.7284C12.7027 57.618 12.6416 57.4647 12.6488 57.307C12.6488 53.8355 14.3188 52.0775 17.6589 52.0332C18.279 52.0255 18.8965 52.1134 19.4894 52.2938C20.0357 52.4623 20.5501 52.719 21.012 53.0536C21.9896 53.8389 22.5269 55.0417 22.4562 56.2866C22.4451 56.8967 22.3099 57.4984 22.0588 58.0556C21.8018 58.6209 21.4518 59.14 21.0232 59.5917C20.5978 60.0243 20.1387 60.4457 19.6461 60.8616C19.1519 61.275 18.6302 61.6548 18.0843 61.9985C17.1151 62.6424 16.1808 63.3365 15.2854 64.078C14.8111 64.4421 14.4296 64.9112 14.1714 65.4478H22.2043ZM34.925 62.1493C35.129 61.2857 35.2265 60.4022 35.2153 59.5169C35.2329 58.6214 35.1412 57.727 34.9421 56.8519C34.7514 56.0371 34.447 55.2505 34.0372 54.5131C33.6114 53.755 32.9702 53.1272 32.1875 52.702C31.313 52.2535 30.3342 52.0234 29.3418 52.033C28.3645 52.0279 27.4015 52.2579 26.5417 52.702C25.7552 53.1362 25.1169 53.7784 24.7034 54.5512C24.2889 55.2864 23.9789 56.071 23.7814 56.8845C23.566 57.7483 23.4646 58.6345 23.4797 59.5223C23.4646 60.4066 23.566 61.2892 23.7814 62.1493C23.9789 62.9576 24.289 63.7368 24.7034 64.4663C25.1241 65.2299 25.7612 65.8651 26.5417 66.2992C27.3951 66.7512 28.3547 66.9889 29.3304 66.9899C30.3249 66.9938 31.3041 66.7562 32.1761 66.2992C32.9622 65.8629 33.6019 65.2214 34.0201 64.45C34.4307 63.7264 34.7352 62.9522 34.925 62.1493ZM33.5363 58.4291C33.5989 58.8207 33.5989 59.1797 33.5989 59.5169C33.6074 59.8689 33.596 60.2212 33.5648 60.572C33.5249 60.9528 33.4737 61.3063 33.4168 61.6598C33.3427 62.0015 33.2496 62.3392 33.1379 62.6715C33.0271 62.9955 32.8801 63.3073 32.6997 63.6015C32.5441 63.8738 32.3529 64.126 32.1306 64.3521C31.9072 64.5629 31.6567 64.7457 31.385 64.896C31.1156 65.0815 30.8127 65.218 30.4915 65.2984C30.1194 65.3875 29.7367 65.4295 29.3532 65.4235C28.9696 65.431 28.5867 65.389 28.2149 65.2984C27.8883 65.2137 27.5786 65.0777 27.2986 64.896C26.7579 64.5736 26.3192 64.1168 26.0295 63.5743C25.8594 63.2766 25.7166 62.9654 25.6026 62.6443C25.4834 62.3153 25.3958 61.9767 25.3408 61.6326C25.0145 60.2229 25.0145 58.762 25.3408 57.3522C25.3932 57.0064 25.479 56.6659 25.5969 56.3352C25.7034 56.0243 25.8446 55.7252 26.0181 55.4432C26.1754 55.1703 26.3664 54.9165 26.5872 54.6872C26.8041 54.4674 27.0466 54.2722 27.31 54.1052C27.9216 53.7618 28.6213 53.5885 29.3304 53.6048C30.9392 53.6375 32.0528 54.2466 32.6712 55.4323C32.8451 55.7213 32.9899 56.0255 33.1038 56.3406C33.2207 56.6681 33.3158 57.0023 33.3883 57.3414C33.4172 57.5125 33.4388 57.6893 33.4612 57.8731V57.8732V57.8732L33.4613 57.8736C33.483 58.0517 33.5055 58.2365 33.5363 58.4291ZM47.6057 59.5169C47.6226 60.4024 47.5251 61.2866 47.3154 62.1493C47.125 62.9513 46.8225 63.7251 46.4162 64.45C45.9962 65.2202 45.357 65.8612 44.5722 66.2992C43.7001 66.756 42.721 66.9936 41.7265 66.9899C40.7507 66.9892 39.7911 66.7515 38.9378 66.2992C38.1573 65.8651 37.5202 65.2299 37.0995 64.4663C36.6857 63.736 36.3738 62.9571 36.1718 62.1493C35.962 61.2883 35.8607 60.4064 35.8702 59.5223C35.8607 58.6347 35.962 57.7492 36.1718 56.8845C36.3738 56.0715 36.6856 55.2872 37.0995 54.5512C37.513 53.7784 38.1513 53.1362 38.9378 52.702C39.7958 52.2586 40.7568 52.0285 41.7322 52.033C42.7246 52.0236 43.7033 52.2537 44.5779 52.702C45.3593 53.1288 46 53.7562 46.4276 54.5131C46.8331 55.2517 47.1354 56.038 47.3268 56.8519C47.5335 57.7259 47.6272 58.621 47.6057 59.5169ZM45.9893 59.5169C45.9893 59.1797 45.9893 58.8207 45.9324 58.4291C45.9112 58.283 45.8931 58.1413 45.8755 58.0037C45.846 57.7726 45.818 57.5527 45.7787 57.3414C45.7088 57.0017 45.6137 56.6673 45.4942 56.3406C45.3823 56.0256 45.2393 55.7215 45.0673 55.4323C44.4413 54.2466 43.3258 53.6375 41.7208 53.6048C41.0136 53.5893 40.3159 53.7625 39.7061 54.1052C39.4416 54.2708 39.1989 54.4662 38.9833 54.6872C38.7608 54.9151 38.5695 55.1691 38.4142 55.4432C38.2412 55.7262 38.0982 56.025 37.9873 56.3352C37.8747 56.6674 37.7891 57.0074 37.7312 57.3522C37.4049 58.762 37.4049 60.2229 37.7312 61.6326C37.7889 61.9762 37.8764 62.3146 37.993 62.6443C38.1089 62.9656 38.2537 63.2768 38.4255 63.5743C38.7153 64.1168 39.154 64.5736 39.6947 64.896C39.9741 65.0787 40.284 65.2148 40.611 65.2984C40.9735 65.3871 41.3467 65.4291 41.7208 65.4235C42.1044 65.4299 42.4871 65.3878 42.8591 65.2984C43.1821 65.218 43.4869 65.0816 43.7583 64.896C44.0282 64.7456 44.2769 64.5628 44.4982 64.3521C44.7185 64.1245 44.9096 63.8725 45.0673 63.6015C45.246 63.3072 45.391 62.9954 45.4999 62.6715C45.6142 62.34 45.7073 62.0021 45.7787 61.6598C45.8414 61.3063 45.8926 60.9528 45.9324 60.5721C45.9713 60.2216 45.9904 59.8693 45.9893 59.5169ZM59.7073 62.1493C59.9116 61.2857 60.0091 60.4022 59.9979 59.5169C60.0156 58.6214 59.9238 57.727 59.7244 56.8519C59.5336 56.0371 59.2289 55.2505 58.8186 54.5131C58.3924 53.755 57.7506 53.1272 56.9672 52.702C56.0919 52.2535 55.1121 52.0234 54.1187 52.033C53.1404 52.0279 52.1765 52.2579 51.3159 52.702C50.5349 53.1378 49.9005 53.7775 49.4872 54.5458C49.0724 55.2809 48.762 56.0656 48.5643 56.8791C48.3487 57.7428 48.2472 58.629 48.2624 59.5169C48.2472 60.4012 48.3487 61.2838 48.5643 62.1439C48.762 62.9521 49.0724 63.7314 49.4872 64.4608C49.9059 65.224 50.5392 65.8606 51.3159 66.2992C52.1701 66.7512 53.1306 66.9889 54.1073 66.9899C55.1029 66.9946 56.0832 66.7568 56.9558 66.2992C57.7427 65.8629 58.383 65.2214 58.8015 64.45C59.2126 63.7264 59.5174 62.9522 59.7073 62.1493ZM58.38 59.5168V59.5169C58.3801 59.8621 58.3611 60.207 58.323 60.5503C58.2831 60.931 58.2319 61.2845 58.1749 61.6381C58.1007 61.9798 58.0075 62.3175 57.8957 62.6497C57.7843 62.9727 57.6392 63.2843 57.4628 63.5797C57.3128 63.8534 57.1292 64.109 56.9159 64.3412C56.6923 64.552 56.4416 64.7348 56.1696 64.8851C55.9 65.0706 55.5967 65.2071 55.2752 65.2876C54.9028 65.3766 54.5197 65.4187 54.1358 65.4126C53.7519 65.4202 53.3686 65.3781 52.9964 65.2876C52.6695 65.2028 52.3595 65.0668 52.0793 64.8851C51.538 64.5627 51.0989 64.1059 50.8089 63.5634C50.6386 63.2657 50.4957 62.9546 50.3816 62.6334C50.2623 62.3045 50.1745 61.9659 50.1195 61.6217C49.7929 60.212 49.7929 58.7511 50.1195 57.3414C50.172 56.9955 50.2579 56.6551 50.3759 56.3243C50.4825 56.0134 50.6238 55.7143 50.7975 55.4323C50.9549 55.1594 51.1462 54.9056 51.3671 54.6763C51.5842 54.4566 51.827 54.2613 52.0907 54.0943C52.7028 53.751 53.4032 53.5777 54.113 53.594C55.7195 53.6266 56.8361 54.2358 57.4628 55.4214C57.6313 55.7154 57.7724 56.023 57.8843 56.3406C58.0014 56.6681 58.0966 57.0023 58.1692 57.3414C58.1981 57.5126 58.2197 57.6894 58.2421 57.8732C58.2639 58.0515 58.2865 58.2363 58.3173 58.4291C58.38 58.8207 58.38 59.1796 58.38 59.5168Z" fill="#808285"/>
<path fill-rule="evenodd" clip-rule="evenodd" d="M59.7857 48.4397V44.7195C58.6068 45.3302 57.3795 45.8444 56.1161 46.2572C55.2869 46.4895 54.4291 46.6064 53.5673 46.6044C51.9728 46.6689 50.4107 46.1453 49.1837 45.1349C48.0743 44.2151 47.4457 42.8471 47.4742 41.4147C47.4349 39.9746 48.0763 38.5988 49.2088 37.6944C50.4753 36.6866 52.0695 36.1708 53.6926 36.2435C55.7774 36.308 57.8097 36.9061 59.5916 37.9796V34.247C57.6984 33.2003 55.553 32.6837 53.3857 32.7527C50.313 32.7527 47.829 33.6021 45.9336 35.3011C44.1028 36.8482 43.0573 39.1183 43.0781 41.5015C43.0343 43.8436 44.0218 46.0886 45.7834 47.6523C47.5869 49.3057 50.0104 50.1324 53.0538 50.1324C55.405 50.1306 57.7186 49.5489 59.7857 48.4397ZM11.838 36.5159V33.4711H0.214355V50.1325H4.43442V43.2816H11.838V40.2368H4.43442V36.5159H11.838ZM40.8709 34.0537V37.3672C38.6041 36.3578 36.7977 35.8511 35.4518 35.847C34.8182 35.8175 34.1876 35.95 33.6204 36.2317C33.2142 36.4115 32.9489 36.8078 32.9391 37.2493C32.9568 37.6136 33.1351 37.9517 33.4266 38.1738C34.1545 38.6625 34.9505 39.043 35.7893 39.3031C36.8292 39.6644 37.844 40.0935 38.827 40.5875C39.5975 40.9957 40.2676 41.5677 40.7896 42.2628C41.3636 43.0587 41.656 44.0209 41.6209 44.9992C41.6584 46.4566 40.9859 47.8426 39.8146 48.7221C38.4337 49.7086 36.7574 50.2027 35.058 50.1244C32.9046 50.1172 30.7892 49.5617 28.9138 48.5111V44.8564C29.8646 45.5119 30.8803 46.0691 31.9453 46.5193C32.8388 46.869 33.7913 47.0459 34.7517 47.0406C36.4268 47.0406 37.2519 46.5193 37.2519 45.4769C37.2381 45.0844 37.0561 44.7165 36.7519 44.4655C36.0173 43.9474 35.1993 43.5572 34.3329 43.3114C33.2963 42.9639 32.2836 42.5493 31.3015 42.0704C30.5361 41.6676 29.8734 41.0968 29.3638 40.4013C28.7941 39.5925 28.5086 38.62 28.5513 37.634C28.5202 36.2385 29.1844 34.9176 30.3264 34.1034C31.7151 33.1429 33.3866 32.6691 35.0767 32.7569C37.0773 32.7897 39.0497 33.2311 40.8709 34.0537ZM26.323 37.3705V34.0659C24.4974 33.2359 22.5184 32.7892 20.5103 32.754C18.8277 32.6801 17.1678 33.161 15.7902 34.1216C14.651 34.9343 13.9898 36.2519 14.0233 37.6427C13.9729 38.6205 14.247 39.5878 14.8038 40.3965C15.312 41.0885 15.9715 41.6576 16.733 42.0612C17.7163 42.5386 18.7298 42.952 19.7673 43.2988C20.6322 43.5454 21.449 43.9345 22.1835 44.4499C22.4856 44.7016 22.6669 45.0677 22.683 45.4586C22.683 46.4982 21.8506 47.018 20.1856 47.018C19.2283 47.0234 18.2789 46.847 17.3886 46.4982C16.3206 46.0497 15.3017 45.494 14.348 44.8397V48.4846C16.2263 49.5457 18.3483 50.1105 20.5103 50.1245C22.2204 50.2029 23.906 49.6984 25.2865 48.695C26.4582 47.8192 27.1304 46.436 27.0909 44.9821C27.1282 44.0071 26.8384 43.0474 26.2668 42.253C25.7454 41.5598 25.0759 40.9893 24.3063 40.5822C23.3233 40.0918 22.3098 39.6639 21.272 39.3012C20.4243 39.0469 19.6203 38.6672 18.887 38.1749C18.5958 37.9535 18.4177 37.6162 18.4 37.2529C18.4101 36.8145 18.672 36.4204 19.0743 36.238C19.6416 35.9589 20.2709 35.8269 20.9036 35.8543C22.2522 35.8584 24.0587 36.3638 26.323 37.3705Z" fill="#2A8961"/>
<path d="M40.7162 5.41029C35.9065 0.501434 28.3265 -0.460222 22.431 3.09048C15.4733 7.18179 13.746 16.4008 17.8915 23.0469C17.9885 23.2036 18.4976 23.0469 18.4491 22.8541C17.0998 18.5558 17.8415 13.8779 20.4552 10.2006C22.4088 6.923 25.6272 4.58387 29.3613 3.72778C33.0954 2.87169 37.0192 3.57335 40.2192 5.66939C40.3525 5.78387 40.8859 5.57901 40.7162 5.41029Z" fill="#2A8961"/>
<path d="M41.2003 3.21576C39.0545 1.91148 36.2096 2.37686 33.9674 3.06267H33.9252H33.889C28.5005 5.01603 22.3947 10.2454 22.8588 16.6075C22.8588 16.779 23.3952 16.6075 23.4314 16.4851C24.6972 12.3396 27.952 9.13704 31.6588 7.17757C35.3657 5.2181 41.8633 4.56902 42.7855 10.0127C42.7855 10.1903 43.328 10.0127 43.3581 9.89022C43.9548 7.27554 43.6233 4.70986 41.2003 3.21576Z" fill="#AAD0C0"/>
<path d="M41.621 10.6588C41.206 10.1779 41.0821 10.0577 40.6422 9.59474C40.4997 9.44445 39.9607 9.59474 40.1094 9.81718C42.8674 14.1839 42.5821 19.7454 39.3908 23.8246C37.406 26.2793 34.5205 27.8948 31.3372 28.3335C28.0414 28.8505 24.82 27.6301 21.8959 26.2835C21.7163 26.1993 21.2392 26.3436 21.4561 26.578C25.8608 31.3875 33.648 32.5477 39.0625 28.5559C41.8731 26.53 43.7272 23.4933 44.2083 20.1279C44.6895 16.7626 43.7572 13.3507 41.621 10.6588Z" fill="#808285"/>
<path d="M38.4703 15.3601C38.4396 15.1774 37.9125 15.2444 37.8573 15.4089C37.2443 18.6559 35.2216 21.3607 32.7452 23.5112C29.5455 26.2831 22.3248 28.9514 20.6514 23.3163C20.5963 23.1152 20.0814 23.2066 20.0385 23.4016C19.309 29.1585 24.3292 30.5536 28.9571 28.8844C33.8608 27.1299 38.5193 21.9456 38.599 16.6333C38.6037 16.2055 38.5605 15.7785 38.4703 15.3601Z" fill="#BCBEC0"/>
</svg>
