<svg width="140" height="81" viewBox="0 0 140 81" fill="none" xmlns="http://www.w3.org/2000/svg">
<path fill-rule="evenodd" clip-rule="evenodd" d="M111.08 62.71C111.119 64.782 110.892 66.851 110.403 68.869C109.958 70.746 109.253 72.557 108.304 74.253C107.325 76.055 105.833 77.555 104.002 78.58C101.967 79.649 99.6823 80.205 97.3619 80.196C95.0851 80.195 92.846 79.638 90.8549 78.58C89.0337 77.564 87.5473 76.078 86.5655 74.291C85.6 72.582 84.8722 70.759 84.4009 68.869C83.9113 66.855 83.6751 64.791 83.6971 62.722C83.6751 60.645 83.9114 58.573 84.4009 56.55C84.8721 54.647 85.5998 52.812 86.5655 51.09C87.5303 49.281 89.0198 47.779 90.8549 46.763C92.857 45.725 95.0992 45.187 97.3752 45.197C99.6907 45.175 101.975 45.714 104.015 46.763C105.838 47.761 107.333 49.23 108.331 51.001C109.277 52.729 109.983 54.569 110.429 56.473C110.912 58.519 111.13 60.613 111.08 62.71ZM107.308 62.71C107.308 61.92 107.308 61.08 107.176 60.164C107.126 59.822 107.084 59.491 107.043 59.169C106.974 58.628 106.909 58.113 106.817 57.619C106.654 56.824 106.432 56.041 106.153 55.277C105.892 54.54 105.559 53.828 105.157 53.152C103.696 50.377 101.094 48.952 97.3487 48.875C95.6985 48.839 94.0704 49.244 92.6476 50.046C92.0304 50.434 91.4642 50.891 90.9611 51.408C90.4419 51.941 89.9956 52.536 89.6331 53.177C89.2294 53.839 88.8958 54.538 88.6371 55.264C88.3744 56.042 88.1746 56.837 88.0395 57.644C87.2782 60.943 87.2782 64.361 88.0395 67.66C88.1741 68.464 88.3784 69.256 88.6504 70.028C88.9209 70.779 89.2586 71.508 89.6597 72.204C90.3357 73.473 91.3594 74.542 92.6211 75.297C93.273 75.724 93.996 76.043 94.7591 76.238C95.6049 76.446 96.4757 76.544 97.3487 76.531C98.2436 76.546 99.1366 76.447 100.005 76.238C100.758 76.05 101.469 75.731 102.103 75.297C102.733 74.945 103.313 74.517 103.829 74.024C104.343 73.491 104.789 72.902 105.157 72.268C105.574 71.579 105.912 70.849 106.166 70.091C106.433 69.315 106.65 68.525 106.817 67.724C106.963 66.897 107.083 66.069 107.176 65.179C107.267 64.358 107.311 63.534 107.308 62.71ZM51.8102 76.588C52.1857 76.585 52.5472 76.729 52.816 76.99C53.0782 77.218 53.2381 77.54 53.26 77.885V78.807C53.2733 79.178 53.1259 79.537 52.8551 79.793C52.5944 80.065 52.2275 80.212 51.8494 80.195H30.2976C29.9265 80.201 29.5703 80.05 29.318 79.78C29.058 79.511 28.9129 79.153 28.913 78.781C28.9314 78.008 29.0276 77.238 29.2004 76.484C29.368 75.783 29.6179 75.103 29.9449 74.46C30.2857 73.879 30.6563 73.316 31.0552 72.773C31.4975 72.189 31.9821 71.638 32.505 71.125C33.0348 70.585 33.5976 70.078 34.19 69.606C34.7647 69.126 35.3525 68.672 35.9533 68.231L37.7558 66.933C38.3566 66.505 38.9575 66.103 39.5583 65.713C40.8645 64.896 41.9617 64.065 43.0197 63.209C44.0777 62.353 45.1096 61.47 46.0892 60.614C46.8585 59.866 47.4867 58.987 47.9439 58.018C48.3557 57.093 48.5819 56.097 48.6101 55.086C48.6163 54.173 48.4387 53.269 48.0876 52.426C47.797 51.686 47.331 51.027 46.7292 50.505C45.1196 49.37 43.1759 48.8 41.2041 48.883C39.9669 48.871 38.7374 49.078 37.573 49.493C36.6239 49.826 35.781 50.404 35.1304 51.167C33.7964 53.019 33.1293 55.263 33.2365 57.538C33.2532 57.907 33.1106 58.266 32.8446 58.524C32.5877 58.785 32.2321 58.927 31.865 58.914H30.8854C30.5183 58.927 30.1627 58.785 29.9057 58.524C29.6397 58.266 29.4972 57.907 29.5139 57.538C29.5139 49.415 33.4106 45.301 41.2041 45.198C42.6511 45.18 44.092 45.385 45.4753 45.808C46.75 46.202 47.9504 46.802 49.028 47.585C51.3092 49.423 52.5629 52.237 52.398 55.151C52.3719 56.578 52.0565 57.986 51.4706 59.29C50.8709 60.613 50.0543 61.828 49.0542 62.885C48.0615 63.897 46.9904 64.883 45.841 65.856C44.6879 66.823 43.4704 67.712 42.1968 68.516C39.9352 70.023 37.7552 71.647 35.666 73.383C34.5594 74.235 33.6692 75.332 33.0667 76.588H51.8102ZM22.9467 76.551C23.3188 76.549 23.6766 76.693 23.9409 76.953C24.2157 77.212 24.3636 77.576 24.3465 77.952V78.873C24.3182 79.617 23.6976 80.204 22.9467 80.196H1.38687C1.01066 80.206 0.648375 80.055 0.392595 79.781C0.135821 79.511 -0.00493806 79.153 0.00013238 78.782C0.00781564 78.009 0.0999139 77.239 0.274847 76.486C0.442715 75.785 0.693001 75.106 1.02055 74.462C1.36188 73.882 1.73303 73.319 2.13255 72.776C2.57561 72.193 3.06095 71.642 3.5847 71.129C4.13417 70.584 4.6967 70.078 5.27233 69.611C5.86104 69.131 6.44975 68.677 7.03845 68.236L8.85692 66.939C9.45871 66.511 10.0605 66.109 10.6623 65.719C11.9051 64.902 13.0564 64.072 14.1291 63.216C15.2019 62.36 16.2223 61.478 17.1904 60.621C17.9651 59.877 18.5949 58.998 19.0481 58.027C19.465 57.103 19.6961 56.107 19.7284 55.095C19.7282 54.184 19.5505 53.281 19.2051 52.436C18.8917 51.689 18.4029 51.026 17.7791 50.503C16.167 49.369 14.2202 48.799 12.2453 48.882C11.0105 48.872 9.78364 49.078 8.62142 49.492C7.67086 49.825 6.82661 50.402 6.17502 51.165C4.83332 53.014 4.16449 55.259 4.27807 57.534C4.29479 57.903 4.15202 58.262 3.88559 58.52C3.61993 58.776 3.26189 58.916 2.89133 58.909H1.92323C1.55268 58.916 1.19463 58.776 0.928975 58.52C0.662544 58.262 0.519796 57.903 0.536512 57.534C0.588842 49.414 4.49176 45.302 12.2453 45.198C13.6946 45.178 15.1382 45.384 16.5232 45.808C17.7999 46.202 19.0023 46.802 20.0816 47.585C22.3608 49.427 23.619 52.235 23.47 55.147C23.4331 56.575 23.113 57.981 22.528 59.285C21.9322 60.61 21.1138 61.825 20.1078 62.879C19.0881 63.924 18.0139 64.915 16.8895 65.849C15.7346 66.816 14.5152 67.704 13.2395 68.508C10.9766 70.018 8.79327 71.641 6.69831 73.373C5.61683 74.228 4.74467 75.314 4.14725 76.551H22.9467ZM81.4916 68.869C81.9678 66.849 82.1951 64.781 82.1689 62.71C82.2101 60.614 81.9962 58.521 81.5315 56.473C81.0865 54.567 80.3764 52.726 79.42 51.001C78.4265 49.227 76.9304 47.758 75.1041 46.763C73.0637 45.713 70.7798 45.175 68.4642 45.197C66.1838 45.185 63.9368 45.724 61.9306 46.763C60.0955 47.779 58.606 49.281 57.6412 51.09C56.6742 52.81 55.9507 54.646 55.4899 56.55C54.9872 58.571 54.7508 60.645 54.786 62.722C54.7508 64.791 54.9872 66.857 55.4899 68.869C55.9507 70.761 56.6743 72.584 57.6412 74.291C58.623 76.078 60.1094 77.564 61.9306 78.58C63.9219 79.638 66.1609 80.194 68.4377 80.196C70.7581 80.206 73.0429 79.649 75.0775 78.58C76.9119 77.559 78.4044 76.058 79.3802 74.253C80.3383 72.56 81.0488 70.748 81.4916 68.869ZM78.2514 60.164C78.3975 61.08 78.3975 61.92 78.3975 62.71C78.4173 63.533 78.3907 64.358 78.3178 65.179C78.2248 66.069 78.1053 66.897 77.9725 67.724C77.7996 68.524 77.5824 69.314 77.3218 70.091C77.0631 70.85 76.7203 71.579 76.2993 72.268C75.9363 72.905 75.49 73.495 74.9713 74.024C74.4502 74.517 73.8656 74.945 73.2316 75.297C72.6031 75.731 71.8963 76.05 71.1467 76.238C70.2786 76.447 69.3856 76.545 68.4908 76.531C67.5957 76.549 66.7023 76.45 65.8348 76.238C65.0726 76.04 64.3501 75.722 63.6968 75.297C62.4351 74.542 61.4114 73.473 60.7354 72.204C60.3386 71.507 60.0053 70.779 59.7394 70.028C59.4612 69.258 59.2567 68.466 59.1285 67.66C58.3672 64.361 58.3672 60.943 59.1285 57.644C59.2509 56.835 59.4509 56.038 59.7261 55.264C59.9746 54.537 60.304 53.837 60.7088 53.177C61.0758 52.538 61.5217 51.944 62.0368 51.408C62.5429 50.894 63.1087 50.437 63.7233 50.046C65.1503 49.243 66.7831 48.837 68.4377 48.875C72.1914 48.952 74.7898 50.377 76.2329 53.152C76.6385 53.828 76.9765 54.54 77.2421 55.277C77.5151 56.043 77.7368 56.825 77.9061 57.619C77.9735 58.019 78.0238 58.433 78.0762 58.863C78.1269 59.28 78.1795 59.713 78.2514 60.164ZM139.317 68.869C139.794 66.849 140.021 64.781 139.995 62.71C140.036 60.614 139.822 58.521 139.357 56.473C138.912 54.567 138.201 52.726 137.243 51.001C136.249 49.227 134.751 47.758 132.923 46.763C130.881 45.713 128.595 45.175 126.277 45.197C123.994 45.185 121.745 45.724 119.737 46.763C117.915 47.783 116.434 49.279 115.47 51.077C114.502 52.797 113.778 54.633 113.317 56.537C112.814 58.558 112.577 60.632 112.612 62.71C112.577 64.779 112.814 66.844 113.317 68.857C113.778 70.748 114.502 72.571 115.47 74.278C116.447 76.064 117.925 77.554 119.737 78.58C121.73 79.638 123.971 80.194 126.25 80.196C128.573 80.207 130.861 79.651 132.897 78.58C134.733 77.559 136.227 76.058 137.204 74.253C138.163 72.56 138.874 70.748 139.317 68.869ZM136.074 60.164C136.22 61.08 136.22 61.92 136.22 62.71C136.22 63.517 136.176 64.324 136.087 65.128C135.994 66.019 135.874 66.846 135.741 67.673C135.568 68.473 135.351 69.263 135.09 70.04C134.83 70.796 134.492 71.525 134.08 72.217C133.73 72.857 133.301 73.455 132.804 73.998C132.282 74.492 131.697 74.919 131.062 75.271C130.433 75.705 129.726 76.025 128.975 76.213C128.106 76.421 127.213 76.52 126.317 76.506C125.421 76.523 124.527 76.425 123.658 76.213C122.895 76.015 122.172 75.696 121.518 75.271C120.255 74.517 119.231 73.448 118.554 72.178C118.157 71.482 117.823 70.754 117.557 70.002C117.279 69.232 117.074 68.44 116.946 67.635C116.183 64.336 116.183 60.918 116.946 57.619C117.068 56.809 117.268 56.013 117.544 55.239C117.792 54.511 118.122 53.811 118.527 53.152C118.895 52.513 119.341 51.919 119.857 51.383C120.363 50.868 120.93 50.411 121.545 50.021C122.973 49.217 124.608 48.812 126.264 48.85C130.012 48.926 132.618 50.352 134.08 53.126C134.473 53.814 134.802 54.534 135.063 55.277C135.337 56.043 135.559 56.825 135.728 57.619C135.796 58.019 135.846 58.433 135.898 58.863C135.949 59.28 136.002 59.713 136.074 60.164Z" fill="#808285"/>
<path fill-rule="evenodd" clip-rule="evenodd" d="M95.3653 3.1254V10.8788C90.0761 8.517 85.8612 7.33121 82.7207 7.32151C81.2424 7.25271 79.7711 7.56261 78.4475 8.22171C77.4996 8.64261 76.8806 9.5699 76.8578 10.6029C76.8992 11.4554 77.3152 12.2466 77.9954 12.7663C79.6938 13.91 81.5511 14.8003 83.5083 15.4088C85.9347 16.2545 88.3025 17.2585 90.5962 18.4144C92.394 19.3695 93.9577 20.7082 95.1757 22.3346C96.5151 24.197 97.1972 26.449 97.1154 28.738C97.2028 32.148 95.6336 35.391 92.9006 37.449C89.6785 39.758 85.7673 40.914 81.8019 40.731C76.7774 40.714 71.8413 39.414 67.4655 36.956V28.404C69.6839 29.937 72.054 31.241 74.5389 32.295C76.6237 33.113 78.8464 33.527 81.0873 33.515C84.9959 33.515 86.921 32.295 86.921 29.856C86.8887 28.937 86.4643 28.076 85.7542 27.489C84.0403 26.277 82.1317 25.363 80.1101 24.7884C77.6912 23.9751 75.3283 23.0051 73.0367 21.8845C71.2508 20.9419 69.7046 19.6061 68.5155 17.9788C67.1862 16.0862 66.5199 13.8104 66.6196 11.5031C66.5471 8.2377 68.0968 5.1468 70.7615 3.2416C74.0017 0.993903 77.9019 -0.1147 81.8456 0.0908999C86.5137 0.1674 91.1159 1.2004 95.3653 3.1254ZM139.5 36.789V28.083C136.749 29.512 133.886 30.716 130.937 31.681C129.003 32.225 127.001 32.499 124.99 32.494C121.27 32.645 117.625 31.42 114.762 29.055C112.173 26.903 110.707 23.7018 110.773 20.35C110.681 16.9802 112.178 13.761 114.82 11.6446C117.776 9.2864 121.495 8.0792 125.283 8.2495C130.147 8.4003 134.889 9.8 139.047 12.312V3.5776C134.629 1.1283 129.624 -0.0804946 124.567 0.0809054C117.397 0.0809054 111.601 2.0687 107.178 6.0441C102.907 9.6645 100.467 14.9765 100.515 20.5531C100.413 26.034 102.717 31.287 106.828 34.946C111.036 38.815 116.691 40.75 123.792 40.75C129.278 40.745 134.677 39.384 139.5 36.789ZM27.6219 8.8869V1.762H0.5V40.75H10.3468V24.7186H27.6219V17.5936H10.3468V8.8869H27.6219ZM61.4201 10.8865V3.1539C57.1606 1.2117 52.5428 0.166503 47.8572 0.0840029C43.9311 -0.0889971 40.058 1.03651 36.8438 3.28421C34.1855 5.18591 32.6428 8.2691 32.721 11.5237C32.6034 13.8117 33.243 16.075 34.542 17.9675C35.7278 19.5868 37.2667 20.9184 39.0436 21.8628C41.3378 22.98 43.7028 23.9474 46.1236 24.7589C48.1417 25.336 50.0476 26.246 51.7615 27.452C52.4663 28.041 52.8893 28.898 52.9269 29.813C52.9269 32.245 50.9845 33.462 47.0997 33.462C44.866 33.474 42.6505 33.062 40.5732 32.245C38.0812 31.196 35.704 29.896 33.4786 28.365V36.894C37.8613 39.377 42.8127 40.698 47.8572 40.731C51.8475 40.914 55.7805 39.734 59.0018 37.386C61.7357 35.337 63.3041 32.1 63.212 28.698C63.299 26.416 62.6227 24.1705 61.289 22.3117C60.0724 20.6896 58.5104 19.3546 56.7146 18.4019C54.421 17.2544 52.0562 16.2533 49.6345 15.4045C47.6567 14.8094 45.7805 13.9209 44.0695 12.769C43.3902 12.2507 42.9746 11.4616 42.9332 10.6114C42.9569 9.5856 43.5679 8.66331 44.5066 8.23661C45.8302 7.58351 47.2987 7.2746 48.775 7.3388C51.9217 7.3484 56.1368 8.531 61.4201 10.8865Z" fill="#2A8961"/>
</svg>
