<svg width="75" height="76" viewBox="0 0 75 76" fill="none" xmlns="http://www.w3.org/2000/svg">
<path fill-rule="evenodd" clip-rule="evenodd" d="M74.5966 51.8805C78 43.5 57.6674 45.2291 53.0386 45.7354C44.1543 40.6022 38.7408 32.9936 35.4598 23.2203C36.1356 19.391 41.4321 0 34.0495 0C24.6172 0 30.1552 18.8895 31.6318 23.6736C30.0703 29.1135 27.6526 35.7119 23.7742 43.4688C14.7078 61.7025 7.75683 71.4238 3.12288 72.4312C3.62657 69.8623 7.9583 63.6669 14.5567 58.7811L17 55C11.5 57 -6.14946 70.3585 2.51845 74.597C10.5 78.5 19.5648 59.6999 21.9105 55.6582C30.1207 52.7367 41.353 50.3694 51.5779 49.362C54.7261 51.0459 71.5721 59.3279 74.5966 51.8805ZM59.1836 48.8079C62.1196 48.6534 73.8129 48.07 73.2366 51.5279C69.0707 53.3794 62.9501 50.4507 59.1836 48.8079ZM23.1194 53.4419C31.0273 50.1679 39.439 47.9516 47.0447 46.642C41.0159 42.4481 36.8224 36.496 33.848 29.8187C31.3745 38.1554 27.3114 45.8639 23.1194 53.4419ZM33.6969 1.86367C31.1914 5.62192 32.7147 12.1071 33.5458 16.1182C34.3058 12.5947 37.2789 4.61907 33.6969 1.86367Z" fill="#FCFCFC"/>
</svg>
