<svg width="76" height="30" viewBox="0 0 76 30" fill="none" xmlns="http://www.w3.org/2000/svg">
<path fill-rule="evenodd" clip-rule="evenodd" d="M36.0679 0.020757C36.8538 0.00369846 37.3337 0.865972 36.9171 1.53254L35.6537 3.55407C35.0229 4.56328 36.3673 5.63271 37.2088 4.79118L41.5967 0.403226C41.7959 0.204096 42.0698 0.0978162 42.351 0.112699C43.5043 0.17373 44.6269 0.259006 45.7191 0.367204C46.4518 0.439794 46.8386 1.2603 46.4416 1.88042L45.9307 2.67848C45.3037 3.65789 46.5712 4.7381 47.4388 3.96371L50.3378 1.37614C50.5669 1.17167 50.882 1.0841 51.1838 1.14059C67.9691 4.28221 76 13.3969 76 21.9569C76 26.7503 58.9868 30 38 30C17.0132 30 0 26.4811 0 21.9569C0 12.951 8.09965 4.05232 25.0318 1.05832C25.8736 0.909473 26.4739 1.83001 26.013 2.54996L25.9307 2.67848C25.3037 3.65788 26.5712 4.73809 27.4388 3.96371L31.3613 0.462635C31.5248 0.316647 31.7318 0.228236 31.9504 0.212385C33.28 0.116 34.6524 0.0514819 36.0679 0.020757Z" fill="#2E3133"/>
</svg>
