<svg width="50" height="50" viewBox="0 0 50 50" fill="none" xmlns="http://www.w3.org/2000/svg">
<path d="M1 25C1 11.745 11.745 1 25 1C38.255 1 49 11.745 49 25C49 38.255 38.255 49 25 49C11.745 49 1 38.255 1 25Z" stroke="#2E3538" stroke-width="2"/>
<path d="M27.0292 14.02C28.3486 14 29.6579 14.01 30.9672 14C31.0477 15.53 31.6017 17.09 32.7297 18.1699C33.8577 19.2799 35.449 19.7899 37 19.9599V23.9899C35.5497 23.9399 34.0893 23.6399 32.77 23.0199C32.1959 22.7599 31.6621 22.4299 31.1384 22.0899C31.1283 25.0099 31.1485 27.9298 31.1182 30.8398C31.0377 32.2398 30.5744 33.6298 29.7586 34.7797C28.4392 36.6997 26.153 37.9497 23.8063 37.9897C22.3661 38.0697 20.9259 37.6797 19.6972 36.9597C17.6627 35.7697 16.2326 33.5898 16.0211 31.2498C16.0009 30.7498 15.9908 30.2498 16.011 29.7598C16.1923 27.8598 17.139 26.0398 18.6094 24.7999C20.2813 23.3599 22.6179 22.6699 24.8034 23.0799C24.8235 24.5599 24.7631 26.0398 24.7631 27.5198C23.766 27.1998 22.5977 27.2898 21.7215 27.8898C21.087 28.2998 20.6036 28.9298 20.3518 29.6398C20.1403 30.1498 20.2007 30.7098 20.2108 31.2498C20.4525 32.8898 22.0438 34.2697 23.7358 34.1197C24.8638 34.1097 25.9415 33.4598 26.5256 32.5098C26.717 32.1798 26.9285 31.8398 26.9386 31.4498C27.0393 29.6598 26.999 27.8798 27.0091 26.0898C27.0191 22.0599 26.999 18.0399 27.0292 14.02Z" fill="#F62B52"/>
<path d="M25.0292 12.02C26.3486 12 27.6579 12.01 28.9672 12C29.0477 13.53 29.6017 15.09 30.7297 16.1699C31.8577 17.2799 33.449 17.7899 35 17.9599V21.9899C33.5497 21.9399 32.0893 21.6399 30.77 21.0199C30.1959 20.7599 29.6621 20.4299 29.1384 20.0899C29.1283 23.0099 29.1485 25.9298 29.1182 28.8398C29.0377 30.2398 28.5744 31.6298 27.7586 32.7797C26.4392 34.6997 24.153 35.9497 21.8063 35.9897C20.3661 36.0697 18.9259 35.6797 17.6972 34.9597C15.6627 33.7697 14.2326 31.5898 14.0211 29.2498C14.0009 28.7498 13.9908 28.2498 14.011 27.7598C14.1923 25.8598 15.139 24.0398 16.6094 22.7999C18.2813 21.3599 20.6179 20.6699 22.8034 21.0799C22.8235 22.5599 22.7631 24.0398 22.7631 25.5198C21.766 25.1998 20.5977 25.2898 19.7215 25.8898C19.087 26.2998 18.6036 26.9298 18.3518 27.6398C18.1403 28.1498 18.2007 28.7098 18.2108 29.2498C18.4525 30.8898 20.0438 32.2697 21.7358 32.1197C22.8638 32.1097 23.9415 31.4598 24.5256 30.5098C24.717 30.1798 24.9285 29.8398 24.9386 29.4498C25.0393 27.6598 24.999 25.8798 25.0091 24.0898C25.0191 20.0599 24.999 16.0399 25.0292 12.02Z" fill="#24ECE7"/>
<path d="M26.0292 13.02C27.3486 13 28.6579 13.01 29.9672 13C30.0477 14.53 30.6017 16.09 31.7297 17.1699C32.8577 18.2799 34.449 18.7899 36 18.9599V22.9899C34.5497 22.9399 33.0893 22.6399 31.77 22.0199C31.1959 21.7599 30.6621 21.4299 30.1384 21.0899C30.1283 24.0099 30.1485 26.9298 30.1182 29.8398C30.0377 31.2398 29.5744 32.6298 28.7586 33.7797C27.4392 35.6997 25.153 36.9497 22.8063 36.9897C21.3661 37.0697 19.9259 36.6797 18.6972 35.9597C16.6627 34.7697 15.2326 32.5898 15.0211 30.2498C15.0009 29.7498 14.9908 29.2498 15.011 28.7598C15.1923 26.8598 16.139 25.0398 17.6094 23.7999C19.2813 22.3599 21.6179 21.6699 23.8034 22.0799C23.8235 23.5599 23.7631 25.0398 23.7631 26.5198C22.766 26.1998 21.5977 26.2898 20.7215 26.8898C20.087 27.2998 19.6036 27.9298 19.3518 28.6398C19.1403 29.1498 19.2007 29.7098 19.2108 30.2498C19.4525 31.8898 21.0438 33.2697 22.7358 33.1197C23.8638 33.1097 24.9415 32.4598 25.5256 31.5098C25.717 31.1798 25.9285 30.8398 25.9386 30.4498C26.0393 28.6598 25.999 26.8798 26.0091 25.0898C26.0191 21.0599 25.999 17.0399 26.0292 13.02Z" fill="#2E3538"/>
</svg>
