<svg width="70" height="49" viewBox="0 0 70 49" fill="none" xmlns="http://www.w3.org/2000/svg">
<g clip-path="url(#clip0)">
<path d="M68.4552 7.67689C68.0537 6.19307 67.2705 4.84032 66.1835 3.75334C65.0966 2.66637 63.7439 1.88309 62.2601 1.48151C56.8279 0 34.9651 0 34.9651 0C34.9651 0 13.1012 0.0448444 7.669 1.52635C6.1852 1.92796 4.8324 2.71128 3.7455 3.7983C2.6586 4.88533 1.8754 6.23814 1.4739 7.72201C-0.169199 17.374 -0.806599 32.0813 1.519 41.3472C1.9205 42.831 2.7038 44.1838 3.7907 45.2707C4.8776 46.3577 6.2303 47.141 7.7141 47.5426C13.1463 49.0241 35.0097 49.0241 35.0097 49.0241C35.0097 49.0241 56.8727 49.0241 62.3047 47.5426C63.7885 47.141 65.1413 46.3578 66.2283 45.2708C67.3152 44.1838 68.0985 42.831 68.5 41.3472C70.2331 31.6816 70.7671 16.9835 68.4552 7.67716V7.67689Z" fill="#FF0000"/>
<path d="M28.0068 35.017L46.144 24.5119L28.0071 14.0068L28.0068 35.017Z" fill="white"/>
</g>
<defs>
<clipPath id="clip0">
<rect width="70" height="49" fill="white"/>
</clipPath>
</defs>
</svg>
