<svg width="50" height="50" viewBox="0 0 50 50" fill="none" xmlns="http://www.w3.org/2000/svg">
<path d="M1 25C1 11.745 11.745 1 25 1C38.255 1 49 11.745 49 25C49 38.255 38.255 49 25 49C11.745 49 1 38.255 1 25Z" stroke="#DA2F36" stroke-width="2"/>
<path d="M37.4269 19.2017C37.2778 18.6506 36.9869 18.1481 36.5832 17.7444C36.1794 17.3406 35.677 17.0497 35.1258 16.9005C33.1081 16.3502 24.9874 16.3502 24.9874 16.3502C24.9874 16.3502 16.8663 16.3669 14.8486 16.9172C14.2974 17.0663 13.795 17.3573 13.3912 17.7611C12.9875 18.1648 12.6966 18.6673 12.5475 19.2185C11.9371 22.8036 11.7004 28.2665 12.5642 31.7082C12.7134 32.2593 13.0043 32.7618 13.408 33.1655C13.8117 33.5693 14.3142 33.8602 14.8653 34.0094C16.8831 34.5597 25.004 34.5597 25.004 34.5597C25.004 34.5597 33.1248 34.5597 35.1424 34.0094C35.6936 33.8602 36.196 33.5693 36.5998 33.1656C37.0035 32.7618 37.2945 32.2593 37.4436 31.7082C38.0873 28.118 38.2857 22.6586 37.4269 19.2018V19.2017Z" fill="#DA2F36"/>
<path d="M22.4028 29.3569L29.1397 25.4549L22.4029 21.5529L22.4028 29.3569Z" fill="white"/>
</svg>
